<svg id="ebv5gonk5jte1" xmlns="http://www.w3.org/2000/svg" xmlns:xlink="http://www.w3.org/1999/xlink" viewBox="0 0 160 250" shape-rendering="geometricPrecision" text-rendering="geometricPrecision"><defs><filter id="ebv5gonk5jte28-filter" x="-400%" width="600%" y="-400%" height="600%"><feComponentTransfer id="ebv5gonk5jte28-filter-opacity-0" result="result"><feFuncA id="ebv5gonk5jte28-filter-opacity-0-A" type="table" tableValues="0 1"/></feComponentTransfer></filter><filter id="ebv5gonk5jte37-filter" x="-400%" width="600%" y="-400%" height="600%"><feComponentTransfer id="ebv5gonk5jte37-filter-opacity-0" result="result"><feFuncA id="ebv5gonk5jte37-filter-opacity-0-A" type="table" tableValues="0 1"/></feComponentTransfer></filter></defs><g id="ebv5gonk5jte2" transform="matrix(1 0 0 1 0 -26)" clip-path="url(#ebv5gonk5jte22)"><g id="ebv5gonk5jte3"><g id="ebv5gonk5jte4" transform="matrix(1 0 0 1 0.30012512207031 0.14467620849609)"><path id="ebv5gonk5jte5" d="M52.250000,181.630000C52.270474,182.173937,52.142573,182.713196,51.880000,183.190000C51.637017,183.602861,51.292861,183.947017,50.880000,184.190000C50.458378,184.457894,49.990307,184.644444,49.500000,184.740000C48.978234,184.857215,48.444754,184.914254,47.910000,184.910000L43.420000,184.910000L43.420000,173.600000L47.930000,173.600000C48.380129,173.603473,48.828874,173.650357,49.270000,173.740000C49.710014,173.820328,50.132878,173.975942,50.520000,174.200000C50.890647,174.418967,51.202851,174.724310,51.430000,175.090000C51.681190,175.519666,51.802741,176.012816,51.780000,176.510000C51.802114,177.074269,51.621164,177.627764,51.270000,178.070000C50.920400,178.491793,50.454359,178.801328,49.930000,178.960000L49.930000,178.960000C50.243214,179.009451,50.546838,179.107286,50.830000,179.250000C51.106482,179.389379,51.356825,179.575445,51.570000,179.800000C51.780178,180.031222,51.946249,180.298969,52.060000,180.590000C52.197347,180.918981,52.262153,181.273707,52.250000,181.630000ZM49.140000,176.880000C49.164696,176.539174,48.994242,176.213763,48.700000,176.040000C48.296267,175.842888,47.848489,175.753332,47.400000,175.780000L46.060000,175.780000L46.060000,178.110000L47.530000,178.110000C47.949379,178.134204,48.365733,178.025742,48.720000,177.800000C49.005238,177.583022,49.162907,177.237652,49.140000,176.880000ZM49.510000,181.380000C49.557103,180.969143,49.346445,180.571676,48.980000,180.380000C48.540762,180.182093,48.061334,180.089632,47.580000,180.110000L46.060000,180.110000L46.060000,182.700000L47.590000,182.700000C47.814167,182.697547,48.037952,182.680847,48.260000,182.650000C48.474888,182.612191,48.683525,182.544888,48.880000,182.450000C49.063975,182.352173,49.221740,182.211557,49.340000,182.040000C49.455742,181.839598,49.514526,181.611380,49.510000,181.380000Z" fill="rgb(27,167,236)" stroke="none" stroke-width="1"/><path id="ebv5gonk5jte6" d="M54.220000,184.930000L54.220000,173.600000L57,173.600000L57,184.930000Z" fill="rgb(27,167,236)" stroke="none" stroke-width="1"/><path id="ebv5gonk5jte7" d="M67.580000,185C66.786927,185.185838,65.974529,185.276477,65.160000,185.270000C64.307733,185.276392,63.461153,185.130780,62.660000,184.840000C61.917288,184.573608,61.236741,184.158475,60.660000,183.620000C60.104078,183.089744,59.664742,182.449470,59.370000,181.740000C59.052906,180.966242,58.896404,180.136102,58.910000,179.300000C58.893663,178.456219,59.053748,177.618327,59.380000,176.840000C59.673399,176.127304,60.116775,175.486115,60.680000,174.960000C61.245560,174.436709,61.907990,174.029060,62.630000,173.760000C63.406799,173.484077,64.225665,173.345343,65.050000,173.350000C65.900938,173.338882,66.747188,173.477667,67.550000,173.760000C68.243385,173.987041,68.880738,174.358546,69.420000,174.850000L67.690000,176.850000C67.396679,176.521994,67.034794,176.262529,66.630000,176.090000C66.164472,175.883188,65.659315,175.780792,65.150000,175.790000C64.692549,175.784797,64.239210,175.876828,63.820000,176.060000C63.420052,176.227533,63.059138,176.476086,62.760000,176.790000C62.456947,177.113076,62.222256,177.494023,62.070000,177.910000C61.898907,178.363619,61.814118,178.845223,61.820000,179.330000C61.813555,179.818838,61.887889,180.305385,62.040000,180.770000C62.178892,181.190730,62.407493,181.576280,62.710000,181.900000C63.012142,182.219552,63.380845,182.468768,63.790000,182.630000C64.260850,182.816197,64.763733,182.907939,65.270000,182.900000C65.577906,182.897709,65.885292,182.874321,66.190000,182.830000C66.465225,182.781941,66.733771,182.701377,66.990000,182.590000L66.990000,180.530000L64.860000,180.530000L64.860000,178.320000L69.530000,178.320000L69.530000,184.320000C68.909267,184.623196,68.254667,184.851466,67.580000,185Z" fill="rgb(27,167,236)" stroke="none" stroke-width="1"/><path id="ebv5gonk5jte8" d="M86.660000,179.230000C86.685465,180.118382,86.496824,180.999851,86.110000,181.800000C85.762799,182.492326,85.267810,183.099968,84.660000,183.580000C84.058182,184.029740,83.380883,184.368390,82.660000,184.580000C81.909467,184.798624,81.131727,184.909730,80.350000,184.910000L76.090000,184.910000L76.090000,173.600000L80.180000,173.600000C80.978063,173.603135,81.773178,173.697072,82.550000,173.880000C83.295976,174.055469,84.001824,174.371064,84.630000,174.810000C85.256391,175.259469,85.761480,175.857329,86.100000,176.550000C86.500864,177.384829,86.693035,178.304506,86.660000,179.230000ZM83.820000,179.230000C83.837819,178.682378,83.728277,178.138094,83.500000,177.640000C83.310268,177.243170,83.025091,176.899582,82.670000,176.640000C82.313963,176.389879,81.913467,176.209995,81.490000,176.110000C81.041582,176.000916,80.581487,175.947182,80.120000,175.950000L78.760000,175.950000L78.760000,182.570000L80.060000,182.570000C80.535403,182.575077,81.009427,182.517925,81.470000,182.400000C81.903690,182.301504,82.312274,182.114236,82.670000,181.850000C83.028389,181.593944,83.314342,181.249422,83.500000,180.850000C83.730746,180.342088,83.840295,179.787500,83.820000,179.230000Z" fill="rgb(27,167,236)" stroke="none" stroke-width="1"/><path id="ebv5gonk5jte9" d="M95.930000,184.930000L95.050000,182.710000L90.660000,182.710000L89.830000,184.930000L86.830000,184.930000L91.580000,173.600000L94.230000,173.600000L99,184.930000ZM92.930000,176.630000L91.490000,180.510000L94.300000,180.510000Z" fill="rgb(27,167,236)" stroke="none" stroke-width="1"/><path id="ebv5gonk5jte10" d="M104,175.940000L104,184.940000L101.260000,184.940000L101.260000,175.940000L98,175.940000L98,173.600000L107.140000,173.600000L107.140000,175.940000Z" fill="rgb(27,167,236)" stroke="none" stroke-width="1"/><path id="ebv5gonk5jte11" d="M115.290000,184.930000L114.410000,182.710000L110,182.710000L109.170000,184.930000L106.170000,184.930000L111,173.600000L113.650000,173.600000L118.360000,184.930000ZM112.290000,176.630000L110.850000,180.510000L113.690000,180.510000Z" fill="rgb(27,167,236)" stroke="none" stroke-width="1"/><path id="ebv5gonk5jte12" d="M43.820000,202.930000L42.940000,200.710000L38.560000,200.710000L37.730000,202.930000L34.730000,202.930000L39.500000,191.600000L42.160000,191.600000L46.860000,202.930000ZM40.820000,194.630000L39.380000,198.510000L42.230000,198.510000Z" fill="rgb(27,167,236)" stroke="none" stroke-width="1"/><path id="ebv5gonk5jte13" d="M55.170000,202.930000L50.610000,195.520000L50.610000,195.520000L50.670000,202.930000L48,202.930000L48,191.600000L51.120000,191.600000L55.660000,199L55.660000,199L55.600000,191.600000L58.250000,191.600000L58.250000,202.930000Z" fill="rgb(27,167,236)" stroke="none" stroke-width="1"/><path id="ebv5gonk5jte14" d="M68.450000,202.930000L67.570000,200.710000L63.180000,200.710000L62.350000,202.930000L59.350000,202.930000L64.100000,191.600000L66.750000,191.600000L71.460000,202.930000ZM65.450000,194.630000L64,198.510000L66.850000,198.510000Z" fill="rgb(27,167,236)" stroke="none" stroke-width="1"/><path id="ebv5gonk5jte15" d="M72.590000,202.930000L72.590000,191.600000L75.340000,191.600000L75.340000,200.600000L79.730000,200.600000L79.730000,202.980000Z" fill="rgb(27,167,236)" stroke="none" stroke-width="1"/><path id="ebv5gonk5jte16" d="M85.440000,198.130000L85.440000,202.930000L82.700000,202.930000L82.700000,198.130000L78.450000,191.600000L81.760000,191.600000L84.180000,195.790000L86.590000,191.600000L89.790000,191.600000Z" fill="rgb(27,167,236)" stroke="none" stroke-width="1"/><path id="ebv5gonk5jte17" d="M95.650000,193.940000L95.650000,202.940000L92.910000,202.940000L92.910000,193.940000L89.710000,193.940000L89.710000,191.600000L98.850000,191.600000L98.850000,193.940000Z" fill="rgb(27,167,236)" stroke="none" stroke-width="1"/><path id="ebv5gonk5jte18" d="M100.260000,202.930000L100.260000,191.600000L103,191.600000L103,202.930000Z" fill="rgb(27,167,236)" stroke="none" stroke-width="1"/><path id="ebv5gonk5jte19" d="M113.610000,202.730000C112.809803,203.079507,111.942963,203.250145,111.070000,203.230000C110.243505,203.239699,109.422562,203.093829,108.650000,202.800000C107.930595,202.528413,107.273950,202.113332,106.720000,201.580000C106.169997,201.039111,105.734661,200.392909,105.440000,199.680000C105.123969,198.909426,104.967483,198.082768,104.980000,197.250000C104.963663,196.406219,105.123748,195.568327,105.450000,194.790000C105.743399,194.077304,106.186775,193.436115,106.750000,192.910000C107.330334,192.381115,108.010239,191.973173,108.750000,191.710000C109.526799,191.434077,110.345665,191.295343,111.170000,191.300000C111.975201,191.300616,112.774025,191.442779,113.530000,191.720000C114.248806,191.973041,114.894406,192.398863,115.410000,192.960000L113.550000,194.820000C113.295047,194.470304,112.949209,194.197093,112.550000,194.030000C112.143536,193.864606,111.708826,193.779702,111.270000,193.780000C110.816919,193.776236,110.367810,193.864696,109.950000,194.040000C109.572323,194.215914,109.232632,194.463888,108.950000,194.770000C108.660356,195.091924,108.433154,195.464941,108.280000,195.870000C108.116290,196.311455,108.034944,196.779195,108.040000,197.250000C108.034639,197.730602,108.115938,198.208236,108.280000,198.660000C108.426927,199.065095,108.654903,199.435982,108.950000,199.750000C109.228322,200.058401,109.569245,200.303866,109.950000,200.470000C110.361757,200.641094,110.804154,200.726171,111.250000,200.720000C111.742757,200.734913,112.231268,200.624826,112.670000,200.400000C113.064858,200.207200,113.407765,199.922587,113.670000,199.570000L115.570000,201.360000C115.028173,201.958440,114.358167,202.426761,113.610000,202.730000Z" fill="rgb(27,167,236)" stroke="none" stroke-width="1"/><path id="ebv5gonk5jte20" d="M122.780000,194.550000C122.535319,194.239887,122.219828,193.992981,121.860000,193.830000C121.519149,193.667206,121.147634,193.578588,120.770000,193.570000C120.585616,193.571769,120.401680,193.588490,120.220000,193.620000C120.039978,193.646529,119.866792,193.707653,119.710000,193.800000C119.563778,193.889808,119.437787,194.008989,119.340000,194.150000C119.161367,194.459401,119.161367,194.840599,119.340000,195.150000C119.431142,195.284261,119.550614,195.396906,119.690000,195.480000C119.866527,195.589672,120.054257,195.680184,120.250000,195.750000Q120.570000,195.870000,120.970000,195.990000L122.170000,196.420000C122.573555,196.569014,122.953993,196.774383,123.300000,197.030000C123.648002,197.302465,123.937159,197.642649,124.150000,198.030000C124.390778,198.459815,124.508420,198.947683,124.490000,199.440000C124.505065,200.023851,124.381701,200.602975,124.130000,201.130000C123.891750,201.594937,123.549563,201.998718,123.130000,202.310000C122.713426,202.624145,122.242087,202.858119,121.740000,203C121.211916,203.143722,120.667287,203.217684,120.120000,203.220000C119.316869,203.222627,118.520164,203.076847,117.770000,202.790000C117.057396,202.537997,116.411200,202.127714,115.880000,201.590000L117.670000,199.760000C117.973823,200.119055,118.348247,200.411786,118.770000,200.620000C119.186291,200.839778,119.649270,200.956380,120.120000,200.960000C120.318207,200.960356,120.515922,200.940249,120.710000,200.900000C120.892478,200.865298,121.065994,200.793850,121.220000,200.690000C121.364266,200.594841,121.481407,200.463918,121.560000,200.310000C121.652971,200.131238,121.697775,199.931343,121.690000,199.730000C121.696528,199.537426,121.640382,199.347934,121.530000,199.190000C121.405651,199.023925,121.249228,198.884504,121.070000,198.780000C120.840269,198.639497,120.595378,198.525438,120.340000,198.440000L119.340000,198.110000C118.974145,197.998638,118.616593,197.861632,118.270000,197.700000C117.933377,197.541693,117.623088,197.332585,117.350000,197.080000C117.066986,196.827779,116.841844,196.517355,116.690000,196.170000C116.510904,195.760689,116.425492,195.316543,116.440000,194.870000C116.409039,193.785590,116.933037,192.760214,117.830000,192.150000C118.259687,191.857150,118.736685,191.640640,119.240000,191.510000C119.759797,191.378406,120.293805,191.311235,120.830000,191.310000C121.512696,191.310945,122.189825,191.432828,122.830000,191.670000C123.475167,191.881084,124.070597,192.221329,124.580000,192.670000Z" fill="rgb(27,167,236)" stroke="none" stroke-width="1"/></g><line id="ebv5gonk5jte21" x1="26.300000" y1="181.750000" x2="133.700000" y2="181.750000" transform="matrix(1 0 0 1 0.01752619499966 -0.89466698000030)" fill="none" stroke="rgb(27,167,236)" stroke-width="0.500000" stroke-miterlimit="10"/></g><clipPath id="ebv5gonk5jte22"><rect id="ebv5gonk5jte23" width="156.780000" height="33" rx="0" ry="0" transform="matrix(1 0 0 1 1.61000000000000 147.85533301999999)" fill="none" stroke="none" stroke-width="1"/></clipPath></g><g id="ebv5gonk5jte24" transform="matrix(1 0 0 1 0 -24)"><g id="ebv5gonk5jte25"><g id="ebv5gonk5jte26"><line id="ebv5gonk5jte27" x1="49.500000" y1="134.040000" x2="110.500000" y2="134.040000" fill="none" stroke="rgb(27,167,236)" stroke-width="1" stroke-miterlimit="10"/><g id="ebv5gonk5jte28" filter="url(#ebv5gonk5jte28-filter)"><path id="ebv5gonk5jte29" d="M98.660000,94.730000C98.543044,92.172308,96.435365,90.158804,93.875000,90.158804C91.314635,90.158804,89.206956,92.172308,89.090000,94.730000L89.090000,133.730000L98.650000,133.730000Z" fill="rgb(27,167,236)" stroke="none" stroke-width="1"/><path id="ebv5gonk5jte30" d="M84.730000,109.930000C84.730000,107.290079,82.589921,105.150000,79.950000,105.150000C77.310079,105.150000,75.170000,107.290079,75.170000,109.930000L75.170000,133.770000L84.730000,133.770000Z" fill="rgb(27,167,236)" stroke="none" stroke-width="1"/><path id="ebv5gonk5jte31" d="M70.850000,104.160000C70.850000,101.520079,68.709921,99.380000,66.070000,99.380000C63.430079,99.380000,61.290000,101.520079,61.290000,104.160000L61.290000,133.770000L70.860000,133.770000Z" fill="rgb(27,167,236)" stroke="none" stroke-width="1"/></g></g><path id="ebv5gonk5jte32" d="M93.890000,89.940000C91.248446,89.934462,89.101024,92.068463,89.090000,94.710000L89,128.650000C92.468967,127.582697,95.712669,125.887973,98.570000,123.650000L98.630000,94.650000C98.581577,92.057413,96.482843,89.971961,93.890000,89.940000Z" fill="rgb(27,167,236)" stroke="none" stroke-width="1"/><path id="ebv5gonk5jte33" d="M80,105.140000C77.362347,105.139977,75.221013,107.272370,75.210000,109.910000L75.210000,129.560000C76.899514,129.865858,78.613024,130.019806,80.330000,130.020000C81.816748,130.007288,83.300625,129.886974,84.770000,129.660000L84.770000,109.930000C84.770023,107.292347,82.637630,105.151013,80,105.140000Z" fill="rgb(27,167,236)" stroke="none" stroke-width="1"/><path id="ebv5gonk5jte34" d="M66.080000,99.370000C63.442347,99.369977,61.301013,101.502370,61.290000,104.140000L61.290000,123.220000C64.122776,125.545703,67.360283,127.328875,70.840000,128.480000L70.840000,104.160000C70.834609,101.528475,68.711439,99.391924,66.080000,99.370000Z" transform="matrix(1 0 0 1 0 0.27500076293946)" fill="rgb(27,167,236)" stroke="none" stroke-width="1"/><path id="ebv5gonk5jte35" d="M117.210000,124.050000L115.210000,126.620000L105.410000,118.980000C104.438510,120.192985,103.382548,121.335829,102.250000,122.400000L112.360000,130.270000L110.360000,132.840000L120.100000,140.430000L126.940000,131.640000Z" transform="matrix(0 0 0 0 114.59500204000000 129.70499887000000)" opacity="0" fill="rgb(30,47,152)" stroke="none" stroke-width="1"/><path id="ebv5gonk5jte36" d="M136.320000,138.940000L126.950000,131.640000L120.110000,140.430000L129.480000,147.720000C131.914748,149.593398,135.405802,149.146400,137.290000,146.720000L137.290000,146.720000C139.149947,144.298123,138.717676,140.831042,136.320000,138.940000Z" transform="matrix(1 0 0 1 -1 -0.83999999999997)" opacity="0" fill="rgb(121,126,246)" stroke="none" stroke-width="1"/><circle id="ebv5gonk5jte37" r="31.500000" transform="matrix(0.75932696157020 0.65070927873557 -0.65070927873557 0.75932696157020 80.09999999999999 99.53000000000000)" filter="url(#ebv5gonk5jte37-filter)" fill="none" stroke="rgb(30,47,152)" stroke-width="2" stroke-miterlimit="10" stroke-dashoffset="197.920000" stroke-dasharray="197.920000"/></g></g><g id="ebv5gonk5jte38" transform="matrix(1 0 0 1 0 -24)"><g id="ebv5gonk5jte39"><circle id="ebv5gonk5jte40" r="2.500000" transform="matrix(1 0 0 1 66.05000000000000 105.25000000000000)" opacity="0" fill="rgb(30,47,152)" stroke="none" stroke-width="1"/><circle id="ebv5gonk5jte41" r="2.500000" transform="matrix(1 0 0 1 79.93000000000001 117.25000000000000)" opacity="0" fill="rgb(30,47,152)" stroke="none" stroke-width="1"/><circle id="ebv5gonk5jte42" r="2.500000" transform="matrix(1 0 0 1 94.30000000000000 100.25000000000000)" opacity="0" fill="rgb(30,47,152)" stroke="none" stroke-width="1"/><polyline id="ebv5gonk5jte43" points="66.300000,105.250000 80.300000,117.250000 93.840000,100.250000" fill="none" stroke="rgb(30,47,152)" stroke-width="1" stroke-miterlimit="10" stroke-dashoffset="40.170000" stroke-dasharray="40.170000"/></g></g><g id="ebv5gonk5jte44" display="none" transform="matrix(1 0 0 1 10.80031203999999 178.38658715000003)" opacity="0"><text id="ebv5gonk5jte45" dx="0" dy="0" font-family="MyriadPro-Regular, &quot;Myriad Pro&quot;" font-size="8" transform="matrix(1 0 0 1 14.02000000000000 17.65125000000000)" fill="rgb(30,47,152)" stroke="none" stroke-width="1"><![CDATA[Uncover patterns and corelations]]></text><text id="ebv5gonk5jte46" dx="0" dy="0" font-family="MyriadPro-Regular, &quot;Myriad Pro&quot;" font-size="8" transform="matrix(1 0 0 1 15.19000000000000 27.78312500000000)" fill="rgb(30,47,152)" stroke="none" stroke-width="1"><![CDATA[in your data to raise productivity]]></text></g><g id="ebv5gonk5jte47" transform="matrix(1 0 0 1 2.50030899500000 175.12096023999999)" opacity="0"><text id="ebv5gonk5jte48" dx="0" dy="0" font-family="MyriadPro-Regular, &quot;Myriad Pro&quot;" font-size="8" transform="matrix(1 0 0 1 22.32000000000000 20.91687500000000)" fill="rgb(30,47,152)" stroke="none" stroke-width="1"><![CDATA[Uncover patterns and corelations]]></text><text id="ebv5gonk5jte49" dx="0" dy="0" font-family="MyriadPro-Regular, &quot;Myriad Pro&quot;" font-size="8" transform="matrix(1 0 0 1 23.49000000000000 31.04875000000000)" fill="rgb(30,47,152)" stroke="none" stroke-width="1"><![CDATA[in your data to raise productivity]]></text></g><script><![CDATA[!function(t,n){"object"==typeof exports&&"undefined"!=typeof module?module.exports=n():"function"==typeof define&&define.amd?define(n):(t=t||self).__SVGATOR_PLAYER__=n()}(this,(function(){"use strict";function t(n){return(t="function"==typeof Symbol&&"symbol"==typeof Symbol.iterator?function(t){return typeof t}:function(t){return t&&"function"==typeof Symbol&&t.constructor===Symbol&&t!==Symbol.prototype?"symbol":typeof t})(n)}function n(t,n){if(!(t instanceof n))throw new TypeError("Cannot call a class as a function")}function e(t,n){for(var e=0;e<n.length;e++){var r=n[e];r.enumerable=r.enumerable||!1,r.configurable=!0,"value"in r&&(r.writable=!0),Object.defineProperty(t,r.key,r)}}function r(t,n,r){return n&&e(t.prototype,n),r&&e(t,r),t}function i(t){return(i=Object.setPrototypeOf?Object.getPrototypeOf:function(t){return t.__proto__||Object.getPrototypeOf(t)})(t)}function u(t,n){return(u=Object.setPrototypeOf||function(t,n){return t.__proto__=n,t})(t,n)}function o(t,n){return!n||"object"!=typeof n&&"function"!=typeof n?function(t){if(void 0===t)throw new ReferenceError("this hasn't been initialised - super() hasn't been called");return t}(t):n}function a(t){var n=function(){if("undefined"==typeof Reflect||!Reflect.construct)return!1;if(Reflect.construct.sham)return!1;if("function"==typeof Proxy)return!0;try{return Date.prototype.toString.call(Reflect.construct(Date,[],(function(){}))),!0}catch(t){return!1}}();return function(){var e,r=i(t);if(n){var u=i(this).constructor;e=Reflect.construct(r,arguments,u)}else e=r.apply(this,arguments);return o(this,e)}}function l(t,n,e){return(l="undefined"!=typeof Reflect&&Reflect.get?Reflect.get:function(t,n,e){var r=function(t,n){for(;!Object.prototype.hasOwnProperty.call(t,n)&&null!==(t=i(t)););return t}(t,n);if(r){var u=Object.getOwnPropertyDescriptor(r,n);return u.get?u.get.call(e):u.value}})(t,n,e||t)}var f=Math.abs;function s(t){return t}function c(t,n,e){var r=1-e;return 3*e*r*(t*r+n*e)+e*e*e}function h(){var t=arguments.length>0&&void 0!==arguments[0]?arguments[0]:0,n=arguments.length>1&&void 0!==arguments[1]?arguments[1]:0,e=arguments.length>2&&void 0!==arguments[2]?arguments[2]:1,r=arguments.length>3&&void 0!==arguments[3]?arguments[3]:1;return t<0||t>1||e<0||e>1?null:f(t-n)<=1e-5&&f(e-r)<=1e-5?s:function(i){if(i<=0)return t>0?i*n/t:0===n&&e>0?i*r/e:0;if(i>=1)return e<1?1+(i-1)*(r-1)/(e-1):1===e&&t<1?1+(i-1)*(n-1)/(t-1):1;for(var u,o=0,a=1;o<a;){var l=c(t,e,u=(o+a)/2);if(f(i-l)<1e-5)break;l<i?o=u:a=u}return c(n,r,u)}}function v(){return 1}function d(t){return 1===t?1:0}function y(){var t=arguments.length>0&&void 0!==arguments[0]?arguments[0]:1,n=arguments.length>1&&void 0!==arguments[1]?arguments[1]:0;if(1===t){if(0===n)return d;if(1===n)return v}var e=1/t;return function(t){return t>=1?1:(t+=n*e)-t%e}}function g(t){var n=arguments.length>1&&void 0!==arguments[1]?arguments[1]:2;if(Number.isInteger(t))return t;var e=Math.pow(10,n);return Math.round(t*e)/e}var p=Math.PI/180;function m(t,n,e){return t>=.5?e:n}function b(t,n,e){return 0===t||n===e?n:t*(e-n)+n}function w(t,n,e){var r=b(t,n,e);return r<=0?0:r}function x(t,n,e){return 0===t?n:1===t?e:{x:b(t,n.x,e.x),y:b(t,n.y,e.y)}}function k(t,n,e){return 0===t?n:1===t?e:{x:w(t,n.x,e.x),y:w(t,n.y,e.y)}}function A(t,n,e){var r=function(t,n,e){return Math.round(b(t,n,e))}(t,n,e);return r<=0?0:r>=255?255:r}function _(t,n,e){return 0===t?n:1===t?e:{r:A(t,n.r,e.r),g:A(t,n.g,e.g),b:A(t,n.b,e.b),a:b(t,null==n.a?1:n.a,null==e.a?1:e.a)}}function S(t,n,e){if(0===t)return n;if(1===t)return e;var r=n.length;if(r!==e.length)return m(t,n,e);for(var i=[],u=0;u<r;u++)i.push(_(t,n[u],e[u]));return i}function M(t,n,e){var r=n.length;if(r!==e.length)return m(t,n,e);for(var i=new Array(r),u=0;u<r;u++)i[u]=b(t,n[u],e[u]);return i}function O(t,n){for(var e=[],r=0;r<t;r++)e.push(n);return e}function E(t,n){if(--n<=0)return t;var e=(t=Object.assign([],t)).length;do{for(var r=0;r<e;r++)t.push(t[r])}while(--n>0);return t}var B,I=function(){function t(e){n(this,t),this.list=e,this.length=e.length}return r(t,[{key:"setAttribute",value:function(t,n){for(var e=this.list,r=0;r<this.length;r++)e[r].setAttribute(t,n)}},{key:"removeAttribute",value:function(t){for(var n=this.list,e=0;e<this.length;e++)n[e].removeAttribute(t)}},{key:"style",value:function(t,n){for(var e=this.list,r=0;r<this.length;r++)e[r].style[t]=n}}]),t}(),j=/-./g,P=function(t,n){return n.toUpperCase()};function F(t){return"function"==typeof t?t:m}function R(t){return t?"function"==typeof t?t:Array.isArray(t)?function(t){var n=arguments.length>1&&void 0!==arguments[1]?arguments[1]:s;if(!Array.isArray(t))return n;switch(t.length){case 1:return y(t[0])||n;case 2:return y(t[0],t[1])||n;case 4:return h(t[0],t[1],t[2],t[3])||n}return n}(t,null):function(t,n){var e=arguments.length>2&&void 0!==arguments[2]?arguments[2]:s;switch(t){case"linear":return s;case"steps":return y(n.steps||1,n.jump||0)||e;case"bezier":case"cubic-bezier":return h(n.x1||0,n.y1||0,n.x2||0,n.y2||0)||e}return e}(t.type,t.value,null):null}function T(t,n,e){var r=arguments.length>3&&void 0!==arguments[3]&&arguments[3],i=n.length-1;if(t<=n[0].t)return r?[0,0,n[0].v]:n[0].v;if(t>=n[i].t)return r?[i,1,n[i].v]:n[i].v;var u,o=n[0],a=null;for(u=1;u<=i;u++){if(!(t>n[u].t)){a=n[u];break}o=n[u]}return null==a?r?[i,1,n[i].v]:n[i].v:o.t===a.t?r?[u,1,a.v]:a.v:(t=(t-o.t)/(a.t-o.t),o.e&&(t=o.e(t)),r?[u,t,e(t,o.v,a.v)]:e(t,o.v,a.v))}function q(t,n){var e=arguments.length>2&&void 0!==arguments[2]?arguments[2]:null;return t&&t.length?"function"!=typeof n?null:("function"!=typeof e&&(e=null),function(r){var i=T(r,t,n);return null!=i&&e&&(i=e(i)),i}):null}function C(t,n){return t.t-n.t}function V(n,e,r,i,u){var o,a="@"===r[0],l="#"===r[0],f=B[r],s=m;switch(a?(o=r.substr(1),r=o.replace(j,P)):l&&(r=r.substr(1)),t(f)){case"function":if(s=f(i,u,T,R,r,a,e,n),l)return s;break;case"string":s=q(i,F(f));break;case"object":if((s=q(i,F(f.i),f.f))&&"function"==typeof f.u)return f.u(e,s,r,a,n)}return s?function(t,n,e){var r=arguments.length>3&&void 0!==arguments[3]&&arguments[3];if(r)return t instanceof I?function(r){return t.style(n,e(r))}:function(r){return t.style[n]=e(r)};if(Array.isArray(n)){var i=n.length;return function(r){var u=e(r);if(null==u)for(var o=0;o<i;o++)t[o].removeAttribute(n);else for(var a=0;a<i;a++)t[a].setAttribute(n,u)}}return function(r){var i=e(r);null==i?t.removeAttribute(n):t.setAttribute(n,i)}}(e,r,s,a):null}function N(n,e,r,i){if(!i||"object"!==t(i))return null;var u=null,o=null;return Array.isArray(i)?o=function(t){if(!t||!t.length)return null;for(var n=0;n<t.length;n++)t[n].e&&(t[n].e=R(t[n].e));return t.sort(C)}(i):(o=i.keys,u=i.data||null),o?V(n,e,r,o,u):null}function z(t,n,e){if(!e)return null;var r=[];for(var i in e)if(e.hasOwnProperty(i)){var u=N(t,n,i,e[i]);u&&r.push(u)}return r.length?r:null}function D(t,n){if(!n.duration||n.duration<0)return null;var e=function(t,n){if(!n)return null;var e=[];if(Array.isArray(n))for(var r=n.length,i=0;i<r;i++){var u=n[i];if(2===u.length){var o=null;if("string"==typeof u[0])o=t.getElementById(u[0]);else if(Array.isArray(u[0])){o=[];for(var a=0;a<u[0].length;a++)if("string"==typeof u[0][a]){var l=t.getElementById(u[0][a]);l&&o.push(l)}o=o.length?1===o.length?o[0]:new I(o):null}if(o){var f=z(t,o,u[1]);f&&(e=e.concat(f))}}}else for(var s in n)if(n.hasOwnProperty(s)){var c=t.getElementById(s);if(c){var h=z(t,c,n[s]);h&&(e=e.concat(h))}}return e.length?e:null}(t,n.elements);return e?function(t,n){var e=arguments.length>2&&void 0!==arguments[2]?arguments[2]:1/0,r=arguments.length>3&&void 0!==arguments[3]?arguments[3]:1,i=arguments.length>4&&void 0!==arguments[4]&&arguments[4],u=arguments.length>5&&void 0!==arguments[5]?arguments[5]:1,o=t.length,a=r>0?n:0;i&&e%2==0&&(a=n-a);var l=null;return function(f,s){var c=f%n,h=1+(f-c)/n;s*=r,i&&h%2==0&&(s=-s);var v=!1;if(h>e)c=a,v=!0,-1===u&&(c=r>0?0:n);else if(s<0&&(c=n-c),c===l)return!1;l=c;for(var d=0;d<o;d++)t[d](c);return v}}(e,n.duration,n.iterations||1/0,n.direction||1,!!n.alternate,n.fill||1):null}function L(t,n){if(B=n,!t||!t.root||!Array.isArray(t.animations))return null;var e=window.document.getElementById(t.root);if(!e)return null;var r=t.animations.map((function(t){return D(e,t)})).filter((function(t){return!!t}));return r.length?{element:e,animations:r,animationSettings:t.animationSettings,options:t.options||void 0}:null}var U=function(){function t(e,r){var i=arguments.length>2&&void 0!==arguments[2]?arguments[2]:{};n(this,t),this._id=0,this._running=!1,this._rollingBack=!1,this._animations=e,this.duration=r.duration,this.alternate=r.alternate,this.fill=r.fill,this.iterations=r.iterations,this.direction=i.direction||1,this.speed=i.speed||1,this.fps=i.fps||100,this.offset=i.offset||0,this.rollbackStartOffset=0}return r(t,[{key:"_rollback",value:function(){var t=this,n=1/0,e=null;this.rollbackStartOffset=this.offset,this._rollingBack||(this._rollingBack=!0,this._running=!0);this._id=window.requestAnimationFrame((function r(i){if(t._rollingBack){null==e&&(e=i);var u=i-e,o=t.rollbackStartOffset-u,a=Math.round(o*t.speed);if(a>t.duration&&n!=1/0){var l=!!t.alternate&&a/t.duration%2>1,f=a%t.duration;a=(f+=l?t.duration:0)||t.duration}var s=t.fps?1e3/t.fps:0,c=Math.max(0,a);if(c<n-s){t.offset=c,n=c;for(var h=t._animations,v=h.length,d=0;d<v;d++)h[d](c,t.direction)}var y=!1;if(t.iterations>0&&-1===t.fill){var g=t.iterations*t.duration,p=g==a;a=p?0:a,t.offset=p?0:t.offset,y=a>g}a>0&&t.offset>=a&&!y?t._id=window.requestAnimationFrame(r):t.stop()}}))}},{key:"_start",value:function(){var t=this,n=arguments.length>0&&void 0!==arguments[0]?arguments[0]:0,e=-1/0,r=null,i={},u=function u(o){t._running=!0,null==r&&(r=o);var a=Math.round((o-r+n)*t.speed),l=t.fps?1e3/t.fps:0;if(a>e+l&&!t._rollingBack){t.offset=a,e=a;for(var f=t._animations,s=f.length,c=0,h=0;h<s;h++)i[h]?c++:(i[h]=f[h](a,t.direction),i[h]&&c++);if(c===s)return void t._stop()}t._id=window.requestAnimationFrame(u)};this._id=window.requestAnimationFrame(u)}},{key:"_stop",value:function(){this._id&&window.cancelAnimationFrame(this._id),this._running=!1,this._rollingBack=!1}},{key:"play",value:function(){!this._rollingBack&&this._running||(this._rollingBack=!1,this.rollbackStartOffset>this.duration&&(this.offset=this.rollbackStartOffset-(this.rollbackStartOffset-this.offset)%this.duration,this.rollbackStartOffset=0),this._start(this.offset))}},{key:"stop",value:function(){this._stop(),this.offset=0,this.rollbackStartOffset=0;var t=this.direction,n=this._animations;window.requestAnimationFrame((function(){for(var e=0;e<n.length;e++)n[e](0,t)}))}},{key:"reachedToEnd",value:function(){return this.iterations>0&&this.offset>=this.iterations*this.duration}},{key:"restart",value:function(){this._stop(),this.offset=0,this._start()}},{key:"pause",value:function(){this._stop()}},{key:"reverse",value:function(){this.direction=-this.direction}}],[{key:"build",value:function(n,e){return(n=L(n,e))?{el:n.element,options:n.options||{},player:new t(n.animations,n.animationSettings,n.options)}:null}}]),t}();!function(){for(var t=0,n=["ms","moz","webkit","o"],e=0;e<n.length&&!window.requestAnimationFrame;++e)window.requestAnimationFrame=window[n[e]+"RequestAnimationFrame"],window.cancelAnimationFrame=window[n[e]+"CancelAnimationFrame"]||window[n[e]+"CancelRequestAnimationFrame"];window.requestAnimationFrame||(window.requestAnimationFrame=function(n){var e=Date.now(),r=Math.max(0,16-(e-t)),i=window.setTimeout((function(){n(e+r)}),r);return t=e+r,i},window.cancelAnimationFrame=window.clearTimeout)}();var W=function(t,n){var e=!1,r=null;return function(i){e&&clearTimeout(e),e=setTimeout((function(){return function(){for(var i=0,u=window.innerHeight,o=0,a=window.innerWidth,l=t.parentNode;l instanceof Element;){var f=window.getComputedStyle(l);if("visible"!==f.overflowY||"visible"!==f.overflowX){var s=l.getBoundingClientRect();"visible"!==f.overflowY&&(i=Math.max(i,s.top),u=Math.min(u,s.bottom)),"visible"!==f.overflowX&&(o=Math.max(o,s.left),a=Math.min(a,s.right))}if(l===l.parentNode)break;l=l.parentNode}e=!1;var c=t.getBoundingClientRect(),h=Math.min(c.height,Math.max(0,i-c.top)),v=Math.min(c.height,Math.max(0,c.bottom-u)),d=Math.min(c.width,Math.max(0,o-c.left)),y=Math.min(c.width,Math.max(0,c.right-a)),g=(c.height-h-v)/c.height,p=(c.width-d-y)/c.width,m=Math.round(g*p*100);null!==r&&r===m||(r=m,n(m))}()}),100)}},Y=function(){function t(e,r,i){n(this,t),r=Math.max(1,r||1),r=Math.min(r,100),this.el=e,this.onTresholdChange=i&&i.call?i:function(){},this.tresholdPercent=r||1,this.currentVisibility=null,this.visibilityCalculator=W(e,this.onVisibilityUpdate.bind(this)),this.bindScrollWatchers(),this.visibilityCalculator()}return r(t,[{key:"bindScrollWatchers",value:function(){for(var t=this.el.parentNode;t&&(t.addEventListener("scroll",this.visibilityCalculator),t!==t.parentNode&&t!==document);)t=t.parentNode}},{key:"onVisibilityUpdate",value:function(t){var n=this.currentVisibility>=this.tresholdPercent,e=t>=this.tresholdPercent;if(null===this.currentVisibility||n!==e)return this.currentVisibility=t,void this.onTresholdChange(e);this.currentVisibility=t}}]),t}(),G=/\.0+$/g;function H(t){return Number.isInteger(t)?t+"":t.toFixed(6).replace(G,"")}function X(t){var n=arguments.length>1&&void 0!==arguments[1]?arguments[1]:" ";return t&&t.length?t.map(H).join(n):""}function $(t){return H(t.x)+","+H(t.y)}function Q(t){return t?null==t.a||t.a>=1?"rgb("+t.r+","+t.g+","+t.b+")":"rgba("+t.r+","+t.g+","+t.b+","+t.a+")":"transparent"}var Z={f:null,i:k,u:function(t,n){return function(e){var r=n(e);t.setAttribute("rx",H(r.x)),t.setAttribute("ry",H(r.y))}}},J={f:null,i:function(t,n,e){return 0===t?n:1===t?e:{width:w(t,n.width,e.width),height:w(t,n.height,e.height)}},u:function(t,n){return function(e){var r=n(e);t.setAttribute("width",H(r.width)),t.setAttribute("height",H(r.height))}}},K=Math.sin,tt=Math.cos,nt=Math.acos,et=Math.asin,rt=Math.tan,it=Math.atan2,ut=Math.PI/180,ot=180/Math.PI,at=Math.sqrt,lt=function(){function t(){var e=arguments.length>0&&void 0!==arguments[0]?arguments[0]:1,r=arguments.length>1&&void 0!==arguments[1]?arguments[1]:0,i=arguments.length>2&&void 0!==arguments[2]?arguments[2]:0,u=arguments.length>3&&void 0!==arguments[3]?arguments[3]:1,o=arguments.length>4&&void 0!==arguments[4]?arguments[4]:0,a=arguments.length>5&&void 0!==arguments[5]?arguments[5]:0;n(this,t),this.m=[e,r,i,u,o,a],this.i=null,this.w=null,this.s=null}return r(t,[{key:"point",value:function(t,n){var e=this.m;return{x:e[0]*t+e[2]*n+e[4],y:e[1]*t+e[3]*n+e[5]}}},{key:"translateSelf",value:function(){var t=arguments.length>0&&void 0!==arguments[0]?arguments[0]:0,n=arguments.length>1&&void 0!==arguments[1]?arguments[1]:0;if(!t&&!n)return this;var e=this.m;return e[4]+=e[0]*t+e[2]*n,e[5]+=e[1]*t+e[3]*n,this.w=this.s=this.i=null,this}},{key:"rotateSelf",value:function(){var t=arguments.length>0&&void 0!==arguments[0]?arguments[0]:0;if(t%=360){var n=K(t*=ut),e=tt(t),r=this.m,i=r[0],u=r[1];r[0]=i*e+r[2]*n,r[1]=u*e+r[3]*n,r[2]=r[2]*e-i*n,r[3]=r[3]*e-u*n,this.w=this.s=this.i=null}return this}},{key:"scaleSelf",value:function(){var t=arguments.length>0&&void 0!==arguments[0]?arguments[0]:1,n=arguments.length>1&&void 0!==arguments[1]?arguments[1]:1;if(1!==t||1!==n){var e=this.m;e[0]*=t,e[1]*=t,e[2]*=n,e[3]*=n,this.w=this.s=this.i=null}return this}},{key:"skewSelf",value:function(t,n){if(n%=360,(t%=360)||n){var e=this.m,r=e[0],i=e[1],u=e[2],o=e[3];t&&(t=rt(t*ut),e[2]+=r*t,e[3]+=i*t),n&&(n=rt(n*ut),e[0]+=u*n,e[1]+=o*n),this.w=this.s=this.i=null}return this}},{key:"resetSelf",value:function(){var t=arguments.length>0&&void 0!==arguments[0]?arguments[0]:1,n=arguments.length>1&&void 0!==arguments[1]?arguments[1]:0,e=arguments.length>2&&void 0!==arguments[2]?arguments[2]:0,r=arguments.length>3&&void 0!==arguments[3]?arguments[3]:1,i=arguments.length>4&&void 0!==arguments[4]?arguments[4]:0,u=arguments.length>5&&void 0!==arguments[5]?arguments[5]:0,o=this.m;return o[0]=t,o[1]=n,o[2]=e,o[3]=r,o[4]=i,o[5]=u,this.w=this.s=this.i=null,this}},{key:"recomposeSelf",value:function(){var t=arguments.length>0&&void 0!==arguments[0]?arguments[0]:null,n=arguments.length>1&&void 0!==arguments[1]?arguments[1]:null,e=arguments.length>2&&void 0!==arguments[2]?arguments[2]:null,r=arguments.length>3&&void 0!==arguments[3]?arguments[3]:null,i=arguments.length>4&&void 0!==arguments[4]?arguments[4]:null;return this.isIdentity||this.resetSelf(),t&&(t.x||t.y)&&this.translateSelf(t.x,t.y),n&&this.rotateSelf(n),e&&(e.x&&this.skewSelf(e.x,0),e.y&&this.skewSelf(0,e.y)),!r||1===r.x&&1===r.y||this.scaleSelf(r.x,r.y),i&&(i.x||i.y)&&this.translateSelf(i.x,i.y),this}},{key:"decompose",value:function(){var t=arguments.length>0&&void 0!==arguments[0]?arguments[0]:0,n=arguments.length>1&&void 0!==arguments[1]?arguments[1]:0,e=this.m,r=e[0]*e[0]+e[1]*e[1],i=[[e[0],e[1]],[e[2],e[3]]],u=at(r);if(0===u)return{origin:{x:e[4],y:e[5]},translate:{x:t,y:n},scale:{x:0,y:0},skew:{x:0,y:0},rotate:0};i[0][0]/=u,i[0][1]/=u;var o=e[0]*e[3]-e[1]*e[2]<0;o&&(u=-u);var a=i[0][0]*i[1][0]+i[0][1]*i[1][1];i[1][0]-=i[0][0]*a,i[1][1]-=i[0][1]*a;var l=at(i[1][0]*i[1][0]+i[1][1]*i[1][1]);if(0===l)return{origin:{x:e[4],y:e[5]},translate:{x:t,y:n},scale:{x:u,y:0},skew:{x:0,y:0},rotate:0};i[1][0]/=l,i[1][1]/=l,a/=l;var f=0;return i[1][1]<0?(f=nt(i[1][1])*ot,i[0][1]<0&&(f=360-f)):f=et(i[0][1])*ot,o&&(f=-f),a=it(a,at(i[0][0]*i[0][0]+i[0][1]*i[0][1]))*ot,{origin:{x:e[4],y:e[5]},translate:{x:t,y:n},scale:{x:u,y:l},skew:{x:a,y:0},rotate:f}}},{key:"toString",value:function(){return null===this.s&&(this.s="matrix("+this.m.map(st).join(" ")+")"),this.s}},{key:"determinant",get:function(){var t=this.m;return t[0]*t[3]-t[1]*t[2]}},{key:"isIdentity",get:function(){if(null===this.i){var t=this.m;this.i=1===t[0]&&0===t[1]&&0===t[2]&&1===t[3]&&0===t[4]&&0===t[5]}return this.i}}]),t}(),ft=/\.0+$/;function st(t){return Number.isInteger(t)?t:t.toFixed(14).replace(ft,"")}Object.freeze({M:2,L:2,Z:0,H:1,V:1,C:6,Q:4,T:2,S:4,A:7});function ct(t,n,e){return t+(n-t)*e}function ht(t,n,e){var r=arguments.length>3&&void 0!==arguments[3]&&arguments[3],i={x:ct(t.x,n.x,e),y:ct(t.y,n.y,e)};return r&&(i.a=vt(t,n)),i}function vt(t,n){return Math.atan2(n.y-t.y,n.x-t.x)}function dt(t,n,e,r){var i=1-r;return i*i*t+2*i*r*n+r*r*e}function yt(t,n,e,r){return 2*(1-r)*(n-t)+2*r*(e-n)}function gt(t,n,e,r){var i=arguments.length>4&&void 0!==arguments[4]&&arguments[4],u={x:dt(t.x,n.x,e.x,r),y:dt(t.y,n.y,e.y,r)};return i&&(u.a=pt(t,n,e,r)),u}function pt(t,n,e,r){return Math.atan2(yt(t.y,n.y,e.y,r),yt(t.x,n.x,e.x,r))}function mt(t,n,e,r,i){var u=i*i;return i*u*(r-t+3*(n-e))+3*u*(t+e-2*n)+3*i*(n-t)+t}function bt(t,n,e,r,i){var u=1-i;return 3*(u*u*(n-t)+2*u*i*(e-n)+i*i*(r-e))}function wt(t,n,e,r,i){var u=arguments.length>5&&void 0!==arguments[5]&&arguments[5],o={x:mt(t.x,n.x,e.x,r.x,i),y:mt(t.y,n.y,e.y,r.y,i)};return u&&(o.a=xt(t,n,e,r,i)),o}function xt(t,n,e,r,i){return Math.atan2(bt(t.y,n.y,e.y,r.y,i),bt(t.x,n.x,e.x,r.x,i))}function kt(t,n,e){var r=arguments.length>3&&void 0!==arguments[3]&&arguments[3];if(_t(n)){if(St(e))return gt(n,e.start,e,t,r)}else if(_t(e)){if(n.end)return gt(n,n.end,e,t,r)}else{if(n.end)return e.start?wt(n,n.end,e.start,e,t,r):gt(n,n.end,e,t,r);if(e.start)return gt(n,e.start,e,t,r)}return ht(n,e,t,r)}function At(t,n,e){var r=kt(t,n,e,!0);return r.a=function(t){var n=arguments.length>1&&void 0!==arguments[1]&&arguments[1];return n?t+Math.PI:t}(r.a)/p,r}function _t(t){return!t.type||"corner"===t.type}function St(t){return null!=t.start&&!_t(t)}var Mt=new lt;var Ot={f:function(t){return t?t.join(" "):""},i:function(n,e,r){if(0===n)return e;if(1===n)return r;var i=e.length;if(i!==r.length)return m(n,e,r);for(var u,o=new Array(i),a=0;a<i;a++){if((u=t(e[a]))!==t(r[a]))return m(n,e,r);if("number"===u)o[a]=b(n,e[a],r[a]);else{if(e[a]!==r[a])return m(n,e,r);o[a]=e[a]}}return o}},Et={f:null,i:M,u:function(t,n){return function(e){var r=n(e);t.setAttribute("x1",H(r[0])),t.setAttribute("y1",H(r[1])),t.setAttribute("x2",H(r[2])),t.setAttribute("y2",H(r[3]))}}},Bt={f:H,i:b},It={f:H,i:function(t,n,e){var r=b(t,n,e);return r<=0?0:r>=1?1:r}},jt={f:function(t){var n=arguments.length>1&&void 0!==arguments[1]?arguments[1]:" ";return t&&t.length>0&&(t=t.map((function(t){return Math.floor(1e4*t)/1e4}))),X(t,n)},i:function(t,n,e){var r,i,u,o=n.length,a=e.length;if(o!==a)if(0===o)n=O(o=a,0);else if(0===a)a=o,e=O(o,0);else{var l=(u=(r=o)*(i=a)/function(t,n){for(var e;n;)e=n,n=t%n,t=e;return t||1}(r,i))<0?-u:u;n=E(n,Math.floor(l/o)),e=E(e,Math.floor(l/a)),o=a=l}for(var f=[],s=0;s<o;s++)f.push(g(w(t,n[s],e[s]),6));return f}};function Pt(t,n,e,r,i,u,o,a){return n=function(t,n,e){for(var r,i,u,o=t.length-1,a={},l=0;l<=o;l++)(r=t[l]).e&&(r.e=n(r.e)),r.v&&"g"===(i=r.v).t&&i.r&&(u=e.getElementById(i.r))&&(a[i.r]=u.querySelectorAll("stop"));return a}(t,r,a),function(r){var i,u=e(r,t,Ft);return u?"c"===u.t?Q(u.v):"g"===u.t?(n[u.r]&&function(t,n){for(var e=0,r=t.length;e<r;e++)t[e].setAttribute("stop-color",Q(n[e]))}(n[u.r],u.v),(i=u.r)?"url(#"+i+")":"none"):"none":"none"}}function Ft(t,n,e){if(0===t)return n;if(1===t)return e;if(n&&e){var r=n.t;if(r===e.t)switch(n.t){case"c":return{t:r,v:_(t,n.v,e.v)};case"g":if(n.r===e.r)return{t:r,v:S(t,n.v,e.v),r:n.r}}}return m(t,n,e)}var Rt={blur:k,brightness:w,contrast:w,"drop-shadow":function(t,n,e){return 0===t?n:1===t?e:{blur:k(t,n.blur,e.blur),offset:x(t,n.offset,e.offset),color:_(t,n.color,e.color)}},grayscale:w,"hue-rotate":b,invert:w,opacity:w,saturate:w,sepia:w};function Tt(t,n,e){if(0===t)return n;if(1===t)return e;var r=n.length;if(r!==e.length)return m(t,n,e);for(var i,u=[],o=0;o<r;o++){if(n[o].type!==e[o].type)return n;if(!(i=Rt[n[o].type]))return m(t,n,e);u.push({type:n.type,value:i(t,n[o].value,e[o].value)})}return u}var qt={blur:function(t){return t?function(n){t.setAttribute("stdDeviation",$(n))}:null},brightness:function(t,n,e){return(t=Vt(e,n))?function(n){n=H(n),t.map((function(t){return t.setAttribute("slope",n)}))}:null},contrast:function(t,n,e){return(t=Vt(e,n))?function(n){var e=H((1-n)/2);n=H(n),t.map((function(t){t.setAttribute("slope",n),t.setAttribute("intercept",e)}))}:null},"drop-shadow":function(t,n,e){var r=e.getElementById(n+"-blur");if(!r)return null;var i=e.getElementById(n+"-offset");if(!i)return null;var u=e.getElementById(n+"-flood");return u?function(t){r.setAttribute("stdDeviation",$(t.blur)),i.setAttribute("dx",H(t.offset.x)),i.setAttribute("dy",H(t.offset.y)),u.setAttribute("flood-color",Q(t.color))}:null},grayscale:function(t){return t?function(n){t.setAttribute("values",X(function(t){return[.2126+.7874*(t=1-t),.7152-.7152*t,.0722-.0722*t,0,0,.2126-.2126*t,.7152+.2848*t,.0722-.0722*t,0,0,.2126-.2126*t,.7152-.7152*t,.0722+.9278*t,0,0,0,0,0,1,0]}(n)))}:null},"hue-rotate":function(t){return t?function(n){return t.setAttribute("values",H(n))}:null},invert:function(t,n,e){return(t=Vt(e,n))?function(n){n=H(n)+" "+H(1-n),t.map((function(t){return t.setAttribute("tableValues",n)}))}:null},opacity:function(t,n,e){return(t=e.getElementById(n+"-A"))?function(n){return t.setAttribute("tableValues","0 "+H(n))}:null},saturate:function(t){return t?function(n){return t.setAttribute("values",H(n))}:null},sepia:function(t){return t?function(n){return t.setAttribute("values",X(function(t){return[.393+.607*(t=1-t),.769-.769*t,.189-.189*t,0,0,.349-.349*t,.686+.314*t,.168-.168*t,0,0,.272-.272*t,.534-.534*t,.131+.869*t,0,0,0,0,0,1,0]}(n)))}:null}};var Ct=["R","G","B"];function Vt(t,n){var e=Ct.map((function(e){return t.getElementById(n+"-"+e)||null}));return-1!==e.indexOf(null)?null:e}var Nt={fill:Pt,"fill-opacity":It,stroke:Pt,"stroke-opacity":It,"stroke-width":Bt,"stroke-dashoffset":{f:H,i:b},"stroke-dasharray":jt,opacity:It,transform:function(n,e,r,i){if(!(n=function(n,e){if(!n||"object"!==t(n))return null;var r=!1;for(var i in n)n.hasOwnProperty(i)&&(n[i]&&n[i].length?(n[i].forEach((function(t){t.e&&(t.e=e(t.e))})),r=!0):delete n[i]);return r?n:null}(n,i)))return null;var u=function(t,i,u){var o=arguments.length>3&&void 0!==arguments[3]?arguments[3]:null;return n[t]?r(i,n[t],u):e&&e[t]?e[t]:o};return e&&e.a&&n.o?function(t){var e=r(t,n.o,At);return Mt.recomposeSelf(e,u("r",t,b,0)+e.a,u("k",t,x),u("s",t,x),u("t",t,x)).toString()}:function(t){return Mt.recomposeSelf(u("o",t,kt,null),u("r",t,b,0),u("k",t,x),u("s",t,x),u("t",t,x)).toString()}},"#filter":function(t,n,e,r,i,u,o,a){if(!n.items||!t||!t.length)return null;var l=function(t,n){var e=(t=t.map((function(t){return t&&qt[t[0]]?(n.getElementById(t[1]),qt[t[0]](n.getElementById(t[1]),t[1],n)):null}))).length;return function(n){for(var r=0;r<e;r++)t[r]&&t[r](n[r].value)}}(n.items,a);return l?(t=function(t,n){return t.map((function(t){return t.e=n(t.e),t}))}(t,r),function(n){l(e(n,t,Tt))}):null},"#line":Et,points:{f:X,i:M},d:Ot,r:Bt,"#size":J,"#radius":Z,_:function(t,n){if(Array.isArray(t))for(var e=0;e<t.length;e++)this[t[e]]=n;else this[t]=n}};return function(t){!function(t,n){if("function"!=typeof n&&null!==n)throw new TypeError("Super expression must either be null or a function");t.prototype=Object.create(n&&n.prototype,{constructor:{value:t,writable:!0,configurable:!0}}),n&&u(t,n)}(o,t);var e=a(o);function o(){return n(this,o),e.apply(this,arguments)}return r(o,null,[{key:"build",value:function(t){var n=l(i(o),"build",this).call(this,t,Nt),e=n.el,r=n.options,u=n.player;return function(t,n,e){if("click"===e.start){return void n.addEventListener("click",(function(){switch(e.click){case"freeze":return!t._running&&t.reachedToEnd()&&(t.offset=0),t._running?t.pause():t.play();case"restart":return t.offset>0?t.restart():t.play();case"reverse":var n=!t._rollingBack&&t._running,r=t.reachedToEnd();return n||r&&1===t.fill?(t.pause(),r&&(t.offset=t.duration-1),t._rollback()):r?t.restart():t.play();case"none":default:return!t._running&&t.offset?t.restart():t.play()}}))}if("hover"===e.start)return n.addEventListener("mouseenter",(function(){return t.reachedToEnd()?t.restart():t.play()})),void n.addEventListener("click",(function(){return t.reachedToEnd()?t.restart():t.play()})),void n.addEventListener("mouseleave",(function(){switch(e.hover){case"freeze":return t.pause();case"reset":return t.stop();case"reverse":return t.pause(),t._rollback();case"none":default:return}}));if("scroll"===e.start)return void new Y(n,e.scroll||25,(function(n){n?t.reachedToEnd()?t.restart():t.play():t.pause()}));t.play()}(u,e,r),u}}]),o}(U)}));
__SVGATOR_PLAYER__.build({"root":"ebv5gonk5jte1","animations":[{"duration":3000,"direction":1,"iterations":1,"fill":1,"alternate":false,"elements":{"ebv5gonk5jte4":{"transform":{"data":{"t":{"x":-79.65500259399414,"y":-188.29048919677734}},"keys":{"o":[{"t":0,"v":{"x":79.95512771606445,"y":188.43516540527344,"type":"corner"},"e":[0.655,0,1,1]},{"t":400,"v":{"x":79.96,"y":166.02017371527342,"type":"corner"},"e":[0.42,0,0.58,1]},{"t":700,"v":{"x":80.00000000499999,"y":195.69049232527337,"type":"corner"},"e":[0.42,0,0.58,1]},{"t":900,"v":{"x":80.0175262000003,"y":185.46281532527343,"type":"corner"},"e":[0.42,0,0.58,1]},{"t":1100,"v":{"x":80.01752619500033,"y":190.62340799999998,"type":"corner"},"e":[0.42,0,0.58,1]},{"t":1400,"v":{"x":80.0175261900008,"y":187.95531900000003,"type":"corner"},"e":[0.42,0,0.58,1]},{"t":1580,"v":{"x":80.017526195,"y":188.399999995,"type":"corner"},"e":[0.42,0,0.58,1]}]}}},"ebv5gonk5jte21":{"transform":{"data":{"o":{"x":80.0175223803024,"y":180.8553330199997,"type":"corner"},"t":{"x":-79.99999618530273,"y":-181.75}},"keys":{"s":[{"t":0,"v":{"x":1,"y":1}},{"t":500,"v":{"x":0,"y":1},"e":[0,0,0.58,1]}]}}},"ebv5gonk5jte23":{"transform":{"data":{"o":{"x":79.99999940395355,"y":164.35533302,"type":"corner"},"t":{"x":-78.38999940395355,"y":-16.5}},"keys":{"s":[{"t":0,"v":{"x":1,"y":1},"e":[1,0]},{"t":400,"v":{"x":1,"y":5.444877679602622},"e":[1,0]}]}}},"ebv5gonk5jte27":{"transform":{"data":{"o":{"x":80,"y":134.0399932861328,"type":"corner"},"t":{"x":-80,"y":-134.0399932861328}},"keys":{"s":[{"t":200,"v":{"x":1,"y":1},"e":[0,0,0.58,1]},{"t":500,"v":{"x":0,"y":1},"e":[0,0,0.58,1]}]}}},"ebv5gonk5jte28":{"#filter":{"keys":[{"t":300,"v":[{"type":"opacity","value":1}]},{"t":600,"v":[{"type":"opacity","value":0}]}],"data":{"items":[["opacity","ebv5gonk5jte28-filter-opacity-0"]]}}},"ebv5gonk5jte35":{"transform":{"data":{"o":{"x":114.59500204,"y":129.70499887,"type":"corner"},"t":{"x":-114.59499999610189,"y":-129.704999999292}},"keys":{"s":[{"t":1100,"v":{"x":0,"y":0},"e":[0,0,0.58,1]},{"t":1300,"v":{"x":1.2,"y":1.2},"e":[0,0,0.58,1]},{"t":1700,"v":{"x":0.9,"y":0.9},"e":[0,0,0.58,1]},{"t":1800,"v":{"x":1.05,"y":1.05},"e":[0,0,0.58,1]},{"t":2000,"v":{"x":1,"y":1},"e":[0,0,0.58,1]}]}},"opacity":[{"t":800,"v":0},{"t":1000,"v":1}]},"ebv5gonk5jte36":{"transform":{"data":{"t":{"x":-129.277363105,"y":-140.25893753499997}},"keys":{"o":[{"t":0,"v":{"x":128.277363105,"y":139.418937535,"type":"corner"}},{"t":1600,"v":{"x":128.27723693847656,"y":139.41879669189456,"type":"corner"}}],"s":[{"t":1600,"v":{"x":1,"y":1},"e":[0.25,0.46,0.45,0.94]},{"t":2000,"v":{"x":1.05,"y":1.05},"e":[0.25,0.46,0.45,0.94]},{"t":2200,"v":{"x":0.97,"y":0.97},"e":[0.25,0.46,0.45,0.94]},{"t":2400,"v":{"x":1,"y":1},"e":[0.25,0.46,0.45,0.94]}]}},"opacity":[{"t":1300,"v":0},{"t":1500,"v":1}]},"ebv5gonk5jte37":{"stroke-dashoffset":[{"t":500,"v":197.92,"e":[0.735,0.115,0.435,0.7]},{"t":1200,"v":0,"e":[0.735,0.115,0.435,0.7]}]},"ebv5gonk5jte40":{"opacity":[{"t":1900,"v":0},{"t":2100,"v":1}]},"ebv5gonk5jte41":{"opacity":[{"t":2000,"v":0},{"t":2200,"v":1}]},"ebv5gonk5jte42":{"opacity":[{"t":2100,"v":0},{"t":2300,"v":1}]},"ebv5gonk5jte43":{"stroke-dashoffset":[{"t":2300,"v":40.17},{"t":2900,"v":0}]},"ebv5gonk5jte44":{"opacity":[{"t":2300,"v":0},{"t":2800,"v":1}]},"ebv5gonk5jte47":{"opacity":[{"t":2300,"v":0},{"t":2800,"v":1}]}}}],"options":{"start":"hover","hover":"none","click":"freeze","scroll":25,"exportedIds":"unique","title":"Big data icon"},"animationSettings":{"duration":3000,"direction":1,"iterations":1,"fill":1,"alternate":false}})]]></script></svg>