<svg id="ea92xeaa052k1" xmlns="http://www.w3.org/2000/svg" xmlns:xlink="http://www.w3.org/1999/xlink" viewBox="0 0 400 200" shape-rendering="geometricPrecision" text-rendering="geometricPrecision"><defs><linearGradient id="ea92xeaa052k2-stroke" x1="0" y1="0.500000" x2="1" y2="0.500000" spreadMethod="pad" gradientUnits="objectBoundingBox"><stop id="ea92xeaa052k2-stroke-0" offset="0%" stop-color="rgb(27,84,236)"/><stop id="ea92xeaa052k2-stroke-1" offset="100%" stop-color="rgb(146,19,228)"/></linearGradient><filter id="ea92xeaa052k20-filter" x="-400%" width="600%" y="-400%" height="600%"><feGaussianBlur id="ea92xeaa052k20-filter-drop-shadow-0-blur" in="SourceAlpha" stdDeviation="2,2"/><feOffset id="ea92xeaa052k20-filter-drop-shadow-0-offset" dx="0" dy="0" result="tmp"/><feFlood id="ea92xeaa052k20-filter-drop-shadow-0-flood" flood-color="rgb(0,112,255)"/><feComposite id="ea92xeaa052k20-filter-drop-shadow-0-composite" operator="in" in2="tmp"/><feMerge id="ea92xeaa052k20-filter-drop-shadow-0-merge"><feMergeNode id="ea92xeaa052k20-filter-drop-shadow-0-merge-node-1"/><feMergeNode id="ea92xeaa052k20-filter-drop-shadow-0-merge-node-2" in="SourceGraphic"/></feMerge></filter></defs><circle id="ea92xeaa052k2" r="74.957656" transform="matrix(0 -1 1 0 199.99999999996237 99.99999999996237)" fill="none" stroke="url(#ea92xeaa052k2-stroke)" stroke-width="4" stroke-linecap="round" stroke-miterlimit="10" stroke-dashoffset="470.970000" stroke-dasharray="470.970000"/><g id="ea92xeaa052k3"><g id="ea92xeaa052k4"><path id="ea92xeaa052k5" d="M256.560000,112.890000L245.480000,107.830000C245.040000,107.550000,242.720000,105.180000,242.720000,105.180000C242.574398,104.961839,242.332174,104.827684,242.070000,104.820000C241.870000,104.820000,241.710000,105.010000,241.710000,105.460000L241.710000,105.550000C242.100000,109.420000,227.350000,109.420000,227.710000,105.550000L227.710000,105.460000C227.710000,105.010000,227.550000,104.820000,227.350000,104.820000C227.087826,104.827684,226.845602,104.961839,226.700000,105.180000L224,107.860000C223.930000,107.860000,222.310000,108.650000,220.330000,109.550000C219.940000,109.730000,219.940000,110.010000,220.330000,110.180000L229.500000,114.330000C231.701047,115.560623,233.136324,117.814984,233.320000,120.330000L233.320000,120.420000L233.990000,131.420000C234.021196,131.845467,234.373410,132.175940,234.800000,132.180000L257.800000,132.180000C258.800000,132.180000,259.450000,131.100000,259.320000,129.760000L258.500000,116.150000C258.410467,114.816059,257.689732,113.604927,256.560000,112.890000ZM252.900000,126.230000C252.902681,126.393508,252.839599,126.551245,252.724910,126.667814C252.610220,126.784383,252.453530,126.850022,252.290000,126.850000L248.370000,126.850000C248.205566,126.850000,248.047866,126.784679,247.931594,126.668406C247.815321,126.552134,247.750000,126.394434,247.750000,126.230000L247.750000,111.400000C247.733993,111.257043,247.800082,111.117302,247.920741,111.038980C248.041400,110.960657,248.195942,110.957181,248.320000,111.030000L252.320000,112.760000C252.654632,112.918953,252.873968,113.249881,252.890000,113.620000L252.890000,126.230000Z" fill="rgb(121,126,246)" stroke="none" stroke-width="1"/><path id="ea92xeaa052k6" d="M225.450000,89C225.940000,89,226.290000,90.130000,226.450000,90.410000C226.610000,90.690000,226.710000,90.510000,226.690000,90.410000C226.670000,90.310000,226.690000,89.750000,226.600000,88.900000C226.600000,88.900000,226.600000,88.900000,226.600000,88.900000C226.242015,88.488249,225.714964,88.263423,225.170000,88.290000L224.720000,88.290000C224.393947,88.319199,224.099201,88.496047,223.920000,88.770000C223.480514,89.822288,223.365596,90.981922,223.590000,92.100000C223.686901,93.142470,223.894744,94.171627,224.210000,95.170000C224.493676,95.832513,225.019426,96.361839,225.680000,96.650000C225.795333,97.354490,225.948893,98.052187,226.140000,98.740000C226.770000,100.880000,229.980000,104.790000,234.140000,104.920000L235.270000,104.920000C239.460000,104.920000,242.820000,100.920000,243.440000,98.740000C243.631928,98.053025,243.782201,97.355089,243.890000,96.650000C244.554132,96.367062,245.081571,95.836035,245.360000,95.170000C245.682076,94.172900,245.893350,93.143360,245.990000,92.100000C246.217870,90.974636,246.099327,89.806634,245.650000,88.750000C245.467647,88.480930,245.173806,88.308299,244.850000,88.280000L244.410000,88.280000C243.862654,88.256233,243.333722,88.480294,242.970000,88.890000L242.970000,88.890000C242.970000,89.750000,242.860000,90.410000,242.860000,90.410000C242.860000,90.410000,243.020000,90.610000,243.100000,90.410000C243.180000,90.210000,243.500000,89,244,89C244.330000,89,244.540000,89.350000,244.600000,89.540000C244.730806,90.264140,244.730806,91.005860,244.600000,91.730000C244.521655,92.668660,244.347413,93.596833,244.080000,94.500000C243.965650,94.752585,243.740116,94.937449,243.470000,95C242.630000,95.230000,242.470000,95.730000,242.410000,96C242.295463,96.895419,242.114973,97.781160,241.870000,98.650000C241.430000,100.170000,238.630000,103.760000,235.210000,103.790000L234.100000,103.790000C230.800000,103.690000,228.100000,100.350000,227.550000,98.660000C227.335040,97.870826,227.168068,97.069359,227.050000,96.260000C227.055577,96.176760,227.055577,96.093240,227.050000,96.010000C227.050000,95.740000,226.830000,95.240000,226.050000,95.010000C225.778457,94.950371,225.551765,94.764558,225.440000,94.510000C225.167708,93.608017,224.993369,92.679326,224.920000,91.740000C224.789194,91.015860,224.789194,90.274140,224.920000,89.550000C224.920000,89.300000,225.130000,88.930000,225.450000,89Z" fill="rgb(121,126,246)" stroke="none" stroke-width="1"/><path id="ea92xeaa052k7" d="M247.470000,85.750000L247.470000,83.560000C247.470000,82.870000,247.150000,82.310000,246.740000,82.310000C246.330000,82.310000,246.020000,81.750000,245.940000,81.060000C245.585154,77.871739,243.886092,74.986607,241.270000,73.130000C241.157877,73.035692,241.002357,73.012180,240.867367,73.069129C240.732376,73.126078,240.640692,73.253879,240.630000,73.400000L239.220000,80.400000C238.950000,81.760000,238.590000,82.830000,238.410000,82.800000C238.230000,82.770000,238.230000,81.640000,238.410000,80.270000L239.410000,72.760000C239.452161,72.394517,239.254403,72.043396,238.920000,71.890000C237.588087,71.354187,236.165649,71.079205,234.730000,71.080000C233.298870,71.082630,231.880963,71.353999,230.550000,71.880000C230.217801,72.035781,230.021021,72.385165,230.060000,72.750000L231.060000,80.270000C231.240000,81.640000,231.240000,82.770000,231.060000,82.800000C230.880000,82.830000,230.520000,81.800000,230.240000,80.400000L228.840000,73.400000C228.833441,73.251602,228.741014,73.120631,228.603394,73.064723C228.465774,73.008814,228.308194,73.038220,228.200000,73.140000C225.582052,74.996400,223.879734,77.880884,223.520000,81.070000C223.450000,81.760000,223.120000,82.320000,222.720000,82.320000C222.320000,82.320000,221.990000,82.880000,221.990000,83.570000L221.990000,85.760000C221.995439,86.442567,222.547433,86.994561,223.230000,87L223.840000,87C224.469559,86.976170,225.073545,87.250372,225.470000,87.740000C225.571616,87.909659,225.721256,88.045379,225.900000,88.130000C226.180000,88.280000,226.600000,88.590000,226.900000,88.750000C228.050000,89.340000,231.110000,89.750000,234.720000,89.750000C238.330000,89.750000,241.380000,89.330000,242.530000,88.750000C242.840000,88.590000,243.260000,88.280000,243.530000,88.130000C243.708744,88.045379,243.858384,87.909659,243.960000,87.740000C244.356455,87.250372,244.960441,86.976170,245.590000,87L246.200000,87C246.534972,87.005360,246.858077,86.876034,247.096841,86.641030C247.335605,86.406026,247.470043,86.085015,247.470000,85.750000Z" fill="rgb(121,126,246)" stroke="none" stroke-width="1"/></g><g id="ea92xeaa052k8"><path id="ea92xeaa052k9" d="M142.230000,132.090000L165.230000,132.090000C165.654670,132.085565,166.003808,131.753885,166.030000,131.330000L166.710000,120.280000C166.899331,117.764147,168.337663,115.510885,170.540000,114.280000L179.790000,110.140000C180.170000,109.970000,180.170000,109.690000,179.790000,109.510000L176,107.830000C175.570000,107.550000,173.240000,105.180000,173.240000,105.180000C173.094398,104.961839,172.852174,104.827684,172.590000,104.820000C172.390000,104.820000,172.230000,105.010000,172.230000,105.450000L172.230000,105.550000C172.620000,109.420000,157.870000,109.420000,158.230000,105.550000L158.230000,105.450000C158.230000,105.010000,158.080000,104.820000,157.870000,104.820000C157.607826,104.827684,157.365602,104.961839,157.220000,105.180000C157.074398,105.398161,154.450000,107.850000,154.450000,107.860000C154.260000,107.980000,143.380000,112.860000,143.380000,112.860000C142.285518,113.556465,141.581884,114.726719,141.480000,116.020000L140.660000,129.640000C140.580000,131,141.260000,132.090000,142.230000,132.090000ZM147.230000,113.620000C147.246032,113.249881,147.465368,112.918953,147.800000,112.760000L151.800000,111.030000C151.924058,110.957181,152.078600,110.960657,152.199259,111.038980C152.319918,111.117302,152.386007,111.257043,152.370000,111.400000L152.370000,126.230000C152.370000,126.394434,152.304679,126.552134,152.188406,126.668406C152.072134,126.784679,151.914434,126.850000,151.750000,126.850000L147.830000,126.850000C147.666470,126.850022,147.509780,126.784383,147.395090,126.667814C147.280401,126.551245,147.217319,126.393508,147.220000,126.230000L147.220000,113.620000Z" fill="rgb(121,126,246)" stroke="none" stroke-width="1" stroke-dashoffset="74.991875"/><path id="ea92xeaa052k10" d="M156,89.200000C156.500000,89.200000,156.840000,90.320000,157,90.610000C157.160000,90.900000,157.250000,90.700000,157.230000,90.610000C157.210000,90.520000,157.230000,89.950000,157.140000,89.100000L157.140000,89.100000C156.776278,88.690294,156.247346,88.466233,155.700000,88.490000L155.260000,88.490000C154.933028,88.516787,154.635512,88.689420,154.450000,88.960000C154.010514,90.012288,153.895596,91.171922,154.120000,92.290000C154.216326,93.336677,154.427599,94.369566,154.750000,95.370000C155.037028,96.030246,155.561715,96.558503,156.220000,96.850000C156.327883,97.551780,156.478158,98.246384,156.670000,98.930000C157.300000,101.080000,160.510000,104.930000,164.670000,105.110000L165.800000,105.110000C169.990000,105.110000,173.350000,101.110000,173.970000,98.920000C174.159974,98.235281,174.313523,97.540973,174.430000,96.840000C175.088961,96.544454,175.613386,96.012894,175.900000,95.350000C176.216149,94.351858,176.424011,93.322604,176.520000,92.280000C176.753533,91.158230,176.634784,89.991702,176.180000,88.940000C176.006551,88.661615,175.707609,88.485986,175.380000,88.470000L174.940000,88.470000C174.392654,88.446233,173.863722,88.670294,173.500000,89.080000L173.500000,89.080000C173.500000,89.940000,173.400000,90.610000,173.400000,90.610000C173.400000,90.610000,173.550000,90.800000,173.630000,90.610000C173.710000,90.420000,174.120000,89.230000,174.630000,89.200000C175.140000,89.170000,175.170000,89.550000,175.230000,89.730000C175.360719,90.457508,175.360719,91.202492,175.230000,91.930000C175.152881,92.865548,174.978609,93.790530,174.710000,94.690000C174.599437,94.947405,174.372921,95.136787,174.100000,95.200000C173.270000,95.420000,173.100000,95.920000,173.040000,96.200000C172.923465,97.094303,172.746392,97.979669,172.510000,98.850000C172.060000,100.370000,169.260000,103.950000,165.850000,103.980000L164.710000,103.980000C161.410000,103.880000,158.660000,100.530000,158.160000,98.850000C157.944979,98.057462,157.778008,97.252665,157.660000,96.440000C157.660000,96.360000,157.660000,96.270000,157.660000,96.200000C157.660000,95.920000,157.430000,95.420000,156.600000,95.200000C156.327079,95.136787,156.100563,94.947405,155.990000,94.690000C155.721391,93.790530,155.547119,92.865548,155.470000,91.930000C155.339281,91.202492,155.339281,90.457508,155.470000,89.730000C155.470000,89.550000,155.680000,89.180000,156,89.200000Z" fill="rgb(121,126,246)" stroke="none" stroke-width="1" stroke-dashoffset="74.991875" stroke-dasharray="98.350000"/><path id="ea92xeaa052k11" d="M178,86L178,83.810000C178,83.110000,177.670000,82.550000,177.260000,82.550000C176.850000,82.550000,176.540000,81.990000,176.470000,81.300000C176.109956,78.116180,174.411737,75.236117,171.800000,73.380000C171.689551,73.280434,171.532094,73.252341,171.394027,73.307568C171.255960,73.362794,171.161314,73.491729,171.150000,73.640000L169.750000,80.640000C169.510000,82,169.140000,83,169,83C168.860000,83,168.830000,81.830000,169,80.460000L170,73C170.031199,72.634078,169.831877,72.287257,169.500000,72.130000C166.814441,71.050389,163.815559,71.050389,161.130000,72.130000C160.797801,72.285781,160.601021,72.635165,160.640000,73L161.640000,80.510000C161.843899,81.344391,161.843899,82.215609,161.640000,83.050000C161.460000,83.050000,161.090000,82,160.820000,80.650000L159.410000,73.650000C159.403441,73.501602,159.311014,73.370631,159.173394,73.314723C159.035774,73.258814,158.878194,73.288220,158.770000,73.390000C156.153528,75.243266,154.451224,78.124087,154.090000,81.310000C154.020000,82,153.700000,82.560000,153.290000,82.560000C152.880000,82.560000,152.560000,83.120000,152.560000,83.820000L152.560000,86C152.559989,86.333261,152.693057,86.652728,152.929645,86.887438C153.166233,87.122148,153.486750,87.252666,153.820000,87.250000L154.430000,87.250000C155.040360,87.247334,155.618527,87.523529,156,88C156.106819,88.162800,156.255298,88.294014,156.430000,88.380000C156.720000,88.540000,157.130000,88.840000,157.430000,89C158.580000,89.590000,161.640000,90,165.250000,90C168.860000,90,171.910000,89.570000,173.060000,89C173.370000,88.840000,173.790000,88.540000,174.060000,88.380000C174.237379,88.298062,174.386869,88.165955,174.490000,88C174.886455,87.510372,175.490441,87.236170,176.120000,87.260000L176.730000,87.260000C177.066713,87.265399,177.391362,87.134711,177.630424,86.897531C177.869487,86.660351,178.002737,86.336746,178,86Z" fill="rgb(121,126,246)" stroke="none" stroke-width="1" stroke-dasharray="109.960000"/></g><g id="ea92xeaa052k12"><path id="ea92xeaa052k13" d="M200,137.350000C201.602142,133.212878,202.938199,128.977577,204,124.670000C203.519807,121.622921,202.817944,118.614937,201.900000,115.670000C202.360000,114.370000,203.410000,112.990000,203.610000,111.740000C203.789644,110.654656,203.457415,109.547226,202.710000,108.740000C202.486773,108.416504,202.055733,108.313055,201.710000,108.500000L200.570000,109.300000C200.222836,109.547178,199.757164,109.547178,199.410000,109.300000L198.270000,108.500000C197.912967,108.281175,197.446511,108.387794,197.220000,108.740000C196.472585,109.547226,196.140356,110.654656,196.320000,111.740000C196.520000,112.990000,197.570000,114.370000,198.030000,115.670000C197.110849,118.614608,196.408965,121.622682,195.930000,124.670000C196.996397,128.976285,198.332363,133.211298,199.930000,137.350000" fill="rgb(30,47,152)" stroke="none" stroke-width="1"/><path id="ea92xeaa052k14" d="M200,138C195.420000,131.070000,190.500000,110.760000,190.890000,106.920000L190.890000,106.800000C190.890000,106.220000,190.680000,105.980000,190.410000,105.970000C190.070353,105.990695,189.758116,106.163344,189.560000,106.440000L185.940000,109.910000C185.700000,110.060000,171.500000,116.420000,171.500000,116.420000C170.067521,117.310487,169.143306,118.828574,169.010000,120.510000L167.940000,138.120000" fill="rgb(30,47,152)" stroke="none" stroke-width="1"/><path id="ea92xeaa052k15" d="M232.070000,138.120000L231,120.510000C230.866694,118.828574,229.942479,117.310487,228.510000,116.420000L214,109.870000C213.440000,109.510000,210.410000,106.440000,210.410000,106.440000C210.209723,106.160704,209.893224,105.987733,209.550000,105.970000C209.290000,105.970000,209.080000,106.220000,209.080000,106.800000L209.080000,106.920000C209.470000,110.760000,204.550000,131.070000,199.970000,138" fill="rgb(30,47,152)" stroke="none" stroke-width="1"/><path id="ea92xeaa052k16" d="M211.190000,97.600000C211.443112,96.716651,211.640171,95.818195,211.780000,94.910000C212.635185,94.537617,213.317617,93.855185,213.690000,93C214.103892,91.699891,214.375482,90.358707,214.500000,89C214.710000,86.920000,214.590000,85.590000,214.050000,84.670000C213.828975,84.322923,213.459748,84.097695,213.050000,84.060000L212.480000,84.060000C211.772124,84.026777,211.087603,84.317515,210.620000,84.850000L210.620000,84.850000C210.570000,85.970000,210.490000,86.850000,210.490000,86.850000C210.490000,86.850000,210.690000,87.100000,210.790000,86.850000C210.890000,86.600000,211.420000,85.070000,212.050000,85.020000C212.480000,85.020000,212.750000,85.480000,212.820000,85.720000C212.992668,86.658793,212.992668,87.621207,212.820000,88.560000C212.724043,89.774491,212.496030,90.974909,212.140000,92.140000C211.998783,92.468842,211.708917,92.710397,211.360000,92.790000C210.280000,93.080000,210.030000,93.730000,209.990000,94.090000C209.833544,95.247686,209.599686,96.393586,209.290000,97.520000C208.720000,99.520000,205.090000,104.130000,200.670000,104.170000C200.450000,104.170000,199.470000,104.170000,199.200000,104.170000C194.930000,104.030000,191.360000,99.700000,190.720000,97.520000C190.439884,96.494235,190.222811,95.452287,190.070000,94.400000C190.070000,94.290000,190.070000,94.190000,190.070000,94.090000C190.070000,93.730000,189.780000,93.090000,188.700000,92.790000C188.348775,92.710289,188.055873,92.469294,187.910000,92.140000C187.558871,90.973704,187.330959,89.773815,187.230000,88.560000C187.066350,87.618734,187.083318,86.654923,187.280000,85.720000C187.350000,85.480000,187.620000,85,188.040000,85.030000C188.680000,85.030000,189.130000,86.480000,189.300000,86.850000C189.470000,87.220000,189.630000,86.970000,189.610000,86.850000C189.590000,86.730000,189.550000,85.990000,189.490000,84.900000L189.440000,84.840000C188.972397,84.307515,188.287876,84.016777,187.580000,84.050000L187,84.050000C186.590373,84.095717,186.223097,84.323428,186,84.670000C185.470000,85.590000,185.350000,86.910000,185.570000,88.980000C185.689609,90.338574,185.957880,91.679928,186.370000,92.980000C186.746076,93.835029,187.426946,94.519464,188.280000,94.900000C188.425582,95.810408,188.622563,96.711849,188.870000,97.600000C189.680000,100.380000,193.870000,105.430000,199.240000,105.600000L200.700000,105.600000C206.050000,105.560000,210.390000,100.370000,211.190000,97.600000Z" fill="rgb(30,47,152)" stroke="none" stroke-width="1"/><path id="ea92xeaa052k17" d="M185.100000,82.550000L185.900000,82.550000C186.720463,82.524418,187.502711,82.896917,188,83.550000C188.139893,83.762630,188.332942,83.934995,188.560000,84.050000C188.930000,84.250000,189.470000,84.640000,189.870000,84.850000C191.360000,85.620000,195.330000,86.170000,199.990000,86.170000C204.650000,86.170000,208.620000,85.620000,210.110000,84.850000C210.510000,84.640000,211.050000,84.250000,211.410000,84.050000C211.641126,83.941047,211.835662,83.767355,211.970000,83.550000C212.474659,82.900551,213.257784,82.529402,214.080000,82.550000L214.880000,82.550000C215.310467,82.552682,215.724081,82.382865,216.028473,82.078473C216.332865,81.774081,216.502682,81.360467,216.500000,80.930000L216.500000,78.090000C216.500000,77.200000,216.080000,76.470000,215.550000,76.470000C215.020000,76.470000,214.620000,75.740000,214.550000,74.850000C214.087200,70.724239,211.886327,66.991849,208.500000,64.590000C208.357358,64.463878,208.155463,64.429717,207.979269,64.501893C207.803076,64.574069,207.683167,64.740052,207.670000,64.930000L205.850000,73.930000C205.490000,75.690000,205.020000,77.080000,204.790000,77.040000C204.560000,77,204.560000,75.530000,204.790000,73.760000L206.070000,64.040000C206.119100,63.565471,205.862223,63.111922,205.430000,62.910000C201.952351,61.509609,198.067649,61.509609,194.590000,62.910000C194.163279,63.111465,193.910581,63.560706,193.960000,64.030000L195.240000,73.760000C195.470000,75.530000,195.480000,77,195.240000,77.040000C195,77.080000,194.530000,75.690000,194.180000,73.930000L192.360000,64.930000C192.349906,64.735993,192.228350,64.565394,192.048272,64.492505C191.868194,64.419617,191.662197,64.457634,191.520000,64.590000C188.152557,67.001689,185.970723,70.732627,185.520000,74.850000C185.420000,75.740000,185.010000,76.470000,184.520000,76.470000C184.030000,76.470000,183.580000,77.200000,183.580000,78.090000L183.580000,80.930000C183.573322,81.789042,184.242274,82.502004,185.100000,82.550000Z" fill="rgb(30,47,152)" stroke="none" stroke-width="1"/></g><circle id="ea92xeaa052k18" display="none" r="74.440000" transform="matrix(1 0 0 1 200 100)" fill="none" stroke="rgb(181,186,244)" stroke-width="3" stroke-miterlimit="10" stroke-dashoffset="467.720000" stroke-dasharray="100,50"/></g><g id="ea92xeaa052k19" transform="matrix(0.17012919148584 -0.00031606038305 0.00031606038305 0.17012919148584 141.12892878460752 7.18595241041368)"><circle id="ea92xeaa052k20" r="50.500000" transform="matrix(1 0 0 1 345.25781300000006 105.59999999999994)" filter="url(#ea92xeaa052k20-filter)" fill="rgb(30,47,152)" stroke="rgb(27,167,236)" stroke-width="4" stroke-miterlimit="10"/><polygon id="ea92xeaa052k21" points="223.110000,113.280000 209.830000,100 223.110000,86.720000 213.030000,76.640000 199.750000,89.920000 186.470000,76.640000 176.390000,86.720000 189.670000,100 176.390000,113.280000 186.470000,123.360000 199.750000,110.080000 213.030000,123.360000 223.110000,113.280000" transform="matrix(1 0 0 1 145.50781300000000 5.59999999999994)" fill="rgb(255,255,255)" stroke="none" stroke-width="1"/></g><script><![CDATA[!function(t,n){"object"==typeof exports&&"undefined"!=typeof module?module.exports=n():"function"==typeof define&&define.amd?define(n):(t=t||self).__SVGATOR_PLAYER__=n()}(this,(function(){"use strict";function t(n){return(t="function"==typeof Symbol&&"symbol"==typeof Symbol.iterator?function(t){return typeof t}:function(t){return t&&"function"==typeof Symbol&&t.constructor===Symbol&&t!==Symbol.prototype?"symbol":typeof t})(n)}function n(t,n){if(!(t instanceof n))throw new TypeError("Cannot call a class as a function")}function e(t,n){for(var e=0;e<n.length;e++){var r=n[e];r.enumerable=r.enumerable||!1,r.configurable=!0,"value"in r&&(r.writable=!0),Object.defineProperty(t,r.key,r)}}function r(t,n,r){return n&&e(t.prototype,n),r&&e(t,r),t}function i(t){return(i=Object.setPrototypeOf?Object.getPrototypeOf:function(t){return t.__proto__||Object.getPrototypeOf(t)})(t)}function u(t,n){return(u=Object.setPrototypeOf||function(t,n){return t.__proto__=n,t})(t,n)}function o(t,n){return!n||"object"!=typeof n&&"function"!=typeof n?function(t){if(void 0===t)throw new ReferenceError("this hasn't been initialised - super() hasn't been called");return t}(t):n}function a(t){var n=function(){if("undefined"==typeof Reflect||!Reflect.construct)return!1;if(Reflect.construct.sham)return!1;if("function"==typeof Proxy)return!0;try{return Date.prototype.toString.call(Reflect.construct(Date,[],(function(){}))),!0}catch(t){return!1}}();return function(){var e,r=i(t);if(n){var u=i(this).constructor;e=Reflect.construct(r,arguments,u)}else e=r.apply(this,arguments);return o(this,e)}}function l(t,n,e){return(l="undefined"!=typeof Reflect&&Reflect.get?Reflect.get:function(t,n,e){var r=function(t,n){for(;!Object.prototype.hasOwnProperty.call(t,n)&&null!==(t=i(t)););return t}(t,n);if(r){var u=Object.getOwnPropertyDescriptor(r,n);return u.get?u.get.call(e):u.value}})(t,n,e||t)}var f=Math.abs;function s(t){return t}function c(t,n,e){var r=1-e;return 3*e*r*(t*r+n*e)+e*e*e}function h(){var t=arguments.length>0&&void 0!==arguments[0]?arguments[0]:0,n=arguments.length>1&&void 0!==arguments[1]?arguments[1]:0,e=arguments.length>2&&void 0!==arguments[2]?arguments[2]:1,r=arguments.length>3&&void 0!==arguments[3]?arguments[3]:1;return t<0||t>1||e<0||e>1?null:f(t-n)<=1e-5&&f(e-r)<=1e-5?s:function(i){if(i<=0)return t>0?i*n/t:0===n&&e>0?i*r/e:0;if(i>=1)return e<1?1+(i-1)*(r-1)/(e-1):1===e&&t<1?1+(i-1)*(n-1)/(t-1):1;for(var u,o=0,a=1;o<a;){var l=c(t,e,u=(o+a)/2);if(f(i-l)<1e-5)break;l<i?o=u:a=u}return c(n,r,u)}}function v(){return 1}function d(t){return 1===t?1:0}function y(){var t=arguments.length>0&&void 0!==arguments[0]?arguments[0]:1,n=arguments.length>1&&void 0!==arguments[1]?arguments[1]:0;if(1===t){if(0===n)return d;if(1===n)return v}var e=1/t;return function(t){return t>=1?1:(t+=n*e)-t%e}}function g(t){var n=arguments.length>1&&void 0!==arguments[1]?arguments[1]:2;if(Number.isInteger(t))return t;var e=Math.pow(10,n);return Math.round(t*e)/e}var p=Math.PI/180;function m(t,n,e){return t>=.5?e:n}function b(t,n,e){return 0===t||n===e?n:t*(e-n)+n}function w(t,n,e){var r=b(t,n,e);return r<=0?0:r}function x(t,n,e){return 0===t?n:1===t?e:{x:b(t,n.x,e.x),y:b(t,n.y,e.y)}}function k(t,n,e){return 0===t?n:1===t?e:{x:w(t,n.x,e.x),y:w(t,n.y,e.y)}}function A(t,n,e){var r=function(t,n,e){return Math.round(b(t,n,e))}(t,n,e);return r<=0?0:r>=255?255:r}function _(t,n,e){return 0===t?n:1===t?e:{r:A(t,n.r,e.r),g:A(t,n.g,e.g),b:A(t,n.b,e.b),a:b(t,null==n.a?1:n.a,null==e.a?1:e.a)}}function S(t,n,e){if(0===t)return n;if(1===t)return e;var r=n.length;if(r!==e.length)return m(t,n,e);for(var i=[],u=0;u<r;u++)i.push(_(t,n[u],e[u]));return i}function M(t,n,e){var r=n.length;if(r!==e.length)return m(t,n,e);for(var i=new Array(r),u=0;u<r;u++)i[u]=b(t,n[u],e[u]);return i}function O(t,n){for(var e=[],r=0;r<t;r++)e.push(n);return e}function E(t,n){if(--n<=0)return t;var e=(t=Object.assign([],t)).length;do{for(var r=0;r<e;r++)t.push(t[r])}while(--n>0);return t}var B,I=function(){function t(e){n(this,t),this.list=e,this.length=e.length}return r(t,[{key:"setAttribute",value:function(t,n){for(var e=this.list,r=0;r<this.length;r++)e[r].setAttribute(t,n)}},{key:"removeAttribute",value:function(t){for(var n=this.list,e=0;e<this.length;e++)n[e].removeAttribute(t)}},{key:"style",value:function(t,n){for(var e=this.list,r=0;r<this.length;r++)e[r].style[t]=n}}]),t}(),j=/-./g,P=function(t,n){return n.toUpperCase()};function F(t){return"function"==typeof t?t:m}function R(t){return t?"function"==typeof t?t:Array.isArray(t)?function(t){var n=arguments.length>1&&void 0!==arguments[1]?arguments[1]:s;if(!Array.isArray(t))return n;switch(t.length){case 1:return y(t[0])||n;case 2:return y(t[0],t[1])||n;case 4:return h(t[0],t[1],t[2],t[3])||n}return n}(t,null):function(t,n){var e=arguments.length>2&&void 0!==arguments[2]?arguments[2]:s;switch(t){case"linear":return s;case"steps":return y(n.steps||1,n.jump||0)||e;case"bezier":case"cubic-bezier":return h(n.x1||0,n.y1||0,n.x2||0,n.y2||0)||e}return e}(t.type,t.value,null):null}function T(t,n,e){var r=arguments.length>3&&void 0!==arguments[3]&&arguments[3],i=n.length-1;if(t<=n[0].t)return r?[0,0,n[0].v]:n[0].v;if(t>=n[i].t)return r?[i,1,n[i].v]:n[i].v;var u,o=n[0],a=null;for(u=1;u<=i;u++){if(!(t>n[u].t)){a=n[u];break}o=n[u]}return null==a?r?[i,1,n[i].v]:n[i].v:o.t===a.t?r?[u,1,a.v]:a.v:(t=(t-o.t)/(a.t-o.t),o.e&&(t=o.e(t)),r?[u,t,e(t,o.v,a.v)]:e(t,o.v,a.v))}function q(t,n){var e=arguments.length>2&&void 0!==arguments[2]?arguments[2]:null;return t&&t.length?"function"!=typeof n?null:("function"!=typeof e&&(e=null),function(r){var i=T(r,t,n);return null!=i&&e&&(i=e(i)),i}):null}function C(t,n){return t.t-n.t}function V(n,e,r,i,u){var o,a="@"===r[0],l="#"===r[0],f=B[r],s=m;switch(a?(o=r.substr(1),r=o.replace(j,P)):l&&(r=r.substr(1)),t(f)){case"function":if(s=f(i,u,T,R,r,a,e,n),l)return s;break;case"string":s=q(i,F(f));break;case"object":if((s=q(i,F(f.i),f.f))&&"function"==typeof f.u)return f.u(e,s,r,a,n)}return s?function(t,n,e){var r=arguments.length>3&&void 0!==arguments[3]&&arguments[3];if(r)return t instanceof I?function(r){return t.style(n,e(r))}:function(r){return t.style[n]=e(r)};if(Array.isArray(n)){var i=n.length;return function(r){var u=e(r);if(null==u)for(var o=0;o<i;o++)t[o].removeAttribute(n);else for(var a=0;a<i;a++)t[a].setAttribute(n,u)}}return function(r){var i=e(r);null==i?t.removeAttribute(n):t.setAttribute(n,i)}}(e,r,s,a):null}function N(n,e,r,i){if(!i||"object"!==t(i))return null;var u=null,o=null;return Array.isArray(i)?o=function(t){if(!t||!t.length)return null;for(var n=0;n<t.length;n++)t[n].e&&(t[n].e=R(t[n].e));return t.sort(C)}(i):(o=i.keys,u=i.data||null),o?V(n,e,r,o,u):null}function z(t,n,e){if(!e)return null;var r=[];for(var i in e)if(e.hasOwnProperty(i)){var u=N(t,n,i,e[i]);u&&r.push(u)}return r.length?r:null}function D(t,n){if(!n.duration||n.duration<0)return null;var e=function(t,n){if(!n)return null;var e=[];if(Array.isArray(n))for(var r=n.length,i=0;i<r;i++){var u=n[i];if(2===u.length){var o=null;if("string"==typeof u[0])o=t.getElementById(u[0]);else if(Array.isArray(u[0])){o=[];for(var a=0;a<u[0].length;a++)if("string"==typeof u[0][a]){var l=t.getElementById(u[0][a]);l&&o.push(l)}o=o.length?1===o.length?o[0]:new I(o):null}if(o){var f=z(t,o,u[1]);f&&(e=e.concat(f))}}}else for(var s in n)if(n.hasOwnProperty(s)){var c=t.getElementById(s);if(c){var h=z(t,c,n[s]);h&&(e=e.concat(h))}}return e.length?e:null}(t,n.elements);return e?function(t,n){var e=arguments.length>2&&void 0!==arguments[2]?arguments[2]:1/0,r=arguments.length>3&&void 0!==arguments[3]?arguments[3]:1,i=arguments.length>4&&void 0!==arguments[4]&&arguments[4],u=arguments.length>5&&void 0!==arguments[5]?arguments[5]:1,o=t.length,a=r>0?n:0;i&&e%2==0&&(a=n-a);var l=null;return function(f,s){var c=f%n,h=1+(f-c)/n;s*=r,i&&h%2==0&&(s=-s);var v=!1;if(h>e)c=a,v=!0,-1===u&&(c=r>0?0:n);else if(s<0&&(c=n-c),c===l)return!1;l=c;for(var d=0;d<o;d++)t[d](c);return v}}(e,n.duration,n.iterations||1/0,n.direction||1,!!n.alternate,n.fill||1):null}function L(t,n){if(B=n,!t||!t.root||!Array.isArray(t.animations))return null;var e=window.document.getElementById(t.root);if(!e)return null;var r=t.animations.map((function(t){return D(e,t)})).filter((function(t){return!!t}));return r.length?{element:e,animations:r,animationSettings:t.animationSettings,options:t.options||void 0}:null}var U=function(){function t(e,r){var i=arguments.length>2&&void 0!==arguments[2]?arguments[2]:{};n(this,t),this._id=0,this._running=!1,this._rollingBack=!1,this._animations=e,this.duration=r.duration,this.alternate=r.alternate,this.fill=r.fill,this.iterations=r.iterations,this.direction=i.direction||1,this.speed=i.speed||1,this.fps=i.fps||100,this.offset=i.offset||0,this.rollbackStartOffset=0}return r(t,[{key:"_rollback",value:function(){var t=this,n=1/0,e=null;this.rollbackStartOffset=this.offset,this._rollingBack||(this._rollingBack=!0,this._running=!0);this._id=window.requestAnimationFrame((function r(i){if(t._rollingBack){null==e&&(e=i);var u=i-e,o=t.rollbackStartOffset-u,a=Math.round(o*t.speed);if(a>t.duration&&n!=1/0){var l=!!t.alternate&&a/t.duration%2>1,f=a%t.duration;a=(f+=l?t.duration:0)||t.duration}var s=t.fps?1e3/t.fps:0,c=Math.max(0,a);if(c<n-s){t.offset=c,n=c;for(var h=t._animations,v=h.length,d=0;d<v;d++)h[d](c,t.direction)}var y=!1;if(t.iterations>0&&-1===t.fill){var g=t.iterations*t.duration,p=g==a;a=p?0:a,t.offset=p?0:t.offset,y=a>g}a>0&&t.offset>=a&&!y?t._id=window.requestAnimationFrame(r):t.stop()}}))}},{key:"_start",value:function(){var t=this,n=arguments.length>0&&void 0!==arguments[0]?arguments[0]:0,e=-1/0,r=null,i={},u=function u(o){t._running=!0,null==r&&(r=o);var a=Math.round((o-r+n)*t.speed),l=t.fps?1e3/t.fps:0;if(a>e+l&&!t._rollingBack){t.offset=a,e=a;for(var f=t._animations,s=f.length,c=0,h=0;h<s;h++)i[h]?c++:(i[h]=f[h](a,t.direction),i[h]&&c++);if(c===s)return void t._stop()}t._id=window.requestAnimationFrame(u)};this._id=window.requestAnimationFrame(u)}},{key:"_stop",value:function(){this._id&&window.cancelAnimationFrame(this._id),this._running=!1,this._rollingBack=!1}},{key:"play",value:function(){!this._rollingBack&&this._running||(this._rollingBack=!1,this.rollbackStartOffset>this.duration&&(this.offset=this.rollbackStartOffset-(this.rollbackStartOffset-this.offset)%this.duration,this.rollbackStartOffset=0),this._start(this.offset))}},{key:"stop",value:function(){this._stop(),this.offset=0,this.rollbackStartOffset=0;var t=this.direction,n=this._animations;window.requestAnimationFrame((function(){for(var e=0;e<n.length;e++)n[e](0,t)}))}},{key:"reachedToEnd",value:function(){return this.iterations>0&&this.offset>=this.iterations*this.duration}},{key:"restart",value:function(){this._stop(),this.offset=0,this._start()}},{key:"pause",value:function(){this._stop()}},{key:"reverse",value:function(){this.direction=-this.direction}}],[{key:"build",value:function(n,e){return(n=L(n,e))?{el:n.element,options:n.options||{},player:new t(n.animations,n.animationSettings,n.options)}:null}}]),t}();!function(){for(var t=0,n=["ms","moz","webkit","o"],e=0;e<n.length&&!window.requestAnimationFrame;++e)window.requestAnimationFrame=window[n[e]+"RequestAnimationFrame"],window.cancelAnimationFrame=window[n[e]+"CancelAnimationFrame"]||window[n[e]+"CancelRequestAnimationFrame"];window.requestAnimationFrame||(window.requestAnimationFrame=function(n){var e=Date.now(),r=Math.max(0,16-(e-t)),i=window.setTimeout((function(){n(e+r)}),r);return t=e+r,i},window.cancelAnimationFrame=window.clearTimeout)}();var W=function(t,n){var e=!1,r=null;return function(i){e&&clearTimeout(e),e=setTimeout((function(){return function(){for(var i=0,u=window.innerHeight,o=0,a=window.innerWidth,l=t.parentNode;l instanceof Element;){var f=window.getComputedStyle(l);if("visible"!==f.overflowY||"visible"!==f.overflowX){var s=l.getBoundingClientRect();"visible"!==f.overflowY&&(i=Math.max(i,s.top),u=Math.min(u,s.bottom)),"visible"!==f.overflowX&&(o=Math.max(o,s.left),a=Math.min(a,s.right))}if(l===l.parentNode)break;l=l.parentNode}e=!1;var c=t.getBoundingClientRect(),h=Math.min(c.height,Math.max(0,i-c.top)),v=Math.min(c.height,Math.max(0,c.bottom-u)),d=Math.min(c.width,Math.max(0,o-c.left)),y=Math.min(c.width,Math.max(0,c.right-a)),g=(c.height-h-v)/c.height,p=(c.width-d-y)/c.width,m=Math.round(g*p*100);null!==r&&r===m||(r=m,n(m))}()}),100)}},Y=function(){function t(e,r,i){n(this,t),r=Math.max(1,r||1),r=Math.min(r,100),this.el=e,this.onTresholdChange=i&&i.call?i:function(){},this.tresholdPercent=r||1,this.currentVisibility=null,this.visibilityCalculator=W(e,this.onVisibilityUpdate.bind(this)),this.bindScrollWatchers(),this.visibilityCalculator()}return r(t,[{key:"bindScrollWatchers",value:function(){for(var t=this.el.parentNode;t&&(t.addEventListener("scroll",this.visibilityCalculator),t!==t.parentNode&&t!==document);)t=t.parentNode}},{key:"onVisibilityUpdate",value:function(t){var n=this.currentVisibility>=this.tresholdPercent,e=t>=this.tresholdPercent;if(null===this.currentVisibility||n!==e)return this.currentVisibility=t,void this.onTresholdChange(e);this.currentVisibility=t}}]),t}(),G=/\.0+$/g;function H(t){return Number.isInteger(t)?t+"":t.toFixed(6).replace(G,"")}function X(t){var n=arguments.length>1&&void 0!==arguments[1]?arguments[1]:" ";return t&&t.length?t.map(H).join(n):""}function $(t){return H(t.x)+","+H(t.y)}function Q(t){return t?null==t.a||t.a>=1?"rgb("+t.r+","+t.g+","+t.b+")":"rgba("+t.r+","+t.g+","+t.b+","+t.a+")":"transparent"}var Z={f:null,i:k,u:function(t,n){return function(e){var r=n(e);t.setAttribute("rx",H(r.x)),t.setAttribute("ry",H(r.y))}}},J={f:null,i:function(t,n,e){return 0===t?n:1===t?e:{width:w(t,n.width,e.width),height:w(t,n.height,e.height)}},u:function(t,n){return function(e){var r=n(e);t.setAttribute("width",H(r.width)),t.setAttribute("height",H(r.height))}}},K=Math.sin,tt=Math.cos,nt=Math.acos,et=Math.asin,rt=Math.tan,it=Math.atan2,ut=Math.PI/180,ot=180/Math.PI,at=Math.sqrt,lt=function(){function t(){var e=arguments.length>0&&void 0!==arguments[0]?arguments[0]:1,r=arguments.length>1&&void 0!==arguments[1]?arguments[1]:0,i=arguments.length>2&&void 0!==arguments[2]?arguments[2]:0,u=arguments.length>3&&void 0!==arguments[3]?arguments[3]:1,o=arguments.length>4&&void 0!==arguments[4]?arguments[4]:0,a=arguments.length>5&&void 0!==arguments[5]?arguments[5]:0;n(this,t),this.m=[e,r,i,u,o,a],this.i=null,this.w=null,this.s=null}return r(t,[{key:"point",value:function(t,n){var e=this.m;return{x:e[0]*t+e[2]*n+e[4],y:e[1]*t+e[3]*n+e[5]}}},{key:"translateSelf",value:function(){var t=arguments.length>0&&void 0!==arguments[0]?arguments[0]:0,n=arguments.length>1&&void 0!==arguments[1]?arguments[1]:0;if(!t&&!n)return this;var e=this.m;return e[4]+=e[0]*t+e[2]*n,e[5]+=e[1]*t+e[3]*n,this.w=this.s=this.i=null,this}},{key:"rotateSelf",value:function(){var t=arguments.length>0&&void 0!==arguments[0]?arguments[0]:0;if(t%=360){var n=K(t*=ut),e=tt(t),r=this.m,i=r[0],u=r[1];r[0]=i*e+r[2]*n,r[1]=u*e+r[3]*n,r[2]=r[2]*e-i*n,r[3]=r[3]*e-u*n,this.w=this.s=this.i=null}return this}},{key:"scaleSelf",value:function(){var t=arguments.length>0&&void 0!==arguments[0]?arguments[0]:1,n=arguments.length>1&&void 0!==arguments[1]?arguments[1]:1;if(1!==t||1!==n){var e=this.m;e[0]*=t,e[1]*=t,e[2]*=n,e[3]*=n,this.w=this.s=this.i=null}return this}},{key:"skewSelf",value:function(t,n){if(n%=360,(t%=360)||n){var e=this.m,r=e[0],i=e[1],u=e[2],o=e[3];t&&(t=rt(t*ut),e[2]+=r*t,e[3]+=i*t),n&&(n=rt(n*ut),e[0]+=u*n,e[1]+=o*n),this.w=this.s=this.i=null}return this}},{key:"resetSelf",value:function(){var t=arguments.length>0&&void 0!==arguments[0]?arguments[0]:1,n=arguments.length>1&&void 0!==arguments[1]?arguments[1]:0,e=arguments.length>2&&void 0!==arguments[2]?arguments[2]:0,r=arguments.length>3&&void 0!==arguments[3]?arguments[3]:1,i=arguments.length>4&&void 0!==arguments[4]?arguments[4]:0,u=arguments.length>5&&void 0!==arguments[5]?arguments[5]:0,o=this.m;return o[0]=t,o[1]=n,o[2]=e,o[3]=r,o[4]=i,o[5]=u,this.w=this.s=this.i=null,this}},{key:"recomposeSelf",value:function(){var t=arguments.length>0&&void 0!==arguments[0]?arguments[0]:null,n=arguments.length>1&&void 0!==arguments[1]?arguments[1]:null,e=arguments.length>2&&void 0!==arguments[2]?arguments[2]:null,r=arguments.length>3&&void 0!==arguments[3]?arguments[3]:null,i=arguments.length>4&&void 0!==arguments[4]?arguments[4]:null;return this.isIdentity||this.resetSelf(),t&&(t.x||t.y)&&this.translateSelf(t.x,t.y),n&&this.rotateSelf(n),e&&(e.x&&this.skewSelf(e.x,0),e.y&&this.skewSelf(0,e.y)),!r||1===r.x&&1===r.y||this.scaleSelf(r.x,r.y),i&&(i.x||i.y)&&this.translateSelf(i.x,i.y),this}},{key:"decompose",value:function(){var t=arguments.length>0&&void 0!==arguments[0]?arguments[0]:0,n=arguments.length>1&&void 0!==arguments[1]?arguments[1]:0,e=this.m,r=e[0]*e[0]+e[1]*e[1],i=[[e[0],e[1]],[e[2],e[3]]],u=at(r);if(0===u)return{origin:{x:e[4],y:e[5]},translate:{x:t,y:n},scale:{x:0,y:0},skew:{x:0,y:0},rotate:0};i[0][0]/=u,i[0][1]/=u;var o=e[0]*e[3]-e[1]*e[2]<0;o&&(u=-u);var a=i[0][0]*i[1][0]+i[0][1]*i[1][1];i[1][0]-=i[0][0]*a,i[1][1]-=i[0][1]*a;var l=at(i[1][0]*i[1][0]+i[1][1]*i[1][1]);if(0===l)return{origin:{x:e[4],y:e[5]},translate:{x:t,y:n},scale:{x:u,y:0},skew:{x:0,y:0},rotate:0};i[1][0]/=l,i[1][1]/=l,a/=l;var f=0;return i[1][1]<0?(f=nt(i[1][1])*ot,i[0][1]<0&&(f=360-f)):f=et(i[0][1])*ot,o&&(f=-f),a=it(a,at(i[0][0]*i[0][0]+i[0][1]*i[0][1]))*ot,{origin:{x:e[4],y:e[5]},translate:{x:t,y:n},scale:{x:u,y:l},skew:{x:a,y:0},rotate:f}}},{key:"toString",value:function(){return null===this.s&&(this.s="matrix("+this.m.map(st).join(" ")+")"),this.s}},{key:"determinant",get:function(){var t=this.m;return t[0]*t[3]-t[1]*t[2]}},{key:"isIdentity",get:function(){if(null===this.i){var t=this.m;this.i=1===t[0]&&0===t[1]&&0===t[2]&&1===t[3]&&0===t[4]&&0===t[5]}return this.i}}]),t}(),ft=/\.0+$/;function st(t){return Number.isInteger(t)?t:t.toFixed(14).replace(ft,"")}Object.freeze({M:2,L:2,Z:0,H:1,V:1,C:6,Q:4,T:2,S:4,A:7});function ct(t,n,e){return t+(n-t)*e}function ht(t,n,e){var r=arguments.length>3&&void 0!==arguments[3]&&arguments[3],i={x:ct(t.x,n.x,e),y:ct(t.y,n.y,e)};return r&&(i.a=vt(t,n)),i}function vt(t,n){return Math.atan2(n.y-t.y,n.x-t.x)}function dt(t,n,e,r){var i=1-r;return i*i*t+2*i*r*n+r*r*e}function yt(t,n,e,r){return 2*(1-r)*(n-t)+2*r*(e-n)}function gt(t,n,e,r){var i=arguments.length>4&&void 0!==arguments[4]&&arguments[4],u={x:dt(t.x,n.x,e.x,r),y:dt(t.y,n.y,e.y,r)};return i&&(u.a=pt(t,n,e,r)),u}function pt(t,n,e,r){return Math.atan2(yt(t.y,n.y,e.y,r),yt(t.x,n.x,e.x,r))}function mt(t,n,e,r,i){var u=i*i;return i*u*(r-t+3*(n-e))+3*u*(t+e-2*n)+3*i*(n-t)+t}function bt(t,n,e,r,i){var u=1-i;return 3*(u*u*(n-t)+2*u*i*(e-n)+i*i*(r-e))}function wt(t,n,e,r,i){var u=arguments.length>5&&void 0!==arguments[5]&&arguments[5],o={x:mt(t.x,n.x,e.x,r.x,i),y:mt(t.y,n.y,e.y,r.y,i)};return u&&(o.a=xt(t,n,e,r,i)),o}function xt(t,n,e,r,i){return Math.atan2(bt(t.y,n.y,e.y,r.y,i),bt(t.x,n.x,e.x,r.x,i))}function kt(t,n,e){var r=arguments.length>3&&void 0!==arguments[3]&&arguments[3];if(_t(n)){if(St(e))return gt(n,e.start,e,t,r)}else if(_t(e)){if(n.end)return gt(n,n.end,e,t,r)}else{if(n.end)return e.start?wt(n,n.end,e.start,e,t,r):gt(n,n.end,e,t,r);if(e.start)return gt(n,e.start,e,t,r)}return ht(n,e,t,r)}function At(t,n,e){var r=kt(t,n,e,!0);return r.a=function(t){var n=arguments.length>1&&void 0!==arguments[1]&&arguments[1];return n?t+Math.PI:t}(r.a)/p,r}function _t(t){return!t.type||"corner"===t.type}function St(t){return null!=t.start&&!_t(t)}var Mt=new lt;var Ot={f:function(t){return t?t.join(" "):""},i:function(n,e,r){if(0===n)return e;if(1===n)return r;var i=e.length;if(i!==r.length)return m(n,e,r);for(var u,o=new Array(i),a=0;a<i;a++){if((u=t(e[a]))!==t(r[a]))return m(n,e,r);if("number"===u)o[a]=b(n,e[a],r[a]);else{if(e[a]!==r[a])return m(n,e,r);o[a]=e[a]}}return o}},Et={f:null,i:M,u:function(t,n){return function(e){var r=n(e);t.setAttribute("x1",H(r[0])),t.setAttribute("y1",H(r[1])),t.setAttribute("x2",H(r[2])),t.setAttribute("y2",H(r[3]))}}},Bt={f:H,i:b},It={f:H,i:function(t,n,e){var r=b(t,n,e);return r<=0?0:r>=1?1:r}},jt={f:function(t){var n=arguments.length>1&&void 0!==arguments[1]?arguments[1]:" ";return t&&t.length>0&&(t=t.map((function(t){return Math.floor(1e4*t)/1e4}))),X(t,n)},i:function(t,n,e){var r,i,u,o=n.length,a=e.length;if(o!==a)if(0===o)n=O(o=a,0);else if(0===a)a=o,e=O(o,0);else{var l=(u=(r=o)*(i=a)/function(t,n){for(var e;n;)e=n,n=t%n,t=e;return t||1}(r,i))<0?-u:u;n=E(n,Math.floor(l/o)),e=E(e,Math.floor(l/a)),o=a=l}for(var f=[],s=0;s<o;s++)f.push(g(w(t,n[s],e[s]),6));return f}};function Pt(t,n,e,r,i,u,o,a){return n=function(t,n,e){for(var r,i,u,o=t.length-1,a={},l=0;l<=o;l++)(r=t[l]).e&&(r.e=n(r.e)),r.v&&"g"===(i=r.v).t&&i.r&&(u=e.getElementById(i.r))&&(a[i.r]=u.querySelectorAll("stop"));return a}(t,r,a),function(r){var i,u=e(r,t,Ft);return u?"c"===u.t?Q(u.v):"g"===u.t?(n[u.r]&&function(t,n){for(var e=0,r=t.length;e<r;e++)t[e].setAttribute("stop-color",Q(n[e]))}(n[u.r],u.v),(i=u.r)?"url(#"+i+")":"none"):"none":"none"}}function Ft(t,n,e){if(0===t)return n;if(1===t)return e;if(n&&e){var r=n.t;if(r===e.t)switch(n.t){case"c":return{t:r,v:_(t,n.v,e.v)};case"g":if(n.r===e.r)return{t:r,v:S(t,n.v,e.v),r:n.r}}}return m(t,n,e)}var Rt={blur:k,brightness:w,contrast:w,"drop-shadow":function(t,n,e){return 0===t?n:1===t?e:{blur:k(t,n.blur,e.blur),offset:x(t,n.offset,e.offset),color:_(t,n.color,e.color)}},grayscale:w,"hue-rotate":b,invert:w,opacity:w,saturate:w,sepia:w};function Tt(t,n,e){if(0===t)return n;if(1===t)return e;var r=n.length;if(r!==e.length)return m(t,n,e);for(var i,u=[],o=0;o<r;o++){if(n[o].type!==e[o].type)return n;if(!(i=Rt[n[o].type]))return m(t,n,e);u.push({type:n.type,value:i(t,n[o].value,e[o].value)})}return u}var qt={blur:function(t){return t?function(n){t.setAttribute("stdDeviation",$(n))}:null},brightness:function(t,n,e){return(t=Vt(e,n))?function(n){n=H(n),t.map((function(t){return t.setAttribute("slope",n)}))}:null},contrast:function(t,n,e){return(t=Vt(e,n))?function(n){var e=H((1-n)/2);n=H(n),t.map((function(t){t.setAttribute("slope",n),t.setAttribute("intercept",e)}))}:null},"drop-shadow":function(t,n,e){var r=e.getElementById(n+"-blur");if(!r)return null;var i=e.getElementById(n+"-offset");if(!i)return null;var u=e.getElementById(n+"-flood");return u?function(t){r.setAttribute("stdDeviation",$(t.blur)),i.setAttribute("dx",H(t.offset.x)),i.setAttribute("dy",H(t.offset.y)),u.setAttribute("flood-color",Q(t.color))}:null},grayscale:function(t){return t?function(n){t.setAttribute("values",X(function(t){return[.2126+.7874*(t=1-t),.7152-.7152*t,.0722-.0722*t,0,0,.2126-.2126*t,.7152+.2848*t,.0722-.0722*t,0,0,.2126-.2126*t,.7152-.7152*t,.0722+.9278*t,0,0,0,0,0,1,0]}(n)))}:null},"hue-rotate":function(t){return t?function(n){return t.setAttribute("values",H(n))}:null},invert:function(t,n,e){return(t=Vt(e,n))?function(n){n=H(n)+" "+H(1-n),t.map((function(t){return t.setAttribute("tableValues",n)}))}:null},opacity:function(t,n,e){return(t=e.getElementById(n+"-A"))?function(n){return t.setAttribute("tableValues","0 "+H(n))}:null},saturate:function(t){return t?function(n){return t.setAttribute("values",H(n))}:null},sepia:function(t){return t?function(n){return t.setAttribute("values",X(function(t){return[.393+.607*(t=1-t),.769-.769*t,.189-.189*t,0,0,.349-.349*t,.686+.314*t,.168-.168*t,0,0,.272-.272*t,.534-.534*t,.131+.869*t,0,0,0,0,0,1,0]}(n)))}:null}};var Ct=["R","G","B"];function Vt(t,n){var e=Ct.map((function(e){return t.getElementById(n+"-"+e)||null}));return-1!==e.indexOf(null)?null:e}var Nt={fill:Pt,"fill-opacity":It,stroke:Pt,"stroke-opacity":It,"stroke-width":Bt,"stroke-dashoffset":{f:H,i:b},"stroke-dasharray":jt,opacity:It,transform:function(n,e,r,i){if(!(n=function(n,e){if(!n||"object"!==t(n))return null;var r=!1;for(var i in n)n.hasOwnProperty(i)&&(n[i]&&n[i].length?(n[i].forEach((function(t){t.e&&(t.e=e(t.e))})),r=!0):delete n[i]);return r?n:null}(n,i)))return null;var u=function(t,i,u){var o=arguments.length>3&&void 0!==arguments[3]?arguments[3]:null;return n[t]?r(i,n[t],u):e&&e[t]?e[t]:o};return e&&e.a&&n.o?function(t){var e=r(t,n.o,At);return Mt.recomposeSelf(e,u("r",t,b,0)+e.a,u("k",t,x),u("s",t,x),u("t",t,x)).toString()}:function(t){return Mt.recomposeSelf(u("o",t,kt,null),u("r",t,b,0),u("k",t,x),u("s",t,x),u("t",t,x)).toString()}},"#filter":function(t,n,e,r,i,u,o,a){if(!n.items||!t||!t.length)return null;var l=function(t,n){var e=(t=t.map((function(t){return t&&qt[t[0]]?(n.getElementById(t[1]),qt[t[0]](n.getElementById(t[1]),t[1],n)):null}))).length;return function(n){for(var r=0;r<e;r++)t[r]&&t[r](n[r].value)}}(n.items,a);return l?(t=function(t,n){return t.map((function(t){return t.e=n(t.e),t}))}(t,r),function(n){l(e(n,t,Tt))}):null},"#line":Et,points:{f:X,i:M},d:Ot,r:Bt,"#size":J,"#radius":Z,_:function(t,n){if(Array.isArray(t))for(var e=0;e<t.length;e++)this[t[e]]=n;else this[t]=n}};return function(t){!function(t,n){if("function"!=typeof n&&null!==n)throw new TypeError("Super expression must either be null or a function");t.prototype=Object.create(n&&n.prototype,{constructor:{value:t,writable:!0,configurable:!0}}),n&&u(t,n)}(o,t);var e=a(o);function o(){return n(this,o),e.apply(this,arguments)}return r(o,null,[{key:"build",value:function(t){var n=l(i(o),"build",this).call(this,t,Nt),e=n.el,r=n.options,u=n.player;return function(t,n,e){if("click"===e.start){return void n.addEventListener("click",(function(){switch(e.click){case"freeze":return!t._running&&t.reachedToEnd()&&(t.offset=0),t._running?t.pause():t.play();case"restart":return t.offset>0?t.restart():t.play();case"reverse":var n=!t._rollingBack&&t._running,r=t.reachedToEnd();return n||r&&1===t.fill?(t.pause(),r&&(t.offset=t.duration-1),t._rollback()):r?t.restart():t.play();case"none":default:return!t._running&&t.offset?t.restart():t.play()}}))}if("hover"===e.start)return n.addEventListener("mouseenter",(function(){return t.reachedToEnd()?t.restart():t.play()})),void n.addEventListener("mouseleave",(function(){switch(e.hover){case"freeze":return t.pause();case"reset":return t.stop();case"reverse":return t.pause(),t._rollback();case"none":default:return}}));if("scroll"===e.start)return void new Y(n,e.scroll||25,(function(n){n?t.reachedToEnd()?t.restart():t.play():t.pause()}));t.play()}(u,e,r),u}}]),o}(U)}));
__SVGATOR_PLAYER__.build({"root":"ea92xeaa052k1","animations":[{"duration":8000,"direction":1,"iterations":0,"fill":1,"alternate":false,"elements":{"ea92xeaa052k2":{"stroke":[{"t":0,"v":{"t":"g","v":[{"r":27,"g":84,"b":236,"a":1},{"r":146,"g":19,"b":228,"a":1}],"r":"ea92xeaa052k2-stroke"}},{"t":4000,"v":{"t":"g","v":[{"r":27,"g":84,"b":236,"a":1},{"r":173,"g":67,"b":241,"a":1}],"r":"ea92xeaa052k2-stroke"}},{"t":8000,"v":{"t":"g","v":[{"r":27,"g":84,"b":236,"a":1},{"r":146,"g":19,"b":228,"a":1}],"r":"ea92xeaa052k2-stroke"}}],"stroke-dashoffset":[{"t":0,"v":470.97,"e":[0.915,-0.145,0.53,0.99]},{"t":1000,"v":350,"e":[0.915,-0.145,0.53,0.99]},{"t":3000,"v":120,"e":[0.915,-0.145,0.53,0.99]},{"t":4000,"v":0,"e":[0.915,-0.145,0.53,0.99]},{"t":5000,"v":-120,"e":[0.915,-0.145,0.53,0.99]},{"t":7000,"v":-350,"e":[0.915,-0.145,0.53,0.99]},{"t":8000,"v":-470.97,"e":[0.915,-0.145,0.53,0.99]}]},"ea92xeaa052k4":{"opacity":[{"t":0,"v":1,"e":[1,0]},{"t":900,"v":1},{"t":1100,"v":0.2,"e":[1,0]},{"t":4900,"v":0.2},{"t":5100,"v":1,"e":[1,0]}]},"ea92xeaa052k8":{"opacity":[{"t":0,"v":1,"e":[1,0]},{"t":2900,"v":1},{"t":3100,"v":0.2,"e":[1,0]},{"t":6900,"v":0.2},{"t":7100,"v":1,"e":[1,0]}]},"ea92xeaa052k18":{"stroke-dashoffset":[{"t":0,"v":467.72},{"t":4000,"v":0}]},"ea92xeaa052k19":{"transform":{"data":{"o":{"x":200.039990955,"y":100,"type":"corner"},"s":{"x":0.17012948506884712,"y":0.17012948506884712},"t":{"x":-345.2578129996195,"y":-546.1918033857777}},"keys":{"r":[{"t":0,"v":359.8935579189616,"e":[0.915,-0.145,0.53,0.99]},{"t":1000,"v":448.7932252591489,"e":[0.915,-0.145,0.53,0.99]},{"t":3000,"v":629.8898362949161,"e":[0.915,-0.145,0.53,0.99]},{"t":4000,"v":719.7302451219362,"e":[0.915,-0.145,0.53,0.99]},{"t":5000,"v":807.9963556455155,"e":[0.915,-0.145,0.53,0.99]},{"t":7000,"v":989.9791700817187,"e":[0.915,-0.145,0.53,0.99]},{"t":8000,"v":1079.691157063325,"e":[0.915,-0.145,0.53,0.99]}]}}}}}],"options":{"start":"scroll","hover":"freeze","click":"freeze","scroll":25,"exportedIds":"unique","title":"skilled managers"},"animationSettings":{"duration":8000,"direction":1,"iterations":0,"fill":1,"alternate":false}})]]></script></svg>