<svg id="endhmif6g4uk1" xmlns="http://www.w3.org/2000/svg" xmlns:xlink="http://www.w3.org/1999/xlink" viewBox="0 0 40 50" shape-rendering="geometricPrecision" text-rendering="geometricPrecision"><g id="endhmif6g4uk2"><g id="endhmif6g4uk3"><path id="endhmif6g4uk4" d="M3.630000,33.900000L3.630000,34.430000L3.630000,34.430000C3.880645,34.028524,4.327051,33.791967,4.800000,33.810000C5.011293,33.810037,5.219837,33.857900,5.410000,33.950000C5.594583,34.054128,5.731004,34.226450,5.790000,34.430000C5.915171,34.244494,6.087847,34.095992,6.290000,34C6.506592,33.877158,6.751003,33.811752,7,33.810000C7.165261,33.808375,7.330014,33.828549,7.490000,33.870000C7.628814,33.905384,7.758404,33.970180,7.870000,34.060000C7.973768,34.146578,8.055940,34.256141,8.110000,34.380000C8.172312,34.532220,8.202936,34.695546,8.200000,34.860000L8.200000,37.520000L7.600000,37.520000L7.600000,35.140000C7.605342,35.036736,7.605342,34.933264,7.600000,34.830000C7.579893,34.737224,7.542583,34.649036,7.490000,34.570000C7.436556,34.495485,7.364010,34.436757,7.280000,34.400000C7.165357,34.355623,7.042838,34.335204,6.920000,34.340000C6.665454,34.325223,6.416004,34.415603,6.230000,34.590000C6.057707,34.769219,5.967220,35.011724,5.980000,35.260000L5.980000,37.520000L5.380000,37.520000L5.380000,35.140000C5.390305,35.033582,5.390305,34.926418,5.380000,34.820000C5.366265,34.728354,5.328288,34.642043,5.270000,34.570000C5.202576,34.483584,5.107069,34.423450,5,34.400000C4.895391,34.357195,4.782981,34.336757,4.670000,34.340000C4.513779,34.332755,4.358449,34.367273,4.220000,34.440000C4.104794,34.507385,4.003076,34.595541,3.920000,34.700000C3.846390,34.789402,3.788868,34.890911,3.750000,35C3.721883,35.084067,3.705069,35.171500,3.700000,35.260000L3.700000,37.520000L3.100000,37.520000L3.100000,33.900000Z" fill="rgb(121,126,246)" stroke="none" stroke-width="1"/><path id="endhmif6g4uk5" d="M9,35C9.070428,34.775556,9.186146,34.567944,9.340000,34.390000C9.492339,34.218561,9.679964,34.082106,9.890000,33.990000C10.376923,33.789964,10.923077,33.789964,11.410000,33.990000C11.838913,34.173866,12.162159,34.541191,12.290000,34.990000C12.436914,35.472396,12.436914,35.987604,12.290000,36.470000C12.220584,36.689780,12.108438,36.893683,11.960000,37.070000C11.805665,37.239225,11.618544,37.375313,11.410000,37.470000C11.169699,37.570834,10.910458,37.618589,10.650000,37.610000C10.389542,37.618589,10.130301,37.570834,9.890000,37.470000C9.679964,37.377894,9.492339,37.241439,9.340000,37.070000C9.188423,36.894227,9.072898,36.690358,9,36.470000C8.855109,35.990711,8.855109,35.479289,9,35ZM9.610000,36.320000C9.658869,36.478617,9.740649,36.625141,9.850000,36.750000C9.947244,36.864465,10.070765,36.953675,10.210000,37.010000C10.347133,37.076420,10.497630,37.110624,10.650000,37.110000C10.772925,37.097475,10.892011,37.060048,11,37C11.139235,36.943675,11.262756,36.854465,11.360000,36.740000C11.476259,36.618524,11.561951,36.471133,11.610000,36.310000C11.716796,35.930708,11.716796,35.529292,11.610000,35.150000C11.559333,34.990013,11.473968,34.843185,11.360000,34.720000C11.262071,34.603818,11.138955,34.511481,11,34.450000C10.865110,34.388497,10.718233,34.357755,10.570000,34.360000C10.418647,34.358837,10.268740,34.389499,10.130000,34.450000C9.991045,34.511481,9.867929,34.603818,9.770000,34.720000C9.662711,34.846302,9.581179,34.992381,9.530000,35.150000C9.409744,35.527316,9.409744,35.932684,9.530000,36.310000Z" fill="rgb(121,126,246)" stroke="none" stroke-width="1"/><path id="endhmif6g4uk6" d="M15.500000,37.520000L15.500000,36.940000L15.500000,36.940000C15.388081,37.150271,15.217967,37.323857,15.010000,37.440000C14.795603,37.545318,14.558771,37.596803,14.320000,37.590000C14.116247,37.595790,13.913087,37.565316,13.720000,37.500000C13.572673,37.443333,13.441988,37.350478,13.340000,37.230000C13.237656,37.108653,13.165672,36.964684,13.130000,36.810000C13.088579,36.636421,13.068430,36.458446,13.070000,36.280000L13.070000,33.900000L13.670000,33.900000L13.670000,36.350000C13.658770,36.545133,13.727354,36.736446,13.860000,36.880000C14.004990,37.017844,14.200199,37.090144,14.400000,37.080000C14.564550,37.084098,14.728112,37.053430,14.880000,36.990000C15.009347,36.940699,15.123245,36.857865,15.210000,36.750000C15.300922,36.645176,15.369033,36.522576,15.410000,36.390000C15.451558,36.243670,15.471766,36.092106,15.470000,35.940000L15.470000,33.940000L16.070000,33.940000L16.070000,37.560000Z" fill="rgb(121,126,246)" stroke="none" stroke-width="1"/><path id="endhmif6g4uk7" d="M17.410000,36.710000C17.467599,36.797539,17.542461,36.872401,17.630000,36.930000C17.726553,36.983527,17.831303,37.020696,17.940000,37.040000C18.056443,37.050228,18.173557,37.050228,18.290000,37.040000L18.590000,37.040000C18.686520,37.032056,18.781097,37.008412,18.870000,36.970000C18.956097,36.936760,19.029561,36.877288,19.080000,36.800000C19.142086,36.724077,19.174115,36.627990,19.170000,36.530000C19.177584,36.389393,19.108785,36.255617,18.990000,36.180000C18.856138,36.088150,18.707221,36.020460,18.550000,35.980000L18,35.860000C17.804300,35.824578,17.613132,35.767563,17.430000,35.690000C17.264767,35.625772,17.117320,35.522903,17,35.390000C16.871693,35.236531,16.807254,35.039632,16.820000,34.840000C16.815711,34.675244,16.857254,34.512534,16.940000,34.370000C17.021997,34.243917,17.131378,34.137954,17.260000,34.060000C17.390374,33.970663,17.536166,33.906243,17.690000,33.870000C17.846983,33.830653,18.008162,33.810506,18.170000,33.810000C18.361676,33.807993,18.552943,33.828127,18.740000,33.870000C18.903928,33.898277,19.060416,33.959511,19.200000,34.050000C19.335726,34.136334,19.446142,34.257101,19.520000,34.400000C19.604269,34.571654,19.651943,34.758947,19.660000,34.950000L19,34.950000C18.995815,34.847137,18.964787,34.747159,18.910000,34.660000C18.858717,34.582225,18.790301,34.517230,18.710000,34.470000C18.628423,34.424700,18.540908,34.391040,18.450000,34.370000C18.353610,34.359664,18.256390,34.359664,18.160000,34.370000L17.890000,34.370000C17.803979,34.382371,17.719938,34.405903,17.640000,34.440000C17.571860,34.475136,17.510828,34.522606,17.460000,34.580000C17.410241,34.645996,17.385444,34.727473,17.390000,34.810000C17.389738,34.908029,17.429463,35.001925,17.500000,35.070000C17.581975,35.141127,17.677104,35.195486,17.780000,35.230000C17.898608,35.283321,18.022674,35.323559,18.150000,35.350000L18.570000,35.440000C18.719358,35.469384,18.866405,35.509488,19.010000,35.560000C19.145040,35.604983,19.272989,35.668958,19.390000,35.750000C19.501838,35.823753,19.594413,35.923186,19.660000,36.040000C19.728123,36.172952,19.762467,36.320631,19.760000,36.470000C19.767429,36.663007,19.718803,36.854034,19.620000,37.020000C19.528587,37.162860,19.405378,37.282647,19.260000,37.370000C19.108355,37.457992,18.942545,37.518902,18.770000,37.550000C18.588940,37.585996,18.404583,37.602756,18.220000,37.600000C18.025098,37.600387,17.830696,37.580276,17.640000,37.540000C17.467406,37.503301,17.304090,37.431850,17.160000,37.330000C17.019637,37.234551,16.903268,37.107914,16.820000,36.960000C16.733866,36.781924,16.686167,36.587717,16.680000,36.390000L17.280000,36.390000C17.289830,36.507394,17.335174,36.619011,17.410000,36.710000Z" fill="rgb(121,126,246)" stroke="none" stroke-width="1"/><path id="endhmif6g4uk8" d="M23,37.290000C22.707295,37.494302,22.356829,37.599442,22,37.590000C21.739542,37.598589,21.480301,37.550834,21.240000,37.450000C21.034470,37.364638,20.852635,37.230834,20.710000,37.060000C20.557990,36.886158,20.445412,36.681471,20.380000,36.460000C20.307545,36.212867,20.267213,35.957434,20.260000,35.700000C20.255114,35.440743,20.299220,35.182894,20.390000,34.940000C20.539453,34.500157,20.860465,34.139470,21.280000,33.940000C21.494535,33.846776,21.726087,33.799104,21.960000,33.800000C22.240058,33.791151,22.517054,33.860400,22.760000,34C22.963202,34.133195,23.136805,34.306798,23.270000,34.510000C23.398949,34.715591,23.490368,34.942446,23.540000,35.180000C23.588492,35.410010,23.608642,35.645092,23.600000,35.880000L20.890000,35.880000C20.880428,36.032479,20.900811,36.185356,20.950000,36.330000C20.986110,36.470534,21.054602,36.600670,21.150000,36.710000C21.251262,36.820031,21.373712,36.908467,21.510000,36.970000C21.671455,37.037587,21.844976,37.071611,22.020000,37.070000C22.240883,37.080197,22.458918,37.016897,22.640000,36.890000C22.807282,36.759455,22.918214,36.569798,22.950000,36.360000L23.540000,36.360000C23.482979,36.726743,23.290244,37.058676,23,37.290000ZM22.870000,35C22.821257,34.880807,22.749951,34.772150,22.660000,34.680000C22.569395,34.581077,22.456162,34.505588,22.330000,34.460000C22.203104,34.407687,22.067255,34.380518,21.930000,34.380000C21.786068,34.378412,21.643270,34.405611,21.510000,34.460000C21.389983,34.511719,21.281266,34.586461,21.190000,34.680000C21.105753,34.772776,21.041126,34.881621,21,35C20.949079,35.124269,20.918683,35.255984,20.910000,35.390000L23,35.390000C22.981100,35.253093,22.937025,35.120866,22.870000,35Z" fill="rgb(121,126,246)" stroke="none" stroke-width="1"/><path id="endhmif6g4uk9" d="M24.130000,35C24.261800,34.556571,24.579073,34.191889,25,34C25.483997,33.802692,26.026003,33.802692,26.510000,34C26.938558,34.187241,27.263740,34.552614,27.400000,35C27.546914,35.482396,27.546914,35.997604,27.400000,36.480000C27.331044,36.702085,27.215083,36.906721,27.060000,37.080000C26.907661,37.251439,26.720036,37.387894,26.510000,37.480000C26.023900,37.666269,25.486100,37.666269,25,37.480000C24.789964,37.387894,24.602339,37.251439,24.450000,37.080000C24.294917,36.906721,24.178956,36.702085,24.110000,36.480000C23.963086,35.997604,23.963086,35.482396,24.110000,35ZM24.740000,36.320000C24.782906,36.481098,24.865407,36.628913,24.980000,36.750000C25.077244,36.864465,25.200765,36.953675,25.340000,37.010000C25.473362,37.076996,25.620761,37.111275,25.770000,37.110000C25.922370,37.110624,26.072867,37.076420,26.210000,37.010000C26.349235,36.953675,26.472756,36.864465,26.570000,36.750000C26.684593,36.628913,26.767094,36.481098,26.810000,36.320000C26.930256,35.942684,26.930256,35.537316,26.810000,35.160000C26.767094,34.998902,26.684593,34.851087,26.570000,34.730000C26.472071,34.613818,26.348955,34.521481,26.210000,34.460000C26.071260,34.399499,25.921353,34.368837,25.770000,34.370000C25.621985,34.369936,25.475566,34.400581,25.340000,34.460000C25.201045,34.521481,25.077929,34.613818,24.980000,34.730000C24.865407,34.851087,24.782906,34.998902,24.740000,35.160000C24.619744,35.537316,24.619744,35.942684,24.740000,36.320000Z" fill="rgb(121,126,246)" stroke="none" stroke-width="1"/><path id="endhmif6g4uk10" d="M29.230000,37.520000L27.880000,33.900000L28.550000,33.900000L29.550000,36.900000L29.550000,36.900000L30.550000,33.900000L31.180000,33.900000L29.850000,37.520000Z" fill="rgb(121,126,246)" stroke="none" stroke-width="1"/><path id="endhmif6g4uk11" d="M34.290000,37.290000C33.997295,37.494302,33.646829,37.599442,33.290000,37.590000C33.032697,37.599729,32.776466,37.551899,32.540000,37.450000C32.333045,37.362115,32.148496,37.228829,32,37.060000C31.854690,36.883139,31.745923,36.679200,31.680000,36.460000C31.607545,36.212867,31.567213,35.957434,31.560000,35.700000C31.556850,35.441712,31.597423,35.184752,31.680000,34.940000C31.757545,34.720381,31.880171,34.519411,32.040000,34.350000C32.344428,33.995235,32.792709,33.796815,33.260000,33.810000C33.540058,33.801151,33.817054,33.870400,34.060000,34.010000C34.263202,34.143195,34.436805,34.316798,34.570000,34.520000C34.698949,34.725591,34.790368,34.952446,34.840000,35.190000C34.863802,35.422726,34.863802,35.657274,34.840000,35.890000L32.140000,35.890000C32.115379,36.038990,32.115379,36.191010,32.140000,36.340000C32.181326,36.480517,32.253016,36.610241,32.350000,36.720000C32.449503,36.827655,32.568196,36.915827,32.700000,36.980000C32.861991,37.045807,33.035152,37.079761,33.210000,37.080000C33.430883,37.090197,33.648918,37.026897,33.830000,36.900000C34.000256,36.770519,34.114703,36.580965,34.150000,36.370000L34.740000,36.370000C34.703417,36.720204,34.543993,37.046138,34.290000,37.290000ZM34.150000,35C34.098281,34.879983,34.023539,34.771266,33.930000,34.680000C33.843021,34.581498,33.733116,34.505939,33.610000,34.460000C33.347086,34.353267,33.052914,34.353267,32.790000,34.460000C32.668747,34.509455,32.559595,34.584497,32.470000,34.680000C32.377397,34.773869,32.305814,34.886357,32.260000,35.010000C32.209079,35.134269,32.178683,35.265984,32.170000,35.400000L34.250000,35.400000C34.236886,35.262411,34.203176,35.127573,34.150000,35Z" fill="rgb(121,126,246)" stroke="none" stroke-width="1"/><path id="endhmif6g4uk12" d="M36,33.900000L36,34.660000L36,34.660000C36.122422,34.401336,36.308160,34.177762,36.540000,34.010000C36.775373,33.861039,37.052101,33.790981,37.330000,33.810000L37.330000,34.440000C37.125696,34.438053,36.922629,34.471897,36.730000,34.540000C36.570890,34.600218,36.429774,34.700032,36.320000,34.830000C36.212029,34.965575,36.133677,35.122278,36.090000,35.290000C36.043559,35.493399,36.020078,35.701366,36.020000,35.910000L36.020000,37.520000L35.430000,37.520000L35.430000,33.900000Z" fill="rgb(121,126,246)" stroke="none" stroke-width="1"/><path id="endhmif6g4uk13" d="M11.430000,40.900000L11.430000,41.420000L10.710000,41.420000L10.710000,43.670000C10.698412,43.726074,10.698412,43.783926,10.710000,43.840000C10.720158,43.878329,10.740960,43.913000,10.770000,43.940000C10.816285,43.948445,10.863715,43.948445,10.910000,43.940000L11.410000,43.940000L11.410000,44.470000L11,44.470000C10.870254,44.481493,10.739746,44.481493,10.610000,44.470000C10.512192,44.450590,10.419949,44.409594,10.340000,44.350000C10.270949,44.283614,10.219415,44.201159,10.190000,44.110000C10.154790,43.979645,10.137961,43.845011,10.140000,43.710000L10.140000,41.420000L9.500000,41.420000L9.500000,40.900000L10.110000,40.900000L10.110000,39.810000L10.710000,39.810000L10.710000,40.900000Z" fill="rgb(121,126,246)" stroke="none" stroke-width="1"/><path id="endhmif6g4uk14" d="M12,42C12.070428,41.775556,12.186146,41.567944,12.340000,41.390000C12.492339,41.218561,12.679964,41.082106,12.890000,40.990000C13.376923,40.789964,13.923077,40.789964,14.410000,40.990000C14.618544,41.084687,14.805665,41.220775,14.960000,41.390000C15.114097,41.566191,15.226848,41.774609,15.290000,42C15.450120,42.480341,15.450120,42.999659,15.290000,43.480000C15.224588,43.701471,15.112010,43.906158,14.960000,44.080000C14.805665,44.249225,14.618544,44.385313,14.410000,44.480000C13.920576,44.666935,13.379424,44.666935,12.890000,44.480000C12.679964,44.387894,12.492339,44.251439,12.340000,44.080000C12.188423,43.904227,12.072898,43.700358,12,43.480000C11.853086,42.997604,11.853086,42.482396,12,42ZM12.610000,43.320000C12.658869,43.478617,12.740649,43.625141,12.850000,43.750000C12.947244,43.864465,13.070765,43.953675,13.210000,44.010000C13.347133,44.076420,13.497630,44.110624,13.650000,44.110000C13.802370,44.110624,13.952867,44.076420,14.090000,44.010000C14.226428,43.948709,14.348924,43.860239,14.450000,43.750000C14.559351,43.625141,14.641131,43.478617,14.690000,43.320000C14.810256,42.942684,14.810256,42.537316,14.690000,42.160000C14.638821,42.002381,14.557289,41.856302,14.450000,41.730000C14.349132,41.616975,14.226748,41.525187,14.090000,41.460000C13.950914,41.400600,13.801239,41.369985,13.650000,41.370000C13.498647,41.368837,13.348740,41.399499,13.210000,41.460000C13.071045,41.521481,12.947929,41.613818,12.850000,41.730000C12.742711,41.856302,12.661179,42.002381,12.610000,42.160000C12.489744,42.537316,12.489744,42.942684,12.610000,43.320000Z" fill="rgb(121,126,246)" stroke="none" stroke-width="1"/><path id="endhmif6g4uk15" d="M18.670000,40.900000L18.670000,41.390000L18.670000,41.390000C18.764615,41.192195,18.928187,41.035734,19.130000,40.950000C19.351236,40.855733,19.589526,40.808075,19.830000,40.810000C20.082779,40.802587,20.333495,40.857538,20.560000,40.970000C20.760027,41.068910,20.937154,41.208567,21.080000,41.380000C21.216617,41.564630,21.321395,41.770807,21.390000,41.990000C21.459497,42.226997,21.493202,42.473045,21.490000,42.720000C21.492613,42.966919,21.458919,43.212880,21.390000,43.450000C21.325417,43.664710,21.220175,43.865008,21.080000,44.040000C20.939374,44.213698,20.761712,44.353778,20.560000,44.450000C20.332674,44.547296,20.087221,44.595023,19.840000,44.590000L19.540000,44.590000C19.429149,44.571935,19.321413,44.538267,19.220000,44.490000C18.989372,44.414888,18.793905,44.258515,18.670000,44.050000L18.670000,44.050000L18.670000,45.900000L18.070000,45.900000L18.070000,40.900000ZM20.810000,42.180000C20.762532,42.026719,20.691698,41.881680,20.600000,41.750000C20.508289,41.624107,20.388438,41.521378,20.250000,41.450000C20.094061,41.375222,19.922924,41.337572,19.750000,41.340000C19.412213,41.330511,19.092481,41.492257,18.900000,41.770000C18.808879,41.903039,18.744360,42.052451,18.710000,42.210000C18.670335,42.370320,18.650189,42.534846,18.650000,42.700000C18.649609,42.875083,18.669747,43.049607,18.710000,43.220000C18.749656,43.377504,18.817408,43.526559,18.910000,43.660000C19.005020,43.782791,19.124121,43.884878,19.260000,43.960000C19.423703,44.044103,19.606036,44.085386,19.790000,44.080000C19.964072,44.098429,20.139932,44.070843,20.300000,44C20.435305,43.922975,20.548849,43.812872,20.630000,43.680000C20.721198,43.543353,20.785670,43.390658,20.820000,43.230000C20.852001,43.061854,20.868736,42.891159,20.870000,42.720000C20.873812,42.538146,20.853638,42.356582,20.810000,42.180000Z" fill="rgb(121,126,246)" stroke="none" stroke-width="1"/><path id="endhmif6g4uk16" d="M22.830000,39.520000L22.830000,44.520000L22.240000,44.520000L22.240000,39.520000Z" fill="rgb(121,126,246)" stroke="none" stroke-width="1"/><path id="endhmif6g4uk17" d="M27,44.500000C26.867352,44.568077,26.718815,44.599166,26.570000,44.590000C26.437166,44.598454,26.306785,44.551373,26.210000,44.460000C26.068097,44.350941,25.989447,44.178659,26,44C25.852891,44.190422,25.655453,44.335902,25.430000,44.420000C25.207501,44.508995,24.969616,44.553173,24.730000,44.550000C24.572047,44.549239,24.414578,44.532487,24.260000,44.500000C24.123022,44.464758,23.994042,44.403662,23.880000,44.320000C23.770432,44.238263,23.681413,44.132125,23.620000,44.010000C23.485546,43.690225,23.485546,43.329775,23.620000,43.010000C23.689314,42.884494,23.784806,42.775361,23.900000,42.690000C24.019808,42.610012,24.151402,42.549277,24.290000,42.510000L24.740000,42.400000L25.210000,42.330000C25.341368,42.315062,25.471637,42.291680,25.600000,42.260000C25.694809,42.235337,25.783385,42.191049,25.860000,42.130000C25.930072,42.062339,25.966673,41.967178,25.960000,41.870000C25.976467,41.667248,25.875438,41.472961,25.700000,41.370000C25.619204,41.327055,25.530963,41.299904,25.440000,41.290000L25.160000,41.290000C24.941691,41.284236,24.725321,41.332318,24.530000,41.430000C24.350196,41.550035,24.244499,41.753881,24.250000,41.970000L23.700000,41.970000C23.704781,41.775291,23.752590,41.584052,23.840000,41.410000C23.918593,41.256082,24.035734,41.125159,24.180000,41.030000C24.326943,40.935527,24.489450,40.867816,24.660000,40.830000C24.845825,40.780296,25.037670,40.756736,25.230000,40.760000C25.393171,40.749703,25.556829,40.749703,25.720000,40.760000C25.874038,40.779165,26.023209,40.826629,26.160000,40.900000C26.288952,40.974071,26.395929,41.081048,26.470000,41.210000C26.554614,41.366314,26.596036,41.542356,26.590000,41.720000L26.590000,43.570000C26.575885,43.672851,26.575885,43.777149,26.590000,43.880000C26.590000,43.950000,26.660000,43.980000,26.750000,43.980000L27,44ZM26,42.650000C25.907166,42.705998,25.805844,42.746527,25.700000,42.770000C25.575213,42.800486,25.448109,42.820555,25.320000,42.830000L24.920000,42.890000C24.792512,42.905432,24.667904,42.939109,24.550000,42.990000C24.449283,43.036080,24.360372,43.104473,24.290000,43.190000C24.215588,43.290809,24.180077,43.415096,24.190000,43.540000C24.187392,43.627188,24.208105,43.713493,24.250000,43.790000C24.289171,43.852540,24.340114,43.906879,24.400000,43.950000C24.468756,43.990156,24.542813,44.020452,24.620000,44.040000C24.709732,44.049828,24.800268,44.049828,24.890000,44.040000C25.060054,44.042659,25.229265,44.015586,25.390000,43.960000C25.518284,43.916111,25.637059,43.848240,25.740000,43.760000C25.823955,43.686436,25.889100,43.593862,25.930000,43.490000C25.971739,43.405804,25.995574,43.313870,26,43.220000Z" fill="rgb(121,126,246)" stroke="none" stroke-width="1"/><path id="endhmif6g4uk18" d="M28.940000,45C28.881688,45.155182,28.811479,45.305629,28.730000,45.450000C28.669808,45.561616,28.592162,45.662894,28.500000,45.750000C28.422475,45.822025,28.330405,45.876585,28.230000,45.910000C28.121601,45.951754,28.006143,45.972129,27.890000,45.970000L27.680000,45.970000C27.608063,45.962898,27.537420,45.946078,27.470000,45.920000L27.470000,45.380000L27.650000,45.440000L27.820000,45.440000C27.930264,45.443645,28.038830,45.412126,28.130000,45.350000C28.213874,45.286760,28.276628,45.199601,28.310000,45.100000L28.560000,44.500000L27.120000,40.900000L27.790000,40.900000L28.850000,43.900000L28.850000,43.900000L29.850000,40.900000L30.480000,40.900000Z" fill="rgb(121,126,246)" stroke="none" stroke-width="1"/></g><g id="endhmif6g4uk19"><path id="endhmif6g4uk20" d="M20.650000,14.600000L20.650000,16C20.660941,16.172471,20.602750,16.342198,20.488286,16.471674C20.373823,16.601149,20.212511,16.679712,20.040000,16.690000L20,16.690000C19.830261,16.690000,19.667475,16.622572,19.547452,16.502548C19.427428,16.382525,19.360000,16.219739,19.360000,16.050000L19.360000,13.200000C19.360000,12.841015,19.651015,12.550000,20.010000,12.550000C20.368985,12.550000,20.660000,12.841015,20.660000,13.200000L20.660000,13.200000Z" fill="rgb(121,126,246)" stroke="none" stroke-width="1"/><path id="endhmif6g4uk21" d="M20.640000,8.350000C21.125625,8.426427,21.603972,8.543505,22.070000,8.700000C24.122393,9.430326,25.640912,11.184215,26.070000,13.320000C26.159957,13.791151,26.200177,14.270447,26.190000,14.750000L26.190000,22.940000C26.230932,24.437919,25.738295,25.901651,24.800000,27.070000C23.851604,28.251085,22.496491,29.035624,21,29.270000C19.275463,29.574753,17.503854,29.110847,16.150000,28C14.934956,27.050346,14.126920,25.673825,13.890000,24.150000C13.832977,23.769384,13.806227,23.384845,13.810000,23L13.810000,14.600000C13.787338,13.194480,14.250007,11.824133,15.120000,10.720000C16.064972,9.477881,17.456754,8.652856,19,8.420000L19.300000,8.350000ZM24.850000,18.850000L24.850000,14.530000C24.862202,13.259848,24.369409,12.036856,23.480000,11.130000C22.060045,9.655652,19.867328,9.231514,18,10.070000C16.178151,10.835404,15.016888,12.644907,15.080000,14.620000L15.080000,23.100000C15.067322,24.941700,16.090509,26.634314,17.727120,27.479017C19.363731,28.323720,21.336140,28.177219,22.830000,27.100000C24.116378,26.178810,24.864875,24.681816,24.830000,23.100000C24.860000,21.680000,24.860000,20.270000,24.850000,18.850000Z" fill="rgb(121,126,246)" stroke="none" stroke-width="1"/></g><g id="endhmif6g4uk22" opacity="0"><path id="endhmif6g4uk23" d="M29.480000,15.620000C29.480000,15.450000,29.480000,15.290000,29.480000,15.120000C29.480627,14.617578,29.440496,14.115932,29.360000,13.620000" fill="none" stroke="rgb(121,126,246)" stroke-width="0.500000" stroke-linecap="round" stroke-linejoin="round"/><path id="endhmif6g4uk24" d="M28.840000,11.630000C27.325418,7.837225,23.558356,5.434953,19.480638,5.661492C15.402921,5.888032,11.925139,8.692797,10.840000,12.630000" fill="none" stroke="rgb(121,126,246)" stroke-width="0.500000" stroke-linecap="round" stroke-linejoin="round" stroke-dasharray="4.130000,2.060000"/><path id="endhmif6g4uk25" d="M10.620000,13.620000C10.539504,14.115932,10.499373,14.617578,10.500000,15.120000C10.500000,15.290000,10.500000,15.450000,10.500000,15.620000" fill="none" stroke="rgb(121,126,246)" stroke-width="0.500000" stroke-linecap="round" stroke-linejoin="round"/></g><g id="endhmif6g4uk26" opacity="0"><path id="endhmif6g4uk27" d="M32.810000,16.120000C32.810000,15.880000,32.810000,15.650000,32.810000,15.420000C32.810883,14.733893,32.760744,14.048671,32.660000,13.370000" transform="matrix(1 0 0 1 0.39882920000001 0)" fill="none" stroke="rgb(121,126,246)" stroke-width="0.500000" stroke-linecap="round" stroke-linejoin="round"/><path id="endhmif6g4uk28" d="M32,10.620000C30.171901,5.555403,25.384249,2.164149,20,2.120000C14.088059,2.186450,8.974256,6.254435,7.580000,12" fill="none" stroke="rgb(121,126,246)" stroke-width="0.500000" stroke-linecap="round" stroke-linejoin="round" stroke-dasharray="5.690000,2.840000"/><path id="endhmif6g4uk29" d="M7.300000,13.370000C7.199256,14.048671,7.149117,14.733893,7.150000,15.420000C7.150000,15.650000,7.150000,15.880000,7.150000,16.120000" fill="none" stroke="rgb(121,126,246)" stroke-width="0.500000" stroke-linecap="round" stroke-linejoin="round"/></g></g><script><![CDATA[!function(t,n){"object"==typeof exports&&"undefined"!=typeof module?module.exports=n():"function"==typeof define&&define.amd?define(n):(t=t||self).__SVGATOR_PLAYER__=n()}(this,(function(){"use strict";function t(n){return(t="function"==typeof Symbol&&"symbol"==typeof Symbol.iterator?function(t){return typeof t}:function(t){return t&&"function"==typeof Symbol&&t.constructor===Symbol&&t!==Symbol.prototype?"symbol":typeof t})(n)}function n(t,n){if(!(t instanceof n))throw new TypeError("Cannot call a class as a function")}function e(t,n){for(var e=0;e<n.length;e++){var r=n[e];r.enumerable=r.enumerable||!1,r.configurable=!0,"value"in r&&(r.writable=!0),Object.defineProperty(t,r.key,r)}}function r(t,n,r){return n&&e(t.prototype,n),r&&e(t,r),t}function i(t){return(i=Object.setPrototypeOf?Object.getPrototypeOf:function(t){return t.__proto__||Object.getPrototypeOf(t)})(t)}function u(t,n){return(u=Object.setPrototypeOf||function(t,n){return t.__proto__=n,t})(t,n)}function o(t,n){return!n||"object"!=typeof n&&"function"!=typeof n?function(t){if(void 0===t)throw new ReferenceError("this hasn't been initialised - super() hasn't been called");return t}(t):n}function a(t){var n=function(){if("undefined"==typeof Reflect||!Reflect.construct)return!1;if(Reflect.construct.sham)return!1;if("function"==typeof Proxy)return!0;try{return Date.prototype.toString.call(Reflect.construct(Date,[],(function(){}))),!0}catch(t){return!1}}();return function(){var e,r=i(t);if(n){var u=i(this).constructor;e=Reflect.construct(r,arguments,u)}else e=r.apply(this,arguments);return o(this,e)}}function l(t,n,e){return(l="undefined"!=typeof Reflect&&Reflect.get?Reflect.get:function(t,n,e){var r=function(t,n){for(;!Object.prototype.hasOwnProperty.call(t,n)&&null!==(t=i(t)););return t}(t,n);if(r){var u=Object.getOwnPropertyDescriptor(r,n);return u.get?u.get.call(e):u.value}})(t,n,e||t)}var f=Math.abs;function s(t){return t}function c(t,n,e){var r=1-e;return 3*e*r*(t*r+n*e)+e*e*e}function h(){var t=arguments.length>0&&void 0!==arguments[0]?arguments[0]:0,n=arguments.length>1&&void 0!==arguments[1]?arguments[1]:0,e=arguments.length>2&&void 0!==arguments[2]?arguments[2]:1,r=arguments.length>3&&void 0!==arguments[3]?arguments[3]:1;return t<0||t>1||e<0||e>1?null:f(t-n)<=1e-5&&f(e-r)<=1e-5?s:function(i){if(i<=0)return t>0?i*n/t:0===n&&e>0?i*r/e:0;if(i>=1)return e<1?1+(i-1)*(r-1)/(e-1):1===e&&t<1?1+(i-1)*(n-1)/(t-1):1;for(var u,o=0,a=1;o<a;){var l=c(t,e,u=(o+a)/2);if(f(i-l)<1e-5)break;l<i?o=u:a=u}return c(n,r,u)}}function v(){return 1}function d(t){return 1===t?1:0}function y(){var t=arguments.length>0&&void 0!==arguments[0]?arguments[0]:1,n=arguments.length>1&&void 0!==arguments[1]?arguments[1]:0;if(1===t){if(0===n)return d;if(1===n)return v}var e=1/t;return function(t){return t>=1?1:(t+=n*e)-t%e}}function g(t){var n=arguments.length>1&&void 0!==arguments[1]?arguments[1]:2;if(Number.isInteger(t))return t;var e=Math.pow(10,n);return Math.round(t*e)/e}var p=Math.PI/180;function m(t,n,e){return t>=.5?e:n}function b(t,n,e){return 0===t||n===e?n:t*(e-n)+n}function w(t,n,e){var r=b(t,n,e);return r<=0?0:r}function x(t,n,e){return 0===t?n:1===t?e:{x:b(t,n.x,e.x),y:b(t,n.y,e.y)}}function k(t,n,e){return 0===t?n:1===t?e:{x:w(t,n.x,e.x),y:w(t,n.y,e.y)}}function A(t,n,e){var r=function(t,n,e){return Math.round(b(t,n,e))}(t,n,e);return r<=0?0:r>=255?255:r}function _(t,n,e){return 0===t?n:1===t?e:{r:A(t,n.r,e.r),g:A(t,n.g,e.g),b:A(t,n.b,e.b),a:b(t,null==n.a?1:n.a,null==e.a?1:e.a)}}function S(t,n,e){if(0===t)return n;if(1===t)return e;var r=n.length;if(r!==e.length)return m(t,n,e);for(var i=[],u=0;u<r;u++)i.push(_(t,n[u],e[u]));return i}function M(t,n,e){var r=n.length;if(r!==e.length)return m(t,n,e);for(var i=new Array(r),u=0;u<r;u++)i[u]=b(t,n[u],e[u]);return i}function O(t,n){for(var e=[],r=0;r<t;r++)e.push(n);return e}function E(t,n){if(--n<=0)return t;var e=(t=Object.assign([],t)).length;do{for(var r=0;r<e;r++)t.push(t[r])}while(--n>0);return t}var B,I=function(){function t(e){n(this,t),this.list=e,this.length=e.length}return r(t,[{key:"setAttribute",value:function(t,n){for(var e=this.list,r=0;r<this.length;r++)e[r].setAttribute(t,n)}},{key:"removeAttribute",value:function(t){for(var n=this.list,e=0;e<this.length;e++)n[e].removeAttribute(t)}},{key:"style",value:function(t,n){for(var e=this.list,r=0;r<this.length;r++)e[r].style[t]=n}}]),t}(),j=/-./g,P=function(t,n){return n.toUpperCase()};function F(t){return"function"==typeof t?t:m}function R(t){return t?"function"==typeof t?t:Array.isArray(t)?function(t){var n=arguments.length>1&&void 0!==arguments[1]?arguments[1]:s;if(!Array.isArray(t))return n;switch(t.length){case 1:return y(t[0])||n;case 2:return y(t[0],t[1])||n;case 4:return h(t[0],t[1],t[2],t[3])||n}return n}(t,null):function(t,n){var e=arguments.length>2&&void 0!==arguments[2]?arguments[2]:s;switch(t){case"linear":return s;case"steps":return y(n.steps||1,n.jump||0)||e;case"bezier":case"cubic-bezier":return h(n.x1||0,n.y1||0,n.x2||0,n.y2||0)||e}return e}(t.type,t.value,null):null}function T(t,n,e){var r=arguments.length>3&&void 0!==arguments[3]&&arguments[3],i=n.length-1;if(t<=n[0].t)return r?[0,0,n[0].v]:n[0].v;if(t>=n[i].t)return r?[i,1,n[i].v]:n[i].v;var u,o=n[0],a=null;for(u=1;u<=i;u++){if(!(t>n[u].t)){a=n[u];break}o=n[u]}return null==a?r?[i,1,n[i].v]:n[i].v:o.t===a.t?r?[u,1,a.v]:a.v:(t=(t-o.t)/(a.t-o.t),o.e&&(t=o.e(t)),r?[u,t,e(t,o.v,a.v)]:e(t,o.v,a.v))}function q(t,n){var e=arguments.length>2&&void 0!==arguments[2]?arguments[2]:null;return t&&t.length?"function"!=typeof n?null:("function"!=typeof e&&(e=null),function(r){var i=T(r,t,n);return null!=i&&e&&(i=e(i)),i}):null}function C(t,n){return t.t-n.t}function V(n,e,r,i,u){var o,a="@"===r[0],l="#"===r[0],f=B[r],s=m;switch(a?(o=r.substr(1),r=o.replace(j,P)):l&&(r=r.substr(1)),t(f)){case"function":if(s=f(i,u,T,R,r,a,e,n),l)return s;break;case"string":s=q(i,F(f));break;case"object":if((s=q(i,F(f.i),f.f))&&"function"==typeof f.u)return f.u(e,s,r,a,n)}return s?function(t,n,e){var r=arguments.length>3&&void 0!==arguments[3]&&arguments[3];if(r)return t instanceof I?function(r){return t.style(n,e(r))}:function(r){return t.style[n]=e(r)};if(Array.isArray(n)){var i=n.length;return function(r){var u=e(r);if(null==u)for(var o=0;o<i;o++)t[o].removeAttribute(n);else for(var a=0;a<i;a++)t[a].setAttribute(n,u)}}return function(r){var i=e(r);null==i?t.removeAttribute(n):t.setAttribute(n,i)}}(e,r,s,a):null}function N(n,e,r,i){if(!i||"object"!==t(i))return null;var u=null,o=null;return Array.isArray(i)?o=function(t){if(!t||!t.length)return null;for(var n=0;n<t.length;n++)t[n].e&&(t[n].e=R(t[n].e));return t.sort(C)}(i):(o=i.keys,u=i.data||null),o?V(n,e,r,o,u):null}function z(t,n,e){if(!e)return null;var r=[];for(var i in e)if(e.hasOwnProperty(i)){var u=N(t,n,i,e[i]);u&&r.push(u)}return r.length?r:null}function D(t,n){if(!n.duration||n.duration<0)return null;var e=function(t,n){if(!n)return null;var e=[];if(Array.isArray(n))for(var r=n.length,i=0;i<r;i++){var u=n[i];if(2===u.length){var o=null;if("string"==typeof u[0])o=t.getElementById(u[0]);else if(Array.isArray(u[0])){o=[];for(var a=0;a<u[0].length;a++)if("string"==typeof u[0][a]){var l=t.getElementById(u[0][a]);l&&o.push(l)}o=o.length?1===o.length?o[0]:new I(o):null}if(o){var f=z(t,o,u[1]);f&&(e=e.concat(f))}}}else for(var s in n)if(n.hasOwnProperty(s)){var c=t.getElementById(s);if(c){var h=z(t,c,n[s]);h&&(e=e.concat(h))}}return e.length?e:null}(t,n.elements);return e?function(t,n){var e=arguments.length>2&&void 0!==arguments[2]?arguments[2]:1/0,r=arguments.length>3&&void 0!==arguments[3]?arguments[3]:1,i=arguments.length>4&&void 0!==arguments[4]&&arguments[4],u=arguments.length>5&&void 0!==arguments[5]?arguments[5]:1,o=t.length,a=r>0?n:0;i&&e%2==0&&(a=n-a);var l=null;return function(f,s){var c=f%n,h=1+(f-c)/n;s*=r,i&&h%2==0&&(s=-s);var v=!1;if(h>e)c=a,v=!0,-1===u&&(c=r>0?0:n);else if(s<0&&(c=n-c),c===l)return!1;l=c;for(var d=0;d<o;d++)t[d](c);return v}}(e,n.duration,n.iterations||1/0,n.direction||1,!!n.alternate,n.fill||1):null}function L(t,n){if(B=n,!t||!t.root||!Array.isArray(t.animations))return null;var e=window.document.getElementById(t.root);if(!e)return null;var r=t.animations.map((function(t){return D(e,t)})).filter((function(t){return!!t}));return r.length?{element:e,animations:r,animationSettings:t.animationSettings,options:t.options||void 0}:null}var U=function(){function t(e,r){var i=arguments.length>2&&void 0!==arguments[2]?arguments[2]:{};n(this,t),this._id=0,this._running=!1,this._rollingBack=!1,this._animations=e,this.duration=r.duration,this.alternate=r.alternate,this.fill=r.fill,this.iterations=r.iterations,this.direction=i.direction||1,this.speed=i.speed||1,this.fps=i.fps||100,this.offset=i.offset||0,this.rollbackStartOffset=0}return r(t,[{key:"_rollback",value:function(){var t=this,n=1/0,e=null;this.rollbackStartOffset=this.offset,this._rollingBack||(this._rollingBack=!0,this._running=!0);this._id=window.requestAnimationFrame((function r(i){if(t._rollingBack){null==e&&(e=i);var u=i-e,o=t.rollbackStartOffset-u,a=Math.round(o*t.speed);if(a>t.duration&&n!=1/0){var l=!!t.alternate&&a/t.duration%2>1,f=a%t.duration;a=(f+=l?t.duration:0)||t.duration}var s=t.fps?1e3/t.fps:0,c=Math.max(0,a);if(c<n-s){t.offset=c,n=c;for(var h=t._animations,v=h.length,d=0;d<v;d++)h[d](c,t.direction)}var y=!1;if(t.iterations>0&&-1===t.fill){var g=t.iterations*t.duration,p=g==a;a=p?0:a,t.offset=p?0:t.offset,y=a>g}a>0&&t.offset>=a&&!y?t._id=window.requestAnimationFrame(r):t.stop()}}))}},{key:"_start",value:function(){var t=this,n=arguments.length>0&&void 0!==arguments[0]?arguments[0]:0,e=-1/0,r=null,i={},u=function u(o){t._running=!0,null==r&&(r=o);var a=Math.round((o-r+n)*t.speed),l=t.fps?1e3/t.fps:0;if(a>e+l&&!t._rollingBack){t.offset=a,e=a;for(var f=t._animations,s=f.length,c=0,h=0;h<s;h++)i[h]?c++:(i[h]=f[h](a,t.direction),i[h]&&c++);if(c===s)return void t._stop()}t._id=window.requestAnimationFrame(u)};this._id=window.requestAnimationFrame(u)}},{key:"_stop",value:function(){this._id&&window.cancelAnimationFrame(this._id),this._running=!1,this._rollingBack=!1}},{key:"play",value:function(){!this._rollingBack&&this._running||(this._rollingBack=!1,this.rollbackStartOffset>this.duration&&(this.offset=this.rollbackStartOffset-(this.rollbackStartOffset-this.offset)%this.duration,this.rollbackStartOffset=0),this._start(this.offset))}},{key:"stop",value:function(){this._stop(),this.offset=0,this.rollbackStartOffset=0;var t=this.direction,n=this._animations;window.requestAnimationFrame((function(){for(var e=0;e<n.length;e++)n[e](0,t)}))}},{key:"reachedToEnd",value:function(){return this.iterations>0&&this.offset>=this.iterations*this.duration}},{key:"restart",value:function(){this._stop(),this.offset=0,this._start()}},{key:"pause",value:function(){this._stop()}},{key:"reverse",value:function(){this.direction=-this.direction}}],[{key:"build",value:function(n,e){return(n=L(n,e))?{el:n.element,options:n.options||{},player:new t(n.animations,n.animationSettings,n.options)}:null}}]),t}();!function(){for(var t=0,n=["ms","moz","webkit","o"],e=0;e<n.length&&!window.requestAnimationFrame;++e)window.requestAnimationFrame=window[n[e]+"RequestAnimationFrame"],window.cancelAnimationFrame=window[n[e]+"CancelAnimationFrame"]||window[n[e]+"CancelRequestAnimationFrame"];window.requestAnimationFrame||(window.requestAnimationFrame=function(n){var e=Date.now(),r=Math.max(0,16-(e-t)),i=window.setTimeout((function(){n(e+r)}),r);return t=e+r,i},window.cancelAnimationFrame=window.clearTimeout)}();var W=function(t,n){var e=!1,r=null;return function(i){e&&clearTimeout(e),e=setTimeout((function(){return function(){for(var i=0,u=window.innerHeight,o=0,a=window.innerWidth,l=t.parentNode;l instanceof Element;){var f=window.getComputedStyle(l);if("visible"!==f.overflowY||"visible"!==f.overflowX){var s=l.getBoundingClientRect();"visible"!==f.overflowY&&(i=Math.max(i,s.top),u=Math.min(u,s.bottom)),"visible"!==f.overflowX&&(o=Math.max(o,s.left),a=Math.min(a,s.right))}if(l===l.parentNode)break;l=l.parentNode}e=!1;var c=t.getBoundingClientRect(),h=Math.min(c.height,Math.max(0,i-c.top)),v=Math.min(c.height,Math.max(0,c.bottom-u)),d=Math.min(c.width,Math.max(0,o-c.left)),y=Math.min(c.width,Math.max(0,c.right-a)),g=(c.height-h-v)/c.height,p=(c.width-d-y)/c.width,m=Math.round(g*p*100);null!==r&&r===m||(r=m,n(m))}()}),100)}},Y=function(){function t(e,r,i){n(this,t),r=Math.max(1,r||1),r=Math.min(r,100),this.el=e,this.onTresholdChange=i&&i.call?i:function(){},this.tresholdPercent=r||1,this.currentVisibility=null,this.visibilityCalculator=W(e,this.onVisibilityUpdate.bind(this)),this.bindScrollWatchers(),this.visibilityCalculator()}return r(t,[{key:"bindScrollWatchers",value:function(){for(var t=this.el.parentNode;t&&(t.addEventListener("scroll",this.visibilityCalculator),t!==t.parentNode&&t!==document);)t=t.parentNode}},{key:"onVisibilityUpdate",value:function(t){var n=this.currentVisibility>=this.tresholdPercent,e=t>=this.tresholdPercent;if(null===this.currentVisibility||n!==e)return this.currentVisibility=t,void this.onTresholdChange(e);this.currentVisibility=t}}]),t}(),G=/\.0+$/g;function H(t){return Number.isInteger(t)?t+"":t.toFixed(6).replace(G,"")}function X(t){var n=arguments.length>1&&void 0!==arguments[1]?arguments[1]:" ";return t&&t.length?t.map(H).join(n):""}function $(t){return H(t.x)+","+H(t.y)}function Q(t){return t?null==t.a||t.a>=1?"rgb("+t.r+","+t.g+","+t.b+")":"rgba("+t.r+","+t.g+","+t.b+","+t.a+")":"transparent"}var Z={f:null,i:k,u:function(t,n){return function(e){var r=n(e);t.setAttribute("rx",H(r.x)),t.setAttribute("ry",H(r.y))}}},J={f:null,i:function(t,n,e){return 0===t?n:1===t?e:{width:w(t,n.width,e.width),height:w(t,n.height,e.height)}},u:function(t,n){return function(e){var r=n(e);t.setAttribute("width",H(r.width)),t.setAttribute("height",H(r.height))}}},K=Math.sin,tt=Math.cos,nt=Math.acos,et=Math.asin,rt=Math.tan,it=Math.atan2,ut=Math.PI/180,ot=180/Math.PI,at=Math.sqrt,lt=function(){function t(){var e=arguments.length>0&&void 0!==arguments[0]?arguments[0]:1,r=arguments.length>1&&void 0!==arguments[1]?arguments[1]:0,i=arguments.length>2&&void 0!==arguments[2]?arguments[2]:0,u=arguments.length>3&&void 0!==arguments[3]?arguments[3]:1,o=arguments.length>4&&void 0!==arguments[4]?arguments[4]:0,a=arguments.length>5&&void 0!==arguments[5]?arguments[5]:0;n(this,t),this.m=[e,r,i,u,o,a],this.i=null,this.w=null,this.s=null}return r(t,[{key:"point",value:function(t,n){var e=this.m;return{x:e[0]*t+e[2]*n+e[4],y:e[1]*t+e[3]*n+e[5]}}},{key:"translateSelf",value:function(){var t=arguments.length>0&&void 0!==arguments[0]?arguments[0]:0,n=arguments.length>1&&void 0!==arguments[1]?arguments[1]:0;if(!t&&!n)return this;var e=this.m;return e[4]+=e[0]*t+e[2]*n,e[5]+=e[1]*t+e[3]*n,this.w=this.s=this.i=null,this}},{key:"rotateSelf",value:function(){var t=arguments.length>0&&void 0!==arguments[0]?arguments[0]:0;if(t%=360){var n=K(t*=ut),e=tt(t),r=this.m,i=r[0],u=r[1];r[0]=i*e+r[2]*n,r[1]=u*e+r[3]*n,r[2]=r[2]*e-i*n,r[3]=r[3]*e-u*n,this.w=this.s=this.i=null}return this}},{key:"scaleSelf",value:function(){var t=arguments.length>0&&void 0!==arguments[0]?arguments[0]:1,n=arguments.length>1&&void 0!==arguments[1]?arguments[1]:1;if(1!==t||1!==n){var e=this.m;e[0]*=t,e[1]*=t,e[2]*=n,e[3]*=n,this.w=this.s=this.i=null}return this}},{key:"skewSelf",value:function(t,n){if(n%=360,(t%=360)||n){var e=this.m,r=e[0],i=e[1],u=e[2],o=e[3];t&&(t=rt(t*ut),e[2]+=r*t,e[3]+=i*t),n&&(n=rt(n*ut),e[0]+=u*n,e[1]+=o*n),this.w=this.s=this.i=null}return this}},{key:"resetSelf",value:function(){var t=arguments.length>0&&void 0!==arguments[0]?arguments[0]:1,n=arguments.length>1&&void 0!==arguments[1]?arguments[1]:0,e=arguments.length>2&&void 0!==arguments[2]?arguments[2]:0,r=arguments.length>3&&void 0!==arguments[3]?arguments[3]:1,i=arguments.length>4&&void 0!==arguments[4]?arguments[4]:0,u=arguments.length>5&&void 0!==arguments[5]?arguments[5]:0,o=this.m;return o[0]=t,o[1]=n,o[2]=e,o[3]=r,o[4]=i,o[5]=u,this.w=this.s=this.i=null,this}},{key:"recomposeSelf",value:function(){var t=arguments.length>0&&void 0!==arguments[0]?arguments[0]:null,n=arguments.length>1&&void 0!==arguments[1]?arguments[1]:null,e=arguments.length>2&&void 0!==arguments[2]?arguments[2]:null,r=arguments.length>3&&void 0!==arguments[3]?arguments[3]:null,i=arguments.length>4&&void 0!==arguments[4]?arguments[4]:null;return this.isIdentity||this.resetSelf(),t&&(t.x||t.y)&&this.translateSelf(t.x,t.y),n&&this.rotateSelf(n),e&&(e.x&&this.skewSelf(e.x,0),e.y&&this.skewSelf(0,e.y)),!r||1===r.x&&1===r.y||this.scaleSelf(r.x,r.y),i&&(i.x||i.y)&&this.translateSelf(i.x,i.y),this}},{key:"decompose",value:function(){var t=arguments.length>0&&void 0!==arguments[0]?arguments[0]:0,n=arguments.length>1&&void 0!==arguments[1]?arguments[1]:0,e=this.m,r=e[0]*e[0]+e[1]*e[1],i=[[e[0],e[1]],[e[2],e[3]]],u=at(r);if(0===u)return{origin:{x:e[4],y:e[5]},translate:{x:t,y:n},scale:{x:0,y:0},skew:{x:0,y:0},rotate:0};i[0][0]/=u,i[0][1]/=u;var o=e[0]*e[3]-e[1]*e[2]<0;o&&(u=-u);var a=i[0][0]*i[1][0]+i[0][1]*i[1][1];i[1][0]-=i[0][0]*a,i[1][1]-=i[0][1]*a;var l=at(i[1][0]*i[1][0]+i[1][1]*i[1][1]);if(0===l)return{origin:{x:e[4],y:e[5]},translate:{x:t,y:n},scale:{x:u,y:0},skew:{x:0,y:0},rotate:0};i[1][0]/=l,i[1][1]/=l,a/=l;var f=0;return i[1][1]<0?(f=nt(i[1][1])*ot,i[0][1]<0&&(f=360-f)):f=et(i[0][1])*ot,o&&(f=-f),a=it(a,at(i[0][0]*i[0][0]+i[0][1]*i[0][1]))*ot,{origin:{x:e[4],y:e[5]},translate:{x:t,y:n},scale:{x:u,y:l},skew:{x:a,y:0},rotate:f}}},{key:"toString",value:function(){return null===this.s&&(this.s="matrix("+this.m.map(st).join(" ")+")"),this.s}},{key:"determinant",get:function(){var t=this.m;return t[0]*t[3]-t[1]*t[2]}},{key:"isIdentity",get:function(){if(null===this.i){var t=this.m;this.i=1===t[0]&&0===t[1]&&0===t[2]&&1===t[3]&&0===t[4]&&0===t[5]}return this.i}}]),t}(),ft=/\.0+$/;function st(t){return Number.isInteger(t)?t:t.toFixed(14).replace(ft,"")}Object.freeze({M:2,L:2,Z:0,H:1,V:1,C:6,Q:4,T:2,S:4,A:7});function ct(t,n,e){return t+(n-t)*e}function ht(t,n,e){var r=arguments.length>3&&void 0!==arguments[3]&&arguments[3],i={x:ct(t.x,n.x,e),y:ct(t.y,n.y,e)};return r&&(i.a=vt(t,n)),i}function vt(t,n){return Math.atan2(n.y-t.y,n.x-t.x)}function dt(t,n,e,r){var i=1-r;return i*i*t+2*i*r*n+r*r*e}function yt(t,n,e,r){return 2*(1-r)*(n-t)+2*r*(e-n)}function gt(t,n,e,r){var i=arguments.length>4&&void 0!==arguments[4]&&arguments[4],u={x:dt(t.x,n.x,e.x,r),y:dt(t.y,n.y,e.y,r)};return i&&(u.a=pt(t,n,e,r)),u}function pt(t,n,e,r){return Math.atan2(yt(t.y,n.y,e.y,r),yt(t.x,n.x,e.x,r))}function mt(t,n,e,r,i){var u=i*i;return i*u*(r-t+3*(n-e))+3*u*(t+e-2*n)+3*i*(n-t)+t}function bt(t,n,e,r,i){var u=1-i;return 3*(u*u*(n-t)+2*u*i*(e-n)+i*i*(r-e))}function wt(t,n,e,r,i){var u=arguments.length>5&&void 0!==arguments[5]&&arguments[5],o={x:mt(t.x,n.x,e.x,r.x,i),y:mt(t.y,n.y,e.y,r.y,i)};return u&&(o.a=xt(t,n,e,r,i)),o}function xt(t,n,e,r,i){return Math.atan2(bt(t.y,n.y,e.y,r.y,i),bt(t.x,n.x,e.x,r.x,i))}function kt(t,n,e){var r=arguments.length>3&&void 0!==arguments[3]&&arguments[3];if(_t(n)){if(St(e))return gt(n,e.start,e,t,r)}else if(_t(e)){if(n.end)return gt(n,n.end,e,t,r)}else{if(n.end)return e.start?wt(n,n.end,e.start,e,t,r):gt(n,n.end,e,t,r);if(e.start)return gt(n,e.start,e,t,r)}return ht(n,e,t,r)}function At(t,n,e){var r=kt(t,n,e,!0);return r.a=function(t){var n=arguments.length>1&&void 0!==arguments[1]&&arguments[1];return n?t+Math.PI:t}(r.a)/p,r}function _t(t){return!t.type||"corner"===t.type}function St(t){return null!=t.start&&!_t(t)}var Mt=new lt;var Ot={f:function(t){return t?t.join(" "):""},i:function(n,e,r){if(0===n)return e;if(1===n)return r;var i=e.length;if(i!==r.length)return m(n,e,r);for(var u,o=new Array(i),a=0;a<i;a++){if((u=t(e[a]))!==t(r[a]))return m(n,e,r);if("number"===u)o[a]=b(n,e[a],r[a]);else{if(e[a]!==r[a])return m(n,e,r);o[a]=e[a]}}return o}},Et={f:null,i:M,u:function(t,n){return function(e){var r=n(e);t.setAttribute("x1",H(r[0])),t.setAttribute("y1",H(r[1])),t.setAttribute("x2",H(r[2])),t.setAttribute("y2",H(r[3]))}}},Bt={f:H,i:b},It={f:H,i:function(t,n,e){var r=b(t,n,e);return r<=0?0:r>=1?1:r}},jt={f:function(t){var n=arguments.length>1&&void 0!==arguments[1]?arguments[1]:" ";return t&&t.length>0&&(t=t.map((function(t){return Math.floor(1e4*t)/1e4}))),X(t,n)},i:function(t,n,e){var r,i,u,o=n.length,a=e.length;if(o!==a)if(0===o)n=O(o=a,0);else if(0===a)a=o,e=O(o,0);else{var l=(u=(r=o)*(i=a)/function(t,n){for(var e;n;)e=n,n=t%n,t=e;return t||1}(r,i))<0?-u:u;n=E(n,Math.floor(l/o)),e=E(e,Math.floor(l/a)),o=a=l}for(var f=[],s=0;s<o;s++)f.push(g(w(t,n[s],e[s]),6));return f}};function Pt(t,n,e,r,i,u,o,a){return n=function(t,n,e){for(var r,i,u,o=t.length-1,a={},l=0;l<=o;l++)(r=t[l]).e&&(r.e=n(r.e)),r.v&&"g"===(i=r.v).t&&i.r&&(u=e.getElementById(i.r))&&(a[i.r]=u.querySelectorAll("stop"));return a}(t,r,a),function(r){var i,u=e(r,t,Ft);return u?"c"===u.t?Q(u.v):"g"===u.t?(n[u.r]&&function(t,n){for(var e=0,r=t.length;e<r;e++)t[e].setAttribute("stop-color",Q(n[e]))}(n[u.r],u.v),(i=u.r)?"url(#"+i+")":"none"):"none":"none"}}function Ft(t,n,e){if(0===t)return n;if(1===t)return e;if(n&&e){var r=n.t;if(r===e.t)switch(n.t){case"c":return{t:r,v:_(t,n.v,e.v)};case"g":if(n.r===e.r)return{t:r,v:S(t,n.v,e.v),r:n.r}}}return m(t,n,e)}var Rt={blur:k,brightness:w,contrast:w,"drop-shadow":function(t,n,e){return 0===t?n:1===t?e:{blur:k(t,n.blur,e.blur),offset:x(t,n.offset,e.offset),color:_(t,n.color,e.color)}},grayscale:w,"hue-rotate":b,invert:w,opacity:w,saturate:w,sepia:w};function Tt(t,n,e){if(0===t)return n;if(1===t)return e;var r=n.length;if(r!==e.length)return m(t,n,e);for(var i,u=[],o=0;o<r;o++){if(n[o].type!==e[o].type)return n;if(!(i=Rt[n[o].type]))return m(t,n,e);u.push({type:n.type,value:i(t,n[o].value,e[o].value)})}return u}var qt={blur:function(t){return t?function(n){t.setAttribute("stdDeviation",$(n))}:null},brightness:function(t,n,e){return(t=Vt(e,n))?function(n){n=H(n),t.map((function(t){return t.setAttribute("slope",n)}))}:null},contrast:function(t,n,e){return(t=Vt(e,n))?function(n){var e=H((1-n)/2);n=H(n),t.map((function(t){t.setAttribute("slope",n),t.setAttribute("intercept",e)}))}:null},"drop-shadow":function(t,n,e){var r=e.getElementById(n+"-blur");if(!r)return null;var i=e.getElementById(n+"-offset");if(!i)return null;var u=e.getElementById(n+"-flood");return u?function(t){r.setAttribute("stdDeviation",$(t.blur)),i.setAttribute("dx",H(t.offset.x)),i.setAttribute("dy",H(t.offset.y)),u.setAttribute("flood-color",Q(t.color))}:null},grayscale:function(t){return t?function(n){t.setAttribute("values",X(function(t){return[.2126+.7874*(t=1-t),.7152-.7152*t,.0722-.0722*t,0,0,.2126-.2126*t,.7152+.2848*t,.0722-.0722*t,0,0,.2126-.2126*t,.7152-.7152*t,.0722+.9278*t,0,0,0,0,0,1,0]}(n)))}:null},"hue-rotate":function(t){return t?function(n){return t.setAttribute("values",H(n))}:null},invert:function(t,n,e){return(t=Vt(e,n))?function(n){n=H(n)+" "+H(1-n),t.map((function(t){return t.setAttribute("tableValues",n)}))}:null},opacity:function(t,n,e){return(t=e.getElementById(n+"-A"))?function(n){return t.setAttribute("tableValues","0 "+H(n))}:null},saturate:function(t){return t?function(n){return t.setAttribute("values",H(n))}:null},sepia:function(t){return t?function(n){return t.setAttribute("values",X(function(t){return[.393+.607*(t=1-t),.769-.769*t,.189-.189*t,0,0,.349-.349*t,.686+.314*t,.168-.168*t,0,0,.272-.272*t,.534-.534*t,.131+.869*t,0,0,0,0,0,1,0]}(n)))}:null}};var Ct=["R","G","B"];function Vt(t,n){var e=Ct.map((function(e){return t.getElementById(n+"-"+e)||null}));return-1!==e.indexOf(null)?null:e}var Nt={fill:Pt,"fill-opacity":It,stroke:Pt,"stroke-opacity":It,"stroke-width":Bt,"stroke-dashoffset":{f:H,i:b},"stroke-dasharray":jt,opacity:It,transform:function(n,e,r,i){if(!(n=function(n,e){if(!n||"object"!==t(n))return null;var r=!1;for(var i in n)n.hasOwnProperty(i)&&(n[i]&&n[i].length?(n[i].forEach((function(t){t.e&&(t.e=e(t.e))})),r=!0):delete n[i]);return r?n:null}(n,i)))return null;var u=function(t,i,u){var o=arguments.length>3&&void 0!==arguments[3]?arguments[3]:null;return n[t]?r(i,n[t],u):e&&e[t]?e[t]:o};return e&&e.a&&n.o?function(t){var e=r(t,n.o,At);return Mt.recomposeSelf(e,u("r",t,b,0)+e.a,u("k",t,x),u("s",t,x),u("t",t,x)).toString()}:function(t){return Mt.recomposeSelf(u("o",t,kt,null),u("r",t,b,0),u("k",t,x),u("s",t,x),u("t",t,x)).toString()}},"#filter":function(t,n,e,r,i,u,o,a){if(!n.items||!t||!t.length)return null;var l=function(t,n){var e=(t=t.map((function(t){return t&&qt[t[0]]?(n.getElementById(t[1]),qt[t[0]](n.getElementById(t[1]),t[1],n)):null}))).length;return function(n){for(var r=0;r<e;r++)t[r]&&t[r](n[r].value)}}(n.items,a);return l?(t=function(t,n){return t.map((function(t){return t.e=n(t.e),t}))}(t,r),function(n){l(e(n,t,Tt))}):null},"#line":Et,points:{f:X,i:M},d:Ot,r:Bt,"#size":J,"#radius":Z,_:function(t,n){if(Array.isArray(t))for(var e=0;e<t.length;e++)this[t[e]]=n;else this[t]=n}};return function(t){!function(t,n){if("function"!=typeof n&&null!==n)throw new TypeError("Super expression must either be null or a function");t.prototype=Object.create(n&&n.prototype,{constructor:{value:t,writable:!0,configurable:!0}}),n&&u(t,n)}(o,t);var e=a(o);function o(){return n(this,o),e.apply(this,arguments)}return r(o,null,[{key:"build",value:function(t){var n=l(i(o),"build",this).call(this,t,Nt),e=n.el,r=n.options,u=n.player;return function(t,n,e){if("click"===e.start){return void n.addEventListener("click",(function(){switch(e.click){case"freeze":return!t._running&&t.reachedToEnd()&&(t.offset=0),t._running?t.pause():t.play();case"restart":return t.offset>0?t.restart():t.play();case"reverse":var n=!t._rollingBack&&t._running,r=t.reachedToEnd();return n||r&&1===t.fill?(t.pause(),r&&(t.offset=t.duration-1),t._rollback()):r?t.restart():t.play();case"none":default:return!t._running&&t.offset?t.restart():t.play()}}))}if("hover"===e.start)return n.addEventListener("mouseenter",(function(){return t.reachedToEnd()?t.restart():t.play()})),void n.addEventListener("mouseleave",(function(){switch(e.hover){case"freeze":return t.pause();case"reset":return t.stop();case"reverse":return t.pause(),t._rollback();case"none":default:return}}));if("scroll"===e.start)return void new Y(n,e.scroll||25,(function(n){n?t.reachedToEnd()?t.restart():t.play():t.pause()}));t.play()}(u,e,r),u}}]),o}(U)}));
__SVGATOR_PLAYER__.build({"root":"endhmif6g4uk1","animations":[{"duration":2000,"direction":1,"iterations":0,"fill":1,"alternate":false,"elements":{"endhmif6g4uk22":{"opacity":[{"t":0,"v":0,"e":[0.39,0.575,0.565,1]},{"t":1000,"v":1,"e":[0.39,0.575,0.565,1]},{"t":2000,"v":0,"e":[0.39,0.575,0.565,1]}]},"endhmif6g4uk26":{"opacity":[{"t":0,"v":0,"e":[0.47,0,0.745,0.715]},{"t":1000,"v":1,"e":[0.47,0,0.745,0.715]},{"t":2000,"v":0,"e":[0.47,0,0.745,0.715]}]}}}],"options":{"start":"scroll","hover":"freeze","click":"freeze","scroll":25,"exportedIds":"unique","title":"Artboard 37"},"animationSettings":{"duration":2000,"direction":1,"iterations":0,"fill":1,"alternate":false}})]]></script></svg>