<svg id="e4m6p67i7qre1" xmlns="http://www.w3.org/2000/svg" xmlns:xlink="http://www.w3.org/1999/xlink" viewBox="0 0 400 200" shape-rendering="geometricPrecision" text-rendering="geometricPrecision"><defs><rect id="e4m6p67i7qre2" width="81.500000" height="36" rx="0" ry="0"/><rect id="e4m6p67i7qre3" width="81.500000" height="36" rx="0" ry="0"/><rect id="e4m6p67i7qre4" width="81.500000" height="37.500000" rx="0" ry="0"/></defs><g id="e4m6p67i7qre5" display="none" transform="matrix(2.77062063893475 0 0 1.39086093481046 -96.62750092684544 -35.60893931401930)"><rect id="e4m6p67i7qre6" width="164.200000" height="159" rx="0" ry="0" transform="matrix(1 0 0 1 23 18)" fill="rgb(127,215,245)" stroke="none" stroke-width="1"/></g><g id="e4m6p67i7qre7" display="none" transform="matrix(1 0 0 1 3.57736599999996 4.15872383000013)"><g id="e4m6p67i7qre8" transform="matrix(2.49872918492392 0 0 2.49872918492392 27.87869761532498 2.13893356535299)"><g id="e4m6p67i7qre9" clip-path="url(#e4m6p67i7qre15)"><path id="e4m6p67i7qre10" d="M45.800000,37.500000L50.900000,16.900000" transform="matrix(0.96857813301516 -0.24870946955207 0.24870946955207 0.96857813301516 -7.90157452022541 12.45073732582740)" fill="none" stroke="rgb(255,255,255)" stroke-width="1" stroke-linecap="round" stroke-miterlimit="10"/><circle id="e4m6p67i7qre11" r="3.500000" transform="matrix(1 0 0 1 45.80000190734863 37.50000000000000)" fill="rgb(255,255,255)" stroke="none" stroke-width="1"/><circle id="e4m6p67i7qre12" r="31" transform="matrix(1 0 0 1 45.80000000000000 37.50000000000000)" fill="none" stroke="rgb(33,165,236)" stroke-width="0.250000" stroke-miterlimit="10" stroke-dasharray="0"/><circle id="e4m6p67i7qre13" r="24.900000" transform="matrix(1 0 0 1 45.80000381469726 37.49999809265137)" fill="none" stroke="rgb(26,124,250)" stroke-width="1" stroke-linecap="round" stroke-miterlimit="10" stroke-dasharray="10,3,1,3"/><circle id="e4m6p67i7qre14" r="28.400000" transform="matrix(1 0 0 1 45.80000381469726 37.49999809265137)" fill="none" stroke="rgb(30,47,152)" stroke-width="2" stroke-linecap="round" stroke-miterlimit="10" stroke-dasharray="30,5"/><clipPath id="e4m6p67i7qre15"><use id="e4m6p67i7qre16" width="81.500000" height="37.500000" xlink:href="#e4m6p67i7qre4" transform="matrix(1.02342224620848 0 0 2.92838011433996 67.45478357457631 -17.40712714475728)" fill="rgb(0,0,0)" stroke="none" stroke-width="1"/></clipPath></g></g></g><g id="e4m6p67i7qre17" transform="matrix(1 0 0 1 18.00729428000000 3.34164173000023)"><g id="e4m6p67i7qre18" clip-path="url(#e4m6p67i7qre102)"><g id="e4m6p67i7qre19" transform="matrix(1 0 0 1 128.23242674135756 0.41232028183590)"><path id="e4m6p67i7qre20" d="M31,34.580000L32.610000,34.580000L35.280000,41.720000L33.660000,41.720000L33.120000,40.130000L30.450000,40.130000L29.890000,41.720000L28.300000,41.720000ZM30.860000,39L32.710000,39L31.810000,36.380000L31.810000,36.380000Z" fill="rgb(30,47,152)" stroke="none" stroke-width="1"/><path id="e4m6p67i7qre21" d="M35.800000,36.550000L37.140000,36.550000L37.140000,37.250000L37.140000,37.250000C37.489826,36.719833,38.084852,36.403490,38.720000,36.410000C39.353085,36.355283,39.954093,36.697578,40.230000,37.270000C40.572570,36.739535,41.158569,36.416484,41.790000,36.410000C42.302724,36.338214,42.819748,36.508288,43.189729,36.870439C43.559710,37.232590,43.740804,37.745858,43.680000,38.260000L43.680000,41.720000L42.280000,41.720000L42.280000,38.790000C42.280000,38.100000,42.220000,37.530000,41.410000,37.530000C40.600000,37.530000,40.460000,38.190000,40.460000,38.840000L40.460000,41.720000L39,41.720000L39,38.820000C39,38.220000,39,37.530000,38.140000,37.530000C37.860000,37.530000,37.140000,37.710000,37.140000,38.720000L37.140000,41.720000L35.800000,41.720000Z" fill="rgb(30,47,152)" stroke="none" stroke-width="1"/><path id="e4m6p67i7qre22" d="M47.330000,36.410000C48.439317,36.385614,49.453040,37.035072,49.894561,38.053030C50.336083,39.070987,50.117559,40.254912,49.341730,41.048175C48.565901,41.841439,47.387123,42.086215,46.359607,41.667421C45.332091,41.248627,44.660268,40.249585,44.660000,39.140000C44.604229,38.410874,44.865408,37.693085,45.376707,37.170296C45.888006,36.647507,46.599815,36.370444,47.330000,36.410000ZM47.330000,40.790000C48.330000,40.790000,48.590000,39.960000,48.590000,39.140000C48.590000,38.320000,48.300000,37.480000,47.330000,37.480000C46.360000,37.480000,46.080000,38.310000,46.080000,39.140000C46.080000,39.970000,46.370000,40.790000,47.330000,40.790000Z" fill="rgb(30,47,152)" stroke="none" stroke-width="1"/><path id="e4m6p67i7qre23" d="M50.930000,36.550000L52.280000,36.550000L52.280000,37.270000L52.280000,37.270000C52.621087,36.727875,53.219549,36.402130,53.860000,36.410000C55.370000,36.410000,55.750000,37.260000,55.750000,38.540000L55.750000,41.720000L54.360000,41.720000L54.360000,38.800000C54.360000,37.950000,54.110000,37.530000,53.450000,37.530000C52.790000,37.530000,52.350000,37.960000,52.350000,39.010000L52.350000,41.720000L50.930000,41.720000Z" fill="rgb(30,47,152)" stroke="none" stroke-width="1"/><path id="e4m6p67i7qre24" d="M61.830000,41.390000C61.830000,42.240000,61.530000,43.680000,59.150000,43.680000C58.150000,43.680000,56.940000,43.200000,56.870000,42.020000L58.280000,42.020000C58.416868,42.480596,58.861976,42.778735,59.340000,42.730000C60.130000,42.730000,60.490000,42.190000,60.480000,41.450000L60.480000,40.770000L60.480000,40.770000C60.142516,41.293501,59.552218,41.598171,58.930000,41.570000C57.380000,41.570000,56.720000,40.390000,56.720000,38.970000C56.650049,38.330708,56.849768,37.691195,57.271103,37.205331C57.692438,36.719467,58.297244,36.431240,58.940000,36.410000C59.571981,36.359311,60.174869,36.684245,60.480000,37.240000L60.480000,37.240000L60.480000,36.550000L61.830000,36.550000ZM60.480000,39.070000C60.480000,38.230000,60.190000,37.480000,59.270000,37.480000C58.350000,37.480000,58.120000,38.180000,58.120000,38.950000C58.120000,39.720000,58.400000,40.500000,59.270000,40.500000C59.625937,40.486044,59.959652,40.323248,60.189744,40.051322C60.419836,39.779395,60.525150,39.423338,60.480000,39.070000Z" fill="rgb(30,47,152)" stroke="none" stroke-width="1"/><path id="e4m6p67i7qre25" d="M67.850000,34.580000L69.460000,34.580000L72.130000,41.720000L70.500000,41.720000L70,40.130000L67.290000,40.130000L66.730000,41.720000L65.140000,41.720000ZM67.700000,39L69.550000,39L68.650000,36.380000L68.650000,36.380000Z" fill="rgb(30,47,152)" stroke="none" stroke-width="1"/><path id="e4m6p67i7qre26" d="M73.820000,39.350000C73.820000,40.300000,74.560000,40.670000,75.400000,40.670000C75.950000,40.670000,76.790000,40.510000,76.790000,39.780000C76.790000,39.050000,75.720000,38.880000,74.670000,38.600000C73.620000,38.320000,72.540000,37.910000,72.540000,36.600000C72.540000,35.290000,73.920000,34.440000,75.210000,34.440000C76.700000,34.440000,78.070000,35.090000,78.070000,36.740000L76.550000,36.740000C76.550000,35.880000,75.890000,35.660000,75.140000,35.660000C74.640000,35.660000,74.060000,35.870000,74.060000,36.470000C74.060000,37.070000,74.400000,37.090000,76.190000,37.550000C76.710000,37.680000,78.310000,38.010000,78.310000,39.630000C78.310000,40.940000,77.310000,41.920000,75.310000,41.920000C73.730000,41.920000,72.250000,41.140000,72.310000,39.380000Z" fill="rgb(30,47,152)" stroke="none" stroke-width="1"/><path id="e4m6p67i7qre27" d="M79.240000,34.580000L84.580000,34.580000L84.580000,35.900000L80.810000,35.900000L80.810000,37.430000L84.270000,37.430000L84.270000,38.650000L80.810000,38.650000L80.810000,40.400000L84.660000,40.400000L84.660000,41.720000L79.240000,41.720000Z" fill="rgb(30,47,152)" stroke="none" stroke-width="1"/><path id="e4m6p67i7qre28" d="M87.670000,34.580000L89.280000,34.580000L92,41.720000L90.320000,41.720000L89.780000,40.130000L87.110000,40.130000L86.550000,41.720000L85,41.720000ZM87.520000,39L89.370000,39L88.470000,36.380000L88.470000,36.380000Z" fill="rgb(30,47,152)" stroke="none" stroke-width="1"/><path id="e4m6p67i7qre29" d="M92.570000,34.580000L94.130000,34.580000L97.130000,39.370000L97.130000,39.370000L97.130000,34.580000L98.600000,34.580000L98.600000,41.720000L97,41.720000L94,36.940000L94,36.940000L94,41.720000L92.570000,41.720000Z" fill="rgb(30,47,152)" stroke="none" stroke-width="1"/><path id="e4m6p67i7qre30" d="M102.650000,36.550000L104,36.550000L104,37.250000L104,37.250000C104.349826,36.719833,104.944852,36.403490,105.580000,36.410000C106.213085,36.355283,106.814093,36.697578,107.090000,37.270000C107.432570,36.739535,108.018569,36.416484,108.650000,36.410000C109.162724,36.338214,109.679748,36.508288,110.049729,36.870439C110.419710,37.232590,110.600804,37.745858,110.540000,38.260000L110.540000,41.720000L109.120000,41.720000L109.120000,38.790000C109.120000,38.100000,109.060000,37.530000,108.250000,37.530000C107.440000,37.530000,107.250000,38.190000,107.250000,38.840000L107.250000,41.720000L105.830000,41.720000L105.830000,38.820000C105.830000,38.220000,105.830000,37.530000,104.970000,37.530000C104.690000,37.530000,103.970000,37.710000,103.970000,38.720000L103.970000,41.720000L102.550000,41.720000Z" fill="rgb(30,47,152)" stroke="none" stroke-width="1"/><path id="e4m6p67i7qre31" d="M111.610000,38.140000C111.690000,36.810000,112.880000,36.410000,114.040000,36.410000C115.200000,36.410000,116.310000,36.640000,116.310000,37.880000L116.310000,40.570000C116.284029,40.961936,116.345512,41.354744,116.490000,41.720000L115.050000,41.720000C114.996577,41.557989,114.962998,41.390096,114.950000,41.220000C114.480965,41.660751,113.852842,41.891785,113.210000,41.860000C112.210000,41.860000,111.450000,41.370000,111.450000,40.310000C111.450000,39.250000,112.330000,38.860000,113.210000,38.740000C114.090000,38.620000,114.890000,38.640000,114.890000,38.060000C114.890000,37.480000,114.470000,37.360000,113.970000,37.360000C113.470000,37.360000,113.080000,37.580000,113.030000,38.140000ZM114.890000,39.140000C114.523204,39.324731,114.120486,39.427117,113.710000,39.440000C113.270000,39.530000,112.870000,39.680000,112.870000,40.200000C112.870000,40.720000,113.280000,40.860000,113.740000,40.860000C114.060456,40.889932,114.377154,40.772646,114.600814,40.541207C114.824474,40.309768,114.930867,39.989246,114.890000,39.670000Z" fill="rgb(30,47,152)" stroke="none" stroke-width="1"/><path id="e4m6p67i7qre32" d="M117.410000,36.550000L118.760000,36.550000L118.760000,37.270000L118.760000,37.270000C119.101087,36.727875,119.699549,36.402130,120.340000,36.410000C121.850000,36.410000,122.230000,37.260000,122.230000,38.540000L122.230000,41.720000L120.810000,41.720000L120.810000,38.800000C120.810000,37.950000,120.560000,37.530000,119.900000,37.530000C119.240000,37.530000,118.800000,37.960000,118.800000,39.010000L118.800000,41.720000L117.380000,41.720000Z" fill="rgb(30,47,152)" stroke="none" stroke-width="1"/><path id="e4m6p67i7qre33" d="M128.190000,41.720000L126.840000,41.720000L126.840000,41L126.840000,41C126.498913,41.542125,125.900451,41.867870,125.260000,41.860000C123.750000,41.860000,123.370000,41.010000,123.370000,39.730000L123.370000,36.550000L124.790000,36.550000L124.790000,39.470000C124.790000,40.320000,125.040000,40.740000,125.700000,40.740000C126.360000,40.740000,126.800000,40.310000,126.800000,39.260000L126.800000,36.550000L128.220000,36.550000Z" fill="rgb(30,47,152)" stroke="none" stroke-width="1"/><path id="e4m6p67i7qre34" d="M129.580000,37.500000L128.730000,37.500000L128.730000,36.500000L129.580000,36.500000L129.580000,36.100000C129.560768,35.649086,129.742914,35.212944,130.077129,34.909639C130.411344,34.606334,130.863061,34.467236,131.310000,34.530000C131.560000,34.530000,131.820000,34.530000,132.060000,34.530000L132.060000,35.590000C131.886818,35.579772,131.713182,35.579772,131.540000,35.590000C131.160000,35.590000,131,35.750000,131,36.180000L131,36.490000L132,36.490000L132,37.490000L131,37.490000L131,41.710000L129.580000,41.710000Z" fill="rgb(30,47,152)" stroke="none" stroke-width="1"/><path id="e4m6p67i7qre35" d="M132.540000,38.140000C132.620000,36.810000,133.810000,36.410000,134.970000,36.410000C136.130000,36.410000,137.240000,36.640000,137.240000,37.880000L137.240000,40.570000C137.214029,40.961936,137.275512,41.354744,137.420000,41.720000L136,41.720000C135.946577,41.557989,135.912998,41.390096,135.900000,41.220000C135.430965,41.660751,134.802842,41.891785,134.160000,41.860000C133.160000,41.860000,132.400000,41.370000,132.400000,40.310000C132.400000,39.250000,133.280000,38.860000,134.160000,38.740000C135.040000,38.620000,135.840000,38.640000,135.840000,38.060000C135.840000,37.480000,135.420000,37.360000,134.920000,37.360000C134.420000,37.360000,134.030000,37.580000,133.980000,38.140000ZM135.820000,39.140000C135.453204,39.324731,135.050486,39.427117,134.640000,39.440000C134.200000,39.530000,133.800000,39.680000,133.800000,40.200000C133.800000,40.720000,134.210000,40.860000,134.670000,40.860000C134.990456,40.889932,135.307154,40.772646,135.530814,40.541207C135.754474,40.309768,135.860867,39.989246,135.820000,39.670000Z" fill="rgb(30,47,152)" stroke="none" stroke-width="1"/><path id="e4m6p67i7qre36" d="M141.860000,38.370000C141.802333,37.841331,141.340974,37.450274,140.810000,37.480000C139.900000,37.480000,139.600000,38.400000,139.600000,39.160000C139.600000,39.920000,139.890000,40.790000,140.780000,40.790000C141.363804,40.813398,141.862226,40.372316,141.910000,39.790000L143.280000,39.790000C143.231558,40.401571,142.941831,40.968753,142.474715,41.366458C142.007600,41.764163,141.401468,41.959720,140.790000,41.910000C140.082136,41.939363,139.394830,41.668208,138.897688,41.163447C138.400546,40.658686,138.139875,39.967335,138.180000,39.260000C138.110444,38.526370,138.360406,37.798349,138.865942,37.262174C139.371478,36.725999,140.083551,36.433681,140.820000,36.460000C141.408863,36.395928,141.998683,36.572020,142.456036,36.948442C142.913388,37.324864,143.199627,37.869808,143.250000,38.460000Z" fill="rgb(30,47,152)" stroke="none" stroke-width="1"/><path id="e4m6p67i7qre37" d="M145.880000,36.550000L146.880000,36.550000L146.880000,37.550000L145.880000,37.550000L145.880000,40.110000C145.880000,40.590000,146,40.710000,146.480000,40.710000C146.626291,40.724839,146.773709,40.724839,146.920000,40.710000L146.920000,41.820000C146.645010,41.857779,146.367536,41.874494,146.090000,41.870000C145.220000,41.870000,144.460000,41.670000,144.460000,40.640000L144.460000,37.640000L143.600000,37.640000L143.600000,36.640000L144.460000,36.640000L144.460000,35L145.880000,35Z" fill="rgb(30,47,152)" stroke="none" stroke-width="1"/><path id="e4m6p67i7qre38" d="M152.450000,41.720000L151.100000,41.720000L151.100000,41L151.100000,41C150.758913,41.542125,150.160451,41.867870,149.520000,41.860000C148.010000,41.860000,147.630000,41.010000,147.630000,39.730000L147.630000,36.550000L149,36.550000L149,39.470000C149,40.320000,149.250000,40.740000,149.910000,40.740000C150.570000,40.740000,151.010000,40.310000,151.010000,39.260000L151.010000,36.550000L152.430000,36.550000Z" fill="rgb(30,47,152)" stroke="none" stroke-width="1"/><path id="e4m6p67i7qre39" d="M153.530000,36.550000L154.880000,36.550000L154.880000,37.550000L154.880000,37.550000C155.166451,36.891284,155.811781,36.461064,156.530000,36.450000C156.635243,36.451184,156.739722,36.468036,156.840000,36.500000L156.840000,37.820000C156.672071,37.786515,156.501235,37.769767,156.330000,37.770000C155.330000,37.770000,154.930000,38.520000,154.930000,39.430000L154.930000,41.760000L153.510000,41.760000Z" fill="rgb(30,47,152)" stroke="none" stroke-width="1"/><path id="e4m6p67i7qre40" d="M158.410000,39.480000C158.410000,40.380000,158.890000,40.790000,159.680000,40.790000C160.154787,40.814974,160.597475,40.550152,160.800000,40.120000L162.050000,40.120000C161.768318,41.207580,160.750665,41.939281,159.630000,41.860000C158.907550,41.890672,158.206502,41.610751,157.703865,41.090913C157.201228,40.571076,156.945045,39.861009,157,39.140000C156.960890,38.420397,157.223368,37.717036,157.724344,37.198981C158.225320,36.680926,158.919490,36.395026,159.640000,36.410000C161.400000,36.410000,162.250000,37.890000,162.150000,39.480000ZM160.720000,38.580000C160.590000,37.860000,160.280000,37.480000,159.590000,37.480000C159.286148,37.463658,158.988726,37.571651,158.766148,37.779140C158.543569,37.986629,158.414995,38.275750,158.410000,38.580000Z" fill="rgb(30,47,152)" stroke="none" stroke-width="1"/><path id="e4m6p67i7qre41" d="M163,36.550000L164.350000,36.550000L164.350000,37.550000L164.350000,37.550000C164.636451,36.891284,165.281781,36.461064,166,36.450000C166.105243,36.451184,166.209722,36.468036,166.310000,36.500000L166.310000,37.820000C166.142071,37.786515,165.971235,37.769767,165.800000,37.770000C164.800000,37.770000,164.400000,38.520000,164.400000,39.430000L164.400000,41.760000L163,41.760000Z" fill="rgb(30,47,152)" stroke="none" stroke-width="1"/><path id="e4m6p67i7qre42" d="M168,40C168,40.620000,168.530000,40.870000,169.090000,40.870000C169.500000,40.870000,170.020000,40.710000,170.020000,40.210000C170.020000,39.710000,169.430000,39.630000,168.410000,39.410000C167.590000,39.230000,166.770000,38.940000,166.770000,38.030000C166.770000,36.710000,167.910000,36.370000,169.020000,36.370000C170.130000,36.370000,171.190000,36.750000,171.300000,38.020000L169.950000,38.020000C169.950000,37.470000,169.490000,37.320000,168.950000,37.320000C168.630000,37.320000,168.160000,37.380000,168.160000,37.800000C168.160000,38.220000,168.960000,38.380000,169.770000,38.570000C170.580000,38.760000,171.410000,39.060000,171.410000,40.020000C171.410000,41.380000,170.230000,41.820000,169.050000,41.820000C167.870000,41.820000,166.680000,41.370000,166.620000,40Z" fill="rgb(30,47,152)" stroke="none" stroke-width="1"/><path id="e4m6p67i7qre43" d="M33.940000,122.920000C34.050000,121.060000,35.720000,120.500000,37.350000,120.500000C38.790000,120.500000,40.530000,120.820000,40.530000,122.560000L40.530000,126.320000C40.493673,126.868532,40.579043,127.418313,40.780000,127.930000L38.780000,127.930000C38.707533,127.702577,38.660578,127.467801,38.640000,127.230000C37.983524,127.850339,37.102061,128.175469,36.200000,128.130000C34.830000,128.130000,33.740000,127.440000,33.740000,125.960000C33.740000,124.320000,34.970000,123.960000,36.200000,123.760000C37.430000,123.560000,38.560000,123.620000,38.560000,122.760000C38.560000,121.900000,37.970000,121.760000,37.270000,121.760000C36.570000,121.760000,36.020000,122.070000,35.950000,122.850000ZM38.540000,124.390000C38.023470,124.648182,37.457163,124.791464,36.880000,124.810000C36.270000,124.940000,35.710000,125.150000,35.710000,125.880000C35.710000,126.610000,36.280000,126.800000,36.930000,126.800000C37.379825,126.843717,37.824971,126.679507,38.138645,126.354143C38.452319,126.028779,38.600139,125.577925,38.540000,125.130000Z" fill="rgb(30,47,152)" stroke="none" stroke-width="1"/><path id="e4m6p67i7qre44" d="M42.060000,120.690000L44,120.690000L44,122L44,122C44.402643,121.079147,45.305119,120.477496,46.310000,120.460000C46.459588,120.458038,46.608406,120.481714,46.750000,120.530000L46.750000,122.380000C46.513417,122.329527,46.271874,122.306044,46.030000,122.310000C44.580000,122.310000,44.030000,123.360000,44.030000,124.630000L44.030000,127.890000L42.030000,127.890000Z" fill="rgb(30,47,152)" stroke="none" stroke-width="1"/><path id="e4m6p67i7qre45" d="M48.900000,124.800000C48.950000,126.060000,49.570000,126.630000,50.670000,126.630000C51.336437,126.667689,51.958503,126.295242,52.240000,125.690000L54,125.690000C53.607829,127.215483,52.181070,128.242413,50.610000,128.130000C49.595716,128.179323,48.609319,127.789452,47.902844,127.060002C47.196369,126.330552,46.838253,125.332187,46.920000,124.320000C46.867125,123.314275,47.234450,122.331786,47.934155,121.607430C48.633860,120.883074,49.603047,120.481964,50.610000,120.500000C53.080000,120.500000,54.270000,122.570000,54.130000,124.800000ZM52.130000,123.540000C51.950000,122.540000,51.520000,122,50.550000,122C50.124354,121.975376,49.707177,122.126038,49.395487,122.416950C49.083796,122.707861,48.904754,123.113669,48.900000,123.540000Z" fill="rgb(30,47,152)" stroke="none" stroke-width="1"/><path id="e4m6p67i7qre46" d="M59.240000,117.930000L61.240000,117.930000L61.240000,127.930000L59.240000,127.930000Z" fill="rgb(30,47,152)" stroke="none" stroke-width="1"/><path id="e4m6p67i7qre47" d="M66.310000,120.500000C67.861913,120.467492,69.279187,121.377312,69.895739,122.801865C70.512292,124.226419,70.205511,125.882415,69.119579,126.991577C68.033646,128.100738,66.384512,128.442493,64.947230,127.856225C63.509948,127.269957,62.570340,125.872253,62.570000,124.320000C62.490448,123.298682,62.855967,122.292787,63.572629,121.560794C64.289292,120.828802,65.287228,120.442079,66.310000,120.500000ZM66.310000,126.630000C67.670000,126.630000,68.080000,125.470000,68.080000,124.320000C68.080000,123.170000,67.670000,122,66.310000,122C64.950000,122,64.560000,123.160000,64.560000,124.320000C64.560000,125.480000,65,126.630000,66.310000,126.630000Z" fill="rgb(30,47,152)" stroke="none" stroke-width="1"/><path id="e4m6p67i7qre48" d="M74.870000,120.500000C76.421913,120.467492,77.839187,121.377312,78.455739,122.801865C79.072292,124.226419,78.765511,125.882415,77.679579,126.991577C76.593646,128.100738,74.944512,128.442493,73.507230,127.856225C72.069948,127.269957,71.130340,125.872253,71.130000,124.320000C71.050448,123.298682,71.415967,122.292787,72.132629,121.560794C72.849292,120.828802,73.847228,120.442079,74.870000,120.500000ZM74.870000,126.630000C76.230000,126.630000,76.630000,125.470000,76.630000,124.320000C76.630000,123.170000,76.230000,122,74.870000,122C73.510000,122,73.120000,123.160000,73.120000,124.320000C73.120000,125.480000,73.520000,126.630000,74.870000,126.630000Z" fill="rgb(30,47,152)" stroke="none" stroke-width="1"/><path id="e4m6p67i7qre49" d="M80.090000,117.930000L82.090000,117.930000L82.090000,123.300000L84.590000,120.690000L86.950000,120.690000L84.210000,123.350000L87.210000,127.930000L84.830000,127.930000L82.830000,124.700000L82.060000,125.440000L82.060000,127.930000L80.060000,127.930000Z" fill="rgb(30,47,152)" stroke="none" stroke-width="1"/><path id="e4m6p67i7qre50" d="M90,119.570000L88,119.570000L88,117.930000L90,117.930000ZM88,120.690000L90,120.690000L90,127.930000L88,127.930000Z" fill="rgb(30,47,152)" stroke="none" stroke-width="1"/><path id="e4m6p67i7qre51" d="M91.550000,120.690000L93.440000,120.690000L93.440000,121.690000L93.440000,121.690000C93.917287,120.932285,94.754577,120.477648,95.650000,120.490000C97.760000,120.490000,98.300000,121.680000,98.300000,123.490000L98.300000,127.940000L96.300000,127.940000L96.300000,123.850000C96.300000,122.660000,95.950000,122.080000,95.020000,122.080000C94.090000,122.080000,93.480000,122.680000,93.480000,124.150000L93.480000,127.940000L91.480000,127.940000Z" fill="rgb(30,47,152)" stroke="none" stroke-width="1"/><path id="e4m6p67i7qre52" d="M106.820000,127.470000C106.820000,128.660000,106.400000,130.680000,103.060000,130.680000C101.630000,130.680000,99.970000,130.010000,99.870000,128.350000L101.870000,128.350000C102.041205,129.012957,102.681605,129.442756,103.360000,129.350000C103.824297,129.371337,104.273394,129.181838,104.582061,128.834345C104.890728,128.486852,105.025942,128.018541,104.950000,127.560000L104.950000,126.560000L104.950000,126.560000C104.477522,127.292902,103.651105,127.719439,102.780000,127.680000C100.600000,127.680000,99.680000,126.030000,99.680000,124.040000C99.680000,122.050000,100.760000,120.460000,102.790000,120.460000C103.675399,120.388581,104.520530,120.842448,104.950000,121.620000L104.950000,121.620000L104.950000,120.620000L106.850000,120.620000ZM104.920000,124.220000C104.920000,123.050000,104.520000,122,103.230000,122C102.110000,122,101.620000,123,101.620000,124C101.620000,125,102.010000,126.180000,103.230000,126.180000C103.718128,126.154965,104.174788,125.931415,104.493963,125.561248C104.813137,125.191082,104.967061,124.706498,104.920000,124.220000Z" fill="rgb(30,47,152)" stroke="none" stroke-width="1"/><path id="e4m6p67i7qre53" d="M112.730000,122L111.540000,122L111.540000,120.670000L112.730000,120.670000L112.730000,120.110000C112.702778,119.476989,112.958781,118.864717,113.428477,118.439477C113.898174,118.014237,114.532803,117.820176,115.160000,117.910000C115.510000,117.910000,115.870000,117.910000,116.160000,117.970000L116.160000,119.450000C115.920000,119.450000,115.680000,119.450000,115.430000,119.450000C114.900000,119.450000,114.670000,119.680000,114.670000,120.280000L114.670000,120.710000L116.050000,120.710000L116.050000,122L114.670000,122L114.670000,127.910000L112.670000,127.910000Z" fill="rgb(30,47,152)" stroke="none" stroke-width="1"/><path id="e4m6p67i7qre54" d="M120.480000,120.500000C122.031913,120.467492,123.449187,121.377312,124.065739,122.801865C124.682292,124.226419,124.375511,125.882415,123.289579,126.991577C122.203646,128.100738,120.554512,128.442493,119.117230,127.856225C117.679948,127.269957,116.740340,125.872253,116.740000,124.320000C116.660448,123.298682,117.025967,122.292787,117.742629,121.560794C118.459292,120.828802,119.457228,120.442079,120.480000,120.500000ZM120.480000,126.630000C121.840000,126.630000,122.240000,125.470000,122.240000,124.320000C122.240000,123.170000,121.840000,122,120.480000,122C119.120000,122,118.730000,123.160000,118.730000,124.320000C118.730000,125.480000,119.130000,126.630000,120.480000,126.630000Z" fill="rgb(30,47,152)" stroke="none" stroke-width="1"/><path id="e4m6p67i7qre55" d="M125.520000,120.690000L127.410000,120.690000L127.410000,122L127.410000,122C127.816148,121.077577,128.722250,120.476113,129.730000,120.460000C129.876326,120.457983,130.021869,120.481676,130.160000,120.530000L130.160000,122.380000C129.926802,122.329508,129.688568,122.306020,129.450000,122.310000C127.990000,122.310000,127.450000,123.360000,127.450000,124.630000L127.450000,127.890000L125.450000,127.890000Z" fill="rgb(30,47,152)" stroke="none" stroke-width="1"/><path id="e4m6p67i7qre56" d="M140,127L140,127C139.528067,127.749100,138.683390,128.179117,137.800000,128.120000C135.620000,128.120000,134.550000,126.240000,134.550000,124.240000C134.550000,122.240000,135.630000,120.490000,137.760000,120.490000C138.614581,120.456889,139.426359,120.864666,139.910000,121.570000L139.910000,121.570000L139.910000,117.920000L141.910000,117.920000L141.910000,127.920000L140,127.920000ZM138.270000,122C136.960000,122,136.520000,123.120000,136.520000,124.310000C136.520000,125.500000,137.030000,126.630000,138.270000,126.630000C139.510000,126.630000,139.970000,125.480000,139.970000,124.290000C139.970000,123.100000,139.570000,122,138.290000,122Z" fill="rgb(30,47,152)" stroke="none" stroke-width="1"/><path id="e4m6p67i7qre57" d="M143.320000,122.920000C143.440000,121.060000,145.100000,120.500000,146.730000,120.500000C148.170000,120.500000,149.910000,120.820000,149.910000,122.560000L149.910000,126.320000C149.873673,126.868532,149.959043,127.418313,150.160000,127.930000L148.160000,127.930000C148.087533,127.702577,148.040578,127.467801,148.020000,127.230000C147.363524,127.850339,146.482061,128.175469,145.580000,128.130000C144.210000,128.130000,143.120000,127.440000,143.120000,125.960000C143.120000,124.320000,144.350000,123.960000,145.580000,123.760000C146.810000,123.560000,147.940000,123.620000,147.940000,122.760000C147.940000,121.900000,147.350000,121.760000,146.650000,121.760000C145.950000,121.760000,145.400000,122.070000,145.330000,122.850000ZM147.920000,124.390000C147.403470,124.648182,146.837163,124.791464,146.260000,124.810000C145.650000,124.940000,145.090000,125.150000,145.090000,125.880000C145.090000,126.610000,145.660000,126.800000,146.310000,126.800000C146.759825,126.843717,147.204971,126.679507,147.518645,126.354143C147.832319,126.028779,147.980139,125.577925,147.920000,125.130000Z" fill="rgb(30,47,152)" stroke="none" stroke-width="1"/><path id="e4m6p67i7qre58" d="M154,120.690000L155.460000,120.690000L155.460000,122L154,122L154,125.590000C154,126.260000,154.170000,126.430000,154.840000,126.430000C155.048321,126.434821,155.256469,126.414678,155.460000,126.370000L155.460000,128C155.075380,128.049738,154.687810,128.073126,154.300000,128.070000C153.080000,128.070000,152.020000,127.790000,152.020000,126.350000L152.020000,122L150.810000,122L150.810000,120.670000L152,120.670000L152,118.500000L154,118.500000Z" fill="rgb(30,47,152)" stroke="none" stroke-width="1"/><path id="e4m6p67i7qre59" d="M156.290000,122.920000C156.400000,121.060000,158.070000,120.500000,159.690000,120.500000C161.130000,120.500000,162.870000,120.820000,162.870000,122.560000L162.870000,126.320000C162.833673,126.868532,162.919043,127.418313,163.120000,127.930000L161.120000,127.930000C161.042784,127.703830,160.995712,127.468471,160.980000,127.230000C160.322280,127.848330,159.441702,128.173133,158.540000,128.130000C157.170000,128.130000,156.070000,127.440000,156.070000,125.960000C156.070000,124.320000,157.310000,123.960000,158.540000,123.760000C159.770000,123.560000,160.890000,123.620000,160.890000,122.760000C160.890000,121.900000,160.300000,121.760000,159.600000,121.760000C158.900000,121.760000,158.360000,122.070000,158.290000,122.850000ZM160.880000,124.390000C160.367299,124.648889,159.804083,124.792253,159.230000,124.810000C158.610000,124.940000,158.050000,125.150000,158.050000,125.880000C158.050000,126.610000,158.630000,126.800000,159.270000,126.800000C159.720822,126.847744,160.168454,126.684808,160.483099,126.358437C160.797744,126.032066,160.944200,125.578774,160.880000,125.130000Z" fill="rgb(30,47,152)" stroke="none" stroke-width="1"/><path id="e4m6p67i7qre60" d="M16.900000,139.580000C16.900000,140.450000,17.640000,140.800000,18.430000,140.800000C19,140.800000,19.730000,140.580000,19.730000,139.880000C19.730000,139.180000,18.900000,139.060000,17.470000,138.750000C16.330000,138.500000,15.180000,138.100000,15.180000,136.820000C15.180000,134.970000,16.770000,134.500000,18.330000,134.500000C19.890000,134.500000,21.330000,135.030000,21.520000,136.810000L19.630000,136.810000C19.570000,136.040000,18.990000,135.810000,18.270000,135.810000C17.820000,135.810000,17.170000,135.890000,17.170000,136.480000C17.170000,137.070000,18.290000,137.290000,19.420000,137.560000C20.550000,137.830000,21.720000,138.240000,21.720000,139.560000C21.720000,141.460000,20.060000,142.080000,18.410000,142.080000C16.760000,142.080000,15.090000,141.450000,15.010000,139.530000Z" fill="rgb(30,47,152)" stroke="none" stroke-width="1"/><path id="e4m6p67i7qre61" d="M26.390000,134.500000C28.421128,134.604024,30.014616,136.281210,30.014616,138.315000C30.014616,140.348790,28.421128,142.025976,26.390000,142.130000C24.358872,142.025976,22.765384,140.348790,22.765384,138.315000C22.765384,136.281210,24.358872,134.604024,26.390000,134.500000ZM26.390000,140.630000C27.750000,140.630000,28.160000,139.470000,28.160000,138.320000C28.160000,137.170000,27.750000,136,26.390000,136C25.030000,136,24.640000,137.160000,24.640000,138.320000C24.640000,139.480000,25.050000,140.630000,26.390000,140.630000Z" fill="rgb(30,47,152)" stroke="none" stroke-width="1"/><path id="e4m6p67i7qre62" d="M31.490000,131.930000L33.490000,131.930000L33.490000,141.930000L31.490000,141.930000Z" fill="rgb(30,47,152)" stroke="none" stroke-width="1"/><path id="e4m6p67i7qre63" d="M41.840000,141.930000L39.940000,141.930000L39.940000,140.930000L39.940000,140.930000C39.462713,141.687715,38.625423,142.142352,37.730000,142.130000C35.610000,142.130000,35.080000,140.940000,35.080000,139.130000L35.080000,134.670000L37.080000,134.670000L37.080000,138.760000C37.080000,139.950000,37.430000,140.540000,38.360000,140.540000C39.290000,140.540000,39.900000,139.940000,39.900000,138.470000L39.900000,134.670000L41.900000,134.670000Z" fill="rgb(30,47,152)" stroke="none" stroke-width="1"/><path id="e4m6p67i7qre64" d="M45.870000,134.690000L47.320000,134.690000L47.320000,136L45.870000,136L45.870000,139.590000C45.870000,140.260000,46.030000,140.430000,46.710000,140.430000C46.915014,140.434796,47.119850,140.414648,47.320000,140.370000L47.320000,142C46.935410,142.050053,46.547818,142.073442,46.160000,142.070000C44.940000,142.070000,43.880000,141.790000,43.880000,140.350000L43.880000,136L42.670000,136L42.670000,134.670000L43.880000,134.670000L43.880000,132.500000L45.880000,132.500000Z" fill="rgb(30,47,152)" stroke="none" stroke-width="1"/><path id="e4m6p67i7qre65" d="M50.320000,133.570000L48.320000,133.570000L48.320000,131.930000L50.320000,131.930000ZM48.320000,134.690000L50.320000,134.690000L50.320000,141.930000L48.320000,141.930000Z" fill="rgb(30,47,152)" stroke="none" stroke-width="1"/><path id="e4m6p67i7qre66" d="M55.400000,134.500000C56.951913,134.467492,58.369187,135.377312,58.985739,136.801865C59.602292,138.226419,59.295511,139.882415,58.209579,140.991577C57.123646,142.100738,55.474512,142.442493,54.037230,141.856225C52.599948,141.269957,51.660340,139.872253,51.660000,138.320000C51.580448,137.298682,51.945967,136.292787,52.662629,135.560794C53.379292,134.828802,54.377228,134.442079,55.400000,134.500000ZM55.400000,140.630000C56.760000,140.630000,57.160000,139.470000,57.160000,138.320000C57.160000,137.170000,56.760000,136,55.400000,136C54.040000,136,53.650000,137.160000,53.650000,138.320000C53.650000,139.480000,54.060000,140.630000,55.400000,140.630000Z" fill="rgb(30,47,152)" stroke="none" stroke-width="1"/><path id="e4m6p67i7qre67" d="M60.440000,134.690000L62.330000,134.690000L62.330000,135.690000L62.330000,135.690000C62.810020,134.935207,63.645539,134.481532,64.540000,134.490000C66.660000,134.490000,67.190000,135.680000,67.190000,137.490000L67.190000,141.940000L65.190000,141.940000L65.190000,137.850000C65.190000,136.660000,64.840000,136.080000,63.920000,136.080000C62.840000,136.080000,62.380000,136.680000,62.380000,138.150000L62.380000,141.940000L60.380000,141.940000Z" fill="rgb(30,47,152)" stroke="none" stroke-width="1"/><path id="e4m6p67i7qre68" d="M70.280000,139.580000C70.280000,140.450000,71.020000,140.800000,71.810000,140.800000C72.380000,140.800000,73.110000,140.580000,73.110000,139.880000C73.110000,139.180000,72.280000,139.060000,70.850000,138.750000C69.710000,138.500000,68.560000,138.100000,68.560000,136.820000C68.560000,134.970000,70.150000,134.500000,71.710000,134.500000C73.270000,134.500000,74.710000,135.030000,74.900000,136.810000L73,136.810000C72.950000,136.040000,72.360000,135.810000,71.640000,135.810000C71.190000,135.810000,70.540000,135.890000,70.540000,136.480000C70.540000,137.070000,71.660000,137.290000,72.790000,137.560000C73.920000,137.830000,75.090000,138.240000,75.090000,139.560000C75.090000,141.460000,73.440000,142.080000,71.780000,142.080000C70.120000,142.080000,68.460000,141.450000,68.380000,139.530000Z" fill="rgb(30,47,152)" stroke="none" stroke-width="1"/><path id="e4m6p67i7qre69" d="M81.690000,139.580000C81.690000,140.450000,82.430000,140.800000,83.220000,140.800000C83.790000,140.800000,84.520000,140.580000,84.520000,139.880000C84.520000,139.180000,83.690000,139.060000,82.260000,138.750000C81.120000,138.500000,79.970000,138.100000,79.970000,136.820000C79.970000,134.970000,81.560000,134.500000,83.120000,134.500000C84.680000,134.500000,86.120000,135.030000,86.310000,136.810000L84.420000,136.810000C84.420000,136.040000,83.780000,135.810000,83.060000,135.810000C82.610000,135.810000,81.960000,135.890000,81.960000,136.480000C81.960000,137.070000,83.080000,137.290000,84.210000,137.560000C85.340000,137.830000,86.510000,138.240000,86.510000,139.560000C86.510000,141.460000,84.860000,142.080000,83.200000,142.080000C81.540000,142.080000,79.880000,141.450000,79.800000,139.530000Z" fill="rgb(30,47,152)" stroke="none" stroke-width="1"/><path id="e4m6p67i7qre70" d="M94.460000,141.930000L92.570000,141.930000L92.570000,140.930000L92.570000,140.930000C92.086743,141.686383,91.247526,142.140014,90.350000,142.130000C88.240000,142.130000,87.710000,140.940000,87.710000,139.130000L87.710000,134.670000L89.710000,134.670000L89.710000,138.760000C89.710000,139.950000,90.060000,140.540000,90.980000,140.540000C92.060000,140.540000,92.520000,139.940000,92.520000,138.470000L92.520000,134.670000L94.520000,134.670000Z" fill="rgb(30,47,152)" stroke="none" stroke-width="1"/><path id="e4m6p67i7qre71" d="M100.900000,137.240000C100.836419,136.491690,100.178323,135.936561,99.430000,136C98.150000,136,97.730000,137.280000,97.730000,138.350000C97.730000,139.420000,98.140000,140.630000,99.390000,140.630000C100.231400,140.658141,100.937456,140.001241,100.970000,139.160000L102.890000,139.160000C102.831370,140.023093,102.428972,140.826597,101.772949,141.390514C101.116926,141.954430,100.262112,142.231624,99.400000,142.160000C98.408503,142.200961,97.445776,141.821509,96.748861,141.115073C96.051945,140.408636,95.685590,139.440850,95.740000,138.450000C95.641157,137.421886,95.991168,136.401179,96.700125,135.650067C97.409083,134.898956,98.407896,134.490639,99.440000,134.530000C101.150000,134.530000,102.720000,135.420000,102.850000,137.270000Z" fill="rgb(30,47,152)" stroke="none" stroke-width="1"/><path id="e4m6p67i7qre72" d="M104,131.930000L106,131.930000L106,135.700000L106,135.700000C106.452998,134.966687,107.248172,134.514455,108.110000,134.500000C110.230000,134.500000,110.760000,135.690000,110.760000,137.500000L110.760000,141.950000L108.760000,141.950000L108.760000,137.860000C108.760000,136.670000,108.410000,136.090000,107.490000,136.090000C106.410000,136.090000,105.940000,136.690000,105.940000,138.160000L105.940000,141.950000L103.940000,141.950000Z" fill="rgb(30,47,152)" stroke="none" stroke-width="1"/><path id="e4m6p67i7qre73" d="M116.120000,136.920000C116.230000,135.060000,117.890000,134.500000,119.520000,134.500000C120.960000,134.500000,122.700000,134.820000,122.700000,136.560000L122.700000,140.320000C122.663673,140.868532,122.749043,141.418313,122.950000,141.930000L120.950000,141.930000C120.877533,141.702577,120.830578,141.467801,120.810000,141.230000C120.156596,141.848779,119.278832,142.173877,118.380000,142.130000C117,142.130000,115.910000,141.440000,115.910000,139.960000C115.910000,138.320000,117.140000,137.960000,118.380000,137.760000C119.620000,137.560000,120.730000,137.620000,120.730000,136.810000C120.730000,136,120.140000,135.810000,119.440000,135.810000C118.740000,135.810000,118.190000,136.120000,118.120000,136.900000ZM120.710000,138.390000C120.196514,138.646789,119.633768,138.790034,119.060000,138.810000C118.440000,138.940000,117.880000,139.150000,117.880000,139.880000C117.880000,140.610000,118.450000,140.800000,119.100000,140.800000C119.549825,140.843717,119.994971,140.679507,120.308645,140.354143C120.622319,140.028779,120.770139,139.577925,120.710000,139.130000Z" fill="rgb(30,47,152)" stroke="none" stroke-width="1"/><path id="e4m6p67i7qre74" d="M125.780000,139.580000C125.780000,140.450000,126.520000,140.800000,127.300000,140.800000C127.880000,140.800000,128.610000,140.580000,128.610000,139.880000C128.610000,139.180000,127.780000,139.060000,126.350000,138.750000C125.200000,138.500000,124.050000,138.100000,124.050000,136.820000C124.050000,134.970000,125.650000,134.500000,127.200000,134.500000C128.750000,134.500000,130.200000,135.030000,130.400000,136.810000L128.510000,136.810000C128.450000,136.040000,127.860000,135.810000,127.150000,135.810000C126.700000,135.810000,126.040000,135.890000,126.040000,136.480000C126.040000,137.070000,127.160000,137.290000,128.300000,137.560000C129.440000,137.830000,130.590000,138.240000,130.590000,139.560000C130.590000,141.460000,128.940000,142.080000,127.290000,142.080000C125.640000,142.080000,123.970000,141.450000,123.880000,139.530000Z" fill="rgb(30,47,152)" stroke="none" stroke-width="1"/><path id="e4m6p67i7qre75" d="M135.640000,134.690000L137.540000,134.690000L137.540000,136L137.540000,136C137.946148,135.077577,138.852250,134.476113,139.860000,134.460000C140.006265,134.458786,140.151672,134.482457,140.290000,134.530000L140.290000,136.380000C140.053498,136.329007,139.811895,136.305517,139.570000,136.310000C138.120000,136.310000,137.570000,137.360000,137.570000,138.630000L137.570000,141.890000L135.570000,141.890000Z" fill="rgb(30,47,152)" stroke="none" stroke-width="1"/><path id="e4m6p67i7qre76" d="M144.350000,134.500000C145.901913,134.467492,147.319187,135.377312,147.935739,136.801865C148.552292,138.226419,148.245511,139.882415,147.159579,140.991577C146.073646,142.100738,144.424512,142.442493,142.987230,141.856225C141.549948,141.269957,140.610340,139.872253,140.610000,138.320000C140.530448,137.298682,140.895967,136.292787,141.612629,135.560794C142.329292,134.828802,143.327228,134.442079,144.350000,134.500000ZM144.350000,140.630000C145.710000,140.630000,146.120000,139.470000,146.120000,138.320000C146.120000,137.170000,145.710000,136,144.350000,136C142.990000,136,142.600000,137.160000,142.600000,138.320000C142.600000,139.480000,143,140.630000,144.350000,140.630000Z" fill="rgb(30,47,152)" stroke="none" stroke-width="1"/><path id="e4m6p67i7qre77" d="M149.390000,131.930000L151.390000,131.930000L151.390000,135.580000L151.390000,135.580000C151.920087,134.859566,152.776759,134.453774,153.670000,134.500000C155.110000,134.500000,156.670000,135.660000,156.670000,138.310000C156.670000,140.960000,155.110000,142.130000,153.670000,142.130000C152.728908,142.235531,151.808531,141.802413,151.290000,141.010000L151.290000,141.010000L151.290000,141.930000L149.400000,141.930000ZM153,136C151.820000,136,151.300000,137.100000,151.300000,138.320000C151.300000,139.540000,151.820000,140.630000,153,140.630000C154.180000,140.630000,154.690000,139.530000,154.690000,138.320000C154.690000,137.110000,154.180000,136,153,136Z" fill="rgb(30,47,152)" stroke="none" stroke-width="1"/><path id="e4m6p67i7qre78" d="M161.460000,134.500000C163.011913,134.467492,164.429187,135.377312,165.045739,136.801865C165.662292,138.226419,165.355511,139.882415,164.269579,140.991577C163.183646,142.100738,161.534512,142.442493,160.097230,141.856225C158.659948,141.269957,157.720340,139.872253,157.720000,138.320000C157.640448,137.298682,158.005967,136.292787,158.722629,135.560794C159.439292,134.828802,160.437228,134.442079,161.460000,134.500000ZM161.460000,140.630000C162.820000,140.630000,163.230000,139.470000,163.230000,138.320000C163.230000,137.170000,162.820000,136,161.460000,136C160.100000,136,159.710000,137.160000,159.710000,138.320000C159.710000,139.480000,160.120000,140.630000,161.460000,140.630000Z" fill="rgb(30,47,152)" stroke="none" stroke-width="1"/><path id="e4m6p67i7qre79" d="M169,134.690000L170.460000,134.690000L170.460000,136L169,136L169,139.590000C169,140.260000,169.170000,140.430000,169.840000,140.430000C170.048321,140.434821,170.256469,140.414678,170.460000,140.370000L170.460000,142C170.075380,142.049738,169.687810,142.073126,169.300000,142.070000C168.080000,142.070000,167.010000,141.790000,167.010000,140.350000L167.010000,136L165.810000,136L165.810000,134.670000L167,134.670000L167,132.500000L169,132.500000Z" fill="rgb(30,47,152)" stroke="none" stroke-width="1"/><path id="e4m6p67i7qre80" d="M173.470000,133.570000L171.470000,133.570000L171.470000,131.930000L173.470000,131.930000ZM171.470000,134.690000L173.470000,134.690000L173.470000,141.930000L171.470000,141.930000Z" fill="rgb(30,47,152)" stroke="none" stroke-width="1"/><path id="e4m6p67i7qre81" d="M180,137.240000C179.972470,136.873829,179.796968,136.534672,179.513948,136.300708C179.230928,136.066745,178.864814,135.958166,178.500000,136C177.220000,136,176.800000,137.280000,176.800000,138.350000C176.800000,139.420000,177.210000,140.630000,178.460000,140.630000C179.301400,140.658141,180.007456,140.001241,180.040000,139.160000L182,139.160000C181.941370,140.023093,181.538972,140.826597,180.882949,141.390514C180.226926,141.954430,179.372112,142.231624,178.510000,142.160000C177.519314,142.201209,176.557416,141.821481,175.862028,141.114662C175.166641,140.407844,174.802645,139.439882,174.860000,138.450000C174.860000,136.190000,176.200000,134.530000,178.550000,134.530000C180.260000,134.530000,181.830000,135.420000,181.960000,137.270000Z" fill="rgb(30,47,152)" stroke="none" stroke-width="1"/><path id="e4m6p67i7qre82" d="M32.880000,148.690000L34.770000,148.690000L34.770000,149.620000L34.770000,149.620000C35.245550,148.859187,36.105753,148.427156,37,148.500000C39.260000,148.500000,40.290000,150.330000,40.290000,152.390000C40.290000,154.450000,39.220000,156.130000,37.110000,156.130000C36.228212,156.157621,35.393886,155.731020,34.900000,155L34.900000,155L34.900000,158.440000L32.900000,158.440000ZM38.260000,152.330000C38.260000,151.190000,37.800000,150,36.520000,150C35.240000,150,34.800000,151.160000,34.800000,152.330000C34.800000,153.500000,35.250000,154.630000,36.540000,154.630000C37.830000,154.630000,38.260000,153.510000,38.260000,152.330000Z" fill="rgb(30,47,152)" stroke="none" stroke-width="1"/><path id="e4m6p67i7qre83" d="M41.430000,148.690000L43.320000,148.690000L43.320000,150L43.320000,150C43.722643,149.079147,44.625119,148.477496,45.630000,148.460000C45.779588,148.458038,45.928406,148.481714,46.070000,148.530000L46.070000,150.380000C45.833498,150.329007,45.591895,150.305517,45.350000,150.310000C43.900000,150.310000,43.350000,151.360000,43.350000,152.630000L43.350000,155.890000L41.350000,155.890000Z" fill="rgb(30,47,152)" stroke="none" stroke-width="1"/><path id="e4m6p67i7qre84" d="M50.140000,148.500000C51.691913,148.467492,53.109187,149.377312,53.725739,150.801865C54.342292,152.226419,54.035511,153.882415,52.949579,154.991577C51.863646,156.100738,50.214512,156.442493,48.777230,155.856225C47.339948,155.269957,46.400340,153.872253,46.400000,152.320000C46.320448,151.298682,46.685967,150.292787,47.402629,149.560794C48.119292,148.828802,49.117228,148.442079,50.140000,148.500000ZM50.140000,154.630000C51.500000,154.630000,51.910000,153.470000,51.910000,152.320000C51.910000,151.170000,51.500000,150,50.140000,150C48.780000,150,48.390000,151.160000,48.390000,152.320000C48.390000,153.480000,48.800000,154.630000,50.140000,154.630000Z" fill="rgb(30,47,152)" stroke="none" stroke-width="1"/><path id="e4m6p67i7qre85" d="M60.110000,151.240000C60.082075,150.879603,59.910785,150.545460,59.634482,150.312388C59.358179,150.079317,58.999948,149.966788,58.640000,150C57.370000,150,56.950000,151.280000,56.950000,152.350000C56.950000,153.420000,57.350000,154.630000,58.600000,154.630000C59.441400,154.658141,60.147456,154.001241,60.180000,153.160000L62.100000,153.160000C62.041370,154.023093,61.638972,154.826597,60.982949,155.390514C60.326926,155.954430,59.472112,156.231624,58.610000,156.160000C57.620591,156.190360,56.664359,155.801532,55.976899,155.089316C55.289440,154.377101,54.934671,153.407717,55,152.420000C55,150.160000,56.340000,148.500000,58.690000,148.500000C60.400000,148.500000,61.970000,149.390000,62.100000,151.240000Z" fill="rgb(30,47,152)" stroke="none" stroke-width="1"/><path id="e4m6p67i7qre86" d="M64.300000,152.800000C64.300000,154.060000,64.970000,154.630000,66.070000,154.630000C66.736437,154.667689,67.358503,154.295242,67.640000,153.690000L69.390000,153.690000C68.997829,155.215483,67.571070,156.242413,66,156.130000C64.985716,156.179323,63.999319,155.789452,63.292844,155.060002C62.586369,154.330552,62.228253,153.332187,62.310000,152.320000C62.257125,151.314275,62.624450,150.331786,63.324155,149.607430C64.023860,148.883074,64.993047,148.481964,66,148.500000C68.470000,148.500000,69.660000,150.570000,69.520000,152.800000ZM67.530000,151.540000C67.350000,150.540000,66.920000,150,65.950000,150C65.524354,149.975376,65.107177,150.126038,64.795487,150.416950C64.483796,150.707861,64.304754,151.113669,64.300000,151.540000Z" fill="rgb(30,47,152)" stroke="none" stroke-width="1"/><path id="e4m6p67i7qre87" d="M72.230000,153.580000C72.230000,154.450000,72.980000,154.800000,73.760000,154.800000C74.330000,154.800000,75.060000,154.580000,75.060000,153.880000C75.060000,153.180000,74.240000,153.060000,72.810000,152.750000C71.660000,152.500000,70.510000,152.100000,70.510000,150.820000C70.510000,148.970000,72.110000,148.500000,73.660000,148.500000C75.210000,148.500000,76.660000,149.030000,76.860000,150.810000L75,150.810000C75,150.040000,74.360000,149.810000,73.650000,149.810000C73.200000,149.810000,72.540000,149.890000,72.540000,150.480000C72.540000,151.070000,73.660000,151.290000,74.790000,151.560000C75.920000,151.830000,77.090000,152.240000,77.090000,153.560000C77.090000,155.460000,75.440000,156.080000,73.790000,156.080000C72.140000,156.080000,70.470000,155.450000,70.380000,153.530000Z" fill="rgb(30,47,152)" stroke="none" stroke-width="1"/><path id="e4m6p67i7qre88" d="M79.750000,153.580000C79.750000,154.450000,80.490000,154.800000,81.280000,154.800000C81.850000,154.800000,82.580000,154.580000,82.580000,153.880000C82.580000,153.180000,81.750000,153.060000,80.330000,152.750000C79.180000,152.500000,78.030000,152.100000,78.030000,150.820000C78.030000,148.970000,79.630000,148.500000,81.180000,148.500000C82.730000,148.500000,84.180000,149.030000,84.370000,150.810000L82.480000,150.810000C82.480000,150.040000,81.840000,149.810000,81.120000,149.810000C80.680000,149.810000,80.020000,149.890000,80.020000,150.480000C80.020000,151.070000,81.140000,151.290000,82.270000,151.560000C83.400000,151.830000,84.570000,152.240000,84.570000,153.560000C84.570000,155.460000,82.920000,156.080000,81.260000,156.080000C79.600000,156.080000,77.940000,155.450000,77.860000,153.530000Z" fill="rgb(30,47,152)" stroke="none" stroke-width="1"/><path id="e4m6p67i7qre89" d="M89.540000,150.920000C89.650000,149.060000,91.310000,148.500000,92.940000,148.500000C94.380000,148.500000,96.120000,148.820000,96.120000,150.560000L96.120000,154.320000C96.083673,154.868532,96.169043,155.418313,96.370000,155.930000L94.370000,155.930000C94.297533,155.702577,94.250578,155.467801,94.230000,155.230000C93.576596,155.848779,92.698832,156.173877,91.800000,156.130000C90.420000,156.130000,89.330000,155.440000,89.330000,153.960000C89.330000,152.320000,90.560000,151.960000,91.800000,151.760000C93.040000,151.560000,94.150000,151.620000,94.150000,150.810000C94.150000,150,93.560000,149.810000,92.860000,149.810000C92.160000,149.810000,91.620000,150.120000,91.550000,150.900000ZM94.130000,152.390000C93.616514,152.646789,93.053768,152.790034,92.480000,152.810000C91.860000,152.940000,91.300000,153.150000,91.300000,153.880000C91.300000,154.610000,91.880000,154.800000,92.520000,154.800000C92.969825,154.843717,93.414971,154.679507,93.728645,154.354143C94.042319,154.028779,94.190139,153.577925,94.130000,153.130000Z" fill="rgb(30,47,152)" stroke="none" stroke-width="1"/><path id="e4m6p67i7qre90" d="M104.450000,155.930000L102.560000,155.930000L102.560000,154.930000L102.560000,154.930000C102.076743,155.686383,101.237526,156.140014,100.340000,156.130000C98.230000,156.130000,97.700000,154.940000,97.700000,153.130000L97.700000,148.670000L99.700000,148.670000L99.700000,152.760000C99.700000,153.950000,100.050000,154.540000,100.970000,154.540000C102.050000,154.540000,102.510000,153.940000,102.510000,152.470000L102.510000,148.670000L104.510000,148.670000Z" fill="rgb(30,47,152)" stroke="none" stroke-width="1"/><path id="e4m6p67i7qre91" d="M108.480000,148.690000L109.940000,148.690000L109.940000,150L108.480000,150L108.480000,153.590000C108.480000,154.260000,108.650000,154.430000,109.320000,154.430000C109.528321,154.434821,109.736469,154.414678,109.940000,154.370000L109.940000,156C109.552057,156.050038,109.161141,156.073426,108.770000,156.070000C107.550000,156.070000,106.490000,155.790000,106.490000,154.350000L106.490000,150L105.290000,150L105.290000,148.670000L106.490000,148.670000L106.490000,146.500000L108.490000,146.500000Z" fill="rgb(30,47,152)" stroke="none" stroke-width="1"/><path id="e4m6p67i7qre92" d="M114.400000,148.500000C115.951913,148.467492,117.369187,149.377312,117.985739,150.801865C118.602292,152.226419,118.295511,153.882415,117.209579,154.991577C116.123646,156.100738,114.474512,156.442493,113.037230,155.856225C111.599948,155.269957,110.660340,153.872253,110.660000,152.320000C110.580448,151.298682,110.945967,150.292787,111.662629,149.560794C112.379292,148.828802,113.377228,148.442079,114.400000,148.500000ZM114.400000,154.630000C115.760000,154.630000,116.170000,153.470000,116.170000,152.320000C116.170000,151.170000,115.760000,150,114.400000,150C113.040000,150,112.650000,151.160000,112.650000,152.320000C112.650000,153.480000,113.060000,154.630000,114.400000,154.630000Z" fill="rgb(30,47,152)" stroke="none" stroke-width="1"/><path id="e4m6p67i7qre93" d="M119.500000,148.690000L121.370000,148.690000L121.370000,149.690000L121.370000,149.690000C121.861019,148.950933,122.692740,148.510611,123.580000,148.520000C124.467603,148.439517,125.312160,148.917568,125.700000,149.720000C126.179494,148.979778,126.998093,148.529173,127.880000,148.520000C128.598275,148.418961,129.322798,148.656728,129.841534,149.163720C130.360271,149.670711,130.614566,150.389600,130.530000,151.110000L130.530000,155.950000L128.530000,155.950000L128.530000,151.850000C128.530000,150.850000,128.450000,150.090000,127.310000,150.090000C126.170000,150.090000,126,151,126,151.900000L126,155.900000L124,155.900000L124,151.840000C124,151,124.060000,150.040000,122.800000,150.040000C122.410000,150.040000,121.450000,150.290000,121.450000,151.700000L121.450000,155.900000L119.450000,155.900000Z" fill="rgb(30,47,152)" stroke="none" stroke-width="1"/><path id="e4m6p67i7qre94" d="M132,150.920000C132.110000,149.060000,133.780000,148.500000,135.400000,148.500000C136.850000,148.500000,138.580000,148.820000,138.580000,150.560000L138.580000,154.320000C138.540918,154.869555,138.629920,155.420682,138.840000,155.930000L136.840000,155.930000C136.762784,155.703830,136.715712,155.468471,136.700000,155.230000C136.042280,155.848330,135.161702,156.173133,134.260000,156.130000C132.890000,156.130000,131.800000,155.440000,131.800000,153.960000C131.800000,152.320000,133.030000,151.960000,134.260000,151.760000C135.490000,151.560000,136.610000,151.620000,136.610000,150.810000C136.610000,150,136.030000,149.810000,135.330000,149.810000C134.630000,149.810000,134.080000,150.120000,134.010000,150.900000ZM136.590000,152.390000C136.077299,152.648889,135.514083,152.792253,134.940000,152.810000C134.330000,152.940000,133.760000,153.150000,133.760000,153.880000C133.760000,154.610000,134.340000,154.800000,134.980000,154.800000C135.430822,154.847744,135.878454,154.684808,136.193099,154.358437C136.507744,154.032066,136.654200,153.578774,136.590000,153.130000Z" fill="rgb(30,47,152)" stroke="none" stroke-width="1"/><path id="e4m6p67i7qre95" d="M142.680000,148.690000L144.140000,148.690000L144.140000,150L142.680000,150L142.680000,153.590000C142.680000,154.260000,142.850000,154.430000,143.520000,154.430000C143.728321,154.434821,143.936469,154.414678,144.140000,154.370000L144.140000,156C143.760422,156.025332,143.379578,156.025332,143,156C141.790000,156,140.720000,155.720000,140.720000,154.280000L140.720000,150L139.520000,150L139.520000,148.670000L140.720000,148.670000L140.720000,146.500000L142.720000,146.500000Z" fill="rgb(30,47,152)" stroke="none" stroke-width="1"/><path id="e4m6p67i7qre96" d="M147.130000,147.570000L145.130000,147.570000L145.130000,145.930000L147.130000,145.930000ZM145.130000,148.690000L147.130000,148.690000L147.130000,155.930000L145.130000,155.930000Z" fill="rgb(30,47,152)" stroke="none" stroke-width="1"/><path id="e4m6p67i7qre97" d="M152.210000,148.500000C153.761913,148.467492,155.179187,149.377312,155.795739,150.801865C156.412292,152.226419,156.105511,153.882415,155.019579,154.991577C153.933646,156.100738,152.284512,156.442493,150.847230,155.856225C149.409948,155.269957,148.470340,153.872253,148.470000,152.320000C148.390448,151.298682,148.755967,150.292787,149.472629,149.560794C150.189292,148.828802,151.187228,148.442079,152.210000,148.500000ZM152.210000,154.630000C153.570000,154.630000,153.980000,153.470000,153.980000,152.320000C153.980000,151.170000,153.570000,150,152.210000,150C150.850000,150,150.460000,151.160000,150.460000,152.320000C150.460000,153.480000,150.870000,154.630000,152.210000,154.630000Z" fill="rgb(30,47,152)" stroke="none" stroke-width="1"/><path id="e4m6p67i7qre98" d="M157.250000,148.690000L159.140000,148.690000L159.140000,149.690000L159.190000,149.690000C159.667287,148.932285,160.504577,148.477648,161.400000,148.490000C163.510000,148.490000,164.050000,149.680000,164.050000,151.490000L164.050000,155.940000L162.050000,155.940000L162.050000,151.850000C162.050000,150.660000,161.700000,150.080000,160.770000,150.080000C159.690000,150.080000,159.230000,150.680000,159.230000,152.150000L159.230000,155.940000L157.230000,155.940000Z" fill="rgb(30,47,152)" stroke="none" stroke-width="1"/><path id="e4m6p67i7qre99" d="M46.080000,90.620000L24.700000,90.620000L24.700000,81.220000L46.700000,51.750000L55.870000,51.750000L55.870000,82.160000L62.590000,82.160000L62.590000,90.620000L55.830000,90.620000L55.830000,102.320000L46.080000,102.320000ZM46.080000,64.620000L45.860000,64.620000L32.790000,82.160000L46.080000,82.160000Z" fill="none" stroke="rgb(30,47,152)" stroke-width="1"/><path id="e4m6p67i7qre100" d="M66.380000,71.180000C66,59.620000,72.590000,50.740000,84.730000,50.740000C93.980000,50.740000,102.070000,56.660000,102.070000,66.560000C102.070000,74.140000,98.070000,78.330000,93.070000,81.870000C88.070000,85.410000,82.130000,88.300000,78.440000,93.500000L102.360000,93.500000L102.360000,102.320000L65.220000,102.320000C65.300000,90.620000,72.450000,85.630000,81.220000,79.710000C85.700000,76.710000,91.770000,73.570000,91.840000,67.350000C91.840000,62.590000,88.660000,59.550000,84.250000,59.550000C78.190000,59.550000,76.250000,65.840000,76.250000,71.180000Z" fill="none" stroke="rgb(30,47,152)" stroke-width="1"/><path id="e4m6p67i7qre101" d="M121.570000,50.740000C130.570000,50.740000,133.420000,57.380000,133.420000,65.330000C133.420000,73.280000,129.660000,78.910000,121.210000,78.910000C112.330000,78.910000,109.290000,72.990000,109.290000,65.040000C109.290000,57.090000,113.120000,50.740000,121.570000,50.740000ZM121.280000,73.490000C125.760000,73.490000,126.050000,68.290000,126.050000,65.260000C126.050000,62.440000,125.840000,56.160000,121.570000,56.160000C116.950000,56.160000,116.660000,61.860000,116.660000,65.160000C116.660000,68.290000,116.660000,73.490000,121.280000,73.490000ZM152.130000,50.160000L158.270000,50.160000L128.510000,103.910000L122.220000,103.910000ZM158.850000,75.160000C167.850000,75.160000,170.700000,81.440000,170.700000,89.390000C170.700000,97.340000,166.940000,103.330000,158.490000,103.330000C149.600000,103.330000,146.570000,97.040000,146.570000,89.100000C146.570000,81.160000,150.400000,75.160000,158.850000,75.160000ZM158.560000,97.910000C163.040000,97.910000,163.330000,92.280000,163.330000,89.240000C163.330000,86.430000,163.110000,80.570000,158.850000,80.570000C154.230000,80.570000,153.940000,85.850000,153.940000,89.170000C153.940000,92.280000,153.940000,97.910000,158.560000,97.910000Z" fill="none" stroke="rgb(30,47,152)" stroke-width="1"/></g><clipPath id="e4m6p67i7qre102"><rect id="e4m6p67i7qre103" width="41" height="168" rx="0" ry="0" transform="matrix(1 0 0 1 141.18742971500041 10.77760277000112)" fill="none" stroke="none" stroke-width="1"/></clipPath></g></g><g id="e4m6p67i7qre104" transform="matrix(1 0 0 1 203.95972048500013 6.63820447500025)"><line id="e4m6p67i7qre105" x1="30" y1="93.500000" x2="75.830001" y2="93.500000" transform="matrix(1 0 0 1 -0.00000032000003 -0.13820448000000)" fill="none" stroke="rgb(45,69,214)" stroke-width="6" stroke-linecap="round" stroke-miterlimit="10" stroke-dashoffset="45.830000" stroke-dasharray="45.830000"/><path id="e4m6p67i7qre106" d="M87,23.350000C53.354036,26.495991,26.669058,53.067720,23.380000,86.700000" fill="none" stroke="rgb(62,118,234)" stroke-width="4" stroke-linecap="round" stroke-miterlimit="10" stroke-dashoffset="97.330000" stroke-dasharray="97.330000"/><line id="e4m6p67i7qre107" x1="93.500000" y1="68.698759" x2="93.500000" y2="29.500000" transform="matrix(1 0 0 1 -0.10498911499980 0.34426448000000)" fill="none" stroke="rgb(62,118,234)" stroke-width="2" stroke-linecap="round" stroke-miterlimit="10" stroke-dashoffset="39.200000" stroke-dasharray="39.200000"/><circle id="e4m6p67i7qre108" r="17" transform="matrix(0.37617711082288 0 0 0.37617711082288 93.39501088875694 23.44925360375654)" opacity="0" fill="rgb(62,118,234)" stroke="none" stroke-width="1"/><circle id="e4m6p67i7qre109" r="17" transform="matrix(0.42566920079246 0 0 0.42566920079246 22.92247367271908 93.50000023271865)" opacity="0" fill="rgb(45,69,214)" stroke="none" stroke-width="1"/></g><g id="e4m6p67i7qre110" transform="matrix(-0.99998749965494 0.00500005338529 -0.00500005338529 -0.99998749965494 390.08606614066144 193.17288120430220)"><line id="e4m6p67i7qre111" x1="30" y1="93.500000" x2="75.830001" y2="93.500000" transform="matrix(1 0 0 1 -0.00000032000003 -0.13820448000000)" fill="none" stroke="rgb(45,69,214)" stroke-width="6" stroke-linecap="round" stroke-miterlimit="10" stroke-dashoffset="45.830000" stroke-dasharray="45.830000"/><path id="e4m6p67i7qre112" d="M87,23.350000C53.354036,26.495991,26.669058,53.067720,23.380000,86.700000" fill="none" stroke="rgb(62,118,234)" stroke-width="4" stroke-linecap="round" stroke-miterlimit="10" stroke-dashoffset="97.330000" stroke-dasharray="97.330000"/><line id="e4m6p67i7qre113" x1="93.500000" y1="68.698759" x2="93.500000" y2="29.500000" transform="matrix(1 0 0 1 -0.10498911499980 0.34426448000000)" fill="none" stroke="rgb(62,118,234)" stroke-width="2" stroke-linecap="round" stroke-miterlimit="10" stroke-dashoffset="39.200000" stroke-dasharray="39.200000"/><circle id="e4m6p67i7qre114" r="17" transform="matrix(0.37617711082288 0 0 0.37617711082288 93.39501088875694 23.44925360375654)" opacity="0" fill="rgb(62,118,234)" stroke="none" stroke-width="1"/><circle id="e4m6p67i7qre115" r="17" transform="matrix(0.42566920079246 0 0 0.42566920079246 22.92247367271908 93.50000023271865)" opacity="0" fill="rgb(45,69,214)" stroke="none" stroke-width="1"/></g><line id="e4m6p67i7qre116" x1="188" y1="10" x2="188" y2="190" transform="matrix(1 0 0 1 12.00000000000009 0.00000000304377)" fill="none" stroke="rgb(30,47,152)" stroke-width="3" stroke-linecap="round" stroke-linejoin="round" stroke-miterlimit="10"/><circle id="e4m6p67i7qre117" r="17" transform="matrix(1 0 0 1 296.78972101500068 100.13820470500002)" opacity="0" fill="rgb(30,47,152)" stroke="none" stroke-width="1"/><script><![CDATA[!function(t,n){"object"==typeof exports&&"undefined"!=typeof module?module.exports=n():"function"==typeof define&&define.amd?define(n):(t=t||self).__SVGATOR_PLAYER__=n()}(this,(function(){"use strict";function t(n){return(t="function"==typeof Symbol&&"symbol"==typeof Symbol.iterator?function(t){return typeof t}:function(t){return t&&"function"==typeof Symbol&&t.constructor===Symbol&&t!==Symbol.prototype?"symbol":typeof t})(n)}function n(t,n){if(!(t instanceof n))throw new TypeError("Cannot call a class as a function")}function e(t,n){for(var e=0;e<n.length;e++){var r=n[e];r.enumerable=r.enumerable||!1,r.configurable=!0,"value"in r&&(r.writable=!0),Object.defineProperty(t,r.key,r)}}function r(t,n,r){return n&&e(t.prototype,n),r&&e(t,r),t}function i(t){return(i=Object.setPrototypeOf?Object.getPrototypeOf:function(t){return t.__proto__||Object.getPrototypeOf(t)})(t)}function u(t,n){return(u=Object.setPrototypeOf||function(t,n){return t.__proto__=n,t})(t,n)}function o(t,n){return!n||"object"!=typeof n&&"function"!=typeof n?function(t){if(void 0===t)throw new ReferenceError("this hasn't been initialised - super() hasn't been called");return t}(t):n}function a(t){var n=function(){if("undefined"==typeof Reflect||!Reflect.construct)return!1;if(Reflect.construct.sham)return!1;if("function"==typeof Proxy)return!0;try{return Date.prototype.toString.call(Reflect.construct(Date,[],(function(){}))),!0}catch(t){return!1}}();return function(){var e,r=i(t);if(n){var u=i(this).constructor;e=Reflect.construct(r,arguments,u)}else e=r.apply(this,arguments);return o(this,e)}}function l(t,n,e){return(l="undefined"!=typeof Reflect&&Reflect.get?Reflect.get:function(t,n,e){var r=function(t,n){for(;!Object.prototype.hasOwnProperty.call(t,n)&&null!==(t=i(t)););return t}(t,n);if(r){var u=Object.getOwnPropertyDescriptor(r,n);return u.get?u.get.call(e):u.value}})(t,n,e||t)}var f=Math.abs;function s(t){return t}function c(t,n,e){var r=1-e;return 3*e*r*(t*r+n*e)+e*e*e}function h(){var t=arguments.length>0&&void 0!==arguments[0]?arguments[0]:0,n=arguments.length>1&&void 0!==arguments[1]?arguments[1]:0,e=arguments.length>2&&void 0!==arguments[2]?arguments[2]:1,r=arguments.length>3&&void 0!==arguments[3]?arguments[3]:1;return t<0||t>1||e<0||e>1?null:f(t-n)<=1e-5&&f(e-r)<=1e-5?s:function(i){if(i<=0)return t>0?i*n/t:0===n&&e>0?i*r/e:0;if(i>=1)return e<1?1+(i-1)*(r-1)/(e-1):1===e&&t<1?1+(i-1)*(n-1)/(t-1):1;for(var u,o=0,a=1;o<a;){var l=c(t,e,u=(o+a)/2);if(f(i-l)<1e-5)break;l<i?o=u:a=u}return c(n,r,u)}}function v(){return 1}function d(t){return 1===t?1:0}function y(){var t=arguments.length>0&&void 0!==arguments[0]?arguments[0]:1,n=arguments.length>1&&void 0!==arguments[1]?arguments[1]:0;if(1===t){if(0===n)return d;if(1===n)return v}var e=1/t;return function(t){return t>=1?1:(t+=n*e)-t%e}}function g(t){var n=arguments.length>1&&void 0!==arguments[1]?arguments[1]:2;if(Number.isInteger(t))return t;var e=Math.pow(10,n);return Math.round(t*e)/e}var p=Math.PI/180;function m(t,n,e){return t>=.5?e:n}function b(t,n,e){return 0===t||n===e?n:t*(e-n)+n}function w(t,n,e){var r=b(t,n,e);return r<=0?0:r}function x(t,n,e){return 0===t?n:1===t?e:{x:b(t,n.x,e.x),y:b(t,n.y,e.y)}}function k(t,n,e){return 0===t?n:1===t?e:{x:w(t,n.x,e.x),y:w(t,n.y,e.y)}}function A(t,n,e){var r=function(t,n,e){return Math.round(b(t,n,e))}(t,n,e);return r<=0?0:r>=255?255:r}function _(t,n,e){return 0===t?n:1===t?e:{r:A(t,n.r,e.r),g:A(t,n.g,e.g),b:A(t,n.b,e.b),a:b(t,null==n.a?1:n.a,null==e.a?1:e.a)}}function S(t,n,e){if(0===t)return n;if(1===t)return e;var r=n.length;if(r!==e.length)return m(t,n,e);for(var i=[],u=0;u<r;u++)i.push(_(t,n[u],e[u]));return i}function M(t,n,e){var r=n.length;if(r!==e.length)return m(t,n,e);for(var i=new Array(r),u=0;u<r;u++)i[u]=b(t,n[u],e[u]);return i}function O(t,n){for(var e=[],r=0;r<t;r++)e.push(n);return e}function E(t,n){if(--n<=0)return t;var e=(t=Object.assign([],t)).length;do{for(var r=0;r<e;r++)t.push(t[r])}while(--n>0);return t}var B,I=function(){function t(e){n(this,t),this.list=e,this.length=e.length}return r(t,[{key:"setAttribute",value:function(t,n){for(var e=this.list,r=0;r<this.length;r++)e[r].setAttribute(t,n)}},{key:"removeAttribute",value:function(t){for(var n=this.list,e=0;e<this.length;e++)n[e].removeAttribute(t)}},{key:"style",value:function(t,n){for(var e=this.list,r=0;r<this.length;r++)e[r].style[t]=n}}]),t}(),j=/-./g,P=function(t,n){return n.toUpperCase()};function F(t){return"function"==typeof t?t:m}function R(t){return t?"function"==typeof t?t:Array.isArray(t)?function(t){var n=arguments.length>1&&void 0!==arguments[1]?arguments[1]:s;if(!Array.isArray(t))return n;switch(t.length){case 1:return y(t[0])||n;case 2:return y(t[0],t[1])||n;case 4:return h(t[0],t[1],t[2],t[3])||n}return n}(t,null):function(t,n){var e=arguments.length>2&&void 0!==arguments[2]?arguments[2]:s;switch(t){case"linear":return s;case"steps":return y(n.steps||1,n.jump||0)||e;case"bezier":case"cubic-bezier":return h(n.x1||0,n.y1||0,n.x2||0,n.y2||0)||e}return e}(t.type,t.value,null):null}function T(t,n,e){var r=arguments.length>3&&void 0!==arguments[3]&&arguments[3],i=n.length-1;if(t<=n[0].t)return r?[0,0,n[0].v]:n[0].v;if(t>=n[i].t)return r?[i,1,n[i].v]:n[i].v;var u,o=n[0],a=null;for(u=1;u<=i;u++){if(!(t>n[u].t)){a=n[u];break}o=n[u]}return null==a?r?[i,1,n[i].v]:n[i].v:o.t===a.t?r?[u,1,a.v]:a.v:(t=(t-o.t)/(a.t-o.t),o.e&&(t=o.e(t)),r?[u,t,e(t,o.v,a.v)]:e(t,o.v,a.v))}function q(t,n){var e=arguments.length>2&&void 0!==arguments[2]?arguments[2]:null;return t&&t.length?"function"!=typeof n?null:("function"!=typeof e&&(e=null),function(r){var i=T(r,t,n);return null!=i&&e&&(i=e(i)),i}):null}function C(t,n){return t.t-n.t}function V(n,e,r,i,u){var o,a="@"===r[0],l="#"===r[0],f=B[r],s=m;switch(a?(o=r.substr(1),r=o.replace(j,P)):l&&(r=r.substr(1)),t(f)){case"function":if(s=f(i,u,T,R,r,a,e,n),l)return s;break;case"string":s=q(i,F(f));break;case"object":if((s=q(i,F(f.i),f.f))&&"function"==typeof f.u)return f.u(e,s,r,a,n)}return s?function(t,n,e){var r=arguments.length>3&&void 0!==arguments[3]&&arguments[3];if(r)return t instanceof I?function(r){return t.style(n,e(r))}:function(r){return t.style[n]=e(r)};if(Array.isArray(n)){var i=n.length;return function(r){var u=e(r);if(null==u)for(var o=0;o<i;o++)t[o].removeAttribute(n);else for(var a=0;a<i;a++)t[a].setAttribute(n,u)}}return function(r){var i=e(r);null==i?t.removeAttribute(n):t.setAttribute(n,i)}}(e,r,s,a):null}function N(n,e,r,i){if(!i||"object"!==t(i))return null;var u=null,o=null;return Array.isArray(i)?o=function(t){if(!t||!t.length)return null;for(var n=0;n<t.length;n++)t[n].e&&(t[n].e=R(t[n].e));return t.sort(C)}(i):(o=i.keys,u=i.data||null),o?V(n,e,r,o,u):null}function z(t,n,e){if(!e)return null;var r=[];for(var i in e)if(e.hasOwnProperty(i)){var u=N(t,n,i,e[i]);u&&r.push(u)}return r.length?r:null}function D(t,n){if(!n.duration||n.duration<0)return null;var e=function(t,n){if(!n)return null;var e=[];if(Array.isArray(n))for(var r=n.length,i=0;i<r;i++){var u=n[i];if(2===u.length){var o=null;if("string"==typeof u[0])o=t.getElementById(u[0]);else if(Array.isArray(u[0])){o=[];for(var a=0;a<u[0].length;a++)if("string"==typeof u[0][a]){var l=t.getElementById(u[0][a]);l&&o.push(l)}o=o.length?1===o.length?o[0]:new I(o):null}if(o){var f=z(t,o,u[1]);f&&(e=e.concat(f))}}}else for(var s in n)if(n.hasOwnProperty(s)){var c=t.getElementById(s);if(c){var h=z(t,c,n[s]);h&&(e=e.concat(h))}}return e.length?e:null}(t,n.elements);return e?function(t,n){var e=arguments.length>2&&void 0!==arguments[2]?arguments[2]:1/0,r=arguments.length>3&&void 0!==arguments[3]?arguments[3]:1,i=arguments.length>4&&void 0!==arguments[4]&&arguments[4],u=arguments.length>5&&void 0!==arguments[5]?arguments[5]:1,o=t.length,a=r>0?n:0;i&&e%2==0&&(a=n-a);var l=null;return function(f,s){var c=f%n,h=1+(f-c)/n;s*=r,i&&h%2==0&&(s=-s);var v=!1;if(h>e)c=a,v=!0,-1===u&&(c=r>0?0:n);else if(s<0&&(c=n-c),c===l)return!1;l=c;for(var d=0;d<o;d++)t[d](c);return v}}(e,n.duration,n.iterations||1/0,n.direction||1,!!n.alternate,n.fill||1):null}function L(t,n){if(B=n,!t||!t.root||!Array.isArray(t.animations))return null;for(var e=document.getElementsByTagName("svg"),r=!1,i=0;i<e.length;i++)if(e[i].id===t.root&&!e[i].svgatorAnimation){(r=e[i]).svgatorAnimation=!0;break}if(!r)return null;var u=t.animations.map((function(t){return D(r,t)})).filter((function(t){return!!t}));return u.length?{element:r,animations:u,animationSettings:t.animationSettings,options:t.options||void 0}:null}var U=function(){function t(e,r){var i=arguments.length>2&&void 0!==arguments[2]?arguments[2]:{};n(this,t),this._id=0,this._running=!1,this._rollingBack=!1,this._animations=e,this.duration=r.duration,this.alternate=r.alternate,this.fill=r.fill,this.iterations=r.iterations,this.direction=i.direction||1,this.speed=i.speed||1,this.fps=i.fps||100,this.offset=i.offset||0,this.rollbackStartOffset=0}return r(t,[{key:"_rollback",value:function(){var t=this,n=1/0,e=null;this.rollbackStartOffset=this.offset,this._rollingBack||(this._rollingBack=!0,this._running=!0);this._id=window.requestAnimationFrame((function r(i){if(t._rollingBack){null==e&&(e=i);var u=i-e,o=t.rollbackStartOffset-u,a=Math.round(o*t.speed);if(a>t.duration&&n!=1/0){var l=!!t.alternate&&a/t.duration%2>1,f=a%t.duration;a=(f+=l?t.duration:0)||t.duration}var s=t.fps?1e3/t.fps:0,c=Math.max(0,a);if(c<n-s){t.offset=c,n=c;for(var h=t._animations,v=h.length,d=0;d<v;d++)h[d](c,t.direction)}var y=!1;if(t.iterations>0&&-1===t.fill){var g=t.iterations*t.duration,p=g==a;a=p?0:a,t.offset=p?0:t.offset,y=a>g}a>0&&t.offset>=a&&!y?t._id=window.requestAnimationFrame(r):t.stop()}}))}},{key:"_start",value:function(){var t=this,n=arguments.length>0&&void 0!==arguments[0]?arguments[0]:0,e=-1/0,r=null,i={},u=function u(o){t._running=!0,null==r&&(r=o);var a=Math.round((o-r+n)*t.speed),l=t.fps?1e3/t.fps:0;if(a>e+l&&!t._rollingBack){t.offset=a,e=a;for(var f=t._animations,s=f.length,c=0,h=0;h<s;h++)i[h]?c++:(i[h]=f[h](a,t.direction),i[h]&&c++);if(c===s)return void t._stop()}t._id=window.requestAnimationFrame(u)};this._id=window.requestAnimationFrame(u)}},{key:"_stop",value:function(){this._id&&window.cancelAnimationFrame(this._id),this._running=!1,this._rollingBack=!1}},{key:"play",value:function(){!this._rollingBack&&this._running||(this._rollingBack=!1,this.rollbackStartOffset>this.duration&&(this.offset=this.rollbackStartOffset-(this.rollbackStartOffset-this.offset)%this.duration,this.rollbackStartOffset=0),this._start(this.offset))}},{key:"stop",value:function(){this._stop(),this.offset=0,this.rollbackStartOffset=0;var t=this.direction,n=this._animations;window.requestAnimationFrame((function(){for(var e=0;e<n.length;e++)n[e](0,t)}))}},{key:"reachedToEnd",value:function(){return this.iterations>0&&this.offset>=this.iterations*this.duration}},{key:"restart",value:function(){this._stop(),this.offset=0,this._start()}},{key:"pause",value:function(){this._stop()}},{key:"reverse",value:function(){this.direction=-this.direction}}],[{key:"build",value:function(n,e){return(n=L(n,e))?{el:n.element,options:n.options||{},player:new t(n.animations,n.animationSettings,n.options)}:null}}]),t}();!function(){for(var t=0,n=["ms","moz","webkit","o"],e=0;e<n.length&&!window.requestAnimationFrame;++e)window.requestAnimationFrame=window[n[e]+"RequestAnimationFrame"],window.cancelAnimationFrame=window[n[e]+"CancelAnimationFrame"]||window[n[e]+"CancelRequestAnimationFrame"];window.requestAnimationFrame||(window.requestAnimationFrame=function(n){var e=Date.now(),r=Math.max(0,16-(e-t)),i=window.setTimeout((function(){n(e+r)}),r);return t=e+r,i},window.cancelAnimationFrame=window.clearTimeout)}();var W=function(t,n){var e=!1,r=null;return function(i){e&&clearTimeout(e),e=setTimeout((function(){return function(){for(var i=0,u=window.innerHeight,o=0,a=window.innerWidth,l=t.parentNode;l instanceof Element;){var f=window.getComputedStyle(l);if("visible"!==f.overflowY||"visible"!==f.overflowX){var s=l.getBoundingClientRect();"visible"!==f.overflowY&&(i=Math.max(i,s.top),u=Math.min(u,s.bottom)),"visible"!==f.overflowX&&(o=Math.max(o,s.left),a=Math.min(a,s.right))}if(l===l.parentNode)break;l=l.parentNode}e=!1;var c=t.getBoundingClientRect(),h=Math.min(c.height,Math.max(0,i-c.top)),v=Math.min(c.height,Math.max(0,c.bottom-u)),d=Math.min(c.width,Math.max(0,o-c.left)),y=Math.min(c.width,Math.max(0,c.right-a)),g=(c.height-h-v)/c.height,p=(c.width-d-y)/c.width,m=Math.round(g*p*100);null!==r&&r===m||(r=m,n(m))}()}),100)}},Y=function(){function t(e,r,i){n(this,t),r=Math.max(1,r||1),r=Math.min(r,100),this.el=e,this.onTresholdChange=i&&i.call?i:function(){},this.tresholdPercent=r||1,this.currentVisibility=null,this.visibilityCalculator=W(e,this.onVisibilityUpdate.bind(this)),this.bindScrollWatchers(),this.visibilityCalculator()}return r(t,[{key:"bindScrollWatchers",value:function(){for(var t=this.el.parentNode;t&&(t.addEventListener("scroll",this.visibilityCalculator),t!==t.parentNode&&t!==document);)t=t.parentNode}},{key:"onVisibilityUpdate",value:function(t){var n=this.currentVisibility>=this.tresholdPercent,e=t>=this.tresholdPercent;if(null===this.currentVisibility||n!==e)return this.currentVisibility=t,void this.onTresholdChange(e);this.currentVisibility=t}}]),t}(),G=/\.0+$/g;function H(t){return Number.isInteger(t)?t+"":t.toFixed(6).replace(G,"")}function X(t){var n=arguments.length>1&&void 0!==arguments[1]?arguments[1]:" ";return t&&t.length?t.map(H).join(n):""}function $(t){return H(t.x)+","+H(t.y)}function Q(t){return t?null==t.a||t.a>=1?"rgb("+t.r+","+t.g+","+t.b+")":"rgba("+t.r+","+t.g+","+t.b+","+t.a+")":"transparent"}var Z={f:null,i:k,u:function(t,n){return function(e){var r=n(e);t.setAttribute("rx",H(r.x)),t.setAttribute("ry",H(r.y))}}},J={f:null,i:function(t,n,e){return 0===t?n:1===t?e:{width:w(t,n.width,e.width),height:w(t,n.height,e.height)}},u:function(t,n){return function(e){var r=n(e);t.setAttribute("width",H(r.width)),t.setAttribute("height",H(r.height))}}},K=Math.sin,tt=Math.cos,nt=Math.acos,et=Math.asin,rt=Math.tan,it=Math.atan2,ut=Math.PI/180,ot=180/Math.PI,at=Math.sqrt,lt=function(){function t(){var e=arguments.length>0&&void 0!==arguments[0]?arguments[0]:1,r=arguments.length>1&&void 0!==arguments[1]?arguments[1]:0,i=arguments.length>2&&void 0!==arguments[2]?arguments[2]:0,u=arguments.length>3&&void 0!==arguments[3]?arguments[3]:1,o=arguments.length>4&&void 0!==arguments[4]?arguments[4]:0,a=arguments.length>5&&void 0!==arguments[5]?arguments[5]:0;n(this,t),this.m=[e,r,i,u,o,a],this.i=null,this.w=null,this.s=null}return r(t,[{key:"point",value:function(t,n){var e=this.m;return{x:e[0]*t+e[2]*n+e[4],y:e[1]*t+e[3]*n+e[5]}}},{key:"translateSelf",value:function(){var t=arguments.length>0&&void 0!==arguments[0]?arguments[0]:0,n=arguments.length>1&&void 0!==arguments[1]?arguments[1]:0;if(!t&&!n)return this;var e=this.m;return e[4]+=e[0]*t+e[2]*n,e[5]+=e[1]*t+e[3]*n,this.w=this.s=this.i=null,this}},{key:"rotateSelf",value:function(){var t=arguments.length>0&&void 0!==arguments[0]?arguments[0]:0;if(t%=360){var n=K(t*=ut),e=tt(t),r=this.m,i=r[0],u=r[1];r[0]=i*e+r[2]*n,r[1]=u*e+r[3]*n,r[2]=r[2]*e-i*n,r[3]=r[3]*e-u*n,this.w=this.s=this.i=null}return this}},{key:"scaleSelf",value:function(){var t=arguments.length>0&&void 0!==arguments[0]?arguments[0]:1,n=arguments.length>1&&void 0!==arguments[1]?arguments[1]:1;if(1!==t||1!==n){var e=this.m;e[0]*=t,e[1]*=t,e[2]*=n,e[3]*=n,this.w=this.s=this.i=null}return this}},{key:"skewSelf",value:function(t,n){if(n%=360,(t%=360)||n){var e=this.m,r=e[0],i=e[1],u=e[2],o=e[3];t&&(t=rt(t*ut),e[2]+=r*t,e[3]+=i*t),n&&(n=rt(n*ut),e[0]+=u*n,e[1]+=o*n),this.w=this.s=this.i=null}return this}},{key:"resetSelf",value:function(){var t=arguments.length>0&&void 0!==arguments[0]?arguments[0]:1,n=arguments.length>1&&void 0!==arguments[1]?arguments[1]:0,e=arguments.length>2&&void 0!==arguments[2]?arguments[2]:0,r=arguments.length>3&&void 0!==arguments[3]?arguments[3]:1,i=arguments.length>4&&void 0!==arguments[4]?arguments[4]:0,u=arguments.length>5&&void 0!==arguments[5]?arguments[5]:0,o=this.m;return o[0]=t,o[1]=n,o[2]=e,o[3]=r,o[4]=i,o[5]=u,this.w=this.s=this.i=null,this}},{key:"recomposeSelf",value:function(){var t=arguments.length>0&&void 0!==arguments[0]?arguments[0]:null,n=arguments.length>1&&void 0!==arguments[1]?arguments[1]:null,e=arguments.length>2&&void 0!==arguments[2]?arguments[2]:null,r=arguments.length>3&&void 0!==arguments[3]?arguments[3]:null,i=arguments.length>4&&void 0!==arguments[4]?arguments[4]:null;return this.isIdentity||this.resetSelf(),t&&(t.x||t.y)&&this.translateSelf(t.x,t.y),n&&this.rotateSelf(n),e&&(e.x&&this.skewSelf(e.x,0),e.y&&this.skewSelf(0,e.y)),!r||1===r.x&&1===r.y||this.scaleSelf(r.x,r.y),i&&(i.x||i.y)&&this.translateSelf(i.x,i.y),this}},{key:"decompose",value:function(){var t=arguments.length>0&&void 0!==arguments[0]?arguments[0]:0,n=arguments.length>1&&void 0!==arguments[1]?arguments[1]:0,e=this.m,r=e[0]*e[0]+e[1]*e[1],i=[[e[0],e[1]],[e[2],e[3]]],u=at(r);if(0===u)return{origin:{x:e[4],y:e[5]},translate:{x:t,y:n},scale:{x:0,y:0},skew:{x:0,y:0},rotate:0};i[0][0]/=u,i[0][1]/=u;var o=e[0]*e[3]-e[1]*e[2]<0;o&&(u=-u);var a=i[0][0]*i[1][0]+i[0][1]*i[1][1];i[1][0]-=i[0][0]*a,i[1][1]-=i[0][1]*a;var l=at(i[1][0]*i[1][0]+i[1][1]*i[1][1]);if(0===l)return{origin:{x:e[4],y:e[5]},translate:{x:t,y:n},scale:{x:u,y:0},skew:{x:0,y:0},rotate:0};i[1][0]/=l,i[1][1]/=l,a/=l;var f=0;return i[1][1]<0?(f=nt(i[1][1])*ot,i[0][1]<0&&(f=360-f)):f=et(i[0][1])*ot,o&&(f=-f),a=it(a,at(i[0][0]*i[0][0]+i[0][1]*i[0][1]))*ot,{origin:{x:e[4],y:e[5]},translate:{x:t,y:n},scale:{x:u,y:l},skew:{x:a,y:0},rotate:f}}},{key:"toString",value:function(){return null===this.s&&(this.s="matrix("+this.m.map(st).join(" ")+")"),this.s}},{key:"determinant",get:function(){var t=this.m;return t[0]*t[3]-t[1]*t[2]}},{key:"isIdentity",get:function(){if(null===this.i){var t=this.m;this.i=1===t[0]&&0===t[1]&&0===t[2]&&1===t[3]&&0===t[4]&&0===t[5]}return this.i}}]),t}(),ft=/\.0+$/;function st(t){return Number.isInteger(t)?t:t.toFixed(14).replace(ft,"")}Object.freeze({M:2,L:2,Z:0,H:1,V:1,C:6,Q:4,T:2,S:4,A:7});function ct(t,n,e){return t+(n-t)*e}function ht(t,n,e){var r=arguments.length>3&&void 0!==arguments[3]&&arguments[3],i={x:ct(t.x,n.x,e),y:ct(t.y,n.y,e)};return r&&(i.a=vt(t,n)),i}function vt(t,n){return Math.atan2(n.y-t.y,n.x-t.x)}function dt(t,n,e,r){var i=1-r;return i*i*t+2*i*r*n+r*r*e}function yt(t,n,e,r){return 2*(1-r)*(n-t)+2*r*(e-n)}function gt(t,n,e,r){var i=arguments.length>4&&void 0!==arguments[4]&&arguments[4],u={x:dt(t.x,n.x,e.x,r),y:dt(t.y,n.y,e.y,r)};return i&&(u.a=pt(t,n,e,r)),u}function pt(t,n,e,r){return Math.atan2(yt(t.y,n.y,e.y,r),yt(t.x,n.x,e.x,r))}function mt(t,n,e,r,i){var u=i*i;return i*u*(r-t+3*(n-e))+3*u*(t+e-2*n)+3*i*(n-t)+t}function bt(t,n,e,r,i){var u=1-i;return 3*(u*u*(n-t)+2*u*i*(e-n)+i*i*(r-e))}function wt(t,n,e,r,i){var u=arguments.length>5&&void 0!==arguments[5]&&arguments[5],o={x:mt(t.x,n.x,e.x,r.x,i),y:mt(t.y,n.y,e.y,r.y,i)};return u&&(o.a=xt(t,n,e,r,i)),o}function xt(t,n,e,r,i){return Math.atan2(bt(t.y,n.y,e.y,r.y,i),bt(t.x,n.x,e.x,r.x,i))}function kt(t,n,e){var r=arguments.length>3&&void 0!==arguments[3]&&arguments[3];if(_t(n)){if(St(e))return gt(n,e.start,e,t,r)}else if(_t(e)){if(n.end)return gt(n,n.end,e,t,r)}else{if(n.end)return e.start?wt(n,n.end,e.start,e,t,r):gt(n,n.end,e,t,r);if(e.start)return gt(n,e.start,e,t,r)}return ht(n,e,t,r)}function At(t,n,e){var r=kt(t,n,e,!0);return r.a=function(t){var n=arguments.length>1&&void 0!==arguments[1]&&arguments[1];return n?t+Math.PI:t}(r.a)/p,r}function _t(t){return!t.type||"corner"===t.type}function St(t){return null!=t.start&&!_t(t)}var Mt=new lt;var Ot={f:function(t){return t?t.join(" "):""},i:function(n,e,r){if(0===n)return e;if(1===n)return r;var i=e.length;if(i!==r.length)return m(n,e,r);for(var u,o=new Array(i),a=0;a<i;a++){if((u=t(e[a]))!==t(r[a]))return m(n,e,r);if("number"===u)o[a]=b(n,e[a],r[a]);else{if(e[a]!==r[a])return m(n,e,r);o[a]=e[a]}}return o}},Et={f:null,i:M,u:function(t,n){return function(e){var r=n(e);t.setAttribute("x1",H(r[0])),t.setAttribute("y1",H(r[1])),t.setAttribute("x2",H(r[2])),t.setAttribute("y2",H(r[3]))}}},Bt={f:H,i:b},It={f:H,i:function(t,n,e){var r=b(t,n,e);return r<=0?0:r>=1?1:r}},jt={f:function(t){var n=arguments.length>1&&void 0!==arguments[1]?arguments[1]:" ";return t&&t.length>0&&(t=t.map((function(t){return Math.floor(1e4*t)/1e4}))),X(t,n)},i:function(t,n,e){var r,i,u,o=n.length,a=e.length;if(o!==a)if(0===o)n=O(o=a,0);else if(0===a)a=o,e=O(o,0);else{var l=(u=(r=o)*(i=a)/function(t,n){for(var e;n;)e=n,n=t%n,t=e;return t||1}(r,i))<0?-u:u;n=E(n,Math.floor(l/o)),e=E(e,Math.floor(l/a)),o=a=l}for(var f=[],s=0;s<o;s++)f.push(g(w(t,n[s],e[s]),6));return f}};function Pt(t,n,e,r,i,u,o,a){return n=function(t,n,e){for(var r,i,u,o=t.length-1,a={},l=0;l<=o;l++)(r=t[l]).e&&(r.e=n(r.e)),r.v&&"g"===(i=r.v).t&&i.r&&(u=e.getElementById(i.r))&&(a[i.r]=u.querySelectorAll("stop"));return a}(t,r,a),function(r){var i,u=e(r,t,Ft);return u?"c"===u.t?Q(u.v):"g"===u.t?(n[u.r]&&function(t,n){for(var e=0,r=t.length;e<r;e++)t[e].setAttribute("stop-color",Q(n[e]))}(n[u.r],u.v),(i=u.r)?"url(#"+i+")":"none"):"none":"none"}}function Ft(t,n,e){if(0===t)return n;if(1===t)return e;if(n&&e){var r=n.t;if(r===e.t)switch(n.t){case"c":return{t:r,v:_(t,n.v,e.v)};case"g":if(n.r===e.r)return{t:r,v:S(t,n.v,e.v),r:n.r}}}return m(t,n,e)}var Rt={blur:k,brightness:w,contrast:w,"drop-shadow":function(t,n,e){return 0===t?n:1===t?e:{blur:k(t,n.blur,e.blur),offset:x(t,n.offset,e.offset),color:_(t,n.color,e.color)}},grayscale:w,"hue-rotate":b,invert:w,opacity:w,saturate:w,sepia:w};function Tt(t,n,e){if(0===t)return n;if(1===t)return e;var r=n.length;if(r!==e.length)return m(t,n,e);for(var i,u=[],o=0;o<r;o++){if(n[o].type!==e[o].type)return n;if(!(i=Rt[n[o].type]))return m(t,n,e);u.push({type:n.type,value:i(t,n[o].value,e[o].value)})}return u}var qt={blur:function(t){return t?function(n){t.setAttribute("stdDeviation",$(n))}:null},brightness:function(t,n,e){return(t=Vt(e,n))?function(n){n=H(n),t.map((function(t){return t.setAttribute("slope",n)}))}:null},contrast:function(t,n,e){return(t=Vt(e,n))?function(n){var e=H((1-n)/2);n=H(n),t.map((function(t){t.setAttribute("slope",n),t.setAttribute("intercept",e)}))}:null},"drop-shadow":function(t,n,e){var r=e.getElementById(n+"-blur");if(!r)return null;var i=e.getElementById(n+"-offset");if(!i)return null;var u=e.getElementById(n+"-flood");return u?function(t){r.setAttribute("stdDeviation",$(t.blur)),i.setAttribute("dx",H(t.offset.x)),i.setAttribute("dy",H(t.offset.y)),u.setAttribute("flood-color",Q(t.color))}:null},grayscale:function(t){return t?function(n){t.setAttribute("values",X(function(t){return[.2126+.7874*(t=1-t),.7152-.7152*t,.0722-.0722*t,0,0,.2126-.2126*t,.7152+.2848*t,.0722-.0722*t,0,0,.2126-.2126*t,.7152-.7152*t,.0722+.9278*t,0,0,0,0,0,1,0]}(n)))}:null},"hue-rotate":function(t){return t?function(n){return t.setAttribute("values",H(n))}:null},invert:function(t,n,e){return(t=Vt(e,n))?function(n){n=H(n)+" "+H(1-n),t.map((function(t){return t.setAttribute("tableValues",n)}))}:null},opacity:function(t,n,e){return(t=e.getElementById(n+"-A"))?function(n){return t.setAttribute("tableValues","0 "+H(n))}:null},saturate:function(t){return t?function(n){return t.setAttribute("values",H(n))}:null},sepia:function(t){return t?function(n){return t.setAttribute("values",X(function(t){return[.393+.607*(t=1-t),.769-.769*t,.189-.189*t,0,0,.349-.349*t,.686+.314*t,.168-.168*t,0,0,.272-.272*t,.534-.534*t,.131+.869*t,0,0,0,0,0,1,0]}(n)))}:null}};var Ct=["R","G","B"];function Vt(t,n){var e=Ct.map((function(e){return t.getElementById(n+"-"+e)||null}));return-1!==e.indexOf(null)?null:e}var Nt={fill:Pt,"fill-opacity":It,stroke:Pt,"stroke-opacity":It,"stroke-width":Bt,"stroke-dashoffset":{f:H,i:b},"stroke-dasharray":jt,opacity:It,transform:function(n,e,r,i){if(!(n=function(n,e){if(!n||"object"!==t(n))return null;var r=!1;for(var i in n)n.hasOwnProperty(i)&&(n[i]&&n[i].length?(n[i].forEach((function(t){t.e&&(t.e=e(t.e))})),r=!0):delete n[i]);return r?n:null}(n,i)))return null;var u=function(t,i,u){var o=arguments.length>3&&void 0!==arguments[3]?arguments[3]:null;return n[t]?r(i,n[t],u):e&&e[t]?e[t]:o};return e&&e.a&&n.o?function(t){var e=r(t,n.o,At);return Mt.recomposeSelf(e,u("r",t,b,0)+e.a,u("k",t,x),u("s",t,x),u("t",t,x)).toString()}:function(t){return Mt.recomposeSelf(u("o",t,kt,null),u("r",t,b,0),u("k",t,x),u("s",t,x),u("t",t,x)).toString()}},"#filter":function(t,n,e,r,i,u,o,a){if(!n.items||!t||!t.length)return null;var l=function(t,n){var e=(t=t.map((function(t){return t&&qt[t[0]]?(n.getElementById(t[1]),qt[t[0]](n.getElementById(t[1]),t[1],n)):null}))).length;return function(n){for(var r=0;r<e;r++)t[r]&&t[r](n[r].value)}}(n.items,a);return l?(t=function(t,n){return t.map((function(t){return t.e=n(t.e),t}))}(t,r),function(n){l(e(n,t,Tt))}):null},"#line":Et,points:{f:X,i:M},d:Ot,r:Bt,"#size":J,"#radius":Z,_:function(t,n){if(Array.isArray(t))for(var e=0;e<t.length;e++)this[t[e]]=n;else this[t]=n}};return function(t){!function(t,n){if("function"!=typeof n&&null!==n)throw new TypeError("Super expression must either be null or a function");t.prototype=Object.create(n&&n.prototype,{constructor:{value:t,writable:!0,configurable:!0}}),n&&u(t,n)}(o,t);var e=a(o);function o(){return n(this,o),e.apply(this,arguments)}return r(o,null,[{key:"build",value:function(t){var n=l(i(o),"build",this).call(this,t,Nt),e=n.el,r=n.options,u=n.player;return function(t,n,e){if("click"===e.start){return void n.addEventListener("click",(function(){switch(e.click){case"freeze":return!t._running&&t.reachedToEnd()&&(t.offset=0),t._running?t.pause():t.play();case"restart":return t.offset>0?t.restart():t.play();case"reverse":var n=!t._rollingBack&&t._running,r=t.reachedToEnd();return n||r&&1===t.fill?(t.pause(),r&&(t.offset=t.duration-1),t._rollback()):r?t.restart():t.play();case"none":default:return!t._running&&t.offset?t.restart():t.play()}}))}if("hover"===e.start)return n.addEventListener("mouseenter",(function(){return t.reachedToEnd()?t.restart():t.play()})),void n.addEventListener("click",(function(){return t.reachedToEnd()?t.restart():t.play()})),void n.addEventListener("mouseleave",(function(){switch(e.hover){case"freeze":return t.pause();case"reset":return t.stop();case"reverse":return t.pause(),t._rollback();case"none":default:return}}));if("scroll"===e.start)return void new Y(n,e.scroll||25,(function(n){n?t.reachedToEnd()?t.restart():t.play():t.pause()}));t.play()}(u,e,r),u}}]),o}(U)}));
__SVGATOR_PLAYER__.build({"root":"e4m6p67i7qre1","animations":[{"duration":4000,"direction":1,"iterations":1,"fill":1,"alternate":false,"elements":{"e4m6p67i7qre10":{"transform":{"data":{"t":{"x":-45.78418306485994,"y":-37.61825847201812}},"keys":{"o":[{"t":0,"v":{"x":45.80000114440918,"y":37.5,"type":"corner"},"e":[0.68,-0.55,0.265,1.55]},{"t":400,"v":{"x":103.99927054799903,"y":37.500001018517736,"type":"corner"},"e":[0.68,-0.55,0.265,1.55]}],"r":[{"t":300,"v":-14.401158383810099,"e":[0.105,0.71,0.28,1.13]},{"t":700,"v":-23.878490669436385,"e":[0.215,0.86,0.44,0.925]},{"t":1700,"v":34.738371787042354,"e":[0.29,0.625,0.28,1.13]},{"t":4000,"v":318.47627025658477,"e":[0.29,0.625,0.28,1.13]}]}}},"e4m6p67i7qre11":{"transform":{"data":{"t":{"x":7.629394502828291e-7,"y":0}},"keys":{"o":[{"t":0,"v":{"x":45.80000114440918,"y":37.5,"type":"corner"},"e":[0.68,-0.55,0.265,1.55]},{"t":400,"v":{"x":103.99927054799903,"y":37.500001018517736,"type":"corner"},"e":[0.68,-0.55,0.265,1.55]}]}}},"e4m6p67i7qre12":{"transform":{"data":{"t":{"x":-0.000001144409182529671,"y":0}},"keys":{"o":[{"t":0,"v":{"x":45.80000114440918,"y":37.5,"type":"corner"},"e":[0.68,-0.55,0.265,1.55]},{"t":400,"v":{"x":103.99927054799903,"y":37.500001018517736,"type":"corner"},"e":[0.68,-0.55,0.265,1.55]},{"t":900,"v":{"x":104.03468286300054,"y":37.38606555215439,"type":"corner"}}]}}},"e4m6p67i7qre13":{"transform":{"data":{"t":{"x":0.000002670288083095329,"y":-0.0000019073486328125}},"keys":{"o":[{"t":0,"v":{"x":45.80000114440918,"y":37.5,"type":"corner"},"e":[0.68,-0.55,0.265,1.55]},{"t":400,"v":{"x":103.99927054799903,"y":37.500001018517736,"type":"corner"},"e":[0.68,-0.55,0.265,1.55]}],"r":[{"t":300,"v":0,"e":[0.345,0.69,0.565,1]},{"t":600,"v":-30},{"t":1600,"v":45,"e":[0.42,-0.1,0.32,1.275]},{"t":4000,"v":720,"e":[0.42,-0.1,0.32,1.275]}]}}},"e4m6p67i7qre14":{"transform":{"data":{"t":{"x":0.000002670288083095329,"y":-0.0000019073486328125}},"keys":{"o":[{"t":0,"v":{"x":45.80000114440918,"y":37.5,"type":"corner"},"e":[0.68,-0.55,0.265,1.55]},{"t":400,"v":{"x":103.99927054799903,"y":37.500001018517736,"type":"corner"},"e":[0.68,-0.55,0.265,1.55]}],"r":[{"t":0,"v":0,"e":[0.42,-0.1,0.32,1.275]},{"t":4000,"v":360,"e":[0.42,-0.1,0.32,1.275]}]}}},"e4m6p67i7qre19":{"transform":{"data":{"t":{"x":-98.50500106811523,"y":-96.43999862670898}},"keys":{"o":[{"t":0,"v":{"x":226.7374278094728,"y":96.85231890854489,"type":"corner"}},{"t":300,"v":{"x":89.01561224947284,"y":96.86248591854488,"type":"corner"}},{"t":500,"v":{"x":98.50000533947292,"y":96.86366799854488,"type":"corner"}},{"t":1000,"v":{"x":93.83957733947278,"y":96.44000116854484,"type":"corner"}}]}}},"e4m6p67i7qre103":{"transform":{"data":{"o":{"x":182.18742972,"y":96.36231946999976,"type":"corner"},"t":{"x":-41.000000004999606,"y":-85.58471669999864}},"keys":{"s":[{"t":0,"v":{"x":1,"y":1}},{"t":100,"v":{"x":4.386520146361328,"y":1}}]}}},"e4m6p67i7qre104":{"transform":{"data":{"o":{"x":296.78972102,"y":100.13820471,"type":"corner"},"t":{"x":-92.83000053499987,"y":-93.50000023499975}},"keys":{"r":[{"t":2100,"v":0,"e":[0.68,-0.55,0.265,1.55]},{"t":2700,"v":-90},{"t":3000,"v":-90,"e":[0.68,-0.55,0.265,1.55]},{"t":3600,"v":-180.04410184014802,"e":[0.68,-0.55,0.265,1.55]}]}}},"e4m6p67i7qre105":{"stroke-dashoffset":[{"t":1400,"v":45.83},{"t":1700,"v":0}]},"e4m6p67i7qre106":{"stroke-dashoffset":[{"t":900,"v":97.33},{"t":1200,"v":0}]},"e4m6p67i7qre107":{"stroke-dashoffset":[{"t":400,"v":39.2},{"t":700,"v":0}]},"e4m6p67i7qre108":{"opacity":[{"t":700,"v":0},{"t":900,"v":1}]},"e4m6p67i7qre109":{"opacity":[{"t":1200,"v":0},{"t":1400,"v":1}]},"e4m6p67i7qre110":{"transform":{"data":{"o":{"x":296.78972102,"y":100.13820471,"type":"corner"},"t":{"x":-92.83000053499987,"y":-93.50000023499975}},"keys":{"r":[{"t":2100,"v":-180.28648315003113,"e":[0.68,-0.55,0.265,1.55]},{"t":2700,"v":-270.2432421963173,"e":[0.68,-0.55,0.265,1.55]},{"t":3000,"v":-270,"e":[0.68,-0.55,0.265,1.55]},{"t":3600,"v":-360,"e":[0.68,-0.55,0.265,1.55]}]}}},"e4m6p67i7qre111":{"stroke-dashoffset":[{"t":1400,"v":45.83},{"t":1700,"v":0}]},"e4m6p67i7qre112":{"stroke-dashoffset":[{"t":900,"v":97.33},{"t":1200,"v":0}]},"e4m6p67i7qre113":{"stroke-dashoffset":[{"t":400,"v":39.2},{"t":700,"v":0}]},"e4m6p67i7qre114":{"opacity":[{"t":700,"v":0},{"t":900,"v":1}]},"e4m6p67i7qre115":{"opacity":[{"t":1200,"v":0},{"t":1400,"v":1}]},"e4m6p67i7qre116":{"transform":{"data":{"o":{"x":200,"y":100,"type":"corner"},"t":{"x":-187.99999999999991,"y":-99.99999999695623}},"keys":{"s":[{"t":0,"v":{"x":1,"y":1},"e":[0.455,0.03,0.515,0.955]},{"t":400,"v":{"x":1,"y":0},"e":[0.455,0.03,0.515,0.955]}]}}},"e4m6p67i7qre117":{"opacity":[{"t":1730,"v":0},{"t":2030,"v":1}]}}}],"options":{"start":"hover","hover":"none","click":"freeze","scroll":25,"exportedIds":"unique","title":"42%"},"animationSettings":{"duration":4000,"direction":1,"iterations":1,"fill":1,"alternate":false}})]]></script></svg>