<svg xmlns="http://www.w3.org/2000/svg" viewBox="0 0 179.83 179.83"><defs><style>.cls-1{fill:#1e2f98;opacity:0.49;}.cls-1,.cls-3,.cls-4{isolation:isolate;}.cls-2{opacity:0.7;}.cls-3{font-size:101.03px;fill:#797ef6;font-family:HelveticaNeue-Thin, Helvetica Neue;font-weight:200;letter-spacing:0.1em;}.cls-4{font-size:10.23px;font-family:HelveticaNeue-Medium, Helvetica Neue;font-weight:500;}.cls-4,.cls-5{fill:#f2f2f2;}.cls-6{fill:#fff;}</style></defs><g id="Layer_1" data-name="Layer 1"><rect class="cls-1" width="179.83" height="179.83"/><g class="cls-2"><text class="cls-3" transform="translate(34.96 118.81)">01</text></g><text class="cls-4" transform="translate(19.86 160.2)">LEARN MORE</text><polygon class="cls-5" points="95 150.78 95 162.68 101.54 156.73 95 150.78"/><path class="cls-6" d="M23.69,44.39a3.47,3.47,0,0,1,1.37.24,2.45,2.45,0,0,1,.92.62,2.27,2.27,0,0,1,.52.87,3.51,3.51,0,0,1,.16,1,3.56,3.56,0,0,1-.16,1A2.39,2.39,0,0,1,26,49a2.71,2.71,0,0,1-.92.62,3.67,3.67,0,0,1-1.37.23h-2V53H19.83V44.39Zm-.51,4a4.21,4.21,0,0,0,.62,0,1.45,1.45,0,0,0,.53-.19,1.07,1.07,0,0,0,.37-.39,1.74,1.74,0,0,0,0-1.32,1.07,1.07,0,0,0-.37-.39,1.44,1.44,0,0,0-.53-.18,3.18,3.18,0,0,0-.62,0H21.71v2.57Z"/><path class="cls-6" d="M27.7,45.8V44.39h1.71V45.8Zm1.71,1V53H27.7v-6.2Z"/><path class="cls-6" d="M32.28,53l-2.12-6.2H32L33.26,51h0l1.31-4.23h1.69L34.18,53Z"/><path class="cls-6" d="M37,48.52a2.83,2.83,0,0,1,1.66-1.7A3.65,3.65,0,0,1,40,46.59a3.75,3.75,0,0,1,1.33.23,3.05,3.05,0,0,1,1,.66,2.92,2.92,0,0,1,.65,1,4,4,0,0,1,0,2.69,3,3,0,0,1-.65,1,2.88,2.88,0,0,1-1,.65,3.75,3.75,0,0,1-1.33.23,3.65,3.65,0,0,1-1.32-.23,2.88,2.88,0,0,1-1-.65,3.12,3.12,0,0,1-.65-1,4.22,4.22,0,0,1,0-2.69Zm1.55,2.07a1.9,1.9,0,0,0,.25.64,1.32,1.32,0,0,0,.46.45,1.42,1.42,0,0,0,.72.17,1.49,1.49,0,0,0,.73-.17,1.24,1.24,0,0,0,.46-.45,1.9,1.9,0,0,0,.25-.64,3.45,3.45,0,0,0,.07-.72,3.64,3.64,0,0,0-.07-.74,1.77,1.77,0,0,0-.25-.63,1.24,1.24,0,0,0-.46-.45,1.39,1.39,0,0,0-.73-.18,1.32,1.32,0,0,0-1.18.63,1.77,1.77,0,0,0-.25.63,3.64,3.64,0,0,0-.07.74A3.45,3.45,0,0,0,38.57,50.59Z"/><path class="cls-6" d="M47.73,46.76V47.9H46.48V51a.82.82,0,0,0,.15.58.84.84,0,0,0,.57.14h.28l.25,0V53a3.22,3.22,0,0,1-.48,0h-.52A6,6,0,0,1,46,53a2,2,0,0,1-.62-.21,1.17,1.17,0,0,1-.43-.45,1.61,1.61,0,0,1-.15-.75V47.9h-1V46.76h1V44.9h1.7v1.86Z"/><path class="cls-6" d="M55.93,44.39a3.45,3.45,0,0,1,1.36.24,2.37,2.37,0,0,1,.92.62,2.27,2.27,0,0,1,.52.87,3.51,3.51,0,0,1,.16,1,3.56,3.56,0,0,1-.16,1,2.39,2.39,0,0,1-.52.88,2.61,2.61,0,0,1-.92.62,3.65,3.65,0,0,1-1.36.23h-2V53H52.06V44.39Zm-.52,4a4.21,4.21,0,0,0,.62,0,1.45,1.45,0,0,0,.53-.19,1.07,1.07,0,0,0,.37-.39,1.74,1.74,0,0,0,0-1.32,1.07,1.07,0,0,0-.37-.39,1.44,1.44,0,0,0-.53-.18,3.18,3.18,0,0,0-.62,0H53.94v2.57Z"/><path class="cls-6" d="M59.92,48.52a2.92,2.92,0,0,1,.65-1,3.05,3.05,0,0,1,1-.66,3.65,3.65,0,0,1,1.32-.23,3.69,3.69,0,0,1,1.32.23,3,3,0,0,1,1,.66,3.06,3.06,0,0,1,.65,1,4.22,4.22,0,0,1,0,2.69,3.12,3.12,0,0,1-.65,1,2.83,2.83,0,0,1-1,.65,3.69,3.69,0,0,1-1.32.23,3.65,3.65,0,0,1-1.32-.23,2.88,2.88,0,0,1-1-.65,3,3,0,0,1-.65-1,4,4,0,0,1,0-2.69Zm1.55,2.07a2.12,2.12,0,0,0,.24.64,1.27,1.27,0,0,0,.47.45,1.61,1.61,0,0,0,1.44,0,1.2,1.2,0,0,0,.47-.45,1.9,1.9,0,0,0,.25-.64,3.45,3.45,0,0,0,.07-.72,3.64,3.64,0,0,0-.07-.74,1.77,1.77,0,0,0-.25-.63,1.2,1.2,0,0,0-.47-.45,1.53,1.53,0,0,0-1.44,0,1.27,1.27,0,0,0-.47.45,2,2,0,0,0-.24.63,3.64,3.64,0,0,0-.07.74A3.45,3.45,0,0,0,61.47,50.59Z"/><path class="cls-6" d="M72.56,53,71.45,48.8h0L70.37,53H68.61l-2-6.2h1.8L69.58,51h0l1-4.21h1.65L73.35,51h0l1.14-4.2h1.76l-2,6.2Z"/><path class="cls-6" d="M78.81,51.47a1.5,1.5,0,0,0,1.1.38,1.53,1.53,0,0,0,.89-.26,1.1,1.1,0,0,0,.46-.55h1.5a2.83,2.83,0,0,1-1.11,1.6,3.22,3.22,0,0,1-1.8.48,3.45,3.45,0,0,1-1.32-.24,2.61,2.61,0,0,1-1-.66,2.78,2.78,0,0,1-.63-1,3.73,3.73,0,0,1-.23-1.32,3.66,3.66,0,0,1,.23-1.3,3,3,0,0,1,.65-1,3.08,3.08,0,0,1,1-.69,3.19,3.19,0,0,1,1.29-.25,2.87,2.87,0,0,1,1.38.31,2.66,2.66,0,0,1,1,.82,3.31,3.31,0,0,1,.54,1.17,4,4,0,0,1,.12,1.38H78.39A1.66,1.66,0,0,0,78.81,51.47Zm1.92-3.26a1.2,1.2,0,0,0-.93-.34,1.48,1.48,0,0,0-.67.14,1.4,1.4,0,0,0-.44.34,1.3,1.3,0,0,0-.22.44,1.66,1.66,0,0,0-.08.4h2.77A1.9,1.9,0,0,0,80.73,48.21Z"/><path class="cls-6" d="M85.49,46.76v1.15h0a1.92,1.92,0,0,1,.32-.53,1.87,1.87,0,0,1,.47-.42,1.93,1.93,0,0,1,.56-.27,1.89,1.89,0,0,1,.63-.1,1.35,1.35,0,0,1,.37.06v1.58l-.29,0-.32,0a1.9,1.9,0,0,0-.8.16,1.37,1.37,0,0,0-.52.43,1.81,1.81,0,0,0-.28.63,3.22,3.22,0,0,0-.08.78V53H83.87v-6.2Z"/><path class="cls-6" d="M97.23,49v1.47h-6V49Z"/><path class="cls-6" d="M103.28,44.39v3.29h3.46V44.39h1.89V53h-1.89V49.27h-3.46V53h-1.89V44.39Z"/><path class="cls-6" d="M110.14,48.52a2.92,2.92,0,0,1,.65-1,3,3,0,0,1,1-.66,3.65,3.65,0,0,1,1.32-.23,3.69,3.69,0,0,1,1.32.23,3,3,0,0,1,1,.66,2.89,2.89,0,0,1,.64,1,4,4,0,0,1,0,2.69,2.94,2.94,0,0,1-.64,1,2.83,2.83,0,0,1-1,.65,3.69,3.69,0,0,1-1.32.23,3.65,3.65,0,0,1-1.32-.23,2.79,2.79,0,0,1-1-.65,3,3,0,0,1-.65-1,4,4,0,0,1,0-2.69Zm1.55,2.07a2.12,2.12,0,0,0,.24.64,1.27,1.27,0,0,0,.47.45,1.42,1.42,0,0,0,.72.17,1.45,1.45,0,0,0,.72-.17,1.27,1.27,0,0,0,.47-.45,1.9,1.9,0,0,0,.25-.64,4.28,4.28,0,0,0,.07-.72,4.53,4.53,0,0,0-.07-.74,1.77,1.77,0,0,0-.25-.63,1.27,1.27,0,0,0-.47-.45,1.35,1.35,0,0,0-.72-.18,1.33,1.33,0,0,0-.72.18,1.27,1.27,0,0,0-.47.45,2,2,0,0,0-.24.63,3.64,3.64,0,0,0-.07.74A3.45,3.45,0,0,0,111.69,50.59Z"/><path class="cls-6" d="M122.78,53l-1.11-4.16h0L120.59,53h-1.76l-2-6.2h1.8L119.8,51h0l1-4.21h1.65l1.06,4.2h0l1.14-4.2h1.75l-2,6.2Z"/><path class="cls-6" d="M135.8,52.9a3.19,3.19,0,0,1-1.24.25,4.33,4.33,0,0,1-1.77-.34,3.87,3.87,0,0,1-1.33-.94,4.12,4.12,0,0,1-.82-1.41,5,5,0,0,1-.29-1.75,5.15,5.15,0,0,1,.29-1.78,4.21,4.21,0,0,1,.82-1.43,3.79,3.79,0,0,1,1.33-1,4.33,4.33,0,0,1,1.77-.35,4.23,4.23,0,0,1,1.28.2A3.46,3.46,0,0,1,137,45a3.19,3.19,0,0,1,1.22,2.24h-1.8a1.8,1.8,0,0,0-.65-1.08,1.86,1.86,0,0,0-1.16-.36,2.24,2.24,0,0,0-1.08.25,1.91,1.91,0,0,0-.72.66,2.73,2.73,0,0,0-.4.94,4.4,4.4,0,0,0-.13,1.09,4.08,4.08,0,0,0,.13,1,2.63,2.63,0,0,0,.4.92,2.08,2.08,0,0,0,.72.66,2.24,2.24,0,0,0,1.08.24,1.83,1.83,0,0,0,2-1.85h-1.9v-1.4h3.6V53h-1.2l-.19-1A3,3,0,0,1,135.8,52.9Z"/><path class="cls-6" d="M142.48,44.39l2,5.9h0l1.89-5.9h2.65V53h-1.76V46.89h0L145.17,53h-1.46l-2.1-6h0v6h-1.76V44.39Z"/><path class="cls-6" d="M19.58,62.67a1.91,1.91,0,0,1,.3-1,2.05,2.05,0,0,1,.67-.64,3,3,0,0,1,.92-.34,5,5,0,0,1,1-.1,6.08,6.08,0,0,1,1,.07,3.09,3.09,0,0,1,.88.25,1.8,1.8,0,0,1,.65.54,1.55,1.55,0,0,1,.25.9v3.23a5.34,5.34,0,0,0,.05.81,1.44,1.44,0,0,0,.16.57H23.71a1.38,1.38,0,0,1-.08-.29,1.55,1.55,0,0,1,0-.31,2.3,2.3,0,0,1-1,.59,4,4,0,0,1-1.13.17,3.14,3.14,0,0,1-.83-.11,1.7,1.7,0,0,1-.67-.34,1.59,1.59,0,0,1-.45-.57,1.92,1.92,0,0,1-.16-.83,1.87,1.87,0,0,1,.18-.87,1.72,1.72,0,0,1,.48-.55,2.4,2.4,0,0,1,.67-.3,7,7,0,0,1,.77-.16c.25,0,.5-.08.75-.1a3.78,3.78,0,0,0,.66-.11,1.23,1.23,0,0,0,.46-.21.45.45,0,0,0,.15-.4.93.93,0,0,0-.09-.44.64.64,0,0,0-.24-.25.92.92,0,0,0-.34-.12,3,3,0,0,0-.43,0,1.24,1.24,0,0,0-.79.22,1,1,0,0,0-.34.72Zm3.93,1.26a.87.87,0,0,1-.27.15l-.34.09-.39.06a2.7,2.7,0,0,0-.41.06,2.34,2.34,0,0,0-.38.09,1.37,1.37,0,0,0-.32.16.82.82,0,0,0-.23.26,1,1,0,0,0-.08.4.86.86,0,0,0,.08.38.7.7,0,0,0,.23.25.92.92,0,0,0,.34.12,1.72,1.72,0,0,0,.39,0,1.5,1.5,0,0,0,.78-.17,1.05,1.05,0,0,0,.41-.4,1.25,1.25,0,0,0,.16-.47,3.28,3.28,0,0,0,0-.39Z"/><path class="cls-6" d="M28.16,60.76v.86h0a2,2,0,0,1,.84-.78,2.39,2.39,0,0,1,1.06-.25,2.75,2.75,0,0,1,1.12.19,1.64,1.64,0,0,1,.69.51,2,2,0,0,1,.36.81,5.51,5.51,0,0,1,.1,1V67H30.65v-3.5a2.19,2.19,0,0,0-.24-1.15.93.93,0,0,0-.85-.38,1.18,1.18,0,0,0-1,.42,2.35,2.35,0,0,0-.31,1.36V67h-1.7v-6.2Z"/><path class="cls-6" d="M38.06,66.17a1.74,1.74,0,0,1-.79.73,2.73,2.73,0,0,1-1.1.22A2.64,2.64,0,0,1,35,66.85a2.57,2.57,0,0,1-.87-.73,3.44,3.44,0,0,1-.52-1.07,4.64,4.64,0,0,1-.17-1.24,4.42,4.42,0,0,1,.17-1.21,3.22,3.22,0,0,1,.52-1,2.6,2.6,0,0,1,.86-.71,2.66,2.66,0,0,1,2.25,0,1.87,1.87,0,0,1,.78.69h0V58.39h1.7V67H38.08v-.79ZM38,63.1a1.8,1.8,0,0,0-.25-.62,1.45,1.45,0,0,0-.45-.44,1.34,1.34,0,0,0-.7-.17,1.37,1.37,0,0,0-.7.17,1.27,1.27,0,0,0-.47.45,2,2,0,0,0-.25.63,3.47,3.47,0,0,0-.08.73,3,3,0,0,0,.09.72,1.79,1.79,0,0,0,.27.65,1.44,1.44,0,0,0,.47.45,1.2,1.2,0,0,0,.67.18,1.41,1.41,0,0,0,.71-.17,1.38,1.38,0,0,0,.45-.45,2.12,2.12,0,0,0,.24-.64,4,4,0,0,0,0-1.49Z"/><path class="cls-6" d="M46.39,58.39v3.29h3.46V58.39h1.89V67H49.85V63.27H46.39V67H44.5V58.39Z"/><path class="cls-6" d="M53.26,59.8V58.39H55V59.8Zm1.71,1V67H53.26v-6.2Z"/><path class="cls-6" d="M59.72,60.76V61.9H58.47V65a.57.57,0,0,0,.72.72h.27l.26,0V67a3.54,3.54,0,0,1-.48.05h-.52A6,6,0,0,1,58,67a1.89,1.89,0,0,1-.62-.21,1.1,1.1,0,0,1-.43-.45,1.61,1.61,0,0,1-.16-.75V61.9h-1V60.76h1V58.9h1.71v1.86Z"/><path class="cls-6" d="M60.46,62.67a1.91,1.91,0,0,1,.3-1,2.15,2.15,0,0,1,.67-.64,3,3,0,0,1,.92-.34,5.07,5.07,0,0,1,1-.1,6,6,0,0,1,.94.07,3,3,0,0,1,.88.25,1.8,1.8,0,0,1,.65.54,1.48,1.48,0,0,1,.25.9v3.23a7,7,0,0,0,.05.81,1.43,1.43,0,0,0,.17.57H64.59a2.45,2.45,0,0,1-.08-.29,2.91,2.91,0,0,1,0-.31,2.18,2.18,0,0,1-1,.59,4,4,0,0,1-1.13.17,3.14,3.14,0,0,1-.83-.11,1.77,1.77,0,0,1-.67-.34,1.59,1.59,0,0,1-.45-.57,1.92,1.92,0,0,1-.16-.83,1.87,1.87,0,0,1,.18-.87,1.72,1.72,0,0,1,.48-.55,2.34,2.34,0,0,1,.68-.3,6.41,6.41,0,0,1,.76-.16c.25,0,.51-.08.75-.1a3.78,3.78,0,0,0,.66-.11,1.16,1.16,0,0,0,.46-.21.48.48,0,0,0,.16-.4.93.93,0,0,0-.09-.44.64.64,0,0,0-.24-.25,1,1,0,0,0-.35-.12,2.9,2.9,0,0,0-.43,0,1.26,1.26,0,0,0-.79.22,1,1,0,0,0-.34.72Zm3.94,1.26a1.17,1.17,0,0,1-.27.15l-.35.09-.39.06a2.9,2.9,0,0,0-.41.06,2.62,2.62,0,0,0-.38.09,1.37,1.37,0,0,0-.32.16.78.78,0,0,0-.22.26.82.82,0,0,0-.09.4.74.74,0,0,0,.09.38.6.6,0,0,0,.22.25.92.92,0,0,0,.34.12,1.75,1.75,0,0,0,.4,0,1.56,1.56,0,0,0,.78-.17,1,1,0,0,0,.4-.4,1.28,1.28,0,0,0,.17-.47,3.28,3.28,0,0,0,0-.39Z"/><path class="cls-6" d="M70.38,61.87a1.21,1.21,0,0,0-.68.19,1.48,1.48,0,0,0-.45.48,2,2,0,0,0-.25.65,4.15,4.15,0,0,0-.07.7,4,4,0,0,0,.07.68,2,2,0,0,0,.24.63,1.32,1.32,0,0,0,.44.47,1.17,1.17,0,0,0,.67.18,1.24,1.24,0,0,0,.94-.35,1.54,1.54,0,0,0,.41-.91h1.65a2.79,2.79,0,0,1-1,1.88,3.13,3.13,0,0,1-2,.65,3.35,3.35,0,0,1-1.28-.24,2.71,2.71,0,0,1-1-.65,2.94,2.94,0,0,1-.63-1A3.35,3.35,0,0,1,67.23,64a4.14,4.14,0,0,1,.21-1.34,2.92,2.92,0,0,1,.62-1.07,2.83,2.83,0,0,1,1-.7,3.35,3.35,0,0,1,1.35-.25,4.17,4.17,0,0,1,1.06.14,3.07,3.07,0,0,1,.91.44,2.27,2.27,0,0,1,.65.73,2.3,2.3,0,0,1,.29,1H71.64A1.14,1.14,0,0,0,70.38,61.87Z"/><path class="cls-6" d="M76,58.39v3.23h0a1.88,1.88,0,0,1,.83-.78,2.13,2.13,0,0,1,1-.25,2.75,2.75,0,0,1,1.12.19,1.64,1.64,0,0,1,.69.51,2,2,0,0,1,.36.81,5.51,5.51,0,0,1,.1,1V67H78.42v-3.5a2.19,2.19,0,0,0-.24-1.15.93.93,0,0,0-.85-.38,1.18,1.18,0,0,0-1,.42A2.35,2.35,0,0,0,76,63.71V67h-1.7V58.39Z"/><path class="cls-6" d="M81.47,59.8V58.39h1.71V59.8Zm1.71,1V67H81.47v-6.2Z"/><path class="cls-6" d="M89.51,60.76v.84h0a2.41,2.41,0,0,1,.81-.75,2.21,2.21,0,0,1,1.08-.26,2.58,2.58,0,0,1,1.08.23,1.48,1.48,0,0,1,.73.8A2.87,2.87,0,0,1,94,60.9a2,2,0,0,1,1.13-.31,3.34,3.34,0,0,1,.91.12,1.71,1.71,0,0,1,1.19,1.07,2.9,2.9,0,0,1,.16,1V67h-1.7V63.45c0-.21,0-.41,0-.59a1.13,1.13,0,0,0-.14-.48.76.76,0,0,0-.31-.33,1.36,1.36,0,0,0-1.16,0,1,1,0,0,0-.34.36,1.4,1.4,0,0,0-.17.51,3.48,3.48,0,0,0,0,.57V67H91.79V63.48c0-.18,0-.36,0-.54a1.59,1.59,0,0,0-.1-.5.78.78,0,0,0-.3-.37,1.19,1.19,0,0,0-.94-.08.93.93,0,0,0-.38.2,1.21,1.21,0,0,0-.32.43,1.75,1.75,0,0,0-.13.74V67H87.9v-6.2Z"/><path class="cls-6" d="M98.76,62.52a2.83,2.83,0,0,1,1.66-1.7,3.65,3.65,0,0,1,1.32-.23,3.75,3.75,0,0,1,1.33.23,3.05,3.05,0,0,1,1,.66,2.92,2.92,0,0,1,.65,1,4,4,0,0,1,0,2.69,3,3,0,0,1-.65,1,2.88,2.88,0,0,1-1,.65,3.75,3.75,0,0,1-1.33.23,3.65,3.65,0,0,1-1.32-.23,2.88,2.88,0,0,1-1-.65,3.12,3.12,0,0,1-.65-1,4.22,4.22,0,0,1,0-2.69Zm1.55,2.07a1.9,1.9,0,0,0,.25.64,1.24,1.24,0,0,0,.46.45,1.42,1.42,0,0,0,.72.17,1.49,1.49,0,0,0,.73-.17,1.24,1.24,0,0,0,.46-.45,1.9,1.9,0,0,0,.25-.64,3.45,3.45,0,0,0,.07-.72,3.64,3.64,0,0,0-.07-.74,1.77,1.77,0,0,0-.25-.63,1.24,1.24,0,0,0-.46-.45,1.39,1.39,0,0,0-.73-.18,1.33,1.33,0,0,0-.72.18,1.24,1.24,0,0,0-.46.45,1.77,1.77,0,0,0-.25.63,3.64,3.64,0,0,0-.07.74A3.45,3.45,0,0,0,100.31,64.59Z"/><path class="cls-6" d="M107.6,67l-2.13-6.2h1.79L108.57,65h0l1.31-4.23h1.69l-2.1,6.2Z"/><path class="cls-6" d="M114.12,65.47a1.74,1.74,0,0,0,2,.12,1.07,1.07,0,0,0,.45-.55h1.5a2.86,2.86,0,0,1-1.1,1.6,3.27,3.27,0,0,1-1.8.48,3.45,3.45,0,0,1-1.32-.24,2.65,2.65,0,0,1-1-.66,3.07,3.07,0,0,1-.63-1,3.73,3.73,0,0,1-.22-1.32,3.66,3.66,0,0,1,.23-1.3,3,3,0,0,1,.65-1,3.08,3.08,0,0,1,1-.69,3.19,3.19,0,0,1,1.29-.25,2.87,2.87,0,0,1,1.38.31,2.63,2.63,0,0,1,1,.82,3.16,3.16,0,0,1,.55,1.17,4.5,4.5,0,0,1,.12,1.38H113.7A1.75,1.75,0,0,0,114.12,65.47Zm1.93-3.26a1.2,1.2,0,0,0-.93-.34,1.52,1.52,0,0,0-.68.14,1.35,1.35,0,0,0-.43.34,1.33,1.33,0,0,0-.23.44,2.35,2.35,0,0,0-.08.4h2.78A2,2,0,0,0,116.05,62.21Z"/><path class="cls-6" d="M123.59,66.17a1.76,1.76,0,0,1-.78.73,2.77,2.77,0,0,1-1.1.22,2.68,2.68,0,0,1-1.23-.27,2.57,2.57,0,0,1-.87-.73,3.42,3.42,0,0,1-.51-1.07,4.28,4.28,0,0,1-.18-1.24,4.07,4.07,0,0,1,.18-1.21,3.2,3.2,0,0,1,.51-1,2.71,2.71,0,0,1,.86-.71,2.56,2.56,0,0,1,1.2-.27,2.51,2.51,0,0,1,1,.23,1.89,1.89,0,0,1,.79.69h0V58.39h1.71V67h-1.62v-.79Zm-.07-3.07a1.8,1.8,0,0,0-.25-.62,1.27,1.27,0,0,0-.45-.44,1.31,1.31,0,0,0-.69-.17,1.41,1.41,0,0,0-.71.17,1.24,1.24,0,0,0-.46.45,1.77,1.77,0,0,0-.25.63,2.92,2.92,0,0,0-.08.73,3.53,3.53,0,0,0,.08.72,2.23,2.23,0,0,0,.27.65,1.55,1.55,0,0,0,.47.45,1.23,1.23,0,0,0,.68.18,1.37,1.37,0,0,0,.7-.17,1.21,1.21,0,0,0,.45-.45,2.12,2.12,0,0,0,.24-.64,4,4,0,0,0,0-1.49Z"/><path class="cls-6" d="M129.21,61.9V60.76h1v-.48a1.88,1.88,0,0,1,.51-1.36,2.12,2.12,0,0,1,1.56-.53l.46,0,.44,0v1.27a6.13,6.13,0,0,0-.62,0,.65.65,0,0,0-.5.16.8.8,0,0,0-.15.55v.37h1.18V61.9h-1.18V67h-1.7V61.9Z"/><path class="cls-6" d="M135.47,60.76v1.15h0a1.92,1.92,0,0,1,.32-.53,1.87,1.87,0,0,1,.47-.42,1.93,1.93,0,0,1,.56-.27,1.89,1.89,0,0,1,.63-.1,1.35,1.35,0,0,1,.37.06v1.58l-.29,0-.32,0a1.9,1.9,0,0,0-.8.16,1.37,1.37,0,0,0-.52.43,1.81,1.81,0,0,0-.28.63,3.22,3.22,0,0,0-.08.78V67h-1.71v-6.2Z"/><path class="cls-6" d="M138.34,62.52a2.92,2.92,0,0,1,.65-1,3,3,0,0,1,1-.66,3.65,3.65,0,0,1,1.32-.23,3.69,3.69,0,0,1,1.32.23,3,3,0,0,1,1,.66,2.89,2.89,0,0,1,.64,1,4,4,0,0,1,0,2.69,2.94,2.94,0,0,1-.64,1,2.83,2.83,0,0,1-1,.65,3.69,3.69,0,0,1-1.32.23,3.65,3.65,0,0,1-1.32-.23,2.79,2.79,0,0,1-1-.65,3,3,0,0,1-.65-1,4,4,0,0,1,0-2.69Zm1.55,2.07a2.12,2.12,0,0,0,.24.64,1.27,1.27,0,0,0,.47.45,1.42,1.42,0,0,0,.72.17,1.45,1.45,0,0,0,.72-.17,1.27,1.27,0,0,0,.47-.45,1.9,1.9,0,0,0,.25-.64,4.28,4.28,0,0,0,.07-.72,4.53,4.53,0,0,0-.07-.74,1.77,1.77,0,0,0-.25-.63,1.27,1.27,0,0,0-.47-.45,1.35,1.35,0,0,0-.72-.18,1.33,1.33,0,0,0-.72.18,1.27,1.27,0,0,0-.47.45,2,2,0,0,0-.24.63,3.64,3.64,0,0,0-.07.74A3.45,3.45,0,0,0,139.89,64.59Z"/><path class="cls-6" d="M147.29,60.76v.84h0a2.41,2.41,0,0,1,.81-.75,2.21,2.21,0,0,1,1.08-.26,2.58,2.58,0,0,1,1.08.23,1.48,1.48,0,0,1,.73.8,2.87,2.87,0,0,1,.75-.72,2,2,0,0,1,1.13-.31,3.34,3.34,0,0,1,.91.12A1.71,1.71,0,0,1,155,61.78a2.9,2.9,0,0,1,.16,1V67h-1.7V63.45c0-.21,0-.41,0-.59a1.13,1.13,0,0,0-.14-.48.76.76,0,0,0-.31-.33,1.36,1.36,0,0,0-1.16,0,1,1,0,0,0-.34.36,1.4,1.4,0,0,0-.17.51,3.48,3.48,0,0,0,0,.57V67h-1.71V63.48c0-.18,0-.36,0-.54a1.59,1.59,0,0,0-.1-.5.78.78,0,0,0-.3-.37,1.19,1.19,0,0,0-.94-.08.93.93,0,0,0-.38.2,1.21,1.21,0,0,0-.32.43,1.75,1.75,0,0,0-.13.74V67h-1.71v-6.2Z"/><path class="cls-6" d="M19.58,76.67a1.91,1.91,0,0,1,.3-1,2.05,2.05,0,0,1,.67-.64,3,3,0,0,1,.92-.34,5,5,0,0,1,1-.1,6.08,6.08,0,0,1,1,.07,3.09,3.09,0,0,1,.88.25,1.8,1.8,0,0,1,.65.54,1.55,1.55,0,0,1,.25.9v3.23a5.34,5.34,0,0,0,.05.81,1.44,1.44,0,0,0,.16.57H23.71a1.38,1.38,0,0,1-.08-.29,1.55,1.55,0,0,1,0-.31,2.3,2.3,0,0,1-1,.59,4,4,0,0,1-1.13.17,3.14,3.14,0,0,1-.83-.11,1.7,1.7,0,0,1-.67-.34,1.59,1.59,0,0,1-.45-.57,1.92,1.92,0,0,1-.16-.83,1.87,1.87,0,0,1,.18-.87,1.72,1.72,0,0,1,.48-.55,2.4,2.4,0,0,1,.67-.3,7,7,0,0,1,.77-.16c.25,0,.5-.08.75-.1a3.78,3.78,0,0,0,.66-.11,1.23,1.23,0,0,0,.46-.21.45.45,0,0,0,.15-.4.93.93,0,0,0-.09-.44.64.64,0,0,0-.24-.25.92.92,0,0,0-.34-.12,3,3,0,0,0-.43,0,1.24,1.24,0,0,0-.79.22,1,1,0,0,0-.34.72Zm3.93,1.26a.87.87,0,0,1-.27.15l-.34.09-.39.06a2.7,2.7,0,0,0-.41.06,2.34,2.34,0,0,0-.38.09,1.37,1.37,0,0,0-.32.16.82.82,0,0,0-.23.26,1,1,0,0,0-.08.4.86.86,0,0,0,.08.38.7.7,0,0,0,.23.25.92.92,0,0,0,.34.12,1.72,1.72,0,0,0,.39,0,1.5,1.5,0,0,0,.78-.17,1.05,1.05,0,0,0,.41-.4,1.25,1.25,0,0,0,.16-.47,3.28,3.28,0,0,0,0-.39Z"/><path class="cls-6" d="M30.74,81V80.1h0a2,2,0,0,1-.84.78,2.44,2.44,0,0,1-1.05.24,3,3,0,0,1-1.13-.18,1.64,1.64,0,0,1-.69-.51,2,2,0,0,1-.35-.81,4.8,4.8,0,0,1-.1-1.05V74.76h1.7v3.5a2.19,2.19,0,0,0,.24,1.15.94.94,0,0,0,.85.38,1.17,1.17,0,0,0,1-.42A2.27,2.27,0,0,0,30.65,78V74.76h1.71V81Z"/><path class="cls-6" d="M37.06,74.76V75.9H35.81V79a.82.82,0,0,0,.15.58.85.85,0,0,0,.57.14h.28l.25,0V81a3.22,3.22,0,0,1-.48.05h-.52a6,6,0,0,1-.75,0,2,2,0,0,1-.62-.21,1.08,1.08,0,0,1-.42-.45,1.49,1.49,0,0,1-.16-.75V75.9h-1V74.76h1V72.9h1.7v1.86Z"/><path class="cls-6" d="M37.91,76.52a2.92,2.92,0,0,1,.65-1,3.05,3.05,0,0,1,1-.66,3.65,3.65,0,0,1,1.32-.23,3.75,3.75,0,0,1,1.33.23,3.05,3.05,0,0,1,1,.66,2.92,2.92,0,0,1,.65,1,4,4,0,0,1,0,2.69,3,3,0,0,1-.65,1,2.88,2.88,0,0,1-1,.65,3.75,3.75,0,0,1-1.33.23,3.65,3.65,0,0,1-1.32-.23,2.88,2.88,0,0,1-1-.65,3,3,0,0,1-.65-1,4.22,4.22,0,0,1,0-2.69Zm1.55,2.07a1.9,1.9,0,0,0,.25.64,1.24,1.24,0,0,0,.46.45,1.61,1.61,0,0,0,1.44,0,1.2,1.2,0,0,0,.47-.45,1.9,1.9,0,0,0,.25-.64,3.45,3.45,0,0,0,.07-.72,3.64,3.64,0,0,0-.07-.74,1.77,1.77,0,0,0-.25-.63,1.2,1.2,0,0,0-.47-.45,1.53,1.53,0,0,0-1.44,0,1.24,1.24,0,0,0-.46.45,1.77,1.77,0,0,0-.25.63,3.64,3.64,0,0,0-.07.74A3.45,3.45,0,0,0,39.46,78.59Z"/><path class="cls-6" d="M46.64,79.42a1,1,0,0,0,.3.32,1.11,1.11,0,0,0,.41.19,2,2,0,0,0,.49.06,1.76,1.76,0,0,0,.38,0,1.21,1.21,0,0,0,.35-.13.92.92,0,0,0,.28-.24.65.65,0,0,0,.1-.38c0-.26-.17-.45-.51-.58A10.15,10.15,0,0,0,47,78.24c-.25-.06-.49-.12-.72-.2a2.91,2.91,0,0,1-.64-.3,1.41,1.41,0,0,1-.44-.47,1.36,1.36,0,0,1-.17-.69,1.8,1.8,0,0,1,.24-1A1.7,1.7,0,0,1,45.9,75a2.73,2.73,0,0,1,.87-.31,5.33,5.33,0,0,1,1-.09,4.53,4.53,0,0,1,1,.1,2.54,2.54,0,0,1,.85.32,1.87,1.87,0,0,1,.61.61,1.94,1.94,0,0,1,.3.95H48.87a.75.75,0,0,0-.37-.67,1.81,1.81,0,0,0-.8-.17l-.31,0a1,1,0,0,0-.3.08.59.59,0,0,0-.24.17.5.5,0,0,0-.09.31.45.45,0,0,0,.17.37,1.34,1.34,0,0,0,.43.23,4.28,4.28,0,0,0,.62.16l.71.16c.25.06.49.12.72.2a2.56,2.56,0,0,1,.64.32,1.59,1.59,0,0,1,.44.49,1.49,1.49,0,0,1,.17.73,1.88,1.88,0,0,1-.89,1.69,2.63,2.63,0,0,1-.91.36,5.91,5.91,0,0,1-1,.1,5.27,5.27,0,0,1-1-.11,2.76,2.76,0,0,1-.92-.36,2,2,0,0,1-.66-.67,2.12,2.12,0,0,1-.28-1h1.62A1,1,0,0,0,46.64,79.42Z"/><path class="cls-6" d="M58.4,74.76V75.9H57.15V79a.57.57,0,0,0,.72.72h.28l.25,0V81a3.54,3.54,0,0,1-.48.05H57.4a6,6,0,0,1-.75,0,2,2,0,0,1-.62-.21,1.17,1.17,0,0,1-.43-.45,1.61,1.61,0,0,1-.16-.75V75.9h-1V74.76h1V72.9h1.71v1.86Z"/><path class="cls-6" d="M59.25,76.52a2.92,2.92,0,0,1,.65-1,3,3,0,0,1,1-.66,3.93,3.93,0,0,1,2.65,0,3,3,0,0,1,1,.66,2.78,2.78,0,0,1,.65,1,4,4,0,0,1,0,2.69,2.82,2.82,0,0,1-.65,1,2.79,2.79,0,0,1-1,.65,3.93,3.93,0,0,1-2.65,0,2.84,2.84,0,0,1-1-.65,3,3,0,0,1-.65-1,4,4,0,0,1,0-2.69Zm1.55,2.07a2.12,2.12,0,0,0,.24.64,1.27,1.27,0,0,0,.47.45,1.42,1.42,0,0,0,.72.17,1.47,1.47,0,0,0,.72-.17,1.27,1.27,0,0,0,.47-.45,1.89,1.89,0,0,0,.24-.64,3.45,3.45,0,0,0,.08-.72,3.65,3.65,0,0,0-.08-.74,1.76,1.76,0,0,0-.24-.63,1.27,1.27,0,0,0-.47-.45,1.37,1.37,0,0,0-.72-.18,1.33,1.33,0,0,0-.72.18,1.27,1.27,0,0,0-.47.45,2,2,0,0,0-.24.63,3.64,3.64,0,0,0-.07.74A3.45,3.45,0,0,0,60.8,78.59Z"/><path class="cls-6" d="M71.54,74.76v.84h0a2.51,2.51,0,0,1,.81-.75,2.28,2.28,0,0,1,1.09-.26,2.5,2.5,0,0,1,1.07.23,1.5,1.5,0,0,1,.74.8A2.59,2.59,0,0,1,76,74.9a2,2,0,0,1,1.12-.31,3.28,3.28,0,0,1,.91.12,1.91,1.91,0,0,1,.72.38,1.8,1.8,0,0,1,.47.69,2.88,2.88,0,0,1,.17,1V81H77.7V77.45a5.53,5.53,0,0,0,0-.59,1.3,1.3,0,0,0-.13-.48.78.78,0,0,0-.32-.33,1.15,1.15,0,0,0-.57-.12,1.11,1.11,0,0,0-.58.14.93.93,0,0,0-.35.36,1.61,1.61,0,0,0-.17.51,3.48,3.48,0,0,0,0,.57V81h-1.7V77.48c0-.18,0-.36,0-.54a1.59,1.59,0,0,0-.11-.5.78.78,0,0,0-.3-.37,1.14,1.14,0,0,0-.62-.14,1.1,1.1,0,0,0-.31.06,1,1,0,0,0-.39.2,1.19,1.19,0,0,0-.31.43,1.74,1.74,0,0,0-.14.74V81h-1.7v-6.2Z"/><path class="cls-6" d="M82.58,79.47a1.5,1.5,0,0,0,1.1.38,1.55,1.55,0,0,0,.89-.26A1,1,0,0,0,85,79h1.5a2.81,2.81,0,0,1-1.1,1.6,3.25,3.25,0,0,1-1.8.48,3.45,3.45,0,0,1-1.32-.24,2.61,2.61,0,0,1-1-.66,2.78,2.78,0,0,1-.63-1,3.73,3.73,0,0,1-.23-1.32,3.66,3.66,0,0,1,.23-1.3,3,3,0,0,1,.65-1,3.08,3.08,0,0,1,1-.69,3.19,3.19,0,0,1,1.29-.25A2.87,2.87,0,0,1,85,74.9a2.66,2.66,0,0,1,1,.82,3.31,3.31,0,0,1,.54,1.17,4.5,4.5,0,0,1,.12,1.38H82.16A1.66,1.66,0,0,0,82.58,79.47Zm1.92-3.26a1.2,1.2,0,0,0-.93-.34,1.45,1.45,0,0,0-.67.14,1.4,1.4,0,0,0-.44.34,1.54,1.54,0,0,0-.23.44,1.61,1.61,0,0,0-.07.4h2.77A1.9,1.9,0,0,0,84.5,76.21Z"/><path class="cls-6" d="M92,80.17a1.76,1.76,0,0,1-.78.73,2.73,2.73,0,0,1-1.1.22,2.64,2.64,0,0,1-1.22-.27,2.4,2.4,0,0,1-.87-.73,3.44,3.44,0,0,1-.52-1.07,4.64,4.64,0,0,1-.17-1.24,4.42,4.42,0,0,1,.17-1.21,3.22,3.22,0,0,1,.52-1,2.49,2.49,0,0,1,2.05-1,2.51,2.51,0,0,1,1,.23,1.83,1.83,0,0,1,.79.69h0V72.39h1.71V81H92.07v-.79ZM92,77.1a2,2,0,0,0-.24-.62,1.45,1.45,0,0,0-.45-.44,1.37,1.37,0,0,0-.7-.17,1.41,1.41,0,0,0-.71.17,1.32,1.32,0,0,0-.46.45,1.77,1.77,0,0,0-.25.63,3.47,3.47,0,0,0-.08.73,3.53,3.53,0,0,0,.08.72,2,2,0,0,0,.28.65,1.41,1.41,0,0,0,.46.45,1.25,1.25,0,0,0,.68.18,1.37,1.37,0,0,0,.7-.17,1.21,1.21,0,0,0,.45-.45,2.12,2.12,0,0,0,.24-.64,4,4,0,0,0,0-1.49Z"/><path class="cls-6" d="M95,73.8V72.39h1.71V73.8Zm1.71,1V81H95v-6.2Z"/><path class="cls-6" d="M101,75.87a1.21,1.21,0,0,0-.68.19,1.3,1.3,0,0,0-.45.48,2,2,0,0,0-.25.65,3.33,3.33,0,0,0-.07.7,3.21,3.21,0,0,0,.07.68,2,2,0,0,0,.24.63,1.29,1.29,0,0,0,.43.47,1.23,1.23,0,0,0,.68.18,1.25,1.25,0,0,0,.94-.35,1.54,1.54,0,0,0,.41-.91H104a2.87,2.87,0,0,1-1,1.88,3.13,3.13,0,0,1-2,.65,3.32,3.32,0,0,1-1.28-.24,2.71,2.71,0,0,1-1-.65,3.12,3.12,0,0,1-.64-1A3.55,3.55,0,0,1,97.88,78a4.14,4.14,0,0,1,.21-1.34,3.05,3.05,0,0,1,.61-1.07,3,3,0,0,1,1-.7,3.34,3.34,0,0,1,1.34-.25,4.18,4.18,0,0,1,1.07.14,3.07,3.07,0,0,1,.91.44,2.39,2.39,0,0,1,.65.73,2.3,2.3,0,0,1,.29,1h-1.67A1.14,1.14,0,0,0,101,75.87Z"/><path class="cls-6" d="M104.88,76.67a2.11,2.11,0,0,1,.3-1,2.08,2.08,0,0,1,.68-.64,2.91,2.91,0,0,1,.91-.34,5.14,5.14,0,0,1,1-.1,6.16,6.16,0,0,1,1,.07,2.94,2.94,0,0,1,.87.25,1.72,1.72,0,0,1,.65.54,1.48,1.48,0,0,1,.25.9v3.23a7,7,0,0,0,0,.81,1.43,1.43,0,0,0,.17.57H109a2.45,2.45,0,0,1-.08-.29,2.91,2.91,0,0,1,0-.31,2.18,2.18,0,0,1-1,.59,3.92,3.92,0,0,1-1.13.17A3.07,3.07,0,0,1,106,81a1.81,1.81,0,0,1-.68-.34,1.59,1.59,0,0,1-.45-.57,2.08,2.08,0,0,1-.16-.83,1.75,1.75,0,0,1,.19-.87,1.51,1.51,0,0,1,.48-.55,2.28,2.28,0,0,1,.67-.3,6.85,6.85,0,0,1,.76-.16c.26,0,.51-.08.76-.1a3.78,3.78,0,0,0,.66-.11,1.18,1.18,0,0,0,.45-.21.43.43,0,0,0,.16-.4.93.93,0,0,0-.09-.44.64.64,0,0,0-.24-.25,1,1,0,0,0-.35-.12,2.77,2.77,0,0,0-.42,0,1.29,1.29,0,0,0-.8.22,1,1,0,0,0-.33.72Zm3.94,1.26a.87.87,0,0,1-.27.15l-.35.09-.39.06-.41.06a2.49,2.49,0,0,0-.37.09,1.27,1.27,0,0,0-.33.16.92.92,0,0,0-.22.26.82.82,0,0,0-.08.4.74.74,0,0,0,.08.38.62.62,0,0,0,.23.25A.87.87,0,0,0,107,80a1.75,1.75,0,0,0,.4,0,1.5,1.5,0,0,0,.78-.17,1.13,1.13,0,0,0,.41-.4,1.25,1.25,0,0,0,.16-.47,3.28,3.28,0,0,0,0-.39Z"/><path class="cls-6" d="M113.6,72.39V81h-1.71V72.39Z"/><path class="cls-6" d="M119.93,74.76v.84h0a2.41,2.41,0,0,1,.81-.75,2.21,2.21,0,0,1,1.08-.26,2.58,2.58,0,0,1,1.08.23,1.48,1.48,0,0,1,.73.8,2.87,2.87,0,0,1,.75-.72,2,2,0,0,1,1.13-.31,3.34,3.34,0,0,1,.91.12,1.71,1.71,0,0,1,1.19,1.07,2.9,2.9,0,0,1,.16,1V81h-1.7V77.45c0-.21,0-.41,0-.59a1.13,1.13,0,0,0-.14-.48.76.76,0,0,0-.31-.33,1.36,1.36,0,0,0-1.16,0,1,1,0,0,0-.34.36,1.4,1.4,0,0,0-.17.51,3.48,3.48,0,0,0,0,.57V81h-1.71V77.48c0-.18,0-.36,0-.54a1.59,1.59,0,0,0-.1-.5.78.78,0,0,0-.3-.37,1.19,1.19,0,0,0-.94-.08.93.93,0,0,0-.38.2,1.21,1.21,0,0,0-.32.43,1.75,1.75,0,0,0-.13.74V81h-1.71v-6.2Z"/><path class="cls-6" d="M129.08,76.67a1.91,1.91,0,0,1,.3-1,2.05,2.05,0,0,1,.67-.64,3,3,0,0,1,.92-.34,5,5,0,0,1,1-.1,6.16,6.16,0,0,1,.95.07,3.09,3.09,0,0,1,.88.25,1.68,1.68,0,0,1,.64.54,1.48,1.48,0,0,1,.26.9v3.23a7.09,7.09,0,0,0,0,.81,1.61,1.61,0,0,0,.17.57H133.2a2.46,2.46,0,0,1-.07-.29,2.87,2.87,0,0,1,0-.31,2.18,2.18,0,0,1-1,.59,3.85,3.85,0,0,1-1.12.17,3.09,3.09,0,0,1-.83-.11,1.7,1.7,0,0,1-.67-.34,1.4,1.4,0,0,1-.45-.57,1.92,1.92,0,0,1-.17-.83,1.87,1.87,0,0,1,.19-.87,1.51,1.51,0,0,1,.48-.55,2.4,2.4,0,0,1,.67-.3,6.85,6.85,0,0,1,.76-.16c.26,0,.51-.08.76-.1a3.78,3.78,0,0,0,.66-.11,1.31,1.31,0,0,0,.46-.21.45.45,0,0,0,.15-.4.93.93,0,0,0-.09-.44.64.64,0,0,0-.24-.25.91.91,0,0,0-.35-.12,2.77,2.77,0,0,0-.42,0,1.24,1.24,0,0,0-.79.22.92.92,0,0,0-.34.72ZM133,77.93a.87.87,0,0,1-.27.15l-.35.09-.39.06a2.76,2.76,0,0,0-.4.06,2.34,2.34,0,0,0-.38.09,1.45,1.45,0,0,0-.33.16.92.92,0,0,0-.22.26,1,1,0,0,0-.08.4.86.86,0,0,0,.08.38.62.62,0,0,0,.23.25.92.92,0,0,0,.34.12,1.67,1.67,0,0,0,.39,0,1.5,1.5,0,0,0,.78-.17,1.05,1.05,0,0,0,.41-.4A1.25,1.25,0,0,0,133,79a3.28,3.28,0,0,0,0-.39Z"/><path class="cls-6" d="M137.47,79.42a1,1,0,0,0,.29.32,1.15,1.15,0,0,0,.42.19,1.91,1.91,0,0,0,.48.06,1.69,1.69,0,0,0,.38,0,1.4,1.4,0,0,0,.36-.13.78.78,0,0,0,.27-.24.66.66,0,0,0,.11-.38c0-.26-.17-.45-.51-.58a10.15,10.15,0,0,0-1.42-.38c-.25-.06-.49-.12-.73-.2a3.05,3.05,0,0,1-.63-.3,1.41,1.41,0,0,1-.44-.47,1.36,1.36,0,0,1-.17-.69,1.89,1.89,0,0,1,.23-1,1.81,1.81,0,0,1,.62-.61,2.64,2.64,0,0,1,.87-.31,5.25,5.25,0,0,1,1-.09,4.53,4.53,0,0,1,1,.1,2.57,2.57,0,0,1,.84.32,1.81,1.81,0,0,1,.62.61,1.94,1.94,0,0,1,.29.95h-1.62a.73.73,0,0,0-.37-.67,1.74,1.74,0,0,0-.79-.17l-.31,0a1.09,1.09,0,0,0-.31.08.55.55,0,0,0-.23.17.45.45,0,0,0-.1.31.48.48,0,0,0,.17.37,1.4,1.4,0,0,0,.44.23,4,4,0,0,0,.62.16l.71.16c.24.06.49.12.72.2a2.33,2.33,0,0,1,.63.32,1.47,1.47,0,0,1,.44.49,1.39,1.39,0,0,1,.17.73,2,2,0,0,1-.24,1,2.12,2.12,0,0,1-.64.66,2.71,2.71,0,0,1-.91.36,6,6,0,0,1-1,.1A5.19,5.19,0,0,1,137.6,81a2.6,2.6,0,0,1-.92-.36A2,2,0,0,1,136,80a2.12,2.12,0,0,1-.29-1h1.63A.88.88,0,0,0,137.47,79.42Z"/><path class="cls-6" d="M144.34,72.39V77l2.15-2.23h2L146.16,77,148.77,81H146.7L145,78.19l-.66.64V81h-1.7V72.39Z"/><path class="cls-6" d="M150.8,79.42a1,1,0,0,0,.3.32,1.11,1.11,0,0,0,.41.19A2,2,0,0,0,152,80a1.61,1.61,0,0,0,.37,0,1.17,1.17,0,0,0,.36-.13.78.78,0,0,0,.27-.24.59.59,0,0,0,.11-.38c0-.26-.17-.45-.51-.58a10.15,10.15,0,0,0-1.42-.38c-.25-.06-.49-.12-.73-.2a3.05,3.05,0,0,1-.63-.3,1.41,1.41,0,0,1-.44-.47,1.36,1.36,0,0,1-.17-.69,1.89,1.89,0,0,1,.23-1,1.81,1.81,0,0,1,.62-.61,2.73,2.73,0,0,1,.87-.31,5.33,5.33,0,0,1,1-.09,4.53,4.53,0,0,1,1,.1,2.41,2.41,0,0,1,.84.32,1.81,1.81,0,0,1,.62.61,2.05,2.05,0,0,1,.3.95H153a.76.76,0,0,0-.38-.67,1.74,1.74,0,0,0-.79-.17l-.31,0a1,1,0,0,0-.3.08A.53.53,0,0,0,151,76a.5.5,0,0,0-.09.31.47.47,0,0,0,.16.37,1.4,1.4,0,0,0,.44.23,4.28,4.28,0,0,0,.62.16l.71.16c.25.06.49.12.72.2a2.33,2.33,0,0,1,.63.32,1.62,1.62,0,0,1,.45.49,1.49,1.49,0,0,1,.16.73,2,2,0,0,1-.24,1,2.12,2.12,0,0,1-.64.66A2.71,2.71,0,0,1,153,81a5.91,5.91,0,0,1-1,.1,5.19,5.19,0,0,1-1-.11,2.68,2.68,0,0,1-.92-.36,2,2,0,0,1-.94-1.7h1.62A1,1,0,0,0,150.8,79.42Z"/><path class="cls-6" d="M19.7,87.8V86.39h1.7V87.8Zm1.7,1V95H19.7v-6.2Z"/><path class="cls-6" d="M24.36,88.76v.86h0a2,2,0,0,1,.84-.78,2.39,2.39,0,0,1,1.06-.25,2.78,2.78,0,0,1,1.12.19,1.64,1.64,0,0,1,.69.51,1.87,1.87,0,0,1,.35.81,4.8,4.8,0,0,1,.1,1.05V95h-1.7v-3.5a2.19,2.19,0,0,0-.24-1.15.93.93,0,0,0-.85-.38,1.18,1.18,0,0,0-1,.42,2.27,2.27,0,0,0-.31,1.36V95h-1.7v-6.2Z"/><path class="cls-6" d="M36.82,88a1,1,0,0,0-.74-.31,1.13,1.13,0,0,0-.77.27,2,2,0,0,0-.48.66,3.84,3.84,0,0,0-.27.83,6.6,6.6,0,0,0-.09.79l0,0a2.05,2.05,0,0,1,.82-.72,2.45,2.45,0,0,1,1.08-.22,2.69,2.69,0,0,1,1.93.87,2.21,2.21,0,0,1,.49.87,3.12,3.12,0,0,1,.16,1,3.36,3.36,0,0,1-.21,1.2,2.88,2.88,0,0,1-.6,1,2.76,2.76,0,0,1-.93.64,2.92,2.92,0,0,1-1.2.24,3,3,0,0,1-1.57-.38,2.87,2.87,0,0,1-1-1A3.92,3.92,0,0,1,33,92.36a8.19,8.19,0,0,1-.15-1.57A6.92,6.92,0,0,1,33,89.23a4.42,4.42,0,0,1,.58-1.41,3.14,3.14,0,0,1,1-1,2.79,2.79,0,0,1,1.52-.4,3.29,3.29,0,0,1,1,.16,2.47,2.47,0,0,1,.83.45,2.31,2.31,0,0,1,.58.73,2.74,2.74,0,0,1,.31,1H37.21A1.49,1.49,0,0,0,36.82,88Zm-1.43,2.74a1.32,1.32,0,0,0-.43.34,1.67,1.67,0,0,0-.25.5,2,2,0,0,0-.08.6,1.88,1.88,0,0,0,.09.57,1.41,1.41,0,0,0,.26.5,1.21,1.21,0,0,0,.43.35,1.17,1.17,0,0,0,.57.14,1.1,1.1,0,0,0,.55-.14,1.3,1.3,0,0,0,.4-.34,1.47,1.47,0,0,0,.25-.5,1.77,1.77,0,0,0,.09-.56,2.25,2.25,0,0,0-.08-.58A1.5,1.5,0,0,0,37,91.1a1.27,1.27,0,0,0-.4-.36,1.14,1.14,0,0,0-.57-.13A1.38,1.38,0,0,0,35.39,90.73Z"/><path class="cls-6" d="M47.61,94.17a1.74,1.74,0,0,1-.79.73,2.72,2.72,0,0,1-1.09.22,2.65,2.65,0,0,1-1.23-.27,2.57,2.57,0,0,1-.87-.73,3.44,3.44,0,0,1-.52-1.07,4.64,4.64,0,0,1-.17-1.24,4.42,4.42,0,0,1,.17-1.21,3.22,3.22,0,0,1,.52-1,2.71,2.71,0,0,1,.86-.71,2.66,2.66,0,0,1,2.25,0,1.87,1.87,0,0,1,.78.69h0V86.39h1.7V95H47.63v-.79Zm-.07-3.07a1.8,1.8,0,0,0-.25-.62,1.35,1.35,0,0,0-.45-.44,1.31,1.31,0,0,0-.69-.17,1.38,1.38,0,0,0-.71.17,1.24,1.24,0,0,0-.46.45,1.78,1.78,0,0,0-.26.63,3.48,3.48,0,0,0-.07.73,2.94,2.94,0,0,0,.08.72,2,2,0,0,0,.27.65,1.44,1.44,0,0,0,.47.45,1.21,1.21,0,0,0,.68.18,1.37,1.37,0,0,0,.7-.17,1.29,1.29,0,0,0,.45-.45,2.12,2.12,0,0,0,.24-.64,4,4,0,0,0,0-1.49Z"/><path class="cls-6" d="M50.47,90.67a1.91,1.91,0,0,1,.3-1,2.05,2.05,0,0,1,.67-.64,3,3,0,0,1,.92-.34,5,5,0,0,1,1-.1,6.16,6.16,0,0,1,.95.07,3.09,3.09,0,0,1,.88.25,1.68,1.68,0,0,1,.64.54,1.48,1.48,0,0,1,.26.9v3.23a7.09,7.09,0,0,0,0,.81,1.61,1.61,0,0,0,.17.57H54.59a1.37,1.37,0,0,1-.07-.29,1.54,1.54,0,0,1-.05-.31,2.18,2.18,0,0,1-1,.59,3.85,3.85,0,0,1-1.12.17,3.09,3.09,0,0,1-.83-.11,1.7,1.7,0,0,1-.67-.34,1.4,1.4,0,0,1-.45-.57,1.92,1.92,0,0,1-.17-.83,1.87,1.87,0,0,1,.19-.87,1.51,1.51,0,0,1,.48-.55,2.4,2.4,0,0,1,.67-.3,6.85,6.85,0,0,1,.76-.16c.26,0,.51-.08.76-.1a3.78,3.78,0,0,0,.66-.11,1.31,1.31,0,0,0,.46-.21.45.45,0,0,0,.15-.4.93.93,0,0,0-.09-.44.64.64,0,0,0-.24-.25.91.91,0,0,0-.35-.12,2.77,2.77,0,0,0-.42,0,1.24,1.24,0,0,0-.79.22.92.92,0,0,0-.34.72Zm3.93,1.26a.87.87,0,0,1-.27.15l-.35.09-.39.06-.41.06a2.49,2.49,0,0,0-.37.09,1.45,1.45,0,0,0-.33.16.92.92,0,0,0-.22.26,1,1,0,0,0-.08.4.86.86,0,0,0,.08.38.62.62,0,0,0,.23.25.92.92,0,0,0,.34.12A1.67,1.67,0,0,0,53,94a1.5,1.5,0,0,0,.78-.17,1.13,1.13,0,0,0,.41-.4,1.25,1.25,0,0,0,.16-.47,3.28,3.28,0,0,0,0-.39Z"/><path class="cls-6" d="M59.72,96.81a2.46,2.46,0,0,1-1.37.32h-.52l-.52-.05v-1.4l.49,0a4.17,4.17,0,0,0,.5,0,.67.67,0,0,0,.5-.26A.86.86,0,0,0,59,95a1,1,0,0,0-.07-.38l-2.17-5.82h1.81L59.93,93h0l1.35-4.25h1.77l-2.6,7A2.15,2.15,0,0,1,59.72,96.81Z"/><path class="cls-6" d="M65.09,93.42a.89.89,0,0,0,.29.32,1.18,1.18,0,0,0,.41.19,2,2,0,0,0,.49.06,1.69,1.69,0,0,0,.38,0,1.4,1.4,0,0,0,.36-.13.78.78,0,0,0,.27-.24.66.66,0,0,0,.11-.38c0-.26-.17-.45-.51-.58a10.35,10.35,0,0,0-1.43-.38c-.24-.06-.49-.12-.72-.2a2.63,2.63,0,0,1-.63-.3,1.44,1.44,0,0,1-.45-.47,1.35,1.35,0,0,1-.16-.69,1.8,1.8,0,0,1,.23-1,1.73,1.73,0,0,1,.62-.61,2.59,2.59,0,0,1,.86-.31,5.36,5.36,0,0,1,1-.09,4.43,4.43,0,0,1,1,.1A2.54,2.54,0,0,1,68,89a1.9,1.9,0,0,1,.62.61,2,2,0,0,1,.29.95H67.31a.75.75,0,0,0-.37-.67,1.77,1.77,0,0,0-.79-.17l-.31,0a.94.94,0,0,0-.31.08.55.55,0,0,0-.23.17.45.45,0,0,0-.1.31.48.48,0,0,0,.17.37,1.4,1.4,0,0,0,.44.23,4.13,4.13,0,0,0,.61.16l.71.16c.25.06.49.12.73.2a2.67,2.67,0,0,1,.63.32,1.59,1.59,0,0,1,.44.49,1.49,1.49,0,0,1,.17.73,1.88,1.88,0,0,1-.89,1.69,2.58,2.58,0,0,1-.9.36,6,6,0,0,1-1,.1A5.37,5.37,0,0,1,65.21,95a2.76,2.76,0,0,1-.92-.36,2.22,2.22,0,0,1-.66-.67,2.12,2.12,0,0,1-.28-1H65A.89.89,0,0,0,65.09,93.42Z"/></g></svg>