<svg xmlns="http://www.w3.org/2000/svg" viewBox="0 0 97.88 15.82"><defs><style>.cls-1{fill:#f2f2f2;}</style></defs><title>Asset 2</title><g id="Layer_2" data-name="Layer 2"><g id="Layer_1-2" data-name="Layer 1"><path id="path9590" class="cls-1" d="M78.67.37v6h8.08s0-6,0-6h4V15.43h-4V8.81H78.67v6.62h-4V.37h4"/><path id="path9592" class="cls-1" d="M40.84.37V2.93H34.72v12.5h-4V2.93H24.63V.37H40.84"/><path id="path9594" class="cls-1" d="M56.34,15.43H51.87l-1.31-3.26H43.09l-1.3,3.26H37.38L44.4.37h4.87ZM46.86,2.94l-2.8,6.83h5.55L46.86,2.94"/><path id="path9596" class="cls-1" d="M93.87,15.43V.37h4V15.43h-4"/><path id="path9598" class="cls-1" d="M4,.37v6h8v-6h4V15.43H12V8.81H4v6.62H0S0,.37,0,.37H4"/><path id="path9600" class="cls-1" d="M19.22,15.43V.37h4V15.43h-4"/><path id="path9602" class="cls-1" d="M56.19,11.29a10.36,10.36,0,0,1-.54-3.22A8.69,8.69,0,0,1,56.7,3.66,6.56,6.56,0,0,1,60.11.8,12.81,12.81,0,0,1,64.54,0a12.64,12.64,0,0,1,5,1.05,4.92,4.92,0,0,1,2.86,3.5c0,.31.1.61.16,1H68.4a4.27,4.27,0,0,0-.24-1.15A2.81,2.81,0,0,0,66.31,2.6a7.39,7.39,0,0,0-1.76-.24,5.16,5.16,0,0,0-1.95.34,3.47,3.47,0,0,0-2.21,2.21,9.32,9.32,0,0,0-.55,3.16,9,9,0,0,0,.4,2.62A3.62,3.62,0,0,0,62.4,13.1a6.6,6.6,0,0,0,2.15.4,5.84,5.84,0,0,0,1.86-.3,3,3,0,0,0,1.75-1.55,4.34,4.34,0,0,0,.3-1.61h4.21a11.67,11.67,0,0,1-.2,1.41,4.71,4.71,0,0,1-2.82,3.32,12.43,12.43,0,0,1-5.11,1.05,13.83,13.83,0,0,1-4.07-.61,6.5,6.5,0,0,1-4.28-3.92"/></g></g></svg>