<svg id="eUk37viTD841" xmlns="http://www.w3.org/2000/svg" xmlns:xlink="http://www.w3.org/1999/xlink" viewBox="0 0 40 50" shape-rendering="geometricPrecision" text-rendering="geometricPrecision"><g id="eUk37viTD842"><g id="eUk37viTD843" display="none"><path id="eUk37viTD844" d="M3.63,33.9L3.63,34.43L3.63,34.43C3.880645,34.028524,4.327051,33.791967,4.8,33.81C5.011293,33.810037,5.219837,33.8579,5.41,33.95C5.594583,34.054128,5.731004,34.22645,5.79,34.43C5.915171,34.244494,6.087847,34.095992,6.29,34C6.506592,33.877158,6.751003,33.811752,7,33.81C7.165261,33.808375,7.330014,33.828549,7.49,33.87C7.628814,33.905384,7.758404,33.97018,7.87,34.06C7.973768,34.146578,8.05594,34.256141,8.11,34.38C8.172312,34.53222,8.202936,34.695546,8.2,34.86L8.2,37.52L7.6,37.52L7.6,35.14C7.605342,35.036736,7.605342,34.933264,7.6,34.83C7.579893,34.737224,7.542583,34.649036,7.49,34.57C7.436556,34.495485,7.36401,34.436757,7.28,34.4C7.165357,34.355623,7.042838,34.335204,6.92,34.34C6.665454,34.325223,6.416004,34.415603,6.23,34.59C6.057707,34.769219,5.96722,35.011724,5.98,35.26L5.98,37.52L5.38,37.52L5.38,35.14C5.390305,35.033582,5.390305,34.926418,5.38,34.82C5.366265,34.728354,5.328288,34.642043,5.27,34.57C5.202576,34.483584,5.107069,34.42345,5,34.4C4.895391,34.357195,4.782981,34.336757,4.67,34.34C4.513779,34.332755,4.358449,34.367273,4.22,34.44C4.104794,34.507385,4.003076,34.595541,3.92,34.7C3.84639,34.789402,3.788868,34.890911,3.75,35C3.721883,35.084067,3.705069,35.1715,3.7,35.26L3.7,37.52L3.1,37.52L3.1,33.9Z" fill="rgb(121,126,246)" stroke="none" stroke-width="1"/><path id="eUk37viTD845" d="M9,35C9.070428,34.775556,9.186146,34.567944,9.34,34.39C9.492339,34.218561,9.679964,34.082106,9.89,33.99C10.376923,33.789964,10.923077,33.789964,11.41,33.99C11.838913,34.173866,12.162159,34.541191,12.29,34.99C12.436914,35.472396,12.436914,35.987604,12.29,36.47C12.220584,36.68978,12.108438,36.893683,11.96,37.07C11.805665,37.239225,11.618544,37.375313,11.41,37.47C11.169699,37.570834,10.910458,37.618589,10.65,37.61C10.389542,37.618589,10.130301,37.570834,9.89,37.47C9.679964,37.377894,9.492339,37.241439,9.34,37.07C9.188423,36.894227,9.072898,36.690358,9,36.47C8.855109,35.990711,8.855109,35.479289,9,35ZM9.61,36.32C9.658869,36.478617,9.740649,36.625141,9.85,36.75C9.947244,36.864465,10.070765,36.953675,10.21,37.01C10.347133,37.07642,10.49763,37.110624,10.65,37.11C10.772925,37.097475,10.892011,37.060048,11,37C11.139235,36.943675,11.262756,36.854465,11.36,36.74C11.476259,36.618524,11.561951,36.471133,11.61,36.31C11.716796,35.930708,11.716796,35.529292,11.61,35.15C11.559333,34.990013,11.473968,34.843185,11.36,34.72C11.262071,34.603818,11.138955,34.511481,11,34.45C10.86511,34.388497,10.718233,34.357755,10.57,34.36C10.418647,34.358837,10.26874,34.389499,10.13,34.45C9.991045,34.511481,9.867929,34.603818,9.77,34.72C9.662711,34.846302,9.581179,34.992381,9.53,35.15C9.409744,35.527316,9.409744,35.932684,9.53,36.31Z" fill="rgb(121,126,246)" stroke="none" stroke-width="1"/><path id="eUk37viTD846" d="M15.5,37.52L15.5,36.94L15.5,36.94C15.388081,37.150271,15.217967,37.323857,15.01,37.44C14.795603,37.545318,14.558771,37.596803,14.32,37.59C14.116247,37.59579,13.913087,37.565316,13.72,37.5C13.572673,37.443333,13.441988,37.350478,13.34,37.23C13.237656,37.108653,13.165672,36.964684,13.13,36.81C13.088579,36.636421,13.06843,36.458446,13.07,36.28L13.07,33.9L13.67,33.9L13.67,36.35C13.65877,36.545133,13.727354,36.736446,13.86,36.88C14.00499,37.017844,14.200199,37.090144,14.4,37.08C14.56455,37.084098,14.728112,37.05343,14.88,36.99C15.009347,36.940699,15.123245,36.857865,15.21,36.75C15.300922,36.645176,15.369033,36.522576,15.41,36.39C15.451558,36.24367,15.471766,36.092106,15.47,35.94L15.47,33.94L16.07,33.94L16.07,37.56Z" fill="rgb(121,126,246)" stroke="none" stroke-width="1"/><path id="eUk37viTD847" d="M17.41,36.71C17.467599,36.797539,17.542461,36.872401,17.63,36.93C17.726553,36.983527,17.831303,37.020696,17.94,37.04C18.056443,37.050228,18.173557,37.050228,18.29,37.04L18.59,37.04C18.68652,37.032056,18.781097,37.008412,18.87,36.97C18.956097,36.93676,19.029561,36.877288,19.08,36.8C19.142086,36.724077,19.174115,36.62799,19.17,36.53C19.177584,36.389393,19.108785,36.255617,18.99,36.18C18.856138,36.08815,18.707221,36.02046,18.55,35.98L18,35.86C17.8043,35.824578,17.613132,35.767563,17.43,35.69C17.264767,35.625772,17.11732,35.522903,17,35.39C16.871693,35.236531,16.807254,35.039632,16.82,34.84C16.815711,34.675244,16.857254,34.512534,16.94,34.37C17.021997,34.243917,17.131378,34.137954,17.26,34.06C17.390374,33.970663,17.536166,33.906243,17.69,33.87C17.846983,33.830653,18.008162,33.810506,18.17,33.81C18.361676,33.807993,18.552943,33.828127,18.74,33.87C18.903928,33.898277,19.060416,33.959511,19.2,34.05C19.335726,34.136334,19.446142,34.257101,19.52,34.4C19.604269,34.571654,19.651943,34.758947,19.66,34.95L19,34.95C18.995815,34.847137,18.964787,34.747159,18.91,34.66C18.858717,34.582225,18.790301,34.51723,18.71,34.47C18.628423,34.4247,18.540908,34.39104,18.45,34.37C18.35361,34.359664,18.25639,34.359664,18.16,34.37L17.89,34.37C17.803979,34.382371,17.719938,34.405903,17.64,34.44C17.57186,34.475136,17.510828,34.522606,17.46,34.58C17.410241,34.645996,17.385444,34.727473,17.39,34.81C17.389738,34.908029,17.429463,35.001925,17.5,35.07C17.581975,35.141127,17.677104,35.195486,17.78,35.23C17.898608,35.283321,18.022674,35.323559,18.15,35.35L18.57,35.44C18.719358,35.469384,18.866405,35.509488,19.01,35.56C19.14504,35.604983,19.272989,35.668958,19.39,35.75C19.501838,35.823753,19.594413,35.923186,19.66,36.04C19.728123,36.172952,19.762467,36.320631,19.76,36.47C19.767429,36.663007,19.718803,36.854034,19.62,37.02C19.528587,37.16286,19.405378,37.282647,19.26,37.37C19.108355,37.457992,18.942545,37.518902,18.77,37.55C18.58894,37.585996,18.404583,37.602756,18.22,37.6C18.025098,37.600387,17.830696,37.580276,17.64,37.54C17.467406,37.503301,17.30409,37.43185,17.16,37.33C17.019637,37.234551,16.903268,37.107914,16.82,36.96C16.733866,36.781924,16.686167,36.587717,16.68,36.39L17.28,36.39C17.28983,36.507394,17.335174,36.619011,17.41,36.71Z" fill="rgb(121,126,246)" stroke="none" stroke-width="1"/><path id="eUk37viTD848" d="M23,37.29C22.707295,37.494302,22.356829,37.599442,22,37.59C21.739542,37.598589,21.480301,37.550834,21.24,37.45C21.03447,37.364638,20.852635,37.230834,20.71,37.06C20.55799,36.886158,20.445412,36.681471,20.38,36.46C20.307545,36.212867,20.267213,35.957434,20.26,35.7C20.255114,35.440743,20.29922,35.182894,20.39,34.94C20.539453,34.500157,20.860465,34.13947,21.28,33.94C21.494535,33.846776,21.726087,33.799104,21.96,33.8C22.240058,33.791151,22.517054,33.8604,22.76,34C22.963202,34.133195,23.136805,34.306798,23.27,34.51C23.398949,34.715591,23.490368,34.942446,23.54,35.18C23.588492,35.41001,23.608642,35.645092,23.6,35.88L20.89,35.88C20.880428,36.032479,20.900811,36.185356,20.95,36.33C20.98611,36.470534,21.054602,36.60067,21.15,36.71C21.251262,36.820031,21.373712,36.908467,21.51,36.97C21.671455,37.037587,21.844976,37.071611,22.02,37.07C22.240883,37.080197,22.458918,37.016897,22.64,36.89C22.807282,36.759455,22.918214,36.569798,22.95,36.36L23.54,36.36C23.482979,36.726743,23.290244,37.058676,23,37.29ZM22.87,35C22.821257,34.880807,22.749951,34.77215,22.66,34.68C22.569395,34.581077,22.456162,34.505588,22.33,34.46C22.203104,34.407687,22.067255,34.380518,21.93,34.38C21.786068,34.378412,21.64327,34.405611,21.51,34.46C21.389983,34.511719,21.281266,34.586461,21.19,34.68C21.105753,34.772776,21.041126,34.881621,21,35C20.949079,35.124269,20.918683,35.255984,20.91,35.39L23,35.39C22.9811,35.253093,22.937025,35.120866,22.87,35Z" fill="rgb(121,126,246)" stroke="none" stroke-width="1"/><path id="eUk37viTD849" d="M24.13,35C24.2618,34.556571,24.579073,34.191889,25,34C25.483997,33.802692,26.026003,33.802692,26.51,34C26.938558,34.187241,27.26374,34.552614,27.4,35C27.546914,35.482396,27.546914,35.997604,27.4,36.48C27.331044,36.702085,27.215083,36.906721,27.06,37.08C26.907661,37.251439,26.720036,37.387894,26.51,37.48C26.0239,37.666269,25.4861,37.666269,25,37.48C24.789964,37.387894,24.602339,37.251439,24.45,37.08C24.294917,36.906721,24.178956,36.702085,24.11,36.48C23.963086,35.997604,23.963086,35.482396,24.11,35ZM24.74,36.32C24.782906,36.481098,24.865407,36.628913,24.98,36.75C25.077244,36.864465,25.200765,36.953675,25.34,37.01C25.473362,37.076996,25.620761,37.111275,25.77,37.11C25.92237,37.110624,26.072867,37.07642,26.21,37.01C26.349235,36.953675,26.472756,36.864465,26.57,36.75C26.684593,36.628913,26.767094,36.481098,26.81,36.32C26.930256,35.942684,26.930256,35.537316,26.81,35.16C26.767094,34.998902,26.684593,34.851087,26.57,34.73C26.472071,34.613818,26.348955,34.521481,26.21,34.46C26.07126,34.399499,25.921353,34.368837,25.77,34.37C25.621985,34.369936,25.475566,34.400581,25.34,34.46C25.201045,34.521481,25.077929,34.613818,24.98,34.73C24.865407,34.851087,24.782906,34.998902,24.74,35.16C24.619744,35.537316,24.619744,35.942684,24.74,36.32Z" fill="rgb(121,126,246)" stroke="none" stroke-width="1"/><path id="eUk37viTD8410" d="M29.23,37.52L27.88,33.9L28.55,33.9L29.55,36.9L29.55,36.9L30.55,33.9L31.18,33.9L29.85,37.52Z" fill="rgb(121,126,246)" stroke="none" stroke-width="1"/><path id="eUk37viTD8411" d="M34.29,37.29C33.997295,37.494302,33.646829,37.599442,33.29,37.59C33.032697,37.599729,32.776466,37.551899,32.54,37.45C32.333045,37.362115,32.148496,37.228829,32,37.06C31.85469,36.883139,31.745923,36.6792,31.68,36.46C31.607545,36.212867,31.567213,35.957434,31.56,35.7C31.55685,35.441712,31.597423,35.184752,31.68,34.94C31.757545,34.720381,31.880171,34.519411,32.04,34.35C32.344428,33.995235,32.792709,33.796815,33.26,33.81C33.540058,33.801151,33.817054,33.8704,34.06,34.01C34.263202,34.143195,34.436805,34.316798,34.57,34.52C34.698949,34.725591,34.790368,34.952446,34.84,35.19C34.863802,35.422726,34.863802,35.657274,34.84,35.89L32.14,35.89C32.115379,36.03899,32.115379,36.19101,32.14,36.34C32.181326,36.480517,32.253016,36.610241,32.35,36.72C32.449503,36.827655,32.568196,36.915827,32.7,36.98C32.861991,37.045807,33.035152,37.079761,33.21,37.08C33.430883,37.090197,33.648918,37.026897,33.83,36.9C34.000256,36.770519,34.114703,36.580965,34.15,36.37L34.74,36.37C34.703417,36.720204,34.543993,37.046138,34.29,37.29ZM34.15,35C34.098281,34.879983,34.023539,34.771266,33.93,34.68C33.843021,34.581498,33.733116,34.505939,33.61,34.46C33.347086,34.353267,33.052914,34.353267,32.79,34.46C32.668747,34.509455,32.559595,34.584497,32.47,34.68C32.377397,34.773869,32.305814,34.886357,32.26,35.01C32.209079,35.134269,32.178683,35.265984,32.17,35.4L34.25,35.4C34.236886,35.262411,34.203176,35.127573,34.15,35Z" fill="rgb(121,126,246)" stroke="none" stroke-width="1"/><path id="eUk37viTD8412" d="M36,33.9L36,34.66L36,34.66C36.122422,34.401336,36.30816,34.177762,36.54,34.01C36.775373,33.861039,37.052101,33.790981,37.33,33.81L37.33,34.44C37.125696,34.438053,36.922629,34.471897,36.73,34.54C36.57089,34.600218,36.429774,34.700032,36.32,34.83C36.212029,34.965575,36.133677,35.122278,36.09,35.29C36.043559,35.493399,36.020078,35.701366,36.02,35.91L36.02,37.52L35.43,37.52L35.43,33.9Z" fill="rgb(121,126,246)" stroke="none" stroke-width="1"/><path id="eUk37viTD8413" d="M11.43,40.9L11.43,41.42L10.71,41.42L10.71,43.67C10.698412,43.726074,10.698412,43.783926,10.71,43.84C10.720158,43.878329,10.74096,43.913,10.77,43.94C10.816285,43.948445,10.863715,43.948445,10.91,43.94L11.41,43.94L11.41,44.47L11,44.47C10.870254,44.481493,10.739746,44.481493,10.61,44.47C10.512192,44.45059,10.419949,44.409594,10.34,44.35C10.270949,44.283614,10.219415,44.201159,10.19,44.11C10.15479,43.979645,10.137961,43.845011,10.14,43.71L10.14,41.42L9.5,41.42L9.5,40.9L10.11,40.9L10.11,39.81L10.71,39.81L10.71,40.9Z" fill="rgb(121,126,246)" stroke="none" stroke-width="1"/><path id="eUk37viTD8414" d="M12,42C12.070428,41.775556,12.186146,41.567944,12.34,41.39C12.492339,41.218561,12.679964,41.082106,12.89,40.99C13.376923,40.789964,13.923077,40.789964,14.41,40.99C14.618544,41.084687,14.805665,41.220775,14.96,41.39C15.114097,41.566191,15.226848,41.774609,15.29,42C15.45012,42.480341,15.45012,42.999659,15.29,43.48C15.224588,43.701471,15.11201,43.906158,14.96,44.08C14.805665,44.249225,14.618544,44.385313,14.41,44.48C13.920576,44.666935,13.379424,44.666935,12.89,44.48C12.679964,44.387894,12.492339,44.251439,12.34,44.08C12.188423,43.904227,12.072898,43.700358,12,43.48C11.853086,42.997604,11.853086,42.482396,12,42ZM12.61,43.32C12.658869,43.478617,12.740649,43.625141,12.85,43.75C12.947244,43.864465,13.070765,43.953675,13.21,44.01C13.347133,44.07642,13.49763,44.110624,13.65,44.11C13.80237,44.110624,13.952867,44.07642,14.09,44.01C14.226428,43.948709,14.348924,43.860239,14.45,43.75C14.559351,43.625141,14.641131,43.478617,14.69,43.32C14.810256,42.942684,14.810256,42.537316,14.69,42.16C14.638821,42.002381,14.557289,41.856302,14.45,41.73C14.349132,41.616975,14.226748,41.525187,14.09,41.46C13.950914,41.4006,13.801239,41.369985,13.65,41.37C13.498647,41.368837,13.34874,41.399499,13.21,41.46C13.071045,41.521481,12.947929,41.613818,12.85,41.73C12.742711,41.856302,12.661179,42.002381,12.61,42.16C12.489744,42.537316,12.489744,42.942684,12.61,43.32Z" fill="rgb(121,126,246)" stroke="none" stroke-width="1"/><path id="eUk37viTD8415" d="M18.67,40.9L18.67,41.39L18.67,41.39C18.764615,41.192195,18.928187,41.035734,19.13,40.95C19.351236,40.855733,19.589526,40.808075,19.83,40.81C20.082779,40.802587,20.333495,40.857538,20.56,40.97C20.760027,41.06891,20.937154,41.208567,21.08,41.38C21.216617,41.56463,21.321395,41.770807,21.39,41.99C21.459497,42.226997,21.493202,42.473045,21.49,42.72C21.492613,42.966919,21.458919,43.21288,21.39,43.45C21.325417,43.66471,21.220175,43.865008,21.08,44.04C20.939374,44.213698,20.761712,44.353778,20.56,44.45C20.332674,44.547296,20.087221,44.595023,19.84,44.59L19.54,44.59C19.429149,44.571935,19.321413,44.538267,19.22,44.49C18.989372,44.414888,18.793905,44.258515,18.67,44.05L18.67,44.05L18.67,45.9L18.07,45.9L18.07,40.9ZM20.81,42.18C20.762532,42.026719,20.691698,41.88168,20.6,41.75C20.508289,41.624107,20.388438,41.521378,20.25,41.45C20.094061,41.375222,19.922924,41.337572,19.75,41.34C19.412213,41.330511,19.092481,41.492257,18.9,41.77C18.808879,41.903039,18.74436,42.052451,18.71,42.21C18.670335,42.37032,18.650189,42.534846,18.65,42.7C18.649609,42.875083,18.669747,43.049607,18.71,43.22C18.749656,43.377504,18.817408,43.526559,18.91,43.66C19.00502,43.782791,19.124121,43.884878,19.26,43.96C19.423703,44.044103,19.606036,44.085386,19.79,44.08C19.964072,44.098429,20.139932,44.070843,20.3,44C20.435305,43.922975,20.548849,43.812872,20.63,43.68C20.721198,43.543353,20.78567,43.390658,20.82,43.23C20.852001,43.061854,20.868736,42.891159,20.87,42.72C20.873812,42.538146,20.853638,42.356582,20.81,42.18Z" fill="rgb(121,126,246)" stroke="none" stroke-width="1"/><path id="eUk37viTD8416" d="M22.83,39.52L22.83,44.52L22.24,44.52L22.24,39.52Z" fill="rgb(121,126,246)" stroke="none" stroke-width="1"/><path id="eUk37viTD8417" d="M27,44.5C26.867352,44.568077,26.718815,44.599166,26.57,44.59C26.437166,44.598454,26.306785,44.551373,26.21,44.46C26.068097,44.350941,25.989447,44.178659,26,44C25.852891,44.190422,25.655453,44.335902,25.43,44.42C25.207501,44.508995,24.969616,44.553173,24.73,44.55C24.572047,44.549239,24.414578,44.532487,24.26,44.5C24.123022,44.464758,23.994042,44.403662,23.88,44.32C23.770432,44.238263,23.681413,44.132125,23.62,44.01C23.485546,43.690225,23.485546,43.329775,23.62,43.01C23.689314,42.884494,23.784806,42.775361,23.9,42.69C24.019808,42.610012,24.151402,42.549277,24.29,42.51L24.74,42.4L25.21,42.33C25.341368,42.315062,25.471637,42.29168,25.6,42.26C25.694809,42.235337,25.783385,42.191049,25.86,42.13C25.930072,42.062339,25.966673,41.967178,25.96,41.87C25.976467,41.667248,25.875438,41.472961,25.7,41.37C25.619204,41.327055,25.530963,41.299904,25.44,41.29L25.16,41.29C24.941691,41.284236,24.725321,41.332318,24.53,41.43C24.350196,41.550035,24.244499,41.753881,24.25,41.97L23.7,41.97C23.704781,41.775291,23.75259,41.584052,23.84,41.41C23.918593,41.256082,24.035734,41.125159,24.18,41.03C24.326943,40.935527,24.48945,40.867816,24.66,40.83C24.845825,40.780296,25.03767,40.756736,25.23,40.76C25.393171,40.749703,25.556829,40.749703,25.72,40.76C25.874038,40.779165,26.023209,40.826629,26.16,40.9C26.288952,40.974071,26.395929,41.081048,26.47,41.21C26.554614,41.366314,26.596036,41.542356,26.59,41.72L26.59,43.57C26.575885,43.672851,26.575885,43.777149,26.59,43.88C26.59,43.95,26.66,43.98,26.75,43.98L27,44ZM26,42.65C25.907166,42.705998,25.805844,42.746527,25.7,42.77C25.575213,42.800486,25.448109,42.820555,25.32,42.83L24.92,42.89C24.792512,42.905432,24.667904,42.939109,24.55,42.99C24.449283,43.03608,24.360372,43.104473,24.29,43.19C24.215588,43.290809,24.180077,43.415096,24.19,43.54C24.187392,43.627188,24.208105,43.713493,24.25,43.79C24.289171,43.85254,24.340114,43.906879,24.4,43.95C24.468756,43.990156,24.542813,44.020452,24.62,44.04C24.709732,44.049828,24.800268,44.049828,24.89,44.04C25.060054,44.042659,25.229265,44.015586,25.39,43.96C25.518284,43.916111,25.637059,43.84824,25.74,43.76C25.823955,43.686436,25.8891,43.593862,25.93,43.49C25.971739,43.405804,25.995574,43.31387,26,43.22Z" fill="rgb(121,126,246)" stroke="none" stroke-width="1"/><path id="eUk37viTD8418" d="M28.94,45C28.881688,45.155182,28.811479,45.305629,28.73,45.45C28.669808,45.561616,28.592162,45.662894,28.5,45.75C28.422475,45.822025,28.330405,45.876585,28.23,45.91C28.121601,45.951754,28.006143,45.972129,27.89,45.97L27.68,45.97C27.608063,45.962898,27.53742,45.946078,27.47,45.92L27.47,45.38L27.65,45.44L27.82,45.44C27.930264,45.443645,28.03883,45.412126,28.13,45.35C28.213874,45.28676,28.276628,45.199601,28.31,45.1L28.56,44.5L27.12,40.9L27.79,40.9L28.85,43.9L28.85,43.9L29.85,40.9L30.48,40.9Z" fill="rgb(121,126,246)" stroke="none" stroke-width="1"/></g><g id="eUk37viTD8419"><path id="eUk37viTD8420" d="M20.65,14.6L20.65,16C20.660941,16.172471,20.60275,16.342198,20.488286,16.471674C20.373823,16.601149,20.212511,16.679712,20.04,16.69L20,16.69C19.830261,16.69,19.667475,16.622572,19.547452,16.502548C19.427428,16.382525,19.36,16.219739,19.36,16.05L19.36,13.2C19.36,12.841015,19.651015,12.55,20.01,12.55C20.368985,12.55,20.66,12.841015,20.66,13.2L20.66,13.2Z" fill="rgb(121,126,246)" stroke="none" stroke-width="1"/><path id="eUk37viTD8421" d="M20.64,8.35C21.125625,8.426427,21.603972,8.543505,22.07,8.7C24.122393,9.430326,25.640912,11.184215,26.07,13.32C26.159957,13.791151,26.200177,14.270447,26.19,14.75L26.19,22.94C26.230932,24.437919,25.738295,25.901651,24.8,27.07C23.851604,28.251085,22.496491,29.035624,21,29.27C19.275463,29.574753,17.503854,29.110847,16.15,28C14.934956,27.050346,14.12692,25.673825,13.89,24.15C13.832977,23.769384,13.806227,23.384845,13.81,23L13.81,14.6C13.787338,13.19448,14.250007,11.824133,15.12,10.72C16.064972,9.477881,17.456754,8.652856,19,8.42L19.3,8.35ZM24.85,18.85L24.85,14.53C24.862202,13.259848,24.369409,12.036856,23.48,11.13C22.060045,9.655652,19.867328,9.231514,18,10.07C16.178151,10.835404,15.016888,12.644907,15.08,14.62L15.08,23.1C15.067322,24.9417,16.090509,26.634314,17.72712,27.479017C19.363731,28.32372,21.33614,28.177219,22.83,27.1C24.116378,26.17881,24.864875,24.681816,24.83,23.1C24.86,21.68,24.86,20.27,24.85,18.85Z" fill="rgb(121,126,246)" stroke="none" stroke-width="1"/></g><g id="eUk37viTD8422" opacity="0"><path id="eUk37viTD8423" d="M29.48,15.62C29.48,15.45,29.48,15.29,29.48,15.12C29.480627,14.617578,29.440496,14.115932,29.36,13.62" fill="none" stroke="rgb(121,126,246)" stroke-width="0.5" stroke-linecap="round" stroke-linejoin="round"/><path id="eUk37viTD8424" d="M28.84,11.63C27.325418,7.837225,23.558356,5.434953,19.480638,5.661492C15.402921,5.888032,11.925139,8.692797,10.84,12.63" fill="none" stroke="rgb(121,126,246)" stroke-width="0.5" stroke-linecap="round" stroke-linejoin="round" stroke-dasharray="4.13,2.06"/><path id="eUk37viTD8425" d="M10.62,13.62C10.539504,14.115932,10.499373,14.617578,10.5,15.12C10.5,15.29,10.5,15.45,10.5,15.62" fill="none" stroke="rgb(121,126,246)" stroke-width="0.5" stroke-linecap="round" stroke-linejoin="round"/></g><g id="eUk37viTD8426" opacity="0"><path id="eUk37viTD8427" d="M32.81,16.12C32.81,15.88,32.81,15.65,32.81,15.42C32.810883,14.733893,32.760744,14.048671,32.66,13.37" transform="matrix(1 0 0 1 0.398829 0)" fill="none" stroke="rgb(121,126,246)" stroke-width="0.5" stroke-linecap="round" stroke-linejoin="round"/><path id="eUk37viTD8428" d="M32,10.62C30.171901,5.555403,25.384249,2.164149,20,2.12C14.088059,2.18645,8.974256,6.254435,7.58,12" fill="none" stroke="rgb(121,126,246)" stroke-width="0.5" stroke-linecap="round" stroke-linejoin="round" stroke-dasharray="5.69,2.84"/><path id="eUk37viTD8429" d="M7.3,13.37C7.199256,14.048671,7.149117,14.733893,7.15,15.42C7.15,15.65,7.15,15.88,7.15,16.12" fill="none" stroke="rgb(121,126,246)" stroke-width="0.5" stroke-linecap="round" stroke-linejoin="round"/></g></g><g id="eUk37viTD8430" display="none" transform="matrix(0.622285 0 0 0.622285 -3.883288 -2.286881)"><path id="eUk37viTD8431" d="M20.13,62.7C19.745206,63.060924,19.225857,63.242514,18.7,63.2C18.508433,63.199836,18.317403,63.179727,18.13,63.14C17.940039,63.098957,17.75778,63.028079,17.59,62.93C17.432594,62.839211,17.298942,62.712413,17.2,62.56C17.078092,62.397932,17.00834,62.202628,17,62L17.66,62C17.666428,62.110363,17.708543,62.215649,17.78,62.3C17.84898,62.385497,17.933879,62.456813,18.03,62.51C18.137958,62.561571,18.252293,62.598562,18.37,62.62C18.483145,62.629234,18.596855,62.629234,18.71,62.62C18.903652,62.626185,19.095886,62.584992,19.27,62.5C19.416797,62.42843,19.543831,62.321996,19.64,62.19C19.744676,62.046311,19.819483,61.883095,19.86,61.71C19.901459,61.505975,19.921568,61.298189,19.92,61.09L19.92,60.82L19.92,60.82C19.813584,61.05918,19.630653,61.256183,19.4,61.38C19.16919,61.491405,18.916289,61.549504,18.66,61.55C18.387866,61.558134,18.117523,61.503381,17.87,61.39C17.649464,61.283351,17.454919,61.129763,17.3,60.94C17.148639,60.749151,17.033414,60.532258,16.96,60.3C16.887122,60.04299,16.850105,59.777143,16.85,59.51C16.850885,59.260658,16.881092,59.012285,16.94,58.77C17.005213,58.522954,17.113543,58.289367,17.26,58.08C17.408787,57.865189,17.607921,57.690088,17.84,57.57C18.111891,57.430513,18.414528,57.361732,18.72,57.37C18.966827,57.369327,19.210245,57.42761,19.43,57.54C19.645748,57.653732,19.820563,57.832042,19.93,58.05L19.93,58.05L19.93,57.47L20.56,57.47L20.56,61.17C20.621555,61.716551,20.467265,62.265536,20.13,62.7ZM19.28,60.89C19.424437,60.793793,19.549872,60.671748,19.65,60.53C19.743217,60.370514,19.813889,60.198883,19.86,60.02C19.899687,59.835971,19.919799,59.64826,19.92,59.46C19.919838,59.281648,19.899713,59.103875,19.86,58.93C19.820369,58.766277,19.752704,58.610647,19.66,58.47C19.467071,58.1684,19.127622,57.992955,18.77,58.01C18.579745,58.005824,18.391225,58.046955,18.22,58.13C18.074964,58.208637,17.948725,58.317817,17.85,58.45C17.758085,58.595926,17.687378,58.754175,17.64,58.92C17.596417,59.103574,17.572945,59.291346,17.57,59.48C17.57015,59.664958,17.590267,59.84936,17.63,60.03C17.666058,60.205793,17.730214,60.374624,17.82,60.53C17.909976,60.673338,18.029253,60.796023,18.17,60.89C18.33702,60.985315,18.527981,61.030452,18.72,61.02C18.91489,61.027074,19.108157,60.982208,19.28,60.89Z" fill="rgb(121,126,246)" stroke="none" stroke-width="1"/><path id="eUk37viTD8432" d="M24.45,61.3C24.115634,61.540053,23.711406,61.663079,23.3,61.65C23.01174,61.657847,22.725191,61.603267,22.46,61.49C22.228932,61.391238,22.023649,61.240697,21.86,61.05C21.693646,60.854859,21.570907,60.626426,21.5,60.38C21.415473,60.104216,21.368385,59.818325,21.36,59.53C21.35851,59.240808,21.405841,58.953438,21.5,58.68C21.590995,58.436974,21.726663,58.213122,21.9,58.02C22.06572,57.831552,22.270455,57.681413,22.5,57.58C22.738258,57.470739,22.997913,57.416075,23.26,57.42C23.575715,57.410008,23.887789,57.489761,24.16,57.65C24.39404,57.785802,24.590077,57.9784,24.73,58.21C24.86893,58.453988,24.960535,58.722018,25,59C25.051707,59.256669,25.07518,59.518225,25.07,59.78L22.07,59.78C22.059163,59.948936,22.079502,60.118424,22.13,60.28C22.176162,60.437674,22.254472,60.58408,22.36,60.71C22.466979,60.838601,22.60451,60.938311,22.76,61C22.940313,61.075806,23.134427,61.113266,23.33,61.11C23.575456,61.118727,23.817259,61.04864,24.02,60.91C24.20631,60.762372,24.333938,60.553203,24.38,60.32L25,60.32C24.938632,60.701536,24.743706,61.048858,24.45,61.3ZM24.29,58.71C24.230343,58.572225,24.145566,58.446755,24.04,58.34C23.824002,58.12761,23.532925,58.009024,23.23,58.01C23.068781,58.007008,22.908709,58.03766,22.76,58.1C22.62299,58.155687,22.500037,58.241071,22.4,58.35C22.300747,58.453976,22.222634,58.57624,22.17,58.71C22.111076,58.849653,22.077224,58.998597,22.07,59.15L24.39,59.15C24.382776,58.998597,24.348924,58.849653,24.29,58.71Z" fill="rgb(121,126,246)" stroke="none" stroke-width="1"/><path id="eUk37viTD8433" d="M26.29,60.66C26.355284,60.756897,26.44052,60.838724,26.54,60.9C26.646444,60.959562,26.760972,61.003352,26.88,61.03C27.012895,61.045288,27.147105,61.045288,27.28,61.03L27.61,61.03C27.71938,61.010653,27.826571,60.980505,27.93,60.94C28.020765,60.900601,28.099942,60.838637,28.16,60.76C28.230028,60.672322,28.265593,60.562071,28.26,60.45C28.268995,60.290632,28.192891,60.138425,28.06,60.05C27.908573,59.954959,27.743255,59.884109,27.57,59.84L26.93,59.69C26.713818,59.649345,26.502613,59.585649,26.3,59.5C26.111247,59.428581,25.942967,59.311816,25.81,59.16C25.668901,58.989104,25.597478,58.771263,25.61,58.55C25.608239,58.367126,25.656662,58.187271,25.75,58.03C25.837353,57.884622,25.95714,57.761413,26.1,57.67C26.250475,57.575376,26.416289,57.507697,26.59,57.47C26.762738,57.423054,26.940997,57.39951,27.12,57.4C27.334795,57.398736,27.549183,57.418835,27.76,57.46C27.939957,57.497783,28.112332,57.565381,28.27,57.66C28.422117,57.760487,28.546036,57.898175,28.63,58.06C28.721929,58.250671,28.77302,58.45844,28.78,58.67L28.12,58.67C28.114244,58.555094,28.07611,58.444159,28.01,58.35C27.958704,58.263508,27.886492,58.191296,27.8,58.14C27.705206,58.088046,27.604474,58.047753,27.5,58.02C27.393582,58.009695,27.286418,58.009695,27.18,58.02L26.88,58.02C26.782741,58.036036,26.688387,58.066364,26.6,58.11C26.518906,58.142293,26.446848,58.193762,26.39,58.26C26.338766,58.336636,26.314168,58.428,26.32,58.52C26.316594,58.626492,26.360536,58.729023,26.44,58.8C26.528611,58.884703,26.634306,58.949484,26.75,58.99C26.885448,59.044491,27.026209,59.084709,27.17,59.11L27.64,59.22L28.13,59.35C28.280969,59.395492,28.423025,59.46652,28.55,59.56C28.672271,59.64748,28.774534,59.75997,28.85,59.89C28.926105,60.038329,28.963918,60.203332,28.96,60.37C28.968658,60.583424,28.916648,60.79493,28.81,60.98C28.708068,61.138734,28.571263,61.272119,28.41,61.37C28.237883,61.47394,28.048021,61.545138,27.85,61.58C27.649101,61.619782,27.4448,61.639877,27.24,61.64C27.024895,61.637582,26.810542,61.614138,26.6,61.57C26.407767,61.526017,26.22491,61.448133,26.06,61.34C25.900946,61.228919,25.770676,61.081508,25.68,60.91C25.583468,60.713877,25.532208,60.498581,25.53,60.28L26.19,60.28C26.192822,60.412791,26.227093,60.543021,26.29,60.66Z" fill="rgb(121,126,246)" stroke="none" stroke-width="1"/><path id="eUk37viTD8434" d="M32.56,61.3C32.23009,61.541382,31.828523,61.664671,31.42,61.65C31.13174,61.657847,30.845191,61.603267,30.58,61.49C30.347439,61.393873,30.141584,61.242913,29.98,61.05C29.813646,60.854859,29.690907,60.626426,29.62,60.38C29.530535,60.105397,29.483329,59.81879,29.48,59.53C29.47851,59.240808,29.525841,58.953438,29.62,58.68C29.698075,58.429406,29.82749,58.197821,30,58C30.167467,57.809117,30.376027,57.658681,30.61,57.56C30.847933,57.449756,31.107814,57.395044,31.37,57.4C31.685715,57.390008,31.997789,57.469761,32.27,57.63C32.499769,57.771332,32.694624,57.962768,32.84,58.19C32.981718,58.420162,33.080011,58.674369,33.13,58.94C33.186645,59.195929,33.210171,59.458075,33.2,59.72L30.2,59.72C30.197223,59.889291,30.22084,60.05798,30.27,60.22C30.342168,60.549126,30.575231,60.81978,30.89,60.94C31.070313,61.015806,31.264427,61.053266,31.46,61.05C31.708581,61.058777,31.953578,60.988778,32.16,60.85C32.342584,60.700754,32.46655,60.491783,32.51,60.26L33.17,60.26C33.106097,60.671546,32.888011,61.043364,32.56,61.3ZM32.4,58.71C32.343963,58.57268,32.262542,58.447155,32.16,58.34C31.941543,58.125153,31.646381,58.006368,31.34,58.01C31.182008,58.006915,31.025179,58.037599,30.88,58.1C30.74299,58.155687,30.620037,58.241071,30.52,58.35C30.417559,58.453421,30.336065,58.575662,30.28,58.71C30.225654,58.851087,30.191973,58.999283,30.18,59.15L32.51,59.15C32.499606,58.997988,32.462364,58.849019,32.4,58.71Z" fill="rgb(121,126,246)" stroke="none" stroke-width="1"/><path id="eUk37viTD8435" d="M34.5,57.52L34.5,58.37L34.5,58.37C34.630252,58.079753,34.833532,57.828237,35.09,57.64C35.361276,57.478379,35.674756,57.401751,35.99,57.42L35.99,58.13C35.754992,58.120722,35.520474,58.158109,35.3,58.24C35.125644,58.307439,34.970943,58.417449,34.85,58.56C34.731443,58.710348,34.646224,58.884195,34.6,59.07C34.545201,59.29586,34.518333,59.527593,34.52,59.76L34.52,61.56L33.86,61.56L33.86,57.56Z" fill="rgb(121,126,246)" stroke="none" stroke-width="1"/><path id="eUk37viTD8436" d="M39.39,56L39.39,59.31L41.23,57.55L42.13,57.55L40.52,59L42.24,61.57L41.4,61.57L40,59.45L39.38,60.03L39.38,61.56L38.71,61.56L38.71,56Z" fill="rgb(121,126,246)" stroke="none" stroke-width="1"/><path id="eUk37viTD8437" d="M45.47,61.56L45.47,60.92L45.47,60.92C45.349738,61.153706,45.161461,61.345471,44.93,61.47C44.692587,61.593885,44.427729,61.6558,44.16,61.65C43.931777,61.655213,43.704576,61.617912,43.49,61.54C43.322536,61.480024,43.1741,61.376464,43.06,61.24C42.946386,61.108104,42.867349,60.950029,42.83,60.78C42.784624,60.583191,42.761148,60.381969,42.76,60.18L42.76,57.52L43.43,57.52L43.43,60.26C43.417165,60.478844,43.497015,60.692987,43.65,60.85C43.810089,61.004565,44.027941,61.084444,44.25,61.07C44.43075,61.073535,44.610549,61.043003,44.78,60.98C44.92033,60.915959,45.046204,60.824105,45.15,60.71C45.248253,60.591972,45.322937,60.456182,45.37,60.31C45.422474,60.145064,45.449451,59.973081,45.45,59.8L45.45,57.52L46.11,57.52L46.11,61.52Z" fill="rgb(121,126,246)" stroke="none" stroke-width="1"/><path id="eUk37viTD8438" d="M47.7,57.52L47.7,58.37L47.7,58.37C47.833825,58.079074,48.040494,57.827626,48.3,57.64C48.567205,57.477419,48.87782,57.400637,49.19,57.42L49.19,58.13C48.958251,58.120713,48.727001,58.158122,48.51,58.24C48.33294,58.302319,48.176994,58.413213,48.06,58.56C47.937704,58.707964,47.852049,58.882699,47.81,59.07C47.750291,59.294956,47.723347,59.52735,47.73,59.76L47.73,61.56L47.06,61.56L47.06,57.56Z" fill="rgb(121,126,246)" stroke="none" stroke-width="1"/><path id="eUk37viTD8439" d="M50.21,60.66C50.27255,60.759161,50.358369,60.841548,50.46,60.9C50.565713,60.961109,50.680484,61.004992,50.8,61.03C50.932895,61.045288,51.067105,61.045288,51.2,61.03L51.53,61.03C51.636458,61.012053,51.740482,60.981852,51.84,60.94C51.935134,60.903399,52.018225,60.84108,52.08,60.76C52.145673,60.670043,52.180726,60.561376,52.18,60.45C52.188995,60.290632,52.112891,60.138425,51.98,60.05C51.828573,59.954959,51.663255,59.884109,51.49,59.84L50.85,59.69C50.633472,59.650774,50.422111,59.587031,50.22,59.5C50.031247,59.428581,49.862967,59.311816,49.73,59.16C49.584217,58.991721,49.512153,58.771928,49.53,58.55C49.528239,58.367126,49.576662,58.187271,49.67,58.03C49.757353,57.884622,49.87714,57.761413,50.02,57.67C50.166943,57.575527,50.32945,57.507816,50.5,57.47C50.675967,57.422158,50.857651,57.398606,51.04,57.4C51.251509,57.398172,51.462638,57.41828,51.67,57.46C51.853639,57.495941,52.029606,57.563621,52.19,57.66C52.340613,57.75932,52.461552,57.897536,52.54,58.06C52.635391,58.249912,52.689898,58.457717,52.7,58.67L52,58.67C51.997209,58.556087,51.962567,58.445233,51.9,58.35C51.847443,58.261045,51.771302,58.188365,51.68,58.14C51.589566,58.086344,51.491905,58.045933,51.39,58.02C51.280243,58.009665,51.169757,58.009665,51.06,58.02L50.76,58.02C50.666394,58.037843,50.575591,58.068111,50.49,58.11C50.407375,58.139426,50.334633,58.191385,50.28,58.26C50.225228,58.335392,50.197085,58.426858,50.2,58.52C50.196022,58.62876,50.244351,58.732852,50.33,58.8C50.418611,58.884703,50.524306,58.949484,50.64,58.99C50.775448,59.044491,50.916209,59.084709,51.06,59.11L51.53,59.22L52.02,59.35C52.170969,59.395492,52.313025,59.46652,52.44,59.56C52.562271,59.64748,52.664534,59.75997,52.74,59.89C52.816105,60.038329,52.853918,60.203332,52.85,60.37C52.858658,60.583424,52.806648,60.79493,52.7,60.98C52.598068,61.138734,52.461263,61.272119,52.3,61.37C52.127119,61.472354,51.937554,61.543441,51.74,61.58C51.539101,61.619782,51.3348,61.639877,51.13,61.64C50.914864,61.638106,50.700459,61.614656,50.49,61.57C50.297767,61.526017,50.11491,61.448133,49.95,61.34C49.788443,61.231753,49.657556,61.083644,49.57,60.91C49.470004,60.714691,49.415315,60.499355,49.41,60.28L50.08,60.28C50.086952,60.41633,50.13199,60.54798,50.21,60.66Z" fill="rgb(121,126,246)" stroke="none" stroke-width="1"/><path id="eUk37viTD8440" d="M53.52,58.71C53.590431,58.44728,53.720463,58.204326,53.9,58C54.069252,57.804252,54.281434,57.650248,54.52,57.55C54.784427,57.433302,55.071005,57.375304,55.36,57.38C55.652354,57.373846,55.942501,57.431876,56.21,57.55C56.444099,57.653061,56.652433,57.80675,56.82,58C56.994315,58.19273,57.124053,58.421479,57.2,58.67C57.284387,58.938658,57.328203,59.218406,57.33,59.5C57.329913,59.78173,57.286056,60.061735,57.2,60.33C57.124053,60.578521,56.994315,60.80727,56.82,61C56.652433,61.19325,56.444099,61.346939,56.21,61.45C55.939897,61.558546,55.651083,61.612911,55.36,61.61C55.072159,61.612909,54.786616,61.558519,54.52,61.45C54.281434,61.349752,54.069252,61.195748,53.9,61C53.725685,60.80727,53.595947,60.578521,53.52,60.33C53.43749,60.061165,53.397013,59.781196,53.4,59.5C53.4023,59.232306,53.442705,58.966303,53.52,58.71ZM54.2,60.2C54.250904,60.376095,54.343522,60.537319,54.47,60.67C54.580159,60.797655,54.716607,60.899991,54.87,60.97C55.02588,61.032897,55.19194,61.066787,55.36,61.07C55.528161,61.067711,55.694389,61.033787,55.85,60.97C56.003393,60.899991,56.139841,60.797655,56.25,60.67C56.376478,60.537319,56.469096,60.376095,56.52,60.2C56.591817,59.987576,56.625667,59.764164,56.62,59.54C56.624908,59.319154,56.591063,59.099158,56.52,58.89C56.466804,58.711917,56.374566,58.547938,56.25,58.41C56.02827,58.150026,55.701621,58.003217,55.36,58.01C55.191427,58.008249,55.024406,58.042335,54.87,58.11C54.716607,58.180009,54.580159,58.282345,54.47,58.41C54.345434,58.547938,54.253196,58.711917,54.2,58.89C54.128937,59.099158,54.095092,59.319154,54.1,59.54C54.094333,59.764164,54.128183,59.987576,54.2,60.2Z" fill="rgb(121,126,246)" stroke="none" stroke-width="1"/><path id="eUk37viTD8441" d="M58.71,57.52L58.71,58.37L58.71,58.37C58.840252,58.079753,59.043532,57.828237,59.3,57.64C59.567696,57.478602,59.877937,57.401913,60.19,57.42L60.19,58.13C59.958301,58.121519,59.727209,58.158901,59.51,58.24C59.33294,58.302319,59.176994,58.413213,59.06,58.56C58.937704,58.707964,58.852049,58.882699,58.81,59.07C58.755201,59.29586,58.728333,59.527593,58.73,59.76L58.73,61.56L58.06,61.56L58.06,57.56Z" fill="rgb(121,126,246)" stroke="none" stroke-width="1"/><path id="eUk37viTD8442" d="M14.73,69.39L14.73,68.75L14.73,68.75C14.606805,68.981572,14.419273,69.172577,14.19,69.3C13.952127,69.421671,13.68699,69.480208,13.42,69.47C13.192428,69.47796,12.965329,69.444065,12.75,69.37C12.584767,69.305772,12.43732,69.202903,12.32,69.07C12.210243,68.931812,12.131772,68.771457,12.09,68.6C12.038121,68.403899,12.00794,68.202692,12,68L12,65.34L12.66,65.34L12.66,68.08C12.648003,68.301699,12.727535,68.518604,12.88,68.68C13.043769,68.828588,13.258997,68.907504,13.48,68.9C13.661501,68.90159,13.841557,68.867618,14.01,68.8C14.154337,68.743019,14.281705,68.650075,14.38,68.53C14.485377,68.415369,14.56394,68.278738,14.61,68.13C14.659814,67.968125,14.683445,67.799331,14.68,67.63L14.68,65.34L15.35,65.34L15.35,69.34Z" fill="rgb(121,126,246)" stroke="none" stroke-width="1"/><path id="eUk37viTD8443" d="M17,65.34L17,66L17,66C17.256692,65.521774,17.76826,65.236702,18.31,65.27C18.538544,65.259823,18.766707,65.297282,18.98,65.38C19.147464,65.439976,19.2959,65.543536,19.41,65.68C19.523691,65.815668,19.602633,65.976982,19.64,66.15C19.685376,66.346809,19.708852,66.548031,19.71,66.75L19.71,69.41L19,69.41L19,66.65C19.018861,66.428141,18.938169,66.20937,18.779762,66.052895C18.621355,65.89642,18.401611,65.818418,18.18,65.84C17.99925,65.836465,17.819451,65.866997,17.65,65.93C17.505663,65.986981,17.378295,66.079925,17.28,66.2C17.176807,66.314587,17.101511,66.451488,17.06,66.6C17.006795,66.761323,16.979786,66.93013,16.98,67.1L16.98,69.39L16.32,69.39L16.32,65.39Z" fill="rgb(121,126,246)" stroke="none" stroke-width="1"/><path id="eUk37viTD8444" d="M22.44,65.34L22.44,65.93L21.63,65.93L21.63,68.44C21.623443,68.503164,21.623443,68.566836,21.63,68.63C21.644967,68.673893,21.672853,68.712237,21.71,68.74C21.753597,68.771834,21.806022,68.789309,21.86,68.79L22.42,68.79L22.42,69.38L21.91,69.38C21.763834,69.397131,21.616166,69.397131,21.47,69.38C21.359134,69.368079,21.25451,69.322742,21.17,69.25C21.090686,69.184553,21.031707,69.09782,21,69C20.977857,68.834069,20.977857,68.665931,21,68.5L21,65.93L20.31,65.93L20.31,65.34L21,65.34L21,64.13L21.66,64.13L21.66,65.34Z" fill="rgb(121,126,246)" stroke="none" stroke-width="1"/><path id="eUk37viTD8445" d="M25.9,69.39L25.9,68.75L25.9,68.75C25.776805,68.981572,25.589273,69.172577,25.36,69.3C25.12168,69.420423,24.856869,69.478887,24.59,69.47C24.362428,69.47796,24.135329,69.444065,23.92,69.37C23.752536,69.310024,23.6041,69.206464,23.49,69.07C23.376309,68.934332,23.297367,68.773018,23.26,68.6C23.214624,68.403191,23.191148,68.201969,23.19,68L23.19,65.34L23.86,65.34L23.86,68.08C23.848003,68.301699,23.927535,68.518604,24.08,68.68C24.24262,68.830476,24.458653,68.909687,24.68,68.9C24.86141,68.900587,25.041276,68.86665,25.21,68.8C25.354337,68.743019,25.481705,68.650075,25.58,68.53C25.683193,68.415413,25.758489,68.278512,25.8,68.13C25.853205,67.968677,25.880214,67.79987,25.88,67.63L25.88,65.34L26.54,65.34L26.54,69.34Z" fill="rgb(121,126,246)" stroke="none" stroke-width="1"/><path id="eUk37viTD8446" d="M28.23,63.8L28.23,67.11L30.08,65.34L31,65.34L29.39,66.81L31.12,69.39L30.27,69.39L28.89,67.28L28.26,67.85L28.26,69.39L27.59,69.39L27.59,63.8Z" fill="rgb(121,126,246)" stroke="none" stroke-width="1"/><path id="eUk37viTD8447" d="M33.8,64.61L33.8,63.8L34.47,63.8L34.47,64.61ZM34.47,65.34L34.47,69.34L33.8,69.34L33.8,65.34Z" fill="rgb(121,126,246)" stroke="none" stroke-width="1"/><path id="eUk37viTD8448" d="M36.13,65.34L36.13,66L36.13,66C36.391915,65.521983,36.905887,65.23774,37.45,65.27C37.675294,65.259742,37.900211,65.297228,38.11,65.38C38.277464,65.439976,38.4259,65.543536,38.54,65.68C38.653691,65.815668,38.732633,65.976982,38.77,66.15C38.820197,66.345944,38.843742,66.547763,38.84,66.75L38.84,69.41L38.18,69.41L38.18,66.65C38.199342,66.426215,38.117365,66.205541,37.95661,66.048659C37.795854,65.891778,37.573247,65.815206,37.35,65.84C37.172434,65.835499,36.995725,65.866083,36.83,65.93C36.682673,65.986667,36.551988,66.079522,36.45,66.2C36.346807,66.314587,36.271511,66.451488,36.23,66.6C36.180186,66.761875,36.156555,66.930669,36.16,67.1L36.16,69.39L35.5,69.39L35.5,65.39Z" fill="rgb(121,126,246)" stroke="none" stroke-width="1"/><path id="eUk37viTD8449" d="M39.44,65.93L39.44,65.34L40.13,65.34L40.13,64.74C40.114825,64.461917,40.216302,64.190104,40.41,63.99C40.649369,63.8055,40.9487,63.716413,41.25,63.74L41.46,63.74L41.68,63.74L41.68,64.32C41.617097,64.309556,41.552903,64.309556,41.49,64.32L41.3,64.32C41.166319,64.3158,41.034298,64.350542,40.92,64.42C40.822704,64.513035,40.774593,64.646266,40.79,64.78L40.79,65.34L41.57,65.34L41.57,65.93L40.79,65.93L40.79,69.39L40.13,69.39L40.13,65.93Z" fill="rgb(121,126,246)" stroke="none" stroke-width="1"/><path id="eUk37viTD8450" d="M42.07,66.54C42.150874,66.290618,42.279989,66.05957,42.45,65.86C42.621338,65.666537,42.832961,65.51294,43.07,65.41C43.613111,65.196535,44.216889,65.196535,44.76,65.41C44.997039,65.51294,45.208662,65.666537,45.38,65.86C45.551193,66.057148,45.677446,66.289181,45.75,66.54C45.840799,66.807118,45.884779,67.087912,45.88,67.37C45.88399,67.652033,45.840031,67.932693,45.75,68.2C45.675271,68.446916,45.54918,68.675243,45.38,68.87C45.210905,69.063487,44.99846,69.214254,44.76,69.31C44.216889,69.523465,43.613111,69.523465,43.07,69.31C42.83154,69.214254,42.619095,69.063487,42.45,68.87C42.281117,68.673398,42.152058,68.445846,42.07,68.2C41.98826,67.930993,41.947799,67.651143,41.95,67.37C41.947013,67.088804,41.98749,66.808835,42.07,66.54ZM42.75,68C42.811206,68.174572,42.902594,68.33704,43.02,68.48C43.131464,68.608113,43.272077,68.70757,43.43,68.77C43.74483,68.92707,44.11517,68.92707,44.43,68.77C44.587923,68.70757,44.728536,68.608113,44.84,68.48C44.957406,68.33704,45.048794,68.174572,45.11,68C45.230116,67.57499,45.230116,67.12501,45.11,66.7C45.046546,66.523386,44.955407,66.357987,44.84,66.21C44.728536,66.081887,44.587923,65.98243,44.43,65.92C44.276185,65.850488,44.108752,65.816318,43.94,65.82C43.774578,65.817473,43.61065,65.851624,43.46,65.92C43.302077,65.98243,43.161464,66.081887,43.05,66.21C42.934593,66.357987,42.843454,66.523386,42.78,66.7C42.646505,67.123052,42.646505,67.576948,42.78,68Z" fill="rgb(121,126,246)" stroke="none" stroke-width="1"/><path id="eUk37viTD8451" d="M47.26,65.34L47.26,66.2L47.26,66.2C47.387389,65.908005,47.591223,65.655804,47.85,65.47C48.119534,65.304168,48.434358,65.227211,48.75,65.25L48.75,66C48.518524,65.994929,48.288071,66.032208,48.07,66.11C47.893381,66.17853,47.735675,66.288238,47.61,66.43C47.491466,66.584095,47.406325,66.761189,47.36,66.95C47.305201,67.17586,47.278333,67.407593,47.28,67.64L47.28,69.44L46.62,69.44L46.62,65.44Z" fill="rgb(121,126,246)" stroke="none" stroke-width="1"/><path id="eUk37viTD8452" d="M49.89,65.34L49.89,65.94L49.89,65.94C50.170504,65.490828,50.670925,65.227248,51.2,65.25C51.436454,65.245877,51.670193,65.300874,51.88,65.41C52.088068,65.522506,52.242791,65.713212,52.31,65.94C52.436876,65.724867,52.620148,65.548511,52.84,65.43C53.068008,65.309787,53.322251,65.247944,53.58,65.25C53.765747,65.246741,53.950991,65.270318,54.13,65.32C54.281976,65.357882,54.424798,65.425893,54.55,65.52C54.670075,65.618295,54.763019,65.745663,54.82,65.89C54.893458,66.056685,54.92767,66.238008,54.92,66.42L54.92,69.42L54.26,69.42L54.26,66.74C54.270822,66.620244,54.270822,66.499756,54.26,66.38C54.234534,66.281086,54.194065,66.186657,54.14,66.1C54.07882,66.015969,53.995827,65.950266,53.9,65.91C53.77374,65.856499,53.636925,65.832556,53.5,65.84C53.215123,65.819077,52.934897,65.920977,52.73,66.12C52.536302,66.320104,52.434825,66.591917,52.45,66.87L52.45,69.39L51.78,69.39L51.78,66.74C51.790822,66.620244,51.790822,66.499756,51.78,66.38C51.754067,66.278095,51.713656,66.180434,51.66,66.09C51.596266,66.008464,51.513985,65.943324,51.42,65.9C51.301551,65.856857,51.176013,65.8365,51.05,65.84C50.879713,65.83155,50.710335,65.869574,50.56,65.95C50.430231,66.021363,50.314923,66.116323,50.22,66.23C50.137957,66.331815,50.073718,66.446768,50.03,66.57C49.994731,66.666331,49.974494,66.767514,49.97,66.87L49.97,69.39L49.31,69.39L49.31,65.39Z" fill="rgb(121,126,246)" stroke="none" stroke-width="1"/><path id="eUk37viTD8453" d="M59.53,69.37C59.380777,69.442649,59.215819,69.477015,59.05,69.47C58.899935,69.481393,58.751757,69.430795,58.64,69.33C58.530177,69.199134,58.476291,69.030291,58.49,68.86C58.314313,69.062354,58.09566,69.222927,57.85,69.33C57.598458,69.428245,57.329984,69.475822,57.06,69.47C56.884917,69.470391,56.710393,69.450253,56.54,69.41C56.388611,69.375663,56.245741,69.311031,56.12,69.22C55.997749,69.12714,55.898519,69.00738,55.83,68.87C55.676802,68.522816,55.676802,68.127184,55.83,67.78C55.904225,67.640476,56.010462,67.520532,56.14,67.43C56.275309,67.338337,56.423635,67.267546,56.58,67.22C56.743957,67.169449,56.91096,67.129369,57.08,67.1L57.6,67.02C57.748777,67.006639,57.896042,66.979863,58.04,66.94C58.150545,66.914677,58.253415,66.863242,58.34,66.79C58.415775,66.717194,58.455956,66.614915,58.45,66.51C58.458039,66.386726,58.426508,66.264105,58.36,66.16C58.311443,66.071417,58.238583,65.998557,58.15,65.95C58.059779,65.902208,57.961427,65.871685,57.86,65.86C57.756904,65.85009,57.653096,65.85009,57.55,65.86C57.30328,65.84884,57.058086,65.904095,56.84,66.02C56.634799,66.147373,56.518777,66.379415,56.54,66.62L55.87,66.62C55.862765,66.405879,55.907363,66.19318,56,66C56.09,65.833831,56.216504,65.690232,56.37,65.58C56.5346,65.47129,56.717566,65.39336,56.91,65.35C57.119729,65.300937,57.334624,65.277433,57.55,65.28C57.733016,65.264742,57.916984,65.264742,58.1,65.28C58.272094,65.301367,58.438459,65.35569,58.59,65.44C58.732952,65.522694,58.853198,65.639505,58.94,65.78C59.039146,65.952808,59.084415,66.151292,59.07,66.35L59.07,68.42C59.055769,68.536233,59.055769,68.653767,59.07,68.77C59.07,68.84,59.15,68.88,59.25,68.88L59.46,68.88ZM58.45,67.3C58.35037,67.368085,58.238194,67.415675,58.12,67.44L57.69,67.51C57.538851,67.520156,57.388529,67.540199,57.24,67.57C57.102364,67.588695,56.967842,67.625689,56.84,67.68C56.724814,67.729989,56.6223,67.805166,56.54,67.9C56.462564,68.018621,56.424107,68.158464,56.43,68.3C56.424148,68.395142,56.448659,68.489686,56.5,68.57C56.540022,68.646459,56.598445,68.711755,56.67,68.76C56.744539,68.805167,56.825443,68.838876,56.91,68.86C57.197006,68.915144,57.493432,68.894463,57.77,68.8C57.913212,68.748339,58.04549,68.670329,58.16,68.57C58.250458,68.487607,58.325026,68.389312,58.38,68.28C58.420029,68.184645,58.443694,68.083224,58.45,67.98Z" fill="rgb(121,126,246)" stroke="none" stroke-width="1"/><path id="eUk37viTD8454" d="M60.65,68.48C60.71222,68.582065,60.797935,68.66778,60.9,68.73C61.009238,68.79118,61.12731,68.835036,61.25,68.86C61.379793,68.870363,61.510207,68.870363,61.64,68.86L61.97,68.86C62.079933,68.848712,62.187689,68.821773,62.29,68.78C62.379257,68.73367,62.457654,68.668907,62.52,68.59C62.599565,68.483913,62.633728,68.350565,62.614975,68.219289C62.596221,68.088014,62.526087,67.969565,62.42,67.89C62.270724,67.790918,62.104698,67.719764,61.93,67.68C61.723561,67.616077,61.513096,67.565966,61.3,67.53C61.081377,67.486082,60.867172,67.42249,60.66,67.34C60.471247,67.268581,60.302967,67.151816,60.17,67C60.030618,66.828164,59.959418,66.611005,59.97,66.39C59.966388,66.203742,60.014877,66.020177,60.11,65.86C60.200371,65.719708,60.319708,65.600371,60.46,65.51C60.611347,65.417085,60.776862,65.349528,60.95,65.31C61.122738,65.263054,61.300997,65.23951,61.48,65.24C61.694818,65.238193,61.909261,65.258297,62.12,65.3C62.3013,65.333177,62.474477,65.40109,62.63,65.5C62.779514,65.599278,62.902981,65.733034,62.99,65.89C63.086373,66.082617,63.137667,66.294632,63.14,66.51L62.48,66.51C62.471051,66.394039,62.436925,66.281423,62.38,66.18C62.319411,66.097762,62.244966,66.026701,62.16,65.97C62.066542,65.917491,61.96525,65.88035,61.86,65.86C61.753582,65.849695,61.646418,65.849695,61.54,65.86C61.440248,65.850042,61.339752,65.850042,61.24,65.86C61.142681,65.869957,61.047889,65.897041,60.96,65.94C60.881255,65.976181,60.812584,66.031118,60.76,66.1C60.700944,66.169265,60.672127,66.259318,60.68,66.35C60.676348,66.459441,60.720085,66.565138,60.8,66.64C60.889363,66.721355,60.995046,66.782719,61.11,66.82C61.245014,66.878049,61.385801,66.921626,61.53,66.95L62,67.06C62.165967,67.092715,62.329643,67.13614,62.49,67.19C62.640969,67.235492,62.783025,67.30652,62.91,67.4C63.03245,67.48315,63.134914,67.592446,63.21,67.72C63.291902,67.869782,63.33002,68.039582,63.32,68.21C63.34214,68.620892,63.128867,69.008662,62.77,69.21C62.600643,69.312211,62.414381,69.383329,62.22,69.42C62.013586,69.434447,61.806414,69.434447,61.6,69.42C61.399884,69.43591,61.198612,69.429201,61,69.4C60.806203,69.360947,60.622439,69.282677,60.46,69.17C60.299145,69.065216,60.168216,68.920505,60.08,68.75C59.983608,68.55027,59.932395,68.33176,59.93,68.11L60.59,68.11C60.580796,68.236328,60.601346,68.363054,60.65,68.48Z" fill="rgb(121,126,246)" stroke="none" stroke-width="1"/><path id="eUk37viTD8455" d="M64.1,64.61L64.1,63.8L64.76,63.8L64.76,64.61ZM64.76,65.34L64.76,69.34L64.1,69.34L64.1,65.34Z" fill="rgb(121,126,246)" stroke="none" stroke-width="1"/><path id="eUk37viTD8456" d="M20.76,71.63L20.76,77.21L20.09,77.21L20.09,71.63Z" fill="rgb(121,126,246)" stroke="none" stroke-width="1"/><path id="eUk37viTD8457" d="M24.66,77C24.324386,77.236507,23.920264,77.355986,23.51,77.34C23.22174,77.347847,22.935191,77.293267,22.67,77.18C22.443007,77.078668,22.2389,76.932392,22.07,76.75C21.905577,76.549793,21.783144,76.318531,21.71,76.07C21.625473,75.794216,21.578385,75.508325,21.57,75.22C21.56686,74.929817,21.617725,74.641581,21.72,74.37C21.806225,74.12691,21.938658,73.902794,22.11,73.71C22.278324,73.52442,22.482407,73.374759,22.71,73.27C22.952965,73.164384,23.215072,73.10992,23.48,73.11C23.792589,73.099694,24.101543,73.179536,24.37,73.34C24.602233,73.482466,24.797534,73.677767,24.94,73.91C25.089971,74.136993,25.192052,74.392198,25.24,74.66C25.296449,74.912573,25.319978,75.171388,25.31,75.43L22.31,75.43C22.299062,75.602228,22.31939,75.775013,22.37,75.94C22.414273,76.095447,22.492871,76.238974,22.6,76.36C22.709379,76.486009,22.846227,76.585224,23,76.65C23.178848,76.730533,23.374028,76.768199,23.57,76.76C23.814354,76.771669,24.056063,76.705111,24.26,76.57C24.448339,76.419879,24.57617,76.206827,24.62,75.97L25.27,75.97C25.206607,76.378974,24.988159,76.747829,24.66,77ZM24.5,74.4C24.441642,74.261517,24.356708,74.135814,24.25,74.03C24.146579,73.927559,24.024338,73.846065,23.89,73.79C23.747996,73.728696,23.594659,73.698029,23.44,73.7C23.278781,73.697008,23.118709,73.72766,22.97,73.79C22.83299,73.845687,22.710037,73.931071,22.61,74.04C22.514152,74.146607,22.436452,74.268223,22.38,74.4C22.322035,74.53996,22.288223,74.688735,22.28,74.84L24.6,74.84C24.596471,74.675211,24.562571,74.512488,24.5,74.36Z" fill="rgb(121,126,246)" stroke="none" stroke-width="1"/><path id="eUk37viTD8458" d="M26.68,71.63L26.68,73.72L26.68,73.72C26.787078,73.498204,26.97224,73.323725,27.2,73.23C27.442965,73.124384,27.705072,73.06992,27.97,73.07C28.253813,73.063372,28.535057,73.125108,28.79,73.25C29.01409,73.359956,29.2119,73.516839,29.37,73.71C29.525648,73.914383,29.644121,74.144559,29.72,74.39C29.866875,74.923407,29.866875,75.486593,29.72,76.02C29.647461,76.261795,29.53232,76.488691,29.38,76.69C29.221523,76.880219,29.023631,77.033757,28.8,77.14C28.544798,77.251443,28.268408,77.306038,27.99,77.3L27.65,77.3C27.527602,77.275994,27.407244,77.242561,27.29,77.2C27.186392,77.144006,27.089158,77.076947,27,77C26.889502,76.916481,26.79756,76.810917,26.73,76.69L26.73,76.69L26.73,77.23L26,77.23L26,71.63ZM29.08,74.63C29.031966,74.457791,28.954122,74.295333,28.85,74.15C28.750765,74.008088,28.61638,73.894377,28.46,73.82C28.287662,73.729114,28.094752,73.684331,27.9,73.69C27.50449,73.65792,27.122357,73.841344,26.9,74.17C26.799904,74.318726,26.728667,74.484947,26.69,74.66C26.641576,74.842667,26.61803,75.031034,26.62,75.22C26.617372,75.412296,26.640921,75.604054,26.69,75.79C26.732618,75.965458,26.807196,76.131564,26.91,76.28C27.143701,76.594112,27.519025,76.770514,27.91,76.75C28.108293,76.75938,28.305383,76.71443,28.48,76.62C28.631474,76.537223,28.758942,76.416645,28.85,76.27C28.950199,76.11769,29.021394,75.948178,29.06,75.77C29.099708,75.579216,29.119812,75.384873,29.12,75.19C29.129148,74.992452,29.115728,74.794505,29.08,74.6Z" fill="rgb(121,126,246)" stroke="none" stroke-width="1"/><path id="eUk37viTD8459" d="M30.68,72.44L30.68,71.63L31.34,71.63L31.34,72.44ZM31.34,73.17L31.34,77.17L30.68,77.17L30.68,73.17Z" fill="rgb(121,126,246)" stroke="none" stroke-width="1"/><path id="eUk37viTD8460" d="M33,71.63L33,73.76L33,73.76C33.052838,73.643551,33.12752,73.538316,33.22,73.45C33.313702,73.361999,33.421978,73.290943,33.54,73.24C33.657652,73.181934,33.781884,73.138285,33.91,73.11C34.033158,73.100712,34.156842,73.100712,34.28,73.11C34.508223,73.104787,34.735424,73.142088,34.95,73.22C35.283277,73.35246,35.530071,73.640385,35.61,73.99C35.651774,74.187221,35.671893,74.388413,35.67,74.59L35.67,77.25L35.01,77.25L35.01,74.48C35.028393,74.257391,34.947927,74.037962,34.789982,73.880018C34.632038,73.722073,34.412609,73.641607,34.19,73.66C34.008085,73.653375,33.826994,73.687544,33.66,73.76C33.518432,73.817277,33.391862,73.906218,33.29,74.02C33.188787,74.137631,33.110748,74.273352,33.06,74.42C33.010914,74.585461,32.98731,74.757432,32.99,74.93L32.99,77.21L32.32,77.21L32.32,71.63Z" fill="rgb(121,126,246)" stroke="none" stroke-width="1"/><path id="eUk37viTD8461" d="M39.61,71.63L39.61,77.21L38.94,77.21L38.94,71.63Z" fill="rgb(121,126,246)" stroke="none" stroke-width="1"/><path id="eUk37viTD8462" d="M44.22,77.2C44.075465,77.275796,43.912872,77.31039,43.75,77.3C43.60038,77.308044,43.453453,77.257874,43.34,77.16C43.220837,77.030032,43.162651,76.855473,43.18,76.68C43.011694,76.89258,42.791202,77.057949,42.54,77.16C42.290559,77.253282,42.026312,77.300711,41.76,77.3C41.584886,77.300958,41.410294,77.280813,41.24,77.24C41.084232,77.204213,40.937729,77.136072,40.81,77.04C40.687749,76.94714,40.588519,76.82738,40.52,76.69C40.446671,76.526805,40.41243,76.348752,40.42,76.17C40.412567,75.976238,40.453824,75.783703,40.54,75.61C40.612914,75.46684,40.719248,75.343356,40.85,75.25C40.978872,75.155849,41.124964,75.087899,41.28,75.05C41.447637,75.000548,41.617901,74.960486,41.79,74.93C41.961829,74.894334,42.135397,74.867631,42.31,74.85L42.74,74.77C42.852052,74.749015,42.955981,74.69705,43.04,74.62C43.117369,74.544109,43.157575,74.438112,43.15,74.33C43.153316,74.20845,43.125793,74.08804,43.07,73.98C43.015693,73.898589,42.943962,73.830273,42.86,73.78C42.771083,73.729143,42.672087,73.69842,42.57,73.69L42.25,73.69C42.006456,73.678659,41.764433,73.733979,41.55,73.85C41.347557,73.985534,41.230142,74.216575,41.24,74.46L40.58,74.46C40.583668,74.238396,40.634818,74.020156,40.73,73.82C40.821016,73.654159,40.951539,73.513331,41.11,73.41C41.26784,73.295707,41.448711,73.217216,41.64,73.18C41.8526,73.12696,42.070884,73.100094,42.29,73.1C42.469863,73.090074,42.650137,73.090074,42.83,73.1C43.001388,73.124461,43.167202,73.178605,43.32,73.26C43.466606,73.341361,43.590401,73.458278,43.68,73.6C43.769662,73.776377,43.814321,73.972188,43.81,74.17L43.81,76.25C43.795671,76.36288,43.795671,76.47712,43.81,76.59C43.81,76.67,43.89,76.7,43.99,76.7L44.19,76.7ZM43.14,75.12C43.043562,75.193741,42.930044,75.241901,42.81,75.26L42.39,75.33L41.94,75.39C41.798686,75.411953,41.66085,75.452295,41.53,75.51C41.414077,75.553718,41.313335,75.630143,41.24,75.73C41.154888,75.84159,41.112342,75.979865,41.12,76.12C41.120599,76.217589,41.144605,76.31361,41.19,76.4C41.233051,76.471536,41.291038,76.532935,41.36,76.58C41.435153,76.63096,41.520434,76.665072,41.61,76.68C41.709707,76.690823,41.810293,76.690823,41.91,76.68C42.100583,76.684246,42.290345,76.653749,42.47,76.59C42.609621,76.541754,42.738639,76.467059,42.85,76.37C42.946457,76.289208,43.021937,76.18628,43.07,76.07C43.116671,75.976922,43.140658,75.874122,43.14,75.77Z" fill="rgb(121,126,246)" stroke="none" stroke-width="1"/><path id="eUk37viTD8463" d="M45.47,73.17L45.47,73.81L45.47,73.81C45.730966,73.3299,46.244268,73.04214,46.79,73.07C47.014975,73.064616,47.238931,73.101942,47.45,73.18C47.615339,73.248759,47.762515,73.354863,47.88,73.49C47.991046,73.625023,48.072778,73.781677,48.12,73.95C48.161774,74.147221,48.181893,74.348413,48.18,74.55L48.18,77.21L47.52,77.21L47.52,74.48C47.527504,74.258997,47.448588,74.043769,47.3,73.88C47.135531,73.725968,46.914924,73.646405,46.69,73.66C46.511409,73.654532,46.333824,73.688683,46.17,73.76C46.024834,73.815929,45.894719,73.904955,45.79,74.02C45.695426,74.140498,45.621119,74.275602,45.57,74.42C45.520914,74.585461,45.49731,74.757432,45.5,74.93L45.5,77.21L44.83,77.21L44.83,73.21Z" fill="rgb(121,126,246)" stroke="none" stroke-width="1"/><path id="eUk37viTD8464" d="M49.64,78.51C49.444927,78.682625,49.190194,78.77232,48.93,78.76C48.816902,78.770324,48.703098,78.770324,48.59,78.76L48.59,78.18L48.66,78.18L48.86,78.18C48.970992,78.193405,49.080933,78.147912,49.15,78.06C49.217953,77.923921,49.245704,77.77129,49.23,77.62L49.23,73.17L49.9,73.17L49.9,77.72C49.924573,78.007757,49.830668,78.293082,49.64,78.51ZM49.23,72.44L49.23,71.63L49.9,71.63L49.9,72.44Z" fill="rgb(121,126,246)" stroke="none" stroke-width="1"/><path id="eUk37viTD8465" d="M53.65,77.21L53.65,76.57L53.65,76.57C53.529738,76.803706,53.341461,76.995471,53.11,77.12C52.8693,77.244711,52.601008,77.306624,52.33,77.3C52.10573,77.307413,51.882008,77.273516,51.67,77.2C51.504661,77.131241,51.357485,77.025137,51.24,76.89C51.126386,76.758104,51.047349,76.600029,51.01,76.43C50.959803,76.234056,50.936258,76.032237,50.94,75.83L50.94,73.17L51.61,73.17L51.61,75.91C51.595892,76.129033,51.675929,76.343677,51.83,76.5C51.989401,76.655659,52.207759,76.735723,52.43,76.72C52.61075,76.723535,52.790549,76.693003,52.96,76.63C53.102562,76.569838,53.229217,76.477414,53.33,76.36C53.430255,76.24335,53.505173,76.107136,53.55,75.96C53.60326,75.79525,53.630257,75.623144,53.63,75.45L53.63,73.17L54.29,73.17L54.29,77.17Z" fill="rgb(121,126,246)" stroke="none" stroke-width="1"/><path id="eUk37viTD8466" d="M57,73.17L57,73.76L56.2,73.76L56.2,76.27C56.188555,76.332816,56.188555,76.397184,56.2,76.46C56.209628,76.503776,56.234422,76.542738,56.27,76.57C56.317219,76.594073,56.367781,76.610927,56.42,76.62L57,76.62L57,77.2L56.5,77.2C56.353567,77.211709,56.206433,77.211709,56.06,77.2C55.951029,77.181327,55.848141,77.136742,55.76,77.07C55.680004,76.996992,55.62126,76.903693,55.59,76.8C55.553917,76.652798,55.53711,76.501532,55.54,76.35L55.54,73.76L54.85,73.76L54.85,73.17L55.54,73.17L55.54,72L56.21,72L56.21,73.22Z" fill="rgb(121,126,246)" stroke="none" stroke-width="1"/></g><g id="eUk37viTD8467" transform="matrix(0.445674 0 0 0.445674 -1.555636 28.550477)"><text id="eUk37viTD8468" dx="0" dy="0" font-family="&quot;HelveticaNeue, &quot;Helvetica Neue&quot;" font-size="12" transform="matrix(1 0 0 1 10.022581 16.459999)" fill="rgb(121,126,246)" stroke="none" stroke-width="1"><tspan id="eUk37viTD8469" font-family="HelveticaNeue, Helvetica Neue" font-size="10.92" fill="rgb(121,126,246)" stroke="none" stroke-width="1"><![CDATA[di chut qua ]]></tspan><tspan id="eUk37viTD8470" x="4.58" y="10.92" font-family="HelveticaNeue, Helvetica Neue" font-size="10.92" fill="rgb(121,126,246)" stroke="none" stroke-width="1"><![CDATA[pht ni dung]]></tspan></text></g><script><![CDATA[!function(t,n){"object"==typeof exports&&"undefined"!=typeof module?module.exports=n():"function"==typeof define&&define.amd?define(n):(t="undefined"!=typeof globalThis?globalThis:t||self).__SVGATOR_PLAYER__=n()}(this,(function(){"use strict";function t(n){return(t="function"==typeof Symbol&&"symbol"==typeof Symbol.iterator?function(t){return typeof t}:function(t){return t&&"function"==typeof Symbol&&t.constructor===Symbol&&t!==Symbol.prototype?"symbol":typeof t})(n)}function n(t,n){if(!(t instanceof n))throw new TypeError("Cannot call a class as a function")}function e(t,n){for(var e=0;e<n.length;e++){var r=n[e];r.enumerable=r.enumerable||!1,r.configurable=!0,"value"in r&&(r.writable=!0),Object.defineProperty(t,r.key,r)}}function r(t,n,r){return n&&e(t.prototype,n),r&&e(t,r),t}function i(t){return(i=Object.setPrototypeOf?Object.getPrototypeOf:function(t){return t.__proto__||Object.getPrototypeOf(t)})(t)}function u(t,n){return(u=Object.setPrototypeOf||function(t,n){return t.__proto__=n,t})(t,n)}function o(t,n){return!n||"object"!=typeof n&&"function"!=typeof n?function(t){if(void 0===t)throw new ReferenceError("this hasn't been initialised - super() hasn't been called");return t}(t):n}function a(t){var n=function(){if("undefined"==typeof Reflect||!Reflect.construct)return!1;if(Reflect.construct.sham)return!1;if("function"==typeof Proxy)return!0;try{return Boolean.prototype.valueOf.call(Reflect.construct(Boolean,[],(function(){}))),!0}catch(t){return!1}}();return function(){var e,r=i(t);if(n){var u=i(this).constructor;e=Reflect.construct(r,arguments,u)}else e=r.apply(this,arguments);return o(this,e)}}function l(t,n,e){return(l="undefined"!=typeof Reflect&&Reflect.get?Reflect.get:function(t,n,e){var r=function(t,n){for(;!Object.prototype.hasOwnProperty.call(t,n)&&null!==(t=i(t)););return t}(t,n);if(r){var u=Object.getOwnPropertyDescriptor(r,n);return u.get?u.get.call(e):u.value}})(t,n,e||t)}var s=f(Math.pow(10,-6));function f(t){var n=arguments.length>1&&void 0!==arguments[1]?arguments[1]:6;if(Number.isInteger(t))return t;var e=Math.pow(10,n);return Math.round((+t+Number.EPSILON)*e)/e}function c(t,n){var e=arguments.length>2&&void 0!==arguments[2]?arguments[2]:s;return Math.abs(t-n)<e}var h=Math.PI/180;function v(t){return t}function d(t,n,e){var r=1-e;return 3*e*r*(t*r+n*e)+e*e*e}function y(){var t=arguments.length>0&&void 0!==arguments[0]?arguments[0]:0,n=arguments.length>1&&void 0!==arguments[1]?arguments[1]:0,e=arguments.length>2&&void 0!==arguments[2]?arguments[2]:1,r=arguments.length>3&&void 0!==arguments[3]?arguments[3]:1;return t<0||t>1||e<0||e>1?null:c(t,n)&&c(e,r)?v:function(i){if(i<=0)return t>0?i*n/t:0===n&&e>0?i*r/e:0;if(i>=1)return e<1?1+(i-1)*(r-1)/(e-1):1===e&&t<1?1+(i-1)*(n-1)/(t-1):1;for(var u,o=0,a=1;o<a;){var l=d(t,e,u=(o+a)/2);if(c(i,l))break;l<i?o=u:a=u}return d(n,r,u)}}function g(){return 1}function p(t){return 1===t?1:0}function m(){var t=arguments.length>0&&void 0!==arguments[0]?arguments[0]:1,n=arguments.length>1&&void 0!==arguments[1]?arguments[1]:0;if(1===t){if(0===n)return p;if(1===n)return g}var e=1/t;return function(t){return t>=1?1:(t+=n*e)-t%e}}function b(t,n,e){return t>=.5?e:n}function w(t,n,e){return 0===t||n===e?n:t*(e-n)+n}function x(t,n,e){var r=w(t,n,e);return r<=0?0:r}function A(t,n,e){return 0===t?n:1===t?e:{x:w(t,n.x,e.x),y:w(t,n.y,e.y)}}function k(t,n,e){return 0===t?n:1===t?e:{x:x(t,n.x,e.x),y:x(t,n.y,e.y)}}function _(t,n,e){var r=function(t,n,e){return Math.round(w(t,n,e))}(t,n,e);return r<=0?0:r>=255?255:r}function S(t,n,e){return 0===t?n:1===t?e:{r:_(t,n.r,e.r),g:_(t,n.g,e.g),b:_(t,n.b,e.b),a:w(t,null==n.a?1:n.a,null==e.a?1:e.a)}}function M(t,n,e){if(0===t)return n;if(1===t)return e;var r=n.length;if(r!==e.length)return b(t,n,e);for(var i=[],u=0;u<r;u++)i.push(S(t,n[u],e[u]));return i}function E(t,n,e){var r=n.length;if(r!==e.length)return b(t,n,e);for(var i=new Array(r),u=0;u<r;u++)i[u]=w(t,n[u],e[u]);return i}function O(t,n){for(var e=[],r=0;r<t;r++)e.push(n);return e}function B(t,n){if(--n<=0)return t;var e=(t=Object.assign([],t)).length;do{for(var r=0;r<e;r++)t.push(t[r])}while(--n>0);return t}var j,I=function(){function t(e){n(this,t),this.list=e,this.length=e.length}return r(t,[{key:"setAttribute",value:function(t,n){for(var e=this.list,r=0;r<this.length;r++)e[r].setAttribute(t,n)}},{key:"removeAttribute",value:function(t){for(var n=this.list,e=0;e<this.length;e++)n[e].removeAttribute(t)}},{key:"style",value:function(t,n){for(var e=this.list,r=0;r<this.length;r++)e[r].style[t]=n}}]),t}(),P=/-./g,T=function(t,n){return n.toUpperCase()};function R(t){return"function"==typeof t?t:b}function N(t){return t?"function"==typeof t?t:Array.isArray(t)?function(t){var n=arguments.length>1&&void 0!==arguments[1]?arguments[1]:v;if(!Array.isArray(t))return n;switch(t.length){case 1:return m(t[0])||n;case 2:return m(t[0],t[1])||n;case 4:return y(t[0],t[1],t[2],t[3])||n}return n}(t,null):function(t,n){var e=arguments.length>2&&void 0!==arguments[2]?arguments[2]:v;switch(t){case"linear":return v;case"steps":return m(n.steps||1,n.jump||0)||e;case"bezier":case"cubic-bezier":return y(n.x1||0,n.y1||0,n.x2||0,n.y2||0)||e}return e}(t.type,t.value,null):null}function C(t,n,e){var r=arguments.length>3&&void 0!==arguments[3]&&arguments[3],i=n.length-1;if(t<=n[0].t)return r?[0,0,n[0].v]:n[0].v;if(t>=n[i].t)return r?[i,1,n[i].v]:n[i].v;var u,o=n[0],a=null;for(u=1;u<=i;u++){if(!(t>n[u].t)){a=n[u];break}o=n[u]}return null==a?r?[i,1,n[i].v]:n[i].v:o.t===a.t?r?[u,1,a.v]:a.v:(t=(t-o.t)/(a.t-o.t),o.e&&(t=o.e(t)),r?[u,t,e(t,o.v,a.v)]:e(t,o.v,a.v))}function F(t,n){var e=arguments.length>2&&void 0!==arguments[2]?arguments[2]:null;return t&&t.length?"function"!=typeof n?null:("function"!=typeof e&&(e=null),function(r){var i=C(r,t,n);return null!=i&&e&&(i=e(i)),i}):null}function q(t,n){return t.t-n.t}function V(n,e,r,i,u){var o,a="@"===r[0],l="#"===r[0],s=j[r],f=b;switch(a?(o=r.substr(1),r=o.replace(P,T)):l&&(r=r.substr(1)),t(s)){case"function":if(f=s(i,u,C,N,r,a,e,n),l)return f;break;case"string":f=F(i,R(s));break;case"object":if((f=F(i,R(s.i),s.f))&&"function"==typeof s.u)return s.u(e,f,r,a,n)}return f?function(t,n,e){var r=arguments.length>3&&void 0!==arguments[3]&&arguments[3];if(r)return t instanceof I?function(r){return t.style(n,e(r))}:function(r){return t.style[n]=e(r)};if(Array.isArray(n)){var i=n.length;return function(r){var u=e(r);if(null==u)for(var o=0;o<i;o++)t[o].removeAttribute(n);else for(var a=0;a<i;a++)t[a].setAttribute(n,u)}}return function(r){var i=e(r);null==i?t.removeAttribute(n):t.setAttribute(n,i)}}(e,r,f,a):null}function L(n,e,r,i){if(!i||"object"!==t(i))return null;var u=null,o=null;return Array.isArray(i)?o=function(t){if(!t||!t.length)return null;for(var n=0;n<t.length;n++)t[n].e&&(t[n].e=N(t[n].e));return t.sort(q)}(i):(o=i.keys,u=i.data||null),o?V(n,e,r,o,u):null}function z(t,n,e){if(!e)return null;var r=[];for(var i in e)if(e.hasOwnProperty(i)){var u=L(t,n,i,e[i]);u&&r.push(u)}return r.length?r:null}function D(t,n){if(!n.duration||n.duration<0)return null;var e=function(t,n){if(!n)return null;var e=[];if(Array.isArray(n))for(var r=n.length,i=0;i<r;i++){var u=n[i];if(2===u.length){var o=null;if("string"==typeof u[0])o=t.getElementById(u[0]);else if(Array.isArray(u[0])){o=[];for(var a=0;a<u[0].length;a++)if("string"==typeof u[0][a]){var l=t.getElementById(u[0][a]);l&&o.push(l)}o=o.length?1===o.length?o[0]:new I(o):null}if(o){var s=z(t,o,u[1]);s&&(e=e.concat(s))}}}else for(var f in n)if(n.hasOwnProperty(f)){var c=t.getElementById(f);if(c){var h=z(t,c,n[f]);h&&(e=e.concat(h))}}return e.length?e:null}(t,n.elements);return e?function(t,n){var e=arguments.length>2&&void 0!==arguments[2]?arguments[2]:1/0,r=arguments.length>3&&void 0!==arguments[3]?arguments[3]:1,i=arguments.length>4&&void 0!==arguments[4]&&arguments[4],u=arguments.length>5&&void 0!==arguments[5]?arguments[5]:1,o=t.length,a=r>0?n:0;i&&e%2==0&&(a=n-a);var l=null;return function(s,f){var c=s%n,h=1+(s-c)/n;f*=r,i&&h%2==0&&(f=-f);var v=!1;if(h>e)c=a,v=!0,-1===u&&(c=r>0?0:n);else if(f<0&&(c=n-c),c===l)return!1;l=c;for(var d=0;d<o;d++)t[d](c);return v}}(e,n.duration,n.iterations||1/0,n.direction||1,!!n.alternate,n.fill||1):null}var U=function(){function t(e,r){var i=arguments.length>2&&void 0!==arguments[2]?arguments[2]:{};n(this,t),this._id=0,this._running=!1,this._rollingBack=!1,this._animations=e,this.duration=r.duration,this.alternate=r.alternate,this.fill=r.fill,this.iterations=r.iterations,this.direction=i.direction||1,this.speed=i.speed||1,this.fps=i.fps||100,this.offset=i.offset||0,this.rollbackStartOffset=0}return r(t,[{key:"_rollback",value:function(){var t=this,n=1/0,e=null;this.rollbackStartOffset=this.offset,this._rollingBack||(this._rollingBack=!0,this._running=!0);this._id=window.requestAnimationFrame((function r(i){if(t._rollingBack){null==e&&(e=i);var u=i-e,o=t.rollbackStartOffset-u,a=Math.round(o*t.speed);if(a>t.duration&&n!=1/0){var l=!!t.alternate&&a/t.duration%2>1,s=a%t.duration;a=(s+=l?t.duration:0)||t.duration}var f=t.fps?1e3/t.fps:0,c=Math.max(0,a);if(c<n-f){t.offset=c,n=c;for(var h=t._animations,v=h.length,d=0;d<v;d++)h[d](c,t.direction)}var y=!1;if(t.iterations>0&&-1===t.fill){var g=t.iterations*t.duration,p=g==a;a=p?0:a,t.offset=p?0:t.offset,y=a>g}a>0&&t.offset>=a&&!y?t._id=window.requestAnimationFrame(r):t.stop()}}))}},{key:"_start",value:function(){var t=this,n=arguments.length>0&&void 0!==arguments[0]?arguments[0]:0,e=-1/0,r=null,i={},u=function u(o){t._running=!0,null==r&&(r=o);var a=Math.round((o-r+n)*t.speed),l=t.fps?1e3/t.fps:0;if(a>e+l&&!t._rollingBack){t.offset=a,e=a;for(var s=t._animations,f=s.length,c=0,h=0;h<f;h++)i[h]?c++:(i[h]=s[h](a,t.direction),i[h]&&c++);if(c===f)return void t._stop()}t._id=window.requestAnimationFrame(u)};this._id=window.requestAnimationFrame(u)}},{key:"_stop",value:function(){this._id&&window.cancelAnimationFrame(this._id),this._running=!1,this._rollingBack=!1}},{key:"play",value:function(){!this._rollingBack&&this._running||(this._rollingBack=!1,this.rollbackStartOffset>this.duration&&(this.offset=this.rollbackStartOffset-(this.rollbackStartOffset-this.offset)%this.duration,this.rollbackStartOffset=0),this._start(this.offset))}},{key:"stop",value:function(){this._stop(),this.offset=0,this.rollbackStartOffset=0;var t=this.direction,n=this._animations;window.requestAnimationFrame((function(){for(var e=0;e<n.length;e++)n[e](0,t)}))}},{key:"reachedToEnd",value:function(){return this.iterations>0&&this.offset>=this.iterations*this.duration}},{key:"restart",value:function(){this._stop(),this.offset=0,this._start()}},{key:"pause",value:function(){this._stop()}},{key:"reverse",value:function(){this.direction=-this.direction}}],[{key:"build",value:function(n,e){return(n=function(t,n){if(j=n,!t||!t.root||!Array.isArray(t.animations))return null;for(var e=document.getElementsByTagName("svg"),r=!1,i=0;i<e.length;i++)if(e[i].id===t.root&&!e[i].svgatorAnimation){(r=e[i]).svgatorAnimation=!0;break}if(!r)return null;var u=t.animations.map((function(t){return D(r,t)})).filter((function(t){return!!t}));return u.length?{element:r,animations:u,animationSettings:t.animationSettings,options:t.options||void 0}:null}(n,e))?{el:n.element,options:n.options||{},player:new t(n.animations,n.animationSettings,n.options)}:null}}]),t}();!function(){for(var t=0,n=["ms","moz","webkit","o"],e=0;e<n.length&&!window.requestAnimationFrame;++e)window.requestAnimationFrame=window[n[e]+"RequestAnimationFrame"],window.cancelAnimationFrame=window[n[e]+"CancelAnimationFrame"]||window[n[e]+"CancelRequestAnimationFrame"];window.requestAnimationFrame||(window.requestAnimationFrame=function(n){var e=Date.now(),r=Math.max(0,16-(e-t)),i=window.setTimeout((function(){n(e+r)}),r);return t=e+r,i},window.cancelAnimationFrame=window.clearTimeout)}();var W=function(t,n){var e=!1,r=null;return function(i){e&&clearTimeout(e),e=setTimeout((function(){return function(){for(var i=0,u=window.innerHeight,o=0,a=window.innerWidth,l=t.parentNode;l instanceof Element;){var s=window.getComputedStyle(l);if("visible"!==s.overflowY||"visible"!==s.overflowX){var f=l.getBoundingClientRect();"visible"!==s.overflowY&&(i=Math.max(i,f.top),u=Math.min(u,f.bottom)),"visible"!==s.overflowX&&(o=Math.max(o,f.left),a=Math.min(a,f.right))}if(l===l.parentNode)break;l=l.parentNode}e=!1;var c=t.getBoundingClientRect(),h=Math.min(c.height,Math.max(0,i-c.top)),v=Math.min(c.height,Math.max(0,c.bottom-u)),d=Math.min(c.width,Math.max(0,o-c.left)),y=Math.min(c.width,Math.max(0,c.right-a)),g=(c.height-h-v)/c.height,p=(c.width-d-y)/c.width,m=Math.round(g*p*100);null!==r&&r===m||(r=m,n(m))}()}),100)}},Y=function(){function t(e,r,i){n(this,t),r=Math.max(1,r||1),r=Math.min(r,100),this.el=e,this.onTresholdChange=i&&i.call?i:function(){},this.tresholdPercent=r||1,this.currentVisibility=null,this.visibilityCalculator=W(e,this.onVisibilityUpdate.bind(this)),this.bindScrollWatchers(),this.visibilityCalculator()}return r(t,[{key:"bindScrollWatchers",value:function(){for(var t=this.el.parentNode;t&&(t.addEventListener("scroll",this.visibilityCalculator),t!==t.parentNode&&t!==document);)t=t.parentNode}},{key:"onVisibilityUpdate",value:function(t){var n=this.currentVisibility>=this.tresholdPercent,e=t>=this.tresholdPercent;if(null===this.currentVisibility||n!==e)return this.currentVisibility=t,void this.onTresholdChange(e);this.currentVisibility=t}}]),t}();function G(t){return f(t)+""}function H(t){var n=arguments.length>1&&void 0!==arguments[1]?arguments[1]:" ";return t&&t.length?t.map(G).join(n):""}function Q(t){return G(t.x)+","+G(t.y)}function X(t){return t?null==t.a||t.a>=1?"rgb("+t.r+","+t.g+","+t.b+")":"rgba("+t.r+","+t.g+","+t.b+","+t.a+")":"transparent"}var Z={f:null,i:k,u:function(t,n){return function(e){var r=n(e);t.setAttribute("rx",G(r.x)),t.setAttribute("ry",G(r.y))}}},J={f:null,i:function(t,n,e){return 0===t?n:1===t?e:{width:x(t,n.width,e.width),height:x(t,n.height,e.height)}},u:function(t,n){return function(e){var r=n(e);t.setAttribute("width",G(r.width)),t.setAttribute("height",G(r.height))}}},K=Math.sin,$=Math.cos,tt=Math.acos,nt=Math.asin,et=Math.tan,rt=Math.atan2,it=Math.PI/180,ut=180/Math.PI,ot=Math.sqrt,at=function(){function t(){var e=arguments.length>0&&void 0!==arguments[0]?arguments[0]:1,r=arguments.length>1&&void 0!==arguments[1]?arguments[1]:0,i=arguments.length>2&&void 0!==arguments[2]?arguments[2]:0,u=arguments.length>3&&void 0!==arguments[3]?arguments[3]:1,o=arguments.length>4&&void 0!==arguments[4]?arguments[4]:0,a=arguments.length>5&&void 0!==arguments[5]?arguments[5]:0;n(this,t),this.m=[e,r,i,u,o,a],this.i=null,this.w=null,this.s=null}return r(t,[{key:"determinant",get:function(){var t=this.m;return t[0]*t[3]-t[1]*t[2]}},{key:"isIdentity",get:function(){if(null===this.i){var t=this.m;this.i=1===t[0]&&0===t[1]&&0===t[2]&&1===t[3]&&0===t[4]&&0===t[5]}return this.i}},{key:"point",value:function(t,n){var e=this.m;return{x:e[0]*t+e[2]*n+e[4],y:e[1]*t+e[3]*n+e[5]}}},{key:"translateSelf",value:function(){var t=arguments.length>0&&void 0!==arguments[0]?arguments[0]:0,n=arguments.length>1&&void 0!==arguments[1]?arguments[1]:0;if(!t&&!n)return this;var e=this.m;return e[4]+=e[0]*t+e[2]*n,e[5]+=e[1]*t+e[3]*n,this.w=this.s=this.i=null,this}},{key:"rotateSelf",value:function(){var t=arguments.length>0&&void 0!==arguments[0]?arguments[0]:0;if(t%=360){var n=K(t*=it),e=$(t),r=this.m,i=r[0],u=r[1];r[0]=i*e+r[2]*n,r[1]=u*e+r[3]*n,r[2]=r[2]*e-i*n,r[3]=r[3]*e-u*n,this.w=this.s=this.i=null}return this}},{key:"scaleSelf",value:function(){var t=arguments.length>0&&void 0!==arguments[0]?arguments[0]:1,n=arguments.length>1&&void 0!==arguments[1]?arguments[1]:1;if(1!==t||1!==n){var e=this.m;e[0]*=t,e[1]*=t,e[2]*=n,e[3]*=n,this.w=this.s=this.i=null}return this}},{key:"skewSelf",value:function(t,n){if(n%=360,(t%=360)||n){var e=this.m,r=e[0],i=e[1],u=e[2],o=e[3];t&&(t=et(t*it),e[2]+=r*t,e[3]+=i*t),n&&(n=et(n*it),e[0]+=u*n,e[1]+=o*n),this.w=this.s=this.i=null}return this}},{key:"resetSelf",value:function(){var t=arguments.length>0&&void 0!==arguments[0]?arguments[0]:1,n=arguments.length>1&&void 0!==arguments[1]?arguments[1]:0,e=arguments.length>2&&void 0!==arguments[2]?arguments[2]:0,r=arguments.length>3&&void 0!==arguments[3]?arguments[3]:1,i=arguments.length>4&&void 0!==arguments[4]?arguments[4]:0,u=arguments.length>5&&void 0!==arguments[5]?arguments[5]:0,o=this.m;return o[0]=t,o[1]=n,o[2]=e,o[3]=r,o[4]=i,o[5]=u,this.w=this.s=this.i=null,this}},{key:"recomposeSelf",value:function(){var t=arguments.length>0&&void 0!==arguments[0]?arguments[0]:null,n=arguments.length>1&&void 0!==arguments[1]?arguments[1]:null,e=arguments.length>2&&void 0!==arguments[2]?arguments[2]:null,r=arguments.length>3&&void 0!==arguments[3]?arguments[3]:null,i=arguments.length>4&&void 0!==arguments[4]?arguments[4]:null;return this.isIdentity||this.resetSelf(),t&&(t.x||t.y)&&this.translateSelf(t.x,t.y),n&&this.rotateSelf(n),e&&(e.x&&this.skewSelf(e.x,0),e.y&&this.skewSelf(0,e.y)),!r||1===r.x&&1===r.y||this.scaleSelf(r.x,r.y),i&&(i.x||i.y)&&this.translateSelf(i.x,i.y),this}},{key:"decompose",value:function(){var t=arguments.length>0&&void 0!==arguments[0]?arguments[0]:0,n=arguments.length>1&&void 0!==arguments[1]?arguments[1]:0,e=this.m,r=e[0]*e[0]+e[1]*e[1],i=[[e[0],e[1]],[e[2],e[3]]],u=ot(r);if(0===u)return{origin:{x:f(e[4]),y:f(e[5])},translate:{x:f(t),y:f(n)},scale:{x:0,y:0},skew:{x:0,y:0},rotate:0};i[0][0]/=u,i[0][1]/=u;var o=e[0]*e[3]-e[1]*e[2]<0;o&&(u=-u);var a=i[0][0]*i[1][0]+i[0][1]*i[1][1];i[1][0]-=i[0][0]*a,i[1][1]-=i[0][1]*a;var l=ot(i[1][0]*i[1][0]+i[1][1]*i[1][1]);if(0===l)return{origin:{x:f(e[4]),y:f(e[5])},translate:{x:f(t),y:f(n)},scale:{x:f(u),y:0},skew:{x:0,y:0},rotate:0};i[1][0]/=l,i[1][1]/=l,a/=l;var s=0;return i[1][1]<0?(s=tt(i[1][1])*ut,i[0][1]<0&&(s=360-s)):s=nt(i[0][1])*ut,o&&(s=-s),a=rt(a,ot(i[0][0]*i[0][0]+i[0][1]*i[0][1]))*ut,o&&(a=-a),{origin:{x:f(e[4]),y:f(e[5])},translate:{x:f(t),y:f(n)},scale:{x:f(u),y:f(l)},skew:{x:f(a),y:0},rotate:f(s)}}},{key:"toString",value:function(){return null===this.s&&(this.s="matrix("+this.m.map((function(t){return f(t)})).join(" ")+")"),this.s}}]),t}();Object.freeze({M:2,L:2,Z:0,H:1,V:1,C:6,Q:4,T:2,S:4,A:7});var lt={},st=null;function ft(n){var e=function(){if(st)return st;if("object"!==("undefined"==typeof document?"undefined":t(document))||!document.createElementNS)return{};var n=document.createElementNS("http://www.w3.org/2000/svg","svg");return n&&n.style?(n.style.position="absolute",n.style.opacity="0.01",n.style.zIndex="-9999",n.style.left="-9999px",n.style.width="1px",n.style.height="1px",st={svg:n}):{}}().svg;if(!e)return function(t){return null};var r=document.createElementNS(e.namespaceURI,"path");r.setAttributeNS(null,"d",n),r.setAttributeNS(null,"fill","none"),r.setAttributeNS(null,"stroke","none"),e.appendChild(r);var i=r.getTotalLength();return function(t){var n=r.getPointAtLength(i*t);return{x:n.x,y:n.y}}}function ct(t){return lt[t]?lt[t]:lt[t]=ft(t)}function ht(t,n,e,r){if(!t||!r)return!1;var i=["M",t.x,t.y];if(n&&e&&(i.push("C"),i.push(n.x),i.push(n.y),i.push(e.x),i.push(e.y)),n?!e:e){var u=n||e;i.push("Q"),i.push(u.x),i.push(u.y)}return n||e||i.push("L"),i.push(r.x),i.push(r.y),i.join(" ")}function vt(t,n,e,r){var i=arguments.length>4&&void 0!==arguments[4]?arguments[4]:1,u=ht(t,n,e,r),o=ct(u);try{return o(i)}catch(t){return null}}function dt(t,n,e,r){var i=1-r;return i*i*t+2*i*r*n+r*r*e}function yt(t,n,e,r){return 2*(1-r)*(n-t)+2*r*(e-n)}function gt(t,n,e,r){var i=arguments.length>4&&void 0!==arguments[4]&&arguments[4],u=vt(t,n,null,e,r);return u||(u={x:dt(t.x,n.x,e.x,r),y:dt(t.y,n.y,e.y,r)}),i&&(u.a=pt(t,n,e,r)),u}function pt(t,n,e,r){return Math.atan2(yt(t.y,n.y,e.y,r),yt(t.x,n.x,e.x,r))}function mt(t,n,e,r,i){var u=i*i;return i*u*(r-t+3*(n-e))+3*u*(t+e-2*n)+3*i*(n-t)+t}function bt(t,n,e,r,i){var u=1-i;return 3*(u*u*(n-t)+2*u*i*(e-n)+i*i*(r-e))}function wt(t,n,e,r,i){var u=arguments.length>5&&void 0!==arguments[5]&&arguments[5],o=vt(t,n,e,r,i);return o||(o={x:mt(t.x,n.x,e.x,r.x,i),y:mt(t.y,n.y,e.y,r.y,i)}),u&&(o.a=xt(t,n,e,r,i)),o}function xt(t,n,e,r,i){return Math.atan2(bt(t.y,n.y,e.y,r.y,i),bt(t.x,n.x,e.x,r.x,i))}function At(t,n,e){return t+(n-t)*e}function kt(t,n,e){var r=arguments.length>3&&void 0!==arguments[3]&&arguments[3],i={x:At(t.x,n.x,e),y:At(t.y,n.y,e)};return r&&(i.a=_t(t,n)),i}function _t(t,n){return Math.atan2(n.y-t.y,n.x-t.x)}function St(t,n,e){var r=arguments.length>3&&void 0!==arguments[3]&&arguments[3];if(Et(n)){if(Ot(e))return gt(n,e.start,e,t,r)}else if(Et(e)){if(n.end)return gt(n,n.end,e,t,r)}else{if(n.end)return e.start?wt(n,n.end,e.start,e,t,r):gt(n,n.end,e,t,r);if(e.start)return gt(n,e.start,e,t,r)}return kt(n,e,t,r)}function Mt(t,n,e){var r=St(t,n,e,!0);return r.a=function(t){var n=arguments.length>1&&void 0!==arguments[1]&&arguments[1];return n?t+Math.PI:t}(r.a)/h,r}function Et(t){return!t.type||"corner"===t.type}function Ot(t){return null!=t.start&&!Et(t)}var Bt=new at;var jt={f:function(t){return t?t.join(" "):""},i:function(n,e,r){if(0===n)return e;if(1===n)return r;var i=e.length;if(i!==r.length)return b(n,e,r);for(var u,o=new Array(i),a=0;a<i;a++){if((u=t(e[a]))!==t(r[a]))return b(n,e,r);if("number"===u)o[a]=w(n,e[a],r[a]);else{if(e[a]!==r[a])return b(n,e,r);o[a]=e[a]}}return o}},It={f:null,i:E,u:function(t,n){return function(e){var r=n(e);t.setAttribute("x1",G(r[0])),t.setAttribute("y1",G(r[1])),t.setAttribute("x2",G(r[2])),t.setAttribute("y2",G(r[3]))}}},Pt={f:G,i:w},Tt={f:G,i:function(t,n,e){var r=w(t,n,e);return r<=0?0:r>=1?1:r}},Rt={f:function(t){var n=arguments.length>1&&void 0!==arguments[1]?arguments[1]:" ";return t&&t.length>0&&(t=t.map((function(t){return f(t,4)}))),H(t,n)},i:function(t,n,e){var r,i,u,o=n.length,a=e.length;if(o!==a)if(0===o)n=O(o=a,0);else if(0===a)a=o,e=O(o,0);else{var l=(u=(r=o)*(i=a)/function(t,n){for(var e;n;)e=n,n=t%n,t=e;return t||1}(r,i))<0?-u:u;n=B(n,Math.floor(l/o)),e=B(e,Math.floor(l/a)),o=a=l}for(var s=[],c=0;c<o;c++)s.push(f(x(t,n[c],e[c])));return s}};function Nt(t,n,e,r,i,u,o,a){return n=function(t,n,e){for(var r,i,u,o=t.length-1,a={},l=0;l<=o;l++)(r=t[l]).e&&(r.e=n(r.e)),r.v&&"g"===(i=r.v).t&&i.r&&(u=e.getElementById(i.r))&&(a[i.r]=u.querySelectorAll("stop"));return a}(t,r,a),function(r){var i,u=e(r,t,Ct);return u?"c"===u.t?X(u.v):"g"===u.t?(n[u.r]&&function(t,n){for(var e=0,r=t.length;e<r;e++)t[e].setAttribute("stop-color",X(n[e]))}(n[u.r],u.v),(i=u.r)?"url(#"+i+")":"none"):"none":"none"}}function Ct(t,n,e){if(0===t)return n;if(1===t)return e;if(n&&e){var r=n.t;if(r===e.t)switch(n.t){case"c":return{t:r,v:S(t,n.v,e.v)};case"g":if(n.r===e.r)return{t:r,v:M(t,n.v,e.v),r:n.r}}}return b(t,n,e)}var Ft={blur:k,brightness:x,contrast:x,"drop-shadow":function(t,n,e){return 0===t?n:1===t?e:{blur:k(t,n.blur,e.blur),offset:A(t,n.offset,e.offset),color:S(t,n.color,e.color)}},grayscale:x,"hue-rotate":w,invert:x,opacity:x,saturate:x,sepia:x};function qt(t,n,e){if(0===t)return n;if(1===t)return e;var r=n.length;if(r!==e.length)return b(t,n,e);for(var i,u=[],o=0;o<r;o++){if(n[o].type!==e[o].type)return n;if(!(i=Ft[n[o].type]))return b(t,n,e);u.push({type:n.type,value:i(t,n[o].value,e[o].value)})}return u}var Vt={blur:function(t){return t?function(n){t.setAttribute("stdDeviation",Q(n))}:null},brightness:function(t,n,e){return(t=zt(e,n))?function(n){n=G(n),t.map((function(t){return t.setAttribute("slope",n)}))}:null},contrast:function(t,n,e){return(t=zt(e,n))?function(n){var e=G((1-n)/2);n=G(n),t.map((function(t){t.setAttribute("slope",n),t.setAttribute("intercept",e)}))}:null},"drop-shadow":function(t,n,e){var r=e.getElementById(n+"-blur");if(!r)return null;var i=e.getElementById(n+"-offset");if(!i)return null;var u=e.getElementById(n+"-flood");return u?function(t){r.setAttribute("stdDeviation",Q(t.blur)),i.setAttribute("dx",G(t.offset.x)),i.setAttribute("dy",G(t.offset.y)),u.setAttribute("flood-color",X(t.color))}:null},grayscale:function(t){return t?function(n){t.setAttribute("values",H(function(t){return[.2126+.7874*(t=1-t),.7152-.7152*t,.0722-.0722*t,0,0,.2126-.2126*t,.7152+.2848*t,.0722-.0722*t,0,0,.2126-.2126*t,.7152-.7152*t,.0722+.9278*t,0,0,0,0,0,1,0]}(n)))}:null},"hue-rotate":function(t){return t?function(n){return t.setAttribute("values",G(n))}:null},invert:function(t,n,e){return(t=zt(e,n))?function(n){n=G(n)+" "+G(1-n),t.map((function(t){return t.setAttribute("tableValues",n)}))}:null},opacity:function(t,n,e){return(t=e.getElementById(n+"-A"))?function(n){return t.setAttribute("tableValues","0 "+G(n))}:null},saturate:function(t){return t?function(n){return t.setAttribute("values",G(n))}:null},sepia:function(t){return t?function(n){return t.setAttribute("values",H(function(t){return[.393+.607*(t=1-t),.769-.769*t,.189-.189*t,0,0,.349-.349*t,.686+.314*t,.168-.168*t,0,0,.272-.272*t,.534-.534*t,.131+.869*t,0,0,0,0,0,1,0]}(n)))}:null}};var Lt=["R","G","B"];function zt(t,n){var e=Lt.map((function(e){return t.getElementById(n+"-"+e)||null}));return-1!==e.indexOf(null)?null:e}var Dt={fill:Nt,"fill-opacity":Tt,stroke:Nt,"stroke-opacity":Tt,"stroke-width":Pt,"stroke-dashoffset":{f:G,i:w},"stroke-dasharray":Rt,opacity:Tt,transform:function(n,e,r,i){if(!(n=function(n,e){if(!n||"object"!==t(n))return null;var r=!1;for(var i in n)n.hasOwnProperty(i)&&(n[i]&&n[i].length?(n[i].forEach((function(t){t.e&&(t.e=e(t.e))})),r=!0):delete n[i]);return r?n:null}(n,i)))return null;var u=function(t,i,u){var o=arguments.length>3&&void 0!==arguments[3]?arguments[3]:null;return n[t]?r(i,n[t],u):e&&e[t]?e[t]:o};return e&&e.a&&n.o?function(t){var e=r(t,n.o,Mt);return Bt.recomposeSelf(e,u("r",t,w,0)+e.a,u("k",t,A),u("s",t,A),u("t",t,A)).toString()}:function(t){return Bt.recomposeSelf(u("o",t,St,null),u("r",t,w,0),u("k",t,A),u("s",t,A),u("t",t,A)).toString()}},"#filter":function(t,n,e,r,i,u,o,a){if(!n.items||!t||!t.length)return null;var l=function(t,n){var e=(t=t.map((function(t){return t&&Vt[t[0]]?(n.getElementById(t[1]),Vt[t[0]](n.getElementById(t[1]),t[1],n)):null}))).length;return function(n){for(var r=0;r<e;r++)t[r]&&t[r](n[r].value)}}(n.items,a);return l?(t=function(t,n){return t.map((function(t){return t.e=n(t.e),t}))}(t,r),function(n){l(e(n,t,qt))}):null},"#line":It,points:{f:H,i:E},d:jt,r:Pt,"#size":J,"#radius":Z,_:function(t,n){if(Array.isArray(t))for(var e=0;e<t.length;e++)this[t[e]]=n;else this[t]=n}};return function(t){!function(t,n){if("function"!=typeof n&&null!==n)throw new TypeError("Super expression must either be null or a function");t.prototype=Object.create(n&&n.prototype,{constructor:{value:t,writable:!0,configurable:!0}}),n&&u(t,n)}(o,t);var e=a(o);function o(){return n(this,o),e.apply(this,arguments)}return r(o,null,[{key:"build",value:function(t){var n=l(i(o),"build",this).call(this,t,Dt);if(!n)return null;var e=n.el,r=n.options,u=n.player;return function(t,n,e){if("click"===e.start){return void n.addEventListener("click",(function(){switch(e.click){case"freeze":return!t._running&&t.reachedToEnd()&&(t.offset=0),t._running?t.pause():t.play();case"restart":return t.offset>0?t.restart():t.play();case"reverse":var n=!t._rollingBack&&t._running,r=t.reachedToEnd();return n||r&&1===t.fill?(t.pause(),r&&(t.offset=t.duration-1),t._rollback()):r?t.restart():t.play();case"none":default:return!t._running&&t.offset?t.restart():t.play()}}))}if("hover"===e.start)return n.addEventListener("mouseenter",(function(){return t.reachedToEnd()?t.restart():t.play()})),void n.addEventListener("mouseleave",(function(){switch(e.hover){case"freeze":return t.pause();case"reset":return t.stop();case"reverse":return t.pause(),t._rollback();case"none":default:return}}));if("scroll"===e.start)return void new Y(n,e.scroll||25,(function(n){n?t.reachedToEnd()?t.restart():t.play():t.pause()}));t.play()}(u,e,r),u}}]),o}(U)}));
__SVGATOR_PLAYER__.build({"root":"eUk37viTD841","animations":[{"duration":2000,"direction":1,"iterations":0,"fill":1,"alternate":false,"speed":1,"elements":{"eUk37viTD8422":{"opacity":[{"t":0,"v":0,"e":[0.39,0.575,0.565,1]},{"t":1000,"v":1,"e":[0.39,0.575,0.565,1]},{"t":2000,"v":0,"e":[0.39,0.575,0.565,1]}]},"eUk37viTD8426":{"opacity":[{"t":0,"v":0,"e":[0.47,0,0.745,0.715]},{"t":1000,"v":1,"e":[0.47,0,0.745,0.715]},{"t":2000,"v":0,"e":[0.47,0,0.745,0.715]}]}}}],"options":{"start":"scroll","hover":"freeze","click":"freeze","scroll":25,"font":"embed","exportedIds":"unique","svgFormat":"animated","title":"VN mouseover"},"animationSettings":{"duration":2000,"direction":1,"iterations":0,"fill":1,"alternate":false,"speed":1}})]]></script></svg>