<svg id="ezhiiz3ss8s1" xmlns="http://www.w3.org/2000/svg" xmlns:xlink="http://www.w3.org/1999/xlink" viewBox="0 0 160 250" shape-rendering="geometricPrecision" text-rendering="geometricPrecision"><g id="ezhiiz3ss8s2"><g id="ezhiiz3ss8s3" transform="matrix(1 0 0 1 0.43014049530029 0.15015411376953)"><path id="ezhiiz3ss8s4" d="M30.260000,184.730000C29.459803,185.079507,28.592963,185.250145,27.720000,185.230000C26.893505,185.239699,26.072562,185.093829,25.300000,184.800000C24.580595,184.528413,23.923950,184.113332,23.370000,183.580000C22.816738,183.041826,22.380921,182.394909,22.090000,181.680000C21.770545,180.910140,21.610652,180.083456,21.620000,179.250000C21.607119,178.405537,21.770604,177.567678,22.100000,176.790000C22.393399,176.077304,22.836775,175.436115,23.400000,174.910000C23.980334,174.381115,24.660239,173.973173,25.400000,173.710000C26.176592,173.433283,26.995599,173.294525,27.820000,173.300000C28.625201,173.300616,29.424025,173.442779,30.180000,173.720000C30.881312,173.993095,31.505857,174.432336,32,175L30.140000,176.860000C29.885047,176.510304,29.539209,176.237093,29.140000,176.070000C28.730347,175.903578,28.292165,175.818659,27.850000,175.820000C27.396919,175.816236,26.947810,175.904696,26.530000,176.080000C26.153222,176.257433,25.813806,176.505207,25.530000,176.810000C25.240356,177.131924,25.013154,177.504941,24.860000,177.910000C24.696290,178.351455,24.614944,178.819195,24.620000,179.290000C24.614639,179.770602,24.695938,180.248236,24.860000,180.700000C25.007328,181.102650,25.231480,181.472842,25.520000,181.790000C25.800875,182.095537,26.141152,182.340536,26.520000,182.510000C26.931757,182.681094,27.374154,182.766171,27.820000,182.760000C28.312757,182.774913,28.801268,182.664826,29.240000,182.440000C29.634858,182.247200,29.977765,181.962587,30.240000,181.610000L32.140000,183.400000C31.617098,183.974309,30.975627,184.428115,30.260000,184.730000Z" fill="rgb(27,167,236)" stroke="none" stroke-width="1"/><path id="ezhiiz3ss8s5" d="M33.450000,184.930000L33.450000,173.600000L36.200000,173.600000L36.200000,182.600000L40.580000,182.600000L40.580000,184.980000Z" fill="rgb(27,167,236)" stroke="none" stroke-width="1"/><path id="ezhiiz3ss8s6" d="M53.350000,179.220000C53.361651,180.059177,53.205246,180.892200,52.890000,181.670000C52.598129,182.389782,52.158689,183.040426,51.600000,183.580000C51.024997,184.120760,50.343948,184.536200,49.600000,184.800000C48.813335,185.093079,47.979439,185.238841,47.140000,185.230000C46.300411,185.240688,45.466179,185.094867,44.680000,184.800000C43.954464,184.528822,43.291195,184.113854,42.730000,183.580000C42.171311,183.040426,41.731871,182.389782,41.440000,181.670000C40.826559,180.090815,40.826559,178.339185,41.440000,176.760000C41.732418,176.055090,42.172261,175.420897,42.730000,174.900000C43.295324,174.378832,43.958000,173.974429,44.680000,173.710000C45.469959,173.431476,46.302409,173.292734,47.140000,173.300000C47.977447,173.294548,48.809588,173.433238,49.600000,173.710000C50.340336,173.967216,51.020745,174.372060,51.600000,174.900000C52.157739,175.420897,52.597582,176.055090,52.890000,176.760000C53.207883,177.540523,53.364363,178.377350,53.350000,179.220000ZM50.420000,179.220000C50.423282,178.749340,50.341992,178.281917,50.180000,177.840000C50.032672,177.437350,49.808520,177.067158,49.520000,176.750000C49.242943,176.440190,48.901690,176.194487,48.520000,176.030000C47.676858,175.669806,46.723142,175.669806,45.880000,176.030000C45.501152,176.199464,45.160875,176.444463,44.880000,176.750000C44.584485,177.061880,44.359409,177.433597,44.220000,177.840000C44.058008,178.281917,43.976718,178.749340,43.980000,179.220000C43.974639,179.700602,44.055938,180.178236,44.220000,180.630000C44.368218,181.043425,44.595819,181.423892,44.890000,181.750000C45.168322,182.058401,45.509245,182.303866,45.890000,182.470000C46.305665,182.653248,46.755766,182.745315,47.210000,182.740000C47.661020,182.745441,48.107889,182.653338,48.520000,182.470000C48.898848,182.300536,49.239125,182.055537,49.520000,181.750000C49.817443,181.426315,50.045460,181.045154,50.190000,180.630000C50.350658,180.177610,50.428567,179.699994,50.420000,179.220000Z" fill="rgb(27,167,236)" stroke="none" stroke-width="1"/><path id="ezhiiz3ss8s7" d="M64.580000,182.520000C64.357252,183.068042,64.015716,183.559853,63.580000,183.960000C63.134071,184.372344,62.610582,184.691876,62.040000,184.900000C60.741832,185.333069,59.338168,185.333069,58.040000,184.900000C57.472754,184.703588,56.949543,184.397816,56.500000,184C56.069762,183.595102,55.729114,183.104568,55.500000,182.560000C55.272814,181.966600,55.160816,181.335336,55.170000,180.700000L55.170000,173.600000L57.890000,173.600000L57.890000,180.430000C57.887831,180.727555,57.928241,181.023890,58.010000,181.310000C58.084011,181.581446,58.209634,181.836089,58.380000,182.060000C58.549923,182.284816,58.773367,182.463572,59.030000,182.580000C59.671076,182.841229,60.388924,182.841229,61.030000,182.580000C61.287942,182.461161,61.514103,182.282973,61.690000,182.060000C61.867791,181.840766,61.994219,181.584493,62.060000,181.310000C62.141759,181.023890,62.182169,180.727555,62.180000,180.430000L62.180000,173.600000L64.910000,173.600000L64.910000,180.660000C64.922974,181.295636,64.810847,181.927622,64.580000,182.520000Z" fill="rgb(27,167,236)" stroke="none" stroke-width="1"/><path id="ezhiiz3ss8s8" d="M77.860000,179.230000C77.885465,180.118382,77.696824,180.999851,77.310000,181.800000C76.962799,182.492326,76.467810,183.099968,75.860000,183.580000C75.258182,184.029740,74.580883,184.368390,73.860000,184.580000C73.109467,184.798624,72.331727,184.909730,71.550000,184.910000L67.290000,184.910000L67.290000,173.600000L71.380000,173.600000C72.178063,173.603135,72.973178,173.697072,73.750000,173.880000C74.495976,174.055469,75.201824,174.371064,75.830000,174.810000C76.456391,175.259469,76.961480,175.857329,77.300000,176.550000C77.700864,177.384829,77.893035,178.304506,77.860000,179.230000ZM75.020000,179.230000C75.037819,178.682378,74.928277,178.138094,74.700000,177.640000C74.510268,177.243170,74.225091,176.899582,73.870000,176.640000C73.514963,176.388126,73.114113,176.208083,72.690000,176.110000C72.241582,176.000916,71.781487,175.947182,71.320000,175.950000L70,175.950000L70,182.570000L71.300000,182.570000C71.775403,182.575077,72.249427,182.517925,72.710000,182.400000C73.144356,182.303477,73.553334,182.116028,73.910000,181.850000C74.268389,181.593944,74.554342,181.249422,74.740000,180.850000C74.950207,180.337211,75.039184,179.782814,75,179.230000Z" fill="rgb(27,167,236)" stroke="none" stroke-width="1"/><path id="ezhiiz3ss8s9" d="M79.240000,181.780000L79.240000,179.700000L83.300000,179.700000L83.300000,181.780000Z" fill="rgb(27,167,236)" stroke="none" stroke-width="1"/><path id="ezhiiz3ss8s10" d="M94,181.630000C94.020474,182.173937,93.892573,182.713196,93.630000,183.190000C93.387724,183.603408,93.043408,183.947724,92.630000,184.190000C92.203578,184.455562,91.732680,184.641889,91.240000,184.740000C90.718234,184.857215,90.184754,184.914254,89.650000,184.910000L85.210000,184.910000L85.210000,173.600000L89.720000,173.600000C90.170182,173.602520,90.619019,173.649414,91.060000,173.740000C91.500014,173.820328,91.922878,173.975942,92.310000,174.200000C93.132726,174.671209,93.622941,175.562862,93.580000,176.510000C93.602946,177.076048,93.417985,177.630929,93.060000,178.070000C92.710400,178.491793,92.244359,178.801328,91.720000,178.960000L91.720000,178.960000C92.033214,179.009451,92.336838,179.107286,92.620000,179.250000C92.898037,179.386846,93.148802,179.573225,93.360000,179.800000C93.569916,180.033335,93.738956,180.300417,93.860000,180.590000C93.975263,180.923931,94.022855,181.277476,94,181.630000ZM90.900000,176.880000C90.920045,176.540158,90.750785,176.217026,90.460000,176.040000C90.052271,175.844174,89.601611,175.754730,89.150000,175.780000L87.850000,175.780000L87.850000,178.110000L89.320000,178.110000C89.739379,178.134204,90.155733,178.025742,90.510000,177.800000C90.797566,177.584051,90.958779,177.239132,90.940000,176.880000ZM91.260000,181.380000C91.308921,180.971427,91.102570,180.574597,90.740000,180.380000C90.296939,180.183015,89.814490,180.090631,89.330000,180.110000L87.850000,180.110000L87.850000,182.700000L89.380000,182.700000C89.604182,182.697906,89.827990,182.681204,90.050000,182.650000C90.265241,182.613626,90.474077,182.546260,90.670000,182.450000C90.853975,182.352173,91.011740,182.211557,91.130000,182.040000C91.250350,181.841510,91.309483,181.611932,91.300000,181.380000Z" fill="rgb(27,167,236)" stroke="none" stroke-width="1"/><path id="ezhiiz3ss8s11" d="M103.690000,184.930000L102.810000,182.710000L98.420000,182.710000L97.590000,184.930000L94.590000,184.930000L99.340000,173.600000L102,173.600000L106.710000,184.930000ZM100.690000,176.630000L99.250000,180.510000L102.100000,180.510000Z" fill="rgb(27,167,236)" stroke="none" stroke-width="1"/><path id="ezhiiz3ss8s12" d="M113.820000,176.550000C113.570950,176.244307,113.256587,175.998284,112.900000,175.830000C112.555684,175.666981,112.180866,175.578387,111.800000,175.570000C111.615616,175.571769,111.431680,175.588490,111.250000,175.620000C111.069978,175.646529,110.896792,175.707653,110.740000,175.800000C110.593778,175.889808,110.467787,176.008989,110.370000,176.150000C110.265801,176.317760,110.213607,176.512617,110.220000,176.710000C110.214371,176.878069,110.255942,177.044353,110.340000,177.190000C110.428077,177.326840,110.548220,177.440117,110.690000,177.520000C110.862983,177.629708,111.047405,177.720243,111.240000,177.790000Q111.560000,177.910000,111.960000,178.030000L113.160000,178.460000C113.566714,178.608892,113.950471,178.814236,114.300000,179.070000C114.645170,179.342659,114.931012,179.682947,115.140000,180.070000C115.380778,180.499815,115.498420,180.987683,115.480000,181.480000C115.495065,182.063851,115.371701,182.642975,115.120000,183.170000C114.885176,183.637213,114.542370,184.041725,114.120000,184.350000C113.704556,184.665971,113.232857,184.900124,112.730000,185.040000C112.202055,185.184405,111.657336,185.258379,111.110000,185.260000C110.306869,185.262627,109.510164,185.116847,108.760000,184.830000C108.047396,184.577997,107.401200,184.167714,106.870000,183.630000L108.670000,181.800000C108.967803,182.161162,109.339462,182.454398,109.760000,182.660000C110.357415,182.978013,111.047241,183.077065,111.710000,182.940000C111.889321,182.905083,112.059525,182.833597,112.210000,182.730000C112.354266,182.634841,112.471407,182.503918,112.550000,182.350000C112.642971,182.171238,112.687775,181.971343,112.680000,181.770000C112.686528,181.577426,112.630382,181.387934,112.520000,181.230000C112.397078,181.066287,112.244416,180.927195,112.070000,180.820000C111.835543,180.681787,111.587591,180.567863,111.330000,180.480000L110.330000,180.150000C109.967393,180.038636,109.613166,179.901624,109.270000,179.740000C108.928873,179.584335,108.614893,179.375015,108.340000,179.120000C108.063137,178.862277,107.838984,178.553218,107.680000,178.210000C107.055803,176.773326,107.538094,175.095794,108.830000,174.210000C109.255121,173.915507,109.729140,173.698813,110.230000,173.570000C110.749909,173.438998,111.283844,173.371836,111.820000,173.370000C112.502696,173.370945,113.179825,173.492828,113.820000,173.730000C114.465167,173.941084,115.060597,174.281329,115.570000,174.730000Z" fill="rgb(27,167,236)" stroke="none" stroke-width="1"/><path id="ezhiiz3ss8s13" d="M117.450000,184.930000L117.450000,173.600000L125.060000,173.600000L125.060000,175.910000L120.060000,175.910000L120.060000,178.050000L124.760000,178.050000L124.760000,180.240000L120.060000,180.240000L120.060000,182.590000L125.320000,182.590000L125.320000,184.930000Z" fill="rgb(27,167,236)" stroke="none" stroke-width="1"/><path id="ezhiiz3ss8s14" d="M137.900000,179.230000C137.922355,180.119200,137.730275,181.000711,137.340000,181.800000C136.996181,182.494508,136.500631,183.102839,135.890000,183.580000C135.288182,184.029740,134.610883,184.368390,133.890000,184.580000C133.139467,184.798624,132.361727,184.909730,131.580000,184.910000L127.360000,184.910000L127.360000,173.600000L131.460000,173.600000C132.254765,173.603112,133.046571,173.697055,133.820000,173.880000C134.566369,174.054303,135.272431,174.369994,135.900000,174.810000C136.526979,175.261570,137.034875,175.858691,137.380000,176.550000C137.762631,177.389705,137.940833,178.308130,137.900000,179.230000ZM135.050000,179.230000C135.065715,178.683581,134.959831,178.140495,134.740000,177.640000C134.543380,177.244694,134.255435,176.901902,133.900000,176.640000C133.544963,176.388126,133.144113,176.208083,132.720000,176.110000C132.271582,176.000916,131.811487,175.947182,131.350000,175.950000L130,175.950000L130,182.570000L131.300000,182.570000C131.775403,182.575077,132.249427,182.517925,132.710000,182.400000C133.144356,182.303477,133.553334,182.116028,133.910000,181.850000C134.268750,181.591650,134.557451,181.247958,134.750000,180.850000C134.968853,180.338916,135.071326,179.785562,135.050000,179.230000Z" fill="rgb(27,167,236)" stroke="none" stroke-width="1"/><path id="ezhiiz3ss8s15" d="M21.530000,193.940000L21.530000,202.940000L18.790000,202.940000L18.790000,193.940000L15.590000,193.940000L15.590000,191.600000L24.730000,191.600000L24.730000,193.940000Z" fill="rgb(27,167,236)" stroke="none" stroke-width="1"/><path id="ezhiiz3ss8s16" d="M26.140000,202.930000L26.140000,191.600000L33.750000,191.600000L33.750000,193.910000L28.750000,193.910000L28.750000,196.050000L33.450000,196.050000L33.450000,198.240000L28.750000,198.240000L28.750000,200.590000L34,200.590000L34,202.930000Z" fill="rgb(27,167,236)" stroke="none" stroke-width="1"/><path id="ezhiiz3ss8s17" d="M44.120000,202.730000C43.319803,203.079507,42.452963,203.250145,41.580000,203.230000C40.750169,203.240718,39.925761,203.094836,39.150000,202.800000C37.690111,202.255701,36.525584,201.123825,35.940000,199.680000C35.623969,198.909426,35.467483,198.082768,35.480000,197.250000C35.468807,196.406663,35.628694,195.569810,35.950000,194.790000C36.246876,194.076686,36.693636,193.435533,37.260000,192.910000C37.837001,192.376653,38.517870,191.968131,39.260000,191.710000C40.033066,191.433030,40.848836,191.294248,41.670000,191.300000C42.475201,191.300616,43.274025,191.442779,44.030000,191.720000C44.736076,191.989502,45.364681,192.429182,45.860000,193L44,194.820000C43.743950,194.471361,43.398435,194.198404,43,194.030000C42.166705,193.689869,41.233295,193.689869,40.400000,194.030000C40.021792,194.205013,39.681936,194.453108,39.400000,194.760000C39.107002,195.079415,38.879387,195.453113,38.730000,195.860000C38.566290,196.301455,38.484944,196.769195,38.490000,197.240000C38.484639,197.720602,38.565938,198.198236,38.730000,198.650000C38.877328,199.052650,39.101480,199.422842,39.390000,199.740000C39.667057,200.049810,40.008310,200.295513,40.390000,200.460000C40.797992,200.631951,41.237310,200.717090,41.680000,200.710000C42.175790,200.723178,42.667113,200.613232,43.110000,200.390000C43.505501,200.198198,43.848628,199.913403,44.110000,199.560000L46,201.360000C45.479019,201.946410,44.837802,202.413680,44.120000,202.730000Z" fill="rgb(27,167,236)" stroke="none" stroke-width="1"/><path id="ezhiiz3ss8s18" d="M54.460000,202.930000L54.460000,198.190000L50,198.190000L50,202.930000L47.300000,202.930000L47.300000,191.600000L50,191.600000L50,195.890000L54.420000,195.890000L54.420000,191.600000L57.150000,191.600000L57.150000,202.930000Z" fill="rgb(27,167,236)" stroke="none" stroke-width="1"/><path id="ezhiiz3ss8s19" d="M66.890000,202.930000L62.330000,195.520000L62.330000,195.520000L62.390000,202.930000L59.690000,202.930000L59.690000,191.600000L62.810000,191.600000L67.350000,199L67.400000,199L67.340000,191.600000L70,191.600000L70,202.930000Z" fill="rgb(27,167,236)" stroke="none" stroke-width="1"/><path id="ezhiiz3ss8s20" d="M84.300000,197.220000C84.308478,198.059855,84.148669,198.892903,83.830000,199.670000C83.538129,200.389782,83.098689,201.040426,82.540000,201.580000C81.964997,202.120760,81.283948,202.536200,80.540000,202.800000C78.950134,203.373480,77.209866,203.373480,75.620000,202.800000C74.876675,202.534892,74.195880,202.119607,73.620000,201.580000C73.061311,201.040426,72.621871,200.389782,72.330000,199.670000C71.716559,198.090815,71.716559,196.339185,72.330000,194.760000C72.622418,194.055090,73.062261,193.420897,73.620000,192.900000C74.200078,192.373171,74.880248,191.968470,75.620000,191.710000C77.214508,191.163714,78.945492,191.163714,80.540000,191.710000C81.280336,191.967216,81.960745,192.372060,82.540000,192.900000C83.097739,193.420897,83.537582,194.055090,83.830000,194.760000C84.151306,195.539810,84.311193,196.376663,84.300000,197.220000ZM81.370000,197.220000C81.373282,196.749340,81.291992,196.281917,81.130000,195.840000C80.983073,195.434905,80.755097,195.064018,80.460000,194.750000C80.182943,194.440190,79.841690,194.194487,79.460000,194.030000C79.044335,193.846752,78.594234,193.754685,78.140000,193.760000C77.688889,193.753603,77.241817,193.845747,76.830000,194.030000C76.450437,194.198220,76.109922,194.443391,75.830000,194.750000C75.538042,195.064577,75.313447,195.435499,75.170000,195.840000C75.015978,196.283717,74.938212,196.750314,74.940000,197.220000C74.934639,197.700602,75.015938,198.178236,75.180000,198.630000C75.324757,199.042848,75.548978,199.423344,75.840000,199.750000C76.117057,200.059810,76.458310,200.305513,76.840000,200.470000C77.676162,200.830351,78.623838,200.830351,79.460000,200.470000C79.839563,200.301780,80.180078,200.056609,80.460000,199.750000C80.754181,199.423892,80.981782,199.043425,81.130000,198.630000C81.294062,198.178236,81.375361,197.700602,81.370000,197.220000Z" fill="rgb(27,167,236)" stroke="none" stroke-width="1"/><path id="ezhiiz3ss8s21" d="M86.260000,202.930000L86.260000,191.600000L89,191.600000L89,200.600000L93.400000,200.600000L93.400000,202.980000Z" fill="rgb(27,167,236)" stroke="none" stroke-width="1"/><path id="ezhiiz3ss8s22" d="M106.170000,197.220000C106.178478,198.059855,106.018669,198.892903,105.700000,199.670000C105.411863,200.389314,104.975771,201.040043,104.420000,201.580000C103.843259,202.118475,103.162712,202.533608,102.420000,202.800000C101.630072,203.093847,100.792757,203.239614,99.950000,203.230000C99.113747,203.239679,98.282977,203.093870,97.500000,202.800000C96.756052,202.536200,96.075003,202.120760,95.500000,201.580000C94.941167,201.042603,94.504606,200.391172,94.220000,199.670000C93.593665,198.093256,93.593665,196.336744,94.220000,194.760000C94.505288,194.053734,94.942254,193.418768,95.500000,192.900000C96.079255,192.372060,96.759664,191.967216,97.500000,191.710000C98.286745,191.432423,99.115747,191.293692,99.950000,191.300000C100.790786,191.293598,101.626373,191.432298,102.420000,191.710000C103.159177,191.969702,103.839114,192.374264,104.420000,192.900000C104.974599,193.421477,105.411057,194.055706,105.700000,194.760000C106.021306,195.539810,106.181193,196.376663,106.170000,197.220000ZM103.240000,197.220000C103.243282,196.749340,103.161992,196.281917,103,195.840000C102.852672,195.437350,102.628520,195.067158,102.340000,194.750000C102.060078,194.443391,101.719563,194.198220,101.340000,194.030000C100.924335,193.846752,100.474234,193.754685,100.020000,193.760000C99.568889,193.753603,99.121817,193.845747,98.710000,194.030000C98.330437,194.198220,97.989922,194.443391,97.710000,194.750000C97.414903,195.064018,97.186927,195.434905,97.040000,195.840000C96.885978,196.283717,96.808212,196.750314,96.810000,197.220000C96.804639,197.700602,96.885938,198.178236,97.050000,198.630000C97.194757,199.042848,97.418978,199.423344,97.710000,199.750000C97.990875,200.055537,98.331152,200.300536,98.710000,200.470000C99.546162,200.830351,100.493838,200.830351,101.330000,200.470000C101.709563,200.301780,102.050078,200.056609,102.330000,199.750000C102.627443,199.426315,102.855460,199.045154,103,198.630000C103.164062,198.178236,103.245361,197.700602,103.240000,197.220000Z" fill="rgb(27,167,236)" stroke="none" stroke-width="1"/><path id="ezhiiz3ss8s23" d="M116.260000,203C115.463528,203.185785,114.647827,203.276418,113.830000,203.270000C112.977733,203.276392,112.131153,203.130780,111.330000,202.840000C110.587288,202.573608,109.906741,202.158475,109.330000,201.620000C108.774078,201.089744,108.334742,200.449470,108.040000,199.740000C107.722906,198.966242,107.566404,198.136102,107.580000,197.300000C107.568807,196.456663,107.728694,195.619810,108.050000,194.840000C108.343399,194.127304,108.786775,193.486115,109.350000,192.960000C109.929361,192.429809,110.609544,192.021699,111.350000,191.760000C112.123066,191.483030,112.938836,191.344248,113.760000,191.350000C114.610938,191.338882,115.457188,191.477667,116.260000,191.760000C116.954399,191.984778,117.592208,192.356549,118.130000,192.850000L116.400000,194.850000C116.122212,194.530877,115.781849,194.272201,115.400000,194.090000C114.930625,193.884208,114.422443,193.781889,113.910000,193.790000C113.452549,193.784797,112.999210,193.876828,112.580000,194.060000C112.180052,194.227533,111.819138,194.476086,111.520000,194.790000C111.220493,195.115773,110.986260,195.495977,110.830000,195.910000C110.658907,196.363619,110.574118,196.845223,110.580000,197.330000C110.573555,197.818838,110.647889,198.305385,110.800000,198.770000C110.938892,199.190730,111.167493,199.576280,111.470000,199.900000C111.773033,200.223127,112.145839,200.472804,112.560000,200.630000C113.030335,200.817993,113.533581,200.909801,114.040000,200.900000C114.344587,200.897725,114.648649,200.874336,114.950000,200.830000C115.225563,200.783382,115.494281,200.702767,115.750000,200.590000L115.750000,198.530000L113.590000,198.530000L113.590000,196.320000L118.260000,196.320000L118.260000,202.320000C117.624402,202.629433,116.952486,202.857885,116.260000,203Z" fill="rgb(27,167,236)" stroke="none" stroke-width="1"/><path id="ezhiiz3ss8s24" d="M120.600000,202.930000L120.600000,191.600000L123.350000,191.600000L123.350000,202.930000Z" fill="rgb(27,167,236)" stroke="none" stroke-width="1"/><path id="ezhiiz3ss8s25" d="M125.850000,202.930000L125.850000,191.600000L133.460000,191.600000L133.460000,193.910000L128.460000,193.910000L128.460000,196.050000L133.160000,196.050000L133.160000,198.240000L128.460000,198.240000L128.460000,200.590000L133.720000,200.590000L133.720000,202.930000Z" fill="rgb(27,167,236)" stroke="none" stroke-width="1"/><path id="ezhiiz3ss8s26" d="M141.700000,194.550000C141.455319,194.239887,141.139828,193.992981,140.780000,193.830000C140.439149,193.667206,140.067634,193.578588,139.690000,193.570000C139.505616,193.571769,139.321680,193.588490,139.140000,193.620000C138.959978,193.646529,138.786792,193.707653,138.630000,193.800000C138.483778,193.889808,138.357787,194.008989,138.260000,194.150000C138.081367,194.459401,138.081367,194.840599,138.260000,195.150000C138.352396,195.286766,138.475731,195.399823,138.620000,195.480000C138.791863,195.591694,138.976519,195.682343,139.170000,195.750000Q139.480000,195.870000,139.890000,195.990000L141.090000,196.420000C141.493555,196.569014,141.873993,196.774383,142.220000,197.030000C142.568002,197.302465,142.857159,197.642649,143.070000,198.030000C143.310778,198.459815,143.428420,198.947683,143.410000,199.440000C143.425065,200.023851,143.301701,200.602975,143.050000,201.130000C142.811750,201.594937,142.469563,201.998718,142.050000,202.310000C141.633426,202.624145,141.162087,202.858119,140.660000,203C140.131916,203.143722,139.587287,203.217684,139.040000,203.220000C138.236869,203.222627,137.440164,203.076847,136.690000,202.790000C135.977396,202.537997,135.331200,202.127714,134.800000,201.590000L136.590000,199.760000C136.893823,200.119055,137.268247,200.411786,137.690000,200.620000C138.090839,200.847611,138.539582,200.977780,139,201C139.198207,201.000356,139.395922,200.980249,139.590000,200.940000C139.772478,200.905298,139.945994,200.833850,140.100000,200.730000C140.244266,200.634841,140.361407,200.503918,140.440000,200.350000C140.532971,200.171238,140.577775,199.971343,140.570000,199.770000C140.576528,199.577426,140.520382,199.387934,140.410000,199.230000C140.285651,199.063925,140.129228,198.924504,139.950000,198.820000C139.720269,198.679497,139.475378,198.565438,139.220000,198.480000L138.220000,198.150000C137.854145,198.038638,137.496593,197.901632,137.150000,197.740000C136.813377,197.581693,136.503088,197.372585,136.230000,197.120000C135.950115,196.864965,135.725490,196.555255,135.570000,196.210000C135.390904,195.800689,135.305492,195.356543,135.320000,194.910000C135.289039,193.825590,135.813037,192.800214,136.710000,192.190000C137.139687,191.897150,137.616685,191.680640,138.120000,191.550000C138.639797,191.418406,139.173805,191.351235,139.710000,191.350000C140.392696,191.350945,141.069825,191.472828,141.710000,191.710000C142.355167,191.921084,142.950597,192.261329,143.460000,192.710000Z" fill="rgb(27,167,236)" stroke="none" stroke-width="1"/></g><g id="ezhiiz3ss8s27" display="none" transform="matrix(1 0 0 1 0.30012512207031 0.14467620849609)"><path id="ezhiiz3ss8s28" d="M52.250000,181.630000C52.270474,182.173937,52.142573,182.713196,51.880000,183.190000C51.637017,183.602861,51.292861,183.947017,50.880000,184.190000C50.458378,184.457894,49.990307,184.644444,49.500000,184.740000C48.978234,184.857215,48.444754,184.914254,47.910000,184.910000L43.420000,184.910000L43.420000,173.600000L47.930000,173.600000C48.380129,173.603473,48.828874,173.650357,49.270000,173.740000C49.710014,173.820328,50.132878,173.975942,50.520000,174.200000C50.890647,174.418967,51.202851,174.724310,51.430000,175.090000C51.681190,175.519666,51.802741,176.012816,51.780000,176.510000C51.802114,177.074269,51.621164,177.627764,51.270000,178.070000C50.920400,178.491793,50.454359,178.801328,49.930000,178.960000L49.930000,178.960000C50.243214,179.009451,50.546838,179.107286,50.830000,179.250000C51.106482,179.389379,51.356825,179.575445,51.570000,179.800000C51.780178,180.031222,51.946249,180.298969,52.060000,180.590000C52.197347,180.918981,52.262153,181.273707,52.250000,181.630000ZM49.140000,176.880000C49.164696,176.539174,48.994242,176.213763,48.700000,176.040000C48.296267,175.842888,47.848489,175.753332,47.400000,175.780000L46.060000,175.780000L46.060000,178.110000L47.530000,178.110000C47.949379,178.134204,48.365733,178.025742,48.720000,177.800000C49.005238,177.583022,49.162907,177.237652,49.140000,176.880000ZM49.510000,181.380000C49.557103,180.969143,49.346445,180.571676,48.980000,180.380000C48.540762,180.182093,48.061334,180.089632,47.580000,180.110000L46.060000,180.110000L46.060000,182.700000L47.590000,182.700000C47.814167,182.697547,48.037952,182.680847,48.260000,182.650000C48.474888,182.612191,48.683525,182.544888,48.880000,182.450000C49.063975,182.352173,49.221740,182.211557,49.340000,182.040000C49.455742,181.839598,49.514526,181.611380,49.510000,181.380000Z" fill="rgb(27,167,236)" stroke="none" stroke-width="1"/><path id="ezhiiz3ss8s29" d="M54.220000,184.930000L54.220000,173.600000L57,173.600000L57,184.930000Z" fill="rgb(27,167,236)" stroke="none" stroke-width="1"/><path id="ezhiiz3ss8s30" d="M67.580000,185C66.786927,185.185838,65.974529,185.276477,65.160000,185.270000C64.307733,185.276392,63.461153,185.130780,62.660000,184.840000C61.917288,184.573608,61.236741,184.158475,60.660000,183.620000C60.104078,183.089744,59.664742,182.449470,59.370000,181.740000C59.052906,180.966242,58.896404,180.136102,58.910000,179.300000C58.893663,178.456219,59.053748,177.618327,59.380000,176.840000C59.673399,176.127304,60.116775,175.486115,60.680000,174.960000C61.245560,174.436709,61.907990,174.029060,62.630000,173.760000C63.406799,173.484077,64.225665,173.345343,65.050000,173.350000C65.900938,173.338882,66.747188,173.477667,67.550000,173.760000C68.243385,173.987041,68.880738,174.358546,69.420000,174.850000L67.690000,176.850000C67.396679,176.521994,67.034794,176.262529,66.630000,176.090000C66.164472,175.883188,65.659315,175.780792,65.150000,175.790000C64.692549,175.784797,64.239210,175.876828,63.820000,176.060000C63.420052,176.227533,63.059138,176.476086,62.760000,176.790000C62.456947,177.113076,62.222256,177.494023,62.070000,177.910000C61.898907,178.363619,61.814118,178.845223,61.820000,179.330000C61.813555,179.818838,61.887889,180.305385,62.040000,180.770000C62.178892,181.190730,62.407493,181.576280,62.710000,181.900000C63.012142,182.219552,63.380845,182.468768,63.790000,182.630000C64.260850,182.816197,64.763733,182.907939,65.270000,182.900000C65.577906,182.897709,65.885292,182.874321,66.190000,182.830000C66.465225,182.781941,66.733771,182.701377,66.990000,182.590000L66.990000,180.530000L64.860000,180.530000L64.860000,178.320000L69.530000,178.320000L69.530000,184.320000C68.909267,184.623196,68.254667,184.851466,67.580000,185Z" fill="rgb(27,167,236)" stroke="none" stroke-width="1"/><path id="ezhiiz3ss8s31" d="M86.660000,179.230000C86.685465,180.118382,86.496824,180.999851,86.110000,181.800000C85.762799,182.492326,85.267810,183.099968,84.660000,183.580000C84.058182,184.029740,83.380883,184.368390,82.660000,184.580000C81.909467,184.798624,81.131727,184.909730,80.350000,184.910000L76.090000,184.910000L76.090000,173.600000L80.180000,173.600000C80.978063,173.603135,81.773178,173.697072,82.550000,173.880000C83.295976,174.055469,84.001824,174.371064,84.630000,174.810000C85.256391,175.259469,85.761480,175.857329,86.100000,176.550000C86.500864,177.384829,86.693035,178.304506,86.660000,179.230000ZM83.820000,179.230000C83.837819,178.682378,83.728277,178.138094,83.500000,177.640000C83.310268,177.243170,83.025091,176.899582,82.670000,176.640000C82.313963,176.389879,81.913467,176.209995,81.490000,176.110000C81.041582,176.000916,80.581487,175.947182,80.120000,175.950000L78.760000,175.950000L78.760000,182.570000L80.060000,182.570000C80.535403,182.575077,81.009427,182.517925,81.470000,182.400000C81.903690,182.301504,82.312274,182.114236,82.670000,181.850000C83.028389,181.593944,83.314342,181.249422,83.500000,180.850000C83.730746,180.342088,83.840295,179.787500,83.820000,179.230000Z" fill="rgb(27,167,236)" stroke="none" stroke-width="1"/><path id="ezhiiz3ss8s32" d="M95.930000,184.930000L95.050000,182.710000L90.660000,182.710000L89.830000,184.930000L86.830000,184.930000L91.580000,173.600000L94.230000,173.600000L99,184.930000ZM92.930000,176.630000L91.490000,180.510000L94.300000,180.510000Z" fill="rgb(27,167,236)" stroke="none" stroke-width="1"/><path id="ezhiiz3ss8s33" d="M104,175.940000L104,184.940000L101.260000,184.940000L101.260000,175.940000L98,175.940000L98,173.600000L107.140000,173.600000L107.140000,175.940000Z" fill="rgb(27,167,236)" stroke="none" stroke-width="1"/><path id="ezhiiz3ss8s34" d="M115.290000,184.930000L114.410000,182.710000L110,182.710000L109.170000,184.930000L106.170000,184.930000L111,173.600000L113.650000,173.600000L118.360000,184.930000ZM112.290000,176.630000L110.850000,180.510000L113.690000,180.510000Z" fill="rgb(27,167,236)" stroke="none" stroke-width="1"/><path id="ezhiiz3ss8s35" d="M43.820000,202.930000L42.940000,200.710000L38.560000,200.710000L37.730000,202.930000L34.730000,202.930000L39.500000,191.600000L42.160000,191.600000L46.860000,202.930000ZM40.820000,194.630000L39.380000,198.510000L42.230000,198.510000Z" fill="rgb(27,167,236)" stroke="none" stroke-width="1"/><path id="ezhiiz3ss8s36" d="M55.170000,202.930000L50.610000,195.520000L50.610000,195.520000L50.670000,202.930000L48,202.930000L48,191.600000L51.120000,191.600000L55.660000,199L55.660000,199L55.600000,191.600000L58.250000,191.600000L58.250000,202.930000Z" fill="rgb(27,167,236)" stroke="none" stroke-width="1"/><path id="ezhiiz3ss8s37" d="M68.450000,202.930000L67.570000,200.710000L63.180000,200.710000L62.350000,202.930000L59.350000,202.930000L64.100000,191.600000L66.750000,191.600000L71.460000,202.930000ZM65.450000,194.630000L64,198.510000L66.850000,198.510000Z" fill="rgb(27,167,236)" stroke="none" stroke-width="1"/><path id="ezhiiz3ss8s38" d="M72.590000,202.930000L72.590000,191.600000L75.340000,191.600000L75.340000,200.600000L79.730000,200.600000L79.730000,202.980000Z" fill="rgb(27,167,236)" stroke="none" stroke-width="1"/><path id="ezhiiz3ss8s39" d="M85.440000,198.130000L85.440000,202.930000L82.700000,202.930000L82.700000,198.130000L78.450000,191.600000L81.760000,191.600000L84.180000,195.790000L86.590000,191.600000L89.790000,191.600000Z" fill="rgb(27,167,236)" stroke="none" stroke-width="1"/><path id="ezhiiz3ss8s40" d="M95.650000,193.940000L95.650000,202.940000L92.910000,202.940000L92.910000,193.940000L89.710000,193.940000L89.710000,191.600000L98.850000,191.600000L98.850000,193.940000Z" fill="rgb(27,167,236)" stroke="none" stroke-width="1"/><path id="ezhiiz3ss8s41" d="M100.260000,202.930000L100.260000,191.600000L103,191.600000L103,202.930000Z" fill="rgb(27,167,236)" stroke="none" stroke-width="1"/><path id="ezhiiz3ss8s42" d="M113.610000,202.730000C112.809803,203.079507,111.942963,203.250145,111.070000,203.230000C110.243505,203.239699,109.422562,203.093829,108.650000,202.800000C107.930595,202.528413,107.273950,202.113332,106.720000,201.580000C106.169997,201.039111,105.734661,200.392909,105.440000,199.680000C105.123969,198.909426,104.967483,198.082768,104.980000,197.250000C104.963663,196.406219,105.123748,195.568327,105.450000,194.790000C105.743399,194.077304,106.186775,193.436115,106.750000,192.910000C107.330334,192.381115,108.010239,191.973173,108.750000,191.710000C109.526799,191.434077,110.345665,191.295343,111.170000,191.300000C111.975201,191.300616,112.774025,191.442779,113.530000,191.720000C114.248806,191.973041,114.894406,192.398863,115.410000,192.960000L113.550000,194.820000C113.295047,194.470304,112.949209,194.197093,112.550000,194.030000C112.143536,193.864606,111.708826,193.779702,111.270000,193.780000C110.816919,193.776236,110.367810,193.864696,109.950000,194.040000C109.572323,194.215914,109.232632,194.463888,108.950000,194.770000C108.660356,195.091924,108.433154,195.464941,108.280000,195.870000C108.116290,196.311455,108.034944,196.779195,108.040000,197.250000C108.034639,197.730602,108.115938,198.208236,108.280000,198.660000C108.426927,199.065095,108.654903,199.435982,108.950000,199.750000C109.228322,200.058401,109.569245,200.303866,109.950000,200.470000C110.361757,200.641094,110.804154,200.726171,111.250000,200.720000C111.742757,200.734913,112.231268,200.624826,112.670000,200.400000C113.064858,200.207200,113.407765,199.922587,113.670000,199.570000L115.570000,201.360000C115.028173,201.958440,114.358167,202.426761,113.610000,202.730000Z" fill="rgb(27,167,236)" stroke="none" stroke-width="1"/><path id="ezhiiz3ss8s43" d="M122.780000,194.550000C122.535319,194.239887,122.219828,193.992981,121.860000,193.830000C121.519149,193.667206,121.147634,193.578588,120.770000,193.570000C120.585616,193.571769,120.401680,193.588490,120.220000,193.620000C120.039978,193.646529,119.866792,193.707653,119.710000,193.800000C119.563778,193.889808,119.437787,194.008989,119.340000,194.150000C119.161367,194.459401,119.161367,194.840599,119.340000,195.150000C119.431142,195.284261,119.550614,195.396906,119.690000,195.480000C119.866527,195.589672,120.054257,195.680184,120.250000,195.750000Q120.570000,195.870000,120.970000,195.990000L122.170000,196.420000C122.573555,196.569014,122.953993,196.774383,123.300000,197.030000C123.648002,197.302465,123.937159,197.642649,124.150000,198.030000C124.390778,198.459815,124.508420,198.947683,124.490000,199.440000C124.505065,200.023851,124.381701,200.602975,124.130000,201.130000C123.891750,201.594937,123.549563,201.998718,123.130000,202.310000C122.713426,202.624145,122.242087,202.858119,121.740000,203C121.211916,203.143722,120.667287,203.217684,120.120000,203.220000C119.316869,203.222627,118.520164,203.076847,117.770000,202.790000C117.057396,202.537997,116.411200,202.127714,115.880000,201.590000L117.670000,199.760000C117.973823,200.119055,118.348247,200.411786,118.770000,200.620000C119.186291,200.839778,119.649270,200.956380,120.120000,200.960000C120.318207,200.960356,120.515922,200.940249,120.710000,200.900000C120.892478,200.865298,121.065994,200.793850,121.220000,200.690000C121.364266,200.594841,121.481407,200.463918,121.560000,200.310000C121.652971,200.131238,121.697775,199.931343,121.690000,199.730000C121.696528,199.537426,121.640382,199.347934,121.530000,199.190000C121.405651,199.023925,121.249228,198.884504,121.070000,198.780000C120.840269,198.639497,120.595378,198.525438,120.340000,198.440000L119.340000,198.110000C118.974145,197.998638,118.616593,197.861632,118.270000,197.700000C117.933377,197.541693,117.623088,197.332585,117.350000,197.080000C117.066986,196.827779,116.841844,196.517355,116.690000,196.170000C116.510904,195.760689,116.425492,195.316543,116.440000,194.870000C116.409039,193.785590,116.933037,192.760214,117.830000,192.150000C118.259687,191.857150,118.736685,191.640640,119.240000,191.510000C119.759797,191.378406,120.293805,191.311235,120.830000,191.310000C121.512696,191.310945,122.189825,191.432828,122.830000,191.670000C123.475167,191.881084,124.070597,192.221329,124.580000,192.670000Z" fill="rgb(27,167,236)" stroke="none" stroke-width="1"/></g><rect id="ezhiiz3ss8s44" width="118" height="33" rx="0" ry="0" transform="matrix(1.40000000000000 0 0 2.09529293875070 -2.58247380500016 180.85533302061276)" fill="rgb(255,255,255)" stroke="none" stroke-width="1"/><line id="ezhiiz3ss8s45" x1="26.300000" y1="181.750000" x2="133.700000" y2="181.750000" transform="matrix(1.20000000000000 0 0 1 -15.98247304206089 -0.89466698000030)" fill="none" stroke="rgb(27,167,236)" stroke-width="0.500000" stroke-miterlimit="10"/></g><g id="ezhiiz3ss8s46"><path id="ezhiiz3ss8s47" display="none" d="M41.390000,127.420000L41.390000,135.620000C41.389835,137.068075,42.552090,138.248142,44,138.270000L116.920000,138.400000C117.613665,138.367498,118.274571,138.095360,118.790000,137.630000C119.286587,137.134836,119.563941,136.461263,119.560000,135.760000L119.560000,134.470000L119.560000,134.470000L119.560000,127.470000" opacity="0" fill="rgb(121,126,246)" stroke="none" stroke-width="1"/><path id="ezhiiz3ss8s48" d="M120.140000,84.580000C119.321480,83.744385,118.199704,83.275475,117.030000,83.280000L44.120000,83.140000L44.120000,83.140000C41.690593,83.145472,39.720987,85.110612,39.710000,87.540000L39.620000,135.610000C39.630902,138.026105,41.583926,139.983588,44,140L69.720000,140.050000L68.860000,145.860000L92.030000,145.910000L91.190000,140.090000L116.910000,140.090000L116.910000,140.090000C119.339407,140.084528,121.309013,138.119388,121.320000,135.690000L121.410000,87.620000C121.397384,86.480218,120.941944,85.390030,120.140000,84.580000ZM118.800000,137.630000C118.284571,138.095360,117.623665,138.367498,116.930000,138.400000L44,138.270000C42.540352,138.264492,41.359990,137.079658,41.360000,135.620000L41.360000,127.420000L41.430000,87.550000C41.434203,86.848395,41.714401,86.176638,42.210000,85.680000C42.705164,85.183413,43.378737,84.906059,44.080000,84.910000L44.080000,84.910000L117,85C118.461277,85.005483,119.644517,86.188723,119.650000,87.650000L119.570000,127.380000L119.570000,135.720000C119.584797,136.435079,119.306612,137.125123,118.800000,137.630000Z" fill="rgb(30,47,152)" fill-opacity="0" stroke="rgb(30,47,152)" stroke-width="1" stroke-dashoffset="541.600000" stroke-dasharray="541.600000"/><path id="ezhiiz3ss8s49" style="mix-blend-mode:difference" d="M40.450493,94.836919L32.464703,94.836919C30.706876,94.892515,29.073545,93.933001,28.266274,92.370516C27.332984,90.635710,27.542963,88.508537,28.797428,86.989691C29.552448,86.067581,30.638252,85.477434,31.822699,85.345422C31.956642,85.345422,32.016686,85.285378,32.021304,85.132960C32.081461,82.813487,33.829290,80.886947,36.131977,80.601982C37.732233,80.390586,39.321880,81.060004,40.288838,82.352482C40.382267,82.460180,40.465746,82.576122,40.538249,82.698887C40.602912,82.805118,40.662955,82.823593,40.773805,82.763549C41.253056,82.514682,41.774774,82.358011,42.311843,82.301676C43.503796,82.149299,44.706998,82.482135,45.651188,83.225423C46.353837,83.765783,46.886156,84.496920,47.184607,85.331565C47.240032,85.483984,47.295457,85.511696,47.457113,85.474746C48.745500,85.154109,50.109509,85.399942,51.204890,86.150203C52.300270,86.900464,53.022376,88.083476,53.188961,89.400670C53.509080,91.486823,52.419165,93.535110,50.510096,94.435090C49.933595,94.712554,49.302394,94.857730,48.662602,94.860013Z" transform="matrix(-1 0 0 1 126.70861408448209 29.99169435000032)" opacity="0" fill="rgb(27,167,236)" stroke="none" stroke-width="1" stroke-dashoffset="145.240000" stroke-dasharray="0"/><path id="ezhiiz3ss8s50" style="mix-blend-mode:difference" d="M37.613112,94.842054L31.402732,94.842054C30.035707,94.885289,28.765501,94.139095,28.137703,92.923984C27.411904,91.574863,27.575200,89.920606,28.550771,88.739431C29.137934,88.022325,29.982340,87.563381,30.903459,87.460718C31.007624,87.460718,31.054319,87.414023,31.057911,87.295491C31.104693,85.491686,32.463943,83.993457,34.254694,83.771846C35.499178,83.607448,36.735413,84.128040,37.487395,85.133172C37.560054,85.216927,37.624973,85.307093,37.681357,85.402564C37.731644,85.485178,37.778339,85.499545,37.864544,85.452851C38.237248,85.259312,38.642976,85.137472,39.060644,85.093662C39.987600,84.975161,40.923305,85.234000,41.657581,85.812040C42.204016,86.232267,42.617989,86.800856,42.850088,87.449942C42.893191,87.568475,42.936294,87.590026,43.062010,87.561291C44.063961,87.311938,45.124722,87.503117,45.976577,88.086579C46.828431,88.670041,47.389997,89.590045,47.519547,90.614398C47.768496,92.236755,46.920893,93.829664,45.436250,94.529559C44.987918,94.745337,44.497046,94.858238,43.999494,94.860013Z" transform="matrix(1 0 0 1 24.79982479499951 33.96153915500034)" opacity="0" fill="rgb(27,167,236)" stroke="none" stroke-width="1" stroke-dashoffset="145.240000" stroke-dasharray="0"/><path id="ezhiiz3ss8s51" style="mix-blend-mode:difference" d="M44.400216,94.829772L33.942998,94.829772C31.641162,94.902574,29.502352,93.646111,28.445248,91.600071C27.223125,89.328381,27.498088,86.542895,29.140783,84.553999C30.129465,83.346516,31.551301,82.573732,33.102308,82.400864C33.277704,82.400864,33.356330,82.322239,33.362378,82.122650C33.441152,79.085351,35.729895,76.562590,38.745214,76.189434C40.840713,75.912616,42.922322,76.789204,44.188531,78.481676C44.310875,78.622704,44.420189,78.774528,44.515130,78.935286C44.599804,79.074393,44.678430,79.098585,44.823585,79.019959C45.451155,78.694074,46.134332,78.488915,46.837612,78.415146C48.398449,78.215612,49.974015,78.651453,51.210411,79.624772C52.130515,80.332362,52.827575,81.289770,53.218390,82.382720C53.290968,82.582308,53.363545,82.618597,53.575230,82.570212C55.262345,82.150344,57.048485,82.472258,58.482862,83.454708C59.917239,84.437158,60.862820,85.986287,61.080960,87.711123C61.500148,90.442894,60.072929,93.125082,57.573044,94.303585C56.818130,94.666918,55.991585,94.857023,55.153792,94.860013Z" transform="matrix(1 0 0 1 42.80457431499943 29.05602914500038)" opacity="0" fill="rgb(27,167,236)" stroke="none" stroke-width="1" stroke-dashoffset="145.240000" stroke-dasharray="0"/><path id="ezhiiz3ss8s52" style="mix-blend-mode:difference" d="M56.170000,101.910000L38.880000,101.910000C35.074136,102.030370,31.537820,99.952930,29.790000,96.570000C27.769339,92.813981,28.223962,88.208448,30.940000,84.920000C32.574690,82.923543,34.925559,81.645819,37.490000,81.360000C37.780000,81.360000,37.910000,81.230000,37.920000,80.900000C38.050246,75.878119,41.834462,71.706977,46.820000,71.090000C50.284706,70.632308,53.726445,72.081662,55.820000,74.880000C56.022284,75.113176,56.203023,75.364203,56.360000,75.630000C56.500000,75.860000,56.630000,75.900000,56.870000,75.770000C57.907626,75.231179,59.037194,74.891970,60.200000,74.770000C62.780693,74.440089,65.385739,75.160710,67.430000,76.770000C68.951304,77.939932,70.103825,79.522913,70.750000,81.330000C70.870000,81.660000,70.990000,81.720000,71.340000,81.640000C74.129481,80.945789,77.082692,81.478042,79.454296,83.102428C81.825899,84.726815,83.389328,87.288150,83.750000,90.140000C84.443087,94.656720,82.083318,99.091459,77.950000,101.040000C76.701822,101.640736,75.335210,101.955057,73.950000,101.960000Z" transform="matrix(1 0 0 1 25.55860882999970 25.46000000000002)" opacity="0" fill="none" stroke="rgb(27,167,236)" stroke-width="1" stroke-dashoffset="145.240000" stroke-dasharray="0"/><g id="ezhiiz3ss8s53" transform="matrix(1.60000000000000 0 0 1.60000000000000 -111.95200195200015 -11.06400147200002)"><circle id="ezhiiz3ss8s54" r="11.500000" transform="matrix(1 0 0 1 119.97000000000000 85.04000000000001)" fill="rgb(121,126,246)" stroke="none" stroke-width="1"/><path id="ezhiiz3ss8s55" d="M118.230000,80C115.838865,80.847220,114.405506,83.293507,114.835331,85.793619C115.265156,88.293731,117.433209,90.120855,119.970000,90.120855C122.506791,90.120855,124.674844,88.293731,125.104669,85.793619C125.534494,83.293507,124.101135,80.847220,121.710000,80" fill="none" stroke="rgb(255,255,255)" stroke-width="0.750000" stroke-linecap="round" stroke-miterlimit="10"/><line id="ezhiiz3ss8s56" x1="119.970000" y1="78.790000" x2="119.970000" y2="84.470000" fill="none" stroke="rgb(255,255,255)" stroke-width="0.750000" stroke-linecap="round" stroke-miterlimit="10"/></g></g><script><![CDATA[!function(t,n){"object"==typeof exports&&"undefined"!=typeof module?module.exports=n():"function"==typeof define&&define.amd?define(n):(t=t||self).__SVGATOR_PLAYER__=n()}(this,(function(){"use strict";function t(n){return(t="function"==typeof Symbol&&"symbol"==typeof Symbol.iterator?function(t){return typeof t}:function(t){return t&&"function"==typeof Symbol&&t.constructor===Symbol&&t!==Symbol.prototype?"symbol":typeof t})(n)}function n(t,n){if(!(t instanceof n))throw new TypeError("Cannot call a class as a function")}function e(t,n){for(var e=0;e<n.length;e++){var r=n[e];r.enumerable=r.enumerable||!1,r.configurable=!0,"value"in r&&(r.writable=!0),Object.defineProperty(t,r.key,r)}}function r(t,n,r){return n&&e(t.prototype,n),r&&e(t,r),t}function i(t){return(i=Object.setPrototypeOf?Object.getPrototypeOf:function(t){return t.__proto__||Object.getPrototypeOf(t)})(t)}function u(t,n){return(u=Object.setPrototypeOf||function(t,n){return t.__proto__=n,t})(t,n)}function o(t,n){return!n||"object"!=typeof n&&"function"!=typeof n?function(t){if(void 0===t)throw new ReferenceError("this hasn't been initialised - super() hasn't been called");return t}(t):n}function a(t){var n=function(){if("undefined"==typeof Reflect||!Reflect.construct)return!1;if(Reflect.construct.sham)return!1;if("function"==typeof Proxy)return!0;try{return Date.prototype.toString.call(Reflect.construct(Date,[],(function(){}))),!0}catch(t){return!1}}();return function(){var e,r=i(t);if(n){var u=i(this).constructor;e=Reflect.construct(r,arguments,u)}else e=r.apply(this,arguments);return o(this,e)}}function l(t,n,e){return(l="undefined"!=typeof Reflect&&Reflect.get?Reflect.get:function(t,n,e){var r=function(t,n){for(;!Object.prototype.hasOwnProperty.call(t,n)&&null!==(t=i(t)););return t}(t,n);if(r){var u=Object.getOwnPropertyDescriptor(r,n);return u.get?u.get.call(e):u.value}})(t,n,e||t)}var f=Math.abs;function s(t){return t}function c(t,n,e){var r=1-e;return 3*e*r*(t*r+n*e)+e*e*e}function h(){var t=arguments.length>0&&void 0!==arguments[0]?arguments[0]:0,n=arguments.length>1&&void 0!==arguments[1]?arguments[1]:0,e=arguments.length>2&&void 0!==arguments[2]?arguments[2]:1,r=arguments.length>3&&void 0!==arguments[3]?arguments[3]:1;return t<0||t>1||e<0||e>1?null:f(t-n)<=1e-5&&f(e-r)<=1e-5?s:function(i){if(i<=0)return t>0?i*n/t:0===n&&e>0?i*r/e:0;if(i>=1)return e<1?1+(i-1)*(r-1)/(e-1):1===e&&t<1?1+(i-1)*(n-1)/(t-1):1;for(var u,o=0,a=1;o<a;){var l=c(t,e,u=(o+a)/2);if(f(i-l)<1e-5)break;l<i?o=u:a=u}return c(n,r,u)}}function v(){return 1}function d(t){return 1===t?1:0}function y(){var t=arguments.length>0&&void 0!==arguments[0]?arguments[0]:1,n=arguments.length>1&&void 0!==arguments[1]?arguments[1]:0;if(1===t){if(0===n)return d;if(1===n)return v}var e=1/t;return function(t){return t>=1?1:(t+=n*e)-t%e}}function g(t){var n=arguments.length>1&&void 0!==arguments[1]?arguments[1]:2;if(Number.isInteger(t))return t;var e=Math.pow(10,n);return Math.round(t*e)/e}var p=Math.PI/180;function m(t,n,e){return t>=.5?e:n}function b(t,n,e){return 0===t||n===e?n:t*(e-n)+n}function w(t,n,e){var r=b(t,n,e);return r<=0?0:r}function x(t,n,e){return 0===t?n:1===t?e:{x:b(t,n.x,e.x),y:b(t,n.y,e.y)}}function k(t,n,e){return 0===t?n:1===t?e:{x:w(t,n.x,e.x),y:w(t,n.y,e.y)}}function A(t,n,e){var r=function(t,n,e){return Math.round(b(t,n,e))}(t,n,e);return r<=0?0:r>=255?255:r}function _(t,n,e){return 0===t?n:1===t?e:{r:A(t,n.r,e.r),g:A(t,n.g,e.g),b:A(t,n.b,e.b),a:b(t,null==n.a?1:n.a,null==e.a?1:e.a)}}function S(t,n,e){if(0===t)return n;if(1===t)return e;var r=n.length;if(r!==e.length)return m(t,n,e);for(var i=[],u=0;u<r;u++)i.push(_(t,n[u],e[u]));return i}function M(t,n,e){var r=n.length;if(r!==e.length)return m(t,n,e);for(var i=new Array(r),u=0;u<r;u++)i[u]=b(t,n[u],e[u]);return i}function O(t,n){for(var e=[],r=0;r<t;r++)e.push(n);return e}function E(t,n){if(--n<=0)return t;var e=(t=Object.assign([],t)).length;do{for(var r=0;r<e;r++)t.push(t[r])}while(--n>0);return t}var B,I=function(){function t(e){n(this,t),this.list=e,this.length=e.length}return r(t,[{key:"setAttribute",value:function(t,n){for(var e=this.list,r=0;r<this.length;r++)e[r].setAttribute(t,n)}},{key:"removeAttribute",value:function(t){for(var n=this.list,e=0;e<this.length;e++)n[e].removeAttribute(t)}},{key:"style",value:function(t,n){for(var e=this.list,r=0;r<this.length;r++)e[r].style[t]=n}}]),t}(),j=/-./g,P=function(t,n){return n.toUpperCase()};function F(t){return"function"==typeof t?t:m}function R(t){return t?"function"==typeof t?t:Array.isArray(t)?function(t){var n=arguments.length>1&&void 0!==arguments[1]?arguments[1]:s;if(!Array.isArray(t))return n;switch(t.length){case 1:return y(t[0])||n;case 2:return y(t[0],t[1])||n;case 4:return h(t[0],t[1],t[2],t[3])||n}return n}(t,null):function(t,n){var e=arguments.length>2&&void 0!==arguments[2]?arguments[2]:s;switch(t){case"linear":return s;case"steps":return y(n.steps||1,n.jump||0)||e;case"bezier":case"cubic-bezier":return h(n.x1||0,n.y1||0,n.x2||0,n.y2||0)||e}return e}(t.type,t.value,null):null}function T(t,n,e){var r=arguments.length>3&&void 0!==arguments[3]&&arguments[3],i=n.length-1;if(t<=n[0].t)return r?[0,0,n[0].v]:n[0].v;if(t>=n[i].t)return r?[i,1,n[i].v]:n[i].v;var u,o=n[0],a=null;for(u=1;u<=i;u++){if(!(t>n[u].t)){a=n[u];break}o=n[u]}return null==a?r?[i,1,n[i].v]:n[i].v:o.t===a.t?r?[u,1,a.v]:a.v:(t=(t-o.t)/(a.t-o.t),o.e&&(t=o.e(t)),r?[u,t,e(t,o.v,a.v)]:e(t,o.v,a.v))}function q(t,n){var e=arguments.length>2&&void 0!==arguments[2]?arguments[2]:null;return t&&t.length?"function"!=typeof n?null:("function"!=typeof e&&(e=null),function(r){var i=T(r,t,n);return null!=i&&e&&(i=e(i)),i}):null}function C(t,n){return t.t-n.t}function V(n,e,r,i,u){var o,a="@"===r[0],l="#"===r[0],f=B[r],s=m;switch(a?(o=r.substr(1),r=o.replace(j,P)):l&&(r=r.substr(1)),t(f)){case"function":if(s=f(i,u,T,R,r,a,e,n),l)return s;break;case"string":s=q(i,F(f));break;case"object":if((s=q(i,F(f.i),f.f))&&"function"==typeof f.u)return f.u(e,s,r,a,n)}return s?function(t,n,e){var r=arguments.length>3&&void 0!==arguments[3]&&arguments[3];if(r)return t instanceof I?function(r){return t.style(n,e(r))}:function(r){return t.style[n]=e(r)};if(Array.isArray(n)){var i=n.length;return function(r){var u=e(r);if(null==u)for(var o=0;o<i;o++)t[o].removeAttribute(n);else for(var a=0;a<i;a++)t[a].setAttribute(n,u)}}return function(r){var i=e(r);null==i?t.removeAttribute(n):t.setAttribute(n,i)}}(e,r,s,a):null}function N(n,e,r,i){if(!i||"object"!==t(i))return null;var u=null,o=null;return Array.isArray(i)?o=function(t){if(!t||!t.length)return null;for(var n=0;n<t.length;n++)t[n].e&&(t[n].e=R(t[n].e));return t.sort(C)}(i):(o=i.keys,u=i.data||null),o?V(n,e,r,o,u):null}function z(t,n,e){if(!e)return null;var r=[];for(var i in e)if(e.hasOwnProperty(i)){var u=N(t,n,i,e[i]);u&&r.push(u)}return r.length?r:null}function D(t,n){if(!n.duration||n.duration<0)return null;var e=function(t,n){if(!n)return null;var e=[];if(Array.isArray(n))for(var r=n.length,i=0;i<r;i++){var u=n[i];if(2===u.length){var o=null;if("string"==typeof u[0])o=t.getElementById(u[0]);else if(Array.isArray(u[0])){o=[];for(var a=0;a<u[0].length;a++)if("string"==typeof u[0][a]){var l=t.getElementById(u[0][a]);l&&o.push(l)}o=o.length?1===o.length?o[0]:new I(o):null}if(o){var f=z(t,o,u[1]);f&&(e=e.concat(f))}}}else for(var s in n)if(n.hasOwnProperty(s)){var c=t.getElementById(s);if(c){var h=z(t,c,n[s]);h&&(e=e.concat(h))}}return e.length?e:null}(t,n.elements);return e?function(t,n){var e=arguments.length>2&&void 0!==arguments[2]?arguments[2]:1/0,r=arguments.length>3&&void 0!==arguments[3]?arguments[3]:1,i=arguments.length>4&&void 0!==arguments[4]&&arguments[4],u=arguments.length>5&&void 0!==arguments[5]?arguments[5]:1,o=t.length,a=r>0?n:0;i&&e%2==0&&(a=n-a);var l=null;return function(f,s){var c=f%n,h=1+(f-c)/n;s*=r,i&&h%2==0&&(s=-s);var v=!1;if(h>e)c=a,v=!0,-1===u&&(c=r>0?0:n);else if(s<0&&(c=n-c),c===l)return!1;l=c;for(var d=0;d<o;d++)t[d](c);return v}}(e,n.duration,n.iterations||1/0,n.direction||1,!!n.alternate,n.fill||1):null}function L(t,n){if(B=n,!t||!t.root||!Array.isArray(t.animations))return null;var e=window.document.getElementById(t.root);if(!e)return null;var r=t.animations.map((function(t){return D(e,t)})).filter((function(t){return!!t}));return r.length?{element:e,animations:r,animationSettings:t.animationSettings,options:t.options||void 0}:null}var U=function(){function t(e,r){var i=arguments.length>2&&void 0!==arguments[2]?arguments[2]:{};n(this,t),this._id=0,this._running=!1,this._rollingBack=!1,this._animations=e,this.duration=r.duration,this.alternate=r.alternate,this.fill=r.fill,this.iterations=r.iterations,this.direction=i.direction||1,this.speed=i.speed||1,this.fps=i.fps||100,this.offset=i.offset||0,this.rollbackStartOffset=0}return r(t,[{key:"_rollback",value:function(){var t=this,n=1/0,e=null;this.rollbackStartOffset=this.offset,this._rollingBack||(this._rollingBack=!0,this._running=!0);this._id=window.requestAnimationFrame((function r(i){if(t._rollingBack){null==e&&(e=i);var u=i-e,o=t.rollbackStartOffset-u,a=Math.round(o*t.speed);if(a>t.duration&&n!=1/0){var l=!!t.alternate&&a/t.duration%2>1,f=a%t.duration;a=(f+=l?t.duration:0)||t.duration}var s=t.fps?1e3/t.fps:0,c=Math.max(0,a);if(c<n-s){t.offset=c,n=c;for(var h=t._animations,v=h.length,d=0;d<v;d++)h[d](c,t.direction)}var y=!1;if(t.iterations>0&&-1===t.fill){var g=t.iterations*t.duration,p=g==a;a=p?0:a,t.offset=p?0:t.offset,y=a>g}a>0&&t.offset>=a&&!y?t._id=window.requestAnimationFrame(r):t.stop()}}))}},{key:"_start",value:function(){var t=this,n=arguments.length>0&&void 0!==arguments[0]?arguments[0]:0,e=-1/0,r=null,i={},u=function u(o){t._running=!0,null==r&&(r=o);var a=Math.round((o-r+n)*t.speed),l=t.fps?1e3/t.fps:0;if(a>e+l&&!t._rollingBack){t.offset=a,e=a;for(var f=t._animations,s=f.length,c=0,h=0;h<s;h++)i[h]?c++:(i[h]=f[h](a,t.direction),i[h]&&c++);if(c===s)return void t._stop()}t._id=window.requestAnimationFrame(u)};this._id=window.requestAnimationFrame(u)}},{key:"_stop",value:function(){this._id&&window.cancelAnimationFrame(this._id),this._running=!1,this._rollingBack=!1}},{key:"play",value:function(){!this._rollingBack&&this._running||(this._rollingBack=!1,this.rollbackStartOffset>this.duration&&(this.offset=this.rollbackStartOffset-(this.rollbackStartOffset-this.offset)%this.duration,this.rollbackStartOffset=0),this._start(this.offset))}},{key:"stop",value:function(){this._stop(),this.offset=0,this.rollbackStartOffset=0;var t=this.direction,n=this._animations;window.requestAnimationFrame((function(){for(var e=0;e<n.length;e++)n[e](0,t)}))}},{key:"reachedToEnd",value:function(){return this.iterations>0&&this.offset>=this.iterations*this.duration}},{key:"restart",value:function(){this._stop(),this.offset=0,this._start()}},{key:"pause",value:function(){this._stop()}},{key:"reverse",value:function(){this.direction=-this.direction}}],[{key:"build",value:function(n,e){return(n=L(n,e))?{el:n.element,options:n.options||{},player:new t(n.animations,n.animationSettings,n.options)}:null}}]),t}();!function(){for(var t=0,n=["ms","moz","webkit","o"],e=0;e<n.length&&!window.requestAnimationFrame;++e)window.requestAnimationFrame=window[n[e]+"RequestAnimationFrame"],window.cancelAnimationFrame=window[n[e]+"CancelAnimationFrame"]||window[n[e]+"CancelRequestAnimationFrame"];window.requestAnimationFrame||(window.requestAnimationFrame=function(n){var e=Date.now(),r=Math.max(0,16-(e-t)),i=window.setTimeout((function(){n(e+r)}),r);return t=e+r,i},window.cancelAnimationFrame=window.clearTimeout)}();var W=function(t,n){var e=!1,r=null;return function(i){e&&clearTimeout(e),e=setTimeout((function(){return function(){for(var i=0,u=window.innerHeight,o=0,a=window.innerWidth,l=t.parentNode;l instanceof Element;){var f=window.getComputedStyle(l);if("visible"!==f.overflowY||"visible"!==f.overflowX){var s=l.getBoundingClientRect();"visible"!==f.overflowY&&(i=Math.max(i,s.top),u=Math.min(u,s.bottom)),"visible"!==f.overflowX&&(o=Math.max(o,s.left),a=Math.min(a,s.right))}if(l===l.parentNode)break;l=l.parentNode}e=!1;var c=t.getBoundingClientRect(),h=Math.min(c.height,Math.max(0,i-c.top)),v=Math.min(c.height,Math.max(0,c.bottom-u)),d=Math.min(c.width,Math.max(0,o-c.left)),y=Math.min(c.width,Math.max(0,c.right-a)),g=(c.height-h-v)/c.height,p=(c.width-d-y)/c.width,m=Math.round(g*p*100);null!==r&&r===m||(r=m,n(m))}()}),100)}},Y=function(){function t(e,r,i){n(this,t),r=Math.max(1,r||1),r=Math.min(r,100),this.el=e,this.onTresholdChange=i&&i.call?i:function(){},this.tresholdPercent=r||1,this.currentVisibility=null,this.visibilityCalculator=W(e,this.onVisibilityUpdate.bind(this)),this.bindScrollWatchers(),this.visibilityCalculator()}return r(t,[{key:"bindScrollWatchers",value:function(){for(var t=this.el.parentNode;t&&(t.addEventListener("scroll",this.visibilityCalculator),t!==t.parentNode&&t!==document);)t=t.parentNode}},{key:"onVisibilityUpdate",value:function(t){var n=this.currentVisibility>=this.tresholdPercent,e=t>=this.tresholdPercent;if(null===this.currentVisibility||n!==e)return this.currentVisibility=t,void this.onTresholdChange(e);this.currentVisibility=t}}]),t}(),G=/\.0+$/g;function H(t){return Number.isInteger(t)?t+"":t.toFixed(6).replace(G,"")}function X(t){var n=arguments.length>1&&void 0!==arguments[1]?arguments[1]:" ";return t&&t.length?t.map(H).join(n):""}function $(t){return H(t.x)+","+H(t.y)}function Q(t){return t?null==t.a||t.a>=1?"rgb("+t.r+","+t.g+","+t.b+")":"rgba("+t.r+","+t.g+","+t.b+","+t.a+")":"transparent"}var Z={f:null,i:k,u:function(t,n){return function(e){var r=n(e);t.setAttribute("rx",H(r.x)),t.setAttribute("ry",H(r.y))}}},J={f:null,i:function(t,n,e){return 0===t?n:1===t?e:{width:w(t,n.width,e.width),height:w(t,n.height,e.height)}},u:function(t,n){return function(e){var r=n(e);t.setAttribute("width",H(r.width)),t.setAttribute("height",H(r.height))}}},K=Math.sin,tt=Math.cos,nt=Math.acos,et=Math.asin,rt=Math.tan,it=Math.atan2,ut=Math.PI/180,ot=180/Math.PI,at=Math.sqrt,lt=function(){function t(){var e=arguments.length>0&&void 0!==arguments[0]?arguments[0]:1,r=arguments.length>1&&void 0!==arguments[1]?arguments[1]:0,i=arguments.length>2&&void 0!==arguments[2]?arguments[2]:0,u=arguments.length>3&&void 0!==arguments[3]?arguments[3]:1,o=arguments.length>4&&void 0!==arguments[4]?arguments[4]:0,a=arguments.length>5&&void 0!==arguments[5]?arguments[5]:0;n(this,t),this.m=[e,r,i,u,o,a],this.i=null,this.w=null,this.s=null}return r(t,[{key:"point",value:function(t,n){var e=this.m;return{x:e[0]*t+e[2]*n+e[4],y:e[1]*t+e[3]*n+e[5]}}},{key:"translateSelf",value:function(){var t=arguments.length>0&&void 0!==arguments[0]?arguments[0]:0,n=arguments.length>1&&void 0!==arguments[1]?arguments[1]:0;if(!t&&!n)return this;var e=this.m;return e[4]+=e[0]*t+e[2]*n,e[5]+=e[1]*t+e[3]*n,this.w=this.s=this.i=null,this}},{key:"rotateSelf",value:function(){var t=arguments.length>0&&void 0!==arguments[0]?arguments[0]:0;if(t%=360){var n=K(t*=ut),e=tt(t),r=this.m,i=r[0],u=r[1];r[0]=i*e+r[2]*n,r[1]=u*e+r[3]*n,r[2]=r[2]*e-i*n,r[3]=r[3]*e-u*n,this.w=this.s=this.i=null}return this}},{key:"scaleSelf",value:function(){var t=arguments.length>0&&void 0!==arguments[0]?arguments[0]:1,n=arguments.length>1&&void 0!==arguments[1]?arguments[1]:1;if(1!==t||1!==n){var e=this.m;e[0]*=t,e[1]*=t,e[2]*=n,e[3]*=n,this.w=this.s=this.i=null}return this}},{key:"skewSelf",value:function(t,n){if(n%=360,(t%=360)||n){var e=this.m,r=e[0],i=e[1],u=e[2],o=e[3];t&&(t=rt(t*ut),e[2]+=r*t,e[3]+=i*t),n&&(n=rt(n*ut),e[0]+=u*n,e[1]+=o*n),this.w=this.s=this.i=null}return this}},{key:"resetSelf",value:function(){var t=arguments.length>0&&void 0!==arguments[0]?arguments[0]:1,n=arguments.length>1&&void 0!==arguments[1]?arguments[1]:0,e=arguments.length>2&&void 0!==arguments[2]?arguments[2]:0,r=arguments.length>3&&void 0!==arguments[3]?arguments[3]:1,i=arguments.length>4&&void 0!==arguments[4]?arguments[4]:0,u=arguments.length>5&&void 0!==arguments[5]?arguments[5]:0,o=this.m;return o[0]=t,o[1]=n,o[2]=e,o[3]=r,o[4]=i,o[5]=u,this.w=this.s=this.i=null,this}},{key:"recomposeSelf",value:function(){var t=arguments.length>0&&void 0!==arguments[0]?arguments[0]:null,n=arguments.length>1&&void 0!==arguments[1]?arguments[1]:null,e=arguments.length>2&&void 0!==arguments[2]?arguments[2]:null,r=arguments.length>3&&void 0!==arguments[3]?arguments[3]:null,i=arguments.length>4&&void 0!==arguments[4]?arguments[4]:null;return this.isIdentity||this.resetSelf(),t&&(t.x||t.y)&&this.translateSelf(t.x,t.y),n&&this.rotateSelf(n),e&&(e.x&&this.skewSelf(e.x,0),e.y&&this.skewSelf(0,e.y)),!r||1===r.x&&1===r.y||this.scaleSelf(r.x,r.y),i&&(i.x||i.y)&&this.translateSelf(i.x,i.y),this}},{key:"decompose",value:function(){var t=arguments.length>0&&void 0!==arguments[0]?arguments[0]:0,n=arguments.length>1&&void 0!==arguments[1]?arguments[1]:0,e=this.m,r=e[0]*e[0]+e[1]*e[1],i=[[e[0],e[1]],[e[2],e[3]]],u=at(r);if(0===u)return{origin:{x:e[4],y:e[5]},translate:{x:t,y:n},scale:{x:0,y:0},skew:{x:0,y:0},rotate:0};i[0][0]/=u,i[0][1]/=u;var o=e[0]*e[3]-e[1]*e[2]<0;o&&(u=-u);var a=i[0][0]*i[1][0]+i[0][1]*i[1][1];i[1][0]-=i[0][0]*a,i[1][1]-=i[0][1]*a;var l=at(i[1][0]*i[1][0]+i[1][1]*i[1][1]);if(0===l)return{origin:{x:e[4],y:e[5]},translate:{x:t,y:n},scale:{x:u,y:0},skew:{x:0,y:0},rotate:0};i[1][0]/=l,i[1][1]/=l,a/=l;var f=0;return i[1][1]<0?(f=nt(i[1][1])*ot,i[0][1]<0&&(f=360-f)):f=et(i[0][1])*ot,o&&(f=-f),a=it(a,at(i[0][0]*i[0][0]+i[0][1]*i[0][1]))*ot,{origin:{x:e[4],y:e[5]},translate:{x:t,y:n},scale:{x:u,y:l},skew:{x:a,y:0},rotate:f}}},{key:"toString",value:function(){return null===this.s&&(this.s="matrix("+this.m.map(st).join(" ")+")"),this.s}},{key:"determinant",get:function(){var t=this.m;return t[0]*t[3]-t[1]*t[2]}},{key:"isIdentity",get:function(){if(null===this.i){var t=this.m;this.i=1===t[0]&&0===t[1]&&0===t[2]&&1===t[3]&&0===t[4]&&0===t[5]}return this.i}}]),t}(),ft=/\.0+$/;function st(t){return Number.isInteger(t)?t:t.toFixed(14).replace(ft,"")}Object.freeze({M:2,L:2,Z:0,H:1,V:1,C:6,Q:4,T:2,S:4,A:7});function ct(t,n,e){return t+(n-t)*e}function ht(t,n,e){var r=arguments.length>3&&void 0!==arguments[3]&&arguments[3],i={x:ct(t.x,n.x,e),y:ct(t.y,n.y,e)};return r&&(i.a=vt(t,n)),i}function vt(t,n){return Math.atan2(n.y-t.y,n.x-t.x)}function dt(t,n,e,r){var i=1-r;return i*i*t+2*i*r*n+r*r*e}function yt(t,n,e,r){return 2*(1-r)*(n-t)+2*r*(e-n)}function gt(t,n,e,r){var i=arguments.length>4&&void 0!==arguments[4]&&arguments[4],u={x:dt(t.x,n.x,e.x,r),y:dt(t.y,n.y,e.y,r)};return i&&(u.a=pt(t,n,e,r)),u}function pt(t,n,e,r){return Math.atan2(yt(t.y,n.y,e.y,r),yt(t.x,n.x,e.x,r))}function mt(t,n,e,r,i){var u=i*i;return i*u*(r-t+3*(n-e))+3*u*(t+e-2*n)+3*i*(n-t)+t}function bt(t,n,e,r,i){var u=1-i;return 3*(u*u*(n-t)+2*u*i*(e-n)+i*i*(r-e))}function wt(t,n,e,r,i){var u=arguments.length>5&&void 0!==arguments[5]&&arguments[5],o={x:mt(t.x,n.x,e.x,r.x,i),y:mt(t.y,n.y,e.y,r.y,i)};return u&&(o.a=xt(t,n,e,r,i)),o}function xt(t,n,e,r,i){return Math.atan2(bt(t.y,n.y,e.y,r.y,i),bt(t.x,n.x,e.x,r.x,i))}function kt(t,n,e){var r=arguments.length>3&&void 0!==arguments[3]&&arguments[3];if(_t(n)){if(St(e))return gt(n,e.start,e,t,r)}else if(_t(e)){if(n.end)return gt(n,n.end,e,t,r)}else{if(n.end)return e.start?wt(n,n.end,e.start,e,t,r):gt(n,n.end,e,t,r);if(e.start)return gt(n,e.start,e,t,r)}return ht(n,e,t,r)}function At(t,n,e){var r=kt(t,n,e,!0);return r.a=function(t){var n=arguments.length>1&&void 0!==arguments[1]&&arguments[1];return n?t+Math.PI:t}(r.a)/p,r}function _t(t){return!t.type||"corner"===t.type}function St(t){return null!=t.start&&!_t(t)}var Mt=new lt;var Ot={f:function(t){return t?t.join(" "):""},i:function(n,e,r){if(0===n)return e;if(1===n)return r;var i=e.length;if(i!==r.length)return m(n,e,r);for(var u,o=new Array(i),a=0;a<i;a++){if((u=t(e[a]))!==t(r[a]))return m(n,e,r);if("number"===u)o[a]=b(n,e[a],r[a]);else{if(e[a]!==r[a])return m(n,e,r);o[a]=e[a]}}return o}},Et={f:null,i:M,u:function(t,n){return function(e){var r=n(e);t.setAttribute("x1",H(r[0])),t.setAttribute("y1",H(r[1])),t.setAttribute("x2",H(r[2])),t.setAttribute("y2",H(r[3]))}}},Bt={f:H,i:b},It={f:H,i:function(t,n,e){var r=b(t,n,e);return r<=0?0:r>=1?1:r}},jt={f:function(t){var n=arguments.length>1&&void 0!==arguments[1]?arguments[1]:" ";return t&&t.length>0&&(t=t.map((function(t){return Math.floor(1e4*t)/1e4}))),X(t,n)},i:function(t,n,e){var r,i,u,o=n.length,a=e.length;if(o!==a)if(0===o)n=O(o=a,0);else if(0===a)a=o,e=O(o,0);else{var l=(u=(r=o)*(i=a)/function(t,n){for(var e;n;)e=n,n=t%n,t=e;return t||1}(r,i))<0?-u:u;n=E(n,Math.floor(l/o)),e=E(e,Math.floor(l/a)),o=a=l}for(var f=[],s=0;s<o;s++)f.push(g(w(t,n[s],e[s]),6));return f}};function Pt(t,n,e,r,i,u,o,a){return n=function(t,n,e){for(var r,i,u,o=t.length-1,a={},l=0;l<=o;l++)(r=t[l]).e&&(r.e=n(r.e)),r.v&&"g"===(i=r.v).t&&i.r&&(u=e.getElementById(i.r))&&(a[i.r]=u.querySelectorAll("stop"));return a}(t,r,a),function(r){var i,u=e(r,t,Ft);return u?"c"===u.t?Q(u.v):"g"===u.t?(n[u.r]&&function(t,n){for(var e=0,r=t.length;e<r;e++)t[e].setAttribute("stop-color",Q(n[e]))}(n[u.r],u.v),(i=u.r)?"url(#"+i+")":"none"):"none":"none"}}function Ft(t,n,e){if(0===t)return n;if(1===t)return e;if(n&&e){var r=n.t;if(r===e.t)switch(n.t){case"c":return{t:r,v:_(t,n.v,e.v)};case"g":if(n.r===e.r)return{t:r,v:S(t,n.v,e.v),r:n.r}}}return m(t,n,e)}var Rt={blur:k,brightness:w,contrast:w,"drop-shadow":function(t,n,e){return 0===t?n:1===t?e:{blur:k(t,n.blur,e.blur),offset:x(t,n.offset,e.offset),color:_(t,n.color,e.color)}},grayscale:w,"hue-rotate":b,invert:w,opacity:w,saturate:w,sepia:w};function Tt(t,n,e){if(0===t)return n;if(1===t)return e;var r=n.length;if(r!==e.length)return m(t,n,e);for(var i,u=[],o=0;o<r;o++){if(n[o].type!==e[o].type)return n;if(!(i=Rt[n[o].type]))return m(t,n,e);u.push({type:n.type,value:i(t,n[o].value,e[o].value)})}return u}var qt={blur:function(t){return t?function(n){t.setAttribute("stdDeviation",$(n))}:null},brightness:function(t,n,e){return(t=Vt(e,n))?function(n){n=H(n),t.map((function(t){return t.setAttribute("slope",n)}))}:null},contrast:function(t,n,e){return(t=Vt(e,n))?function(n){var e=H((1-n)/2);n=H(n),t.map((function(t){t.setAttribute("slope",n),t.setAttribute("intercept",e)}))}:null},"drop-shadow":function(t,n,e){var r=e.getElementById(n+"-blur");if(!r)return null;var i=e.getElementById(n+"-offset");if(!i)return null;var u=e.getElementById(n+"-flood");return u?function(t){r.setAttribute("stdDeviation",$(t.blur)),i.setAttribute("dx",H(t.offset.x)),i.setAttribute("dy",H(t.offset.y)),u.setAttribute("flood-color",Q(t.color))}:null},grayscale:function(t){return t?function(n){t.setAttribute("values",X(function(t){return[.2126+.7874*(t=1-t),.7152-.7152*t,.0722-.0722*t,0,0,.2126-.2126*t,.7152+.2848*t,.0722-.0722*t,0,0,.2126-.2126*t,.7152-.7152*t,.0722+.9278*t,0,0,0,0,0,1,0]}(n)))}:null},"hue-rotate":function(t){return t?function(n){return t.setAttribute("values",H(n))}:null},invert:function(t,n,e){return(t=Vt(e,n))?function(n){n=H(n)+" "+H(1-n),t.map((function(t){return t.setAttribute("tableValues",n)}))}:null},opacity:function(t,n,e){return(t=e.getElementById(n+"-A"))?function(n){return t.setAttribute("tableValues","0 "+H(n))}:null},saturate:function(t){return t?function(n){return t.setAttribute("values",H(n))}:null},sepia:function(t){return t?function(n){return t.setAttribute("values",X(function(t){return[.393+.607*(t=1-t),.769-.769*t,.189-.189*t,0,0,.349-.349*t,.686+.314*t,.168-.168*t,0,0,.272-.272*t,.534-.534*t,.131+.869*t,0,0,0,0,0,1,0]}(n)))}:null}};var Ct=["R","G","B"];function Vt(t,n){var e=Ct.map((function(e){return t.getElementById(n+"-"+e)||null}));return-1!==e.indexOf(null)?null:e}var Nt={fill:Pt,"fill-opacity":It,stroke:Pt,"stroke-opacity":It,"stroke-width":Bt,"stroke-dashoffset":{f:H,i:b},"stroke-dasharray":jt,opacity:It,transform:function(n,e,r,i){if(!(n=function(n,e){if(!n||"object"!==t(n))return null;var r=!1;for(var i in n)n.hasOwnProperty(i)&&(n[i]&&n[i].length?(n[i].forEach((function(t){t.e&&(t.e=e(t.e))})),r=!0):delete n[i]);return r?n:null}(n,i)))return null;var u=function(t,i,u){var o=arguments.length>3&&void 0!==arguments[3]?arguments[3]:null;return n[t]?r(i,n[t],u):e&&e[t]?e[t]:o};return e&&e.a&&n.o?function(t){var e=r(t,n.o,At);return Mt.recomposeSelf(e,u("r",t,b,0)+e.a,u("k",t,x),u("s",t,x),u("t",t,x)).toString()}:function(t){return Mt.recomposeSelf(u("o",t,kt,null),u("r",t,b,0),u("k",t,x),u("s",t,x),u("t",t,x)).toString()}},"#filter":function(t,n,e,r,i,u,o,a){if(!n.items||!t||!t.length)return null;var l=function(t,n){var e=(t=t.map((function(t){return t&&qt[t[0]]?(n.getElementById(t[1]),qt[t[0]](n.getElementById(t[1]),t[1],n)):null}))).length;return function(n){for(var r=0;r<e;r++)t[r]&&t[r](n[r].value)}}(n.items,a);return l?(t=function(t,n){return t.map((function(t){return t.e=n(t.e),t}))}(t,r),function(n){l(e(n,t,Tt))}):null},"#line":Et,points:{f:X,i:M},d:Ot,r:Bt,"#size":J,"#radius":Z,_:function(t,n){if(Array.isArray(t))for(var e=0;e<t.length;e++)this[t[e]]=n;else this[t]=n}};return function(t){!function(t,n){if("function"!=typeof n&&null!==n)throw new TypeError("Super expression must either be null or a function");t.prototype=Object.create(n&&n.prototype,{constructor:{value:t,writable:!0,configurable:!0}}),n&&u(t,n)}(o,t);var e=a(o);function o(){return n(this,o),e.apply(this,arguments)}return r(o,null,[{key:"build",value:function(t){var n=l(i(o),"build",this).call(this,t,Nt),e=n.el,r=n.options,u=n.player;return function(t,n,e){if("click"===e.start){return void n.addEventListener("click",(function(){switch(e.click){case"freeze":return!t._running&&t.reachedToEnd()&&(t.offset=0),t._running?t.pause():t.play();case"restart":return t.offset>0?t.restart():t.play();case"reverse":var n=!t._rollingBack&&t._running,r=t.reachedToEnd();return n||r&&1===t.fill?(t.pause(),r&&(t.offset=t.duration-1),t._rollback()):r?t.restart():t.play();case"none":default:return!t._running&&t.offset?t.restart():t.play()}}))}if("hover"===e.start)return n.addEventListener("mouseenter",(function(){return t.reachedToEnd()?t.restart():t.play()})),void n.addEventListener("mouseleave",(function(){switch(e.hover){case"freeze":return t.pause();case"reset":return t.stop();case"reverse":return t.pause(),t._rollback();case"none":default:return}}));if("scroll"===e.start)return void new Y(n,e.scroll||25,(function(n){n?t.reachedToEnd()?t.restart():t.play():t.pause()}));t.play()}(u,e,r),u}}]),o}(U)}));
__SVGATOR_PLAYER__.build({"root":"ezhiiz3ss8s1","animations":[{"duration":3000,"direction":1,"iterations":1,"fill":1,"alternate":false,"elements":{"ezhiiz3ss8s3":{"transform":{"data":{"t":{"x":-79.52498722076416,"y":-188.2850112915039}},"keys":{"o":[{"t":0,"v":{"x":79.95512771606445,"y":188.43516540527344,"type":"corner"},"e":[0.655,0,1,1]},{"t":400,"v":{"x":79.96,"y":166.02017371527342,"type":"corner"},"e":[0.42,0,0.58,1]},{"t":700,"v":{"x":80.00000000499999,"y":195.69049232527337,"type":"corner"},"e":[0.42,0,0.58,1]},{"t":900,"v":{"x":80.0175262000003,"y":185.46281532527343,"type":"corner"},"e":[0.42,0,0.58,1]},{"t":1100,"v":{"x":80.01752619500033,"y":190.62340799999998,"type":"corner"},"e":[0.42,0,0.58,1]},{"t":1400,"v":{"x":80.0175261900008,"y":187.95531900000003,"type":"corner"},"e":[0.42,0,0.58,1]},{"t":1580,"v":{"x":80.017526195,"y":188.399999995,"type":"corner"},"e":[0.42,0,0.58,1]}]}}},"ezhiiz3ss8s27":{"transform":{"data":{"t":{"x":-79.65500259399414,"y":-188.29048919677734}},"keys":{"o":[{"t":0,"v":{"x":79.95512771606445,"y":188.43516540527344,"type":"corner"},"e":[0.655,0,1,1]},{"t":400,"v":{"x":79.96,"y":166.02017371527342,"type":"corner"},"e":[0.42,0,0.58,1]},{"t":700,"v":{"x":80.00000000499999,"y":195.69049232527337,"type":"corner"},"e":[0.42,0,0.58,1]},{"t":900,"v":{"x":80.0175262000003,"y":185.46281532527343,"type":"corner"},"e":[0.42,0,0.58,1]},{"t":1100,"v":{"x":80.01752619500033,"y":190.62340799999998,"type":"corner"},"e":[0.42,0,0.58,1]},{"t":1400,"v":{"x":80.0175261900008,"y":187.95531900000003,"type":"corner"},"e":[0.42,0,0.58,1]},{"t":1580,"v":{"x":80.017526195,"y":188.399999995,"type":"corner"},"e":[0.42,0,0.58,1]}]}}},"ezhiiz3ss8s44":{"fill-opacity":[{"t":0,"v":1,"e":[1,0]},{"t":400,"v":0,"e":[1,0]}]},"ezhiiz3ss8s45":{"transform":{"data":{"o":{"x":80.0175223803024,"y":180.8553330199997,"type":"corner"},"t":{"x":-79.99999618530273,"y":-181.75}},"keys":{"s":[{"t":0,"v":{"x":1.2,"y":1}},{"t":500,"v":{"x":0,"y":1},"e":[0,0,0.58,1]}]}}},"ezhiiz3ss8s47":{"opacity":[{"t":2000,"v":0},{"t":2200,"v":1}]},"ezhiiz3ss8s48":{"fill-opacity":[{"t":1600,"v":0},{"t":2100,"v":1}],"stroke-dashoffset":[{"t":1000,"v":541.6},{"t":2100,"v":0}]},"ezhiiz3ss8s49":{"transform":{"data":{"s":{"x":-1,"y":1},"t":{"x":-56.20369529724121,"y":-86.4834098815918}},"keys":{"o":[{"t":1900,"v":{"x":70.50491878724088,"y":116.47510423159211,"type":"corner"},"e":[0.195,0.8,0.57,0.985]},{"t":2700,"v":{"x":45.54491878224093,"y":96.00079127659231,"type":"corner"},"e":[0.195,0.8,0.57,0.985]}]}},"opacity":[{"t":1800,"v":0,"e":[0,0,0.58,1]},{"t":2100,"v":1,"e":[0,0,0.58,1]},{"t":2700,"v":0.46,"e":[0,0,0.58,1]},{"t":2900,"v":0,"e":[0,0,0.58,1]}]},"ezhiiz3ss8s50":{"transform":{"data":{"t":{"x":-56.20369529724121,"y":-86.4834098815918}},"keys":{"o":[{"t":1400,"v":{"x":81.00352009224072,"y":120.44494903659213,"type":"corner"},"e":[0.195,0.8,0.57,0.985]},{"t":1900,"v":{"x":115.26826960724085,"y":103.56670902659253,"type":"corner"},"e":[0.195,0.8,0.57,0.985]}]}},"opacity":[{"t":1200,"v":0,"e":[0,0,0.58,1]},{"t":1500,"v":1,"e":[0,0,0.58,1]},{"t":1800,"v":0.46,"e":[0,0,0.58,1]},{"t":2100,"v":0,"e":[0,0,0.58,1]}]},"ezhiiz3ss8s51":{"transform":{"data":{"t":{"x":-56.20369529724121,"y":-86.4834098815918}},"keys":{"o":[{"t":1800,"v":{"x":99.00826961224064,"y":115.53943902659218,"type":"corner"},"e":[0.195,0.8,0.57,0.985]},{"t":2200,"v":{"x":93.91927957224087,"y":91.93440129659254,"type":"corner"},"e":[0.195,0.8,0.57,0.985]}]}},"opacity":[{"t":1400,"v":0,"e":[0,0,0.58,1]},{"t":1600,"v":1,"e":[0,0,0.58,1]},{"t":2100,"v":0.46,"e":[0,0,0.58,1]},{"t":2400,"v":0,"e":[0,0,0.58,1]}]},"ezhiiz3ss8s52":{"opacity":[{"t":900,"v":0},{"t":1100,"v":1},{"t":1900,"v":0.16,"e":[0.47,0,0.745,0.715]},{"t":2900,"v":1,"e":[0.47,0,0.745,0.715]}]},"ezhiiz3ss8s53":{"transform":{"data":{"t":{"x":-119.97000121999992,"y":-85.04000092000001}},"keys":{"o":[{"t":700,"v":{"x":79.99999999999973,"y":125.00000000000001,"type":"corner"},"e":[0.49,-0.005,0.505,0.995]},{"t":900,"v":{"x":125,"y":82,"type":"corner"},"e":[0.49,-0.005,0.505,0.995]},{"t":1100,"v":{"x":118,"y":87,"type":"corner"}},{"t":1400,"v":{"x":121,"y":84,"type":"corner"}},{"t":1700,"v":{"x":120,"y":85,"type":"corner"}}],"s":[{"t":500,"v":{"x":1.6,"y":1.6}},{"t":1100,"v":{"x":1,"y":1},"e":[0.19,1,0.22,1]}]}}}}}],"options":{"start":"hover","hover":"none","click":"freeze","scroll":25,"exportedIds":"unique","title":"Cloud icon"},"animationSettings":{"duration":3000,"direction":1,"iterations":1,"fill":1,"alternate":false}})]]></script></svg>