<svg id="eUFTeHg3osW1" xmlns="http://www.w3.org/2000/svg" xmlns:xlink="http://www.w3.org/1999/xlink" viewBox="0 0 400 200" shape-rendering="geometricPrecision" text-rendering="geometricPrecision"><defs><rect id="eUFTeHg3osW2" width="81.500000" height="36" rx="0" ry="0"/><rect id="eUFTeHg3osW3" width="81.500000" height="36" rx="0" ry="0"/><rect id="eUFTeHg3osW4" width="81.500000" height="37.500000" rx="0" ry="0"/></defs><g id="eUFTeHg3osW5" display="none" transform="matrix(2.77062063893475 0 0 1.39086093481046 -96.62750092684544 -35.60893931401930)"><rect id="eUFTeHg3osW6" width="164.200000" height="159" rx="0" ry="0" transform="matrix(1 0 0 1 23 18)" fill="rgb(127,215,245)" stroke="none" stroke-width="1"/></g><g id="eUFTeHg3osW7" transform="matrix(1 0 0 1 3.57736599999996 4.15872383000013)"><g id="eUFTeHg3osW8" transform="matrix(2.49872918492392 0 0 2.49872918492392 27.87869761532498 2.13893356535299)"><g id="eUFTeHg3osW9" clip-path="url(#eUFTeHg3osW15)"><path id="eUFTeHg3osW10" d="M45.800000,37.500000L50.900000,16.900000" transform="matrix(0.96857813301516 -0.24870946955207 0.24870946955207 0.96857813301516 -7.90157452022541 12.45073732582740)" fill="none" stroke="rgb(255,255,255)" stroke-width="1" stroke-linecap="round" stroke-miterlimit="10"/><circle id="eUFTeHg3osW11" r="3.500000" transform="matrix(1 0 0 1 45.80000190734863 37.50000000000000)" fill="rgb(255,255,255)" stroke="none" stroke-width="1"/><circle id="eUFTeHg3osW12" r="31" transform="matrix(1 0 0 1 45.80000000000000 37.50000000000000)" fill="none" stroke="rgb(33,165,236)" stroke-width="0.250000" stroke-miterlimit="10" stroke-dasharray="0"/><circle id="eUFTeHg3osW13" r="24.900000" transform="matrix(1 0 0 1 45.80000381469726 37.49999809265137)" fill="none" stroke="rgb(26,124,250)" stroke-width="1" stroke-linecap="round" stroke-miterlimit="10" stroke-dasharray="10,3,1,3"/><circle id="eUFTeHg3osW14" r="28.400000" transform="matrix(1 0 0 1 45.80000381469726 37.49999809265137)" fill="none" stroke="rgb(30,47,152)" stroke-width="2" stroke-linecap="round" stroke-miterlimit="10" stroke-dasharray="30,5"/><clipPath id="eUFTeHg3osW15"><use id="eUFTeHg3osW16" width="81.500000" height="37.500000" xlink:href="#eUFTeHg3osW4" transform="matrix(1.02342224620848 0 0 2.92838011433996 67.45478357457631 -17.40712714475728)" fill="rgb(0,0,0)" stroke="none" stroke-width="1"/></clipPath></g></g></g><g id="eUFTeHg3osW17"><g id="eUFTeHg3osW18" clip-path="url(#eUFTeHg3osW116)"><g id="eUFTeHg3osW19" transform="matrix(1 0 0 1 146.14472400000000 3.75396064499998)"><g id="eUFTeHg3osW20" display="none"><path id="eUFTeHg3osW21" d="M42.140000,124.200000C42.140000,125.070000,42.880000,125.420000,43.670000,125.420000C44.240000,125.420000,44.970000,125.200000,44.970000,124.490000C44.970000,123.780000,44.140000,123.680000,42.710000,123.370000C41.570000,123.120000,40.420000,122.720000,40.420000,121.440000C40.420000,119.590000,42.010000,119.120000,43.570000,119.120000C45.130000,119.120000,46.570000,119.650000,46.760000,121.430000L44.870000,121.430000C44.870000,120.660000,44.230000,120.430000,43.510000,120.430000C43.060000,120.430000,42.410000,120.510000,42.410000,121.100000C42.410000,121.690000,43.530000,121.910000,44.660000,122.180000C45.790000,122.450000,46.960000,122.860000,46.960000,124.180000C46.960000,126.080000,45.310000,126.700000,43.650000,126.700000C41.990000,126.700000,40.330000,126.070000,40.250000,124.150000Z" fill="rgb(30,47,152)" stroke="none" stroke-width="1"/><path id="eUFTeHg3osW22" d="M48,121.540000C48.110000,119.680000,49.780000,119.120000,51.410000,119.120000C52.850000,119.120000,54.590000,119.440000,54.590000,121.120000L54.590000,124.890000C54.553673,125.438532,54.639043,125.988313,54.840000,126.500000L52.840000,126.500000C52.767533,126.272577,52.720578,126.037801,52.700000,125.800000C52.043524,126.420339,51.162061,126.745469,50.260000,126.700000C48.890000,126.700000,47.800000,126.010000,47.800000,124.530000C47.800000,122.890000,49.030000,122.530000,50.260000,122.330000C51.490000,122.130000,52.620000,122.190000,52.620000,121.380000C52.620000,120.570000,52.030000,120.380000,51.330000,120.380000C50.630000,120.380000,50.080000,120.680000,50.010000,121.470000ZM52.600000,123.010000C52.083470,123.268182,51.517163,123.411464,50.940000,123.430000C50.330000,123.560000,49.770000,123.770000,49.770000,124.490000C49.770000,125.210000,50.340000,125.420000,50.990000,125.420000C51.439825,125.463717,51.884971,125.299507,52.198645,124.974143C52.512319,124.648779,52.660139,124.197925,52.600000,123.750000Z" fill="rgb(30,47,152)" stroke="none" stroke-width="1"/><path id="eUFTeHg3osW23" d="M59.720000,127.460000C59.419457,128.554284,58.354030,129.256011,57.230000,129.100000C56.818345,129.091769,56.407578,129.058373,56,129L56,127.360000C56.388065,127.408731,56.778893,127.432114,57.170000,127.430000C57.466137,127.383591,57.721751,127.197290,57.856596,126.929582C57.991442,126.661874,57.988986,126.345582,57.850000,126.080000L55.300000,119.280000L57.430000,119.280000L59.070000,124.280000L59.070000,124.280000L60.650000,119.280000L62.710000,119.280000Z" fill="rgb(30,47,152)" stroke="none" stroke-width="1"/><path id="eUFTeHg3osW24" d="M74.190000,119.910000C73.989084,118.867846,73.060803,118.126068,72,118.160000C70,118.160000,69.290000,119.840000,69.290000,121.590000C69.290000,123.340000,70.030000,124.940000,72,124.940000C72.598465,124.945326,73.174393,124.711998,73.600394,124.291627C74.026395,123.871256,74.267364,123.298483,74.270000,122.700000L76.400000,122.700000C76.366273,123.828388,75.881847,124.896220,75.055004,125.664808C74.228161,126.433397,73.127843,126.838656,72,126.790000C68.910000,126.790000,67.090000,124.480000,67.090000,121.590000C67.090000,118.700000,68.910000,116.310000,72,116.310000C74.170777,116.162373,76.073756,117.748188,76.320000,119.910000Z" fill="rgb(30,47,152)" stroke="none" stroke-width="1"/><path id="eUFTeHg3osW25" d="M82.380000,116.310000C85.470000,116.310000,87.290000,118.620000,87.290000,121.590000C87.290000,124.560000,85.470000,126.790000,82.380000,126.790000C79.290000,126.790000,77.460000,124.480000,77.460000,121.590000C77.460000,118.700000,79.280000,116.310000,82.380000,116.310000ZM82.380000,124.940000C84.380000,124.940000,85.090000,123.260000,85.090000,121.590000C85.090000,119.920000,84.350000,118.160000,82.380000,118.160000C80.410000,118.160000,79.660000,119.840000,79.660000,121.590000C79.660000,123.340000,80.400000,124.940000,82.380000,124.940000Z" fill="rgb(30,47,152)" stroke="none" stroke-width="1"/><path id="eUFTeHg3osW26" d="M93.440000,126.550000L91,126.550000L87.750000,116.550000L90,116.550000L92.220000,123.550000L92.220000,123.550000L94.480000,116.550000L96.750000,116.550000Z" fill="rgb(30,47,152)" stroke="none" stroke-width="1"/><path id="eUFTeHg3osW27" d="M97.610000,116.550000L99.810000,116.550000L99.810000,126.550000L97.610000,126.550000Z" fill="rgb(30,47,152)" stroke="none" stroke-width="1"/><path id="eUFTeHg3osW28" d="M101.740000,116.550000L106.050000,116.550000C108.640000,116.550000,110.590000,118.180000,110.590000,121.550000C110.590000,124.450000,109.100000,126.550000,106.050000,126.550000L101.740000,126.550000ZM103.940000,124.710000L105.940000,124.710000C107.210000,124.710000,108.430000,123.920000,108.430000,121.710000C108.430000,119.710000,107.730000,118.400000,105.540000,118.400000L103.980000,118.400000Z" fill="rgb(30,47,152)" stroke="none" stroke-width="1"/><path id="eUFTeHg3osW29" d="M111.890000,121.880000L116.100000,121.880000L116.100000,123.580000L111.890000,123.580000Z" fill="rgb(30,47,152)" stroke="none" stroke-width="1"/><path id="eUFTeHg3osW30" d="M122.330000,126.550000L120.330000,126.550000L120.330000,120.190000L117.870000,120.190000L117.870000,118.700000C119.250000,118.700000,120.530000,118.250000,120.740000,116.700000L122.320000,116.700000Z" fill="rgb(30,47,152)" stroke="none" stroke-width="1"/><path id="eUFTeHg3osW31" d="M127,124C127.090178,124.670761,127.644225,125.182835,128.320000,125.220000C129.760000,125.220000,130.140000,123.330000,130.190000,122.220000L130.190000,122.220000C129.698727,122.949505,128.857829,123.364246,127.980000,123.310000C127.124367,123.300394,126.310493,122.938672,125.730000,122.310000C125.226365,121.696339,124.957027,120.923763,124.970000,120.130000C124.920359,119.191363,125.260363,118.273861,125.909690,117.594245C126.559018,116.914628,127.460076,116.533175,128.400000,116.540000C131.400000,116.540000,132.170000,119.130000,132.170000,121.610000C132.170000,124.090000,131.110000,126.740000,128.320000,126.740000C126.698251,126.844289,125.288326,125.638315,125.140000,124.020000ZM130,120C130.035730,119.548241,129.888531,119.101059,129.591450,118.758851C129.294369,118.416644,128.872299,118.208085,128.420000,118.180000C127.983575,118.218102,127.580217,118.428196,127.298841,118.763973C127.017464,119.099749,126.881169,119.533639,126.920000,119.970000C126.920000,120.900000,127.400000,121.820000,128.420000,121.820000C128.879669,121.812174,129.314366,121.609411,129.615751,121.262245C129.917137,120.915080,130.056824,120.456211,130,120Z" fill="rgb(30,47,152)" stroke="none" stroke-width="1"/><path id="eUFTeHg3osW32" d="M137.060000,116.550000L139.060000,116.550000L139.060000,120.320000L139.060000,120.320000C139.512998,119.586687,140.308172,119.134455,141.170000,119.120000C143.290000,119.120000,143.820000,120.310000,143.820000,122.120000L143.820000,126.570000L141.820000,126.570000L141.820000,122.480000C141.820000,121.290000,141.470000,120.700000,140.550000,120.700000C139.470000,120.700000,139.010000,121.310000,139.010000,122.780000L139.010000,126.570000L137.010000,126.570000Z" fill="rgb(30,47,152)" stroke="none" stroke-width="1"/><path id="eUFTeHg3osW33" d="M145.280000,121.540000C145.390000,119.680000,147.050000,119.120000,148.680000,119.120000C150.120000,119.120000,151.860000,119.440000,151.860000,121.120000L151.860000,124.890000C151.823673,125.438532,151.909043,125.988313,152.110000,126.500000L150.110000,126.500000C150.037533,126.272577,149.990578,126.037801,149.970000,125.800000C149.316596,126.418779,148.438832,126.743877,147.540000,126.700000C146.160000,126.700000,145.070000,126.010000,145.070000,124.530000C145.070000,122.890000,146.300000,122.530000,147.540000,122.330000C148.780000,122.130000,149.890000,122.190000,149.890000,121.380000C149.890000,120.570000,149.300000,120.380000,148.600000,120.380000C147.900000,120.380000,147.350000,120.680000,147.280000,121.470000ZM149.870000,123.010000C149.356514,123.266789,148.793768,123.410034,148.220000,123.430000C147.600000,123.560000,147.040000,123.770000,147.040000,124.490000C147.040000,125.210000,147.620000,125.420000,148.260000,125.420000C148.709825,125.463717,149.154971,125.299507,149.468645,124.974143C149.782319,124.648779,149.930139,124.197925,149.870000,123.750000Z" fill="rgb(30,47,152)" stroke="none" stroke-width="1"/><path id="eUFTeHg3osW34" d="M154.940000,124.200000C154.940000,125.070000,155.680000,125.420000,156.460000,125.420000C157.040000,125.420000,157.770000,125.200000,157.770000,124.490000C157.770000,123.780000,156.940000,123.680000,155.510000,123.370000C154.360000,123.120000,153.210000,122.720000,153.210000,121.440000C153.210000,119.590000,154.810000,119.120000,156.370000,119.120000C157.930000,119.120000,159.370000,119.650000,159.560000,121.430000L157.670000,121.430000C157.610000,120.660000,157.020000,120.430000,156.310000,120.430000C155.860000,120.430000,155.200000,120.510000,155.200000,121.100000C155.200000,121.690000,156.320000,121.910000,157.460000,122.180000C158.600000,122.450000,159.760000,122.860000,159.760000,124.180000C159.760000,126.080000,158.100000,126.700000,156.450000,126.700000C154.800000,126.700000,153.130000,126.070000,153.050000,124.150000Z" fill="rgb(30,47,152)" stroke="none" stroke-width="1"/><path id="eUFTeHg3osW35" d="M21.770000,135.720000C21.880000,133.850000,23.550000,133.290000,25.170000,133.290000C26.620000,133.290000,28.350000,133.620000,28.350000,135.350000L28.350000,139.120000C28.310918,139.669555,28.399920,140.220682,28.610000,140.730000L26.610000,140.730000C26.532784,140.503830,26.485712,140.268471,26.470000,140.030000C25.812280,140.648330,24.931702,140.973133,24.030000,140.930000C22.660000,140.930000,21.570000,140.240000,21.570000,138.760000C21.570000,137.120000,22.800000,136.760000,24.030000,136.560000C25.260000,136.360000,26.380000,136.420000,26.380000,135.560000C26.380000,134.700000,25.800000,134.560000,25.100000,134.560000C24.400000,134.560000,23.850000,134.870000,23.780000,135.660000ZM26.360000,137.190000C25.847299,137.448889,25.284083,137.592253,24.710000,137.610000C24.090000,137.730000,23.530000,137.940000,23.530000,138.670000C23.530000,139.400000,24.110000,139.600000,24.750000,139.600000C25.199825,139.643717,25.644971,139.479507,25.958645,139.154143C26.272319,138.828779,26.420139,138.377925,26.360000,137.930000Z" fill="rgb(30,47,152)" stroke="none" stroke-width="1"/><path id="eUFTeHg3osW36" d="M34.820000,136C34.791978,135.638849,34.621038,135.303800,34.345082,135.069144C34.069126,134.834488,33.710960,134.719616,33.350000,134.750000C32.070000,134.750000,31.650000,136.040000,31.650000,137.110000C31.650000,138.180000,32.060000,139.390000,33.310000,139.390000C34.122281,139.419923,34.816174,138.809472,34.890000,138L36.810000,138C36.751370,138.863093,36.348972,139.666597,35.692949,140.230514C35.036926,140.794430,34.182112,141.071624,33.320000,141C32.329314,141.041209,31.367416,140.661481,30.672028,139.954662C29.976641,139.247844,29.612645,138.279882,29.670000,137.290000C29.670000,135.030000,31.010000,133.360000,33.360000,133.360000C35.070000,133.360000,36.640000,134.260000,36.770000,136.110000Z" fill="rgb(30,47,152)" stroke="none" stroke-width="1"/><path id="eUFTeHg3osW37" d="M42.860000,136C42.796314,135.250400,42.140092,134.692387,41.390000,134.750000C40.110000,134.750000,39.690000,136.040000,39.690000,137.110000C39.690000,138.180000,40.100000,139.390000,41.340000,139.390000C42.154270,139.420275,42.851196,138.811013,42.930000,138L44.850000,138C44.786119,138.861056,44.382230,139.661302,43.727467,140.224136C43.072703,140.786970,42.220886,141.066127,41.360000,141C40.367615,141.044122,39.403006,140.665678,38.705372,139.958514C38.007739,139.251350,37.642418,138.281695,37.700000,137.290000C37.601462,136.261028,37.951237,135.239515,38.659804,134.486902C39.368371,133.734289,40.366961,133.323620,41.400000,133.360000C43.110000,133.360000,44.680000,134.260000,44.800000,136.110000Z" fill="rgb(30,47,152)" stroke="none" stroke-width="1"/><path id="eUFTeHg3osW38" d="M47.600000,137.590000C47.660000,138.850000,48.270000,139.430000,49.380000,139.430000C50.045745,139.464892,50.666364,139.093311,50.950000,138.490000L52.700000,138.490000C52.307829,140.015483,50.881070,141.042413,49.310000,140.930000C48.294951,140.978983,47.307804,140.589374,46.599822,139.860344C45.891839,139.131314,45.531310,138.133179,45.610000,137.120000C45.557132,136.111622,45.925514,135.126593,46.627093,134.400364C47.328672,133.674135,48.300398,133.271971,49.310000,133.290000C51.770000,133.290000,52.960000,135.370000,52.820000,137.590000ZM50.840000,136.330000C50.650000,135.330000,50.220000,134.790000,49.250000,134.790000C48.825091,134.768253,48.409550,134.919888,48.098512,135.210191C47.787473,135.500494,47.607574,135.904602,47.600000,136.330000Z" fill="rgb(30,47,152)" stroke="none" stroke-width="1"/><path id="eUFTeHg3osW39" d="M54.050000,130.730000L56.050000,130.730000L56.050000,140.730000L54.050000,140.730000Z" fill="rgb(30,47,152)" stroke="none" stroke-width="1"/><path id="eUFTeHg3osW40" d="M59.250000,137.590000C59.250000,138.850000,59.920000,139.430000,61.030000,139.430000C61.695745,139.464892,62.316364,139.093311,62.600000,138.490000L64.350000,138.490000C63.960544,139.999815,62.556492,141.022468,61,140.930000C59.984951,140.978983,58.997804,140.589374,58.289822,139.860344C57.581839,139.131314,57.221310,138.133179,57.300000,137.120000C57.247132,136.111622,57.615514,135.126593,58.317093,134.400364C59.018672,133.674135,59.990398,133.271971,61,133.290000C63.460000,133.290000,64.650000,135.370000,64.510000,137.590000ZM62.480000,136.330000C62.300000,135.330000,61.870000,134.790000,60.900000,134.790000C60.475091,134.768253,60.059550,134.919888,59.748512,135.210191C59.437473,135.500494,59.257574,135.904602,59.250000,136.330000Z" fill="rgb(30,47,152)" stroke="none" stroke-width="1"/><path id="eUFTeHg3osW41" d="M65.640000,133.490000L67.540000,133.490000L67.540000,134.830000L67.540000,134.830000C67.946148,133.907577,68.852250,133.306113,69.860000,133.290000C70.005914,133.292973,70.150677,133.316539,70.290000,133.360000L70.290000,135.210000C70.052755,135.163944,69.811674,135.140505,69.570000,135.140000C68.120000,135.140000,67.570000,136.190000,67.570000,137.470000L67.570000,140.730000L65.570000,140.730000Z" fill="rgb(30,47,152)" stroke="none" stroke-width="1"/><path id="eUFTeHg3osW42" d="M71,135.720000C71.110000,133.850000,72.780000,133.290000,74.400000,133.290000C75.840000,133.290000,77.580000,133.620000,77.580000,135.350000L77.580000,139.120000C77.543673,139.668532,77.629043,140.218313,77.830000,140.730000L75.830000,140.730000C75.752784,140.503830,75.705712,140.268471,75.690000,140.030000C75.032280,140.648330,74.151702,140.973133,73.250000,140.930000C71.880000,140.930000,70.780000,140.240000,70.780000,138.760000C70.780000,137.120000,72.020000,136.760000,73.250000,136.560000C74.480000,136.360000,75.600000,136.420000,75.600000,135.560000C75.600000,134.700000,75.010000,134.560000,74.310000,134.560000C73.610000,134.560000,73.070000,134.870000,73,135.660000ZM75.590000,137.190000C75.076514,137.446789,74.513768,137.590034,73.940000,137.610000C73.320000,137.730000,72.760000,137.940000,72.760000,138.670000C72.760000,139.400000,73.340000,139.600000,73.980000,139.600000C74.429825,139.643717,74.874971,139.479507,75.188645,139.154143C75.502319,138.828779,75.650139,138.377925,75.590000,137.930000Z" fill="rgb(30,47,152)" stroke="none" stroke-width="1"/><path id="eUFTeHg3osW43" d="M81.650000,133.490000L83.100000,133.490000L83.100000,134.820000L81.650000,134.820000L81.650000,138.410000C81.650000,139.080000,81.820000,139.250000,82.490000,139.250000C82.694800,139.249877,82.899101,139.229782,83.100000,139.190000L83.100000,140.750000C82.715410,140.800053,82.327818,140.823442,81.940000,140.820000C80.720000,140.820000,79.660000,140.540000,79.660000,139.090000L79.660000,134.820000L78.450000,134.820000L78.450000,133.490000L79.660000,133.490000L79.660000,131.320000L81.660000,131.320000Z" fill="rgb(30,47,152)" stroke="none" stroke-width="1"/><path id="eUFTeHg3osW44" d="M85.690000,137.590000C85.750000,138.850000,86.370000,139.430000,87.470000,139.430000C88.136437,139.467689,88.758503,139.095242,89.040000,138.490000L90.790000,138.490000C90.397829,140.015483,88.971070,141.042413,87.400000,140.930000C86.384951,140.978983,85.397804,140.589374,84.689822,139.860344C83.981839,139.131314,83.621310,138.133179,83.700000,137.120000C83.647132,136.111622,84.015514,135.126593,84.717093,134.400364C85.418672,133.674135,86.390398,133.271971,87.400000,133.290000C89.870000,133.290000,91.060000,135.370000,90.920000,137.590000ZM88.930000,136.330000C88.750000,135.330000,88.310000,134.790000,87.350000,134.790000C86.924136,134.768286,86.507577,134.919628,86.194967,135.209640C85.882357,135.499651,85.700242,135.903706,85.690000,136.330000Z" fill="rgb(30,47,152)" stroke="none" stroke-width="1"/><path id="eUFTeHg3osW45" d="M97.260000,139.810000L97.260000,139.810000C96.788067,140.559100,95.943390,140.989117,95.060000,140.930000C92.880000,140.930000,91.810000,139.050000,91.810000,137.050000C91.810000,135.050000,92.890000,133.290000,95.020000,133.290000C95.871084,133.260365,96.678285,133.667738,97.160000,134.370000L97.160000,134.370000L97.160000,130.730000L99.160000,130.730000L99.160000,140.730000L97.260000,140.730000ZM95.520000,134.810000C94.220000,134.810000,93.770000,135.930000,93.770000,137.120000C93.770000,138.310000,94.290000,139.450000,95.520000,139.450000C96.750000,139.450000,97.230000,138.300000,97.230000,137.110000C97.230000,135.920000,96.810000,134.790000,95.520000,134.790000Z" fill="rgb(30,47,152)" stroke="none" stroke-width="1"/><path id="eUFTeHg3osW46" d="M107.060000,133.490000L108.510000,133.490000L108.510000,134.820000L107.060000,134.820000L107.060000,138.410000C107.060000,139.080000,107.230000,139.250000,107.900000,139.250000C108.104800,139.249877,108.309101,139.229782,108.510000,139.190000L108.510000,140.750000C108.125410,140.800053,107.737818,140.823442,107.350000,140.820000C106.130000,140.820000,105.070000,140.540000,105.070000,139.090000L105.070000,134.820000L103.860000,134.820000L103.860000,133.490000L105.070000,133.490000L105.070000,131.320000L107.070000,131.320000Z" fill="rgb(30,47,152)" stroke="none" stroke-width="1"/><path id="eUFTeHg3osW47" d="M109.460000,130.730000L111.460000,130.730000L111.460000,134.500000L111.460000,134.500000C111.913265,133.765603,112.707227,133.310298,113.570000,133.290000C115.690000,133.290000,116.220000,134.480000,116.220000,136.290000L116.220000,140.740000L114.220000,140.740000L114.220000,136.650000C114.220000,135.460000,113.870000,134.870000,112.940000,134.870000C112.010000,134.870000,111.400000,135.470000,111.400000,136.950000L111.400000,140.740000L109.400000,140.740000Z" fill="rgb(30,47,152)" stroke="none" stroke-width="1"/><path id="eUFTeHg3osW48" d="M119.410000,137.590000C119.410000,138.850000,120.080000,139.430000,121.180000,139.430000C121.846437,139.467689,122.468503,139.095242,122.750000,138.490000L124.500000,138.490000C124.107829,140.015483,122.681070,141.042413,121.110000,140.930000C120.095716,140.979323,119.109319,140.589452,118.402844,139.860002C117.696369,139.130552,117.338253,138.132187,117.420000,137.120000C117.367270,136.113386,117.734315,135.129974,118.433684,134.404071C119.133053,133.678168,120.102121,133.274774,121.110000,133.290000C123.580000,133.290000,124.770000,135.370000,124.630000,137.590000ZM122.640000,136.330000C122.460000,135.330000,122.020000,134.790000,121.060000,134.790000C120.634354,134.765376,120.217177,134.916038,119.905487,135.206950C119.593796,135.497861,119.414754,135.903669,119.410000,136.330000Z" fill="rgb(30,47,152)" stroke="none" stroke-width="1"/><path id="eUFTeHg3osW49" d="M127.850000,132.370000L125.850000,132.370000L125.850000,130.730000L127.850000,130.730000ZM125.850000,133.490000L127.850000,133.490000L127.850000,140.730000L125.850000,140.730000Z" fill="rgb(30,47,152)" stroke="none" stroke-width="1"/><path id="eUFTeHg3osW50" d="M129.410000,133.490000L131.300000,133.490000L131.300000,134.830000L131.300000,134.830000C131.702643,133.909147,132.605119,133.307496,133.610000,133.290000C133.759191,133.292958,133.907257,133.316514,134.050000,133.360000L134.050000,135.210000C133.812755,135.163944,133.571674,135.140505,133.330000,135.140000C131.880000,135.140000,131.330000,136.190000,131.330000,137.470000L131.330000,140.730000L129.330000,140.730000Z" fill="rgb(30,47,152)" stroke="none" stroke-width="1"/><path id="eUFTeHg3osW51" d="M143.920000,139.810000L143.920000,139.810000C143.448067,140.559100,142.603390,140.989117,141.720000,140.930000C139.540000,140.930000,138.470000,139.050000,138.470000,137.050000C138.470000,135.050000,139.550000,133.290000,141.680000,133.290000C142.531501,133.258462,143.339568,133.666272,143.820000,134.370000L143.820000,134.370000L143.820000,130.730000L145.820000,130.730000L145.820000,140.730000L143.930000,140.730000ZM142.180000,134.810000C140.880000,134.810000,140.430000,135.930000,140.430000,137.120000C140.430000,138.310000,140.950000,139.450000,142.180000,139.450000C143.410000,139.450000,143.890000,138.300000,143.890000,137.110000C143.890000,135.920000,143.470000,134.790000,142.180000,134.790000Z" fill="rgb(30,47,152)" stroke="none" stroke-width="1"/><path id="eUFTeHg3osW52" d="M149.350000,132.370000L147.350000,132.370000L147.350000,130.730000L149.350000,130.730000ZM147.350000,133.490000L149.350000,133.490000L149.350000,140.730000L147.350000,140.730000Z" fill="rgb(30,47,152)" stroke="none" stroke-width="1"/><path id="eUFTeHg3osW53" d="M157.880000,140.270000C157.880000,141.460000,157.460000,143.480000,154.120000,143.480000C152.700000,143.480000,151.030000,142.800000,150.930000,141.150000L152.930000,141.150000C153.100797,141.808699,153.735143,142.237311,154.410000,142.150000C155.520000,142.150000,156.020000,141.390000,156.010000,140.350000L156.010000,139.400000L156.010000,139.400000C155.540403,140.136066,154.712016,140.563621,153.840000,140.520000C151.670000,140.520000,150.740000,138.870000,150.740000,136.880000C150.740000,134.890000,151.820000,133.290000,153.850000,133.290000C154.737606,133.220490,155.583314,133.678582,156.010000,134.460000L156.010000,134.460000L156.010000,133.460000L157.900000,133.460000ZM156,137C156,135.820000,155.590000,134.770000,154.300000,134.770000C153.180000,134.770000,152.690000,135.770000,152.690000,136.830000C152.690000,137.890000,153.080000,139,154.300000,139C154.798758,138.981438,155.266810,138.754332,155.590054,138.374046C155.913297,137.993759,156.062032,137.495233,156,137Z" fill="rgb(30,47,152)" stroke="none" stroke-width="1"/><path id="eUFTeHg3osW54" d="M161.520000,132.370000L159.520000,132.370000L159.520000,130.730000L161.520000,130.730000ZM159.520000,133.490000L161.520000,133.490000L161.520000,140.730000L159.520000,140.730000Z" fill="rgb(30,47,152)" stroke="none" stroke-width="1"/><path id="eUFTeHg3osW55" d="M165.600000,133.490000L167.060000,133.490000L167.060000,134.820000L165.600000,134.820000L165.600000,138.410000C165.600000,139.080000,165.770000,139.250000,166.450000,139.250000C166.654800,139.249877,166.859101,139.229782,167.060000,139.190000L167.060000,140.750000C166.675410,140.800053,166.287818,140.823442,165.900000,140.820000C164.680000,140.820000,163.620000,140.540000,163.620000,139.090000L163.620000,134.820000L162.410000,134.820000L162.410000,133.490000L163.620000,133.490000L163.620000,131.320000L165.620000,131.320000Z" fill="rgb(30,47,152)" stroke="none" stroke-width="1"/><path id="eUFTeHg3osW56" d="M167.930000,135.720000C168.040000,133.850000,169.710000,133.290000,171.330000,133.290000C172.770000,133.290000,174.510000,133.620000,174.510000,135.350000L174.510000,139.120000C174.473673,139.668532,174.559043,140.218313,174.760000,140.730000L172.760000,140.730000C172.682784,140.503830,172.635712,140.268471,172.620000,140.030000C171.962280,140.648330,171.081702,140.973133,170.180000,140.930000C168.810000,140.930000,167.710000,140.240000,167.710000,138.760000C167.710000,137.120000,168.950000,136.760000,170.180000,136.560000C171.410000,136.360000,172.530000,136.420000,172.530000,135.560000C172.530000,134.700000,171.940000,134.560000,171.240000,134.560000C170.540000,134.560000,170,134.870000,169.930000,135.660000ZM172.520000,137.190000C172.007299,137.448889,171.444083,137.592253,170.870000,137.610000C170.250000,137.730000,169.690000,137.940000,169.690000,138.670000C169.690000,139.400000,170.270000,139.600000,170.910000,139.600000C171.359825,139.643717,171.804971,139.479507,172.118645,139.154143C172.432319,138.828779,172.580139,138.377925,172.520000,137.930000Z" fill="rgb(30,47,152)" stroke="none" stroke-width="1"/><path id="eUFTeHg3osW57" d="M176.100000,130.730000L178.100000,130.730000L178.100000,140.730000L176.100000,140.730000Z" fill="rgb(30,47,152)" stroke="none" stroke-width="1"/><path id="eUFTeHg3osW58" d="M33.820000,147.670000L35.270000,147.670000L35.270000,149L33.820000,149L33.820000,152.580000C33.820000,153.260000,33.990000,153.420000,34.660000,153.420000C34.862851,153.439797,35.067149,153.439797,35.270000,153.420000L35.270000,154.970000C34.885900,155.025036,34.497931,155.048448,34.110000,155.040000C32.890000,155.040000,31.830000,154.760000,31.830000,153.320000L31.830000,149L30.620000,149L30.620000,147.670000L31.830000,147.670000L31.830000,145.500000L33.830000,145.500000Z" fill="rgb(30,47,152)" stroke="none" stroke-width="1"/><path id="eUFTeHg3osW59" d="M36.220000,147.670000L38.120000,147.670000L38.120000,149L38.120000,149C38.522643,148.079147,39.425119,147.477496,40.430000,147.460000C40.579191,147.462958,40.727257,147.486514,40.870000,147.530000L40.870000,149.380000C40.632755,149.333944,40.391674,149.310505,40.150000,149.310000C38.700000,149.310000,38.150000,150.360000,38.150000,151.640000L38.150000,154.900000L36.150000,154.900000Z" fill="rgb(30,47,152)" stroke="none" stroke-width="1"/><path id="eUFTeHg3osW60" d="M41.590000,149.890000C41.700000,148.030000,43.360000,147.470000,44.990000,147.470000C46.430000,147.470000,48.170000,147.790000,48.170000,149.530000L48.170000,153.300000C48.133673,153.848532,48.219043,154.398313,48.420000,154.910000L46.420000,154.910000C46.347533,154.682577,46.300578,154.447801,46.280000,154.210000C45.626596,154.828779,44.748832,155.153877,43.850000,155.110000C42.470000,155.110000,41.380000,154.420000,41.380000,152.930000C41.380000,151.290000,42.610000,150.930000,43.850000,150.740000C45.090000,150.550000,46.200000,150.590000,46.200000,149.740000C46.200000,148.890000,45.610000,148.740000,44.910000,148.740000C44.210000,148.740000,43.670000,149.050000,43.600000,149.830000ZM46.180000,151.370000C45.664639,151.621718,45.102990,151.764683,44.530000,151.790000C43.910000,151.910000,43.350000,152.120000,43.350000,152.850000C43.350000,153.580000,43.930000,153.770000,44.570000,153.770000C45.017848,153.813119,45.460993,153.650176,45.774233,153.327208C46.087473,153.004240,46.236791,152.556321,46.180000,152.110000Z" fill="rgb(30,47,152)" stroke="none" stroke-width="1"/><path id="eUFTeHg3osW61" d="M49.710000,147.670000L51.600000,147.670000L51.600000,148.670000L51.600000,148.670000C52.073462,147.906976,52.912101,147.447813,53.810000,147.460000C55.930000,147.460000,56.460000,148.650000,56.460000,150.460000L56.460000,154.910000L54.460000,154.910000L54.460000,150.820000C54.460000,149.630000,54.110000,149.040000,53.190000,149.040000C52.110000,149.040000,51.650000,149.640000,51.650000,151.110000L51.650000,154.910000L49.650000,154.910000Z" fill="rgb(30,47,152)" stroke="none" stroke-width="1"/><path id="eUFTeHg3osW62" d="M59.550000,152.560000C59.550000,153.420000,60.290000,153.770000,61.080000,153.770000C61.650000,153.770000,62.380000,153.550000,62.380000,152.850000C62.380000,152.150000,61.550000,152.040000,60.120000,151.730000C58.970000,151.480000,57.830000,151.070000,57.830000,149.800000C57.830000,147.950000,59.420000,147.470000,60.980000,147.470000C62.540000,147.470000,63.980000,148,64.170000,149.780000L62.280000,149.780000C62.220000,149.010000,61.640000,148.780000,60.920000,148.780000C60.470000,148.780000,59.810000,148.870000,59.810000,149.450000C59.810000,150.030000,60.940000,150.270000,62.070000,150.530000C63.200000,150.790000,64.370000,151.220000,64.370000,152.530000C64.370000,154.440000,62.710000,155.060000,61.060000,155.060000C59.410000,155.060000,57.740000,154.420000,57.660000,152.510000Z" fill="rgb(30,47,152)" stroke="none" stroke-width="1"/><path id="eUFTeHg3osW63" d="M66,149L64.770000,149L64.770000,147.670000L66,147.670000L66,147.110000C65.973285,146.478994,66.227976,145.868671,66.695301,145.443831C67.162625,145.018990,67.794388,144.823446,68.420000,144.910000C68.770000,144.910000,69.140000,144.910000,69.470000,144.960000L69.470000,146.450000C69.230250,146.434500,68.989750,146.434500,68.750000,146.450000C68.210000,146.450000,67.990000,146.670000,67.990000,147.270000L67.990000,147.710000L69.360000,147.710000L69.360000,149L68,149L68,154.910000L66,154.910000Z" fill="rgb(30,47,152)" stroke="none" stroke-width="1"/><path id="eUFTeHg3osW64" d="M73.700000,147.470000C75.255035,147.421127,76.684348,148.320215,77.313605,149.743084C77.942862,151.165953,77.646327,152.828290,76.563902,153.945821C75.481476,155.063352,73.829447,155.412776,72.387225,154.829238C70.945003,154.245701,70.000768,152.845802,70,151.290000C69.921607,150.275986,70.281887,149.277048,70.989477,148.546509C71.697067,147.815971,72.684001,147.424001,73.700000,147.470000ZM73.700000,153.610000C75.060000,153.610000,75.470000,152.440000,75.470000,151.290000C75.470000,150.140000,75.060000,149,73.700000,149C72.340000,149,72,150.130000,72,151.290000C72,152.450000,72.360000,153.610000,73.700000,153.610000Z" fill="rgb(30,47,152)" stroke="none" stroke-width="1"/><path id="eUFTeHg3osW65" d="M78.740000,147.670000L80.630000,147.670000L80.630000,149L80.630000,149C81.040289,148.059677,81.974149,147.456806,83,147.470000C83.149191,147.472958,83.297257,147.496514,83.440000,147.540000L83.440000,149.390000C83.202679,149.344468,82.961647,149.321034,82.720000,149.320000C81.260000,149.320000,80.720000,150.370000,80.720000,151.650000L80.720000,154.910000L78.720000,154.910000Z" fill="rgb(30,47,152)" stroke="none" stroke-width="1"/><path id="eUFTeHg3osW66" d="M84.240000,147.670000L86.120000,147.670000L86.120000,148.670000L86.120000,148.670000C86.608695,147.927124,87.440823,147.482820,88.330000,147.490000C89.218677,147.417097,90.060819,147.897753,90.450000,148.700000C90.925883,147.954595,91.745691,147.499563,92.630000,147.490000C93.347395,147.393102,94.069413,147.632248,94.587121,148.138235C95.104830,148.644222,95.360446,149.360574,95.280000,150.080000L95.280000,154.930000L93.280000,154.930000L93.280000,150.800000C93.280000,149.800000,93.200000,149.040000,92.060000,149.040000C90.920000,149.040000,90.730000,149.960000,90.730000,150.880000L90.730000,154.880000L88.730000,154.880000L88.730000,150.820000C88.730000,149.980000,88.790000,149.010000,87.530000,149.010000C87.140000,149.010000,86.180000,149.260000,86.180000,150.680000L86.180000,154.880000L84.180000,154.880000Z" fill="rgb(30,47,152)" stroke="none" stroke-width="1"/><path id="eUFTeHg3osW67" d="M96.790000,149.890000C96.900000,148.030000,98.570000,147.470000,100.190000,147.470000C101.630000,147.470000,103.370000,147.790000,103.370000,149.530000L103.370000,153.300000C103.333673,153.848532,103.419043,154.398313,103.620000,154.910000L101.620000,154.910000C101.542784,154.683830,101.495712,154.448471,101.480000,154.210000C100.822280,154.828330,99.941702,155.153133,99.040000,155.110000C97.670000,155.110000,96.570000,154.420000,96.570000,152.930000C96.570000,151.290000,97.810000,150.930000,99.040000,150.740000C100.270000,150.550000,101.390000,150.590000,101.390000,149.740000C101.390000,148.890000,100.800000,148.740000,100.100000,148.740000C99.400000,148.740000,98.860000,149.050000,98.790000,149.830000ZM101.380000,151.370000C100.865039,151.622806,100.303159,151.765830,99.730000,151.790000C99.110000,151.910000,98.550000,152.120000,98.550000,152.850000C98.550000,153.580000,99.130000,153.770000,99.770000,153.770000C100.218830,153.817094,100.664420,153.655414,100.978617,153.331459C101.292813,153.007505,101.440794,152.557180,101.380000,152.110000Z" fill="rgb(30,47,152)" stroke="none" stroke-width="1"/><path id="eUFTeHg3osW68" d="M107.430000,147.670000L108.880000,147.670000L108.880000,149L107.430000,149L107.430000,152.580000C107.430000,153.260000,107.600000,153.420000,108.270000,153.420000C108.472851,153.439797,108.677149,153.439797,108.880000,153.420000L108.880000,154.970000C108.495900,155.025036,108.107931,155.048448,107.720000,155.040000C106.500000,155.040000,105.440000,154.760000,105.440000,153.320000L105.440000,149L104.230000,149L104.230000,147.670000L105.440000,147.670000L105.440000,145.500000L107.440000,145.500000Z" fill="rgb(30,47,152)" stroke="none" stroke-width="1"/><path id="eUFTeHg3osW69" d="M111.880000,146.550000L109.880000,146.550000L109.880000,144.910000L111.880000,144.910000ZM109.880000,147.670000L111.880000,147.670000L111.880000,154.910000L109.880000,154.910000Z" fill="rgb(30,47,152)" stroke="none" stroke-width="1"/><path id="eUFTeHg3osW70" d="M117,147.470000C118.551913,147.437492,119.969187,148.347312,120.585739,149.771865C121.202292,151.196419,120.895511,152.852415,119.809579,153.961577C118.723646,155.070738,117.074512,155.412493,115.637230,154.826225C114.199948,154.239957,113.260340,152.842253,113.260000,151.290000C113.180448,150.268682,113.545967,149.262787,114.262629,148.530794C114.979292,147.798802,115.977228,147.412079,117,147.470000ZM117,153.610000C118.360000,153.610000,118.770000,152.440000,118.770000,151.290000C118.770000,150.140000,118.320000,149,117,149C115.680000,149,115.250000,150.160000,115.250000,151.320000C115.250000,152.480000,115.620000,153.610000,117,153.610000Z" fill="rgb(30,47,152)" stroke="none" stroke-width="1"/><path id="eUFTeHg3osW71" d="M122,147.670000L123.890000,147.670000L123.890000,148.670000L123.890000,148.670000C124.369497,147.908338,125.210027,147.450211,126.110000,147.460000C128.220000,147.460000,128.750000,148.650000,128.750000,150.460000L128.750000,154.910000L126.750000,154.910000L126.750000,150.820000C126.750000,149.630000,126.410000,149.040000,125.480000,149.040000C124.400000,149.040000,123.940000,149.640000,123.940000,151.110000L123.940000,154.910000L121.940000,154.910000Z" fill="rgb(30,47,152)" stroke="none" stroke-width="1"/><path id="eUFTeHg3osW72" d="M134.200000,147.670000L136.090000,147.670000L136.090000,148.590000L136.090000,148.590000C136.557790,147.857134,137.381482,147.430034,138.250000,147.470000C140.520000,147.470000,141.540000,149.310000,141.540000,151.370000C141.540000,153.430000,140.480000,155.110000,138.360000,155.110000C137.497519,155.132427,136.681758,154.718907,136.190000,154.010000L136.190000,154.010000L136.190000,157.460000L134.190000,157.460000ZM139.570000,151.310000C139.570000,150.160000,139.110000,148.970000,137.840000,148.970000C136.570000,148.970000,136.110000,150.130000,136.110000,151.310000C136.110000,152.490000,136.560000,153.610000,137.850000,153.610000C139.140000,153.610000,139.570000,152.490000,139.570000,151.310000Z" fill="rgb(30,47,152)" stroke="none" stroke-width="1"/><path id="eUFTeHg3osW73" d="M142.800000,144.910000L144.800000,144.910000L144.800000,154.910000L142.800000,154.910000Z" fill="rgb(30,47,152)" stroke="none" stroke-width="1"/><path id="eUFTeHg3osW74" d="M146.280000,149.890000C146.390000,148.030000,148.060000,147.470000,149.680000,147.470000C151.120000,147.470000,152.860000,147.790000,152.860000,149.530000L152.860000,153.300000C152.823673,153.848532,152.909043,154.398313,153.110000,154.910000L151.110000,154.910000C151.032784,154.683830,150.985712,154.448471,150.970000,154.210000C150.312280,154.828330,149.431702,155.153133,148.530000,155.110000C147.160000,155.110000,146.060000,154.420000,146.060000,152.930000C146.060000,151.290000,147.300000,150.930000,148.530000,150.740000C149.760000,150.550000,150.880000,150.590000,150.880000,149.740000C150.880000,148.890000,150.290000,148.740000,149.590000,148.740000C148.890000,148.740000,148.350000,149.050000,148.280000,149.830000ZM150.870000,151.370000C150.355039,151.622806,149.793159,151.765830,149.220000,151.790000C148.600000,151.910000,148.040000,152.120000,148.040000,152.850000C148.040000,153.580000,148.620000,153.770000,149.260000,153.770000C149.708830,153.817094,150.154420,153.655414,150.468617,153.331459C150.782813,153.007505,150.930794,152.557180,150.870000,152.110000Z" fill="rgb(30,47,152)" stroke="none" stroke-width="1"/><path id="eUFTeHg3osW75" d="M154.400000,147.670000L156.290000,147.670000L156.290000,148.670000L156.290000,148.670000C156.763462,147.906976,157.602101,147.447813,158.500000,147.460000C160.620000,147.460000,161.150000,148.650000,161.150000,150.460000L161.150000,154.910000L159.150000,154.910000L159.150000,150.820000C159.150000,149.630000,158.800000,149.040000,157.880000,149.040000C156.800000,149.040000,156.330000,149.640000,156.330000,151.110000L156.330000,154.910000L154.330000,154.910000Z" fill="rgb(30,47,152)" stroke="none" stroke-width="1"/><path id="eUFTeHg3osW76" d="M164.240000,152.560000C164.240000,153.420000,164.980000,153.770000,165.770000,153.770000C166.340000,153.770000,167.070000,153.550000,167.070000,152.850000C167.070000,152.150000,166.240000,152.040000,164.810000,151.730000C163.660000,151.480000,162.520000,151.070000,162.520000,149.800000C162.520000,147.950000,164.110000,147.470000,165.670000,147.470000C167.230000,147.470000,168.670000,148,168.860000,149.780000L167,149.780000C166.940000,149.010000,166.360000,148.780000,165.640000,148.780000C165.190000,148.780000,164.530000,148.870000,164.530000,149.450000C164.530000,150.030000,165.650000,150.270000,166.790000,150.530000C167.930000,150.790000,169.090000,151.220000,169.090000,152.530000C169.090000,154.440000,167.430000,155.060000,165.780000,155.060000C164.130000,155.060000,162.460000,154.420000,162.380000,152.510000Z" fill="rgb(30,47,152)" stroke="none" stroke-width="1"/></g><g id="eUFTeHg3osW77"><path id="eUFTeHg3osW78" d="M36,89.320000C36.650000,92.710000,39.240000,95.590000,42.780000,95.590000C50.200000,95.590000,52.140000,85.860000,52.430000,80.240000L52.290000,80.090000C49.480000,84.090000,45.800000,85.720000,40.900000,85.720000C36.485519,85.652595,32.292145,83.776421,29.300000,80.530000C26.717247,77.356064,25.339437,73.371394,25.410000,69.280000C25.410000,58.980000,32.540000,50.830000,43.060000,50.830000C58.340000,50.830000,62.450000,64.170000,62.450000,76.920000C62.450000,89.250000,56.970000,103.300000,42.630000,103.300000C33.910000,103.300000,27.430000,98.180000,26.270000,89.300000ZM51.500000,68.640000C51.500000,63.950000,48.500000,59.270000,43.350000,59.270000C38.450000,59.270000,35.640000,63.950000,35.640000,68.490000C35.640000,73.250000,38.090000,78,43.350000,78C48.840000,78,51.510000,73.610000,51.510000,68.640000Z" transform="matrix(1 0 0 1 0 -16)" fill="none" stroke="rgb(30,47,152)" stroke-width="1"/><path id="eUFTeHg3osW79" d="M66.640000,71.230000C66.280000,59.700000,72.830000,50.830000,84.940000,50.830000C94.170000,50.830000,102.240000,56.740000,102.240000,66.620000C102.240000,74.180000,98.240000,78.360000,93.240000,81.900000C88.240000,85.440000,82.350000,88.310000,78.670000,93.500000L102.530000,93.500000L102.530000,102.290000L65.530000,102.290000C65.610000,90.620000,72.740000,85.640000,81.460000,79.730000C85.930000,76.730000,91.980000,73.610000,92.050000,67.410000C92.050000,62.650000,88.880000,59.630000,84.490000,59.630000C78.430000,59.630000,76.490000,65.900000,76.490000,71.230000Z" transform="matrix(1 0 0 1 0 -16)" fill="none" stroke="rgb(30,47,152)" stroke-width="1"/><path id="eUFTeHg3osW80" d="M121.690000,50.830000C130.630000,50.830000,133.510000,57.470000,133.510000,65.390000C133.510000,73.310000,129.760000,78.940000,121.330000,78.940000C112.470000,78.940000,109.440000,73.030000,109.440000,65.100000C109.440000,57.170000,113.260000,50.830000,121.690000,50.830000ZM121.400000,73.540000C125.870000,73.540000,126.160000,68.350000,126.160000,65.320000C126.160000,62.510000,125.940000,56.240000,121.690000,56.240000C117.080000,56.240000,116.790000,61.930000,116.790000,65.240000C116.790000,68.350000,116.790000,73.540000,121.400000,73.540000ZM152.180000,50.260000L158.300000,50.260000L128.610000,103.880000L122.340000,103.880000ZM158.880000,75.190000C167.810000,75.190000,170.700000,81.460000,170.700000,89.390000C170.700000,97.320000,167,103.300000,158.520000,103.300000C149.650000,103.300000,146.630000,97.030000,146.630000,89.100000C146.630000,81.170000,150.450000,75.190000,158.880000,75.190000ZM158.590000,97.900000C163.060000,97.900000,163.350000,92.270000,163.350000,89.250000C163.350000,86.440000,163.130000,80.600000,158.880000,80.600000C154.270000,80.600000,153.980000,85.860000,153.980000,89.170000C154,92.270000,154,97.900000,158.590000,97.900000Z" transform="matrix(1 0 0 1 0 -16)" fill="none" stroke="rgb(30,47,152)" stroke-width="1"/></g><g id="eUFTeHg3osW81" display="none"><path id="eUFTeHg3osW82" d="M31,34.580000L32.610000,34.580000L35.280000,41.720000L33.660000,41.720000L33.120000,40.130000L30.450000,40.130000L29.890000,41.720000L28.300000,41.720000ZM30.860000,39L32.710000,39L31.810000,36.380000L31.810000,36.380000Z" fill="rgb(30,47,152)" stroke="none" stroke-width="1"/><path id="eUFTeHg3osW83" d="M35.800000,36.550000L37.140000,36.550000L37.140000,37.250000L37.140000,37.250000C37.489826,36.719833,38.084852,36.403490,38.720000,36.410000C39.353085,36.355283,39.954093,36.697578,40.230000,37.270000C40.572570,36.739535,41.158569,36.416484,41.790000,36.410000C42.302724,36.338214,42.819748,36.508288,43.189729,36.870439C43.559710,37.232590,43.740804,37.745858,43.680000,38.260000L43.680000,41.720000L42.280000,41.720000L42.280000,38.790000C42.280000,38.100000,42.220000,37.530000,41.410000,37.530000C40.600000,37.530000,40.460000,38.190000,40.460000,38.840000L40.460000,41.720000L39,41.720000L39,38.820000C39,38.220000,39,37.530000,38.140000,37.530000C37.860000,37.530000,37.140000,37.710000,37.140000,38.720000L37.140000,41.720000L35.800000,41.720000Z" fill="rgb(30,47,152)" stroke="none" stroke-width="1"/><path id="eUFTeHg3osW84" d="M47.330000,36.410000C48.439317,36.385614,49.453040,37.035072,49.894561,38.053030C50.336083,39.070987,50.117559,40.254912,49.341730,41.048175C48.565901,41.841439,47.387123,42.086215,46.359607,41.667421C45.332091,41.248627,44.660268,40.249585,44.660000,39.140000C44.604229,38.410874,44.865408,37.693085,45.376707,37.170296C45.888006,36.647507,46.599815,36.370444,47.330000,36.410000ZM47.330000,40.790000C48.330000,40.790000,48.590000,39.960000,48.590000,39.140000C48.590000,38.320000,48.300000,37.480000,47.330000,37.480000C46.360000,37.480000,46.080000,38.310000,46.080000,39.140000C46.080000,39.970000,46.370000,40.790000,47.330000,40.790000Z" fill="rgb(30,47,152)" stroke="none" stroke-width="1"/><path id="eUFTeHg3osW85" d="M50.930000,36.550000L52.280000,36.550000L52.280000,37.270000L52.280000,37.270000C52.621087,36.727875,53.219549,36.402130,53.860000,36.410000C55.370000,36.410000,55.750000,37.260000,55.750000,38.540000L55.750000,41.720000L54.360000,41.720000L54.360000,38.800000C54.360000,37.950000,54.110000,37.530000,53.450000,37.530000C52.790000,37.530000,52.350000,37.960000,52.350000,39.010000L52.350000,41.720000L50.930000,41.720000Z" fill="rgb(30,47,152)" stroke="none" stroke-width="1"/><path id="eUFTeHg3osW86" d="M61.830000,41.390000C61.830000,42.240000,61.530000,43.680000,59.150000,43.680000C58.150000,43.680000,56.940000,43.200000,56.870000,42.020000L58.280000,42.020000C58.416868,42.480596,58.861976,42.778735,59.340000,42.730000C60.130000,42.730000,60.490000,42.190000,60.480000,41.450000L60.480000,40.770000L60.480000,40.770000C60.142516,41.293501,59.552218,41.598171,58.930000,41.570000C57.380000,41.570000,56.720000,40.390000,56.720000,38.970000C56.650049,38.330708,56.849768,37.691195,57.271103,37.205331C57.692438,36.719467,58.297244,36.431240,58.940000,36.410000C59.571981,36.359311,60.174869,36.684245,60.480000,37.240000L60.480000,37.240000L60.480000,36.550000L61.830000,36.550000ZM60.480000,39.070000C60.480000,38.230000,60.190000,37.480000,59.270000,37.480000C58.350000,37.480000,58.120000,38.180000,58.120000,38.950000C58.120000,39.720000,58.400000,40.500000,59.270000,40.500000C59.625937,40.486044,59.959652,40.323248,60.189744,40.051322C60.419836,39.779395,60.525150,39.423338,60.480000,39.070000Z" fill="rgb(30,47,152)" stroke="none" stroke-width="1"/><path id="eUFTeHg3osW87" d="M67.850000,34.580000L69.460000,34.580000L72.130000,41.720000L70.500000,41.720000L70,40.130000L67.290000,40.130000L66.730000,41.720000L65.140000,41.720000ZM67.700000,39L69.550000,39L68.650000,36.380000L68.650000,36.380000Z" fill="rgb(30,47,152)" stroke="none" stroke-width="1"/><path id="eUFTeHg3osW88" d="M73.820000,39.350000C73.820000,40.300000,74.560000,40.670000,75.400000,40.670000C75.950000,40.670000,76.790000,40.510000,76.790000,39.780000C76.790000,39.050000,75.720000,38.880000,74.670000,38.600000C73.620000,38.320000,72.540000,37.910000,72.540000,36.600000C72.540000,35.290000,73.920000,34.440000,75.210000,34.440000C76.700000,34.440000,78.070000,35.090000,78.070000,36.740000L76.550000,36.740000C76.550000,35.880000,75.890000,35.660000,75.140000,35.660000C74.640000,35.660000,74.060000,35.870000,74.060000,36.470000C74.060000,37.070000,74.400000,37.090000,76.190000,37.550000C76.710000,37.680000,78.310000,38.010000,78.310000,39.630000C78.310000,40.940000,77.310000,41.920000,75.310000,41.920000C73.730000,41.920000,72.250000,41.140000,72.310000,39.380000Z" fill="rgb(30,47,152)" stroke="none" stroke-width="1"/><path id="eUFTeHg3osW89" d="M79.240000,34.580000L84.580000,34.580000L84.580000,35.900000L80.810000,35.900000L80.810000,37.430000L84.270000,37.430000L84.270000,38.650000L80.810000,38.650000L80.810000,40.400000L84.660000,40.400000L84.660000,41.720000L79.240000,41.720000Z" fill="rgb(30,47,152)" stroke="none" stroke-width="1"/><path id="eUFTeHg3osW90" d="M87.670000,34.580000L89.280000,34.580000L92,41.720000L90.320000,41.720000L89.780000,40.130000L87.110000,40.130000L86.550000,41.720000L85,41.720000ZM87.520000,39L89.370000,39L88.470000,36.380000L88.470000,36.380000Z" fill="rgb(30,47,152)" stroke="none" stroke-width="1"/><path id="eUFTeHg3osW91" d="M92.570000,34.580000L94.130000,34.580000L97.130000,39.370000L97.130000,39.370000L97.130000,34.580000L98.600000,34.580000L98.600000,41.720000L97,41.720000L94,36.940000L94,36.940000L94,41.720000L92.570000,41.720000Z" fill="rgb(30,47,152)" stroke="none" stroke-width="1"/><path id="eUFTeHg3osW92" d="M102.650000,36.550000L104,36.550000L104,37.250000L104,37.250000C104.349826,36.719833,104.944852,36.403490,105.580000,36.410000C106.213085,36.355283,106.814093,36.697578,107.090000,37.270000C107.432570,36.739535,108.018569,36.416484,108.650000,36.410000C109.162724,36.338214,109.679748,36.508288,110.049729,36.870439C110.419710,37.232590,110.600804,37.745858,110.540000,38.260000L110.540000,41.720000L109.120000,41.720000L109.120000,38.790000C109.120000,38.100000,109.060000,37.530000,108.250000,37.530000C107.440000,37.530000,107.250000,38.190000,107.250000,38.840000L107.250000,41.720000L105.830000,41.720000L105.830000,38.820000C105.830000,38.220000,105.830000,37.530000,104.970000,37.530000C104.690000,37.530000,103.970000,37.710000,103.970000,38.720000L103.970000,41.720000L102.550000,41.720000Z" fill="rgb(30,47,152)" stroke="none" stroke-width="1"/><path id="eUFTeHg3osW93" d="M111.610000,38.140000C111.690000,36.810000,112.880000,36.410000,114.040000,36.410000C115.200000,36.410000,116.310000,36.640000,116.310000,37.880000L116.310000,40.570000C116.284029,40.961936,116.345512,41.354744,116.490000,41.720000L115.050000,41.720000C114.996577,41.557989,114.962998,41.390096,114.950000,41.220000C114.480965,41.660751,113.852842,41.891785,113.210000,41.860000C112.210000,41.860000,111.450000,41.370000,111.450000,40.310000C111.450000,39.250000,112.330000,38.860000,113.210000,38.740000C114.090000,38.620000,114.890000,38.640000,114.890000,38.060000C114.890000,37.480000,114.470000,37.360000,113.970000,37.360000C113.470000,37.360000,113.080000,37.580000,113.030000,38.140000ZM114.890000,39.140000C114.523204,39.324731,114.120486,39.427117,113.710000,39.440000C113.270000,39.530000,112.870000,39.680000,112.870000,40.200000C112.870000,40.720000,113.280000,40.860000,113.740000,40.860000C114.060456,40.889932,114.377154,40.772646,114.600814,40.541207C114.824474,40.309768,114.930867,39.989246,114.890000,39.670000Z" fill="rgb(30,47,152)" stroke="none" stroke-width="1"/><path id="eUFTeHg3osW94" d="M117.410000,36.550000L118.760000,36.550000L118.760000,37.270000L118.760000,37.270000C119.101087,36.727875,119.699549,36.402130,120.340000,36.410000C121.850000,36.410000,122.230000,37.260000,122.230000,38.540000L122.230000,41.720000L120.810000,41.720000L120.810000,38.800000C120.810000,37.950000,120.560000,37.530000,119.900000,37.530000C119.240000,37.530000,118.800000,37.960000,118.800000,39.010000L118.800000,41.720000L117.380000,41.720000Z" fill="rgb(30,47,152)" stroke="none" stroke-width="1"/><path id="eUFTeHg3osW95" d="M128.190000,41.720000L126.840000,41.720000L126.840000,41L126.840000,41C126.498913,41.542125,125.900451,41.867870,125.260000,41.860000C123.750000,41.860000,123.370000,41.010000,123.370000,39.730000L123.370000,36.550000L124.790000,36.550000L124.790000,39.470000C124.790000,40.320000,125.040000,40.740000,125.700000,40.740000C126.360000,40.740000,126.800000,40.310000,126.800000,39.260000L126.800000,36.550000L128.220000,36.550000Z" fill="rgb(30,47,152)" stroke="none" stroke-width="1"/><path id="eUFTeHg3osW96" d="M129.580000,37.500000L128.730000,37.500000L128.730000,36.500000L129.580000,36.500000L129.580000,36.100000C129.560768,35.649086,129.742914,35.212944,130.077129,34.909639C130.411344,34.606334,130.863061,34.467236,131.310000,34.530000C131.560000,34.530000,131.820000,34.530000,132.060000,34.530000L132.060000,35.590000C131.886818,35.579772,131.713182,35.579772,131.540000,35.590000C131.160000,35.590000,131,35.750000,131,36.180000L131,36.490000L132,36.490000L132,37.490000L131,37.490000L131,41.710000L129.580000,41.710000Z" fill="rgb(30,47,152)" stroke="none" stroke-width="1"/><path id="eUFTeHg3osW97" d="M132.540000,38.140000C132.620000,36.810000,133.810000,36.410000,134.970000,36.410000C136.130000,36.410000,137.240000,36.640000,137.240000,37.880000L137.240000,40.570000C137.214029,40.961936,137.275512,41.354744,137.420000,41.720000L136,41.720000C135.946577,41.557989,135.912998,41.390096,135.900000,41.220000C135.430965,41.660751,134.802842,41.891785,134.160000,41.860000C133.160000,41.860000,132.400000,41.370000,132.400000,40.310000C132.400000,39.250000,133.280000,38.860000,134.160000,38.740000C135.040000,38.620000,135.840000,38.640000,135.840000,38.060000C135.840000,37.480000,135.420000,37.360000,134.920000,37.360000C134.420000,37.360000,134.030000,37.580000,133.980000,38.140000ZM135.820000,39.140000C135.453204,39.324731,135.050486,39.427117,134.640000,39.440000C134.200000,39.530000,133.800000,39.680000,133.800000,40.200000C133.800000,40.720000,134.210000,40.860000,134.670000,40.860000C134.990456,40.889932,135.307154,40.772646,135.530814,40.541207C135.754474,40.309768,135.860867,39.989246,135.820000,39.670000Z" fill="rgb(30,47,152)" stroke="none" stroke-width="1"/><path id="eUFTeHg3osW98" d="M141.860000,38.370000C141.802333,37.841331,141.340974,37.450274,140.810000,37.480000C139.900000,37.480000,139.600000,38.400000,139.600000,39.160000C139.600000,39.920000,139.890000,40.790000,140.780000,40.790000C141.363804,40.813398,141.862226,40.372316,141.910000,39.790000L143.280000,39.790000C143.231558,40.401571,142.941831,40.968753,142.474715,41.366458C142.007600,41.764163,141.401468,41.959720,140.790000,41.910000C140.082136,41.939363,139.394830,41.668208,138.897688,41.163447C138.400546,40.658686,138.139875,39.967335,138.180000,39.260000C138.110444,38.526370,138.360406,37.798349,138.865942,37.262174C139.371478,36.725999,140.083551,36.433681,140.820000,36.460000C141.408863,36.395928,141.998683,36.572020,142.456036,36.948442C142.913388,37.324864,143.199627,37.869808,143.250000,38.460000Z" fill="rgb(30,47,152)" stroke="none" stroke-width="1"/><path id="eUFTeHg3osW99" d="M145.880000,36.550000L146.880000,36.550000L146.880000,37.550000L145.880000,37.550000L145.880000,40.110000C145.880000,40.590000,146,40.710000,146.480000,40.710000C146.626291,40.724839,146.773709,40.724839,146.920000,40.710000L146.920000,41.820000C146.645010,41.857779,146.367536,41.874494,146.090000,41.870000C145.220000,41.870000,144.460000,41.670000,144.460000,40.640000L144.460000,37.640000L143.600000,37.640000L143.600000,36.640000L144.460000,36.640000L144.460000,35L145.880000,35Z" fill="rgb(30,47,152)" stroke="none" stroke-width="1"/><path id="eUFTeHg3osW100" d="M152.450000,41.720000L151.100000,41.720000L151.100000,41L151.100000,41C150.758913,41.542125,150.160451,41.867870,149.520000,41.860000C148.010000,41.860000,147.630000,41.010000,147.630000,39.730000L147.630000,36.550000L149,36.550000L149,39.470000C149,40.320000,149.250000,40.740000,149.910000,40.740000C150.570000,40.740000,151.010000,40.310000,151.010000,39.260000L151.010000,36.550000L152.430000,36.550000Z" fill="rgb(30,47,152)" stroke="none" stroke-width="1"/><path id="eUFTeHg3osW101" d="M153.530000,36.550000L154.880000,36.550000L154.880000,37.550000L154.880000,37.550000C155.166451,36.891284,155.811781,36.461064,156.530000,36.450000C156.635243,36.451184,156.739722,36.468036,156.840000,36.500000L156.840000,37.820000C156.672071,37.786515,156.501235,37.769767,156.330000,37.770000C155.330000,37.770000,154.930000,38.520000,154.930000,39.430000L154.930000,41.760000L153.510000,41.760000Z" fill="rgb(30,47,152)" stroke="none" stroke-width="1"/><path id="eUFTeHg3osW102" d="M158.410000,39.480000C158.410000,40.380000,158.890000,40.790000,159.680000,40.790000C160.154787,40.814974,160.597475,40.550152,160.800000,40.120000L162.050000,40.120000C161.768318,41.207580,160.750665,41.939281,159.630000,41.860000C158.907550,41.890672,158.206502,41.610751,157.703865,41.090913C157.201228,40.571076,156.945045,39.861009,157,39.140000C156.960890,38.420397,157.223368,37.717036,157.724344,37.198981C158.225320,36.680926,158.919490,36.395026,159.640000,36.410000C161.400000,36.410000,162.250000,37.890000,162.150000,39.480000ZM160.720000,38.580000C160.590000,37.860000,160.280000,37.480000,159.590000,37.480000C159.286148,37.463658,158.988726,37.571651,158.766148,37.779140C158.543569,37.986629,158.414995,38.275750,158.410000,38.580000Z" fill="rgb(30,47,152)" stroke="none" stroke-width="1"/><path id="eUFTeHg3osW103" d="M163,36.550000L164.350000,36.550000L164.350000,37.550000L164.350000,37.550000C164.636451,36.891284,165.281781,36.461064,166,36.450000C166.105243,36.451184,166.209722,36.468036,166.310000,36.500000L166.310000,37.820000C166.142071,37.786515,165.971235,37.769767,165.800000,37.770000C164.800000,37.770000,164.400000,38.520000,164.400000,39.430000L164.400000,41.760000L163,41.760000Z" fill="rgb(30,47,152)" stroke="none" stroke-width="1"/><path id="eUFTeHg3osW104" d="M168,40C168,40.620000,168.530000,40.870000,169.090000,40.870000C169.500000,40.870000,170.020000,40.710000,170.020000,40.210000C170.020000,39.710000,169.430000,39.630000,168.410000,39.410000C167.590000,39.230000,166.770000,38.940000,166.770000,38.030000C166.770000,36.710000,167.910000,36.370000,169.020000,36.370000C170.130000,36.370000,171.190000,36.750000,171.300000,38.020000L169.950000,38.020000C169.950000,37.470000,169.490000,37.320000,168.950000,37.320000C168.630000,37.320000,168.160000,37.380000,168.160000,37.800000C168.160000,38.220000,168.960000,38.380000,169.770000,38.570000C170.580000,38.760000,171.410000,39.060000,171.410000,40.020000C171.410000,41.380000,170.230000,41.820000,169.050000,41.820000C167.870000,41.820000,166.680000,41.370000,166.620000,40Z" fill="rgb(30,47,152)" stroke="none" stroke-width="1"/></g><g id="eUFTeHg3osW105" transform="matrix(0.88790852727343 0 0 0.88790852727343 0.22434761514636 12.61054442061570)"><text id="eUFTeHg3osW106" dx="0" dy="0" font-family="Arial" font-size="15" transform="matrix(1 0 0 1 47.04624926000013 167.77008057333325)" fill="rgb(0,0,0)" stroke="none" stroke-width="0"><tspan id="eUFTeHg3osW107" x="0" y="0" font-family="Arial" font-size="14" font-weight="bold" transform="matrix(1 0 0 1 38.65455404000000 17.14013600000000)" fill="rgb(30,47,152)" stroke="none" stroke-width="0"><![CDATA[transformasi digital]]></tspan></text><text id="eUFTeHg3osW108" dx="0" dy="0" font-family="Arial" font-size="15" transform="matrix(1 0 0 1 41.20249926000013 153.89764405333349)" fill="rgb(0,0,0)" stroke="none" stroke-width="0"><tspan id="eUFTeHg3osW109" x="0" y="0" font-family="Arial" font-size="14" font-weight="bold" transform="matrix(1 0 0 1 38.65455404000000 17.14013600000000)" fill="rgb(30,47,152)" stroke="none" stroke-width="0"><![CDATA[pelaksanaan rencana]]></tspan></text><text id="eUFTeHg3osW110" dx="0" dy="0" font-family="Arial" font-size="15" transform="matrix(1 0 0 1 36.54624926000013 140.02520752833342)" fill="rgb(0,0,0)" stroke="none" stroke-width="0"><tspan id="eUFTeHg3osW111" x="0" y="0" font-family="Arial" font-size="14" font-weight="bold" transform="matrix(1 0 0 1 38.65455404000000 17.14013600000000)" fill="rgb(30,47,152)" stroke="none" stroke-width="0"><![CDATA[semakin mempercepat]]></tspan></text><text id="eUFTeHg3osW112" dx="0" dy="0" font-family="Arial" font-size="15" transform="matrix(1 0 0 1 28.40562426500008 126.15277100500006)" fill="rgb(0,0,0)" stroke="none" stroke-width="0"><tspan id="eUFTeHg3osW113" x="0" y="0" font-family="Arial" font-size="14" font-weight="bold" transform="matrix(1 0 0 1 38.65455404000000 17.14013600000000)" fill="rgb(30,47,152)" stroke="none" stroke-width="0"><![CDATA[Berkata bahwa COVID-19]]></tspan></text></g><text id="eUFTeHg3osW114" dx="0" dy="0" font-family="Arial" font-size="15" transform="matrix(1 0 0 1 27.45437500500007 103.75812531500002)" fill="rgb(0,0,0)" stroke="none" stroke-width="0"><tspan id="eUFTeHg3osW115" x="0" y="0" font-family="Arial" font-size="9" font-weight="bold" transform="matrix(1 0 0 1 38.65455404000000 17.14013600000000)" fill="rgb(30,47,152)" stroke="none" stroke-width="0"><![CDATA[dariprodusen di kawasan ASEAN]]></tspan></text></g><clipPath id="eUFTeHg3osW116"><rect id="eUFTeHg3osW117" width="41" height="168" rx="0" ry="0" transform="matrix(1 0 0 1 159 16)" fill="rgb(30,47,152)" stroke="none" stroke-width="1"/></clipPath></g></g><line id="eUFTeHg3osW118" x1="188" y1="10" x2="188" y2="190" transform="matrix(1 0 0 1 12.00000000000009 0.00000000304377)" fill="none" stroke="rgb(30,47,152)" stroke-width="3" stroke-linecap="round" stroke-linejoin="round" stroke-miterlimit="10"/><script><![CDATA[!function(t,n){"object"==typeof exports&&"undefined"!=typeof module?module.exports=n():"function"==typeof define&&define.amd?define(n):(t="undefined"!=typeof globalThis?globalThis:t||self).__SVGATOR_PLAYER__=n()}(this,(function(){"use strict";function t(n){return(t="function"==typeof Symbol&&"symbol"==typeof Symbol.iterator?function(t){return typeof t}:function(t){return t&&"function"==typeof Symbol&&t.constructor===Symbol&&t!==Symbol.prototype?"symbol":typeof t})(n)}function n(t,n){if(!(t instanceof n))throw new TypeError("Cannot call a class as a function")}function e(t,n){for(var e=0;e<n.length;e++){var r=n[e];r.enumerable=r.enumerable||!1,r.configurable=!0,"value"in r&&(r.writable=!0),Object.defineProperty(t,r.key,r)}}function r(t,n,r){return n&&e(t.prototype,n),r&&e(t,r),t}function i(t){return(i=Object.setPrototypeOf?Object.getPrototypeOf:function(t){return t.__proto__||Object.getPrototypeOf(t)})(t)}function u(t,n){return(u=Object.setPrototypeOf||function(t,n){return t.__proto__=n,t})(t,n)}function o(t,n){return!n||"object"!=typeof n&&"function"!=typeof n?function(t){if(void 0===t)throw new ReferenceError("this hasn't been initialised - super() hasn't been called");return t}(t):n}function a(t){var n=function(){if("undefined"==typeof Reflect||!Reflect.construct)return!1;if(Reflect.construct.sham)return!1;if("function"==typeof Proxy)return!0;try{return Boolean.prototype.valueOf.call(Reflect.construct(Boolean,[],(function(){}))),!0}catch(t){return!1}}();return function(){var e,r=i(t);if(n){var u=i(this).constructor;e=Reflect.construct(r,arguments,u)}else e=r.apply(this,arguments);return o(this,e)}}function l(t,n,e){return(l="undefined"!=typeof Reflect&&Reflect.get?Reflect.get:function(t,n,e){var r=function(t,n){for(;!Object.prototype.hasOwnProperty.call(t,n)&&null!==(t=i(t)););return t}(t,n);if(r){var u=Object.getOwnPropertyDescriptor(r,n);return u.get?u.get.call(e):u.value}})(t,n,e||t)}var s=Math.abs;function f(t){return t}function c(t,n,e){var r=1-e;return 3*e*r*(t*r+n*e)+e*e*e}function h(){var t=arguments.length>0&&void 0!==arguments[0]?arguments[0]:0,n=arguments.length>1&&void 0!==arguments[1]?arguments[1]:0,e=arguments.length>2&&void 0!==arguments[2]?arguments[2]:1,r=arguments.length>3&&void 0!==arguments[3]?arguments[3]:1;return t<0||t>1||e<0||e>1?null:s(t-n)<=1e-5&&s(e-r)<=1e-5?f:function(i){if(i<=0)return t>0?i*n/t:0===n&&e>0?i*r/e:0;if(i>=1)return e<1?1+(i-1)*(r-1)/(e-1):1===e&&t<1?1+(i-1)*(n-1)/(t-1):1;for(var u,o=0,a=1;o<a;){var l=c(t,e,u=(o+a)/2);if(s(i-l)<1e-5)break;l<i?o=u:a=u}return c(n,r,u)}}function v(){return 1}function d(t){return 1===t?1:0}function y(){var t=arguments.length>0&&void 0!==arguments[0]?arguments[0]:1,n=arguments.length>1&&void 0!==arguments[1]?arguments[1]:0;if(1===t){if(0===n)return d;if(1===n)return v}var e=1/t;return function(t){return t>=1?1:(t+=n*e)-t%e}}function g(t){var n=arguments.length>1&&void 0!==arguments[1]?arguments[1]:2;if(Number.isInteger(t))return t;var e=Math.pow(10,n);return Math.round(t*e)/e}var p=Math.PI/180;function m(t,n,e){return t>=.5?e:n}function b(t,n,e){return 0===t||n===e?n:t*(e-n)+n}function w(t,n,e){var r=b(t,n,e);return r<=0?0:r}function x(t,n,e){return 0===t?n:1===t?e:{x:b(t,n.x,e.x),y:b(t,n.y,e.y)}}function A(t,n,e){return 0===t?n:1===t?e:{x:w(t,n.x,e.x),y:w(t,n.y,e.y)}}function k(t,n,e){var r=function(t,n,e){return Math.round(b(t,n,e))}(t,n,e);return r<=0?0:r>=255?255:r}function _(t,n,e){return 0===t?n:1===t?e:{r:k(t,n.r,e.r),g:k(t,n.g,e.g),b:k(t,n.b,e.b),a:b(t,null==n.a?1:n.a,null==e.a?1:e.a)}}function S(t,n,e){if(0===t)return n;if(1===t)return e;var r=n.length;if(r!==e.length)return m(t,n,e);for(var i=[],u=0;u<r;u++)i.push(_(t,n[u],e[u]));return i}function M(t,n,e){var r=n.length;if(r!==e.length)return m(t,n,e);for(var i=new Array(r),u=0;u<r;u++)i[u]=b(t,n[u],e[u]);return i}function O(t,n){for(var e=[],r=0;r<t;r++)e.push(n);return e}function E(t,n){if(--n<=0)return t;var e=(t=Object.assign([],t)).length;do{for(var r=0;r<e;r++)t.push(t[r])}while(--n>0);return t}var B,I=function(){function t(e){n(this,t),this.list=e,this.length=e.length}return r(t,[{key:"setAttribute",value:function(t,n){for(var e=this.list,r=0;r<this.length;r++)e[r].setAttribute(t,n)}},{key:"removeAttribute",value:function(t){for(var n=this.list,e=0;e<this.length;e++)n[e].removeAttribute(t)}},{key:"style",value:function(t,n){for(var e=this.list,r=0;r<this.length;r++)e[r].style[t]=n}}]),t}(),j=/-./g,P=function(t,n){return n.toUpperCase()};function T(t){return"function"==typeof t?t:m}function F(t){return t?"function"==typeof t?t:Array.isArray(t)?function(t){var n=arguments.length>1&&void 0!==arguments[1]?arguments[1]:f;if(!Array.isArray(t))return n;switch(t.length){case 1:return y(t[0])||n;case 2:return y(t[0],t[1])||n;case 4:return h(t[0],t[1],t[2],t[3])||n}return n}(t,null):function(t,n){var e=arguments.length>2&&void 0!==arguments[2]?arguments[2]:f;switch(t){case"linear":return f;case"steps":return y(n.steps||1,n.jump||0)||e;case"bezier":case"cubic-bezier":return h(n.x1||0,n.y1||0,n.x2||0,n.y2||0)||e}return e}(t.type,t.value,null):null}function R(t,n,e){var r=arguments.length>3&&void 0!==arguments[3]&&arguments[3],i=n.length-1;if(t<=n[0].t)return r?[0,0,n[0].v]:n[0].v;if(t>=n[i].t)return r?[i,1,n[i].v]:n[i].v;var u,o=n[0],a=null;for(u=1;u<=i;u++){if(!(t>n[u].t)){a=n[u];break}o=n[u]}return null==a?r?[i,1,n[i].v]:n[i].v:o.t===a.t?r?[u,1,a.v]:a.v:(t=(t-o.t)/(a.t-o.t),o.e&&(t=o.e(t)),r?[u,t,e(t,o.v,a.v)]:e(t,o.v,a.v))}function C(t,n){var e=arguments.length>2&&void 0!==arguments[2]?arguments[2]:null;return t&&t.length?"function"!=typeof n?null:("function"!=typeof e&&(e=null),function(r){var i=R(r,t,n);return null!=i&&e&&(i=e(i)),i}):null}function N(t,n){return t.t-n.t}function q(n,e,r,i,u){var o,a="@"===r[0],l="#"===r[0],s=B[r],f=m;switch(a?(o=r.substr(1),r=o.replace(j,P)):l&&(r=r.substr(1)),t(s)){case"function":if(f=s(i,u,R,F,r,a,e,n),l)return f;break;case"string":f=C(i,T(s));break;case"object":if((f=C(i,T(s.i),s.f))&&"function"==typeof s.u)return s.u(e,f,r,a,n)}return f?function(t,n,e){var r=arguments.length>3&&void 0!==arguments[3]&&arguments[3];if(r)return t instanceof I?function(r){return t.style(n,e(r))}:function(r){return t.style[n]=e(r)};if(Array.isArray(n)){var i=n.length;return function(r){var u=e(r);if(null==u)for(var o=0;o<i;o++)t[o].removeAttribute(n);else for(var a=0;a<i;a++)t[a].setAttribute(n,u)}}return function(r){var i=e(r);null==i?t.removeAttribute(n):t.setAttribute(n,i)}}(e,r,f,a):null}function V(n,e,r,i){if(!i||"object"!==t(i))return null;var u=null,o=null;return Array.isArray(i)?o=function(t){if(!t||!t.length)return null;for(var n=0;n<t.length;n++)t[n].e&&(t[n].e=F(t[n].e));return t.sort(N)}(i):(o=i.keys,u=i.data||null),o?q(n,e,r,o,u):null}function L(t,n,e){if(!e)return null;var r=[];for(var i in e)if(e.hasOwnProperty(i)){var u=V(t,n,i,e[i]);u&&r.push(u)}return r.length?r:null}function z(t,n){if(!n.duration||n.duration<0)return null;var e=function(t,n){if(!n)return null;var e=[];if(Array.isArray(n))for(var r=n.length,i=0;i<r;i++){var u=n[i];if(2===u.length){var o=null;if("string"==typeof u[0])o=t.getElementById(u[0]);else if(Array.isArray(u[0])){o=[];for(var a=0;a<u[0].length;a++)if("string"==typeof u[0][a]){var l=t.getElementById(u[0][a]);l&&o.push(l)}o=o.length?1===o.length?o[0]:new I(o):null}if(o){var s=L(t,o,u[1]);s&&(e=e.concat(s))}}}else for(var f in n)if(n.hasOwnProperty(f)){var c=t.getElementById(f);if(c){var h=L(t,c,n[f]);h&&(e=e.concat(h))}}return e.length?e:null}(t,n.elements);return e?function(t,n){var e=arguments.length>2&&void 0!==arguments[2]?arguments[2]:1/0,r=arguments.length>3&&void 0!==arguments[3]?arguments[3]:1,i=arguments.length>4&&void 0!==arguments[4]&&arguments[4],u=arguments.length>5&&void 0!==arguments[5]?arguments[5]:1,o=t.length,a=r>0?n:0;i&&e%2==0&&(a=n-a);var l=null;return function(s,f){var c=s%n,h=1+(s-c)/n;f*=r,i&&h%2==0&&(f=-f);var v=!1;if(h>e)c=a,v=!0,-1===u&&(c=r>0?0:n);else if(f<0&&(c=n-c),c===l)return!1;l=c;for(var d=0;d<o;d++)t[d](c);return v}}(e,n.duration,n.iterations||1/0,n.direction||1,!!n.alternate,n.fill||1):null}var D=function(){function t(e,r){var i=arguments.length>2&&void 0!==arguments[2]?arguments[2]:{};n(this,t),this._id=0,this._running=!1,this._rollingBack=!1,this._animations=e,this.duration=r.duration,this.alternate=r.alternate,this.fill=r.fill,this.iterations=r.iterations,this.direction=i.direction||1,this.speed=i.speed||1,this.fps=i.fps||100,this.offset=i.offset||0,this.rollbackStartOffset=0}return r(t,[{key:"_rollback",value:function(){var t=this,n=1/0,e=null;this.rollbackStartOffset=this.offset,this._rollingBack||(this._rollingBack=!0,this._running=!0);this._id=window.requestAnimationFrame((function r(i){if(t._rollingBack){null==e&&(e=i);var u=i-e,o=t.rollbackStartOffset-u,a=Math.round(o*t.speed);if(a>t.duration&&n!=1/0){var l=!!t.alternate&&a/t.duration%2>1,s=a%t.duration;a=(s+=l?t.duration:0)||t.duration}var f=t.fps?1e3/t.fps:0,c=Math.max(0,a);if(c<n-f){t.offset=c,n=c;for(var h=t._animations,v=h.length,d=0;d<v;d++)h[d](c,t.direction)}var y=!1;if(t.iterations>0&&-1===t.fill){var g=t.iterations*t.duration,p=g==a;a=p?0:a,t.offset=p?0:t.offset,y=a>g}a>0&&t.offset>=a&&!y?t._id=window.requestAnimationFrame(r):t.stop()}}))}},{key:"_start",value:function(){var t=this,n=arguments.length>0&&void 0!==arguments[0]?arguments[0]:0,e=-1/0,r=null,i={},u=function u(o){t._running=!0,null==r&&(r=o);var a=Math.round((o-r+n)*t.speed),l=t.fps?1e3/t.fps:0;if(a>e+l&&!t._rollingBack){t.offset=a,e=a;for(var s=t._animations,f=s.length,c=0,h=0;h<f;h++)i[h]?c++:(i[h]=s[h](a,t.direction),i[h]&&c++);if(c===f)return void t._stop()}t._id=window.requestAnimationFrame(u)};this._id=window.requestAnimationFrame(u)}},{key:"_stop",value:function(){this._id&&window.cancelAnimationFrame(this._id),this._running=!1,this._rollingBack=!1}},{key:"play",value:function(){!this._rollingBack&&this._running||(this._rollingBack=!1,this.rollbackStartOffset>this.duration&&(this.offset=this.rollbackStartOffset-(this.rollbackStartOffset-this.offset)%this.duration,this.rollbackStartOffset=0),this._start(this.offset))}},{key:"stop",value:function(){this._stop(),this.offset=0,this.rollbackStartOffset=0;var t=this.direction,n=this._animations;window.requestAnimationFrame((function(){for(var e=0;e<n.length;e++)n[e](0,t)}))}},{key:"reachedToEnd",value:function(){return this.iterations>0&&this.offset>=this.iterations*this.duration}},{key:"restart",value:function(){this._stop(),this.offset=0,this._start()}},{key:"pause",value:function(){this._stop()}},{key:"reverse",value:function(){this.direction=-this.direction}}],[{key:"build",value:function(n,e){return(n=function(t,n){if(B=n,!t||!t.root||!Array.isArray(t.animations))return null;for(var e=document.getElementsByTagName("svg"),r=!1,i=0;i<e.length;i++)if(e[i].id===t.root&&!e[i].svgatorAnimation){(r=e[i]).svgatorAnimation=!0;break}if(!r)return null;var u=t.animations.map((function(t){return z(r,t)})).filter((function(t){return!!t}));return u.length?{element:r,animations:u,animationSettings:t.animationSettings,options:t.options||void 0}:null}(n,e))?{el:n.element,options:n.options||{},player:new t(n.animations,n.animationSettings,n.options)}:null}}]),t}();!function(){for(var t=0,n=["ms","moz","webkit","o"],e=0;e<n.length&&!window.requestAnimationFrame;++e)window.requestAnimationFrame=window[n[e]+"RequestAnimationFrame"],window.cancelAnimationFrame=window[n[e]+"CancelAnimationFrame"]||window[n[e]+"CancelRequestAnimationFrame"];window.requestAnimationFrame||(window.requestAnimationFrame=function(n){var e=Date.now(),r=Math.max(0,16-(e-t)),i=window.setTimeout((function(){n(e+r)}),r);return t=e+r,i},window.cancelAnimationFrame=window.clearTimeout)}();var U=function(t,n){var e=!1,r=null;return function(i){e&&clearTimeout(e),e=setTimeout((function(){return function(){for(var i=0,u=window.innerHeight,o=0,a=window.innerWidth,l=t.parentNode;l instanceof Element;){var s=window.getComputedStyle(l);if("visible"!==s.overflowY||"visible"!==s.overflowX){var f=l.getBoundingClientRect();"visible"!==s.overflowY&&(i=Math.max(i,f.top),u=Math.min(u,f.bottom)),"visible"!==s.overflowX&&(o=Math.max(o,f.left),a=Math.min(a,f.right))}if(l===l.parentNode)break;l=l.parentNode}e=!1;var c=t.getBoundingClientRect(),h=Math.min(c.height,Math.max(0,i-c.top)),v=Math.min(c.height,Math.max(0,c.bottom-u)),d=Math.min(c.width,Math.max(0,o-c.left)),y=Math.min(c.width,Math.max(0,c.right-a)),g=(c.height-h-v)/c.height,p=(c.width-d-y)/c.width,m=Math.round(g*p*100);null!==r&&r===m||(r=m,n(m))}()}),100)}},W=function(){function t(e,r,i){n(this,t),r=Math.max(1,r||1),r=Math.min(r,100),this.el=e,this.onTresholdChange=i&&i.call?i:function(){},this.tresholdPercent=r||1,this.currentVisibility=null,this.visibilityCalculator=U(e,this.onVisibilityUpdate.bind(this)),this.bindScrollWatchers(),this.visibilityCalculator()}return r(t,[{key:"bindScrollWatchers",value:function(){for(var t=this.el.parentNode;t&&(t.addEventListener("scroll",this.visibilityCalculator),t!==t.parentNode&&t!==document);)t=t.parentNode}},{key:"onVisibilityUpdate",value:function(t){var n=this.currentVisibility>=this.tresholdPercent,e=t>=this.tresholdPercent;if(null===this.currentVisibility||n!==e)return this.currentVisibility=t,void this.onTresholdChange(e);this.currentVisibility=t}}]),t}(),Y=/\.0+$/g;function G(t){return Number.isInteger(t)?t+"":t.toFixed(6).replace(Y,"")}function H(t){var n=arguments.length>1&&void 0!==arguments[1]?arguments[1]:" ";return t&&t.length?t.map(G).join(n):""}function Q(t){return G(t.x)+","+G(t.y)}function X(t){return t?null==t.a||t.a>=1?"rgb("+t.r+","+t.g+","+t.b+")":"rgba("+t.r+","+t.g+","+t.b+","+t.a+")":"transparent"}var $={f:null,i:A,u:function(t,n){return function(e){var r=n(e);t.setAttribute("rx",G(r.x)),t.setAttribute("ry",G(r.y))}}},Z={f:null,i:function(t,n,e){return 0===t?n:1===t?e:{width:w(t,n.width,e.width),height:w(t,n.height,e.height)}},u:function(t,n){return function(e){var r=n(e);t.setAttribute("width",G(r.width)),t.setAttribute("height",G(r.height))}}},J=Math.sin,K=Math.cos,tt=Math.acos,nt=Math.asin,et=Math.tan,rt=Math.atan2,it=Math.PI/180,ut=180/Math.PI,ot=Math.sqrt,at=function(){function t(){var e=arguments.length>0&&void 0!==arguments[0]?arguments[0]:1,r=arguments.length>1&&void 0!==arguments[1]?arguments[1]:0,i=arguments.length>2&&void 0!==arguments[2]?arguments[2]:0,u=arguments.length>3&&void 0!==arguments[3]?arguments[3]:1,o=arguments.length>4&&void 0!==arguments[4]?arguments[4]:0,a=arguments.length>5&&void 0!==arguments[5]?arguments[5]:0;n(this,t),this.m=[e,r,i,u,o,a],this.i=null,this.w=null,this.s=null}return r(t,[{key:"determinant",get:function(){var t=this.m;return t[0]*t[3]-t[1]*t[2]}},{key:"isIdentity",get:function(){if(null===this.i){var t=this.m;this.i=1===t[0]&&0===t[1]&&0===t[2]&&1===t[3]&&0===t[4]&&0===t[5]}return this.i}},{key:"point",value:function(t,n){var e=this.m;return{x:e[0]*t+e[2]*n+e[4],y:e[1]*t+e[3]*n+e[5]}}},{key:"translateSelf",value:function(){var t=arguments.length>0&&void 0!==arguments[0]?arguments[0]:0,n=arguments.length>1&&void 0!==arguments[1]?arguments[1]:0;if(!t&&!n)return this;var e=this.m;return e[4]+=e[0]*t+e[2]*n,e[5]+=e[1]*t+e[3]*n,this.w=this.s=this.i=null,this}},{key:"rotateSelf",value:function(){var t=arguments.length>0&&void 0!==arguments[0]?arguments[0]:0;if(t%=360){var n=J(t*=it),e=K(t),r=this.m,i=r[0],u=r[1];r[0]=i*e+r[2]*n,r[1]=u*e+r[3]*n,r[2]=r[2]*e-i*n,r[3]=r[3]*e-u*n,this.w=this.s=this.i=null}return this}},{key:"scaleSelf",value:function(){var t=arguments.length>0&&void 0!==arguments[0]?arguments[0]:1,n=arguments.length>1&&void 0!==arguments[1]?arguments[1]:1;if(1!==t||1!==n){var e=this.m;e[0]*=t,e[1]*=t,e[2]*=n,e[3]*=n,this.w=this.s=this.i=null}return this}},{key:"skewSelf",value:function(t,n){if(n%=360,(t%=360)||n){var e=this.m,r=e[0],i=e[1],u=e[2],o=e[3];t&&(t=et(t*it),e[2]+=r*t,e[3]+=i*t),n&&(n=et(n*it),e[0]+=u*n,e[1]+=o*n),this.w=this.s=this.i=null}return this}},{key:"resetSelf",value:function(){var t=arguments.length>0&&void 0!==arguments[0]?arguments[0]:1,n=arguments.length>1&&void 0!==arguments[1]?arguments[1]:0,e=arguments.length>2&&void 0!==arguments[2]?arguments[2]:0,r=arguments.length>3&&void 0!==arguments[3]?arguments[3]:1,i=arguments.length>4&&void 0!==arguments[4]?arguments[4]:0,u=arguments.length>5&&void 0!==arguments[5]?arguments[5]:0,o=this.m;return o[0]=t,o[1]=n,o[2]=e,o[3]=r,o[4]=i,o[5]=u,this.w=this.s=this.i=null,this}},{key:"recomposeSelf",value:function(){var t=arguments.length>0&&void 0!==arguments[0]?arguments[0]:null,n=arguments.length>1&&void 0!==arguments[1]?arguments[1]:null,e=arguments.length>2&&void 0!==arguments[2]?arguments[2]:null,r=arguments.length>3&&void 0!==arguments[3]?arguments[3]:null,i=arguments.length>4&&void 0!==arguments[4]?arguments[4]:null;return this.isIdentity||this.resetSelf(),t&&(t.x||t.y)&&this.translateSelf(t.x,t.y),n&&this.rotateSelf(n),e&&(e.x&&this.skewSelf(e.x,0),e.y&&this.skewSelf(0,e.y)),!r||1===r.x&&1===r.y||this.scaleSelf(r.x,r.y),i&&(i.x||i.y)&&this.translateSelf(i.x,i.y),this}},{key:"decompose",value:function(){var t=arguments.length>0&&void 0!==arguments[0]?arguments[0]:0,n=arguments.length>1&&void 0!==arguments[1]?arguments[1]:0,e=this.m,r=e[0]*e[0]+e[1]*e[1],i=[[e[0],e[1]],[e[2],e[3]]],u=ot(r);if(0===u)return{origin:{x:e[4],y:e[5]},translate:{x:t,y:n},scale:{x:0,y:0},skew:{x:0,y:0},rotate:0};i[0][0]/=u,i[0][1]/=u;var o=e[0]*e[3]-e[1]*e[2]<0;o&&(u=-u);var a=i[0][0]*i[1][0]+i[0][1]*i[1][1];i[1][0]-=i[0][0]*a,i[1][1]-=i[0][1]*a;var l=ot(i[1][0]*i[1][0]+i[1][1]*i[1][1]);if(0===l)return{origin:{x:e[4],y:e[5]},translate:{x:t,y:n},scale:{x:u,y:0},skew:{x:0,y:0},rotate:0};i[1][0]/=l,i[1][1]/=l,a/=l;var s=0;return i[1][1]<0?(s=tt(i[1][1])*ut,i[0][1]<0&&(s=360-s)):s=nt(i[0][1])*ut,o&&(s=-s),a=rt(a,ot(i[0][0]*i[0][0]+i[0][1]*i[0][1]))*ut,o&&(a=-a),{origin:{x:e[4],y:e[5]},translate:{x:t,y:n},scale:{x:u,y:l},skew:{x:a,y:0},rotate:s}}},{key:"toString",value:function(){return null===this.s&&(this.s="matrix("+this.m.map(st).join(" ")+")"),this.s}}]),t}(),lt=/\.0+$/;function st(t){return Number.isInteger(t)?t:t.toFixed(14).replace(lt,"")}Object.freeze({M:2,L:2,Z:0,H:1,V:1,C:6,Q:4,T:2,S:4,A:7});var ft={},ct=null;function ht(n){var e=function(){if(ct)return ct;if("object"!==("undefined"==typeof document?"undefined":t(document)))return{};var n=document.createElementNS("http://www.w3.org/2000/svg","svg");return n.style.position="absolute",n.style.opacity="0.01",n.style.zIndex="-9999",n.style.left="-9999px",n.style.width="1px",n.style.height="1px",ct={svg:n}}().svg;if(!e)return function(t){return null};var r=document.createElementNS(e.namespaceURI,"path");r.setAttributeNS(null,"d",n),r.setAttributeNS(null,"fill","none"),r.setAttributeNS(null,"stroke","none"),e.appendChild(r);var i=r.getTotalLength();return function(t){var n=r.getPointAtLength(i*t);return{x:n.x,y:n.y}}}function vt(t){return ft[t]?ft[t]:ft[t]=ht(t)}function dt(t,n,e,r){if(!t||!r)return!1;var i=["M",t.x,t.y];if(n&&e&&(i.push("C"),i.push(n.x),i.push(n.y),i.push(e.x),i.push(e.y)),n?!e:e){var u=n||e;i.push("Q"),i.push(u.x),i.push(u.y)}return n||e||i.push("L"),i.push(r.x),i.push(r.y),i.join(" ")}function yt(t,n,e,r){var i=arguments.length>4&&void 0!==arguments[4]?arguments[4]:1,u=dt(t,n,e,r),o=vt(u);try{return o(i)}catch(t){return null}}function gt(t,n,e,r){var i=1-r;return i*i*t+2*i*r*n+r*r*e}function pt(t,n,e,r){return 2*(1-r)*(n-t)+2*r*(e-n)}function mt(t,n,e,r){var i=arguments.length>4&&void 0!==arguments[4]&&arguments[4],u=yt(t,n,null,e,r);return u||(u={x:gt(t.x,n.x,e.x,r),y:gt(t.y,n.y,e.y,r)}),i&&(u.a=bt(t,n,e,r)),u}function bt(t,n,e,r){return Math.atan2(pt(t.y,n.y,e.y,r),pt(t.x,n.x,e.x,r))}function wt(t,n,e,r,i){var u=i*i;return i*u*(r-t+3*(n-e))+3*u*(t+e-2*n)+3*i*(n-t)+t}function xt(t,n,e,r,i){var u=1-i;return 3*(u*u*(n-t)+2*u*i*(e-n)+i*i*(r-e))}function At(t,n,e,r,i){var u=arguments.length>5&&void 0!==arguments[5]&&arguments[5],o=yt(t,n,e,r,i);return o||(o={x:wt(t.x,n.x,e.x,r.x,i),y:wt(t.y,n.y,e.y,r.y,i)}),u&&(o.a=kt(t,n,e,r,i)),o}function kt(t,n,e,r,i){return Math.atan2(xt(t.y,n.y,e.y,r.y,i),xt(t.x,n.x,e.x,r.x,i))}function _t(t,n,e){return t+(n-t)*e}function St(t,n,e){var r=arguments.length>3&&void 0!==arguments[3]&&arguments[3],i={x:_t(t.x,n.x,e),y:_t(t.y,n.y,e)};return r&&(i.a=Mt(t,n)),i}function Mt(t,n){return Math.atan2(n.y-t.y,n.x-t.x)}function Ot(t,n,e){var r=arguments.length>3&&void 0!==arguments[3]&&arguments[3];if(Bt(n)){if(It(e))return mt(n,e.start,e,t,r)}else if(Bt(e)){if(n.end)return mt(n,n.end,e,t,r)}else{if(n.end)return e.start?At(n,n.end,e.start,e,t,r):mt(n,n.end,e,t,r);if(e.start)return mt(n,e.start,e,t,r)}return St(n,e,t,r)}function Et(t,n,e){var r=Ot(t,n,e,!0);return r.a=function(t){var n=arguments.length>1&&void 0!==arguments[1]&&arguments[1];return n?t+Math.PI:t}(r.a)/p,r}function Bt(t){return!t.type||"corner"===t.type}function It(t){return null!=t.start&&!Bt(t)}var jt=new at;var Pt={f:function(t){return t?t.join(" "):""},i:function(n,e,r){if(0===n)return e;if(1===n)return r;var i=e.length;if(i!==r.length)return m(n,e,r);for(var u,o=new Array(i),a=0;a<i;a++){if((u=t(e[a]))!==t(r[a]))return m(n,e,r);if("number"===u)o[a]=b(n,e[a],r[a]);else{if(e[a]!==r[a])return m(n,e,r);o[a]=e[a]}}return o}},Tt={f:null,i:M,u:function(t,n){return function(e){var r=n(e);t.setAttribute("x1",G(r[0])),t.setAttribute("y1",G(r[1])),t.setAttribute("x2",G(r[2])),t.setAttribute("y2",G(r[3]))}}},Ft={f:G,i:b},Rt={f:G,i:function(t,n,e){var r=b(t,n,e);return r<=0?0:r>=1?1:r}},Ct={f:function(t){var n=arguments.length>1&&void 0!==arguments[1]?arguments[1]:" ";return t&&t.length>0&&(t=t.map((function(t){return Math.floor(1e4*t)/1e4}))),H(t,n)},i:function(t,n,e){var r,i,u,o=n.length,a=e.length;if(o!==a)if(0===o)n=O(o=a,0);else if(0===a)a=o,e=O(o,0);else{var l=(u=(r=o)*(i=a)/function(t,n){for(var e;n;)e=n,n=t%n,t=e;return t||1}(r,i))<0?-u:u;n=E(n,Math.floor(l/o)),e=E(e,Math.floor(l/a)),o=a=l}for(var s=[],f=0;f<o;f++)s.push(g(w(t,n[f],e[f]),6));return s}};function Nt(t,n,e,r,i,u,o,a){return n=function(t,n,e){for(var r,i,u,o=t.length-1,a={},l=0;l<=o;l++)(r=t[l]).e&&(r.e=n(r.e)),r.v&&"g"===(i=r.v).t&&i.r&&(u=e.getElementById(i.r))&&(a[i.r]=u.querySelectorAll("stop"));return a}(t,r,a),function(r){var i,u=e(r,t,qt);return u?"c"===u.t?X(u.v):"g"===u.t?(n[u.r]&&function(t,n){for(var e=0,r=t.length;e<r;e++)t[e].setAttribute("stop-color",X(n[e]))}(n[u.r],u.v),(i=u.r)?"url(#"+i+")":"none"):"none":"none"}}function qt(t,n,e){if(0===t)return n;if(1===t)return e;if(n&&e){var r=n.t;if(r===e.t)switch(n.t){case"c":return{t:r,v:_(t,n.v,e.v)};case"g":if(n.r===e.r)return{t:r,v:S(t,n.v,e.v),r:n.r}}}return m(t,n,e)}var Vt={blur:A,brightness:w,contrast:w,"drop-shadow":function(t,n,e){return 0===t?n:1===t?e:{blur:A(t,n.blur,e.blur),offset:x(t,n.offset,e.offset),color:_(t,n.color,e.color)}},grayscale:w,"hue-rotate":b,invert:w,opacity:w,saturate:w,sepia:w};function Lt(t,n,e){if(0===t)return n;if(1===t)return e;var r=n.length;if(r!==e.length)return m(t,n,e);for(var i,u=[],o=0;o<r;o++){if(n[o].type!==e[o].type)return n;if(!(i=Vt[n[o].type]))return m(t,n,e);u.push({type:n.type,value:i(t,n[o].value,e[o].value)})}return u}var zt={blur:function(t){return t?function(n){t.setAttribute("stdDeviation",Q(n))}:null},brightness:function(t,n,e){return(t=Ut(e,n))?function(n){n=G(n),t.map((function(t){return t.setAttribute("slope",n)}))}:null},contrast:function(t,n,e){return(t=Ut(e,n))?function(n){var e=G((1-n)/2);n=G(n),t.map((function(t){t.setAttribute("slope",n),t.setAttribute("intercept",e)}))}:null},"drop-shadow":function(t,n,e){var r=e.getElementById(n+"-blur");if(!r)return null;var i=e.getElementById(n+"-offset");if(!i)return null;var u=e.getElementById(n+"-flood");return u?function(t){r.setAttribute("stdDeviation",Q(t.blur)),i.setAttribute("dx",G(t.offset.x)),i.setAttribute("dy",G(t.offset.y)),u.setAttribute("flood-color",X(t.color))}:null},grayscale:function(t){return t?function(n){t.setAttribute("values",H(function(t){return[.2126+.7874*(t=1-t),.7152-.7152*t,.0722-.0722*t,0,0,.2126-.2126*t,.7152+.2848*t,.0722-.0722*t,0,0,.2126-.2126*t,.7152-.7152*t,.0722+.9278*t,0,0,0,0,0,1,0]}(n)))}:null},"hue-rotate":function(t){return t?function(n){return t.setAttribute("values",G(n))}:null},invert:function(t,n,e){return(t=Ut(e,n))?function(n){n=G(n)+" "+G(1-n),t.map((function(t){return t.setAttribute("tableValues",n)}))}:null},opacity:function(t,n,e){return(t=e.getElementById(n+"-A"))?function(n){return t.setAttribute("tableValues","0 "+G(n))}:null},saturate:function(t){return t?function(n){return t.setAttribute("values",G(n))}:null},sepia:function(t){return t?function(n){return t.setAttribute("values",H(function(t){return[.393+.607*(t=1-t),.769-.769*t,.189-.189*t,0,0,.349-.349*t,.686+.314*t,.168-.168*t,0,0,.272-.272*t,.534-.534*t,.131+.869*t,0,0,0,0,0,1,0]}(n)))}:null}};var Dt=["R","G","B"];function Ut(t,n){var e=Dt.map((function(e){return t.getElementById(n+"-"+e)||null}));return-1!==e.indexOf(null)?null:e}var Wt={fill:Nt,"fill-opacity":Rt,stroke:Nt,"stroke-opacity":Rt,"stroke-width":Ft,"stroke-dashoffset":{f:G,i:b},"stroke-dasharray":Ct,opacity:Rt,transform:function(n,e,r,i){if(!(n=function(n,e){if(!n||"object"!==t(n))return null;var r=!1;for(var i in n)n.hasOwnProperty(i)&&(n[i]&&n[i].length?(n[i].forEach((function(t){t.e&&(t.e=e(t.e))})),r=!0):delete n[i]);return r?n:null}(n,i)))return null;var u=function(t,i,u){var o=arguments.length>3&&void 0!==arguments[3]?arguments[3]:null;return n[t]?r(i,n[t],u):e&&e[t]?e[t]:o};return e&&e.a&&n.o?function(t){var e=r(t,n.o,Et);return jt.recomposeSelf(e,u("r",t,b,0)+e.a,u("k",t,x),u("s",t,x),u("t",t,x)).toString()}:function(t){return jt.recomposeSelf(u("o",t,Ot,null),u("r",t,b,0),u("k",t,x),u("s",t,x),u("t",t,x)).toString()}},"#filter":function(t,n,e,r,i,u,o,a){if(!n.items||!t||!t.length)return null;var l=function(t,n){var e=(t=t.map((function(t){return t&&zt[t[0]]?(n.getElementById(t[1]),zt[t[0]](n.getElementById(t[1]),t[1],n)):null}))).length;return function(n){for(var r=0;r<e;r++)t[r]&&t[r](n[r].value)}}(n.items,a);return l?(t=function(t,n){return t.map((function(t){return t.e=n(t.e),t}))}(t,r),function(n){l(e(n,t,Lt))}):null},"#line":Tt,points:{f:H,i:M},d:Pt,r:Ft,"#size":Z,"#radius":$,_:function(t,n){if(Array.isArray(t))for(var e=0;e<t.length;e++)this[t[e]]=n;else this[t]=n}};return function(t){!function(t,n){if("function"!=typeof n&&null!==n)throw new TypeError("Super expression must either be null or a function");t.prototype=Object.create(n&&n.prototype,{constructor:{value:t,writable:!0,configurable:!0}}),n&&u(t,n)}(o,t);var e=a(o);function o(){return n(this,o),e.apply(this,arguments)}return r(o,null,[{key:"build",value:function(t){var n=l(i(o),"build",this).call(this,t,Wt),e=n.el,r=n.options,u=n.player;return function(t,n,e){if("click"===e.start){return void n.addEventListener("click",(function(){switch(e.click){case"freeze":return!t._running&&t.reachedToEnd()&&(t.offset=0),t._running?t.pause():t.play();case"restart":return t.offset>0?t.restart():t.play();case"reverse":var n=!t._rollingBack&&t._running,r=t.reachedToEnd();return n||r&&1===t.fill?(t.pause(),r&&(t.offset=t.duration-1),t._rollback()):r?t.restart():t.play();case"none":default:return!t._running&&t.offset?t.restart():t.play()}}))}if("hover"===e.start)return n.addEventListener("mouseenter",(function(){return t.reachedToEnd()?t.restart():t.play()})),void n.addEventListener("mouseleave",(function(){switch(e.hover){case"freeze":return t.pause();case"reset":return t.stop();case"reverse":return t.pause(),t._rollback();case"none":default:return}}));if("scroll"===e.start)return void new W(n,e.scroll||25,(function(n){n?t.reachedToEnd()?t.restart():t.play():t.pause()}));t.play()}(u,e,r),u}}]),o}(D)}));
__SVGATOR_PLAYER__.build({"root":"eUFTeHg3osW1","animations":[{"duration":4000,"direction":1,"iterations":1,"fill":1,"alternate":false,"speed":1,"elements":{"eUFTeHg3osW10":{"transform":{"data":{"t":{"x":-45.78418306485994,"y":-37.61825847201812}},"keys":{"o":[{"t":0,"v":{"x":45.80000114440918,"y":37.5,"type":"corner"},"e":[0.68,-0.55,0.265,1.55]},{"t":400,"v":{"x":103.99927054799903,"y":37.500001018517736,"type":"corner"},"e":[0.68,-0.55,0.265,1.55]}],"r":[{"t":300,"v":-14.401158383810099,"e":[0.105,0.71,0.28,1.13]},{"t":700,"v":-23.878490669436385,"e":[0.215,0.86,0.44,0.925]},{"t":1700,"v":34.738371787042354,"e":[0.29,0.625,0.28,1.13]},{"t":4000,"v":318.47627025658477,"e":[0.29,0.625,0.28,1.13]}]}}},"eUFTeHg3osW11":{"transform":{"data":{"t":{"x":7.629394502828291e-7,"y":0}},"keys":{"o":[{"t":0,"v":{"x":45.80000114440918,"y":37.5,"type":"corner"},"e":[0.68,-0.55,0.265,1.55]},{"t":400,"v":{"x":103.99927054799903,"y":37.500001018517736,"type":"corner"},"e":[0.68,-0.55,0.265,1.55]}]}}},"eUFTeHg3osW12":{"transform":{"data":{"t":{"x":-0.000001144409182529671,"y":0}},"keys":{"o":[{"t":0,"v":{"x":45.80000114440918,"y":37.5,"type":"corner"},"e":[0.68,-0.55,0.265,1.55]},{"t":400,"v":{"x":103.99927054799903,"y":37.500001018517736,"type":"corner"},"e":[0.68,-0.55,0.265,1.55]},{"t":900,"v":{"x":104.03468286300054,"y":37.5,"type":"corner"}}]}}},"eUFTeHg3osW13":{"transform":{"data":{"t":{"x":0.000002670288083095329,"y":-0.0000019073486328125}},"keys":{"o":[{"t":0,"v":{"x":45.80000114440918,"y":37.5,"type":"corner"},"e":[0.68,-0.55,0.265,1.55]},{"t":400,"v":{"x":103.99927054799903,"y":37.500001018517736,"type":"corner"},"e":[0.68,-0.55,0.265,1.55]}],"r":[{"t":300,"v":0,"e":[0.345,0.69,0.565,1]},{"t":600,"v":-30},{"t":1600,"v":45,"e":[0.42,-0.1,0.32,1.275]},{"t":4000,"v":720,"e":[0.42,-0.1,0.32,1.275]}]}}},"eUFTeHg3osW14":{"transform":{"data":{"t":{"x":0.000002670288083095329,"y":-0.0000019073486328125}},"keys":{"o":[{"t":0,"v":{"x":45.80000114440918,"y":37.5,"type":"corner"},"e":[0.68,-0.55,0.265,1.55]},{"t":400,"v":{"x":103.99927054799903,"y":37.500001018517736,"type":"corner"},"e":[0.68,-0.55,0.265,1.55]}],"r":[{"t":0,"v":0,"e":[0.42,-0.1,0.32,1.275]},{"t":4000,"v":360,"e":[0.42,-0.1,0.32,1.275]}]}}},"eUFTeHg3osW19":{"transform":{"data":{"t":{"x":-99.83499908447266,"y":-95.94999313354492}},"keys":{"o":[{"t":0,"v":{"x":245.97972308447265,"y":99.7039537785449,"type":"corner"},"e":[0.25,0.46,0.45,0.94]},{"t":300,"v":{"x":108.25790752447259,"y":99.71412078854468,"type":"corner"},"e":[0.39,0.575,0.565,1]},{"t":500,"v":{"x":121.74230061447255,"y":99.71530286854465,"type":"corner"},"e":[0.39,0.575,0.565,1]},{"t":1000,"v":{"x":113.08187261447256,"y":99.52103762354463,"type":"corner"},"e":[0.39,0.575,0.565,1]}]}}},"eUFTeHg3osW117":{"transform":{"data":{"o":{"x":200.194724,"y":99.71108078,"type":"corner"},"t":{"x":-41.19472400000001,"y":-83.71108078}},"keys":{"s":[{"t":0,"v":{"x":1,"y":1}},{"t":100,"v":{"x":4.442524407657233,"y":1}}]}}},"eUFTeHg3osW118":{"transform":{"data":{"o":{"x":200,"y":100,"type":"corner"},"t":{"x":-187.99999999999991,"y":-99.99999999695623}},"keys":{"s":[{"t":0,"v":{"x":1,"y":1},"e":[0.455,0.03,0.515,0.955]},{"t":400,"v":{"x":1,"y":0},"e":[0.455,0.03,0.515,0.955]}]}}}}}],"options":{"start":"scroll","hover":"none","click":"freeze","scroll":25,"font":"embed","exportedIds":"unique","svgFormat":"animated","title":"ID 92%"},"animationSettings":{"duration":4000,"direction":1,"iterations":1,"fill":1,"alternate":false,"speed":1}})]]></script></svg>