<svg id="eUZWXBt7oT61" xmlns="http://www.w3.org/2000/svg" xmlns:xlink="http://www.w3.org/1999/xlink" viewBox="0 0 40 50" shape-rendering="geometricPrecision" text-rendering="geometricPrecision"><g id="eUZWXBt7oT62"><g id="eUZWXBt7oT63" display="none"><path id="eUZWXBt7oT64" d="M3.630000,33.900000L3.630000,34.430000L3.630000,34.430000C3.880645,34.028524,4.327051,33.791967,4.800000,33.810000C5.011293,33.810037,5.219837,33.857900,5.410000,33.950000C5.594583,34.054128,5.731004,34.226450,5.790000,34.430000C5.915171,34.244494,6.087847,34.095992,6.290000,34C6.506592,33.877158,6.751003,33.811752,7,33.810000C7.165261,33.808375,7.330014,33.828549,7.490000,33.870000C7.628814,33.905384,7.758404,33.970180,7.870000,34.060000C7.973768,34.146578,8.055940,34.256141,8.110000,34.380000C8.172312,34.532220,8.202936,34.695546,8.200000,34.860000L8.200000,37.520000L7.600000,37.520000L7.600000,35.140000C7.605342,35.036736,7.605342,34.933264,7.600000,34.830000C7.579893,34.737224,7.542583,34.649036,7.490000,34.570000C7.436556,34.495485,7.364010,34.436757,7.280000,34.400000C7.165357,34.355623,7.042838,34.335204,6.920000,34.340000C6.665454,34.325223,6.416004,34.415603,6.230000,34.590000C6.057707,34.769219,5.967220,35.011724,5.980000,35.260000L5.980000,37.520000L5.380000,37.520000L5.380000,35.140000C5.390305,35.033582,5.390305,34.926418,5.380000,34.820000C5.366265,34.728354,5.328288,34.642043,5.270000,34.570000C5.202576,34.483584,5.107069,34.423450,5,34.400000C4.895391,34.357195,4.782981,34.336757,4.670000,34.340000C4.513779,34.332755,4.358449,34.367273,4.220000,34.440000C4.104794,34.507385,4.003076,34.595541,3.920000,34.700000C3.846390,34.789402,3.788868,34.890911,3.750000,35C3.721883,35.084067,3.705069,35.171500,3.700000,35.260000L3.700000,37.520000L3.100000,37.520000L3.100000,33.900000Z" fill="rgb(121,126,246)" stroke="none" stroke-width="1"/><path id="eUZWXBt7oT65" d="M9,35C9.070428,34.775556,9.186146,34.567944,9.340000,34.390000C9.492339,34.218561,9.679964,34.082106,9.890000,33.990000C10.376923,33.789964,10.923077,33.789964,11.410000,33.990000C11.838913,34.173866,12.162159,34.541191,12.290000,34.990000C12.436914,35.472396,12.436914,35.987604,12.290000,36.470000C12.220584,36.689780,12.108438,36.893683,11.960000,37.070000C11.805665,37.239225,11.618544,37.375313,11.410000,37.470000C11.169699,37.570834,10.910458,37.618589,10.650000,37.610000C10.389542,37.618589,10.130301,37.570834,9.890000,37.470000C9.679964,37.377894,9.492339,37.241439,9.340000,37.070000C9.188423,36.894227,9.072898,36.690358,9,36.470000C8.855109,35.990711,8.855109,35.479289,9,35ZM9.610000,36.320000C9.658869,36.478617,9.740649,36.625141,9.850000,36.750000C9.947244,36.864465,10.070765,36.953675,10.210000,37.010000C10.347133,37.076420,10.497630,37.110624,10.650000,37.110000C10.772925,37.097475,10.892011,37.060048,11,37C11.139235,36.943675,11.262756,36.854465,11.360000,36.740000C11.476259,36.618524,11.561951,36.471133,11.610000,36.310000C11.716796,35.930708,11.716796,35.529292,11.610000,35.150000C11.559333,34.990013,11.473968,34.843185,11.360000,34.720000C11.262071,34.603818,11.138955,34.511481,11,34.450000C10.865110,34.388497,10.718233,34.357755,10.570000,34.360000C10.418647,34.358837,10.268740,34.389499,10.130000,34.450000C9.991045,34.511481,9.867929,34.603818,9.770000,34.720000C9.662711,34.846302,9.581179,34.992381,9.530000,35.150000C9.409744,35.527316,9.409744,35.932684,9.530000,36.310000Z" fill="rgb(121,126,246)" stroke="none" stroke-width="1"/><path id="eUZWXBt7oT66" d="M15.500000,37.520000L15.500000,36.940000L15.500000,36.940000C15.388081,37.150271,15.217967,37.323857,15.010000,37.440000C14.795603,37.545318,14.558771,37.596803,14.320000,37.590000C14.116247,37.595790,13.913087,37.565316,13.720000,37.500000C13.572673,37.443333,13.441988,37.350478,13.340000,37.230000C13.237656,37.108653,13.165672,36.964684,13.130000,36.810000C13.088579,36.636421,13.068430,36.458446,13.070000,36.280000L13.070000,33.900000L13.670000,33.900000L13.670000,36.350000C13.658770,36.545133,13.727354,36.736446,13.860000,36.880000C14.004990,37.017844,14.200199,37.090144,14.400000,37.080000C14.564550,37.084098,14.728112,37.053430,14.880000,36.990000C15.009347,36.940699,15.123245,36.857865,15.210000,36.750000C15.300922,36.645176,15.369033,36.522576,15.410000,36.390000C15.451558,36.243670,15.471766,36.092106,15.470000,35.940000L15.470000,33.940000L16.070000,33.940000L16.070000,37.560000Z" fill="rgb(121,126,246)" stroke="none" stroke-width="1"/><path id="eUZWXBt7oT67" d="M17.410000,36.710000C17.467599,36.797539,17.542461,36.872401,17.630000,36.930000C17.726553,36.983527,17.831303,37.020696,17.940000,37.040000C18.056443,37.050228,18.173557,37.050228,18.290000,37.040000L18.590000,37.040000C18.686520,37.032056,18.781097,37.008412,18.870000,36.970000C18.956097,36.936760,19.029561,36.877288,19.080000,36.800000C19.142086,36.724077,19.174115,36.627990,19.170000,36.530000C19.177584,36.389393,19.108785,36.255617,18.990000,36.180000C18.856138,36.088150,18.707221,36.020460,18.550000,35.980000L18,35.860000C17.804300,35.824578,17.613132,35.767563,17.430000,35.690000C17.264767,35.625772,17.117320,35.522903,17,35.390000C16.871693,35.236531,16.807254,35.039632,16.820000,34.840000C16.815711,34.675244,16.857254,34.512534,16.940000,34.370000C17.021997,34.243917,17.131378,34.137954,17.260000,34.060000C17.390374,33.970663,17.536166,33.906243,17.690000,33.870000C17.846983,33.830653,18.008162,33.810506,18.170000,33.810000C18.361676,33.807993,18.552943,33.828127,18.740000,33.870000C18.903928,33.898277,19.060416,33.959511,19.200000,34.050000C19.335726,34.136334,19.446142,34.257101,19.520000,34.400000C19.604269,34.571654,19.651943,34.758947,19.660000,34.950000L19,34.950000C18.995815,34.847137,18.964787,34.747159,18.910000,34.660000C18.858717,34.582225,18.790301,34.517230,18.710000,34.470000C18.628423,34.424700,18.540908,34.391040,18.450000,34.370000C18.353610,34.359664,18.256390,34.359664,18.160000,34.370000L17.890000,34.370000C17.803979,34.382371,17.719938,34.405903,17.640000,34.440000C17.571860,34.475136,17.510828,34.522606,17.460000,34.580000C17.410241,34.645996,17.385444,34.727473,17.390000,34.810000C17.389738,34.908029,17.429463,35.001925,17.500000,35.070000C17.581975,35.141127,17.677104,35.195486,17.780000,35.230000C17.898608,35.283321,18.022674,35.323559,18.150000,35.350000L18.570000,35.440000C18.719358,35.469384,18.866405,35.509488,19.010000,35.560000C19.145040,35.604983,19.272989,35.668958,19.390000,35.750000C19.501838,35.823753,19.594413,35.923186,19.660000,36.040000C19.728123,36.172952,19.762467,36.320631,19.760000,36.470000C19.767429,36.663007,19.718803,36.854034,19.620000,37.020000C19.528587,37.162860,19.405378,37.282647,19.260000,37.370000C19.108355,37.457992,18.942545,37.518902,18.770000,37.550000C18.588940,37.585996,18.404583,37.602756,18.220000,37.600000C18.025098,37.600387,17.830696,37.580276,17.640000,37.540000C17.467406,37.503301,17.304090,37.431850,17.160000,37.330000C17.019637,37.234551,16.903268,37.107914,16.820000,36.960000C16.733866,36.781924,16.686167,36.587717,16.680000,36.390000L17.280000,36.390000C17.289830,36.507394,17.335174,36.619011,17.410000,36.710000Z" fill="rgb(121,126,246)" stroke="none" stroke-width="1"/><path id="eUZWXBt7oT68" d="M23,37.290000C22.707295,37.494302,22.356829,37.599442,22,37.590000C21.739542,37.598589,21.480301,37.550834,21.240000,37.450000C21.034470,37.364638,20.852635,37.230834,20.710000,37.060000C20.557990,36.886158,20.445412,36.681471,20.380000,36.460000C20.307545,36.212867,20.267213,35.957434,20.260000,35.700000C20.255114,35.440743,20.299220,35.182894,20.390000,34.940000C20.539453,34.500157,20.860465,34.139470,21.280000,33.940000C21.494535,33.846776,21.726087,33.799104,21.960000,33.800000C22.240058,33.791151,22.517054,33.860400,22.760000,34C22.963202,34.133195,23.136805,34.306798,23.270000,34.510000C23.398949,34.715591,23.490368,34.942446,23.540000,35.180000C23.588492,35.410010,23.608642,35.645092,23.600000,35.880000L20.890000,35.880000C20.880428,36.032479,20.900811,36.185356,20.950000,36.330000C20.986110,36.470534,21.054602,36.600670,21.150000,36.710000C21.251262,36.820031,21.373712,36.908467,21.510000,36.970000C21.671455,37.037587,21.844976,37.071611,22.020000,37.070000C22.240883,37.080197,22.458918,37.016897,22.640000,36.890000C22.807282,36.759455,22.918214,36.569798,22.950000,36.360000L23.540000,36.360000C23.482979,36.726743,23.290244,37.058676,23,37.290000ZM22.870000,35C22.821257,34.880807,22.749951,34.772150,22.660000,34.680000C22.569395,34.581077,22.456162,34.505588,22.330000,34.460000C22.203104,34.407687,22.067255,34.380518,21.930000,34.380000C21.786068,34.378412,21.643270,34.405611,21.510000,34.460000C21.389983,34.511719,21.281266,34.586461,21.190000,34.680000C21.105753,34.772776,21.041126,34.881621,21,35C20.949079,35.124269,20.918683,35.255984,20.910000,35.390000L23,35.390000C22.981100,35.253093,22.937025,35.120866,22.870000,35Z" fill="rgb(121,126,246)" stroke="none" stroke-width="1"/><path id="eUZWXBt7oT69" d="M24.130000,35C24.261800,34.556571,24.579073,34.191889,25,34C25.483997,33.802692,26.026003,33.802692,26.510000,34C26.938558,34.187241,27.263740,34.552614,27.400000,35C27.546914,35.482396,27.546914,35.997604,27.400000,36.480000C27.331044,36.702085,27.215083,36.906721,27.060000,37.080000C26.907661,37.251439,26.720036,37.387894,26.510000,37.480000C26.023900,37.666269,25.486100,37.666269,25,37.480000C24.789964,37.387894,24.602339,37.251439,24.450000,37.080000C24.294917,36.906721,24.178956,36.702085,24.110000,36.480000C23.963086,35.997604,23.963086,35.482396,24.110000,35ZM24.740000,36.320000C24.782906,36.481098,24.865407,36.628913,24.980000,36.750000C25.077244,36.864465,25.200765,36.953675,25.340000,37.010000C25.473362,37.076996,25.620761,37.111275,25.770000,37.110000C25.922370,37.110624,26.072867,37.076420,26.210000,37.010000C26.349235,36.953675,26.472756,36.864465,26.570000,36.750000C26.684593,36.628913,26.767094,36.481098,26.810000,36.320000C26.930256,35.942684,26.930256,35.537316,26.810000,35.160000C26.767094,34.998902,26.684593,34.851087,26.570000,34.730000C26.472071,34.613818,26.348955,34.521481,26.210000,34.460000C26.071260,34.399499,25.921353,34.368837,25.770000,34.370000C25.621985,34.369936,25.475566,34.400581,25.340000,34.460000C25.201045,34.521481,25.077929,34.613818,24.980000,34.730000C24.865407,34.851087,24.782906,34.998902,24.740000,35.160000C24.619744,35.537316,24.619744,35.942684,24.740000,36.320000Z" fill="rgb(121,126,246)" stroke="none" stroke-width="1"/><path id="eUZWXBt7oT610" d="M29.230000,37.520000L27.880000,33.900000L28.550000,33.900000L29.550000,36.900000L29.550000,36.900000L30.550000,33.900000L31.180000,33.900000L29.850000,37.520000Z" fill="rgb(121,126,246)" stroke="none" stroke-width="1"/><path id="eUZWXBt7oT611" d="M34.290000,37.290000C33.997295,37.494302,33.646829,37.599442,33.290000,37.590000C33.032697,37.599729,32.776466,37.551899,32.540000,37.450000C32.333045,37.362115,32.148496,37.228829,32,37.060000C31.854690,36.883139,31.745923,36.679200,31.680000,36.460000C31.607545,36.212867,31.567213,35.957434,31.560000,35.700000C31.556850,35.441712,31.597423,35.184752,31.680000,34.940000C31.757545,34.720381,31.880171,34.519411,32.040000,34.350000C32.344428,33.995235,32.792709,33.796815,33.260000,33.810000C33.540058,33.801151,33.817054,33.870400,34.060000,34.010000C34.263202,34.143195,34.436805,34.316798,34.570000,34.520000C34.698949,34.725591,34.790368,34.952446,34.840000,35.190000C34.863802,35.422726,34.863802,35.657274,34.840000,35.890000L32.140000,35.890000C32.115379,36.038990,32.115379,36.191010,32.140000,36.340000C32.181326,36.480517,32.253016,36.610241,32.350000,36.720000C32.449503,36.827655,32.568196,36.915827,32.700000,36.980000C32.861991,37.045807,33.035152,37.079761,33.210000,37.080000C33.430883,37.090197,33.648918,37.026897,33.830000,36.900000C34.000256,36.770519,34.114703,36.580965,34.150000,36.370000L34.740000,36.370000C34.703417,36.720204,34.543993,37.046138,34.290000,37.290000ZM34.150000,35C34.098281,34.879983,34.023539,34.771266,33.930000,34.680000C33.843021,34.581498,33.733116,34.505939,33.610000,34.460000C33.347086,34.353267,33.052914,34.353267,32.790000,34.460000C32.668747,34.509455,32.559595,34.584497,32.470000,34.680000C32.377397,34.773869,32.305814,34.886357,32.260000,35.010000C32.209079,35.134269,32.178683,35.265984,32.170000,35.400000L34.250000,35.400000C34.236886,35.262411,34.203176,35.127573,34.150000,35Z" fill="rgb(121,126,246)" stroke="none" stroke-width="1"/><path id="eUZWXBt7oT612" d="M36,33.900000L36,34.660000L36,34.660000C36.122422,34.401336,36.308160,34.177762,36.540000,34.010000C36.775373,33.861039,37.052101,33.790981,37.330000,33.810000L37.330000,34.440000C37.125696,34.438053,36.922629,34.471897,36.730000,34.540000C36.570890,34.600218,36.429774,34.700032,36.320000,34.830000C36.212029,34.965575,36.133677,35.122278,36.090000,35.290000C36.043559,35.493399,36.020078,35.701366,36.020000,35.910000L36.020000,37.520000L35.430000,37.520000L35.430000,33.900000Z" fill="rgb(121,126,246)" stroke="none" stroke-width="1"/><path id="eUZWXBt7oT613" d="M11.430000,40.900000L11.430000,41.420000L10.710000,41.420000L10.710000,43.670000C10.698412,43.726074,10.698412,43.783926,10.710000,43.840000C10.720158,43.878329,10.740960,43.913000,10.770000,43.940000C10.816285,43.948445,10.863715,43.948445,10.910000,43.940000L11.410000,43.940000L11.410000,44.470000L11,44.470000C10.870254,44.481493,10.739746,44.481493,10.610000,44.470000C10.512192,44.450590,10.419949,44.409594,10.340000,44.350000C10.270949,44.283614,10.219415,44.201159,10.190000,44.110000C10.154790,43.979645,10.137961,43.845011,10.140000,43.710000L10.140000,41.420000L9.500000,41.420000L9.500000,40.900000L10.110000,40.900000L10.110000,39.810000L10.710000,39.810000L10.710000,40.900000Z" fill="rgb(121,126,246)" stroke="none" stroke-width="1"/><path id="eUZWXBt7oT614" d="M12,42C12.070428,41.775556,12.186146,41.567944,12.340000,41.390000C12.492339,41.218561,12.679964,41.082106,12.890000,40.990000C13.376923,40.789964,13.923077,40.789964,14.410000,40.990000C14.618544,41.084687,14.805665,41.220775,14.960000,41.390000C15.114097,41.566191,15.226848,41.774609,15.290000,42C15.450120,42.480341,15.450120,42.999659,15.290000,43.480000C15.224588,43.701471,15.112010,43.906158,14.960000,44.080000C14.805665,44.249225,14.618544,44.385313,14.410000,44.480000C13.920576,44.666935,13.379424,44.666935,12.890000,44.480000C12.679964,44.387894,12.492339,44.251439,12.340000,44.080000C12.188423,43.904227,12.072898,43.700358,12,43.480000C11.853086,42.997604,11.853086,42.482396,12,42ZM12.610000,43.320000C12.658869,43.478617,12.740649,43.625141,12.850000,43.750000C12.947244,43.864465,13.070765,43.953675,13.210000,44.010000C13.347133,44.076420,13.497630,44.110624,13.650000,44.110000C13.802370,44.110624,13.952867,44.076420,14.090000,44.010000C14.226428,43.948709,14.348924,43.860239,14.450000,43.750000C14.559351,43.625141,14.641131,43.478617,14.690000,43.320000C14.810256,42.942684,14.810256,42.537316,14.690000,42.160000C14.638821,42.002381,14.557289,41.856302,14.450000,41.730000C14.349132,41.616975,14.226748,41.525187,14.090000,41.460000C13.950914,41.400600,13.801239,41.369985,13.650000,41.370000C13.498647,41.368837,13.348740,41.399499,13.210000,41.460000C13.071045,41.521481,12.947929,41.613818,12.850000,41.730000C12.742711,41.856302,12.661179,42.002381,12.610000,42.160000C12.489744,42.537316,12.489744,42.942684,12.610000,43.320000Z" fill="rgb(121,126,246)" stroke="none" stroke-width="1"/><path id="eUZWXBt7oT615" d="M18.670000,40.900000L18.670000,41.390000L18.670000,41.390000C18.764615,41.192195,18.928187,41.035734,19.130000,40.950000C19.351236,40.855733,19.589526,40.808075,19.830000,40.810000C20.082779,40.802587,20.333495,40.857538,20.560000,40.970000C20.760027,41.068910,20.937154,41.208567,21.080000,41.380000C21.216617,41.564630,21.321395,41.770807,21.390000,41.990000C21.459497,42.226997,21.493202,42.473045,21.490000,42.720000C21.492613,42.966919,21.458919,43.212880,21.390000,43.450000C21.325417,43.664710,21.220175,43.865008,21.080000,44.040000C20.939374,44.213698,20.761712,44.353778,20.560000,44.450000C20.332674,44.547296,20.087221,44.595023,19.840000,44.590000L19.540000,44.590000C19.429149,44.571935,19.321413,44.538267,19.220000,44.490000C18.989372,44.414888,18.793905,44.258515,18.670000,44.050000L18.670000,44.050000L18.670000,45.900000L18.070000,45.900000L18.070000,40.900000ZM20.810000,42.180000C20.762532,42.026719,20.691698,41.881680,20.600000,41.750000C20.508289,41.624107,20.388438,41.521378,20.250000,41.450000C20.094061,41.375222,19.922924,41.337572,19.750000,41.340000C19.412213,41.330511,19.092481,41.492257,18.900000,41.770000C18.808879,41.903039,18.744360,42.052451,18.710000,42.210000C18.670335,42.370320,18.650189,42.534846,18.650000,42.700000C18.649609,42.875083,18.669747,43.049607,18.710000,43.220000C18.749656,43.377504,18.817408,43.526559,18.910000,43.660000C19.005020,43.782791,19.124121,43.884878,19.260000,43.960000C19.423703,44.044103,19.606036,44.085386,19.790000,44.080000C19.964072,44.098429,20.139932,44.070843,20.300000,44C20.435305,43.922975,20.548849,43.812872,20.630000,43.680000C20.721198,43.543353,20.785670,43.390658,20.820000,43.230000C20.852001,43.061854,20.868736,42.891159,20.870000,42.720000C20.873812,42.538146,20.853638,42.356582,20.810000,42.180000Z" fill="rgb(121,126,246)" stroke="none" stroke-width="1"/><path id="eUZWXBt7oT616" d="M22.830000,39.520000L22.830000,44.520000L22.240000,44.520000L22.240000,39.520000Z" fill="rgb(121,126,246)" stroke="none" stroke-width="1"/><path id="eUZWXBt7oT617" d="M27,44.500000C26.867352,44.568077,26.718815,44.599166,26.570000,44.590000C26.437166,44.598454,26.306785,44.551373,26.210000,44.460000C26.068097,44.350941,25.989447,44.178659,26,44C25.852891,44.190422,25.655453,44.335902,25.430000,44.420000C25.207501,44.508995,24.969616,44.553173,24.730000,44.550000C24.572047,44.549239,24.414578,44.532487,24.260000,44.500000C24.123022,44.464758,23.994042,44.403662,23.880000,44.320000C23.770432,44.238263,23.681413,44.132125,23.620000,44.010000C23.485546,43.690225,23.485546,43.329775,23.620000,43.010000C23.689314,42.884494,23.784806,42.775361,23.900000,42.690000C24.019808,42.610012,24.151402,42.549277,24.290000,42.510000L24.740000,42.400000L25.210000,42.330000C25.341368,42.315062,25.471637,42.291680,25.600000,42.260000C25.694809,42.235337,25.783385,42.191049,25.860000,42.130000C25.930072,42.062339,25.966673,41.967178,25.960000,41.870000C25.976467,41.667248,25.875438,41.472961,25.700000,41.370000C25.619204,41.327055,25.530963,41.299904,25.440000,41.290000L25.160000,41.290000C24.941691,41.284236,24.725321,41.332318,24.530000,41.430000C24.350196,41.550035,24.244499,41.753881,24.250000,41.970000L23.700000,41.970000C23.704781,41.775291,23.752590,41.584052,23.840000,41.410000C23.918593,41.256082,24.035734,41.125159,24.180000,41.030000C24.326943,40.935527,24.489450,40.867816,24.660000,40.830000C24.845825,40.780296,25.037670,40.756736,25.230000,40.760000C25.393171,40.749703,25.556829,40.749703,25.720000,40.760000C25.874038,40.779165,26.023209,40.826629,26.160000,40.900000C26.288952,40.974071,26.395929,41.081048,26.470000,41.210000C26.554614,41.366314,26.596036,41.542356,26.590000,41.720000L26.590000,43.570000C26.575885,43.672851,26.575885,43.777149,26.590000,43.880000C26.590000,43.950000,26.660000,43.980000,26.750000,43.980000L27,44ZM26,42.650000C25.907166,42.705998,25.805844,42.746527,25.700000,42.770000C25.575213,42.800486,25.448109,42.820555,25.320000,42.830000L24.920000,42.890000C24.792512,42.905432,24.667904,42.939109,24.550000,42.990000C24.449283,43.036080,24.360372,43.104473,24.290000,43.190000C24.215588,43.290809,24.180077,43.415096,24.190000,43.540000C24.187392,43.627188,24.208105,43.713493,24.250000,43.790000C24.289171,43.852540,24.340114,43.906879,24.400000,43.950000C24.468756,43.990156,24.542813,44.020452,24.620000,44.040000C24.709732,44.049828,24.800268,44.049828,24.890000,44.040000C25.060054,44.042659,25.229265,44.015586,25.390000,43.960000C25.518284,43.916111,25.637059,43.848240,25.740000,43.760000C25.823955,43.686436,25.889100,43.593862,25.930000,43.490000C25.971739,43.405804,25.995574,43.313870,26,43.220000Z" fill="rgb(121,126,246)" stroke="none" stroke-width="1"/><path id="eUZWXBt7oT618" d="M28.940000,45C28.881688,45.155182,28.811479,45.305629,28.730000,45.450000C28.669808,45.561616,28.592162,45.662894,28.500000,45.750000C28.422475,45.822025,28.330405,45.876585,28.230000,45.910000C28.121601,45.951754,28.006143,45.972129,27.890000,45.970000L27.680000,45.970000C27.608063,45.962898,27.537420,45.946078,27.470000,45.920000L27.470000,45.380000L27.650000,45.440000L27.820000,45.440000C27.930264,45.443645,28.038830,45.412126,28.130000,45.350000C28.213874,45.286760,28.276628,45.199601,28.310000,45.100000L28.560000,44.500000L27.120000,40.900000L27.790000,40.900000L28.850000,43.900000L28.850000,43.900000L29.850000,40.900000L30.480000,40.900000Z" fill="rgb(121,126,246)" stroke="none" stroke-width="1"/></g><g id="eUZWXBt7oT619"><path id="eUZWXBt7oT620" d="M20.650000,14.600000L20.650000,16C20.660941,16.172471,20.602750,16.342198,20.488286,16.471674C20.373823,16.601149,20.212511,16.679712,20.040000,16.690000L20,16.690000C19.830261,16.690000,19.667475,16.622572,19.547452,16.502548C19.427428,16.382525,19.360000,16.219739,19.360000,16.050000L19.360000,13.200000C19.360000,12.841015,19.651015,12.550000,20.010000,12.550000C20.368985,12.550000,20.660000,12.841015,20.660000,13.200000L20.660000,13.200000Z" fill="rgb(121,126,246)" stroke="none" stroke-width="1"/><path id="eUZWXBt7oT621" d="M20.640000,8.350000C21.125625,8.426427,21.603972,8.543505,22.070000,8.700000C24.122393,9.430326,25.640912,11.184215,26.070000,13.320000C26.159957,13.791151,26.200177,14.270447,26.190000,14.750000L26.190000,22.940000C26.230932,24.437919,25.738295,25.901651,24.800000,27.070000C23.851604,28.251085,22.496491,29.035624,21,29.270000C19.275463,29.574753,17.503854,29.110847,16.150000,28C14.934956,27.050346,14.126920,25.673825,13.890000,24.150000C13.832977,23.769384,13.806227,23.384845,13.810000,23L13.810000,14.600000C13.787338,13.194480,14.250007,11.824133,15.120000,10.720000C16.064972,9.477881,17.456754,8.652856,19,8.420000L19.300000,8.350000ZM24.850000,18.850000L24.850000,14.530000C24.862202,13.259848,24.369409,12.036856,23.480000,11.130000C22.060045,9.655652,19.867328,9.231514,18,10.070000C16.178151,10.835404,15.016888,12.644907,15.080000,14.620000L15.080000,23.100000C15.067322,24.941700,16.090509,26.634314,17.727120,27.479017C19.363731,28.323720,21.336140,28.177219,22.830000,27.100000C24.116378,26.178810,24.864875,24.681816,24.830000,23.100000C24.860000,21.680000,24.860000,20.270000,24.850000,18.850000Z" fill="rgb(121,126,246)" stroke="none" stroke-width="1"/></g><g id="eUZWXBt7oT622" opacity="0"><path id="eUZWXBt7oT623" d="M29.480000,15.620000C29.480000,15.450000,29.480000,15.290000,29.480000,15.120000C29.480627,14.617578,29.440496,14.115932,29.360000,13.620000" fill="none" stroke="rgb(121,126,246)" stroke-width="0.500000" stroke-linecap="round" stroke-linejoin="round"/><path id="eUZWXBt7oT624" d="M28.840000,11.630000C27.325418,7.837225,23.558356,5.434953,19.480638,5.661492C15.402921,5.888032,11.925139,8.692797,10.840000,12.630000" fill="none" stroke="rgb(121,126,246)" stroke-width="0.500000" stroke-linecap="round" stroke-linejoin="round" stroke-dasharray="4.130000,2.060000"/><path id="eUZWXBt7oT625" d="M10.620000,13.620000C10.539504,14.115932,10.499373,14.617578,10.500000,15.120000C10.500000,15.290000,10.500000,15.450000,10.500000,15.620000" fill="none" stroke="rgb(121,126,246)" stroke-width="0.500000" stroke-linecap="round" stroke-linejoin="round"/></g><g id="eUZWXBt7oT626" opacity="0"><path id="eUZWXBt7oT627" d="M32.810000,16.120000C32.810000,15.880000,32.810000,15.650000,32.810000,15.420000C32.810883,14.733893,32.760744,14.048671,32.660000,13.370000" transform="matrix(1 0 0 1 0.39882920000001 0)" fill="none" stroke="rgb(121,126,246)" stroke-width="0.500000" stroke-linecap="round" stroke-linejoin="round"/><path id="eUZWXBt7oT628" d="M32,10.620000C30.171901,5.555403,25.384249,2.164149,20,2.120000C14.088059,2.186450,8.974256,6.254435,7.580000,12" fill="none" stroke="rgb(121,126,246)" stroke-width="0.500000" stroke-linecap="round" stroke-linejoin="round" stroke-dasharray="5.690000,2.840000"/><path id="eUZWXBt7oT629" d="M7.300000,13.370000C7.199256,14.048671,7.149117,14.733893,7.150000,15.420000C7.150000,15.650000,7.150000,15.880000,7.150000,16.120000" fill="none" stroke="rgb(121,126,246)" stroke-width="0.500000" stroke-linecap="round" stroke-linejoin="round"/></g></g><g id="eUZWXBt7oT630" transform="matrix(0.62228470713244 0 0 0.62228470713244 -3.88328772558760 -2.28688066592014)"><path id="eUZWXBt7oT631" d="M20.130000,62.700000C19.745206,63.060924,19.225857,63.242514,18.700000,63.200000C18.508433,63.199836,18.317403,63.179727,18.130000,63.140000C17.940039,63.098957,17.757780,63.028079,17.590000,62.930000C17.432594,62.839211,17.298942,62.712413,17.200000,62.560000C17.078092,62.397932,17.008340,62.202628,17,62L17.660000,62C17.666428,62.110363,17.708543,62.215649,17.780000,62.300000C17.848980,62.385497,17.933879,62.456813,18.030000,62.510000C18.137958,62.561571,18.252293,62.598562,18.370000,62.620000C18.483145,62.629234,18.596855,62.629234,18.710000,62.620000C18.903652,62.626185,19.095886,62.584992,19.270000,62.500000C19.416797,62.428430,19.543831,62.321996,19.640000,62.190000C19.744676,62.046311,19.819483,61.883095,19.860000,61.710000C19.901459,61.505975,19.921568,61.298189,19.920000,61.090000L19.920000,60.820000L19.920000,60.820000C19.813584,61.059180,19.630653,61.256183,19.400000,61.380000C19.169190,61.491405,18.916289,61.549504,18.660000,61.550000C18.387866,61.558134,18.117523,61.503381,17.870000,61.390000C17.649464,61.283351,17.454919,61.129763,17.300000,60.940000C17.148639,60.749151,17.033414,60.532258,16.960000,60.300000C16.887122,60.042990,16.850105,59.777143,16.850000,59.510000C16.850885,59.260658,16.881092,59.012285,16.940000,58.770000C17.005213,58.522954,17.113543,58.289367,17.260000,58.080000C17.408787,57.865189,17.607921,57.690088,17.840000,57.570000C18.111891,57.430513,18.414528,57.361732,18.720000,57.370000C18.966827,57.369327,19.210245,57.427610,19.430000,57.540000C19.645748,57.653732,19.820563,57.832042,19.930000,58.050000L19.930000,58.050000L19.930000,57.470000L20.560000,57.470000L20.560000,61.170000C20.621555,61.716551,20.467265,62.265536,20.130000,62.700000ZM19.280000,60.890000C19.424437,60.793793,19.549872,60.671748,19.650000,60.530000C19.743217,60.370514,19.813889,60.198883,19.860000,60.020000C19.899687,59.835971,19.919799,59.648260,19.920000,59.460000C19.919838,59.281648,19.899713,59.103875,19.860000,58.930000C19.820369,58.766277,19.752704,58.610647,19.660000,58.470000C19.467071,58.168400,19.127622,57.992955,18.770000,58.010000C18.579745,58.005824,18.391225,58.046955,18.220000,58.130000C18.074964,58.208637,17.948725,58.317817,17.850000,58.450000C17.758085,58.595926,17.687378,58.754175,17.640000,58.920000C17.596417,59.103574,17.572945,59.291346,17.570000,59.480000C17.570150,59.664958,17.590267,59.849360,17.630000,60.030000C17.666058,60.205793,17.730214,60.374624,17.820000,60.530000C17.909976,60.673338,18.029253,60.796023,18.170000,60.890000C18.337020,60.985315,18.527981,61.030452,18.720000,61.020000C18.914890,61.027074,19.108157,60.982208,19.280000,60.890000Z" fill="rgb(121,126,246)" stroke="none" stroke-width="1"/><path id="eUZWXBt7oT632" d="M24.450000,61.300000C24.115634,61.540053,23.711406,61.663079,23.300000,61.650000C23.011740,61.657847,22.725191,61.603267,22.460000,61.490000C22.228932,61.391238,22.023649,61.240697,21.860000,61.050000C21.693646,60.854859,21.570907,60.626426,21.500000,60.380000C21.415473,60.104216,21.368385,59.818325,21.360000,59.530000C21.358510,59.240808,21.405841,58.953438,21.500000,58.680000C21.590995,58.436974,21.726663,58.213122,21.900000,58.020000C22.065720,57.831552,22.270455,57.681413,22.500000,57.580000C22.738258,57.470739,22.997913,57.416075,23.260000,57.420000C23.575715,57.410008,23.887789,57.489761,24.160000,57.650000C24.394040,57.785802,24.590077,57.978400,24.730000,58.210000C24.868930,58.453988,24.960535,58.722018,25,59C25.051707,59.256669,25.075180,59.518225,25.070000,59.780000L22.070000,59.780000C22.059163,59.948936,22.079502,60.118424,22.130000,60.280000C22.176162,60.437674,22.254472,60.584080,22.360000,60.710000C22.466979,60.838601,22.604510,60.938311,22.760000,61C22.940313,61.075806,23.134427,61.113266,23.330000,61.110000C23.575456,61.118727,23.817259,61.048640,24.020000,60.910000C24.206310,60.762372,24.333938,60.553203,24.380000,60.320000L25,60.320000C24.938632,60.701536,24.743706,61.048858,24.450000,61.300000ZM24.290000,58.710000C24.230343,58.572225,24.145566,58.446755,24.040000,58.340000C23.824002,58.127610,23.532925,58.009024,23.230000,58.010000C23.068781,58.007008,22.908709,58.037660,22.760000,58.100000C22.622990,58.155687,22.500037,58.241071,22.400000,58.350000C22.300747,58.453976,22.222634,58.576240,22.170000,58.710000C22.111076,58.849653,22.077224,58.998597,22.070000,59.150000L24.390000,59.150000C24.382776,58.998597,24.348924,58.849653,24.290000,58.710000Z" fill="rgb(121,126,246)" stroke="none" stroke-width="1"/><path id="eUZWXBt7oT633" d="M26.290000,60.660000C26.355284,60.756897,26.440520,60.838724,26.540000,60.900000C26.646444,60.959562,26.760972,61.003352,26.880000,61.030000C27.012895,61.045288,27.147105,61.045288,27.280000,61.030000L27.610000,61.030000C27.719380,61.010653,27.826571,60.980505,27.930000,60.940000C28.020765,60.900601,28.099942,60.838637,28.160000,60.760000C28.230028,60.672322,28.265593,60.562071,28.260000,60.450000C28.268995,60.290632,28.192891,60.138425,28.060000,60.050000C27.908573,59.954959,27.743255,59.884109,27.570000,59.840000L26.930000,59.690000C26.713818,59.649345,26.502613,59.585649,26.300000,59.500000C26.111247,59.428581,25.942967,59.311816,25.810000,59.160000C25.668901,58.989104,25.597478,58.771263,25.610000,58.550000C25.608239,58.367126,25.656662,58.187271,25.750000,58.030000C25.837353,57.884622,25.957140,57.761413,26.100000,57.670000C26.250475,57.575376,26.416289,57.507697,26.590000,57.470000C26.762738,57.423054,26.940997,57.399510,27.120000,57.400000C27.334795,57.398736,27.549183,57.418835,27.760000,57.460000C27.939957,57.497783,28.112332,57.565381,28.270000,57.660000C28.422117,57.760487,28.546036,57.898175,28.630000,58.060000C28.721929,58.250671,28.773020,58.458440,28.780000,58.670000L28.120000,58.670000C28.114244,58.555094,28.076110,58.444159,28.010000,58.350000C27.958704,58.263508,27.886492,58.191296,27.800000,58.140000C27.705206,58.088046,27.604474,58.047753,27.500000,58.020000C27.393582,58.009695,27.286418,58.009695,27.180000,58.020000L26.880000,58.020000C26.782741,58.036036,26.688387,58.066364,26.600000,58.110000C26.518906,58.142293,26.446848,58.193762,26.390000,58.260000C26.338766,58.336636,26.314168,58.428000,26.320000,58.520000C26.316594,58.626492,26.360536,58.729023,26.440000,58.800000C26.528611,58.884703,26.634306,58.949484,26.750000,58.990000C26.885448,59.044491,27.026209,59.084709,27.170000,59.110000L27.640000,59.220000L28.130000,59.350000C28.280969,59.395492,28.423025,59.466520,28.550000,59.560000C28.672271,59.647480,28.774534,59.759970,28.850000,59.890000C28.926105,60.038329,28.963918,60.203332,28.960000,60.370000C28.968658,60.583424,28.916648,60.794930,28.810000,60.980000C28.708068,61.138734,28.571263,61.272119,28.410000,61.370000C28.237883,61.473940,28.048021,61.545138,27.850000,61.580000C27.649101,61.619782,27.444800,61.639877,27.240000,61.640000C27.024895,61.637582,26.810542,61.614138,26.600000,61.570000C26.407767,61.526017,26.224910,61.448133,26.060000,61.340000C25.900946,61.228919,25.770676,61.081508,25.680000,60.910000C25.583468,60.713877,25.532208,60.498581,25.530000,60.280000L26.190000,60.280000C26.192822,60.412791,26.227093,60.543021,26.290000,60.660000Z" fill="rgb(121,126,246)" stroke="none" stroke-width="1"/><path id="eUZWXBt7oT634" d="M32.560000,61.300000C32.230090,61.541382,31.828523,61.664671,31.420000,61.650000C31.131740,61.657847,30.845191,61.603267,30.580000,61.490000C30.347439,61.393873,30.141584,61.242913,29.980000,61.050000C29.813646,60.854859,29.690907,60.626426,29.620000,60.380000C29.530535,60.105397,29.483329,59.818790,29.480000,59.530000C29.478510,59.240808,29.525841,58.953438,29.620000,58.680000C29.698075,58.429406,29.827490,58.197821,30,58C30.167467,57.809117,30.376027,57.658681,30.610000,57.560000C30.847933,57.449756,31.107814,57.395044,31.370000,57.400000C31.685715,57.390008,31.997789,57.469761,32.270000,57.630000C32.499769,57.771332,32.694624,57.962768,32.840000,58.190000C32.981718,58.420162,33.080011,58.674369,33.130000,58.940000C33.186645,59.195929,33.210171,59.458075,33.200000,59.720000L30.200000,59.720000C30.197223,59.889291,30.220840,60.057980,30.270000,60.220000C30.342168,60.549126,30.575231,60.819780,30.890000,60.940000C31.070313,61.015806,31.264427,61.053266,31.460000,61.050000C31.708581,61.058777,31.953578,60.988778,32.160000,60.850000C32.342584,60.700754,32.466550,60.491783,32.510000,60.260000L33.170000,60.260000C33.106097,60.671546,32.888011,61.043364,32.560000,61.300000ZM32.400000,58.710000C32.343963,58.572680,32.262542,58.447155,32.160000,58.340000C31.941543,58.125153,31.646381,58.006368,31.340000,58.010000C31.182008,58.006915,31.025179,58.037599,30.880000,58.100000C30.742990,58.155687,30.620037,58.241071,30.520000,58.350000C30.417559,58.453421,30.336065,58.575662,30.280000,58.710000C30.225654,58.851087,30.191973,58.999283,30.180000,59.150000L32.510000,59.150000C32.499606,58.997988,32.462364,58.849019,32.400000,58.710000Z" fill="rgb(121,126,246)" stroke="none" stroke-width="1"/><path id="eUZWXBt7oT635" d="M34.500000,57.520000L34.500000,58.370000L34.500000,58.370000C34.630252,58.079753,34.833532,57.828237,35.090000,57.640000C35.361276,57.478379,35.674756,57.401751,35.990000,57.420000L35.990000,58.130000C35.754992,58.120722,35.520474,58.158109,35.300000,58.240000C35.125644,58.307439,34.970943,58.417449,34.850000,58.560000C34.731443,58.710348,34.646224,58.884195,34.600000,59.070000C34.545201,59.295860,34.518333,59.527593,34.520000,59.760000L34.520000,61.560000L33.860000,61.560000L33.860000,57.560000Z" fill="rgb(121,126,246)" stroke="none" stroke-width="1"/><path id="eUZWXBt7oT636" d="M39.390000,56L39.390000,59.310000L41.230000,57.550000L42.130000,57.550000L40.520000,59L42.240000,61.570000L41.400000,61.570000L40,59.450000L39.380000,60.030000L39.380000,61.560000L38.710000,61.560000L38.710000,56Z" fill="rgb(121,126,246)" stroke="none" stroke-width="1"/><path id="eUZWXBt7oT637" d="M45.470000,61.560000L45.470000,60.920000L45.470000,60.920000C45.349738,61.153706,45.161461,61.345471,44.930000,61.470000C44.692587,61.593885,44.427729,61.655800,44.160000,61.650000C43.931777,61.655213,43.704576,61.617912,43.490000,61.540000C43.322536,61.480024,43.174100,61.376464,43.060000,61.240000C42.946386,61.108104,42.867349,60.950029,42.830000,60.780000C42.784624,60.583191,42.761148,60.381969,42.760000,60.180000L42.760000,57.520000L43.430000,57.520000L43.430000,60.260000C43.417165,60.478844,43.497015,60.692987,43.650000,60.850000C43.810089,61.004565,44.027941,61.084444,44.250000,61.070000C44.430750,61.073535,44.610549,61.043003,44.780000,60.980000C44.920330,60.915959,45.046204,60.824105,45.150000,60.710000C45.248253,60.591972,45.322937,60.456182,45.370000,60.310000C45.422474,60.145064,45.449451,59.973081,45.450000,59.800000L45.450000,57.520000L46.110000,57.520000L46.110000,61.520000Z" fill="rgb(121,126,246)" stroke="none" stroke-width="1"/><path id="eUZWXBt7oT638" d="M47.700000,57.520000L47.700000,58.370000L47.700000,58.370000C47.833825,58.079074,48.040494,57.827626,48.300000,57.640000C48.567205,57.477419,48.877820,57.400637,49.190000,57.420000L49.190000,58.130000C48.958251,58.120713,48.727001,58.158122,48.510000,58.240000C48.332940,58.302319,48.176994,58.413213,48.060000,58.560000C47.937704,58.707964,47.852049,58.882699,47.810000,59.070000C47.750291,59.294956,47.723347,59.527350,47.730000,59.760000L47.730000,61.560000L47.060000,61.560000L47.060000,57.560000Z" fill="rgb(121,126,246)" stroke="none" stroke-width="1"/><path id="eUZWXBt7oT639" d="M50.210000,60.660000C50.272550,60.759161,50.358369,60.841548,50.460000,60.900000C50.565713,60.961109,50.680484,61.004992,50.800000,61.030000C50.932895,61.045288,51.067105,61.045288,51.200000,61.030000L51.530000,61.030000C51.636458,61.012053,51.740482,60.981852,51.840000,60.940000C51.935134,60.903399,52.018225,60.841080,52.080000,60.760000C52.145673,60.670043,52.180726,60.561376,52.180000,60.450000C52.188995,60.290632,52.112891,60.138425,51.980000,60.050000C51.828573,59.954959,51.663255,59.884109,51.490000,59.840000L50.850000,59.690000C50.633472,59.650774,50.422111,59.587031,50.220000,59.500000C50.031247,59.428581,49.862967,59.311816,49.730000,59.160000C49.584217,58.991721,49.512153,58.771928,49.530000,58.550000C49.528239,58.367126,49.576662,58.187271,49.670000,58.030000C49.757353,57.884622,49.877140,57.761413,50.020000,57.670000C50.166943,57.575527,50.329450,57.507816,50.500000,57.470000C50.675967,57.422158,50.857651,57.398606,51.040000,57.400000C51.251509,57.398172,51.462638,57.418280,51.670000,57.460000C51.853639,57.495941,52.029606,57.563621,52.190000,57.660000C52.340613,57.759320,52.461552,57.897536,52.540000,58.060000C52.635391,58.249912,52.689898,58.457717,52.700000,58.670000L52,58.670000C51.997209,58.556087,51.962567,58.445233,51.900000,58.350000C51.847443,58.261045,51.771302,58.188365,51.680000,58.140000C51.589566,58.086344,51.491905,58.045933,51.390000,58.020000C51.280243,58.009665,51.169757,58.009665,51.060000,58.020000L50.760000,58.020000C50.666394,58.037843,50.575591,58.068111,50.490000,58.110000C50.407375,58.139426,50.334633,58.191385,50.280000,58.260000C50.225228,58.335392,50.197085,58.426858,50.200000,58.520000C50.196022,58.628760,50.244351,58.732852,50.330000,58.800000C50.418611,58.884703,50.524306,58.949484,50.640000,58.990000C50.775448,59.044491,50.916209,59.084709,51.060000,59.110000L51.530000,59.220000L52.020000,59.350000C52.170969,59.395492,52.313025,59.466520,52.440000,59.560000C52.562271,59.647480,52.664534,59.759970,52.740000,59.890000C52.816105,60.038329,52.853918,60.203332,52.850000,60.370000C52.858658,60.583424,52.806648,60.794930,52.700000,60.980000C52.598068,61.138734,52.461263,61.272119,52.300000,61.370000C52.127119,61.472354,51.937554,61.543441,51.740000,61.580000C51.539101,61.619782,51.334800,61.639877,51.130000,61.640000C50.914864,61.638106,50.700459,61.614656,50.490000,61.570000C50.297767,61.526017,50.114910,61.448133,49.950000,61.340000C49.788443,61.231753,49.657556,61.083644,49.570000,60.910000C49.470004,60.714691,49.415315,60.499355,49.410000,60.280000L50.080000,60.280000C50.086952,60.416330,50.131990,60.547980,50.210000,60.660000Z" fill="rgb(121,126,246)" stroke="none" stroke-width="1"/><path id="eUZWXBt7oT640" d="M53.520000,58.710000C53.590431,58.447280,53.720463,58.204326,53.900000,58C54.069252,57.804252,54.281434,57.650248,54.520000,57.550000C54.784427,57.433302,55.071005,57.375304,55.360000,57.380000C55.652354,57.373846,55.942501,57.431876,56.210000,57.550000C56.444099,57.653061,56.652433,57.806750,56.820000,58C56.994315,58.192730,57.124053,58.421479,57.200000,58.670000C57.284387,58.938658,57.328203,59.218406,57.330000,59.500000C57.329913,59.781730,57.286056,60.061735,57.200000,60.330000C57.124053,60.578521,56.994315,60.807270,56.820000,61C56.652433,61.193250,56.444099,61.346939,56.210000,61.450000C55.939897,61.558546,55.651083,61.612911,55.360000,61.610000C55.072159,61.612909,54.786616,61.558519,54.520000,61.450000C54.281434,61.349752,54.069252,61.195748,53.900000,61C53.725685,60.807270,53.595947,60.578521,53.520000,60.330000C53.437490,60.061165,53.397013,59.781196,53.400000,59.500000C53.402300,59.232306,53.442705,58.966303,53.520000,58.710000ZM54.200000,60.200000C54.250904,60.376095,54.343522,60.537319,54.470000,60.670000C54.580159,60.797655,54.716607,60.899991,54.870000,60.970000C55.025880,61.032897,55.191940,61.066787,55.360000,61.070000C55.528161,61.067711,55.694389,61.033787,55.850000,60.970000C56.003393,60.899991,56.139841,60.797655,56.250000,60.670000C56.376478,60.537319,56.469096,60.376095,56.520000,60.200000C56.591817,59.987576,56.625667,59.764164,56.620000,59.540000C56.624908,59.319154,56.591063,59.099158,56.520000,58.890000C56.466804,58.711917,56.374566,58.547938,56.250000,58.410000C56.028270,58.150026,55.701621,58.003217,55.360000,58.010000C55.191427,58.008249,55.024406,58.042335,54.870000,58.110000C54.716607,58.180009,54.580159,58.282345,54.470000,58.410000C54.345434,58.547938,54.253196,58.711917,54.200000,58.890000C54.128937,59.099158,54.095092,59.319154,54.100000,59.540000C54.094333,59.764164,54.128183,59.987576,54.200000,60.200000Z" fill="rgb(121,126,246)" stroke="none" stroke-width="1"/><path id="eUZWXBt7oT641" d="M58.710000,57.520000L58.710000,58.370000L58.710000,58.370000C58.840252,58.079753,59.043532,57.828237,59.300000,57.640000C59.567696,57.478602,59.877937,57.401913,60.190000,57.420000L60.190000,58.130000C59.958301,58.121519,59.727209,58.158901,59.510000,58.240000C59.332940,58.302319,59.176994,58.413213,59.060000,58.560000C58.937704,58.707964,58.852049,58.882699,58.810000,59.070000C58.755201,59.295860,58.728333,59.527593,58.730000,59.760000L58.730000,61.560000L58.060000,61.560000L58.060000,57.560000Z" fill="rgb(121,126,246)" stroke="none" stroke-width="1"/><path id="eUZWXBt7oT642" d="M14.730000,69.390000L14.730000,68.750000L14.730000,68.750000C14.606805,68.981572,14.419273,69.172577,14.190000,69.300000C13.952127,69.421671,13.686990,69.480208,13.420000,69.470000C13.192428,69.477960,12.965329,69.444065,12.750000,69.370000C12.584767,69.305772,12.437320,69.202903,12.320000,69.070000C12.210243,68.931812,12.131772,68.771457,12.090000,68.600000C12.038121,68.403899,12.007940,68.202692,12,68L12,65.340000L12.660000,65.340000L12.660000,68.080000C12.648003,68.301699,12.727535,68.518604,12.880000,68.680000C13.043769,68.828588,13.258997,68.907504,13.480000,68.900000C13.661501,68.901590,13.841557,68.867618,14.010000,68.800000C14.154337,68.743019,14.281705,68.650075,14.380000,68.530000C14.485377,68.415369,14.563940,68.278738,14.610000,68.130000C14.659814,67.968125,14.683445,67.799331,14.680000,67.630000L14.680000,65.340000L15.350000,65.340000L15.350000,69.340000Z" fill="rgb(121,126,246)" stroke="none" stroke-width="1"/><path id="eUZWXBt7oT643" d="M17,65.340000L17,66L17,66C17.256692,65.521774,17.768260,65.236702,18.310000,65.270000C18.538544,65.259823,18.766707,65.297282,18.980000,65.380000C19.147464,65.439976,19.295900,65.543536,19.410000,65.680000C19.523691,65.815668,19.602633,65.976982,19.640000,66.150000C19.685376,66.346809,19.708852,66.548031,19.710000,66.750000L19.710000,69.410000L19,69.410000L19,66.650000C19.018861,66.428141,18.938169,66.209370,18.779762,66.052895C18.621355,65.896420,18.401611,65.818418,18.180000,65.840000C17.999250,65.836465,17.819451,65.866997,17.650000,65.930000C17.505663,65.986981,17.378295,66.079925,17.280000,66.200000C17.176807,66.314587,17.101511,66.451488,17.060000,66.600000C17.006795,66.761323,16.979786,66.930130,16.980000,67.100000L16.980000,69.390000L16.320000,69.390000L16.320000,65.390000Z" fill="rgb(121,126,246)" stroke="none" stroke-width="1"/><path id="eUZWXBt7oT644" d="M22.440000,65.340000L22.440000,65.930000L21.630000,65.930000L21.630000,68.440000C21.623443,68.503164,21.623443,68.566836,21.630000,68.630000C21.644967,68.673893,21.672853,68.712237,21.710000,68.740000C21.753597,68.771834,21.806022,68.789309,21.860000,68.790000L22.420000,68.790000L22.420000,69.380000L21.910000,69.380000C21.763834,69.397131,21.616166,69.397131,21.470000,69.380000C21.359134,69.368079,21.254510,69.322742,21.170000,69.250000C21.090686,69.184553,21.031707,69.097820,21,69C20.977857,68.834069,20.977857,68.665931,21,68.500000L21,65.930000L20.310000,65.930000L20.310000,65.340000L21,65.340000L21,64.130000L21.660000,64.130000L21.660000,65.340000Z" fill="rgb(121,126,246)" stroke="none" stroke-width="1"/><path id="eUZWXBt7oT645" d="M25.900000,69.390000L25.900000,68.750000L25.900000,68.750000C25.776805,68.981572,25.589273,69.172577,25.360000,69.300000C25.121680,69.420423,24.856869,69.478887,24.590000,69.470000C24.362428,69.477960,24.135329,69.444065,23.920000,69.370000C23.752536,69.310024,23.604100,69.206464,23.490000,69.070000C23.376309,68.934332,23.297367,68.773018,23.260000,68.600000C23.214624,68.403191,23.191148,68.201969,23.190000,68L23.190000,65.340000L23.860000,65.340000L23.860000,68.080000C23.848003,68.301699,23.927535,68.518604,24.080000,68.680000C24.242620,68.830476,24.458653,68.909687,24.680000,68.900000C24.861410,68.900587,25.041276,68.866650,25.210000,68.800000C25.354337,68.743019,25.481705,68.650075,25.580000,68.530000C25.683193,68.415413,25.758489,68.278512,25.800000,68.130000C25.853205,67.968677,25.880214,67.799870,25.880000,67.630000L25.880000,65.340000L26.540000,65.340000L26.540000,69.340000Z" fill="rgb(121,126,246)" stroke="none" stroke-width="1"/><path id="eUZWXBt7oT646" d="M28.230000,63.800000L28.230000,67.110000L30.080000,65.340000L31,65.340000L29.390000,66.810000L31.120000,69.390000L30.270000,69.390000L28.890000,67.280000L28.260000,67.850000L28.260000,69.390000L27.590000,69.390000L27.590000,63.800000Z" fill="rgb(121,126,246)" stroke="none" stroke-width="1"/><path id="eUZWXBt7oT647" d="M33.800000,64.610000L33.800000,63.800000L34.470000,63.800000L34.470000,64.610000ZM34.470000,65.340000L34.470000,69.340000L33.800000,69.340000L33.800000,65.340000Z" fill="rgb(121,126,246)" stroke="none" stroke-width="1"/><path id="eUZWXBt7oT648" d="M36.130000,65.340000L36.130000,66L36.130000,66C36.391915,65.521983,36.905887,65.237740,37.450000,65.270000C37.675294,65.259742,37.900211,65.297228,38.110000,65.380000C38.277464,65.439976,38.425900,65.543536,38.540000,65.680000C38.653691,65.815668,38.732633,65.976982,38.770000,66.150000C38.820197,66.345944,38.843742,66.547763,38.840000,66.750000L38.840000,69.410000L38.180000,69.410000L38.180000,66.650000C38.199342,66.426215,38.117365,66.205541,37.956610,66.048659C37.795854,65.891778,37.573247,65.815206,37.350000,65.840000C37.172434,65.835499,36.995725,65.866083,36.830000,65.930000C36.682673,65.986667,36.551988,66.079522,36.450000,66.200000C36.346807,66.314587,36.271511,66.451488,36.230000,66.600000C36.180186,66.761875,36.156555,66.930669,36.160000,67.100000L36.160000,69.390000L35.500000,69.390000L35.500000,65.390000Z" fill="rgb(121,126,246)" stroke="none" stroke-width="1"/><path id="eUZWXBt7oT649" d="M39.440000,65.930000L39.440000,65.340000L40.130000,65.340000L40.130000,64.740000C40.114825,64.461917,40.216302,64.190104,40.410000,63.990000C40.649369,63.805500,40.948700,63.716413,41.250000,63.740000L41.460000,63.740000L41.680000,63.740000L41.680000,64.320000C41.617097,64.309556,41.552903,64.309556,41.490000,64.320000L41.300000,64.320000C41.166319,64.315800,41.034298,64.350542,40.920000,64.420000C40.822704,64.513035,40.774593,64.646266,40.790000,64.780000L40.790000,65.340000L41.570000,65.340000L41.570000,65.930000L40.790000,65.930000L40.790000,69.390000L40.130000,69.390000L40.130000,65.930000Z" fill="rgb(121,126,246)" stroke="none" stroke-width="1"/><path id="eUZWXBt7oT650" d="M42.070000,66.540000C42.150874,66.290618,42.279989,66.059570,42.450000,65.860000C42.621338,65.666537,42.832961,65.512940,43.070000,65.410000C43.613111,65.196535,44.216889,65.196535,44.760000,65.410000C44.997039,65.512940,45.208662,65.666537,45.380000,65.860000C45.551193,66.057148,45.677446,66.289181,45.750000,66.540000C45.840799,66.807118,45.884779,67.087912,45.880000,67.370000C45.883990,67.652033,45.840031,67.932693,45.750000,68.200000C45.675271,68.446916,45.549180,68.675243,45.380000,68.870000C45.210905,69.063487,44.998460,69.214254,44.760000,69.310000C44.216889,69.523465,43.613111,69.523465,43.070000,69.310000C42.831540,69.214254,42.619095,69.063487,42.450000,68.870000C42.281117,68.673398,42.152058,68.445846,42.070000,68.200000C41.988260,67.930993,41.947799,67.651143,41.950000,67.370000C41.947013,67.088804,41.987490,66.808835,42.070000,66.540000ZM42.750000,68C42.811206,68.174572,42.902594,68.337040,43.020000,68.480000C43.131464,68.608113,43.272077,68.707570,43.430000,68.770000C43.744830,68.927070,44.115170,68.927070,44.430000,68.770000C44.587923,68.707570,44.728536,68.608113,44.840000,68.480000C44.957406,68.337040,45.048794,68.174572,45.110000,68C45.230116,67.574990,45.230116,67.125010,45.110000,66.700000C45.046546,66.523386,44.955407,66.357987,44.840000,66.210000C44.728536,66.081887,44.587923,65.982430,44.430000,65.920000C44.276185,65.850488,44.108752,65.816318,43.940000,65.820000C43.774578,65.817473,43.610650,65.851624,43.460000,65.920000C43.302077,65.982430,43.161464,66.081887,43.050000,66.210000C42.934593,66.357987,42.843454,66.523386,42.780000,66.700000C42.646505,67.123052,42.646505,67.576948,42.780000,68Z" fill="rgb(121,126,246)" stroke="none" stroke-width="1"/><path id="eUZWXBt7oT651" d="M47.260000,65.340000L47.260000,66.200000L47.260000,66.200000C47.387389,65.908005,47.591223,65.655804,47.850000,65.470000C48.119534,65.304168,48.434358,65.227211,48.750000,65.250000L48.750000,66C48.518524,65.994929,48.288071,66.032208,48.070000,66.110000C47.893381,66.178530,47.735675,66.288238,47.610000,66.430000C47.491466,66.584095,47.406325,66.761189,47.360000,66.950000C47.305201,67.175860,47.278333,67.407593,47.280000,67.640000L47.280000,69.440000L46.620000,69.440000L46.620000,65.440000Z" fill="rgb(121,126,246)" stroke="none" stroke-width="1"/><path id="eUZWXBt7oT652" d="M49.890000,65.340000L49.890000,65.940000L49.890000,65.940000C50.170504,65.490828,50.670925,65.227248,51.200000,65.250000C51.436454,65.245877,51.670193,65.300874,51.880000,65.410000C52.088068,65.522506,52.242791,65.713212,52.310000,65.940000C52.436876,65.724867,52.620148,65.548511,52.840000,65.430000C53.068008,65.309787,53.322251,65.247944,53.580000,65.250000C53.765747,65.246741,53.950991,65.270318,54.130000,65.320000C54.281976,65.357882,54.424798,65.425893,54.550000,65.520000C54.670075,65.618295,54.763019,65.745663,54.820000,65.890000C54.893458,66.056685,54.927670,66.238008,54.920000,66.420000L54.920000,69.420000L54.260000,69.420000L54.260000,66.740000C54.270822,66.620244,54.270822,66.499756,54.260000,66.380000C54.234534,66.281086,54.194065,66.186657,54.140000,66.100000C54.078820,66.015969,53.995827,65.950266,53.900000,65.910000C53.773740,65.856499,53.636925,65.832556,53.500000,65.840000C53.215123,65.819077,52.934897,65.920977,52.730000,66.120000C52.536302,66.320104,52.434825,66.591917,52.450000,66.870000L52.450000,69.390000L51.780000,69.390000L51.780000,66.740000C51.790822,66.620244,51.790822,66.499756,51.780000,66.380000C51.754067,66.278095,51.713656,66.180434,51.660000,66.090000C51.596266,66.008464,51.513985,65.943324,51.420000,65.900000C51.301551,65.856857,51.176013,65.836500,51.050000,65.840000C50.879713,65.831550,50.710335,65.869574,50.560000,65.950000C50.430231,66.021363,50.314923,66.116323,50.220000,66.230000C50.137957,66.331815,50.073718,66.446768,50.030000,66.570000C49.994731,66.666331,49.974494,66.767514,49.970000,66.870000L49.970000,69.390000L49.310000,69.390000L49.310000,65.390000Z" fill="rgb(121,126,246)" stroke="none" stroke-width="1"/><path id="eUZWXBt7oT653" d="M59.530000,69.370000C59.380777,69.442649,59.215819,69.477015,59.050000,69.470000C58.899935,69.481393,58.751757,69.430795,58.640000,69.330000C58.530177,69.199134,58.476291,69.030291,58.490000,68.860000C58.314313,69.062354,58.095660,69.222927,57.850000,69.330000C57.598458,69.428245,57.329984,69.475822,57.060000,69.470000C56.884917,69.470391,56.710393,69.450253,56.540000,69.410000C56.388611,69.375663,56.245741,69.311031,56.120000,69.220000C55.997749,69.127140,55.898519,69.007380,55.830000,68.870000C55.676802,68.522816,55.676802,68.127184,55.830000,67.780000C55.904225,67.640476,56.010462,67.520532,56.140000,67.430000C56.275309,67.338337,56.423635,67.267546,56.580000,67.220000C56.743957,67.169449,56.910960,67.129369,57.080000,67.100000L57.600000,67.020000C57.748777,67.006639,57.896042,66.979863,58.040000,66.940000C58.150545,66.914677,58.253415,66.863242,58.340000,66.790000C58.415775,66.717194,58.455956,66.614915,58.450000,66.510000C58.458039,66.386726,58.426508,66.264105,58.360000,66.160000C58.311443,66.071417,58.238583,65.998557,58.150000,65.950000C58.059779,65.902208,57.961427,65.871685,57.860000,65.860000C57.756904,65.850090,57.653096,65.850090,57.550000,65.860000C57.303280,65.848840,57.058086,65.904095,56.840000,66.020000C56.634799,66.147373,56.518777,66.379415,56.540000,66.620000L55.870000,66.620000C55.862765,66.405879,55.907363,66.193180,56,66C56.090000,65.833831,56.216504,65.690232,56.370000,65.580000C56.534600,65.471290,56.717566,65.393360,56.910000,65.350000C57.119729,65.300937,57.334624,65.277433,57.550000,65.280000C57.733016,65.264742,57.916984,65.264742,58.100000,65.280000C58.272094,65.301367,58.438459,65.355690,58.590000,65.440000C58.732952,65.522694,58.853198,65.639505,58.940000,65.780000C59.039146,65.952808,59.084415,66.151292,59.070000,66.350000L59.070000,68.420000C59.055769,68.536233,59.055769,68.653767,59.070000,68.770000C59.070000,68.840000,59.150000,68.880000,59.250000,68.880000L59.460000,68.880000ZM58.450000,67.300000C58.350370,67.368085,58.238194,67.415675,58.120000,67.440000L57.690000,67.510000C57.538851,67.520156,57.388529,67.540199,57.240000,67.570000C57.102364,67.588695,56.967842,67.625689,56.840000,67.680000C56.724814,67.729989,56.622300,67.805166,56.540000,67.900000C56.462564,68.018621,56.424107,68.158464,56.430000,68.300000C56.424148,68.395142,56.448659,68.489686,56.500000,68.570000C56.540022,68.646459,56.598445,68.711755,56.670000,68.760000C56.744539,68.805167,56.825443,68.838876,56.910000,68.860000C57.197006,68.915144,57.493432,68.894463,57.770000,68.800000C57.913212,68.748339,58.045490,68.670329,58.160000,68.570000C58.250458,68.487607,58.325026,68.389312,58.380000,68.280000C58.420029,68.184645,58.443694,68.083224,58.450000,67.980000Z" fill="rgb(121,126,246)" stroke="none" stroke-width="1"/><path id="eUZWXBt7oT654" d="M60.650000,68.480000C60.712220,68.582065,60.797935,68.667780,60.900000,68.730000C61.009238,68.791180,61.127310,68.835036,61.250000,68.860000C61.379793,68.870363,61.510207,68.870363,61.640000,68.860000L61.970000,68.860000C62.079933,68.848712,62.187689,68.821773,62.290000,68.780000C62.379257,68.733670,62.457654,68.668907,62.520000,68.590000C62.599565,68.483913,62.633728,68.350565,62.614975,68.219289C62.596221,68.088014,62.526087,67.969565,62.420000,67.890000C62.270724,67.790918,62.104698,67.719764,61.930000,67.680000C61.723561,67.616077,61.513096,67.565966,61.300000,67.530000C61.081377,67.486082,60.867172,67.422490,60.660000,67.340000C60.471247,67.268581,60.302967,67.151816,60.170000,67C60.030618,66.828164,59.959418,66.611005,59.970000,66.390000C59.966388,66.203742,60.014877,66.020177,60.110000,65.860000C60.200371,65.719708,60.319708,65.600371,60.460000,65.510000C60.611347,65.417085,60.776862,65.349528,60.950000,65.310000C61.122738,65.263054,61.300997,65.239510,61.480000,65.240000C61.694818,65.238193,61.909261,65.258297,62.120000,65.300000C62.301300,65.333177,62.474477,65.401090,62.630000,65.500000C62.779514,65.599278,62.902981,65.733034,62.990000,65.890000C63.086373,66.082617,63.137667,66.294632,63.140000,66.510000L62.480000,66.510000C62.471051,66.394039,62.436925,66.281423,62.380000,66.180000C62.319411,66.097762,62.244966,66.026701,62.160000,65.970000C62.066542,65.917491,61.965250,65.880350,61.860000,65.860000C61.753582,65.849695,61.646418,65.849695,61.540000,65.860000C61.440248,65.850042,61.339752,65.850042,61.240000,65.860000C61.142681,65.869957,61.047889,65.897041,60.960000,65.940000C60.881255,65.976181,60.812584,66.031118,60.760000,66.100000C60.700944,66.169265,60.672127,66.259318,60.680000,66.350000C60.676348,66.459441,60.720085,66.565138,60.800000,66.640000C60.889363,66.721355,60.995046,66.782719,61.110000,66.820000C61.245014,66.878049,61.385801,66.921626,61.530000,66.950000L62,67.060000C62.165967,67.092715,62.329643,67.136140,62.490000,67.190000C62.640969,67.235492,62.783025,67.306520,62.910000,67.400000C63.032450,67.483150,63.134914,67.592446,63.210000,67.720000C63.291902,67.869782,63.330020,68.039582,63.320000,68.210000C63.342140,68.620892,63.128867,69.008662,62.770000,69.210000C62.600643,69.312211,62.414381,69.383329,62.220000,69.420000C62.013586,69.434447,61.806414,69.434447,61.600000,69.420000C61.399884,69.435910,61.198612,69.429201,61,69.400000C60.806203,69.360947,60.622439,69.282677,60.460000,69.170000C60.299145,69.065216,60.168216,68.920505,60.080000,68.750000C59.983608,68.550270,59.932395,68.331760,59.930000,68.110000L60.590000,68.110000C60.580796,68.236328,60.601346,68.363054,60.650000,68.480000Z" fill="rgb(121,126,246)" stroke="none" stroke-width="1"/><path id="eUZWXBt7oT655" d="M64.100000,64.610000L64.100000,63.800000L64.760000,63.800000L64.760000,64.610000ZM64.760000,65.340000L64.760000,69.340000L64.100000,69.340000L64.100000,65.340000Z" fill="rgb(121,126,246)" stroke="none" stroke-width="1"/><path id="eUZWXBt7oT656" d="M20.760000,71.630000L20.760000,77.210000L20.090000,77.210000L20.090000,71.630000Z" fill="rgb(121,126,246)" stroke="none" stroke-width="1"/><path id="eUZWXBt7oT657" d="M24.660000,77C24.324386,77.236507,23.920264,77.355986,23.510000,77.340000C23.221740,77.347847,22.935191,77.293267,22.670000,77.180000C22.443007,77.078668,22.238900,76.932392,22.070000,76.750000C21.905577,76.549793,21.783144,76.318531,21.710000,76.070000C21.625473,75.794216,21.578385,75.508325,21.570000,75.220000C21.566860,74.929817,21.617725,74.641581,21.720000,74.370000C21.806225,74.126910,21.938658,73.902794,22.110000,73.710000C22.278324,73.524420,22.482407,73.374759,22.710000,73.270000C22.952965,73.164384,23.215072,73.109920,23.480000,73.110000C23.792589,73.099694,24.101543,73.179536,24.370000,73.340000C24.602233,73.482466,24.797534,73.677767,24.940000,73.910000C25.089971,74.136993,25.192052,74.392198,25.240000,74.660000C25.296449,74.912573,25.319978,75.171388,25.310000,75.430000L22.310000,75.430000C22.299062,75.602228,22.319390,75.775013,22.370000,75.940000C22.414273,76.095447,22.492871,76.238974,22.600000,76.360000C22.709379,76.486009,22.846227,76.585224,23,76.650000C23.178848,76.730533,23.374028,76.768199,23.570000,76.760000C23.814354,76.771669,24.056063,76.705111,24.260000,76.570000C24.448339,76.419879,24.576170,76.206827,24.620000,75.970000L25.270000,75.970000C25.206607,76.378974,24.988159,76.747829,24.660000,77ZM24.500000,74.400000C24.441642,74.261517,24.356708,74.135814,24.250000,74.030000C24.146579,73.927559,24.024338,73.846065,23.890000,73.790000C23.747996,73.728696,23.594659,73.698029,23.440000,73.700000C23.278781,73.697008,23.118709,73.727660,22.970000,73.790000C22.832990,73.845687,22.710037,73.931071,22.610000,74.040000C22.514152,74.146607,22.436452,74.268223,22.380000,74.400000C22.322035,74.539960,22.288223,74.688735,22.280000,74.840000L24.600000,74.840000C24.596471,74.675211,24.562571,74.512488,24.500000,74.360000Z" fill="rgb(121,126,246)" stroke="none" stroke-width="1"/><path id="eUZWXBt7oT658" d="M26.680000,71.630000L26.680000,73.720000L26.680000,73.720000C26.787078,73.498204,26.972240,73.323725,27.200000,73.230000C27.442965,73.124384,27.705072,73.069920,27.970000,73.070000C28.253813,73.063372,28.535057,73.125108,28.790000,73.250000C29.014090,73.359956,29.211900,73.516839,29.370000,73.710000C29.525648,73.914383,29.644121,74.144559,29.720000,74.390000C29.866875,74.923407,29.866875,75.486593,29.720000,76.020000C29.647461,76.261795,29.532320,76.488691,29.380000,76.690000C29.221523,76.880219,29.023631,77.033757,28.800000,77.140000C28.544798,77.251443,28.268408,77.306038,27.990000,77.300000L27.650000,77.300000C27.527602,77.275994,27.407244,77.242561,27.290000,77.200000C27.186392,77.144006,27.089158,77.076947,27,77C26.889502,76.916481,26.797560,76.810917,26.730000,76.690000L26.730000,76.690000L26.730000,77.230000L26,77.230000L26,71.630000ZM29.080000,74.630000C29.031966,74.457791,28.954122,74.295333,28.850000,74.150000C28.750765,74.008088,28.616380,73.894377,28.460000,73.820000C28.287662,73.729114,28.094752,73.684331,27.900000,73.690000C27.504490,73.657920,27.122357,73.841344,26.900000,74.170000C26.799904,74.318726,26.728667,74.484947,26.690000,74.660000C26.641576,74.842667,26.618030,75.031034,26.620000,75.220000C26.617372,75.412296,26.640921,75.604054,26.690000,75.790000C26.732618,75.965458,26.807196,76.131564,26.910000,76.280000C27.143701,76.594112,27.519025,76.770514,27.910000,76.750000C28.108293,76.759380,28.305383,76.714430,28.480000,76.620000C28.631474,76.537223,28.758942,76.416645,28.850000,76.270000C28.950199,76.117690,29.021394,75.948178,29.060000,75.770000C29.099708,75.579216,29.119812,75.384873,29.120000,75.190000C29.129148,74.992452,29.115728,74.794505,29.080000,74.600000Z" fill="rgb(121,126,246)" stroke="none" stroke-width="1"/><path id="eUZWXBt7oT659" d="M30.680000,72.440000L30.680000,71.630000L31.340000,71.630000L31.340000,72.440000ZM31.340000,73.170000L31.340000,77.170000L30.680000,77.170000L30.680000,73.170000Z" fill="rgb(121,126,246)" stroke="none" stroke-width="1"/><path id="eUZWXBt7oT660" d="M33,71.630000L33,73.760000L33,73.760000C33.052838,73.643551,33.127520,73.538316,33.220000,73.450000C33.313702,73.361999,33.421978,73.290943,33.540000,73.240000C33.657652,73.181934,33.781884,73.138285,33.910000,73.110000C34.033158,73.100712,34.156842,73.100712,34.280000,73.110000C34.508223,73.104787,34.735424,73.142088,34.950000,73.220000C35.283277,73.352460,35.530071,73.640385,35.610000,73.990000C35.651774,74.187221,35.671893,74.388413,35.670000,74.590000L35.670000,77.250000L35.010000,77.250000L35.010000,74.480000C35.028393,74.257391,34.947927,74.037962,34.789982,73.880018C34.632038,73.722073,34.412609,73.641607,34.190000,73.660000C34.008085,73.653375,33.826994,73.687544,33.660000,73.760000C33.518432,73.817277,33.391862,73.906218,33.290000,74.020000C33.188787,74.137631,33.110748,74.273352,33.060000,74.420000C33.010914,74.585461,32.987310,74.757432,32.990000,74.930000L32.990000,77.210000L32.320000,77.210000L32.320000,71.630000Z" fill="rgb(121,126,246)" stroke="none" stroke-width="1"/><path id="eUZWXBt7oT661" d="M39.610000,71.630000L39.610000,77.210000L38.940000,77.210000L38.940000,71.630000Z" fill="rgb(121,126,246)" stroke="none" stroke-width="1"/><path id="eUZWXBt7oT662" d="M44.220000,77.200000C44.075465,77.275796,43.912872,77.310390,43.750000,77.300000C43.600380,77.308044,43.453453,77.257874,43.340000,77.160000C43.220837,77.030032,43.162651,76.855473,43.180000,76.680000C43.011694,76.892580,42.791202,77.057949,42.540000,77.160000C42.290559,77.253282,42.026312,77.300711,41.760000,77.300000C41.584886,77.300958,41.410294,77.280813,41.240000,77.240000C41.084232,77.204213,40.937729,77.136072,40.810000,77.040000C40.687749,76.947140,40.588519,76.827380,40.520000,76.690000C40.446671,76.526805,40.412430,76.348752,40.420000,76.170000C40.412567,75.976238,40.453824,75.783703,40.540000,75.610000C40.612914,75.466840,40.719248,75.343356,40.850000,75.250000C40.978872,75.155849,41.124964,75.087899,41.280000,75.050000C41.447637,75.000548,41.617901,74.960486,41.790000,74.930000C41.961829,74.894334,42.135397,74.867631,42.310000,74.850000L42.740000,74.770000C42.852052,74.749015,42.955981,74.697050,43.040000,74.620000C43.117369,74.544109,43.157575,74.438112,43.150000,74.330000C43.153316,74.208450,43.125793,74.088040,43.070000,73.980000C43.015693,73.898589,42.943962,73.830273,42.860000,73.780000C42.771083,73.729143,42.672087,73.698420,42.570000,73.690000L42.250000,73.690000C42.006456,73.678659,41.764433,73.733979,41.550000,73.850000C41.347557,73.985534,41.230142,74.216575,41.240000,74.460000L40.580000,74.460000C40.583668,74.238396,40.634818,74.020156,40.730000,73.820000C40.821016,73.654159,40.951539,73.513331,41.110000,73.410000C41.267840,73.295707,41.448711,73.217216,41.640000,73.180000C41.852600,73.126960,42.070884,73.100094,42.290000,73.100000C42.469863,73.090074,42.650137,73.090074,42.830000,73.100000C43.001388,73.124461,43.167202,73.178605,43.320000,73.260000C43.466606,73.341361,43.590401,73.458278,43.680000,73.600000C43.769662,73.776377,43.814321,73.972188,43.810000,74.170000L43.810000,76.250000C43.795671,76.362880,43.795671,76.477120,43.810000,76.590000C43.810000,76.670000,43.890000,76.700000,43.990000,76.700000L44.190000,76.700000ZM43.140000,75.120000C43.043562,75.193741,42.930044,75.241901,42.810000,75.260000L42.390000,75.330000L41.940000,75.390000C41.798686,75.411953,41.660850,75.452295,41.530000,75.510000C41.414077,75.553718,41.313335,75.630143,41.240000,75.730000C41.154888,75.841590,41.112342,75.979865,41.120000,76.120000C41.120599,76.217589,41.144605,76.313610,41.190000,76.400000C41.233051,76.471536,41.291038,76.532935,41.360000,76.580000C41.435153,76.630960,41.520434,76.665072,41.610000,76.680000C41.709707,76.690823,41.810293,76.690823,41.910000,76.680000C42.100583,76.684246,42.290345,76.653749,42.470000,76.590000C42.609621,76.541754,42.738639,76.467059,42.850000,76.370000C42.946457,76.289208,43.021937,76.186280,43.070000,76.070000C43.116671,75.976922,43.140658,75.874122,43.140000,75.770000Z" fill="rgb(121,126,246)" stroke="none" stroke-width="1"/><path id="eUZWXBt7oT663" d="M45.470000,73.170000L45.470000,73.810000L45.470000,73.810000C45.730966,73.329900,46.244268,73.042140,46.790000,73.070000C47.014975,73.064616,47.238931,73.101942,47.450000,73.180000C47.615339,73.248759,47.762515,73.354863,47.880000,73.490000C47.991046,73.625023,48.072778,73.781677,48.120000,73.950000C48.161774,74.147221,48.181893,74.348413,48.180000,74.550000L48.180000,77.210000L47.520000,77.210000L47.520000,74.480000C47.527504,74.258997,47.448588,74.043769,47.300000,73.880000C47.135531,73.725968,46.914924,73.646405,46.690000,73.660000C46.511409,73.654532,46.333824,73.688683,46.170000,73.760000C46.024834,73.815929,45.894719,73.904955,45.790000,74.020000C45.695426,74.140498,45.621119,74.275602,45.570000,74.420000C45.520914,74.585461,45.497310,74.757432,45.500000,74.930000L45.500000,77.210000L44.830000,77.210000L44.830000,73.210000Z" fill="rgb(121,126,246)" stroke="none" stroke-width="1"/><path id="eUZWXBt7oT664" d="M49.640000,78.510000C49.444927,78.682625,49.190194,78.772320,48.930000,78.760000C48.816902,78.770324,48.703098,78.770324,48.590000,78.760000L48.590000,78.180000L48.660000,78.180000L48.860000,78.180000C48.970992,78.193405,49.080933,78.147912,49.150000,78.060000C49.217953,77.923921,49.245704,77.771290,49.230000,77.620000L49.230000,73.170000L49.900000,73.170000L49.900000,77.720000C49.924573,78.007757,49.830668,78.293082,49.640000,78.510000ZM49.230000,72.440000L49.230000,71.630000L49.900000,71.630000L49.900000,72.440000Z" fill="rgb(121,126,246)" stroke="none" stroke-width="1"/><path id="eUZWXBt7oT665" d="M53.650000,77.210000L53.650000,76.570000L53.650000,76.570000C53.529738,76.803706,53.341461,76.995471,53.110000,77.120000C52.869300,77.244711,52.601008,77.306624,52.330000,77.300000C52.105730,77.307413,51.882008,77.273516,51.670000,77.200000C51.504661,77.131241,51.357485,77.025137,51.240000,76.890000C51.126386,76.758104,51.047349,76.600029,51.010000,76.430000C50.959803,76.234056,50.936258,76.032237,50.940000,75.830000L50.940000,73.170000L51.610000,73.170000L51.610000,75.910000C51.595892,76.129033,51.675929,76.343677,51.830000,76.500000C51.989401,76.655659,52.207759,76.735723,52.430000,76.720000C52.610750,76.723535,52.790549,76.693003,52.960000,76.630000C53.102562,76.569838,53.229217,76.477414,53.330000,76.360000C53.430255,76.243350,53.505173,76.107136,53.550000,75.960000C53.603260,75.795250,53.630257,75.623144,53.630000,75.450000L53.630000,73.170000L54.290000,73.170000L54.290000,77.170000Z" fill="rgb(121,126,246)" stroke="none" stroke-width="1"/><path id="eUZWXBt7oT666" d="M57,73.170000L57,73.760000L56.200000,73.760000L56.200000,76.270000C56.188555,76.332816,56.188555,76.397184,56.200000,76.460000C56.209628,76.503776,56.234422,76.542738,56.270000,76.570000C56.317219,76.594073,56.367781,76.610927,56.420000,76.620000L57,76.620000L57,77.200000L56.500000,77.200000C56.353567,77.211709,56.206433,77.211709,56.060000,77.200000C55.951029,77.181327,55.848141,77.136742,55.760000,77.070000C55.680004,76.996992,55.621260,76.903693,55.590000,76.800000C55.553917,76.652798,55.537110,76.501532,55.540000,76.350000L55.540000,73.760000L54.850000,73.760000L54.850000,73.170000L55.540000,73.170000L55.540000,72L56.210000,72L56.210000,73.220000Z" fill="rgb(121,126,246)" stroke="none" stroke-width="1"/></g><script><![CDATA[!function(t,n){"object"==typeof exports&&"undefined"!=typeof module?module.exports=n():"function"==typeof define&&define.amd?define(n):(t="undefined"!=typeof globalThis?globalThis:t||self).__SVGATOR_PLAYER__=n()}(this,(function(){"use strict";function t(n){return(t="function"==typeof Symbol&&"symbol"==typeof Symbol.iterator?function(t){return typeof t}:function(t){return t&&"function"==typeof Symbol&&t.constructor===Symbol&&t!==Symbol.prototype?"symbol":typeof t})(n)}function n(t,n){if(!(t instanceof n))throw new TypeError("Cannot call a class as a function")}function e(t,n){for(var e=0;e<n.length;e++){var r=n[e];r.enumerable=r.enumerable||!1,r.configurable=!0,"value"in r&&(r.writable=!0),Object.defineProperty(t,r.key,r)}}function r(t,n,r){return n&&e(t.prototype,n),r&&e(t,r),t}function i(t){return(i=Object.setPrototypeOf?Object.getPrototypeOf:function(t){return t.__proto__||Object.getPrototypeOf(t)})(t)}function u(t,n){return(u=Object.setPrototypeOf||function(t,n){return t.__proto__=n,t})(t,n)}function o(t,n){return!n||"object"!=typeof n&&"function"!=typeof n?function(t){if(void 0===t)throw new ReferenceError("this hasn't been initialised - super() hasn't been called");return t}(t):n}function a(t){var n=function(){if("undefined"==typeof Reflect||!Reflect.construct)return!1;if(Reflect.construct.sham)return!1;if("function"==typeof Proxy)return!0;try{return Boolean.prototype.valueOf.call(Reflect.construct(Boolean,[],(function(){}))),!0}catch(t){return!1}}();return function(){var e,r=i(t);if(n){var u=i(this).constructor;e=Reflect.construct(r,arguments,u)}else e=r.apply(this,arguments);return o(this,e)}}function l(t,n,e){return(l="undefined"!=typeof Reflect&&Reflect.get?Reflect.get:function(t,n,e){var r=function(t,n){for(;!Object.prototype.hasOwnProperty.call(t,n)&&null!==(t=i(t)););return t}(t,n);if(r){var u=Object.getOwnPropertyDescriptor(r,n);return u.get?u.get.call(e):u.value}})(t,n,e||t)}var s=Math.abs;function f(t){return t}function c(t,n,e){var r=1-e;return 3*e*r*(t*r+n*e)+e*e*e}function h(){var t=arguments.length>0&&void 0!==arguments[0]?arguments[0]:0,n=arguments.length>1&&void 0!==arguments[1]?arguments[1]:0,e=arguments.length>2&&void 0!==arguments[2]?arguments[2]:1,r=arguments.length>3&&void 0!==arguments[3]?arguments[3]:1;return t<0||t>1||e<0||e>1?null:s(t-n)<=1e-5&&s(e-r)<=1e-5?f:function(i){if(i<=0)return t>0?i*n/t:0===n&&e>0?i*r/e:0;if(i>=1)return e<1?1+(i-1)*(r-1)/(e-1):1===e&&t<1?1+(i-1)*(n-1)/(t-1):1;for(var u,o=0,a=1;o<a;){var l=c(t,e,u=(o+a)/2);if(s(i-l)<1e-5)break;l<i?o=u:a=u}return c(n,r,u)}}function v(){return 1}function d(t){return 1===t?1:0}function y(){var t=arguments.length>0&&void 0!==arguments[0]?arguments[0]:1,n=arguments.length>1&&void 0!==arguments[1]?arguments[1]:0;if(1===t){if(0===n)return d;if(1===n)return v}var e=1/t;return function(t){return t>=1?1:(t+=n*e)-t%e}}function g(t){var n=arguments.length>1&&void 0!==arguments[1]?arguments[1]:2;if(Number.isInteger(t))return t;var e=Math.pow(10,n);return Math.round(t*e)/e}var p=Math.PI/180;function m(t,n,e){return t>=.5?e:n}function b(t,n,e){return 0===t||n===e?n:t*(e-n)+n}function w(t,n,e){var r=b(t,n,e);return r<=0?0:r}function x(t,n,e){return 0===t?n:1===t?e:{x:b(t,n.x,e.x),y:b(t,n.y,e.y)}}function A(t,n,e){return 0===t?n:1===t?e:{x:w(t,n.x,e.x),y:w(t,n.y,e.y)}}function k(t,n,e){var r=function(t,n,e){return Math.round(b(t,n,e))}(t,n,e);return r<=0?0:r>=255?255:r}function _(t,n,e){return 0===t?n:1===t?e:{r:k(t,n.r,e.r),g:k(t,n.g,e.g),b:k(t,n.b,e.b),a:b(t,null==n.a?1:n.a,null==e.a?1:e.a)}}function S(t,n,e){if(0===t)return n;if(1===t)return e;var r=n.length;if(r!==e.length)return m(t,n,e);for(var i=[],u=0;u<r;u++)i.push(_(t,n[u],e[u]));return i}function M(t,n,e){var r=n.length;if(r!==e.length)return m(t,n,e);for(var i=new Array(r),u=0;u<r;u++)i[u]=b(t,n[u],e[u]);return i}function O(t,n){for(var e=[],r=0;r<t;r++)e.push(n);return e}function E(t,n){if(--n<=0)return t;var e=(t=Object.assign([],t)).length;do{for(var r=0;r<e;r++)t.push(t[r])}while(--n>0);return t}var B,I=function(){function t(e){n(this,t),this.list=e,this.length=e.length}return r(t,[{key:"setAttribute",value:function(t,n){for(var e=this.list,r=0;r<this.length;r++)e[r].setAttribute(t,n)}},{key:"removeAttribute",value:function(t){for(var n=this.list,e=0;e<this.length;e++)n[e].removeAttribute(t)}},{key:"style",value:function(t,n){for(var e=this.list,r=0;r<this.length;r++)e[r].style[t]=n}}]),t}(),j=/-./g,P=function(t,n){return n.toUpperCase()};function T(t){return"function"==typeof t?t:m}function F(t){return t?"function"==typeof t?t:Array.isArray(t)?function(t){var n=arguments.length>1&&void 0!==arguments[1]?arguments[1]:f;if(!Array.isArray(t))return n;switch(t.length){case 1:return y(t[0])||n;case 2:return y(t[0],t[1])||n;case 4:return h(t[0],t[1],t[2],t[3])||n}return n}(t,null):function(t,n){var e=arguments.length>2&&void 0!==arguments[2]?arguments[2]:f;switch(t){case"linear":return f;case"steps":return y(n.steps||1,n.jump||0)||e;case"bezier":case"cubic-bezier":return h(n.x1||0,n.y1||0,n.x2||0,n.y2||0)||e}return e}(t.type,t.value,null):null}function R(t,n,e){var r=arguments.length>3&&void 0!==arguments[3]&&arguments[3],i=n.length-1;if(t<=n[0].t)return r?[0,0,n[0].v]:n[0].v;if(t>=n[i].t)return r?[i,1,n[i].v]:n[i].v;var u,o=n[0],a=null;for(u=1;u<=i;u++){if(!(t>n[u].t)){a=n[u];break}o=n[u]}return null==a?r?[i,1,n[i].v]:n[i].v:o.t===a.t?r?[u,1,a.v]:a.v:(t=(t-o.t)/(a.t-o.t),o.e&&(t=o.e(t)),r?[u,t,e(t,o.v,a.v)]:e(t,o.v,a.v))}function C(t,n){var e=arguments.length>2&&void 0!==arguments[2]?arguments[2]:null;return t&&t.length?"function"!=typeof n?null:("function"!=typeof e&&(e=null),function(r){var i=R(r,t,n);return null!=i&&e&&(i=e(i)),i}):null}function N(t,n){return t.t-n.t}function q(n,e,r,i,u){var o,a="@"===r[0],l="#"===r[0],s=B[r],f=m;switch(a?(o=r.substr(1),r=o.replace(j,P)):l&&(r=r.substr(1)),t(s)){case"function":if(f=s(i,u,R,F,r,a,e,n),l)return f;break;case"string":f=C(i,T(s));break;case"object":if((f=C(i,T(s.i),s.f))&&"function"==typeof s.u)return s.u(e,f,r,a,n)}return f?function(t,n,e){var r=arguments.length>3&&void 0!==arguments[3]&&arguments[3];if(r)return t instanceof I?function(r){return t.style(n,e(r))}:function(r){return t.style[n]=e(r)};if(Array.isArray(n)){var i=n.length;return function(r){var u=e(r);if(null==u)for(var o=0;o<i;o++)t[o].removeAttribute(n);else for(var a=0;a<i;a++)t[a].setAttribute(n,u)}}return function(r){var i=e(r);null==i?t.removeAttribute(n):t.setAttribute(n,i)}}(e,r,f,a):null}function V(n,e,r,i){if(!i||"object"!==t(i))return null;var u=null,o=null;return Array.isArray(i)?o=function(t){if(!t||!t.length)return null;for(var n=0;n<t.length;n++)t[n].e&&(t[n].e=F(t[n].e));return t.sort(N)}(i):(o=i.keys,u=i.data||null),o?q(n,e,r,o,u):null}function L(t,n,e){if(!e)return null;var r=[];for(var i in e)if(e.hasOwnProperty(i)){var u=V(t,n,i,e[i]);u&&r.push(u)}return r.length?r:null}function z(t,n){if(!n.duration||n.duration<0)return null;var e=function(t,n){if(!n)return null;var e=[];if(Array.isArray(n))for(var r=n.length,i=0;i<r;i++){var u=n[i];if(2===u.length){var o=null;if("string"==typeof u[0])o=t.getElementById(u[0]);else if(Array.isArray(u[0])){o=[];for(var a=0;a<u[0].length;a++)if("string"==typeof u[0][a]){var l=t.getElementById(u[0][a]);l&&o.push(l)}o=o.length?1===o.length?o[0]:new I(o):null}if(o){var s=L(t,o,u[1]);s&&(e=e.concat(s))}}}else for(var f in n)if(n.hasOwnProperty(f)){var c=t.getElementById(f);if(c){var h=L(t,c,n[f]);h&&(e=e.concat(h))}}return e.length?e:null}(t,n.elements);return e?function(t,n){var e=arguments.length>2&&void 0!==arguments[2]?arguments[2]:1/0,r=arguments.length>3&&void 0!==arguments[3]?arguments[3]:1,i=arguments.length>4&&void 0!==arguments[4]&&arguments[4],u=arguments.length>5&&void 0!==arguments[5]?arguments[5]:1,o=t.length,a=r>0?n:0;i&&e%2==0&&(a=n-a);var l=null;return function(s,f){var c=s%n,h=1+(s-c)/n;f*=r,i&&h%2==0&&(f=-f);var v=!1;if(h>e)c=a,v=!0,-1===u&&(c=r>0?0:n);else if(f<0&&(c=n-c),c===l)return!1;l=c;for(var d=0;d<o;d++)t[d](c);return v}}(e,n.duration,n.iterations||1/0,n.direction||1,!!n.alternate,n.fill||1):null}var D=function(){function t(e,r){var i=arguments.length>2&&void 0!==arguments[2]?arguments[2]:{};n(this,t),this._id=0,this._running=!1,this._rollingBack=!1,this._animations=e,this.duration=r.duration,this.alternate=r.alternate,this.fill=r.fill,this.iterations=r.iterations,this.direction=i.direction||1,this.speed=i.speed||1,this.fps=i.fps||100,this.offset=i.offset||0,this.rollbackStartOffset=0}return r(t,[{key:"_rollback",value:function(){var t=this,n=1/0,e=null;this.rollbackStartOffset=this.offset,this._rollingBack||(this._rollingBack=!0,this._running=!0);this._id=window.requestAnimationFrame((function r(i){if(t._rollingBack){null==e&&(e=i);var u=i-e,o=t.rollbackStartOffset-u,a=Math.round(o*t.speed);if(a>t.duration&&n!=1/0){var l=!!t.alternate&&a/t.duration%2>1,s=a%t.duration;a=(s+=l?t.duration:0)||t.duration}var f=t.fps?1e3/t.fps:0,c=Math.max(0,a);if(c<n-f){t.offset=c,n=c;for(var h=t._animations,v=h.length,d=0;d<v;d++)h[d](c,t.direction)}var y=!1;if(t.iterations>0&&-1===t.fill){var g=t.iterations*t.duration,p=g==a;a=p?0:a,t.offset=p?0:t.offset,y=a>g}a>0&&t.offset>=a&&!y?t._id=window.requestAnimationFrame(r):t.stop()}}))}},{key:"_start",value:function(){var t=this,n=arguments.length>0&&void 0!==arguments[0]?arguments[0]:0,e=-1/0,r=null,i={},u=function u(o){t._running=!0,null==r&&(r=o);var a=Math.round((o-r+n)*t.speed),l=t.fps?1e3/t.fps:0;if(a>e+l&&!t._rollingBack){t.offset=a,e=a;for(var s=t._animations,f=s.length,c=0,h=0;h<f;h++)i[h]?c++:(i[h]=s[h](a,t.direction),i[h]&&c++);if(c===f)return void t._stop()}t._id=window.requestAnimationFrame(u)};this._id=window.requestAnimationFrame(u)}},{key:"_stop",value:function(){this._id&&window.cancelAnimationFrame(this._id),this._running=!1,this._rollingBack=!1}},{key:"play",value:function(){!this._rollingBack&&this._running||(this._rollingBack=!1,this.rollbackStartOffset>this.duration&&(this.offset=this.rollbackStartOffset-(this.rollbackStartOffset-this.offset)%this.duration,this.rollbackStartOffset=0),this._start(this.offset))}},{key:"stop",value:function(){this._stop(),this.offset=0,this.rollbackStartOffset=0;var t=this.direction,n=this._animations;window.requestAnimationFrame((function(){for(var e=0;e<n.length;e++)n[e](0,t)}))}},{key:"reachedToEnd",value:function(){return this.iterations>0&&this.offset>=this.iterations*this.duration}},{key:"restart",value:function(){this._stop(),this.offset=0,this._start()}},{key:"pause",value:function(){this._stop()}},{key:"reverse",value:function(){this.direction=-this.direction}}],[{key:"build",value:function(n,e){return(n=function(t,n){if(B=n,!t||!t.root||!Array.isArray(t.animations))return null;for(var e=document.getElementsByTagName("svg"),r=!1,i=0;i<e.length;i++)if(e[i].id===t.root&&!e[i].svgatorAnimation){(r=e[i]).svgatorAnimation=!0;break}if(!r)return null;var u=t.animations.map((function(t){return z(r,t)})).filter((function(t){return!!t}));return u.length?{element:r,animations:u,animationSettings:t.animationSettings,options:t.options||void 0}:null}(n,e))?{el:n.element,options:n.options||{},player:new t(n.animations,n.animationSettings,n.options)}:null}}]),t}();!function(){for(var t=0,n=["ms","moz","webkit","o"],e=0;e<n.length&&!window.requestAnimationFrame;++e)window.requestAnimationFrame=window[n[e]+"RequestAnimationFrame"],window.cancelAnimationFrame=window[n[e]+"CancelAnimationFrame"]||window[n[e]+"CancelRequestAnimationFrame"];window.requestAnimationFrame||(window.requestAnimationFrame=function(n){var e=Date.now(),r=Math.max(0,16-(e-t)),i=window.setTimeout((function(){n(e+r)}),r);return t=e+r,i},window.cancelAnimationFrame=window.clearTimeout)}();var U=function(t,n){var e=!1,r=null;return function(i){e&&clearTimeout(e),e=setTimeout((function(){return function(){for(var i=0,u=window.innerHeight,o=0,a=window.innerWidth,l=t.parentNode;l instanceof Element;){var s=window.getComputedStyle(l);if("visible"!==s.overflowY||"visible"!==s.overflowX){var f=l.getBoundingClientRect();"visible"!==s.overflowY&&(i=Math.max(i,f.top),u=Math.min(u,f.bottom)),"visible"!==s.overflowX&&(o=Math.max(o,f.left),a=Math.min(a,f.right))}if(l===l.parentNode)break;l=l.parentNode}e=!1;var c=t.getBoundingClientRect(),h=Math.min(c.height,Math.max(0,i-c.top)),v=Math.min(c.height,Math.max(0,c.bottom-u)),d=Math.min(c.width,Math.max(0,o-c.left)),y=Math.min(c.width,Math.max(0,c.right-a)),g=(c.height-h-v)/c.height,p=(c.width-d-y)/c.width,m=Math.round(g*p*100);null!==r&&r===m||(r=m,n(m))}()}),100)}},W=function(){function t(e,r,i){n(this,t),r=Math.max(1,r||1),r=Math.min(r,100),this.el=e,this.onTresholdChange=i&&i.call?i:function(){},this.tresholdPercent=r||1,this.currentVisibility=null,this.visibilityCalculator=U(e,this.onVisibilityUpdate.bind(this)),this.bindScrollWatchers(),this.visibilityCalculator()}return r(t,[{key:"bindScrollWatchers",value:function(){for(var t=this.el.parentNode;t&&(t.addEventListener("scroll",this.visibilityCalculator),t!==t.parentNode&&t!==document);)t=t.parentNode}},{key:"onVisibilityUpdate",value:function(t){var n=this.currentVisibility>=this.tresholdPercent,e=t>=this.tresholdPercent;if(null===this.currentVisibility||n!==e)return this.currentVisibility=t,void this.onTresholdChange(e);this.currentVisibility=t}}]),t}(),Y=/\.0+$/g;function G(t){return Number.isInteger(t)?t+"":t.toFixed(6).replace(Y,"")}function H(t){var n=arguments.length>1&&void 0!==arguments[1]?arguments[1]:" ";return t&&t.length?t.map(G).join(n):""}function Q(t){return G(t.x)+","+G(t.y)}function X(t){return t?null==t.a||t.a>=1?"rgb("+t.r+","+t.g+","+t.b+")":"rgba("+t.r+","+t.g+","+t.b+","+t.a+")":"transparent"}var $={f:null,i:A,u:function(t,n){return function(e){var r=n(e);t.setAttribute("rx",G(r.x)),t.setAttribute("ry",G(r.y))}}},Z={f:null,i:function(t,n,e){return 0===t?n:1===t?e:{width:w(t,n.width,e.width),height:w(t,n.height,e.height)}},u:function(t,n){return function(e){var r=n(e);t.setAttribute("width",G(r.width)),t.setAttribute("height",G(r.height))}}},J=Math.sin,K=Math.cos,tt=Math.acos,nt=Math.asin,et=Math.tan,rt=Math.atan2,it=Math.PI/180,ut=180/Math.PI,ot=Math.sqrt,at=function(){function t(){var e=arguments.length>0&&void 0!==arguments[0]?arguments[0]:1,r=arguments.length>1&&void 0!==arguments[1]?arguments[1]:0,i=arguments.length>2&&void 0!==arguments[2]?arguments[2]:0,u=arguments.length>3&&void 0!==arguments[3]?arguments[3]:1,o=arguments.length>4&&void 0!==arguments[4]?arguments[4]:0,a=arguments.length>5&&void 0!==arguments[5]?arguments[5]:0;n(this,t),this.m=[e,r,i,u,o,a],this.i=null,this.w=null,this.s=null}return r(t,[{key:"determinant",get:function(){var t=this.m;return t[0]*t[3]-t[1]*t[2]}},{key:"isIdentity",get:function(){if(null===this.i){var t=this.m;this.i=1===t[0]&&0===t[1]&&0===t[2]&&1===t[3]&&0===t[4]&&0===t[5]}return this.i}},{key:"point",value:function(t,n){var e=this.m;return{x:e[0]*t+e[2]*n+e[4],y:e[1]*t+e[3]*n+e[5]}}},{key:"translateSelf",value:function(){var t=arguments.length>0&&void 0!==arguments[0]?arguments[0]:0,n=arguments.length>1&&void 0!==arguments[1]?arguments[1]:0;if(!t&&!n)return this;var e=this.m;return e[4]+=e[0]*t+e[2]*n,e[5]+=e[1]*t+e[3]*n,this.w=this.s=this.i=null,this}},{key:"rotateSelf",value:function(){var t=arguments.length>0&&void 0!==arguments[0]?arguments[0]:0;if(t%=360){var n=J(t*=it),e=K(t),r=this.m,i=r[0],u=r[1];r[0]=i*e+r[2]*n,r[1]=u*e+r[3]*n,r[2]=r[2]*e-i*n,r[3]=r[3]*e-u*n,this.w=this.s=this.i=null}return this}},{key:"scaleSelf",value:function(){var t=arguments.length>0&&void 0!==arguments[0]?arguments[0]:1,n=arguments.length>1&&void 0!==arguments[1]?arguments[1]:1;if(1!==t||1!==n){var e=this.m;e[0]*=t,e[1]*=t,e[2]*=n,e[3]*=n,this.w=this.s=this.i=null}return this}},{key:"skewSelf",value:function(t,n){if(n%=360,(t%=360)||n){var e=this.m,r=e[0],i=e[1],u=e[2],o=e[3];t&&(t=et(t*it),e[2]+=r*t,e[3]+=i*t),n&&(n=et(n*it),e[0]+=u*n,e[1]+=o*n),this.w=this.s=this.i=null}return this}},{key:"resetSelf",value:function(){var t=arguments.length>0&&void 0!==arguments[0]?arguments[0]:1,n=arguments.length>1&&void 0!==arguments[1]?arguments[1]:0,e=arguments.length>2&&void 0!==arguments[2]?arguments[2]:0,r=arguments.length>3&&void 0!==arguments[3]?arguments[3]:1,i=arguments.length>4&&void 0!==arguments[4]?arguments[4]:0,u=arguments.length>5&&void 0!==arguments[5]?arguments[5]:0,o=this.m;return o[0]=t,o[1]=n,o[2]=e,o[3]=r,o[4]=i,o[5]=u,this.w=this.s=this.i=null,this}},{key:"recomposeSelf",value:function(){var t=arguments.length>0&&void 0!==arguments[0]?arguments[0]:null,n=arguments.length>1&&void 0!==arguments[1]?arguments[1]:null,e=arguments.length>2&&void 0!==arguments[2]?arguments[2]:null,r=arguments.length>3&&void 0!==arguments[3]?arguments[3]:null,i=arguments.length>4&&void 0!==arguments[4]?arguments[4]:null;return this.isIdentity||this.resetSelf(),t&&(t.x||t.y)&&this.translateSelf(t.x,t.y),n&&this.rotateSelf(n),e&&(e.x&&this.skewSelf(e.x,0),e.y&&this.skewSelf(0,e.y)),!r||1===r.x&&1===r.y||this.scaleSelf(r.x,r.y),i&&(i.x||i.y)&&this.translateSelf(i.x,i.y),this}},{key:"decompose",value:function(){var t=arguments.length>0&&void 0!==arguments[0]?arguments[0]:0,n=arguments.length>1&&void 0!==arguments[1]?arguments[1]:0,e=this.m,r=e[0]*e[0]+e[1]*e[1],i=[[e[0],e[1]],[e[2],e[3]]],u=ot(r);if(0===u)return{origin:{x:e[4],y:e[5]},translate:{x:t,y:n},scale:{x:0,y:0},skew:{x:0,y:0},rotate:0};i[0][0]/=u,i[0][1]/=u;var o=e[0]*e[3]-e[1]*e[2]<0;o&&(u=-u);var a=i[0][0]*i[1][0]+i[0][1]*i[1][1];i[1][0]-=i[0][0]*a,i[1][1]-=i[0][1]*a;var l=ot(i[1][0]*i[1][0]+i[1][1]*i[1][1]);if(0===l)return{origin:{x:e[4],y:e[5]},translate:{x:t,y:n},scale:{x:u,y:0},skew:{x:0,y:0},rotate:0};i[1][0]/=l,i[1][1]/=l,a/=l;var s=0;return i[1][1]<0?(s=tt(i[1][1])*ut,i[0][1]<0&&(s=360-s)):s=nt(i[0][1])*ut,o&&(s=-s),a=rt(a,ot(i[0][0]*i[0][0]+i[0][1]*i[0][1]))*ut,o&&(a=-a),{origin:{x:e[4],y:e[5]},translate:{x:t,y:n},scale:{x:u,y:l},skew:{x:a,y:0},rotate:s}}},{key:"toString",value:function(){return null===this.s&&(this.s="matrix("+this.m.map(st).join(" ")+")"),this.s}}]),t}(),lt=/\.0+$/;function st(t){return Number.isInteger(t)?t:t.toFixed(14).replace(lt,"")}function ft(t,n,e){return t+(n-t)*e}function ct(t,n,e){var r=arguments.length>3&&void 0!==arguments[3]&&arguments[3],i={x:ft(t.x,n.x,e),y:ft(t.y,n.y,e)};return r&&(i.a=ht(t,n)),i}function ht(t,n){return Math.atan2(n.y-t.y,n.x-t.x)}Object.freeze({M:2,L:2,Z:0,H:1,V:1,C:6,Q:4,T:2,S:4,A:7});var vt={},dt=null;function yt(n){var e=function(){if(dt)return dt;if("object"!==("undefined"==typeof document?"undefined":t(document)))return{};var n=document.createElementNS("http://www.w3.org/2000/svg","svg");return n.style.position="absolute",n.style.opacity="0.01",n.style.zIndex="-9999",n.style.left="-9999px",n.style.width="1px",n.style.height="1px",dt={svg:n}}().svg;if(!e)return function(t){return null};var r=document.createElementNS(e.namespaceURI,"path");r.setAttributeNS(null,"d",n),r.setAttributeNS(null,"fill","none"),r.setAttributeNS(null,"stroke","none"),e.appendChild(r);var i=r.getTotalLength();return function(t){var n=r.getPointAtLength(i*t);return{x:n.x,y:n.y}}}function gt(t){return vt[t]?vt[t]:vt[t]=yt(t)}function pt(t,n,e,r){if(!t||!r)return!1;var i=["M",t.x,t.y];if(n&&e&&(i.push("C"),i.push(n.x),i.push(n.y),i.push(e.x),i.push(e.y)),n?!e:e){var u=n||e;i.push("Q"),i.push(u.x),i.push(u.y)}return n||e||i.push("L"),i.push(r.x),i.push(r.y),i.join(" ")}function mt(t,n,e,r){var i=arguments.length>4&&void 0!==arguments[4]?arguments[4]:1,u=pt(t,n,e,r),o=gt(u);try{return o(i)}catch(t){return null}}function bt(t,n,e,r){var i=1-r;return i*i*t+2*i*r*n+r*r*e}function wt(t,n,e,r){return 2*(1-r)*(n-t)+2*r*(e-n)}function xt(t,n,e,r){var i=arguments.length>4&&void 0!==arguments[4]&&arguments[4],u=mt(t,n,null,e,r);return u||(u={x:bt(t.x,n.x,e.x,r),y:bt(t.y,n.y,e.y,r)}),i&&(u.a=At(t,n,e,r)),u}function At(t,n,e,r){return Math.atan2(wt(t.y,n.y,e.y,r),wt(t.x,n.x,e.x,r))}function kt(t,n,e,r,i){var u=i*i;return i*u*(r-t+3*(n-e))+3*u*(t+e-2*n)+3*i*(n-t)+t}function _t(t,n,e,r,i){var u=1-i;return 3*(u*u*(n-t)+2*u*i*(e-n)+i*i*(r-e))}function St(t,n,e,r,i){var u=arguments.length>5&&void 0!==arguments[5]&&arguments[5],o=mt(t,n,e,r,i);return o||(o={x:kt(t.x,n.x,e.x,r.x,i),y:kt(t.y,n.y,e.y,r.y,i)}),u&&(o.a=Mt(t,n,e,r,i)),o}function Mt(t,n,e,r,i){return Math.atan2(_t(t.y,n.y,e.y,r.y,i),_t(t.x,n.x,e.x,r.x,i))}function Ot(t,n,e){var r=arguments.length>3&&void 0!==arguments[3]&&arguments[3];if(Bt(n)){if(It(e))return xt(n,e.start,e,t,r)}else if(Bt(e)){if(n.end)return xt(n,n.end,e,t,r)}else{if(n.end)return e.start?St(n,n.end,e.start,e,t,r):xt(n,n.end,e,t,r);if(e.start)return xt(n,e.start,e,t,r)}return ct(n,e,t,r)}function Et(t,n,e){var r=Ot(t,n,e,!0);return r.a=function(t){var n=arguments.length>1&&void 0!==arguments[1]&&arguments[1];return n?t+Math.PI:t}(r.a)/p,r}function Bt(t){return!t.type||"corner"===t.type}function It(t){return null!=t.start&&!Bt(t)}var jt=new at;var Pt={f:function(t){return t?t.join(" "):""},i:function(n,e,r){if(0===n)return e;if(1===n)return r;var i=e.length;if(i!==r.length)return m(n,e,r);for(var u,o=new Array(i),a=0;a<i;a++){if((u=t(e[a]))!==t(r[a]))return m(n,e,r);if("number"===u)o[a]=b(n,e[a],r[a]);else{if(e[a]!==r[a])return m(n,e,r);o[a]=e[a]}}return o}},Tt={f:null,i:M,u:function(t,n){return function(e){var r=n(e);t.setAttribute("x1",G(r[0])),t.setAttribute("y1",G(r[1])),t.setAttribute("x2",G(r[2])),t.setAttribute("y2",G(r[3]))}}},Ft={f:G,i:b},Rt={f:G,i:function(t,n,e){var r=b(t,n,e);return r<=0?0:r>=1?1:r}},Ct={f:function(t){var n=arguments.length>1&&void 0!==arguments[1]?arguments[1]:" ";return t&&t.length>0&&(t=t.map((function(t){return Math.floor(1e4*t)/1e4}))),H(t,n)},i:function(t,n,e){var r,i,u,o=n.length,a=e.length;if(o!==a)if(0===o)n=O(o=a,0);else if(0===a)a=o,e=O(o,0);else{var l=(u=(r=o)*(i=a)/function(t,n){for(var e;n;)e=n,n=t%n,t=e;return t||1}(r,i))<0?-u:u;n=E(n,Math.floor(l/o)),e=E(e,Math.floor(l/a)),o=a=l}for(var s=[],f=0;f<o;f++)s.push(g(w(t,n[f],e[f]),6));return s}};function Nt(t,n,e,r,i,u,o,a){return n=function(t,n,e){for(var r,i,u,o=t.length-1,a={},l=0;l<=o;l++)(r=t[l]).e&&(r.e=n(r.e)),r.v&&"g"===(i=r.v).t&&i.r&&(u=e.getElementById(i.r))&&(a[i.r]=u.querySelectorAll("stop"));return a}(t,r,a),function(r){var i,u=e(r,t,qt);return u?"c"===u.t?X(u.v):"g"===u.t?(n[u.r]&&function(t,n){for(var e=0,r=t.length;e<r;e++)t[e].setAttribute("stop-color",X(n[e]))}(n[u.r],u.v),(i=u.r)?"url(#"+i+")":"none"):"none":"none"}}function qt(t,n,e){if(0===t)return n;if(1===t)return e;if(n&&e){var r=n.t;if(r===e.t)switch(n.t){case"c":return{t:r,v:_(t,n.v,e.v)};case"g":if(n.r===e.r)return{t:r,v:S(t,n.v,e.v),r:n.r}}}return m(t,n,e)}var Vt={blur:A,brightness:w,contrast:w,"drop-shadow":function(t,n,e){return 0===t?n:1===t?e:{blur:A(t,n.blur,e.blur),offset:x(t,n.offset,e.offset),color:_(t,n.color,e.color)}},grayscale:w,"hue-rotate":b,invert:w,opacity:w,saturate:w,sepia:w};function Lt(t,n,e){if(0===t)return n;if(1===t)return e;var r=n.length;if(r!==e.length)return m(t,n,e);for(var i,u=[],o=0;o<r;o++){if(n[o].type!==e[o].type)return n;if(!(i=Vt[n[o].type]))return m(t,n,e);u.push({type:n.type,value:i(t,n[o].value,e[o].value)})}return u}var zt={blur:function(t){return t?function(n){t.setAttribute("stdDeviation",Q(n))}:null},brightness:function(t,n,e){return(t=Ut(e,n))?function(n){n=G(n),t.map((function(t){return t.setAttribute("slope",n)}))}:null},contrast:function(t,n,e){return(t=Ut(e,n))?function(n){var e=G((1-n)/2);n=G(n),t.map((function(t){t.setAttribute("slope",n),t.setAttribute("intercept",e)}))}:null},"drop-shadow":function(t,n,e){var r=e.getElementById(n+"-blur");if(!r)return null;var i=e.getElementById(n+"-offset");if(!i)return null;var u=e.getElementById(n+"-flood");return u?function(t){r.setAttribute("stdDeviation",Q(t.blur)),i.setAttribute("dx",G(t.offset.x)),i.setAttribute("dy",G(t.offset.y)),u.setAttribute("flood-color",X(t.color))}:null},grayscale:function(t){return t?function(n){t.setAttribute("values",H(function(t){return[.2126+.7874*(t=1-t),.7152-.7152*t,.0722-.0722*t,0,0,.2126-.2126*t,.7152+.2848*t,.0722-.0722*t,0,0,.2126-.2126*t,.7152-.7152*t,.0722+.9278*t,0,0,0,0,0,1,0]}(n)))}:null},"hue-rotate":function(t){return t?function(n){return t.setAttribute("values",G(n))}:null},invert:function(t,n,e){return(t=Ut(e,n))?function(n){n=G(n)+" "+G(1-n),t.map((function(t){return t.setAttribute("tableValues",n)}))}:null},opacity:function(t,n,e){return(t=e.getElementById(n+"-A"))?function(n){return t.setAttribute("tableValues","0 "+G(n))}:null},saturate:function(t){return t?function(n){return t.setAttribute("values",G(n))}:null},sepia:function(t){return t?function(n){return t.setAttribute("values",H(function(t){return[.393+.607*(t=1-t),.769-.769*t,.189-.189*t,0,0,.349-.349*t,.686+.314*t,.168-.168*t,0,0,.272-.272*t,.534-.534*t,.131+.869*t,0,0,0,0,0,1,0]}(n)))}:null}};var Dt=["R","G","B"];function Ut(t,n){var e=Dt.map((function(e){return t.getElementById(n+"-"+e)||null}));return-1!==e.indexOf(null)?null:e}var Wt={fill:Nt,"fill-opacity":Rt,stroke:Nt,"stroke-opacity":Rt,"stroke-width":Ft,"stroke-dashoffset":{f:G,i:b},"stroke-dasharray":Ct,opacity:Rt,transform:function(n,e,r,i){if(!(n=function(n,e){if(!n||"object"!==t(n))return null;var r=!1;for(var i in n)n.hasOwnProperty(i)&&(n[i]&&n[i].length?(n[i].forEach((function(t){t.e&&(t.e=e(t.e))})),r=!0):delete n[i]);return r?n:null}(n,i)))return null;var u=function(t,i,u){var o=arguments.length>3&&void 0!==arguments[3]?arguments[3]:null;return n[t]?r(i,n[t],u):e&&e[t]?e[t]:o};return e&&e.a&&n.o?function(t){var e=r(t,n.o,Et);return jt.recomposeSelf(e,u("r",t,b,0)+e.a,u("k",t,x),u("s",t,x),u("t",t,x)).toString()}:function(t){return jt.recomposeSelf(u("o",t,Ot,null),u("r",t,b,0),u("k",t,x),u("s",t,x),u("t",t,x)).toString()}},"#filter":function(t,n,e,r,i,u,o,a){if(!n.items||!t||!t.length)return null;var l=function(t,n){var e=(t=t.map((function(t){return t&&zt[t[0]]?(n.getElementById(t[1]),zt[t[0]](n.getElementById(t[1]),t[1],n)):null}))).length;return function(n){for(var r=0;r<e;r++)t[r]&&t[r](n[r].value)}}(n.items,a);return l?(t=function(t,n){return t.map((function(t){return t.e=n(t.e),t}))}(t,r),function(n){l(e(n,t,Lt))}):null},"#line":Tt,points:{f:H,i:M},d:Pt,r:Ft,"#size":Z,"#radius":$,_:function(t,n){if(Array.isArray(t))for(var e=0;e<t.length;e++)this[t[e]]=n;else this[t]=n}};return function(t){!function(t,n){if("function"!=typeof n&&null!==n)throw new TypeError("Super expression must either be null or a function");t.prototype=Object.create(n&&n.prototype,{constructor:{value:t,writable:!0,configurable:!0}}),n&&u(t,n)}(o,t);var e=a(o);function o(){return n(this,o),e.apply(this,arguments)}return r(o,null,[{key:"build",value:function(t){var n=l(i(o),"build",this).call(this,t,Wt),e=n.el,r=n.options,u=n.player;return function(t,n,e){if("click"===e.start){return void n.addEventListener("click",(function(){switch(e.click){case"freeze":return!t._running&&t.reachedToEnd()&&(t.offset=0),t._running?t.pause():t.play();case"restart":return t.offset>0?t.restart():t.play();case"reverse":var n=!t._rollingBack&&t._running,r=t.reachedToEnd();return n||r&&1===t.fill?(t.pause(),r&&(t.offset=t.duration-1),t._rollback()):r?t.restart():t.play();case"none":default:return!t._running&&t.offset?t.restart():t.play()}}))}if("hover"===e.start)return n.addEventListener("mouseenter",(function(){return t.reachedToEnd()?t.restart():t.play()})),void n.addEventListener("mouseleave",(function(){switch(e.hover){case"freeze":return t.pause();case"reset":return t.stop();case"reverse":return t.pause(),t._rollback();case"none":default:return}}));if("scroll"===e.start)return void new W(n,e.scroll||25,(function(n){n?t.reachedToEnd()?t.restart():t.play():t.pause()}));t.play()}(u,e,r),u}}]),o}(D)}));
__SVGATOR_PLAYER__.build({"root":"eUZWXBt7oT61","animations":[{"duration":2000,"direction":1,"iterations":0,"fill":1,"alternate":false,"speed":1,"elements":{"eUZWXBt7oT622":{"opacity":[{"t":0,"v":0,"e":[0.39,0.575,0.565,1]},{"t":1000,"v":1,"e":[0.39,0.575,0.565,1]},{"t":2000,"v":0,"e":[0.39,0.575,0.565,1]}]},"eUZWXBt7oT626":{"opacity":[{"t":0,"v":0,"e":[0.47,0,0.745,0.715]},{"t":1000,"v":1,"e":[0.47,0,0.745,0.715]},{"t":2000,"v":0,"e":[0.47,0,0.745,0.715]}]}}}],"options":{"start":"scroll","hover":"freeze","click":"freeze","scroll":25,"font":"embed","exportedIds":"unique","svgFormat":"animated","title":"mouseover ID"},"animationSettings":{"duration":2000,"direction":1,"iterations":0,"fill":1,"alternate":false,"speed":1}})]]></script></svg>