<svg xmlns="http://www.w3.org/2000/svg" viewBox="0 0 1177.1 507.65"><defs><style>.cls-1{opacity:0.3;}.cls-2{fill:#1e2f98;}</style></defs><title>Asset 11</title><g id="Layer_2" data-name="Layer 2"><g id="Layer_1-2" data-name="Layer 1"><g class="cls-1"><path class="cls-2" d="M854.21,274.27a8.37,8.37,0,0,0-.42-3.07c-.78-2-2.16-2.77-4.85-2.58-1.92.14-2.43.63-3,3a24.89,24.89,0,0,0-.9,7.73c.26,3.88,3.44,7.87,7.09,8.61a11,11,0,0,1,4.44,2,8.06,8.06,0,0,0,3.24,1.59,1.59,1.59,0,0,0,2-.84c.61-1.29.11-3.42-1.14-4a12.91,12.91,0,0,0-5.12-1.69c-2.21-.06-2.57-.42-3.06-2.66a5.21,5.21,0,0,1,.71-4.11A6.84,6.84,0,0,0,854.21,274.27Z"/><path class="cls-2" d="M881.54,193.17a17,17,0,0,0-4.89,5.08,6.2,6.2,0,0,1-5.44,3.12c-4,0-8.17,5.48-8.7,10.15a5.87,5.87,0,0,0,1,3,15,15,0,0,0,3.24,3.8c1.91,1.59,3.09,1.4,3.78-1.06,1-3.45,3.23-4.91,6.36-5.39.68-.1,1.36-.21,2-.28a4.89,4.89,0,0,0,4.35-2.87,4.54,4.54,0,0,1,3.22-2.44c1.33-.37,2.63-.84,3.93-1.31a3,3,0,0,0,2.24-2.67c.17-3.79.22-7.61-1.27-11.15-1.32-3.11-2.15-6.43-4.2-9.22-1.26-1.72-.81-3.23.83-4.66,1-.86,2-1.64,3-2.51a2.94,2.94,0,0,0,1.34-2.47c-.14-1.62-2.66-4.27-4.29-4.39a11.86,11.86,0,0,1-4.65-1.45,52.69,52.69,0,0,0-5.18-2.39c-1.86-.72-2.79.16-2.52,2.24a3.5,3.5,0,0,0,.19.79,5.92,5.92,0,0,1,.16,4c-.58,2,.08,3.4,1.35,4.87a28.47,28.47,0,0,1,5.92,12.1A4.51,4.51,0,0,1,881.54,193.17Z"/><path class="cls-2" d="M725.29,354.65a4.17,4.17,0,0,0-1.33-3.39A7.51,7.51,0,0,1,721.4,347a14.51,14.51,0,0,0-5.54-7.9,117.55,117.55,0,0,1-17.49-16.64,5.66,5.66,0,0,0-2.4-1.52,18.93,18.93,0,0,0-4.82-.81c-1.32-.12-2,1-1.64,2.33a4.32,4.32,0,0,0,1.12,1.78c2.49,2.68,5.63,4.78,6.91,8.54a1.23,1.23,0,0,0,.5.6c2,1.15,2.7,3.18,3.42,5.22a16.45,16.45,0,0,0,1.81,3.26c1.64,2.63,3.48,5.15,4.52,8.15a6.12,6.12,0,0,0,1.56,2.46,26.24,26.24,0,0,1,3.6,4.58,12.21,12.21,0,0,0,2.81,3.13A11.51,11.51,0,0,1,719,364c2.3,4.34,6.19,6.45,10.43,7.78,4,1.27,8.29,1.41,12.09,3.48a2.79,2.79,0,0,0,1,.19c3.58.39,7.2-.12,10.76.62a4,4,0,0,0,1.27-.16c.76-.12,1.63-.09,1.85-1.12a1.67,1.67,0,0,0-1.12-1.91,17.82,17.82,0,0,1-4.67-3.72c-1.62-1.55-4-.37-5.95-1.26a7.41,7.41,0,0,0-1.48-.43,7,7,0,0,0-4.55.14,5.44,5.44,0,0,1-4.53-.24,17.55,17.55,0,0,0-3.93-1.22c-3-.61-4.62-2.62-4.89-5.78-.08-1,0-2,0-3S725.31,355.55,725.29,354.65Z"/><path class="cls-2" d="M781.67,337.38c-1.45-.2-2.89-.44-4.32-.7a3.53,3.53,0,0,0-2.52.08c-2.59,1.48-4.45,3.36-4.72,6.81a19.49,19.49,0,0,1-2.3,8.73,2.9,2.9,0,0,0,.72,3.86,4.22,4.22,0,0,1,1.23,3.66c0,.71-.15,1.43-.23,2.14s-.16,1.69.67,2.13,1.64,0,2.25-.73c.11-.14.21-.28.31-.43a3.26,3.26,0,0,1,4.06-1.41,10.65,10.65,0,0,1,2.6,1.12c1.66,1,2.7.31,2.54-1.66a28.31,28.31,0,0,0-1.32-5.76,15.18,15.18,0,0,1-.7-4.24,4.21,4.21,0,0,1,2-4.08,3.94,3.94,0,0,0,2.09-2.61,8.64,8.64,0,0,1,2.74-4.46,6.07,6.07,0,0,0,1.78-3.21c.15-.73.2-1.51-.61-1.85s-1.18.21-1.5.74C785.27,337.41,783.55,337.64,781.67,337.38Z"/><path class="cls-2" d="M402.6,134.16c-.43.21-.88.37-1.32.54a11.44,11.44,0,0,0-5,3.56,14.64,14.64,0,0,1-4.27,3.57,21.92,21.92,0,0,0-6.16,4.72,6.26,6.26,0,0,1-6.7,2.12c-1.27-.39-2.65-.39-3.48.63-1.6,2-3.75,2.37-6.15,2.4a8.31,8.31,0,0,0-1.71.25c-.84.19-1.82.36-1.91,1.36a2.29,2.29,0,0,0,1.48,2.42c.69.3,1.45.47,2.18.72a9.88,9.88,0,0,1,4.06,2.46c2.9,3,4.39,6.12,2.51,10.08a3.47,3.47,0,0,0-.17.79c-.65,2.64-1.09,3.08-3.9,2.89-5.29-.34-10.57-.59-15.85-.86-2.3-.12-3.85.89-5.55,1.85a1.28,1.28,0,0,0-.69,1.4c.49,2-.23,3.95,0,5.92a10.13,10.13,0,0,1-1.71,6.72c-1,1.48-1.42,2.94-.39,4.57a5.67,5.67,0,0,1,.51,2.64c.23,2.76.86,3.37,3.79,3a7.92,7.92,0,0,1,5.68,1.44,4.89,4.89,0,0,0,3.12,1.29c3.8-.39,7.71-.55,11.33-1.58s5.59-4.18,7.34-7.23a2.53,2.53,0,0,0,.1-1.59c0-.44-.19-1,0-1.32,1.76-2.37,2.76-5.31,6.2-6.41,3.09-1,5.69-2.6,5.75-6.29,0-1.94,1.26-2.86,3.34-3.09a11.67,11.67,0,0,1,4.84.57c1.33.42,2.74.65,3.88-.22,1.67-1.28,3.87-1.6,5.49-2.94a2.73,2.73,0,0,1,3.46,0,7.2,7.2,0,0,1,2.22,2.1c2.78,4.46,7,7.44,11.86,9.53a20.15,20.15,0,0,1,6.33,4.61c2.34,2.37,1.4,5.08-1.91,5.93a27.75,27.75,0,0,1-5.75.42c-.86,0-1.86.05-2.07,1.08-.17.88.64,1.24,1.32,1.57q2.43,1.2,4.89,2.34c1.91.89,2.59.67,3.07-1.29a3.84,3.84,0,0,1,2.13-2.68c3.16-1.69,3.92-3.36,3.33-6.87-.25-1.44.37-2,1.92-1.82a6.76,6.76,0,0,1,1.37.42c.64.24,1.32.52,1.81-.16s.11-1.24-.36-1.72a6.89,6.89,0,0,0-1.52-1.23c-3.13-1.73-5.9-4-9.39-5.2-4.1-1.47-5.57-5.52-8.31-8.34-.27-.28-.24-.86-.26-1.3a2.32,2.32,0,0,1,1.18-2.31,2.54,2.54,0,0,1,3,.13c1.82,1.31,3.91,2.33,5.2,4.23a4.38,4.38,0,0,0,2.39,1.89c2.7.69,4.64,2.45,6.88,3.83,2.78,1.72,4.4,4,4.54,7.09a8.25,8.25,0,0,0,1,3.32c2,4,5.94,6.88,7,11.37.3,1.21,2.58,2,4.18,1.86s2-1.23,2.32-2.4a8.37,8.37,0,0,1,.75-2,5.06,5.06,0,0,0,.41-4.43,15.13,15.13,0,0,1-.61-3.46,4,4,0,0,1,3.18-4,4.46,4.46,0,0,1,4.93,3.88,38.8,38.8,0,0,0,.57,5.38c.5,2.07,1.29,4.15,3.3,5.21,3.28,1.72,7.09,1.94,10.7,2.75a.47.47,0,0,0,.28,0c2.82-1.47,5.39-.42,8,.69a5.57,5.57,0,0,0,5.24-.3,8.4,8.4,0,0,1,2.08-.92c2-.51,4.15.53,4.44,2.43.36,2.39.72,4.86-.44,7.18a16.64,16.64,0,0,0-1.27,3.86,25.44,25.44,0,0,1-1.83,5.68,6.67,6.67,0,0,0-.39,4.75,34.71,34.71,0,0,0,2.79,6.49c1.67,3.56,3.37,7.1,6.09,10.08s3.81,7,7.18,9.68c2.32,1.83,3.18,4.68,3.65,7.49a9.28,9.28,0,0,0,4.67,7.11,8.6,8.6,0,0,1,3.37,3.64c1.49,2.82,3.63,5.39,4.62,8.34,1.45,4.33,3.89,8.21,5.67,12.38a8,8,0,0,0,2.77,3.06,3.22,3.22,0,0,0,3.51.34c5.54-2.51,11.53-4.05,16.9-6.92a11.76,11.76,0,0,1,2.74-.82,8.4,8.4,0,0,0,5.4-3.33,8.54,8.54,0,0,1,3.94-3.09,68.12,68.12,0,0,0,9.3-4.81c2.6-1.5,5.21-3.23,6.29-5.78a69.39,69.39,0,0,1,4.35-7.89c1.5-2.56,2-5-.54-7.36-.61-.55-1-1.29-1.6-1.9A3.38,3.38,0,0,0,589,249c-2.76.09-4.13-1.57-5.43-3.43a10.32,10.32,0,0,0-1.24-1.49c-1.32-1.23-4.24-1.81-5.6.16-2.19,3.17-5.51,3.29-9,3-2.44-.17-2.77-.5-2.65-2.82a6.06,6.06,0,0,0-2.36-5.27,16.17,16.17,0,0,0-3-2.09,16.63,16.63,0,0,1-7.59-7.51c-.85-1.72-.69-3,.41-4a4.19,4.19,0,0,1,4.57-.54,6.91,6.91,0,0,1,1.82,1.31,8.72,8.72,0,0,1,2.4,3.94,4.38,4.38,0,0,0,2.25,3c1.74.8,3.17,2.08,4.9,2.85,3.56,1.58,7.1,3.31,11.26,1.49,2.53-1.11,3-.92,4.17,1.54a5.46,5.46,0,0,0,4.11,3c3.28.73,6.63,1.13,9.95,1.7a30.13,30.13,0,0,0,12-.25,25,25,0,0,1,5.17-.43,5.25,5.25,0,0,1,4.29,1.82,29.92,29.92,0,0,0,5.54,5.1,8.42,8.42,0,0,1,3.32,4,6.38,6.38,0,0,0,2.51,2.89,8.43,8.43,0,0,1,2.16,1.78c1.45,2.05,3.27,2.46,5.74,1.81,2.19-.58,3.45.31,4,2.38a9.91,9.91,0,0,1,.17,1.07,72.19,72.19,0,0,0,5.64,18.09c.89,1.92,2.57,3.4,3.21,5.42,1.93,6.16,5.74,11.59,8,17.62a9,9,0,0,0,2.38,3.67c1.29,1.16,2.17,1.26,3.56.24a28.41,28.41,0,0,0,3.92-3.19c1.66-1.74,3.33-3.72,3.44-6.07a55.32,55.32,0,0,1,.71-6.7,20.07,20.07,0,0,0,0-7.8c-.53-2.34.36-4.06,2.29-5.42,3.33-2.34,5.61-5.61,8.49-8.36,2.6-2.47,4.2-5.8,7.89-7.35a4.29,4.29,0,0,0,2.73-3.89c0-1.13.83-1.76,1.73-2.33a11.49,11.49,0,0,1,4.62-1.46c1.81-.27,3.62-.54,5.4-.92,2.78-.58,3.87-.33,5.23,2a40.78,40.78,0,0,0,4.62,5.86c.84,1,2.24,1.41,2.89,2.59,1.91,3.44,4,6.78,3.71,10.91-.16,2.49,2.82,4.1,5.25,3a14,14,0,0,1,2.34-1c2.46-.64,4.26.05,5,2.32a40.34,40.34,0,0,0,2.88,6.18,16.73,16.73,0,0,1,2.34,8c0,3.4.29,6.82-.24,10.21-.41,2.62-.21,5,2.21,6.86a9.84,9.84,0,0,1,1.59,1.91,51.7,51.7,0,0,1,6.27,11.24,17.49,17.49,0,0,0,8.9,9.55c1.2.55,2.41,1.55,3.69.5s.34-2.22-.16-3.23a16.49,16.49,0,0,1-1.91-7.56,6.56,6.56,0,0,0-1.3-3.81,23.57,23.57,0,0,0-6.34-6.6,14.68,14.68,0,0,1-5.76-7.25c-.32-.85-.54-1.83-1.44-2.27-2.21-1.07-2.1-2.81-1.71-4.66a16.07,16.07,0,0,1,2.3-5.8,4.54,4.54,0,0,1,6.91-1,11.7,11.7,0,0,1,3.43,3.62c1.61,3.41,4.41,6.08,6.38,9.27,1.57,2.53,2.68,2.44,4.85.33,2.64-2.58,5-5.44,8.45-7.26a6.54,6.54,0,0,0,3.74-6.3c-.17-4-1.56-7.73-3.18-11.39a2,2,0,0,0-.33-.44,46,46,0,0,0-4.8-5.39c-2.27-2.07-4.3-4.37-6.38-6.62a4.31,4.31,0,0,1-1.21-4.26,9.9,9.9,0,0,1,4.68-6.25,2.87,2.87,0,0,1,3.22-.06c.79.51,1.65,1,2.38,1.53,2.36,1.89,4.81,1.9,7.5.63s5-2.67,7.49-4.09,4.87-3.54,7.78-4.6c3.55-1.3,6.08-3.82,8.34-6.49,1.28-1.52,2.82-3.09,3.19-5.08.61-3.22,2.16-6.15,3-9.28,1-3.41,1.27-6.68-.09-10-1.13-2.8-2.25-5.58-5-7.42a2.82,2.82,0,0,1-.74-.83,49.85,49.85,0,0,0-6.86-8.66,3,3,0,0,1-.34-4.21,5.52,5.52,0,0,1,3.41-2.71c.91-.22,2.08-.45,2-1.62s-1.41-1.3-2.45-1.39a12.94,12.94,0,0,1-3.1-.64,7.1,7.1,0,0,0-3.4-.26c-3.82.57-7.24-3-6.4-6.53a4.25,4.25,0,0,1,2-2.87,2.58,2.58,0,0,1,4.07,1.38c.14.43.16.89.31,1.32.87,2.56,1.86,2.84,4,1.09a8.75,8.75,0,0,1,2.92-1.71c3-.9,5.89.31,6.57,3.15.48,2,1.76,3.05,3.4,4.09,3.7,2.31,6.66,5.18,7.61,9.46a7,7,0,0,0,.73,1.75c1,1.88,1.58,2.13,3.66,1.48,1.37-.43,2.72-.94,4-1.47,1.89-.76,2.37-1.53,1.91-3.38a12.52,12.52,0,0,0-3-5.79c-2.36-2.49-4.51-5.19-7.67-6.9a5.31,5.31,0,0,1-1.31-1c-1.11-1.16-1.28-2.05,0-3.06,2.08-1.72,2.94-3.92,3.66-6.29.78-2.54,2.6-3.82,5.52-3.92,4-.13,5-.87,5.9-4.6,1.1-4.54,3.18-8.89,3.2-13.67a8.3,8.3,0,0,1,.57-2.36c.4-1.22.84-2.56,2.41-2.76a4.3,4.3,0,0,1,3.7,1.77,4.88,4.88,0,0,1,.76,1.15c1,2.16,2.76,3.9,4,6a3.37,3.37,0,0,0,1.71,1.41,2.67,2.67,0,0,0,2.93-.52,1.71,1.71,0,0,0,.23-2.47c-2-2.6-2.66-5.78-4.29-8.54a6.55,6.55,0,0,0-3.11-3,7.15,7.15,0,0,1-3.5-2.73c-1.78-2.93-5-4.8-6.71-7.75a2,2,0,0,0-.84-.72,13.34,13.34,0,0,1-4.4-3.83,4,4,0,0,0-3.69-1.72c-4.32.58-8.64-.59-13,0a3.29,3.29,0,0,1-1.67-.35c-1.72-.81-3.4-1.69-5.09-2.55a2.78,2.78,0,0,1-1.55-3.17c.29-2.85,1.63-5.32,2.69-7.92,1.24-3.06,3.45-4.39,6.81-4.36a19.45,19.45,0,0,1,3.74.27,6.42,6.42,0,0,0,2.86-.1c3.49-.81,7.05-.51,10.59-.48a4.82,4.82,0,0,1,2.49.58c3.07,2,6.32,1.14,9.52.67,1.93-.28,2.32-1.3,1.31-2.93-.39-.62-1-1.15-1.33-1.77-1.44-2.36-.09-4.68,2.82-4.73a7.28,7.28,0,0,1,4.42,1,11.32,11.32,0,0,0,7.22,2.21c1.93-.07,2.65,1,2.39,2.86a12.92,12.92,0,0,1-1.68,4.58c-1.42,2.48-1.65,5.05.05,7.44a27,27,0,0,0,6.13,6.77,30.38,30.38,0,0,1,6.13,5.32c2.72,3.38,6.78,5.3,10,8.12,1.22,1.05,2.42.61,2.81-.91.94-3.57,2.25-7.09,1.83-10.89a6.75,6.75,0,0,0-2.17-4.84,7.58,7.58,0,0,1-1.94-2.67,13.41,13.41,0,0,0-2.92-4,20.5,20.5,0,0,1-2.84-3.4c-1.08-1.6-.84-3.33.69-4,2.39-1,4.63-2.6,7.6-2.08a6.61,6.61,0,0,0,6.14-2.35c1-1.09,2.13-2.09,3.22-3.11a10,10,0,0,1,5.6-2.57c1.33-.19,3.39.22,3.39-1.67,0-1.62-1.92-1.78-3.29-2.13a18.15,18.15,0,0,1-4.77-1.9c-2-1.16-1.92-2.57,0-3.76a5.92,5.92,0,0,1,5-.59c3,.9,6.07,1.77,9.11,2.65a11.8,11.8,0,0,0,4.53.67c2.71-.28,3.9-2.59,2.44-4.74a6.64,6.64,0,0,0-2.62-2.09,26.91,26.91,0,0,0-8.4-2.79,58.23,58.23,0,0,1-14.75-3.58,43.69,43.69,0,0,0-12.54-3,75.54,75.54,0,0,1-8-1.26c-5.67-1.18-11.48-1.28-17.19-2.09-5.46-.76-10.92-1.05-16.35.3a12.47,12.47,0,0,1-2.87.25c-4.34,0-8.68.06-13,0-2.71,0-5.39-.33-7.65-2a3.24,3.24,0,0,0-1-.46c-5.26-1.15-10.5-2.42-16-1.53a22.34,22.34,0,0,1-10.21-1,64.56,64.56,0,0,0-13.75-3c-5.47-.42-10.94-.87-16.4-1.41a16.09,16.09,0,0,0-9,1.38c-1.52.75-3.18,1.27-4.77,1.92a9.41,9.41,0,0,1-6.22.22,30.33,30.33,0,0,1-7.13-2.9,14.66,14.66,0,0,0-6.7-2.27c-4.9-.27-9.78-.73-14.67-1.23-6.12-.61-12.3-.89-18.4.47a11.8,11.8,0,0,1-4,.15c-1.52-.18-3.06-.35-4.6-.4a8.05,8.05,0,0,1-6.83-3.4,12,12,0,0,0-7.67-4.91,28.33,28.33,0,0,0-6.3-.74,53.91,53.91,0,0,1-14.22-2,15.68,15.68,0,0,0-11.68,1.29,10.15,10.15,0,0,1-4,1.5c-4.35.25-8.53,1.41-12.83,1.86a28,28,0,0,0-9.69,3.3,26,26,0,0,1-9.21,2.92,4.38,4.38,0,0,0-3.1,1.25c-1.5,1.82-3.61,2.29-5.86,2.49a44,44,0,0,0-7.14.93,6.36,6.36,0,0,1-5-.87c-2.63-1.59-5.53-1.3-8.4-.81a2.31,2.31,0,0,0-2.13,2c-.37,3-3,4.46-4.8,6.52a4.26,4.26,0,0,1-3.19,1.06c-1.26,0-2.51.07-3.76,0a10,10,0,0,0-5.25,1.31c-4.07,2.38-8.48,2.67-13.08,2.18-2.59-.28-5.22-.55-7.63.74a31.23,31.23,0,0,1-7.94,2.44A7.4,7.4,0,0,1,514,81c-2.06-1.56-4.16-1-6.17.15-.73.43-1.36,1-2.05,1.49a3,3,0,0,1-2.7.65c-3.2-1-6.64-1.13-9.73-2.53a29.72,29.72,0,0,0-6.62-1.88c-4.42-.88-8.87-1.61-13-3.61a27.81,27.81,0,0,0-9.65-2.61c-2.6-.25-5.2-.16-7.22-.21l-6.36,0a5.8,5.8,0,0,0-3.56.91,6.77,6.77,0,0,1-4,1.34c-4.21.09-7.38,2.09-10.47,4.54-3.46,2.74-6.38,6-9.84,8.73a22.6,22.6,0,0,0-3.9,4,12,12,0,0,1-3.34,3A118.86,118.86,0,0,1,402,101.76c-2.08.95-3.2,2.11-3.09,4.33a18.48,18.48,0,0,0,.92,4.77c.33,1,.65,2.07.93,3.12.73,2.79,3,4.18,6,3.65a13,13,0,0,0,4.88-2.25c2.21-1.47,2.66-1.39,4.84.12,1.52,1.06,2.34,2.62,3.52,3.92,2.83,3.13,2.8,3.25-.52,5.94-.6.49-1.27.93-1,1.79a1.64,1.64,0,0,0,1.89.94c2.29-.24,4.64-.34,6.68-1.52a11.34,11.34,0,0,1,4-1.55,2.85,2.85,0,0,0,2.52-2.29,8.82,8.82,0,0,0,.51-2.38c-.11-2.73.94-4.7,3.78-5.7a2.94,2.94,0,0,0,.91-.67c2.17-2,2.21-3.2.12-5.26-.53-.52-1.17-1-1.71-1.46a4.11,4.11,0,0,1,1-6.84c1.49-.82,3-1.62,4.47-2.49a8,8,0,0,0,3.17-3.08c1.68-3.24,4.37-4.38,8.09-3.56.64.14,1.42.07,1.64.83s-.34,1-.76,1.36a29,29,0,0,1-5.62,4.22c-1.42.75-2.75,1.69-3.16,3.35-.78,3.14,1.3,7.47,4.37,9,1,.5,2.15.82,3.14,1.36a3.59,3.59,0,0,1,1.52,5.15,3.79,3.79,0,0,1-2.76,1.79,5,5,0,0,0-4.25,4.53,13.12,13.12,0,0,1-.9,2.83,5.57,5.57,0,0,1-5.55,3.59c-1.25,0-2.49.28-3.73.38-2.93.25-5.51,1.62-8.31,2.28-1.16.27-2.24.56-3.22-.39a4.71,4.71,0,0,0-6-.77,4.28,4.28,0,0,1-4.82-.65c-1.53-1.13-1.41-2.66-.92-4.2a8.5,8.5,0,0,0,.41-3.74c-.31-2.36-1.46-2.9-3.77-1.8a4.51,4.51,0,0,0-2.51,2.49,10.8,10.8,0,0,0-1,4.19C408,132.58,407.65,131.76,402.6,134.16Z"/><path class="cls-2" d="M861.72,364.94c-2.28-1-3.64-2.92-5.21-4.67-2.06-2.31-4.23-4.69-7-5.87-5.81-2.46-11.79-4.46-17.69-6.67a3.25,3.25,0,0,0-3.41.44c-1.51,1.23-3.33,1.87-5,2.85s-2.52.64-3.45-.94a8.94,8.94,0,0,1-.77-2c-1.17-4-4.57-5.78-8.29-4.21a12.51,12.51,0,0,1-2.89,1.11c-.53.07-1.07.21-1.2.83a1.42,1.42,0,0,0,.87,1.51c.52.31,1.08.55,1.61.84a3.36,3.36,0,0,1,2,3.23c-.25,2.18.91,3.79,1.61,5.58s1.05,1.87,2.77,1.27a3.49,3.49,0,0,1,3-.12c2.49,1.49,5.34,2,7.89,3.28,3.18,1.62,4.47,4.26,3.8,7.94-.22,1.23-.64,2.43-.89,3.66s.13,1.89,1.35,2.06a3.75,3.75,0,0,0,1.53-.07c2.58-.81,4.65.15,6.69,1.78,3.59,2.88,7.16,2.13,9.47-1.84.09-.16.17-.31.27-.46,1.38-2.11,2.51-2.41,4.84-1.5a7,7,0,0,1,3.81,3.43,21,21,0,0,0,1.6,2.77c1.11,1.57,2.5,2.79,4.47,2.82a8.6,8.6,0,0,1,4.94,1.22,2.54,2.54,0,0,0,2,.28c1-.23,1.54-1.13.88-2-1.55-2-2.59-4.54-5.23-5.38a3.18,3.18,0,0,1-1.91-2,9,9,0,0,1-.58-4C863.8,368.06,863.71,365.84,861.72,364.94Z"/><path class="cls-2" d="M11.44,120.9c-2.94,1.5-5.89,3-8.83,4.45-.62.31-1.25.6-1.84,1a1.24,1.24,0,0,0-.75,1.3,1.5,1.5,0,0,0,1.25,1.21A5.51,5.51,0,0,0,5,127.9c1.22-.66,2.36-1.52,3.63-2.05,8.53-3.61,17-7.49,25.68-10.57a6.8,6.8,0,0,1,3-.58c4.34.51,8.3-1,12.3-2.4a4.51,4.51,0,0,0,2.08-1.52c1.94-2.39,3.7-2.91,6.36-1.57a13.76,13.76,0,0,0,6.61,1.92,16,16,0,0,1,2.24.57c3.67.5,6.1,2.51,8.14,5.81,2.51,4.07,3.93,8.12,2.91,13a13.56,13.56,0,0,0-.42,5.63c.73,3.44-.43,6.47-2.11,9.2-1.35,2.2-1.31,4,.19,5.89,1.86,2.33,2,4.75.94,7.56-2,5.3-5.35,9.62-8.71,13.95-1.51,1.95-3.43,3.62-4.14,6.12a15.55,15.55,0,0,1-2.78,5.43,8.36,8.36,0,0,0-1.58,3.91c-.41,2.27-.61,4.44.46,6.58a2.83,2.83,0,0,1,.31,1.56c-.43,3.08.18,6.1.34,9.15.18,3.26.17,3.17,3,4.45,2.26,1,4.23,2.49,4.64,5.33.38,2.67.87,5.34,1,8s.49,5.11,2.17,7.31c1.2,1.56,1,2.18-.36,3.73s-1.35,2.71,0,4.24A6.51,6.51,0,0,0,72.42,240c1.61.94,2.14,2.42,2.36,4.22.18,1.51.4,3.12,1.62,4.17a35.13,35.13,0,0,1,3.81,4c.53.62,1.15,1.23,2,.72a1.89,1.89,0,0,0,.68-2.38,11.56,11.56,0,0,0-1.07-2.14,9.61,9.61,0,0,1-1.27-2.64c-1.52-6.45-4-12.65-5-19.25a8.74,8.74,0,0,1,0-3.74,1.75,1.75,0,0,1,1.89-1.49A1.62,1.62,0,0,1,78.94,223a14.23,14.23,0,0,1,.13,2.69,9.61,9.61,0,0,0,2.3,7.2c1.95,2.25,2.23,5.44,3.94,7.83a.76.76,0,0,1,.13.52c-.38,2.33,1,3.58,2.49,4.94A15.1,15.1,0,0,1,91.32,251,20.51,20.51,0,0,0,93,254.29a8.44,8.44,0,0,1,1,8.39,5.72,5.72,0,0,0,2.45,6.73c2.59,1.67,4.63,4.29,7.75,5.11.3.08.54.43.79.68a11.29,11.29,0,0,0,3.65,2.49c2.05.92,4.2,1.66,6.19,2.7,3.39,1.78,6.8,2.4,10.46,1.07a4.23,4.23,0,0,1,4.73,1.28c1.1,1.14,2.16,2.33,3.15,3.57a11.24,11.24,0,0,0,4.94,3.79,51.09,51.09,0,0,0,8.62,2.73,5.8,5.8,0,0,1,4.51,3.62,21.31,21.31,0,0,1,1.73,5.06A5.62,5.62,0,0,0,156.3,306a10.31,10.31,0,0,1,4.74,4,3.82,3.82,0,0,0,2.44,1.87,10.59,10.59,0,0,1,5.49,2.68c1.17,1.15,2.87.32,3-1.33a11.28,11.28,0,0,1,.79-2.8,1.48,1.48,0,0,0-1.36-2.25,7.84,7.84,0,0,0-1.28.06,8.26,8.26,0,0,1-8.46-10.54c.87-3.29,1.11-6.72,2.35-9.95.84-2.17.09-3.35-1.69-4.84a8.73,8.73,0,0,0-6.92-1.76c-.92.05-1.69.14-2.47.13-3.42-.06-4.92-2.36-3.75-5.76a5.76,5.76,0,0,1,.88-1.64,21.47,21.47,0,0,0,2.46-5c1-2.46.8-5.32,2.55-7.56.72-.92,0-1.94-1.36-2.27-3.36-.84-6.45.22-9.5,1.54a2.84,2.84,0,0,0-1.53,2.35,23.35,23.35,0,0,1-1.44,4.62c-1,2.5-2.18,3.36-4.77,3.17a48.44,48.44,0,0,0-5.39.1c-2.73.1-5.43-.53-7-3.13a17.11,17.11,0,0,1-2.48-7.05,30,30,0,0,1,2.54-16.31,12.88,12.88,0,0,0,1.39-5.42,5.8,5.8,0,0,1,2.41-4.53c3.25-2.78,7.25-4.08,10.78-6.28a4.16,4.16,0,0,1,3.52-.24,47.07,47.07,0,0,0,9.12,1.51,2.32,2.32,0,0,0,2.41-1.13,4.58,4.58,0,0,1,2.81-2.22c1.6-.34,3.2-.73,4.8-1.05a3.57,3.57,0,0,1,3.92,1.41,3,3,0,0,0,2.87,1.3c2.86-.1,4.31,1.57,4.11,4.52a17.91,17.91,0,0,0,3.37,11.36c.89,1.33,1.87,1.42,3.06.38a7.47,7.47,0,0,0,2.46-5.46,19.63,19.63,0,0,0-.71-5.61c-.36-1.49-.56-3-.8-4.51-.83-5.11,1.52-8.7,5.07-11.62a65.17,65.17,0,0,1,13-8.19,3.6,3.6,0,0,0,1.49-1c1.44-2.33,3.4-4.32,4-7.17a14.93,14.93,0,0,1,3.48-6.54c2.08-2.51,4-5.13,6.25-7.53a12.57,12.57,0,0,1,7.49-4.35,15.94,15.94,0,0,0,4.13-1.49,2.94,2.94,0,0,0,1.83-2.42c.43-3,2.46-4.64,4.92-5.72a21.49,21.49,0,0,0,3-1.53,5.75,5.75,0,0,1,7.39,1.28c1,1.16,1.68,1.26,2.88.34a9.39,9.39,0,0,0,1.31-1.29,6.45,6.45,0,0,1,4.52-2.25c2.22-.23,4.41-.78,6.6-1.21.89-.18,1.73-.53,1.73-1.66a1.87,1.87,0,0,0-1.63-1.82c-1.08-.29-2.19-.45-3.27-.76-2.42-.69-3.36-2.25-3-4.84a7.08,7.08,0,0,1,1.71-3.59,5,5,0,0,0,1.51-4.37,2,2,0,0,1,1.38-2.3,8.8,8.8,0,0,1,3.28-.62c3.32-.28,6.65.74,10-.32,1.35-.43,2.23.92,1.81,2.38a5.78,5.78,0,0,1-1.6,2.42,8.07,8.07,0,0,0-2.14,3.64c-.36,1.37-.1,1.88,1.2,2.08a13.8,13.8,0,0,0,3.08.12,13.3,13.3,0,0,1,7.78,1.3,9.61,9.61,0,0,0,3,.82c2.47.46,4-1.22,3.32-3.8a7.94,7.94,0,0,1-.1-4c.62-2.45.63-2.47-1.39-3.74a3.34,3.34,0,0,1-1.71-3.82,40,40,0,0,1,1.11-4.44c.82-2.57,1.72-5.22-.92-7.38a2.2,2.2,0,0,1-.52-1.2,2.69,2.69,0,0,0-2-2.24c-2.81-.84-3.59-3.11-3.74-5.79-.08-1.53,0-3.07-.08-4.6a14.16,14.16,0,0,0-1.88-6.67c-1.48-2.47-2.3-2.63-4.51-1-.7.53-1.36,1.11-2.08,1.6-1.3.89-2.59,1.8-3.95,2.55a3.67,3.67,0,0,1-4.33-.56c-1.32-1.23-.86-2.58-.28-3.94.11-.25.23-.49.32-.75.67-1.81.6-2.27-.89-3.45a20.6,20.6,0,0,1-2.63-2.57,6.51,6.51,0,0,0-3.61-2.45,36.08,36.08,0,0,0-8-.6c-1.26.06-2.65.4-3.17,1.51-1,2.22-3,4-3.11,6.68a4.49,4.49,0,0,1-2.63,4,15.41,15.41,0,0,0-1.6.87c-1.33.89-1.64,1.6-.71,2.86,1.47,2,.93,3.64-.22,5.42a10.81,10.81,0,0,1-3.38,3.25c-2.16,1.35-4.59,2-6.82,3.19-1,.49-1.92.95-2.06,2.21-.19,1.72-1.07,3.27-1.27,4.93-.32,2.62-1.82,3.93-3.91,4.89s-3.47.3-4-2a5.27,5.27,0,0,1,.37-3.68,33.22,33.22,0,0,1,1.94-3.81c1.86-2.68.9-3.06-1.58-3.57a6.07,6.07,0,0,0-1-.14,13.83,13.83,0,0,1-10-4.84,5.36,5.36,0,0,0-2.88-1.72c-3.31-.63-4.75-2.67-5.47-6.1-.52-2.47,0-4,1.64-5.42,1.19-1,2.46-2,3.72-2.91a23.67,23.67,0,0,1,10.27-4.77,11.55,11.55,0,0,0,5.74-2.87c2.9-2.53,6.2-3,9.23-.69a3.85,3.85,0,0,0,5.15.11c.35-.25.76-.41,1.14-.63,1.51-.87,3-1.31,4.61-.18a3.35,3.35,0,0,0,1.2.45,1.64,1.64,0,0,0,1.85-.63,1.43,1.43,0,0,0-.28-1.94,6.26,6.26,0,0,1-1.42-2.84c-.46-1.92-.09-2.68,1.81-3.06A13.22,13.22,0,0,0,241.3,88c3.36-2,5.61-5.22,7.89-8.37.71-1,1.45-1.88,2.62-2a20.39,20.39,0,0,1,7.18.23,4.8,4.8,0,0,1,2.88,1.68,10.5,10.5,0,0,0,2.83,2.69c1.4.94,1.47,2,.3,3.36a13,13,0,0,1-3.3,2.57,4.76,4.76,0,0,0-2.3,2.09c-.59,1.32-1.74,1.62-3,1.8a11.48,11.48,0,0,1-4.57-.59,3.79,3.79,0,0,0-4.49,2.19c-.41,1-.13,1.89.92,2a23.78,23.78,0,0,0,6.4.61c3.43-.38,3.78-.21,5.08,3a4.86,4.86,0,0,0,2.6,2.83c1.91.82,3.84,1.58,5.77,2.35a3.52,3.52,0,0,0,3.86-.64c1.61-1.35,3.31-2.58,4.91-3.94,1.89-1.62,2.21-3.37,1.2-5.77-.35-.82-.73-1.63-1-2.48a1.35,1.35,0,0,1,.37-1.7,1.26,1.26,0,0,1,1.66.28c.87.87,1.64,1.84,2.51,2.7,1.33,1.31,2.16,1.38,3.66.28,1.12-.82,2.21-1.72,3.27-2.63,1.84-1.57,2.06-3.08.84-5.19a5.55,5.55,0,0,0-1.9-1.77c-2.13-1.41-3.71-3.17-3.49-6.12a4.36,4.36,0,0,0-2-3.85,13.28,13.28,0,0,0-5.39-2.46,6.46,6.46,0,0,1-4.72-3.82A5,5,0,0,0,268,64.28a27.26,27.26,0,0,0-3.59-.35c-4.74-.35-9.41,1-14.15.58-4.93-.46-9,1.26-12.63,4.84-1.74,1.72-2.92,3.29-1.75,5.82a2.23,2.23,0,0,1-.63,2.67,3.82,3.82,0,0,1-6.19-.69,11.41,11.41,0,0,1-1.32-4.06c-.38-2.11-1.27-2.67-3.3-2.3a12.38,12.38,0,0,0-4.56,1.82c-2.18,1.43-4,3-3.43,6.27.38,2.38-1.28,3.85-3.61,3.72a7.2,7.2,0,0,1-1-.16c-2.47-.42-4.91-.67-7.34.41a6,6,0,0,1-2.29.24,35.45,35.45,0,0,0-5.14.37,6.46,6.46,0,0,1-5.78-1.56,5.05,5.05,0,0,0-4.59-1.25c-2.79.55-5.61.82-8.37,1.62-3.9,1.13-7.8,1.4-11.35-1.34a5.68,5.68,0,0,0-3.94-1,5.1,5.1,0,0,1-3.23-.7c-3.52-2.38-7.4-3-11.55-3.19-3.3-.13-6.58-1.08-9.85.21-6.17-.38-12.09,1.56-18.1,2.51-4.07.65-7.68-.5-11.31-1.5-2.34-.65-4.47-1.71-7-1.11a4,4,0,0,1-1.29,0c-5-.4-9.87-1.39-14.79-2.2-3.51-.58-7-2.11-10.61-.34a4.5,4.5,0,0,1-1.53.12c-3,.21-6,.38-9,.66a9,9,0,0,0-3.26.79c-2.79,1.45-5.84,2.11-8.69,3.37a22.26,22.26,0,0,1-6.22,1.69,26.35,26.35,0,0,0-2.79.52c-1.9.45-3.31,1.38-3.53,3.68A4.19,4.19,0,0,1,37.5,88a14.35,14.35,0,0,1-3.17,1.1c-2.29.38-4.58.8-6.85,1.28C25,90.93,24,92.32,24,94.93c0,.93.41,1.32,1.27,1.25a6.68,6.68,0,0,1,2.56-.05A1.07,1.07,0,0,1,28.35,98a5.54,5.54,0,0,1-2,1.24c-3.06,1.67-6.63,2-9.61,3.85A16,16,0,0,1,12.53,105a4.66,4.66,0,0,0-3.13,3,5.37,5.37,0,0,1-.82,1.66,3.12,3.12,0,0,0-.34,3.74c.81,1.81,1.63,3.48,3.91,3.85,1.57.25,1.75,1.56.56,2.76A5.33,5.33,0,0,1,11.44,120.9Z"/><path class="cls-2" d="M802.41,479.64c1.27.52,2.44,1.32,3.7,1.89a4.91,4.91,0,0,1,2.75,3.67,12,12,0,0,1,.27,2.67c.06,2.78.58,3.29,3,4.38,3.48,1.58,7.15,1.65,10.81,2.19,4.91.72,9-1.55,13.38-3a8.76,8.76,0,0,0,3.94-2.46,114.76,114.76,0,0,0,7.55-10.23,23.32,23.32,0,0,1,3.78-4.73c1.36-1.24,2.86-2.33,4.16-3.64,2.09-2.1,4.49-4,5.88-6.71a106.1,106.1,0,0,0,7.33-17.52c.81-2.73,1.08-5.3-.77-7.66-3.76-4.77-6.41-10.24-8.95-15.75a14.21,14.21,0,0,0-5.11-6.2,3.2,3.2,0,0,1-1.62-2.86c0-1,0-2,0-3,.35-3.4-1.19-6.53-1.31-9.86a1.82,1.82,0,0,0-.41-1c-2.44-3.17-3.29-7.09-4.7-10.75a15.14,15.14,0,0,0-.89-2.24c-.93-1.58-2.35-1.58-3.21,0a24.16,24.16,0,0,0-1.92,5c-1.39,5-2.77,10-4.45,14.93-.82,2.36-1.86,3-3.89,1.81a54.93,54.93,0,0,1-7.84-5.2,4.73,4.73,0,0,1-1.54-5.54c.73-1.84,1.23-3.75,1.9-5.6,1-2.7.36-3.81-2.47-4.07a28.29,28.29,0,0,1-10-2.28,3.12,3.12,0,0,0-4,.88c-2.16,2.55-4.9,4.52-6.69,7.44-.74,1.21-1.64,2.32-2.42,3.5a1.51,1.51,0,0,1-2.23.61,34.09,34.09,0,0,1-3-2,2.62,2.62,0,0,0-2.88-.39,30.89,30.89,0,0,0-10.75,7.19,20.68,20.68,0,0,1-2.6,2.61,12.61,12.61,0,0,0-4.12,5.38c-1.87,4.27-4.68,7.53-9.48,8.23-4.15.6-7.56,3.4-11.61,4.34a2.44,2.44,0,0,0-1.06.75,10.6,10.6,0,0,1-3.42,2.38c-2.34,1.06-4.23,2.4-4,5.5a1.39,1.39,0,0,1-.24.76c-1.71,2.57-2,5.71-3.24,8.48a10.05,10.05,0,0,0-.3,7.08,30.13,30.13,0,0,1,1.5,10.35,18.27,18.27,0,0,0,.16,4.85,11.84,11.84,0,0,1-3.49,9.93,2.59,2.59,0,0,0-.85,3.13,6.15,6.15,0,0,0,7.62,3.37c.71-.28,1.35-.79,2.05-1.11,3.94-1.78,7.84-3.75,12.32-3.36a8.74,8.74,0,0,0,6.47-2.09,22.18,22.18,0,0,1,9.14-4.18,93.17,93.17,0,0,0,9.26-2.25c3.54-1.14,7.21-2.15,10.54.79a1.56,1.56,0,0,0,.71.3c2.5.45,3.48,2.39,4.12,4.64a6.65,6.65,0,0,1,.25,2.13A4.23,4.23,0,0,0,802.41,479.64Z"/><path class="cls-2" d="M762.49,315.44c-1.27-1.75-1.87-1.65-3.13.13-1.12,1.59-2,3.42-3.48,4.67-2.55,2.12-5.27,4-7.22,6.83a5.53,5.53,0,0,1-1.87,1.42c-2.61,1.55-5.2,3.15-7.88,4.55-3.15,1.65-4.32,4-3.61,7.63a18.53,18.53,0,0,1,.32,2.67,8.55,8.55,0,0,0,1.3,4.33,17.5,17.5,0,0,1,1.94,4.4c.23.77.4,1.71,1.16,2,1.83.73,3.61,2,5.54,1.93a16.69,16.69,0,0,1,7.2,1.72c.55.24,1.12.41,1.47.53a5.32,5.32,0,0,0,5.71-4.27,8.77,8.77,0,0,0,.34-3.73,3.89,3.89,0,0,1,2-4.28,2.78,2.78,0,0,0,1.54-1.73,8.86,8.86,0,0,1,3-4.62,2.45,2.45,0,0,0,.54-3.12c-.73-1.72-1.23-3.55-1.82-5.33-.77-2.31-.67-4.4,1.19-6.18a9.34,9.34,0,0,0,1.4-1.93c1.18-2,1-2.7-1-3.86A14.07,14.07,0,0,1,762.49,315.44Z"/><path class="cls-2" d="M309.17,323.77c-2.3-.87-3.73-2.07-4.37-4a10.28,10.28,0,0,0-1.78-3.34,8.44,8.44,0,0,1-1.53-3.18c-.63-2.29-1.54-4.41-4.15-5.69a7.7,7.7,0,0,1-1.7-1.48,4.41,4.41,0,0,0-1.95-1.2c-2.77-.66-5.44-1.7-8.43-1.51a10.37,10.37,0,0,1-9.95-4.84,8,8,0,0,0-3.86-3.1c-3.4-1.37-3.83-2.18-3.08-5.43.33-1.47-.07-2.09-1.74-2.68a6.12,6.12,0,0,0-2.92-.29,27,27,0,0,1-3.23.31,9.93,9.93,0,0,0-5.15,1.13,4.45,4.45,0,0,1-3.9.28,27.1,27.1,0,0,0-5.73-1.32,6.64,6.64,0,0,1-2.52-.77c-1.82-1.18-4-1.81-5.87-2.85s-4.25-1.22-6.48-1.46a3.42,3.42,0,0,0-2.46.78,15.55,15.55,0,0,1-6.31,2.49c-2.95.6-5.5,1.81-6.54,4.61-.86,2.32-3.71,3.66-6.62,3.39a13.33,13.33,0,0,0-1.89-.12c-1.81.08-2.84,1.29-1.84,2.47s1.38,2.83,2.39,4.09c2.08,2.62,1.8,5.57,1.54,8.48a9.2,9.2,0,0,1-4.53,7.55,6.46,6.46,0,0,0-1.43,1.38c-1.14,1.29-2.51,2.43-3.64,3.69-2.9,3.26-4.46,7-2.34,11,1.06,2,.71,3.48-.66,5.1a6.16,6.16,0,0,0,1.36,9.11,14.41,14.41,0,0,1,5.82,7.58,7.43,7.43,0,0,0,2.08,3.18,42.33,42.33,0,0,1,6.21,8.08c2.15,3.34,3.68,7,7.1,9.68a12.08,12.08,0,0,0,4.21,2.39,37.33,37.33,0,0,1,11.36,5.71,7.94,7.94,0,0,1,3.31,4.61c1,3.86.94,7.78,1.29,11.68.17,1.92,0,3.86.3,5.76.47,3.43.16,6.91.85,10.33a6.39,6.39,0,0,1-.22,2.52,17.07,17.07,0,0,0,.94,9.56,46.7,46.7,0,0,1,1.84,7,12.69,12.69,0,0,1-.27,6.41c-.75,2.39-.52,4.89-1,7.32a2.49,2.49,0,0,0,.41,1.78c1.63,2.63,2.19,5.51,2.8,8.39a12.28,12.28,0,0,0,3.61,7.08,12.69,12.69,0,0,1,2.54,3.78c2.11,4,1.88,8.61,4.53,12.47a2.41,2.41,0,0,1,.19.9,15.62,15.62,0,0,0,2.78,6.91,65.72,65.72,0,0,1,3.51,5.71,16.59,16.59,0,0,0,6.61,6.26,5.29,5.29,0,0,0,3.62.53c3.9-.75,5.89,0,7.72,3a2.61,2.61,0,0,0,1.93,1.45c2.66.42,5.31.89,8,1.25a16.42,16.42,0,0,0,3,0,1.42,1.42,0,0,0,1.41-.91c.23-.71-.23-1.17-.83-1.57a6.93,6.93,0,0,0-2.56-.67c-3.46-.68-6.56-2.12-8.52-4.57a30.15,30.15,0,0,0-4.39-4.89c-1-.8-1.91-1.91-1.36-3.09,1-2.1,1.1-4.55,3.25-6.21l.18-.18c1.77-1.88,1.48-3.46-.87-4.83-2.95-1.7-3.5-3.6-1.82-6.29.38-.61,1-1.26.85-1.91-.59-2.19.63-3.85,1.91-5.55a3.91,3.91,0,0,0,.55-1.53,10.27,10.27,0,0,1,2.09-4.22,4.82,4.82,0,0,0,1.16-2.07c.51-2.67,2.37-4.13,5.38-4.88,3.6-.9,6.35-2.62,6.66-6.17a2.63,2.63,0,0,1,.3-.88c1.09-2.28,2.11-4.54,4.65-6.08a9.82,9.82,0,0,0,3.68-4.21c1-2.13,2.08-4.26,3.21-6.36,1.75-3.27,4.42-6.1,6.76-9,1.83-2.29,2.55-4.28,1.72-6.82a18.21,18.21,0,0,1-.5-2c-.65-3.08.65-5.35,3.78-7s6.46-2.36,9.49-3.9a5.35,5.35,0,0,1,1.59-.24l4-.54a3.48,3.48,0,0,0,2.16-.87c1.52-1.65,3.72-3,3.41-5.5-.11-.85.73-1.54,1.23-2.27a8.39,8.39,0,0,0,1.84-5.45,4.81,4.81,0,0,1,.46-2.25,14.57,14.57,0,0,0,1-9.89c-.72-2.73-1-5.57,1.29-7.95,3-3.17,4.86-7,8.26-9.94a7.22,7.22,0,0,0,1.66-2.37c1.7-3.48,2.48-7,1-10.77a5.67,5.67,0,0,0-5-3.95,9.5,9.5,0,0,1-5.53-2.69,20,20,0,0,0-1.92-1.62c-2.37-1.81-5-3.12-7.92-2.66-4.78.18-4.94-.07-10.63-2.57C320.52,327.71,314.78,325.88,309.17,323.77Z"/><path class="cls-2" d="M197.76,270.22c-.58.17-1.18.27-1.76.41s-1.11.27-1.14.91c0,.81.66,1,1.24,1.12,1.09.24,2.2.45,3.3.6,1.78.25,3.59,1,5.36.44a66.61,66.61,0,0,1,6.8-1.51c.78-.14,1.59-.31,1.8-1.26.25-1.12-.54-1.69-1.33-2-3.13-1.34-6-3.72-9.36-3-1.1-.07-1.87-.16-2.64-.17-1.82,0-1.91.13-1.2,2S199.36,269.75,197.76,270.22Z"/><path class="cls-2" d="M516.07,438.35a6,6,0,0,0,5,4.83c2.24.4,4.31-.78,6.18-2.09a2.2,2.2,0,0,0,.57-.88,33.15,33.15,0,0,0,1.85-4.45c1.78-6.5,4.32-12.71,6.54-19a20,20,0,0,0,1.16-4.42,16.91,16.91,0,0,1,2-6.07,6.84,6.84,0,0,0,1.14-3.54,29.75,29.75,0,0,0-2.7-11.16c-.66-1.37-1.48-1.4-2.32-.1a41.62,41.62,0,0,0-3.09,5.28c-2,4.36-4.69,7.72-9.49,8.68-1.61.33-2.53,1.52-3.4,3-1.59,2.72-1.39,5.58-.83,8.37a11.83,11.83,0,0,1-2.26,9.36A7.92,7.92,0,0,0,515,431.5,24.32,24.32,0,0,0,516.07,438.35Z"/><path class="cls-2" d="M194.47,263.77c-.69-.52-1.49-.89-2.2-1.39-1.71-1.21-3.82-1.76-5.28-3.32-3.14-3.35-7.21-4.77-11.28-6.22a9,9,0,0,0-3-.47,17.48,17.48,0,0,0-6.75,1.56,7.72,7.72,0,0,0-3.5,3.09.93.93,0,0,0-.11,1,.77.77,0,0,0,.92.3,32.91,32.91,0,0,0,3.19-1c4.13-1.64,7.89.3,11.75,1.3a1.2,1.2,0,0,1,.42.31,22.76,22.76,0,0,0,3.78,2.79,5.22,5.22,0,0,1,2.46,3,1.62,1.62,0,0,0,2.14,1.37,6,6,0,0,1,4.24.64,3.34,3.34,0,0,0,3,.11C195.74,266,195.87,264.83,194.47,263.77Z"/><path class="cls-2" d="M422.5,41.42A8.5,8.5,0,0,0,419,41a68.57,68.57,0,0,1-7.16-.21c-4.42-.44-8.54-2.2-12.88-3-6.67-1.26-13.3-1.72-20-.37a16.61,16.61,0,0,1-5.19.63,56.94,56.94,0,0,0-17.27,1,102.28,102.28,0,0,1-18.92,1.32A82,82,0,0,0,321.71,42c-5.21,1-10.37,2.49-15.58,3.62a4.24,4.24,0,0,0-2.51,1.08c-1.95,2.31-4.57,2.6-7.25,2.93a63.65,63.65,0,0,0-9,1.24c-2.52.68-3.28,2.7-1.95,5.06a5.21,5.21,0,0,0,2.92,2.51,10.88,10.88,0,0,0,5.15.67c1.45-.23,2.92-.33,4.11-.46,1.48.09,2.68.11,3.86.26a40,40,0,0,1,4.35.77c3.17.8,5,3.22,5.09,6.64a10.05,10.05,0,0,1-1,4.75,4.81,4.81,0,0,0,.29,4.92c.9,1.46,1.76,2.94,2.56,4.45s.44,2.33-1,2.91a8.12,8.12,0,0,1-1.08.27c-4.71,1.21-7,4.22-6.88,9.33,0,1.82.55,3.65.45,5.45-.27,4.59,1.58,8.43,3.54,12.26a2.26,2.26,0,0,0,2.71,1.45c2.48-.6,4.37.23,6.16,2.15,2,2.1,3.68,1.93,5.72-.22s4.1-3.88,5.36-6.55a5.65,5.65,0,0,1,2.08-2.26,10.62,10.62,0,0,0,3.51-4c.48-.93,1.09-1.78,1.64-2.67a5.86,5.86,0,0,1,4.54-2.89c2.55-.3,5.05-.89,7.6-1.23A19.75,19.75,0,0,0,357.45,90a15.8,15.8,0,0,1,9-3.84,40.28,40.28,0,0,0,14.64-3.87A22.06,22.06,0,0,1,386,80.32c4.19-1,5.25-2.71,4.79-7.24-.37-3.63-.32-3.82,2.85-5.19C400.3,65,403.3,59.16,405,52.33c.4-1.62.89-2.92,2.37-3.61,3.35-1.57,6.63-3.36,10.37-3.79a12.94,12.94,0,0,0,4.92-1.8C423.5,42.63,423.41,41.81,422.5,41.42Z"/><path class="cls-2" d="M385.91,95.57a2.92,2.92,0,0,0,2.77,2,24.22,24.22,0,0,1,5.59.89,3.86,3.86,0,0,0,3-.38A34,34,0,0,1,405,95.18a7.26,7.26,0,0,0,3-1.44c1.34-1.21,1.38-2.28.22-3.67a5.45,5.45,0,0,0-4.51-2.18,25.39,25.39,0,0,0-4.35.38c-3.48.68-7,1.15-10.44-.08A4.32,4.32,0,0,0,388,88a6.23,6.23,0,0,0-4.21,2c-.8.75-.91,1.53-.07,2.28A8.56,8.56,0,0,1,385.91,95.57Z"/><path class="cls-2" d="M543.11,297.47c-.17-1.85-.78-2.47-2.45-1.9a15.54,15.54,0,0,1-2.95.93A34.61,34.61,0,0,0,529,299a25.44,25.44,0,0,1-5.77,1.35,4.77,4.77,0,0,1-5.51-4.08,8.9,8.9,0,0,0-2.52-5.16,32.89,32.89,0,0,1-3.26-3.82,8.8,8.8,0,0,0-4.4-3.53,6.6,6.6,0,0,1-4.28-5.61,14.81,14.81,0,0,0-3.37-7.74,16.09,16.09,0,0,1-3.66-8.46,17.49,17.49,0,0,0-3.93-8.95,21.3,21.3,0,0,1-4-6.91,38,38,0,0,0-3.55-7.48,9.28,9.28,0,0,1-1.36-4.56,29.37,29.37,0,0,0-2.14-9.7c-1.11-2.75-3.32-4.26-5.83-5.39-2.11-1-3.85.06-5.56,1.15a3.49,3.49,0,0,1-3.42.49c-2.91-1.2-6-1.54-9-2.21a24.89,24.89,0,0,1-7.89-3.12,8.25,8.25,0,0,0-7.09-1.21c-3.38.93-4.4,2.29-4.12,5.87.17,2-1.09,3.2-3,2.79a4.7,4.7,0,0,1-1.83-1,10,10,0,0,0-5.46-2.2,3.49,3.49,0,0,1-3.37-2.47,4.87,4.87,0,0,0-4.38-3.25,24,24,0,0,0-3.6-.09,9.11,9.11,0,0,1-5.71-2.18,3.84,3.84,0,0,1-1.46-4.51c1-2.12,1-4.33,1-6.58,0-3.25-.92-4.22-4-4a5.49,5.49,0,0,0-1.76.33,10.5,10.5,0,0,1-5.59.54,7.21,7.21,0,0,0-4.05.5,3.14,3.14,0,0,1-2.5.31c-2-.78-3.89-.38-5.84.06a26.77,26.77,0,0,1-4.8.93c-2.67.09-5.15.41-7,2.73a2.25,2.25,0,0,1-.89.52,30.78,30.78,0,0,1-11.07,2.26,4.52,4.52,0,0,1-1.77-.3c-4.06-1.5-4.06-1.51-6.17,2.32a7,7,0,0,0-.48.95,5.53,5.53,0,0,1-2.77,3.05,16.09,16.09,0,0,0-8,10.35,18.15,18.15,0,0,1-4.44,7.81c-1.17,1.28-2.11,2.94-3.83,3.52s-2.79,2.15-3.94,3.64a72.78,72.78,0,0,0-6.71,11.28c-1.37,2.67-2.94,5.25-4.33,7.93a10,10,0,0,0-.86,7.57c.58,2.07,1.17,4.13,1.58,6.25A14.53,14.53,0,0,1,319,280.63a9.35,9.35,0,0,0-2,6.5,20.05,20.05,0,0,0,3.73,9.64,3.06,3.06,0,0,0,.76.72,25.38,25.38,0,0,1,9.25,12.6,13.93,13.93,0,0,0,3.63,5.5c3.81,3.66,8.58,6,12.39,9.63a1.21,1.21,0,0,0,.22.15,3.56,3.56,0,0,0,3.67.44c1.36-.55,2.7-1.22,4.1-1.63,2.13-.64,4.25-1.54,6.53-1.14,1.61.28,3.2.7,4.77,1.13a3.89,3.89,0,0,0,2.77-.07,90.79,90.79,0,0,0,8.8-3.85,17.2,17.2,0,0,1,8.2-1.91,6.07,6.07,0,0,1,6.13,4.07c1.59,3.78,1.81,3.91,5.8,3.71.34,0,.69,0,1-.07a8.39,8.39,0,0,1,5.64,1.41,4.28,4.28,0,0,1,2.26,4.72c-.64,3.26-1,6.55-1.4,9.84a3.06,3.06,0,0,1-.3,1c-1.74,3.29-.54,6.07,1.37,8.71a72.32,72.32,0,0,0,5,6.51,10.79,10.79,0,0,1,2.84,5.94,15.74,15.74,0,0,0,1.76,5.05,8.54,8.54,0,0,1,1.33,4.05,30.77,30.77,0,0,0,2.22,11c.92,2.62,1,5.5-1,7.66a12.61,12.61,0,0,0-3.18,7.19,11.88,11.88,0,0,1-.62,2.34A36.06,36.06,0,0,0,413,411a6.05,6.05,0,0,0,.82,3.89,42.06,42.06,0,0,1,3.48,7.52,18.66,18.66,0,0,0,2.57,5,9.09,9.09,0,0,1,2.29,7.22c-.25,4.34,1,8,1.4,11.72a13,13,0,0,0,4.63,9,5.44,5.44,0,0,1,2,3.38c.68,4.41,2.74,8.44,2.6,13.14-.13,4.21,2.44,7,5.83,7.25a19.45,19.45,0,0,0,7.16-.57,23,23,0,0,1,7.33-1.31,7.21,7.21,0,0,0,1.77-.3c5.63-1.35,10.87-3.42,14.38-8.66a4,4,0,0,1,.72-.76,18.27,18.27,0,0,0,4.18-5.78,14.69,14.69,0,0,1,3.63-4.86,8.06,8.06,0,0,0,2.66-4.18c.38-1.39,1-2.72,1.21-4.13a9.12,9.12,0,0,1,4.62-6.77c2.92-1.68,4.05-4.5,4.44-7.79a19.45,19.45,0,0,0-.67-7.47c-1-3.66-.09-6.77,2.92-9.06a8.24,8.24,0,0,0,2-2.1,9.17,9.17,0,0,1,4-3.34A17.81,17.81,0,0,0,501,411c5-3.19,8.4-7.36,7.71-14.06a22.32,22.32,0,0,1,.22-6.47,10.92,10.92,0,0,0-1.52-8.5,10.35,10.35,0,0,1-1.91-6.34,29.88,29.88,0,0,0-1.13-9.6,4.52,4.52,0,0,1,.19-3.42c2.49-4.45,3.39-9.92,7.69-13.23a9.17,9.17,0,0,0,1.6-2.1c1.5-2.09,2.92-4.24,4.5-6.27s3.14-4.07,5.44-5.28c5-2.62,8.22-7.07,10.81-12,2.06-3.93,3.61-8.17,5.46-12.23C542.07,307.05,543.56,302.52,543.11,297.47Z"/><path class="cls-2" d="M381.49,136.34a4.27,4.27,0,0,1-2.54-3.13,5.79,5.79,0,0,0-1.9-3.13,5.84,5.84,0,0,1-1.34-2,15.91,15.91,0,0,1-2.1-7.39,5,5,0,0,0-5-5.29c-1.12,0-2.29-.07-3.18.8-1.79,1.76-3.17,3.62-2.91,6.55a8.79,8.79,0,0,0,4,6.56c.56.41,1.21.68,1.77,1.09a3.66,3.66,0,0,1,1.7,3.16c-.06,1.4-1.27,1.52-2.24,1.82a2.5,2.5,0,0,0-1.9,1.66q-1.1,4.15-2,8.37a1.31,1.31,0,0,0,1.44,1.72,2.91,2.91,0,0,0,1.49-.32c2.57-1.5,5.36-1.69,8.22-1.88,2.67-.18,5.35-.76,6.49-3.93.11-.31.45-.53.68-.8C383.69,138.32,383.61,137.28,381.49,136.34Z"/><path class="cls-2" d="M355.56,129.19a7.33,7.33,0,0,1-3.29,2,1.89,1.89,0,0,0-1.48,2.42,6.22,6.22,0,0,1-.73,4.13,6.18,6.18,0,0,0-.38,1.08c-.23,2.5,1.81,4,3.88,3,1.39-.67,2.65-1.86,4.19-1.93,2.79-.14,3.59-2,4-4.39a5.82,5.82,0,0,1,1.19-2.88c1.5-1.86.92-3.89-1.31-4.51S357.4,127.49,355.56,129.19Z"/></g><g class="cls-1"><path class="cls-2" d="M898.38,57c-2.94,1.5-5.89,3-8.83,4.45-.62.31-1.25.6-1.84,1a1.26,1.26,0,0,0-.75,1.3A1.5,1.5,0,0,0,888.21,65,5.51,5.51,0,0,0,891.9,64c1.22-.66,2.36-1.52,3.63-2.05,8.53-3.61,17-7.49,25.68-10.57a6.8,6.8,0,0,1,3-.58c4.34.51,8.3-1,12.3-2.4a4.51,4.51,0,0,0,2.08-1.52c2-2.39,3.7-2.91,6.36-1.57a13.87,13.87,0,0,0,6.61,1.92,16,16,0,0,1,2.24.57c3.67.5,6.1,2.51,8.14,5.81,2.51,4.07,3.93,8.12,2.91,13a13.56,13.56,0,0,0-.42,5.63c.73,3.44-.43,6.47-2.11,9.2-1.35,2.2-1.31,4,.19,5.89,1.86,2.33,2,4.75.94,7.56-2,5.3-5.35,9.62-8.71,13.95-1.51,2-3.43,3.62-4.14,6.12a15.38,15.38,0,0,1-2.78,5.43,8.36,8.36,0,0,0-1.58,3.91c-.41,2.27-.61,4.44.46,6.58a2.83,2.83,0,0,1,.31,1.56c-.43,3.08.18,6.1.34,9.15.18,3.26.17,3.17,3,4.45,2.26,1,4.23,2.49,4.64,5.33.38,2.67.87,5.34,1,8s.49,5.11,2.17,7.31c1.2,1.56,1,2.18-.36,3.73s-1.35,2.71,0,4.24a6.7,6.7,0,0,0,1.54,1.43c1.61.94,2.15,2.42,2.36,4.22.18,1.51.4,3.12,1.62,4.17a36.12,36.12,0,0,1,3.82,4c.52.62,1.15,1.23,2,.72a1.89,1.89,0,0,0,.68-2.38,10.7,10.7,0,0,0-1.07-2.14A9.61,9.61,0,0,1,967.5,182c-1.51-6.45-4-12.65-5-19.25a8.74,8.74,0,0,1,0-3.74,1.75,1.75,0,0,1,1.89-1.49,1.62,1.62,0,0,1,1.48,1.61,13.44,13.44,0,0,1,.13,2.69,9.61,9.61,0,0,0,2.3,7.2c2,2.25,2.23,5.44,3.94,7.83a.76.76,0,0,1,.13.52c-.38,2.33,1,3.58,2.49,4.94a15.1,15.1,0,0,1,3.39,4.73,20.51,20.51,0,0,0,1.69,3.34,8.44,8.44,0,0,1,1,8.39,5.72,5.72,0,0,0,2.45,6.73c2.6,1.67,4.63,4.29,7.75,5.11.3.08.54.43.79.68a11.29,11.29,0,0,0,3.65,2.49c2.06.92,4.2,1.65,6.19,2.7,3.39,1.77,6.8,2.4,10.46,1.07a4.23,4.23,0,0,1,4.73,1.28c1.1,1.14,2.16,2.33,3.15,3.57a11.31,11.31,0,0,0,4.94,3.79,51.09,51.09,0,0,0,8.62,2.73,5.8,5.8,0,0,1,4.51,3.62,21.31,21.31,0,0,1,1.73,5.06,5.62,5.62,0,0,0,3.34,4.46,10.31,10.31,0,0,1,4.74,4,3.82,3.82,0,0,0,2.44,1.87,10.59,10.59,0,0,1,5.49,2.68c1.17,1.15,2.87.32,3-1.33a11.28,11.28,0,0,1,.79-2.8,1.48,1.48,0,0,0-1.36-2.25,7.84,7.84,0,0,0-1.28.06,8.26,8.26,0,0,1-8.46-10.54c.87-3.29,1.11-6.72,2.35-9.95.84-2.17.1-3.35-1.69-4.84a8.73,8.73,0,0,0-6.92-1.76c-.92.05-1.69.14-2.46.12-3.42-.06-4.92-2.35-3.76-5.75A6,6,0,0,1,1037,210a21.35,21.35,0,0,0,2.46-5c1-2.45.8-5.31,2.55-7.55.72-.92,0-1.94-1.36-2.27-3.36-.84-6.45.22-9.5,1.54a2.84,2.84,0,0,0-1.53,2.35,23.35,23.35,0,0,1-1.44,4.62c-1,2.5-2.18,3.36-4.77,3.17a48.44,48.44,0,0,0-5.39.1c-2.73.1-5.43-.53-7-3.13a17.11,17.11,0,0,1-2.48-7,30.12,30.12,0,0,1,2.54-16.31,12.74,12.74,0,0,0,1.39-5.42,5.8,5.8,0,0,1,2.41-4.53c3.25-2.78,7.25-4.08,10.78-6.28a4.16,4.16,0,0,1,3.52-.24,46.3,46.3,0,0,0,9.12,1.5,2.29,2.29,0,0,0,2.41-1.13,4.59,4.59,0,0,1,2.82-2.21c1.6-.34,3.19-.73,4.79-1.05a3.57,3.57,0,0,1,3.92,1.41,3,3,0,0,0,2.87,1.3c2.86-.1,4.31,1.57,4.11,4.52a17.85,17.85,0,0,0,3.38,11.36c.88,1.33,1.86,1.42,3.05.38a7.43,7.43,0,0,0,2.46-5.46,19.29,19.29,0,0,0-.71-5.61c-.36-1.49-.56-3-.8-4.51-.83-5.11,1.52-8.7,5.07-11.62a65.17,65.17,0,0,1,13-8.19,3.54,3.54,0,0,0,1.49-1c1.44-2.33,3.4-4.32,4-7.17a15,15,0,0,1,3.48-6.55c2.08-2.5,4-5.12,6.25-7.52a12.57,12.57,0,0,1,7.49-4.35,15.94,15.94,0,0,0,4.13-1.49,2.94,2.94,0,0,0,1.83-2.42c.43-3,2.46-4.64,4.92-5.72a21.49,21.49,0,0,0,3-1.53,5.75,5.75,0,0,1,7.39,1.28c1,1.16,1.68,1.26,2.88.34a9.39,9.39,0,0,0,1.31-1.29,6.47,6.47,0,0,1,4.52-2.25c2.22-.23,4.41-.78,6.6-1.21.89-.18,1.73-.53,1.74-1.66a1.89,1.89,0,0,0-1.64-1.82c-1.08-.29-2.19-.45-3.27-.76-2.42-.69-3.36-2.25-3-4.84a7.08,7.08,0,0,1,1.71-3.59,5,5,0,0,0,1.51-4.37,2,2,0,0,1,1.38-2.3,8.84,8.84,0,0,1,3.28-.62c3.32-.28,6.65.74,10-.32,1.35-.43,2.23.92,1.81,2.38a5.78,5.78,0,0,1-1.6,2.42,8.16,8.16,0,0,0-2.14,3.64c-.36,1.37-.1,1.88,1.2,2.08a13.8,13.8,0,0,0,3.08.12,13.3,13.3,0,0,1,7.78,1.3,9.61,9.61,0,0,0,3,.82c2.47.46,4-1.22,3.32-3.81a7.94,7.94,0,0,1-.1-4c.62-2.44.63-2.46-1.39-3.73a3.34,3.34,0,0,1-1.71-3.82,40,40,0,0,1,1.11-4.44c.82-2.57,1.72-5.22-.92-7.38a2.2,2.2,0,0,1-.52-1.2,2.69,2.69,0,0,0-2-2.24c-2.81-.84-3.59-3.11-3.74-5.79-.08-1.53,0-3.07-.08-4.6a14.16,14.16,0,0,0-1.88-6.67c-1.48-2.47-2.3-2.63-4.51-1-.7.53-1.36,1.11-2.08,1.6-1.3.89-2.59,1.8-4,2.55a3.67,3.67,0,0,1-4.33-.56c-1.31-1.23-.86-2.58-.28-4,.11-.24.23-.48.32-.74.67-1.81.6-2.27-.89-3.45a20.6,20.6,0,0,1-2.63-2.57,6.48,6.48,0,0,0-3.61-2.45,36,36,0,0,0-8-.6c-1.26.06-2.65.4-3.17,1.51-1,2.22-3,4-3.1,6.67a4.5,4.5,0,0,1-2.64,4,15.41,15.41,0,0,0-1.6.87c-1.33.89-1.63,1.6-.71,2.86,1.47,2,.93,3.64-.22,5.41A10.49,10.49,0,0,1,1116.1,62c-2.16,1.36-4.59,2.05-6.82,3.2-.94.49-1.92,1-2.06,2.21-.18,1.72-1.07,3.27-1.27,4.93-.32,2.62-1.82,3.93-3.91,4.89s-3.47.3-4-2a5.27,5.27,0,0,1,.37-3.68,33.22,33.22,0,0,1,1.94-3.81c1.86-2.68.9-3.06-1.58-3.57a6.07,6.07,0,0,0-1-.14,13.79,13.79,0,0,1-10-4.84,5.38,5.38,0,0,0-2.88-1.72c-3.32-.63-4.76-2.67-5.48-6.1-.52-2.47,0-4,1.64-5.42,1.19-1,2.47-2,3.72-2.91A23.65,23.65,0,0,1,1095,38.28a11.56,11.56,0,0,0,5.73-2.87c2.9-2.53,6.2-3,9.23-.69a3.85,3.85,0,0,0,5.15.11c.35-.25.76-.41,1.14-.63,1.51-.87,3-1.31,4.61-.18a3.33,3.33,0,0,0,1.21.45,1.63,1.63,0,0,0,1.84-.63,1.43,1.43,0,0,0-.28-1.94,6.31,6.31,0,0,1-1.42-2.84c-.46-1.92-.09-2.68,1.81-3.06a13.22,13.22,0,0,0,4.22-1.92c3.36-2,5.61-5.22,7.89-8.37.71-1,1.45-1.88,2.62-2a20.16,20.16,0,0,1,7.18.23,4.8,4.8,0,0,1,2.88,1.68,10.5,10.5,0,0,0,2.83,2.69c1.4.94,1.47,2.05.3,3.36a13,13,0,0,1-3.3,2.57,4.81,4.81,0,0,0-2.3,2.09c-.59,1.32-1.74,1.62-3,1.8a11.48,11.48,0,0,1-4.57-.59,3.79,3.79,0,0,0-4.49,2.19c-.41,1-.13,1.89.92,2.05a23.78,23.78,0,0,0,6.4.61c3.43-.38,3.78-.21,5.08,3a4.86,4.86,0,0,0,2.6,2.83c1.91.82,3.84,1.58,5.77,2.35a3.52,3.52,0,0,0,3.86-.64c1.61-1.35,3.31-2.58,4.91-3.94,1.89-1.62,2.22-3.37,1.2-5.77-.35-.82-.73-1.63-1-2.48a1.37,1.37,0,0,1,.37-1.7,1.26,1.26,0,0,1,1.66.28c.87.87,1.64,1.84,2.52,2.7,1.33,1.31,2.15,1.38,3.65.28,1.12-.82,2.21-1.72,3.27-2.63,1.84-1.57,2.06-3.08.84-5.19a5.46,5.46,0,0,0-1.9-1.77c-2.13-1.42-3.71-3.17-3.49-6.12a4.34,4.34,0,0,0-2-3.85,13.28,13.28,0,0,0-5.39-2.46,6.46,6.46,0,0,1-4.72-3.82,5,5,0,0,0-3.95-3.06,27.26,27.26,0,0,0-3.59-.35c-4.74-.35-9.41,1-14.15.58-4.93-.46-9,1.26-12.63,4.84-1.74,1.72-2.92,3.29-1.74,5.82a2.24,2.24,0,0,1-.64,2.67,3.82,3.82,0,0,1-6.19-.69,11.41,11.41,0,0,1-1.32-4.06c-.37-2.11-1.27-2.67-3.3-2.3a12.38,12.38,0,0,0-4.56,1.82c-2.18,1.43-4,3-3.43,6.27.38,2.38-1.28,3.85-3.61,3.72a7.2,7.2,0,0,1-1-.16c-2.47-.42-4.91-.67-7.34.41a6,6,0,0,1-2.29.24,35.45,35.45,0,0,0-5.14.37,6.46,6.46,0,0,1-5.78-1.56,5.05,5.05,0,0,0-4.59-1.25c-2.79.55-5.61.82-8.36,1.62-3.91,1.13-7.81,1.4-11.36-1.34a5.68,5.68,0,0,0-3.94-1,5.1,5.1,0,0,1-3.23-.7c-3.52-2.38-7.4-3-11.55-3.19-3.3-.13-6.58-1.08-9.85.21-6.17-.38-12.09,1.56-18.09,2.51-4.08.64-7.69-.5-11.32-1.5-2.33-.65-4.47-1.71-7-1.11a4,4,0,0,1-1.29,0c-5-.4-9.87-1.39-14.79-2.2-3.51-.58-7-2.11-10.61-.34a4.5,4.5,0,0,1-1.53.12c-3,.21-6,.38-9,.66a8.92,8.92,0,0,0-3.25.79c-2.8,1.45-5.85,2.11-8.7,3.37a22.17,22.17,0,0,1-6.22,1.69,26.35,26.35,0,0,0-2.79.52c-1.9.45-3.31,1.38-3.53,3.68a4.18,4.18,0,0,1-2.78,3.58,14.35,14.35,0,0,1-3.17,1.1c-2.29.38-4.58.8-6.85,1.28-2.5.52-3.51,1.91-3.48,4.52,0,.93.41,1.32,1.27,1.25a6.69,6.69,0,0,1,2.56-.05,1.08,1.08,0,0,1,.53,1.87,5.67,5.67,0,0,1-2,1.24c-3.06,1.67-6.62,2-9.61,3.85a16.28,16.28,0,0,1-4.25,1.92,4.66,4.66,0,0,0-3.13,3,5.26,5.26,0,0,1-.82,1.66,3.12,3.12,0,0,0-.34,3.74c.81,1.81,1.64,3.48,3.91,3.85,1.57.25,1.75,1.56.56,2.76A5,5,0,0,1,898.38,57Z"/><path class="cls-2" d="M1084.7,206.35c-.58.17-1.18.27-1.76.41s-1.11.27-1.14.91c0,.81.66,1,1.24,1.12,1.1.24,2.2.45,3.3.6,1.79.25,3.59,1,5.36.44a66.61,66.61,0,0,1,6.8-1.51c.78-.14,1.59-.31,1.8-1.26.25-1.12-.54-1.69-1.33-2-3.13-1.34-6-3.72-9.36-3-1.1-.07-1.87-.16-2.64-.17-1.82,0-1.91.13-1.2,2S1086.3,205.88,1084.7,206.35Z"/><path class="cls-2" d="M1081.41,199.9c-.69-.52-1.49-.9-2.2-1.4-1.71-1.2-3.82-1.75-5.28-3.31-3.14-3.35-7.21-4.77-11.28-6.22a9,9,0,0,0-3-.47,17.48,17.48,0,0,0-6.75,1.56,7.72,7.72,0,0,0-3.5,3.09.93.93,0,0,0-.11,1,.77.77,0,0,0,.92.3,32.91,32.91,0,0,0,3.19-1c4.13-1.64,7.89.3,11.75,1.3a1.2,1.2,0,0,1,.42.31,22.76,22.76,0,0,0,3.78,2.79,5.22,5.22,0,0,1,2.46,3,1.62,1.62,0,0,0,2.14,1.37,6,6,0,0,1,4.24.64,3.34,3.34,0,0,0,3,.11C1082.68,202.17,1082.81,201,1081.41,199.9Z"/></g></g></g></svg>